G04 #@! TF.FileFunction,Copper,L1,Top,Signal*
%FSLAX46Y46*%
G04 Gerber Fmt 4.6, Leading zero omitted, Abs format (unit mm)*
G04 Created by KiCad (PCBNEW 4.0.7-e2-6376~58~ubuntu14.04.1) date Sat Feb  3 00:25:04 2018*
%MOMM*%
%LPD*%
G01*
G04 APERTURE LIST*
%ADD10C,0.100000*%
%ADD11C,1.998980*%
%ADD12R,3.500000X1.600000*%
%ADD13R,0.800000X1.000000*%
%ADD14R,1.700000X1.700000*%
%ADD15O,1.700000X1.700000*%
%ADD16R,1.600000X1.600000*%
%ADD17C,1.600000*%
%ADD18C,4.000000*%
%ADD19R,1.900000X0.800000*%
%ADD20C,1.500000*%
%ADD21R,1.200000X0.900000*%
%ADD22R,0.900000X1.200000*%
%ADD23R,0.900000X0.900000*%
%ADD24R,1.070000X1.800000*%
%ADD25O,1.070000X1.800000*%
%ADD26R,1.800000X1.800000*%
%ADD27C,1.800000*%
%ADD28R,2.000000X2.000000*%
%ADD29C,2.000000*%
%ADD30C,0.600000*%
%ADD31C,0.250000*%
%ADD32C,0.254000*%
G04 APERTURE END LIST*
D10*
D11*
X121920000Y-106045000D03*
X125730000Y-106045000D03*
D12*
X109380000Y-80645000D03*
X103980000Y-80645000D03*
D13*
X132653000Y-91968000D03*
X132653000Y-94468000D03*
X131253000Y-94468000D03*
X131253000Y-91968000D03*
D14*
X144145000Y-79375000D03*
D15*
X144145000Y-81915000D03*
X141605000Y-79375000D03*
X141605000Y-81915000D03*
X139065000Y-79375000D03*
X139065000Y-81915000D03*
X136525000Y-79375000D03*
X136525000Y-81915000D03*
D16*
X163195000Y-87630000D03*
D17*
X163195000Y-90400000D03*
X163195000Y-93170000D03*
X163195000Y-95940000D03*
X163195000Y-98710000D03*
X166035000Y-89015000D03*
X166035000Y-91785000D03*
X166035000Y-94555000D03*
X166035000Y-97325000D03*
D18*
X163495000Y-105670000D03*
X163495000Y-80670000D03*
D11*
X155575000Y-103505000D03*
X151765000Y-103505000D03*
D19*
X191558286Y-148044000D03*
X191558286Y-149944000D03*
X194558286Y-148994000D03*
X155345000Y-96205000D03*
X155345000Y-98105000D03*
X158345000Y-97155000D03*
X155345000Y-92395000D03*
X155345000Y-94295000D03*
X158345000Y-93345000D03*
X155345000Y-88585000D03*
X155345000Y-90485000D03*
X158345000Y-89535000D03*
D20*
X142875000Y-104775000D03*
X137995000Y-104775000D03*
D21*
X172594000Y-148694000D03*
X174794000Y-148694000D03*
D22*
X167894000Y-70147000D03*
X167894000Y-72347000D03*
D23*
X105815000Y-100870000D03*
X105815000Y-104870000D03*
X105815000Y-102210000D03*
X105815000Y-103530000D03*
X108815000Y-102210000D03*
X108815000Y-100870000D03*
X108815000Y-104870000D03*
X108815000Y-103530000D03*
X149630000Y-91345000D03*
X149630000Y-95345000D03*
X149630000Y-92685000D03*
X149630000Y-94005000D03*
X152630000Y-92685000D03*
X152630000Y-91345000D03*
X152630000Y-95345000D03*
X152630000Y-94005000D03*
D11*
X155575000Y-106045000D03*
X151765000Y-106045000D03*
D10*
G36*
X134978666Y-95130445D02*
X134589757Y-94741536D01*
X135721128Y-93610165D01*
X136110037Y-93999074D01*
X134978666Y-95130445D01*
X134978666Y-95130445D01*
G37*
G36*
X135544352Y-95696130D02*
X135155443Y-95307221D01*
X136286814Y-94175850D01*
X136675723Y-94564759D01*
X135544352Y-95696130D01*
X135544352Y-95696130D01*
G37*
G36*
X136110037Y-96261816D02*
X135721128Y-95872907D01*
X136852499Y-94741536D01*
X137241408Y-95130445D01*
X136110037Y-96261816D01*
X136110037Y-96261816D01*
G37*
G36*
X136675722Y-96827501D02*
X136286813Y-96438592D01*
X137418184Y-95307221D01*
X137807093Y-95696130D01*
X136675722Y-96827501D01*
X136675722Y-96827501D01*
G37*
G36*
X137241408Y-97393187D02*
X136852499Y-97004278D01*
X137983870Y-95872907D01*
X138372779Y-96261816D01*
X137241408Y-97393187D01*
X137241408Y-97393187D01*
G37*
G36*
X137807093Y-97958872D02*
X137418184Y-97569963D01*
X138549555Y-96438592D01*
X138938464Y-96827501D01*
X137807093Y-97958872D01*
X137807093Y-97958872D01*
G37*
G36*
X138372779Y-98524557D02*
X137983870Y-98135648D01*
X139115241Y-97004277D01*
X139504150Y-97393186D01*
X138372779Y-98524557D01*
X138372779Y-98524557D01*
G37*
G36*
X138938464Y-99090243D02*
X138549555Y-98701334D01*
X139680926Y-97569963D01*
X140069835Y-97958872D01*
X138938464Y-99090243D01*
X138938464Y-99090243D01*
G37*
G36*
X142120445Y-98701334D02*
X141731536Y-99090243D01*
X140600165Y-97958872D01*
X140989074Y-97569963D01*
X142120445Y-98701334D01*
X142120445Y-98701334D01*
G37*
G36*
X142686130Y-98135648D02*
X142297221Y-98524557D01*
X141165850Y-97393186D01*
X141554759Y-97004277D01*
X142686130Y-98135648D01*
X142686130Y-98135648D01*
G37*
G36*
X143251816Y-97569963D02*
X142862907Y-97958872D01*
X141731536Y-96827501D01*
X142120445Y-96438592D01*
X143251816Y-97569963D01*
X143251816Y-97569963D01*
G37*
G36*
X143817501Y-97004278D02*
X143428592Y-97393187D01*
X142297221Y-96261816D01*
X142686130Y-95872907D01*
X143817501Y-97004278D01*
X143817501Y-97004278D01*
G37*
G36*
X144383187Y-96438592D02*
X143994278Y-96827501D01*
X142862907Y-95696130D01*
X143251816Y-95307221D01*
X144383187Y-96438592D01*
X144383187Y-96438592D01*
G37*
G36*
X144948872Y-95872907D02*
X144559963Y-96261816D01*
X143428592Y-95130445D01*
X143817501Y-94741536D01*
X144948872Y-95872907D01*
X144948872Y-95872907D01*
G37*
G36*
X145514557Y-95307221D02*
X145125648Y-95696130D01*
X143994277Y-94564759D01*
X144383186Y-94175850D01*
X145514557Y-95307221D01*
X145514557Y-95307221D01*
G37*
G36*
X146080243Y-94741536D02*
X145691334Y-95130445D01*
X144559963Y-93999074D01*
X144948872Y-93610165D01*
X146080243Y-94741536D01*
X146080243Y-94741536D01*
G37*
G36*
X144948872Y-93079835D02*
X144559963Y-92690926D01*
X145691334Y-91559555D01*
X146080243Y-91948464D01*
X144948872Y-93079835D01*
X144948872Y-93079835D01*
G37*
G36*
X144383186Y-92514150D02*
X143994277Y-92125241D01*
X145125648Y-90993870D01*
X145514557Y-91382779D01*
X144383186Y-92514150D01*
X144383186Y-92514150D01*
G37*
G36*
X143817501Y-91948464D02*
X143428592Y-91559555D01*
X144559963Y-90428184D01*
X144948872Y-90817093D01*
X143817501Y-91948464D01*
X143817501Y-91948464D01*
G37*
G36*
X143251816Y-91382779D02*
X142862907Y-90993870D01*
X143994278Y-89862499D01*
X144383187Y-90251408D01*
X143251816Y-91382779D01*
X143251816Y-91382779D01*
G37*
G36*
X142686130Y-90817093D02*
X142297221Y-90428184D01*
X143428592Y-89296813D01*
X143817501Y-89685722D01*
X142686130Y-90817093D01*
X142686130Y-90817093D01*
G37*
G36*
X142120445Y-90251408D02*
X141731536Y-89862499D01*
X142862907Y-88731128D01*
X143251816Y-89120037D01*
X142120445Y-90251408D01*
X142120445Y-90251408D01*
G37*
G36*
X141554759Y-89685723D02*
X141165850Y-89296814D01*
X142297221Y-88165443D01*
X142686130Y-88554352D01*
X141554759Y-89685723D01*
X141554759Y-89685723D01*
G37*
G36*
X140989074Y-89120037D02*
X140600165Y-88731128D01*
X141731536Y-87599757D01*
X142120445Y-87988666D01*
X140989074Y-89120037D01*
X140989074Y-89120037D01*
G37*
G36*
X140069835Y-88731128D02*
X139680926Y-89120037D01*
X138549555Y-87988666D01*
X138938464Y-87599757D01*
X140069835Y-88731128D01*
X140069835Y-88731128D01*
G37*
G36*
X139504150Y-89296814D02*
X139115241Y-89685723D01*
X137983870Y-88554352D01*
X138372779Y-88165443D01*
X139504150Y-89296814D01*
X139504150Y-89296814D01*
G37*
G36*
X138938464Y-89862499D02*
X138549555Y-90251408D01*
X137418184Y-89120037D01*
X137807093Y-88731128D01*
X138938464Y-89862499D01*
X138938464Y-89862499D01*
G37*
G36*
X138372779Y-90428184D02*
X137983870Y-90817093D01*
X136852499Y-89685722D01*
X137241408Y-89296813D01*
X138372779Y-90428184D01*
X138372779Y-90428184D01*
G37*
G36*
X137807093Y-90993870D02*
X137418184Y-91382779D01*
X136286813Y-90251408D01*
X136675722Y-89862499D01*
X137807093Y-90993870D01*
X137807093Y-90993870D01*
G37*
G36*
X137241408Y-91559555D02*
X136852499Y-91948464D01*
X135721128Y-90817093D01*
X136110037Y-90428184D01*
X137241408Y-91559555D01*
X137241408Y-91559555D01*
G37*
G36*
X136675723Y-92125241D02*
X136286814Y-92514150D01*
X135155443Y-91382779D01*
X135544352Y-90993870D01*
X136675723Y-92125241D01*
X136675723Y-92125241D01*
G37*
G36*
X136110037Y-92690926D02*
X135721128Y-93079835D01*
X134589757Y-91948464D01*
X134978666Y-91559555D01*
X136110037Y-92690926D01*
X136110037Y-92690926D01*
G37*
D24*
X79248000Y-124714000D03*
D25*
X80518000Y-124714000D03*
X81788000Y-124714000D03*
X83058000Y-124714000D03*
D14*
X150495000Y-81915000D03*
D15*
X150495000Y-79375000D03*
X153035000Y-81915000D03*
X153035000Y-79375000D03*
X155575000Y-81915000D03*
X155575000Y-79375000D03*
D26*
X88900000Y-123825000D03*
D27*
X91440000Y-123825000D03*
D14*
X79248000Y-124714000D03*
D15*
X79248000Y-127254000D03*
X79248000Y-129794000D03*
D28*
X123825000Y-81915000D03*
D29*
X123825000Y-89515000D03*
D30*
X140462000Y-105979000D03*
X131953000Y-96393000D03*
X151384000Y-97917000D03*
X136017000Y-88519000D03*
X134874000Y-96139000D03*
X139700000Y-101727000D03*
X135382000Y-89535000D03*
X134874000Y-90678000D03*
X131953000Y-89916000D03*
X131953000Y-95504000D03*
X131953000Y-90805000D03*
X160020000Y-94107000D03*
X160020000Y-92710000D03*
X160020000Y-91440000D03*
D31*
X137995000Y-104775000D02*
X137995000Y-98513427D01*
X137995000Y-98513427D02*
X138744010Y-97764417D01*
X155345000Y-94295000D02*
X156530000Y-94295000D01*
X156525000Y-90485000D02*
X155345000Y-90485000D01*
X156972000Y-90932000D02*
X156525000Y-90485000D01*
X156972000Y-93853000D02*
X156972000Y-90932000D01*
X156530000Y-94295000D02*
X156972000Y-93853000D01*
X155345000Y-98105000D02*
X156022000Y-98105000D01*
X156022000Y-98105000D02*
X156972000Y-97155000D01*
X156972000Y-97155000D02*
X156972000Y-94742000D01*
X156972000Y-94742000D02*
X156525000Y-94295000D01*
X156525000Y-94295000D02*
X155345000Y-94295000D01*
X140462000Y-105979000D02*
X140462000Y-106045000D01*
X142875000Y-104775000D02*
X142875000Y-104648000D01*
X142875000Y-104648000D02*
X141732000Y-103505000D01*
X138684000Y-98955798D02*
X139309695Y-98330103D01*
X138684000Y-102743000D02*
X138684000Y-98955798D01*
X139446000Y-103505000D02*
X138684000Y-102743000D01*
X141732000Y-103505000D02*
X139446000Y-103505000D01*
X132653000Y-94468000D02*
X132653000Y-95947000D01*
X132207000Y-96393000D02*
X131953000Y-96393000D01*
X132653000Y-95947000D02*
X132207000Y-96393000D01*
X132653000Y-94172000D02*
X132653000Y-94468000D01*
X143057361Y-96633047D02*
X143115047Y-96633047D01*
X143115047Y-96633047D02*
X144399000Y-97917000D01*
X144399000Y-97917000D02*
X151384000Y-97917000D01*
X136017000Y-88519000D02*
X136017000Y-89535000D01*
X136017000Y-89535000D02*
X137046953Y-90564953D01*
X137046953Y-90564953D02*
X137046953Y-90622639D01*
X151765000Y-106045000D02*
X151638000Y-106045000D01*
X151638000Y-106045000D02*
X149098000Y-103505000D01*
X134874000Y-96139000D02*
X135915583Y-95097417D01*
X148844000Y-101727000D02*
X139700000Y-101727000D01*
X149098000Y-101981000D02*
X148844000Y-101727000D01*
X149098000Y-103505000D02*
X149098000Y-101981000D01*
X135915583Y-95097417D02*
X135915583Y-94935990D01*
X136077010Y-94935990D02*
X135915583Y-94935990D01*
X141360305Y-98330103D02*
X141637103Y-98330103D01*
X141637103Y-98330103D02*
X144272000Y-100965000D01*
X144272000Y-100965000D02*
X149225000Y-100965000D01*
X149225000Y-100965000D02*
X151765000Y-103505000D01*
X148844000Y-89027000D02*
X148844000Y-85471000D01*
X148844000Y-90805000D02*
X148844000Y-89027000D01*
X149384000Y-91345000D02*
X148844000Y-90805000D01*
X154305000Y-80645000D02*
X153035000Y-79375000D01*
X154305000Y-82804000D02*
X154305000Y-80645000D01*
X153416000Y-83693000D02*
X154305000Y-82804000D01*
X150622000Y-83693000D02*
X153416000Y-83693000D01*
X148844000Y-85471000D02*
X150622000Y-83693000D01*
X144754417Y-94935990D02*
X144846990Y-94935990D01*
X144846990Y-94935990D02*
X145542000Y-95631000D01*
X145542000Y-95631000D02*
X147066000Y-95631000D01*
X147066000Y-95631000D02*
X148590000Y-97155000D01*
X148590000Y-97155000D02*
X150368000Y-97155000D01*
X150368000Y-97155000D02*
X151384000Y-96139000D01*
X151384000Y-96139000D02*
X151384000Y-92583000D01*
X151384000Y-92583000D02*
X150146000Y-91345000D01*
X150146000Y-91345000D02*
X149630000Y-91345000D01*
X149630000Y-91345000D02*
X149384000Y-91345000D01*
X148082000Y-89027000D02*
X148082000Y-84328000D01*
X148692000Y-92685000D02*
X148082000Y-92075000D01*
X148082000Y-92075000D02*
X148082000Y-89027000D01*
X149630000Y-92685000D02*
X148692000Y-92685000D01*
X148082000Y-84328000D02*
X150495000Y-81915000D01*
X145320103Y-94370305D02*
X146821305Y-94370305D01*
X150622000Y-93345000D02*
X149962000Y-92685000D01*
X150622000Y-95885000D02*
X150622000Y-93345000D01*
X150114000Y-96393000D02*
X150622000Y-95885000D01*
X148844000Y-96393000D02*
X150114000Y-96393000D01*
X146821305Y-94370305D02*
X148844000Y-96393000D01*
X149962000Y-92685000D02*
X149630000Y-92685000D01*
X147320000Y-89281000D02*
X147320000Y-82677000D01*
X147075305Y-92319695D02*
X147320000Y-92075000D01*
X147320000Y-92075000D02*
X147320000Y-89281000D01*
X147056695Y-92319695D02*
X147075305Y-92319695D01*
X151765000Y-80645000D02*
X153035000Y-81915000D01*
X149352000Y-80645000D02*
X151765000Y-80645000D01*
X147320000Y-82677000D02*
X149352000Y-80645000D01*
X145320103Y-92319695D02*
X147056695Y-92319695D01*
X148742000Y-94005000D02*
X149630000Y-94005000D01*
X147056695Y-92319695D02*
X148742000Y-94005000D01*
X135382000Y-89535000D02*
X135509000Y-89662000D01*
X135509000Y-89662000D02*
X135509000Y-90216056D01*
X135509000Y-90216056D02*
X136481268Y-91188324D01*
X134874000Y-90678000D02*
X135915583Y-91719583D01*
X135915583Y-91719583D02*
X135915583Y-91754010D01*
X132653000Y-91968000D02*
X132653000Y-90616000D01*
X132653000Y-90616000D02*
X131953000Y-89916000D01*
X131253000Y-94468000D02*
X131253000Y-95058000D01*
X131699000Y-95504000D02*
X131953000Y-95504000D01*
X131253000Y-95058000D02*
X131699000Y-95504000D01*
X131253000Y-94468000D02*
X131253000Y-94677000D01*
X131953000Y-90805000D02*
X131253000Y-91505000D01*
X131253000Y-91505000D02*
X131253000Y-91968000D01*
X152630000Y-94005000D02*
X153060000Y-94005000D01*
X153060000Y-94005000D02*
X153670000Y-94615000D01*
X153670000Y-94615000D02*
X153670000Y-95885000D01*
X153670000Y-95885000D02*
X153990000Y-96205000D01*
X153990000Y-96205000D02*
X155345000Y-96205000D01*
X160020000Y-95885000D02*
X160020000Y-94107000D01*
X158345000Y-97155000D02*
X158750000Y-97155000D01*
X158750000Y-97155000D02*
X160020000Y-95885000D01*
X160020000Y-95885000D02*
X161350000Y-94555000D01*
X161350000Y-94555000D02*
X166035000Y-94555000D01*
X152630000Y-92685000D02*
X155055000Y-92685000D01*
X155055000Y-92685000D02*
X155345000Y-92395000D01*
X160020000Y-93345000D02*
X160020000Y-92710000D01*
X158345000Y-93345000D02*
X160020000Y-93345000D01*
X160020000Y-93345000D02*
X163020000Y-93345000D01*
X163020000Y-93345000D02*
X163195000Y-93170000D01*
X152630000Y-91345000D02*
X152630000Y-90067000D01*
X154112000Y-88585000D02*
X155345000Y-88585000D01*
X152630000Y-90067000D02*
X154112000Y-88585000D01*
X158345000Y-89535000D02*
X159766000Y-89535000D01*
X160020000Y-89789000D02*
X160020000Y-91440000D01*
X159766000Y-89535000D02*
X160020000Y-89789000D01*
X158345000Y-89535000D02*
X161925000Y-89535000D01*
X165064000Y-91785000D02*
X166035000Y-91785000D01*
X164465000Y-91186000D02*
X165064000Y-91785000D01*
X164465000Y-89535000D02*
X164465000Y-91186000D01*
X163830000Y-88900000D02*
X164465000Y-89535000D01*
X162560000Y-88900000D02*
X163830000Y-88900000D01*
X161925000Y-89535000D02*
X162560000Y-88900000D01*
D32*
G36*
X135474946Y-78295853D02*
X135153039Y-78777622D01*
X135040000Y-79345907D01*
X135040000Y-79404093D01*
X135153039Y-79972378D01*
X135474946Y-80454147D01*
X135760578Y-80645000D01*
X135474946Y-80835853D01*
X135153039Y-81317622D01*
X135040000Y-81885907D01*
X135040000Y-81944093D01*
X135153039Y-82512378D01*
X135474946Y-82994147D01*
X135956715Y-83316054D01*
X136525000Y-83429093D01*
X137093285Y-83316054D01*
X137575054Y-82994147D01*
X137795000Y-82664974D01*
X138014946Y-82994147D01*
X138496715Y-83316054D01*
X139065000Y-83429093D01*
X139633285Y-83316054D01*
X140115054Y-82994147D01*
X140335000Y-82664974D01*
X140554946Y-82994147D01*
X141036715Y-83316054D01*
X141605000Y-83429093D01*
X142173285Y-83316054D01*
X142655054Y-82994147D01*
X142882702Y-82653447D01*
X142949817Y-82796358D01*
X143378076Y-83186645D01*
X143788110Y-83356476D01*
X144018000Y-83235155D01*
X144018000Y-82042000D01*
X144272000Y-82042000D01*
X144272000Y-83235155D01*
X144501890Y-83356476D01*
X144911924Y-83186645D01*
X145340183Y-82796358D01*
X145586486Y-82271892D01*
X145465819Y-82042000D01*
X144272000Y-82042000D01*
X144018000Y-82042000D01*
X143998000Y-82042000D01*
X143998000Y-81788000D01*
X144018000Y-81788000D01*
X144018000Y-81768000D01*
X144272000Y-81768000D01*
X144272000Y-81788000D01*
X145465819Y-81788000D01*
X145586486Y-81558108D01*
X145340183Y-81033642D01*
X145134496Y-80846192D01*
X145230317Y-80828162D01*
X145446441Y-80689090D01*
X145591431Y-80476890D01*
X145642440Y-80225000D01*
X145642440Y-78525000D01*
X145598162Y-78289683D01*
X145527583Y-78180000D01*
X149618333Y-78180000D01*
X149444946Y-78295853D01*
X149123039Y-78777622D01*
X149010000Y-79345907D01*
X149010000Y-79404093D01*
X149115034Y-79932136D01*
X149061161Y-79942852D01*
X148814599Y-80107599D01*
X146782599Y-82139599D01*
X146617852Y-82386161D01*
X146560000Y-82677000D01*
X146560000Y-91523749D01*
X146538052Y-91490655D01*
X146149143Y-91101746D01*
X146040267Y-91027354D01*
X145972366Y-90924970D01*
X145583457Y-90536061D01*
X145474584Y-90461671D01*
X145406681Y-90359284D01*
X145017772Y-89970375D01*
X144908898Y-89895984D01*
X144840996Y-89793599D01*
X144452087Y-89404690D01*
X144363278Y-89344009D01*
X144355828Y-89326024D01*
X144274115Y-89244311D01*
X144137783Y-89244311D01*
X144003222Y-89215121D01*
X143875286Y-89239194D01*
X143899194Y-89128981D01*
X143870003Y-88973843D01*
X143870003Y-88840199D01*
X143966919Y-88937114D01*
X143788290Y-88758486D01*
X143767847Y-88750018D01*
X143709625Y-88662228D01*
X143320716Y-88273319D01*
X143211840Y-88198927D01*
X143143939Y-88096543D01*
X142755030Y-87707634D01*
X142646157Y-87633244D01*
X142578254Y-87530857D01*
X142189345Y-87141948D01*
X141991642Y-87006863D01*
X141740480Y-86952379D01*
X141487909Y-86999903D01*
X141273727Y-87141948D01*
X140335000Y-88080675D01*
X139396273Y-87141948D01*
X139198570Y-87006863D01*
X138947408Y-86952379D01*
X138694837Y-86999903D01*
X138480655Y-87141948D01*
X138091746Y-87530857D01*
X138017354Y-87639733D01*
X137914970Y-87707634D01*
X137526061Y-88096543D01*
X137451671Y-88205416D01*
X137349284Y-88273319D01*
X136960375Y-88662228D01*
X136951865Y-88674683D01*
X136952162Y-88333833D01*
X136810117Y-87990057D01*
X136547327Y-87726808D01*
X136203799Y-87584162D01*
X135831833Y-87583838D01*
X135488057Y-87725883D01*
X135224808Y-87988673D01*
X135082162Y-88332201D01*
X135081888Y-88647332D01*
X134853057Y-88741883D01*
X134589808Y-89004673D01*
X134447162Y-89348201D01*
X134446838Y-89720167D01*
X134490129Y-89824940D01*
X134345057Y-89884883D01*
X134081808Y-90147673D01*
X133939162Y-90491201D01*
X133938838Y-90863167D01*
X134080883Y-91206943D01*
X134248125Y-91374478D01*
X134131948Y-91490655D01*
X133996863Y-91688358D01*
X133942379Y-91939520D01*
X133989903Y-92192091D01*
X134131948Y-92406273D01*
X135070675Y-93345000D01*
X134131948Y-94283727D01*
X133996863Y-94481430D01*
X133942379Y-94732592D01*
X133989903Y-94985163D01*
X134131948Y-95199345D01*
X134311742Y-95379139D01*
X134081808Y-95608673D01*
X133939162Y-95952201D01*
X133938838Y-96324167D01*
X134080883Y-96667943D01*
X134343673Y-96931192D01*
X134687201Y-97073838D01*
X135059167Y-97074162D01*
X135402943Y-96932117D01*
X135642837Y-96692641D01*
X135666192Y-96669327D01*
X135668626Y-96663465D01*
X135668626Y-96718430D01*
X135750339Y-96800143D01*
X135770782Y-96808611D01*
X135829004Y-96896401D01*
X136217913Y-97285310D01*
X136306722Y-97345991D01*
X136314172Y-97363976D01*
X136395885Y-97445689D01*
X136532217Y-97445689D01*
X136666778Y-97474879D01*
X136794714Y-97450806D01*
X136770806Y-97561019D01*
X136799997Y-97716157D01*
X136799997Y-97849801D01*
X136881710Y-97931514D01*
X136902153Y-97939982D01*
X136960375Y-98027772D01*
X137270012Y-98337409D01*
X137235000Y-98513427D01*
X137235000Y-103590453D01*
X137211485Y-103600169D01*
X136821539Y-103989436D01*
X136610241Y-104498298D01*
X136609760Y-105049285D01*
X136820169Y-105558515D01*
X137209436Y-105948461D01*
X137718298Y-106159759D01*
X138269285Y-106160240D01*
X138778515Y-105949831D01*
X139168461Y-105560564D01*
X139379759Y-105051702D01*
X139380240Y-104500715D01*
X139268234Y-104229640D01*
X139446000Y-104265000D01*
X141417198Y-104265000D01*
X141537260Y-104385062D01*
X141490241Y-104498298D01*
X141489760Y-105049285D01*
X141700169Y-105558515D01*
X142089436Y-105948461D01*
X142598298Y-106159759D01*
X143149285Y-106160240D01*
X143658515Y-105949831D01*
X144048461Y-105560564D01*
X144259759Y-105051702D01*
X144260240Y-104500715D01*
X144049831Y-103991485D01*
X143660564Y-103601539D01*
X143151702Y-103390241D01*
X142691641Y-103389839D01*
X142269401Y-102967599D01*
X142022839Y-102802852D01*
X141732000Y-102745000D01*
X139760802Y-102745000D01*
X139677783Y-102661981D01*
X139885167Y-102662162D01*
X140228943Y-102520117D01*
X140262118Y-102487000D01*
X148338000Y-102487000D01*
X148338000Y-103505000D01*
X148395852Y-103795839D01*
X148560599Y-104042401D01*
X150161853Y-105643655D01*
X150130794Y-105718453D01*
X150130226Y-106368694D01*
X150378538Y-106969655D01*
X150837927Y-107429846D01*
X151438453Y-107679206D01*
X152088694Y-107679774D01*
X152689655Y-107431462D01*
X152924363Y-107197163D01*
X154602443Y-107197163D01*
X154701042Y-107463965D01*
X155310582Y-107690401D01*
X155960377Y-107666341D01*
X156448958Y-107463965D01*
X156547557Y-107197163D01*
X155575000Y-106224605D01*
X154602443Y-107197163D01*
X152924363Y-107197163D01*
X153149846Y-106972073D01*
X153399206Y-106371547D01*
X153399722Y-105780582D01*
X153929599Y-105780582D01*
X153953659Y-106430377D01*
X154156035Y-106918958D01*
X154422837Y-107017557D01*
X155395395Y-106045000D01*
X155754605Y-106045000D01*
X156727163Y-107017557D01*
X156993965Y-106918958D01*
X157220401Y-106309418D01*
X157196341Y-105659623D01*
X156993965Y-105171042D01*
X156727163Y-105072443D01*
X155754605Y-106045000D01*
X155395395Y-106045000D01*
X154422837Y-105072443D01*
X154156035Y-105171042D01*
X153929599Y-105780582D01*
X153399722Y-105780582D01*
X153399774Y-105721306D01*
X153151462Y-105120345D01*
X152806520Y-104774801D01*
X152924363Y-104657163D01*
X154602443Y-104657163D01*
X154645991Y-104775000D01*
X154602443Y-104892837D01*
X155575000Y-105865395D01*
X156547557Y-104892837D01*
X156504009Y-104775000D01*
X156547557Y-104657163D01*
X155575000Y-103684605D01*
X154602443Y-104657163D01*
X152924363Y-104657163D01*
X153149846Y-104432073D01*
X153399206Y-103831547D01*
X153399722Y-103240582D01*
X153929599Y-103240582D01*
X153953659Y-103890377D01*
X154156035Y-104378958D01*
X154422837Y-104477557D01*
X155395395Y-103505000D01*
X155754605Y-103505000D01*
X156727163Y-104477557D01*
X156993965Y-104378958D01*
X157220401Y-103769418D01*
X157196341Y-103119623D01*
X156993965Y-102631042D01*
X156727163Y-102532443D01*
X155754605Y-103505000D01*
X155395395Y-103505000D01*
X154422837Y-102532443D01*
X154156035Y-102631042D01*
X153929599Y-103240582D01*
X153399722Y-103240582D01*
X153399774Y-103181306D01*
X153151462Y-102580345D01*
X152924351Y-102352837D01*
X154602443Y-102352837D01*
X155575000Y-103325395D01*
X156547557Y-102352837D01*
X156448958Y-102086035D01*
X155839418Y-101859599D01*
X155189623Y-101883659D01*
X154701042Y-102086035D01*
X154602443Y-102352837D01*
X152924351Y-102352837D01*
X152692073Y-102120154D01*
X152091547Y-101870794D01*
X151441306Y-101870226D01*
X151274111Y-101939309D01*
X149762401Y-100427599D01*
X149515839Y-100262852D01*
X149225000Y-100205000D01*
X144586802Y-100205000D01*
X143059599Y-98677797D01*
X143143939Y-98593457D01*
X143218329Y-98484584D01*
X143320716Y-98416681D01*
X143572298Y-98165100D01*
X143861599Y-98454401D01*
X144108161Y-98619148D01*
X144399000Y-98677000D01*
X150821537Y-98677000D01*
X150853673Y-98709192D01*
X151197201Y-98851838D01*
X151569167Y-98852162D01*
X151912943Y-98710117D01*
X152176192Y-98447327D01*
X152199684Y-98390750D01*
X153760000Y-98390750D01*
X153760000Y-98631310D01*
X153856673Y-98864699D01*
X154035302Y-99043327D01*
X154268691Y-99140000D01*
X155059250Y-99140000D01*
X155218000Y-98981250D01*
X155218000Y-98232000D01*
X155472000Y-98232000D01*
X155472000Y-98981250D01*
X155630750Y-99140000D01*
X156421309Y-99140000D01*
X156654698Y-99043327D01*
X156833327Y-98864699D01*
X156930000Y-98631310D01*
X156930000Y-98390750D01*
X156771250Y-98232000D01*
X155472000Y-98232000D01*
X155218000Y-98232000D01*
X153918750Y-98232000D01*
X153760000Y-98390750D01*
X152199684Y-98390750D01*
X152318838Y-98103799D01*
X152319162Y-97731833D01*
X152177117Y-97388057D01*
X151914327Y-97124808D01*
X151602483Y-96995319D01*
X151921401Y-96676401D01*
X152086148Y-96429839D01*
X152087373Y-96423682D01*
X152180000Y-96442440D01*
X153080000Y-96442440D01*
X153141135Y-96430937D01*
X153452599Y-96742401D01*
X153699160Y-96907148D01*
X153854759Y-96938099D01*
X153930910Y-97056441D01*
X154070750Y-97151990D01*
X154035302Y-97166673D01*
X153856673Y-97345301D01*
X153760000Y-97578690D01*
X153760000Y-97819250D01*
X153918750Y-97978000D01*
X155218000Y-97978000D01*
X155218000Y-97958000D01*
X155472000Y-97958000D01*
X155472000Y-97978000D01*
X156771250Y-97978000D01*
X156857262Y-97891988D01*
X156930910Y-98006441D01*
X157143110Y-98151431D01*
X157395000Y-98202440D01*
X159295000Y-98202440D01*
X159530317Y-98158162D01*
X159746441Y-98019090D01*
X159891431Y-97806890D01*
X159942440Y-97555000D01*
X159942440Y-97037362D01*
X161664802Y-95315000D01*
X161900728Y-95315000D01*
X161760250Y-95653309D01*
X161759752Y-96224187D01*
X161977757Y-96751800D01*
X162381077Y-97155824D01*
X162788850Y-97325146D01*
X162383200Y-97492757D01*
X161979176Y-97896077D01*
X161760250Y-98423309D01*
X161759752Y-98994187D01*
X161977757Y-99521800D01*
X162381077Y-99925824D01*
X162908309Y-100144750D01*
X163479187Y-100145248D01*
X164006800Y-99927243D01*
X164410824Y-99523923D01*
X164629750Y-98996691D01*
X164630248Y-98425813D01*
X164412243Y-97898200D01*
X164008923Y-97494176D01*
X163601150Y-97324854D01*
X164006800Y-97157243D01*
X164410824Y-96753923D01*
X164629750Y-96226691D01*
X164630248Y-95655813D01*
X164489427Y-95315000D01*
X164796354Y-95315000D01*
X164817757Y-95366800D01*
X165221077Y-95770824D01*
X165628850Y-95940146D01*
X165223200Y-96107757D01*
X164819176Y-96511077D01*
X164600250Y-97038309D01*
X164599752Y-97609187D01*
X164817757Y-98136800D01*
X165221077Y-98540824D01*
X165748309Y-98759750D01*
X166319187Y-98760248D01*
X166846800Y-98542243D01*
X167250824Y-98138923D01*
X167469750Y-97611691D01*
X167470248Y-97040813D01*
X167252243Y-96513200D01*
X166848923Y-96109176D01*
X166441150Y-95939854D01*
X166846800Y-95772243D01*
X167250824Y-95368923D01*
X167469750Y-94841691D01*
X167470248Y-94270813D01*
X167252243Y-93743200D01*
X166848923Y-93339176D01*
X166441150Y-93169854D01*
X166846800Y-93002243D01*
X167250824Y-92598923D01*
X167469750Y-92071691D01*
X167470248Y-91500813D01*
X167252243Y-90973200D01*
X166848923Y-90569176D01*
X166441150Y-90399854D01*
X166846800Y-90232243D01*
X167250824Y-89828923D01*
X167469750Y-89301691D01*
X167470248Y-88730813D01*
X167252243Y-88203200D01*
X166848923Y-87799176D01*
X166321691Y-87580250D01*
X165750813Y-87579752D01*
X165223200Y-87797757D01*
X164819176Y-88201077D01*
X164639232Y-88634430D01*
X164609823Y-88605021D01*
X164630000Y-88556309D01*
X164630000Y-87915750D01*
X164471250Y-87757000D01*
X163322000Y-87757000D01*
X163322000Y-87777000D01*
X163068000Y-87777000D01*
X163068000Y-87757000D01*
X161918750Y-87757000D01*
X161760000Y-87915750D01*
X161760000Y-88556309D01*
X161780177Y-88605021D01*
X161610198Y-88775000D01*
X159817931Y-88775000D01*
X159759090Y-88683559D01*
X159546890Y-88538569D01*
X159295000Y-88487560D01*
X157395000Y-88487560D01*
X157159683Y-88531838D01*
X156943559Y-88670910D01*
X156942440Y-88672548D01*
X156942440Y-88185000D01*
X156898162Y-87949683D01*
X156759090Y-87733559D01*
X156546890Y-87588569D01*
X156295000Y-87537560D01*
X154395000Y-87537560D01*
X154159683Y-87581838D01*
X153943559Y-87720910D01*
X153834757Y-87880148D01*
X153821161Y-87882852D01*
X153821159Y-87882853D01*
X153821160Y-87882853D01*
X153574598Y-88047599D01*
X152092599Y-89529599D01*
X151927852Y-89776161D01*
X151870000Y-90067000D01*
X151870000Y-90339895D01*
X151728559Y-90430910D01*
X151583569Y-90643110D01*
X151532560Y-90895000D01*
X151532560Y-91656758D01*
X150717390Y-90841588D01*
X150683162Y-90659683D01*
X150544090Y-90443559D01*
X150331890Y-90298569D01*
X150080000Y-90247560D01*
X149604000Y-90247560D01*
X149604000Y-86703691D01*
X161760000Y-86703691D01*
X161760000Y-87344250D01*
X161918750Y-87503000D01*
X163068000Y-87503000D01*
X163068000Y-86353750D01*
X163322000Y-86353750D01*
X163322000Y-87503000D01*
X164471250Y-87503000D01*
X164630000Y-87344250D01*
X164630000Y-86703691D01*
X164533327Y-86470302D01*
X164354699Y-86291673D01*
X164121310Y-86195000D01*
X163480750Y-86195000D01*
X163322000Y-86353750D01*
X163068000Y-86353750D01*
X162909250Y-86195000D01*
X162268690Y-86195000D01*
X162035301Y-86291673D01*
X161856673Y-86470302D01*
X161760000Y-86703691D01*
X149604000Y-86703691D01*
X149604000Y-85785802D01*
X150936802Y-84453000D01*
X153416000Y-84453000D01*
X153706839Y-84395148D01*
X153953401Y-84230401D01*
X154842401Y-83341401D01*
X154904826Y-83247974D01*
X155006715Y-83316054D01*
X155575000Y-83429093D01*
X156143285Y-83316054D01*
X156625054Y-82994147D01*
X156946961Y-82512378D01*
X157060000Y-81944093D01*
X157060000Y-81885907D01*
X156946961Y-81317622D01*
X156625054Y-80835853D01*
X156341899Y-80646655D01*
X156341924Y-80646645D01*
X156770183Y-80256358D01*
X157016486Y-79731892D01*
X156895819Y-79502000D01*
X155702000Y-79502000D01*
X155702000Y-79522000D01*
X155448000Y-79522000D01*
X155448000Y-79502000D01*
X155428000Y-79502000D01*
X155428000Y-79248000D01*
X155448000Y-79248000D01*
X155448000Y-79228000D01*
X155702000Y-79228000D01*
X155702000Y-79248000D01*
X156895819Y-79248000D01*
X157016486Y-79018108D01*
X156770183Y-78493642D01*
X156426026Y-78180000D01*
X162621133Y-78180000D01*
X162004342Y-78434853D01*
X161262458Y-79175443D01*
X160860458Y-80143567D01*
X160859543Y-81191834D01*
X161259853Y-82160658D01*
X162000443Y-82902542D01*
X162968567Y-83304542D01*
X164016834Y-83305457D01*
X164985658Y-82905147D01*
X165727542Y-82164557D01*
X166129542Y-81196433D01*
X166130457Y-80148166D01*
X165730147Y-79179342D01*
X164989557Y-78437458D01*
X164369529Y-78180000D01*
X170740000Y-78180000D01*
X170740000Y-107875000D01*
X165015858Y-107875000D01*
X165727542Y-107164557D01*
X166129542Y-106196433D01*
X166130457Y-105148166D01*
X165730147Y-104179342D01*
X164989557Y-103437458D01*
X164021433Y-103035458D01*
X162973166Y-103034543D01*
X162004342Y-103434853D01*
X161262458Y-104175443D01*
X160860458Y-105143567D01*
X160859543Y-106191834D01*
X161259853Y-107160658D01*
X161972949Y-107875000D01*
X113792000Y-107875000D01*
X113792000Y-106368694D01*
X120285226Y-106368694D01*
X120533538Y-106969655D01*
X120992927Y-107429846D01*
X121593453Y-107679206D01*
X122243694Y-107679774D01*
X122844655Y-107431462D01*
X123079363Y-107197163D01*
X124757443Y-107197163D01*
X124856042Y-107463965D01*
X125465582Y-107690401D01*
X126115377Y-107666341D01*
X126603958Y-107463965D01*
X126702557Y-107197163D01*
X125730000Y-106224605D01*
X124757443Y-107197163D01*
X123079363Y-107197163D01*
X123304846Y-106972073D01*
X123554206Y-106371547D01*
X123554722Y-105780582D01*
X124084599Y-105780582D01*
X124108659Y-106430377D01*
X124311035Y-106918958D01*
X124577837Y-107017557D01*
X125550395Y-106045000D01*
X125909605Y-106045000D01*
X126882163Y-107017557D01*
X127148965Y-106918958D01*
X127375401Y-106309418D01*
X127351341Y-105659623D01*
X127148965Y-105171042D01*
X126882163Y-105072443D01*
X125909605Y-106045000D01*
X125550395Y-106045000D01*
X124577837Y-105072443D01*
X124311035Y-105171042D01*
X124084599Y-105780582D01*
X123554722Y-105780582D01*
X123554774Y-105721306D01*
X123306462Y-105120345D01*
X123079351Y-104892837D01*
X124757443Y-104892837D01*
X125730000Y-105865395D01*
X126702557Y-104892837D01*
X126603958Y-104626035D01*
X125994418Y-104399599D01*
X125344623Y-104423659D01*
X124856042Y-104626035D01*
X124757443Y-104892837D01*
X123079351Y-104892837D01*
X122847073Y-104660154D01*
X122246547Y-104410794D01*
X121596306Y-104410226D01*
X120995345Y-104658538D01*
X120535154Y-105117927D01*
X120285794Y-105718453D01*
X120285226Y-106368694D01*
X113792000Y-106368694D01*
X113792000Y-93968000D01*
X130205560Y-93968000D01*
X130205560Y-94968000D01*
X130249838Y-95203317D01*
X130388910Y-95419441D01*
X130601110Y-95564431D01*
X130709583Y-95586397D01*
X130715599Y-95595401D01*
X131108600Y-95988402D01*
X131018162Y-96206201D01*
X131017838Y-96578167D01*
X131159883Y-96921943D01*
X131422673Y-97185192D01*
X131766201Y-97327838D01*
X132138167Y-97328162D01*
X132481943Y-97186117D01*
X132725362Y-96943122D01*
X132744401Y-96930401D01*
X133190401Y-96484401D01*
X133355148Y-96237840D01*
X133413000Y-95947000D01*
X133413000Y-95490931D01*
X133504441Y-95432090D01*
X133649431Y-95219890D01*
X133700440Y-94968000D01*
X133700440Y-93968000D01*
X133656162Y-93732683D01*
X133517090Y-93516559D01*
X133304890Y-93371569D01*
X133053000Y-93320560D01*
X132253000Y-93320560D01*
X132017683Y-93364838D01*
X131954522Y-93405481D01*
X131904890Y-93371569D01*
X131653000Y-93320560D01*
X130853000Y-93320560D01*
X130617683Y-93364838D01*
X130401559Y-93503910D01*
X130256569Y-93716110D01*
X130205560Y-93968000D01*
X113792000Y-93968000D01*
X113792000Y-91468000D01*
X130205560Y-91468000D01*
X130205560Y-92468000D01*
X130249838Y-92703317D01*
X130388910Y-92919441D01*
X130601110Y-93064431D01*
X130853000Y-93115440D01*
X131653000Y-93115440D01*
X131888317Y-93071162D01*
X131951478Y-93030519D01*
X132001110Y-93064431D01*
X132253000Y-93115440D01*
X133053000Y-93115440D01*
X133288317Y-93071162D01*
X133504441Y-92932090D01*
X133649431Y-92719890D01*
X133700440Y-92468000D01*
X133700440Y-91468000D01*
X133656162Y-91232683D01*
X133517090Y-91016559D01*
X133413000Y-90945437D01*
X133413000Y-90616000D01*
X133355148Y-90325161D01*
X133251685Y-90170317D01*
X133190401Y-90078598D01*
X132888122Y-89776320D01*
X132888162Y-89730833D01*
X132746117Y-89387057D01*
X132483327Y-89123808D01*
X132139799Y-88981162D01*
X131767833Y-88980838D01*
X131424057Y-89122883D01*
X131160808Y-89385673D01*
X131018162Y-89729201D01*
X131017838Y-90101167D01*
X131125080Y-90360714D01*
X131018162Y-90618201D01*
X131018121Y-90665076D01*
X130862638Y-90820560D01*
X130853000Y-90820560D01*
X130617683Y-90864838D01*
X130401559Y-91003910D01*
X130256569Y-91216110D01*
X130205560Y-91468000D01*
X113792000Y-91468000D01*
X113792000Y-89838795D01*
X122189716Y-89838795D01*
X122438106Y-90439943D01*
X122897637Y-90900278D01*
X123498352Y-91149716D01*
X124148795Y-91150284D01*
X124749943Y-90901894D01*
X125210278Y-90442363D01*
X125459716Y-89841648D01*
X125460284Y-89191205D01*
X125211894Y-88590057D01*
X124752363Y-88129722D01*
X124151648Y-87880284D01*
X123501205Y-87879716D01*
X122900057Y-88128106D01*
X122439722Y-88587637D01*
X122190284Y-89188352D01*
X122189716Y-89838795D01*
X113792000Y-89838795D01*
X113792000Y-82200750D01*
X122190000Y-82200750D01*
X122190000Y-83041309D01*
X122286673Y-83274698D01*
X122465301Y-83453327D01*
X122698690Y-83550000D01*
X123539250Y-83550000D01*
X123698000Y-83391250D01*
X123698000Y-82042000D01*
X123952000Y-82042000D01*
X123952000Y-83391250D01*
X124110750Y-83550000D01*
X124951310Y-83550000D01*
X125184699Y-83453327D01*
X125363327Y-83274698D01*
X125460000Y-83041309D01*
X125460000Y-82200750D01*
X125301250Y-82042000D01*
X123952000Y-82042000D01*
X123698000Y-82042000D01*
X122348750Y-82042000D01*
X122190000Y-82200750D01*
X113792000Y-82200750D01*
X113792000Y-80788691D01*
X122190000Y-80788691D01*
X122190000Y-81629250D01*
X122348750Y-81788000D01*
X123698000Y-81788000D01*
X123698000Y-80438750D01*
X123952000Y-80438750D01*
X123952000Y-81788000D01*
X125301250Y-81788000D01*
X125460000Y-81629250D01*
X125460000Y-80788691D01*
X125363327Y-80555302D01*
X125184699Y-80376673D01*
X124951310Y-80280000D01*
X124110750Y-80280000D01*
X123952000Y-80438750D01*
X123698000Y-80438750D01*
X123539250Y-80280000D01*
X122698690Y-80280000D01*
X122465301Y-80376673D01*
X122286673Y-80555302D01*
X122190000Y-80788691D01*
X113792000Y-80788691D01*
X113792000Y-78180000D01*
X135648333Y-78180000D01*
X135474946Y-78295853D01*
X135474946Y-78295853D01*
G37*
X135474946Y-78295853D02*
X135153039Y-78777622D01*
X135040000Y-79345907D01*
X135040000Y-79404093D01*
X135153039Y-79972378D01*
X135474946Y-80454147D01*
X135760578Y-80645000D01*
X135474946Y-80835853D01*
X135153039Y-81317622D01*
X135040000Y-81885907D01*
X135040000Y-81944093D01*
X135153039Y-82512378D01*
X135474946Y-82994147D01*
X135956715Y-83316054D01*
X136525000Y-83429093D01*
X137093285Y-83316054D01*
X137575054Y-82994147D01*
X137795000Y-82664974D01*
X138014946Y-82994147D01*
X138496715Y-83316054D01*
X139065000Y-83429093D01*
X139633285Y-83316054D01*
X140115054Y-82994147D01*
X140335000Y-82664974D01*
X140554946Y-82994147D01*
X141036715Y-83316054D01*
X141605000Y-83429093D01*
X142173285Y-83316054D01*
X142655054Y-82994147D01*
X142882702Y-82653447D01*
X142949817Y-82796358D01*
X143378076Y-83186645D01*
X143788110Y-83356476D01*
X144018000Y-83235155D01*
X144018000Y-82042000D01*
X144272000Y-82042000D01*
X144272000Y-83235155D01*
X144501890Y-83356476D01*
X144911924Y-83186645D01*
X145340183Y-82796358D01*
X145586486Y-82271892D01*
X145465819Y-82042000D01*
X144272000Y-82042000D01*
X144018000Y-82042000D01*
X143998000Y-82042000D01*
X143998000Y-81788000D01*
X144018000Y-81788000D01*
X144018000Y-81768000D01*
X144272000Y-81768000D01*
X144272000Y-81788000D01*
X145465819Y-81788000D01*
X145586486Y-81558108D01*
X145340183Y-81033642D01*
X145134496Y-80846192D01*
X145230317Y-80828162D01*
X145446441Y-80689090D01*
X145591431Y-80476890D01*
X145642440Y-80225000D01*
X145642440Y-78525000D01*
X145598162Y-78289683D01*
X145527583Y-78180000D01*
X149618333Y-78180000D01*
X149444946Y-78295853D01*
X149123039Y-78777622D01*
X149010000Y-79345907D01*
X149010000Y-79404093D01*
X149115034Y-79932136D01*
X149061161Y-79942852D01*
X148814599Y-80107599D01*
X146782599Y-82139599D01*
X146617852Y-82386161D01*
X146560000Y-82677000D01*
X146560000Y-91523749D01*
X146538052Y-91490655D01*
X146149143Y-91101746D01*
X146040267Y-91027354D01*
X145972366Y-90924970D01*
X145583457Y-90536061D01*
X145474584Y-90461671D01*
X145406681Y-90359284D01*
X145017772Y-89970375D01*
X144908898Y-89895984D01*
X144840996Y-89793599D01*
X144452087Y-89404690D01*
X144363278Y-89344009D01*
X144355828Y-89326024D01*
X144274115Y-89244311D01*
X144137783Y-89244311D01*
X144003222Y-89215121D01*
X143875286Y-89239194D01*
X143899194Y-89128981D01*
X143870003Y-88973843D01*
X143870003Y-88840199D01*
X143966919Y-88937114D01*
X143788290Y-88758486D01*
X143767847Y-88750018D01*
X143709625Y-88662228D01*
X143320716Y-88273319D01*
X143211840Y-88198927D01*
X143143939Y-88096543D01*
X142755030Y-87707634D01*
X142646157Y-87633244D01*
X142578254Y-87530857D01*
X142189345Y-87141948D01*
X141991642Y-87006863D01*
X141740480Y-86952379D01*
X141487909Y-86999903D01*
X141273727Y-87141948D01*
X140335000Y-88080675D01*
X139396273Y-87141948D01*
X139198570Y-87006863D01*
X138947408Y-86952379D01*
X138694837Y-86999903D01*
X138480655Y-87141948D01*
X138091746Y-87530857D01*
X138017354Y-87639733D01*
X137914970Y-87707634D01*
X137526061Y-88096543D01*
X137451671Y-88205416D01*
X137349284Y-88273319D01*
X136960375Y-88662228D01*
X136951865Y-88674683D01*
X136952162Y-88333833D01*
X136810117Y-87990057D01*
X136547327Y-87726808D01*
X136203799Y-87584162D01*
X135831833Y-87583838D01*
X135488057Y-87725883D01*
X135224808Y-87988673D01*
X135082162Y-88332201D01*
X135081888Y-88647332D01*
X134853057Y-88741883D01*
X134589808Y-89004673D01*
X134447162Y-89348201D01*
X134446838Y-89720167D01*
X134490129Y-89824940D01*
X134345057Y-89884883D01*
X134081808Y-90147673D01*
X133939162Y-90491201D01*
X133938838Y-90863167D01*
X134080883Y-91206943D01*
X134248125Y-91374478D01*
X134131948Y-91490655D01*
X133996863Y-91688358D01*
X133942379Y-91939520D01*
X133989903Y-92192091D01*
X134131948Y-92406273D01*
X135070675Y-93345000D01*
X134131948Y-94283727D01*
X133996863Y-94481430D01*
X133942379Y-94732592D01*
X133989903Y-94985163D01*
X134131948Y-95199345D01*
X134311742Y-95379139D01*
X134081808Y-95608673D01*
X133939162Y-95952201D01*
X133938838Y-96324167D01*
X134080883Y-96667943D01*
X134343673Y-96931192D01*
X134687201Y-97073838D01*
X135059167Y-97074162D01*
X135402943Y-96932117D01*
X135642837Y-96692641D01*
X135666192Y-96669327D01*
X135668626Y-96663465D01*
X135668626Y-96718430D01*
X135750339Y-96800143D01*
X135770782Y-96808611D01*
X135829004Y-96896401D01*
X136217913Y-97285310D01*
X136306722Y-97345991D01*
X136314172Y-97363976D01*
X136395885Y-97445689D01*
X136532217Y-97445689D01*
X136666778Y-97474879D01*
X136794714Y-97450806D01*
X136770806Y-97561019D01*
X136799997Y-97716157D01*
X136799997Y-97849801D01*
X136881710Y-97931514D01*
X136902153Y-97939982D01*
X136960375Y-98027772D01*
X137270012Y-98337409D01*
X137235000Y-98513427D01*
X137235000Y-103590453D01*
X137211485Y-103600169D01*
X136821539Y-103989436D01*
X136610241Y-104498298D01*
X136609760Y-105049285D01*
X136820169Y-105558515D01*
X137209436Y-105948461D01*
X137718298Y-106159759D01*
X138269285Y-106160240D01*
X138778515Y-105949831D01*
X139168461Y-105560564D01*
X139379759Y-105051702D01*
X139380240Y-104500715D01*
X139268234Y-104229640D01*
X139446000Y-104265000D01*
X141417198Y-104265000D01*
X141537260Y-104385062D01*
X141490241Y-104498298D01*
X141489760Y-105049285D01*
X141700169Y-105558515D01*
X142089436Y-105948461D01*
X142598298Y-106159759D01*
X143149285Y-106160240D01*
X143658515Y-105949831D01*
X144048461Y-105560564D01*
X144259759Y-105051702D01*
X144260240Y-104500715D01*
X144049831Y-103991485D01*
X143660564Y-103601539D01*
X143151702Y-103390241D01*
X142691641Y-103389839D01*
X142269401Y-102967599D01*
X142022839Y-102802852D01*
X141732000Y-102745000D01*
X139760802Y-102745000D01*
X139677783Y-102661981D01*
X139885167Y-102662162D01*
X140228943Y-102520117D01*
X140262118Y-102487000D01*
X148338000Y-102487000D01*
X148338000Y-103505000D01*
X148395852Y-103795839D01*
X148560599Y-104042401D01*
X150161853Y-105643655D01*
X150130794Y-105718453D01*
X150130226Y-106368694D01*
X150378538Y-106969655D01*
X150837927Y-107429846D01*
X151438453Y-107679206D01*
X152088694Y-107679774D01*
X152689655Y-107431462D01*
X152924363Y-107197163D01*
X154602443Y-107197163D01*
X154701042Y-107463965D01*
X155310582Y-107690401D01*
X155960377Y-107666341D01*
X156448958Y-107463965D01*
X156547557Y-107197163D01*
X155575000Y-106224605D01*
X154602443Y-107197163D01*
X152924363Y-107197163D01*
X153149846Y-106972073D01*
X153399206Y-106371547D01*
X153399722Y-105780582D01*
X153929599Y-105780582D01*
X153953659Y-106430377D01*
X154156035Y-106918958D01*
X154422837Y-107017557D01*
X155395395Y-106045000D01*
X155754605Y-106045000D01*
X156727163Y-107017557D01*
X156993965Y-106918958D01*
X157220401Y-106309418D01*
X157196341Y-105659623D01*
X156993965Y-105171042D01*
X156727163Y-105072443D01*
X155754605Y-106045000D01*
X155395395Y-106045000D01*
X154422837Y-105072443D01*
X154156035Y-105171042D01*
X153929599Y-105780582D01*
X153399722Y-105780582D01*
X153399774Y-105721306D01*
X153151462Y-105120345D01*
X152806520Y-104774801D01*
X152924363Y-104657163D01*
X154602443Y-104657163D01*
X154645991Y-104775000D01*
X154602443Y-104892837D01*
X155575000Y-105865395D01*
X156547557Y-104892837D01*
X156504009Y-104775000D01*
X156547557Y-104657163D01*
X155575000Y-103684605D01*
X154602443Y-104657163D01*
X152924363Y-104657163D01*
X153149846Y-104432073D01*
X153399206Y-103831547D01*
X153399722Y-103240582D01*
X153929599Y-103240582D01*
X153953659Y-103890377D01*
X154156035Y-104378958D01*
X154422837Y-104477557D01*
X155395395Y-103505000D01*
X155754605Y-103505000D01*
X156727163Y-104477557D01*
X156993965Y-104378958D01*
X157220401Y-103769418D01*
X157196341Y-103119623D01*
X156993965Y-102631042D01*
X156727163Y-102532443D01*
X155754605Y-103505000D01*
X155395395Y-103505000D01*
X154422837Y-102532443D01*
X154156035Y-102631042D01*
X153929599Y-103240582D01*
X153399722Y-103240582D01*
X153399774Y-103181306D01*
X153151462Y-102580345D01*
X152924351Y-102352837D01*
X154602443Y-102352837D01*
X155575000Y-103325395D01*
X156547557Y-102352837D01*
X156448958Y-102086035D01*
X155839418Y-101859599D01*
X155189623Y-101883659D01*
X154701042Y-102086035D01*
X154602443Y-102352837D01*
X152924351Y-102352837D01*
X152692073Y-102120154D01*
X152091547Y-101870794D01*
X151441306Y-101870226D01*
X151274111Y-101939309D01*
X149762401Y-100427599D01*
X149515839Y-100262852D01*
X149225000Y-100205000D01*
X144586802Y-100205000D01*
X143059599Y-98677797D01*
X143143939Y-98593457D01*
X143218329Y-98484584D01*
X143320716Y-98416681D01*
X143572298Y-98165100D01*
X143861599Y-98454401D01*
X144108161Y-98619148D01*
X144399000Y-98677000D01*
X150821537Y-98677000D01*
X150853673Y-98709192D01*
X151197201Y-98851838D01*
X151569167Y-98852162D01*
X151912943Y-98710117D01*
X152176192Y-98447327D01*
X152199684Y-98390750D01*
X153760000Y-98390750D01*
X153760000Y-98631310D01*
X153856673Y-98864699D01*
X154035302Y-99043327D01*
X154268691Y-99140000D01*
X155059250Y-99140000D01*
X155218000Y-98981250D01*
X155218000Y-98232000D01*
X155472000Y-98232000D01*
X155472000Y-98981250D01*
X155630750Y-99140000D01*
X156421309Y-99140000D01*
X156654698Y-99043327D01*
X156833327Y-98864699D01*
X156930000Y-98631310D01*
X156930000Y-98390750D01*
X156771250Y-98232000D01*
X155472000Y-98232000D01*
X155218000Y-98232000D01*
X153918750Y-98232000D01*
X153760000Y-98390750D01*
X152199684Y-98390750D01*
X152318838Y-98103799D01*
X152319162Y-97731833D01*
X152177117Y-97388057D01*
X151914327Y-97124808D01*
X151602483Y-96995319D01*
X151921401Y-96676401D01*
X152086148Y-96429839D01*
X152087373Y-96423682D01*
X152180000Y-96442440D01*
X153080000Y-96442440D01*
X153141135Y-96430937D01*
X153452599Y-96742401D01*
X153699160Y-96907148D01*
X153854759Y-96938099D01*
X153930910Y-97056441D01*
X154070750Y-97151990D01*
X154035302Y-97166673D01*
X153856673Y-97345301D01*
X153760000Y-97578690D01*
X153760000Y-97819250D01*
X153918750Y-97978000D01*
X155218000Y-97978000D01*
X155218000Y-97958000D01*
X155472000Y-97958000D01*
X155472000Y-97978000D01*
X156771250Y-97978000D01*
X156857262Y-97891988D01*
X156930910Y-98006441D01*
X157143110Y-98151431D01*
X157395000Y-98202440D01*
X159295000Y-98202440D01*
X159530317Y-98158162D01*
X159746441Y-98019090D01*
X159891431Y-97806890D01*
X159942440Y-97555000D01*
X159942440Y-97037362D01*
X161664802Y-95315000D01*
X161900728Y-95315000D01*
X161760250Y-95653309D01*
X161759752Y-96224187D01*
X161977757Y-96751800D01*
X162381077Y-97155824D01*
X162788850Y-97325146D01*
X162383200Y-97492757D01*
X161979176Y-97896077D01*
X161760250Y-98423309D01*
X161759752Y-98994187D01*
X161977757Y-99521800D01*
X162381077Y-99925824D01*
X162908309Y-100144750D01*
X163479187Y-100145248D01*
X164006800Y-99927243D01*
X164410824Y-99523923D01*
X164629750Y-98996691D01*
X164630248Y-98425813D01*
X164412243Y-97898200D01*
X164008923Y-97494176D01*
X163601150Y-97324854D01*
X164006800Y-97157243D01*
X164410824Y-96753923D01*
X164629750Y-96226691D01*
X164630248Y-95655813D01*
X164489427Y-95315000D01*
X164796354Y-95315000D01*
X164817757Y-95366800D01*
X165221077Y-95770824D01*
X165628850Y-95940146D01*
X165223200Y-96107757D01*
X164819176Y-96511077D01*
X164600250Y-97038309D01*
X164599752Y-97609187D01*
X164817757Y-98136800D01*
X165221077Y-98540824D01*
X165748309Y-98759750D01*
X166319187Y-98760248D01*
X166846800Y-98542243D01*
X167250824Y-98138923D01*
X167469750Y-97611691D01*
X167470248Y-97040813D01*
X167252243Y-96513200D01*
X166848923Y-96109176D01*
X166441150Y-95939854D01*
X166846800Y-95772243D01*
X167250824Y-95368923D01*
X167469750Y-94841691D01*
X167470248Y-94270813D01*
X167252243Y-93743200D01*
X166848923Y-93339176D01*
X166441150Y-93169854D01*
X166846800Y-93002243D01*
X167250824Y-92598923D01*
X167469750Y-92071691D01*
X167470248Y-91500813D01*
X167252243Y-90973200D01*
X166848923Y-90569176D01*
X166441150Y-90399854D01*
X166846800Y-90232243D01*
X167250824Y-89828923D01*
X167469750Y-89301691D01*
X167470248Y-88730813D01*
X167252243Y-88203200D01*
X166848923Y-87799176D01*
X166321691Y-87580250D01*
X165750813Y-87579752D01*
X165223200Y-87797757D01*
X164819176Y-88201077D01*
X164639232Y-88634430D01*
X164609823Y-88605021D01*
X164630000Y-88556309D01*
X164630000Y-87915750D01*
X164471250Y-87757000D01*
X163322000Y-87757000D01*
X163322000Y-87777000D01*
X163068000Y-87777000D01*
X163068000Y-87757000D01*
X161918750Y-87757000D01*
X161760000Y-87915750D01*
X161760000Y-88556309D01*
X161780177Y-88605021D01*
X161610198Y-88775000D01*
X159817931Y-88775000D01*
X159759090Y-88683559D01*
X159546890Y-88538569D01*
X159295000Y-88487560D01*
X157395000Y-88487560D01*
X157159683Y-88531838D01*
X156943559Y-88670910D01*
X156942440Y-88672548D01*
X156942440Y-88185000D01*
X156898162Y-87949683D01*
X156759090Y-87733559D01*
X156546890Y-87588569D01*
X156295000Y-87537560D01*
X154395000Y-87537560D01*
X154159683Y-87581838D01*
X153943559Y-87720910D01*
X153834757Y-87880148D01*
X153821161Y-87882852D01*
X153821159Y-87882853D01*
X153821160Y-87882853D01*
X153574598Y-88047599D01*
X152092599Y-89529599D01*
X151927852Y-89776161D01*
X151870000Y-90067000D01*
X151870000Y-90339895D01*
X151728559Y-90430910D01*
X151583569Y-90643110D01*
X151532560Y-90895000D01*
X151532560Y-91656758D01*
X150717390Y-90841588D01*
X150683162Y-90659683D01*
X150544090Y-90443559D01*
X150331890Y-90298569D01*
X150080000Y-90247560D01*
X149604000Y-90247560D01*
X149604000Y-86703691D01*
X161760000Y-86703691D01*
X161760000Y-87344250D01*
X161918750Y-87503000D01*
X163068000Y-87503000D01*
X163068000Y-86353750D01*
X163322000Y-86353750D01*
X163322000Y-87503000D01*
X164471250Y-87503000D01*
X164630000Y-87344250D01*
X164630000Y-86703691D01*
X164533327Y-86470302D01*
X164354699Y-86291673D01*
X164121310Y-86195000D01*
X163480750Y-86195000D01*
X163322000Y-86353750D01*
X163068000Y-86353750D01*
X162909250Y-86195000D01*
X162268690Y-86195000D01*
X162035301Y-86291673D01*
X161856673Y-86470302D01*
X161760000Y-86703691D01*
X149604000Y-86703691D01*
X149604000Y-85785802D01*
X150936802Y-84453000D01*
X153416000Y-84453000D01*
X153706839Y-84395148D01*
X153953401Y-84230401D01*
X154842401Y-83341401D01*
X154904826Y-83247974D01*
X155006715Y-83316054D01*
X155575000Y-83429093D01*
X156143285Y-83316054D01*
X156625054Y-82994147D01*
X156946961Y-82512378D01*
X157060000Y-81944093D01*
X157060000Y-81885907D01*
X156946961Y-81317622D01*
X156625054Y-80835853D01*
X156341899Y-80646655D01*
X156341924Y-80646645D01*
X156770183Y-80256358D01*
X157016486Y-79731892D01*
X156895819Y-79502000D01*
X155702000Y-79502000D01*
X155702000Y-79522000D01*
X155448000Y-79522000D01*
X155448000Y-79502000D01*
X155428000Y-79502000D01*
X155428000Y-79248000D01*
X155448000Y-79248000D01*
X155448000Y-79228000D01*
X155702000Y-79228000D01*
X155702000Y-79248000D01*
X156895819Y-79248000D01*
X157016486Y-79018108D01*
X156770183Y-78493642D01*
X156426026Y-78180000D01*
X162621133Y-78180000D01*
X162004342Y-78434853D01*
X161262458Y-79175443D01*
X160860458Y-80143567D01*
X160859543Y-81191834D01*
X161259853Y-82160658D01*
X162000443Y-82902542D01*
X162968567Y-83304542D01*
X164016834Y-83305457D01*
X164985658Y-82905147D01*
X165727542Y-82164557D01*
X166129542Y-81196433D01*
X166130457Y-80148166D01*
X165730147Y-79179342D01*
X164989557Y-78437458D01*
X164369529Y-78180000D01*
X170740000Y-78180000D01*
X170740000Y-107875000D01*
X165015858Y-107875000D01*
X165727542Y-107164557D01*
X166129542Y-106196433D01*
X166130457Y-105148166D01*
X165730147Y-104179342D01*
X164989557Y-103437458D01*
X164021433Y-103035458D01*
X162973166Y-103034543D01*
X162004342Y-103434853D01*
X161262458Y-104175443D01*
X160860458Y-105143567D01*
X160859543Y-106191834D01*
X161259853Y-107160658D01*
X161972949Y-107875000D01*
X113792000Y-107875000D01*
X113792000Y-106368694D01*
X120285226Y-106368694D01*
X120533538Y-106969655D01*
X120992927Y-107429846D01*
X121593453Y-107679206D01*
X122243694Y-107679774D01*
X122844655Y-107431462D01*
X123079363Y-107197163D01*
X124757443Y-107197163D01*
X124856042Y-107463965D01*
X125465582Y-107690401D01*
X126115377Y-107666341D01*
X126603958Y-107463965D01*
X126702557Y-107197163D01*
X125730000Y-106224605D01*
X124757443Y-107197163D01*
X123079363Y-107197163D01*
X123304846Y-106972073D01*
X123554206Y-106371547D01*
X123554722Y-105780582D01*
X124084599Y-105780582D01*
X124108659Y-106430377D01*
X124311035Y-106918958D01*
X124577837Y-107017557D01*
X125550395Y-106045000D01*
X125909605Y-106045000D01*
X126882163Y-107017557D01*
X127148965Y-106918958D01*
X127375401Y-106309418D01*
X127351341Y-105659623D01*
X127148965Y-105171042D01*
X126882163Y-105072443D01*
X125909605Y-106045000D01*
X125550395Y-106045000D01*
X124577837Y-105072443D01*
X124311035Y-105171042D01*
X124084599Y-105780582D01*
X123554722Y-105780582D01*
X123554774Y-105721306D01*
X123306462Y-105120345D01*
X123079351Y-104892837D01*
X124757443Y-104892837D01*
X125730000Y-105865395D01*
X126702557Y-104892837D01*
X126603958Y-104626035D01*
X125994418Y-104399599D01*
X125344623Y-104423659D01*
X124856042Y-104626035D01*
X124757443Y-104892837D01*
X123079351Y-104892837D01*
X122847073Y-104660154D01*
X122246547Y-104410794D01*
X121596306Y-104410226D01*
X120995345Y-104658538D01*
X120535154Y-105117927D01*
X120285794Y-105718453D01*
X120285226Y-106368694D01*
X113792000Y-106368694D01*
X113792000Y-93968000D01*
X130205560Y-93968000D01*
X130205560Y-94968000D01*
X130249838Y-95203317D01*
X130388910Y-95419441D01*
X130601110Y-95564431D01*
X130709583Y-95586397D01*
X130715599Y-95595401D01*
X131108600Y-95988402D01*
X131018162Y-96206201D01*
X131017838Y-96578167D01*
X131159883Y-96921943D01*
X131422673Y-97185192D01*
X131766201Y-97327838D01*
X132138167Y-97328162D01*
X132481943Y-97186117D01*
X132725362Y-96943122D01*
X132744401Y-96930401D01*
X133190401Y-96484401D01*
X133355148Y-96237840D01*
X133413000Y-95947000D01*
X133413000Y-95490931D01*
X133504441Y-95432090D01*
X133649431Y-95219890D01*
X133700440Y-94968000D01*
X133700440Y-93968000D01*
X133656162Y-93732683D01*
X133517090Y-93516559D01*
X133304890Y-93371569D01*
X133053000Y-93320560D01*
X132253000Y-93320560D01*
X132017683Y-93364838D01*
X131954522Y-93405481D01*
X131904890Y-93371569D01*
X131653000Y-93320560D01*
X130853000Y-93320560D01*
X130617683Y-93364838D01*
X130401559Y-93503910D01*
X130256569Y-93716110D01*
X130205560Y-93968000D01*
X113792000Y-93968000D01*
X113792000Y-91468000D01*
X130205560Y-91468000D01*
X130205560Y-92468000D01*
X130249838Y-92703317D01*
X130388910Y-92919441D01*
X130601110Y-93064431D01*
X130853000Y-93115440D01*
X131653000Y-93115440D01*
X131888317Y-93071162D01*
X131951478Y-93030519D01*
X132001110Y-93064431D01*
X132253000Y-93115440D01*
X133053000Y-93115440D01*
X133288317Y-93071162D01*
X133504441Y-92932090D01*
X133649431Y-92719890D01*
X133700440Y-92468000D01*
X133700440Y-91468000D01*
X133656162Y-91232683D01*
X133517090Y-91016559D01*
X133413000Y-90945437D01*
X133413000Y-90616000D01*
X133355148Y-90325161D01*
X133251685Y-90170317D01*
X133190401Y-90078598D01*
X132888122Y-89776320D01*
X132888162Y-89730833D01*
X132746117Y-89387057D01*
X132483327Y-89123808D01*
X132139799Y-88981162D01*
X131767833Y-88980838D01*
X131424057Y-89122883D01*
X131160808Y-89385673D01*
X131018162Y-89729201D01*
X131017838Y-90101167D01*
X131125080Y-90360714D01*
X131018162Y-90618201D01*
X131018121Y-90665076D01*
X130862638Y-90820560D01*
X130853000Y-90820560D01*
X130617683Y-90864838D01*
X130401559Y-91003910D01*
X130256569Y-91216110D01*
X130205560Y-91468000D01*
X113792000Y-91468000D01*
X113792000Y-89838795D01*
X122189716Y-89838795D01*
X122438106Y-90439943D01*
X122897637Y-90900278D01*
X123498352Y-91149716D01*
X124148795Y-91150284D01*
X124749943Y-90901894D01*
X125210278Y-90442363D01*
X125459716Y-89841648D01*
X125460284Y-89191205D01*
X125211894Y-88590057D01*
X124752363Y-88129722D01*
X124151648Y-87880284D01*
X123501205Y-87879716D01*
X122900057Y-88128106D01*
X122439722Y-88587637D01*
X122190284Y-89188352D01*
X122189716Y-89838795D01*
X113792000Y-89838795D01*
X113792000Y-82200750D01*
X122190000Y-82200750D01*
X122190000Y-83041309D01*
X122286673Y-83274698D01*
X122465301Y-83453327D01*
X122698690Y-83550000D01*
X123539250Y-83550000D01*
X123698000Y-83391250D01*
X123698000Y-82042000D01*
X123952000Y-82042000D01*
X123952000Y-83391250D01*
X124110750Y-83550000D01*
X124951310Y-83550000D01*
X125184699Y-83453327D01*
X125363327Y-83274698D01*
X125460000Y-83041309D01*
X125460000Y-82200750D01*
X125301250Y-82042000D01*
X123952000Y-82042000D01*
X123698000Y-82042000D01*
X122348750Y-82042000D01*
X122190000Y-82200750D01*
X113792000Y-82200750D01*
X113792000Y-80788691D01*
X122190000Y-80788691D01*
X122190000Y-81629250D01*
X122348750Y-81788000D01*
X123698000Y-81788000D01*
X123698000Y-80438750D01*
X123952000Y-80438750D01*
X123952000Y-81788000D01*
X125301250Y-81788000D01*
X125460000Y-81629250D01*
X125460000Y-80788691D01*
X125363327Y-80555302D01*
X125184699Y-80376673D01*
X124951310Y-80280000D01*
X124110750Y-80280000D01*
X123952000Y-80438750D01*
X123698000Y-80438750D01*
X123539250Y-80280000D01*
X122698690Y-80280000D01*
X122465301Y-80376673D01*
X122286673Y-80555302D01*
X122190000Y-80788691D01*
X113792000Y-80788691D01*
X113792000Y-78180000D01*
X135648333Y-78180000D01*
X135474946Y-78295853D01*
G36*
X156930910Y-94196441D02*
X157143110Y-94341431D01*
X157395000Y-94392440D01*
X159126270Y-94392440D01*
X159226883Y-94635943D01*
X159260000Y-94669118D01*
X159260000Y-95570198D01*
X158722638Y-96107560D01*
X157395000Y-96107560D01*
X157159683Y-96151838D01*
X156943559Y-96290910D01*
X156942440Y-96292548D01*
X156942440Y-95805000D01*
X156898162Y-95569683D01*
X156759090Y-95353559D01*
X156610138Y-95251784D01*
X156654698Y-95233327D01*
X156833327Y-95054699D01*
X156930000Y-94821310D01*
X156930000Y-94580750D01*
X156771250Y-94422000D01*
X155472000Y-94422000D01*
X155472000Y-94442000D01*
X155218000Y-94442000D01*
X155218000Y-94422000D01*
X155198000Y-94422000D01*
X155198000Y-94168000D01*
X155218000Y-94168000D01*
X155218000Y-94148000D01*
X155472000Y-94148000D01*
X155472000Y-94168000D01*
X156771250Y-94168000D01*
X156857262Y-94081988D01*
X156930910Y-94196441D01*
X156930910Y-94196441D01*
G37*
X156930910Y-94196441D02*
X157143110Y-94341431D01*
X157395000Y-94392440D01*
X159126270Y-94392440D01*
X159226883Y-94635943D01*
X159260000Y-94669118D01*
X159260000Y-95570198D01*
X158722638Y-96107560D01*
X157395000Y-96107560D01*
X157159683Y-96151838D01*
X156943559Y-96290910D01*
X156942440Y-96292548D01*
X156942440Y-95805000D01*
X156898162Y-95569683D01*
X156759090Y-95353559D01*
X156610138Y-95251784D01*
X156654698Y-95233327D01*
X156833327Y-95054699D01*
X156930000Y-94821310D01*
X156930000Y-94580750D01*
X156771250Y-94422000D01*
X155472000Y-94422000D01*
X155472000Y-94442000D01*
X155218000Y-94442000D01*
X155218000Y-94422000D01*
X155198000Y-94422000D01*
X155198000Y-94168000D01*
X155218000Y-94168000D01*
X155218000Y-94148000D01*
X155472000Y-94148000D01*
X155472000Y-94168000D01*
X156771250Y-94168000D01*
X156857262Y-94081988D01*
X156930910Y-94196441D01*
G36*
X153760000Y-90199250D02*
X153918750Y-90358000D01*
X155218000Y-90358000D01*
X155218000Y-90338000D01*
X155472000Y-90338000D01*
X155472000Y-90358000D01*
X156771250Y-90358000D01*
X156857262Y-90271988D01*
X156930910Y-90386441D01*
X157143110Y-90531431D01*
X157395000Y-90582440D01*
X159260000Y-90582440D01*
X159260000Y-90877537D01*
X159227808Y-90909673D01*
X159085162Y-91253201D01*
X159084838Y-91625167D01*
X159226883Y-91968943D01*
X159332710Y-92074954D01*
X159227808Y-92179673D01*
X159178857Y-92297560D01*
X157395000Y-92297560D01*
X157159683Y-92341838D01*
X156943559Y-92480910D01*
X156942440Y-92482548D01*
X156942440Y-91995000D01*
X156898162Y-91759683D01*
X156759090Y-91543559D01*
X156610138Y-91441784D01*
X156654698Y-91423327D01*
X156833327Y-91244699D01*
X156930000Y-91011310D01*
X156930000Y-90770750D01*
X156771250Y-90612000D01*
X155472000Y-90612000D01*
X155472000Y-90632000D01*
X155218000Y-90632000D01*
X155218000Y-90612000D01*
X153918750Y-90612000D01*
X153760000Y-90770750D01*
X153760000Y-91011310D01*
X153856673Y-91244699D01*
X154035302Y-91423327D01*
X154081202Y-91442339D01*
X153943559Y-91530910D01*
X153798569Y-91743110D01*
X153761735Y-91925000D01*
X153701114Y-91925000D01*
X153727440Y-91795000D01*
X153727440Y-90895000D01*
X153683162Y-90659683D01*
X153544090Y-90443559D01*
X153415859Y-90355943D01*
X153760000Y-90011802D01*
X153760000Y-90199250D01*
X153760000Y-90199250D01*
G37*
X153760000Y-90199250D02*
X153918750Y-90358000D01*
X155218000Y-90358000D01*
X155218000Y-90338000D01*
X155472000Y-90338000D01*
X155472000Y-90358000D01*
X156771250Y-90358000D01*
X156857262Y-90271988D01*
X156930910Y-90386441D01*
X157143110Y-90531431D01*
X157395000Y-90582440D01*
X159260000Y-90582440D01*
X159260000Y-90877537D01*
X159227808Y-90909673D01*
X159085162Y-91253201D01*
X159084838Y-91625167D01*
X159226883Y-91968943D01*
X159332710Y-92074954D01*
X159227808Y-92179673D01*
X159178857Y-92297560D01*
X157395000Y-92297560D01*
X157159683Y-92341838D01*
X156943559Y-92480910D01*
X156942440Y-92482548D01*
X156942440Y-91995000D01*
X156898162Y-91759683D01*
X156759090Y-91543559D01*
X156610138Y-91441784D01*
X156654698Y-91423327D01*
X156833327Y-91244699D01*
X156930000Y-91011310D01*
X156930000Y-90770750D01*
X156771250Y-90612000D01*
X155472000Y-90612000D01*
X155472000Y-90632000D01*
X155218000Y-90632000D01*
X155218000Y-90612000D01*
X153918750Y-90612000D01*
X153760000Y-90770750D01*
X153760000Y-91011310D01*
X153856673Y-91244699D01*
X154035302Y-91423327D01*
X154081202Y-91442339D01*
X153943559Y-91530910D01*
X153798569Y-91743110D01*
X153761735Y-91925000D01*
X153701114Y-91925000D01*
X153727440Y-91795000D01*
X153727440Y-90895000D01*
X153683162Y-90659683D01*
X153544090Y-90443559D01*
X153415859Y-90355943D01*
X153760000Y-90011802D01*
X153760000Y-90199250D01*
M02*
