M48
;DRILL file {KiCad 4.0.7-e2-6376~58~ubuntu14.04.1} date Wed Jan 31 17:30:11 2018
;FORMAT={-:-/ absolute / inch / decimal}
FMAT,2
INCH,TZ
T1C0.016
T2C0.024
T3C0.030
T4C0.031
T5C0.032
T6C0.032
T7C0.039
T8C0.039
T9C0.040
%
G90
G05
M72
T1
X3.075Y-3.672
X5.054Y-3.95
X5.114Y-4.013
X5.157Y-3.897
X5.283Y-3.678
X5.343Y-3.95
X5.434Y-4.049
X5.497Y-4.049
X5.54Y-4.3074
X5.555Y-4.014
X5.56Y-3.684
X5.617Y-3.744
T2
X2.651Y-3.314
X2.7297Y-3.314
T3
X2.65Y-3.725
X2.65Y-3.775
X2.65Y-3.825
X2.65Y-3.875
X4.825Y-4.375
X5.125Y-4.375
T4
X2.85Y-3.425
X2.85Y-3.525
X2.85Y-3.625
T5
X4.525Y-4.375
X4.675Y-4.375
X5.4439Y-4.269
X5.6361Y-4.269
X5.876Y-4.232
X5.879Y-4.355
X6.026Y-4.232
X6.029Y-4.355
T6
X4.525Y-4.27
X4.625Y-4.27
T7
X5.Y-3.275
X5.Y-3.375
X5.1Y-3.275
X5.1Y-3.375
X5.2Y-3.275
X5.2Y-3.375
X5.3Y-3.275
X5.3Y-3.375
T8
X2.651Y-3.451
X2.651Y-3.551
X4.676Y-3.601
X4.676Y-4.001
T9
X5.57Y-3.275
X5.57Y-3.375
X5.67Y-3.275
X5.67Y-3.375
X5.77Y-3.275
X5.77Y-3.375
X6.1Y-3.675
X6.1Y-3.775
X6.1Y-3.875
X6.1Y-3.975
X6.1Y-4.075
X6.2Y-3.675
X6.2Y-3.775
X6.2Y-3.875
X6.2Y-3.975
X6.2Y-4.075
T0
M30
