G04 #@! TF.FileFunction,Soldermask,Top*
%FSLAX46Y46*%
G04 Gerber Fmt 4.6, Leading zero omitted, Abs format (unit mm)*
G04 Created by KiCad (PCBNEW 4.0.7-e2-6376~58~ubuntu14.04.1) date Sat Feb  3 00:25:04 2018*
%MOMM*%
%LPD*%
G01*
G04 APERTURE LIST*
%ADD10C,0.100000*%
%ADD11C,2.398980*%
%ADD12R,3.900000X2.000000*%
%ADD13R,1.200000X1.400000*%
%ADD14R,2.100000X2.100000*%
%ADD15O,2.100000X2.100000*%
%ADD16R,2.000000X2.000000*%
%ADD17C,2.000000*%
%ADD18C,4.400000*%
%ADD19R,2.300000X1.200000*%
%ADD20C,1.900000*%
%ADD21R,1.600000X1.300000*%
%ADD22R,1.300000X1.600000*%
%ADD23R,1.300000X1.300000*%
%ADD24R,1.470000X2.200000*%
%ADD25O,1.470000X2.200000*%
%ADD26R,2.200000X2.200000*%
%ADD27C,2.200000*%
%ADD28R,2.400000X2.400000*%
%ADD29C,2.400000*%
G04 APERTURE END LIST*
D10*
D11*
X121920000Y-106045000D03*
X125730000Y-106045000D03*
D12*
X109380000Y-80645000D03*
X103980000Y-80645000D03*
D13*
X132653000Y-91968000D03*
X132653000Y-94468000D03*
X131253000Y-94468000D03*
X131253000Y-91968000D03*
D14*
X144145000Y-79375000D03*
D15*
X144145000Y-81915000D03*
X141605000Y-79375000D03*
X141605000Y-81915000D03*
X139065000Y-79375000D03*
X139065000Y-81915000D03*
X136525000Y-79375000D03*
X136525000Y-81915000D03*
D16*
X163195000Y-87630000D03*
D17*
X163195000Y-90400000D03*
X163195000Y-93170000D03*
X163195000Y-95940000D03*
X163195000Y-98710000D03*
X166035000Y-89015000D03*
X166035000Y-91785000D03*
X166035000Y-94555000D03*
X166035000Y-97325000D03*
D18*
X163495000Y-105670000D03*
X163495000Y-80670000D03*
D11*
X155575000Y-103505000D03*
X151765000Y-103505000D03*
D19*
X191558286Y-148044000D03*
X191558286Y-149944000D03*
X194558286Y-148994000D03*
X155345000Y-96205000D03*
X155345000Y-98105000D03*
X158345000Y-97155000D03*
X155345000Y-92395000D03*
X155345000Y-94295000D03*
X158345000Y-93345000D03*
X155345000Y-88585000D03*
X155345000Y-90485000D03*
X158345000Y-89535000D03*
D20*
X142875000Y-104775000D03*
X137995000Y-104775000D03*
D21*
X172594000Y-148694000D03*
X174794000Y-148694000D03*
D22*
X167894000Y-70147000D03*
X167894000Y-72347000D03*
D23*
X105815000Y-100870000D03*
X105815000Y-104870000D03*
X105815000Y-102210000D03*
X105815000Y-103530000D03*
X108815000Y-102210000D03*
X108815000Y-100870000D03*
X108815000Y-104870000D03*
X108815000Y-103530000D03*
X149630000Y-91345000D03*
X149630000Y-95345000D03*
X149630000Y-92685000D03*
X149630000Y-94005000D03*
X152630000Y-92685000D03*
X152630000Y-91345000D03*
X152630000Y-95345000D03*
X152630000Y-94005000D03*
D11*
X155575000Y-106045000D03*
X151765000Y-106045000D03*
D10*
G36*
X134978666Y-95413288D02*
X134306914Y-94741536D01*
X135721128Y-93327322D01*
X136392880Y-93999074D01*
X134978666Y-95413288D01*
X134978666Y-95413288D01*
G37*
G36*
X135544352Y-95978973D02*
X134872600Y-95307221D01*
X136286814Y-93893007D01*
X136958566Y-94564759D01*
X135544352Y-95978973D01*
X135544352Y-95978973D01*
G37*
G36*
X136110037Y-96544659D02*
X135438285Y-95872907D01*
X136852499Y-94458693D01*
X137524251Y-95130445D01*
X136110037Y-96544659D01*
X136110037Y-96544659D01*
G37*
G36*
X136675722Y-97110344D02*
X136003970Y-96438592D01*
X137418184Y-95024378D01*
X138089936Y-95696130D01*
X136675722Y-97110344D01*
X136675722Y-97110344D01*
G37*
G36*
X137241408Y-97676030D02*
X136569656Y-97004278D01*
X137983870Y-95590064D01*
X138655622Y-96261816D01*
X137241408Y-97676030D01*
X137241408Y-97676030D01*
G37*
G36*
X137807093Y-98241715D02*
X137135341Y-97569963D01*
X138549555Y-96155749D01*
X139221307Y-96827501D01*
X137807093Y-98241715D01*
X137807093Y-98241715D01*
G37*
G36*
X138372779Y-98807400D02*
X137701027Y-98135648D01*
X139115241Y-96721434D01*
X139786993Y-97393186D01*
X138372779Y-98807400D01*
X138372779Y-98807400D01*
G37*
G36*
X138938464Y-99373086D02*
X138266712Y-98701334D01*
X139680926Y-97287120D01*
X140352678Y-97958872D01*
X138938464Y-99373086D01*
X138938464Y-99373086D01*
G37*
G36*
X142403288Y-98701334D02*
X141731536Y-99373086D01*
X140317322Y-97958872D01*
X140989074Y-97287120D01*
X142403288Y-98701334D01*
X142403288Y-98701334D01*
G37*
G36*
X142968973Y-98135648D02*
X142297221Y-98807400D01*
X140883007Y-97393186D01*
X141554759Y-96721434D01*
X142968973Y-98135648D01*
X142968973Y-98135648D01*
G37*
G36*
X143534659Y-97569963D02*
X142862907Y-98241715D01*
X141448693Y-96827501D01*
X142120445Y-96155749D01*
X143534659Y-97569963D01*
X143534659Y-97569963D01*
G37*
G36*
X144100344Y-97004278D02*
X143428592Y-97676030D01*
X142014378Y-96261816D01*
X142686130Y-95590064D01*
X144100344Y-97004278D01*
X144100344Y-97004278D01*
G37*
G36*
X144666030Y-96438592D02*
X143994278Y-97110344D01*
X142580064Y-95696130D01*
X143251816Y-95024378D01*
X144666030Y-96438592D01*
X144666030Y-96438592D01*
G37*
G36*
X145231715Y-95872907D02*
X144559963Y-96544659D01*
X143145749Y-95130445D01*
X143817501Y-94458693D01*
X145231715Y-95872907D01*
X145231715Y-95872907D01*
G37*
G36*
X145797400Y-95307221D02*
X145125648Y-95978973D01*
X143711434Y-94564759D01*
X144383186Y-93893007D01*
X145797400Y-95307221D01*
X145797400Y-95307221D01*
G37*
G36*
X146363086Y-94741536D02*
X145691334Y-95413288D01*
X144277120Y-93999074D01*
X144948872Y-93327322D01*
X146363086Y-94741536D01*
X146363086Y-94741536D01*
G37*
G36*
X144948872Y-93362678D02*
X144277120Y-92690926D01*
X145691334Y-91276712D01*
X146363086Y-91948464D01*
X144948872Y-93362678D01*
X144948872Y-93362678D01*
G37*
G36*
X144383186Y-92796993D02*
X143711434Y-92125241D01*
X145125648Y-90711027D01*
X145797400Y-91382779D01*
X144383186Y-92796993D01*
X144383186Y-92796993D01*
G37*
G36*
X143817501Y-92231307D02*
X143145749Y-91559555D01*
X144559963Y-90145341D01*
X145231715Y-90817093D01*
X143817501Y-92231307D01*
X143817501Y-92231307D01*
G37*
G36*
X143251816Y-91665622D02*
X142580064Y-90993870D01*
X143994278Y-89579656D01*
X144666030Y-90251408D01*
X143251816Y-91665622D01*
X143251816Y-91665622D01*
G37*
G36*
X142686130Y-91099936D02*
X142014378Y-90428184D01*
X143428592Y-89013970D01*
X144100344Y-89685722D01*
X142686130Y-91099936D01*
X142686130Y-91099936D01*
G37*
G36*
X142120445Y-90534251D02*
X141448693Y-89862499D01*
X142862907Y-88448285D01*
X143534659Y-89120037D01*
X142120445Y-90534251D01*
X142120445Y-90534251D01*
G37*
G36*
X141554759Y-89968566D02*
X140883007Y-89296814D01*
X142297221Y-87882600D01*
X142968973Y-88554352D01*
X141554759Y-89968566D01*
X141554759Y-89968566D01*
G37*
G36*
X140989074Y-89402880D02*
X140317322Y-88731128D01*
X141731536Y-87316914D01*
X142403288Y-87988666D01*
X140989074Y-89402880D01*
X140989074Y-89402880D01*
G37*
G36*
X140352678Y-88731128D02*
X139680926Y-89402880D01*
X138266712Y-87988666D01*
X138938464Y-87316914D01*
X140352678Y-88731128D01*
X140352678Y-88731128D01*
G37*
G36*
X139786993Y-89296814D02*
X139115241Y-89968566D01*
X137701027Y-88554352D01*
X138372779Y-87882600D01*
X139786993Y-89296814D01*
X139786993Y-89296814D01*
G37*
G36*
X139221307Y-89862499D02*
X138549555Y-90534251D01*
X137135341Y-89120037D01*
X137807093Y-88448285D01*
X139221307Y-89862499D01*
X139221307Y-89862499D01*
G37*
G36*
X138655622Y-90428184D02*
X137983870Y-91099936D01*
X136569656Y-89685722D01*
X137241408Y-89013970D01*
X138655622Y-90428184D01*
X138655622Y-90428184D01*
G37*
G36*
X138089936Y-90993870D02*
X137418184Y-91665622D01*
X136003970Y-90251408D01*
X136675722Y-89579656D01*
X138089936Y-90993870D01*
X138089936Y-90993870D01*
G37*
G36*
X137524251Y-91559555D02*
X136852499Y-92231307D01*
X135438285Y-90817093D01*
X136110037Y-90145341D01*
X137524251Y-91559555D01*
X137524251Y-91559555D01*
G37*
G36*
X136958566Y-92125241D02*
X136286814Y-92796993D01*
X134872600Y-91382779D01*
X135544352Y-90711027D01*
X136958566Y-92125241D01*
X136958566Y-92125241D01*
G37*
G36*
X136392880Y-92690926D02*
X135721128Y-93362678D01*
X134306914Y-91948464D01*
X134978666Y-91276712D01*
X136392880Y-92690926D01*
X136392880Y-92690926D01*
G37*
D24*
X79248000Y-124714000D03*
D25*
X80518000Y-124714000D03*
X81788000Y-124714000D03*
X83058000Y-124714000D03*
D14*
X150495000Y-81915000D03*
D15*
X150495000Y-79375000D03*
X153035000Y-81915000D03*
X153035000Y-79375000D03*
X155575000Y-81915000D03*
X155575000Y-79375000D03*
D26*
X88900000Y-123825000D03*
D27*
X91440000Y-123825000D03*
D14*
X79248000Y-124714000D03*
D15*
X79248000Y-127254000D03*
X79248000Y-129794000D03*
D28*
X123825000Y-81915000D03*
D29*
X123825000Y-89515000D03*
M02*
