G04 #@! TF.FileFunction,Legend,Top*
%FSLAX46Y46*%
G04 Gerber Fmt 4.6, Leading zero omitted, Abs format (unit mm)*
G04 Created by KiCad (PCBNEW 4.0.7-e2-6376~58~ubuntu14.04.1) date Sat Feb  3 00:25:04 2018*
%MOMM*%
%LPD*%
G01*
G04 APERTURE LIST*
%ADD10C,0.100000*%
%ADD11C,0.120000*%
%ADD12C,0.150000*%
G04 APERTURE END LIST*
D10*
D11*
X103380000Y-83945000D02*
X103380000Y-81765000D01*
X103380000Y-77345000D02*
X103380000Y-79525000D01*
X109980000Y-78105000D02*
X109980000Y-79525000D01*
X109980000Y-83185000D02*
X109980000Y-81765000D01*
X103380000Y-77345000D02*
X109220000Y-77345000D01*
X109220000Y-77345000D02*
X109980000Y-78105000D01*
X109980000Y-83185000D02*
X109220000Y-83945000D01*
X109220000Y-83945000D02*
X103380000Y-83945000D01*
X132653000Y-91268000D02*
X133453000Y-91268000D01*
X133453000Y-91268000D02*
X133453000Y-95168000D01*
X130453000Y-91268000D02*
X130453000Y-95168000D01*
X135195000Y-78045000D02*
X135195000Y-83245000D01*
X142875000Y-78045000D02*
X135195000Y-78045000D01*
X145475000Y-83245000D02*
X135195000Y-83245000D01*
X142875000Y-78045000D02*
X142875000Y-80645000D01*
X142875000Y-80645000D02*
X145475000Y-80645000D01*
X145475000Y-80645000D02*
X145475000Y-83245000D01*
X144145000Y-78045000D02*
X145475000Y-78045000D01*
X145475000Y-78045000D02*
X145475000Y-79375000D01*
X170915000Y-108655000D02*
X160435000Y-108655000D01*
X160435000Y-108655000D02*
X160435000Y-77685000D01*
X160435000Y-77685000D02*
X170915000Y-77685000D01*
X159540662Y-87880000D02*
X159540662Y-87380000D01*
X159540662Y-87380000D02*
X159973675Y-87630000D01*
X159973675Y-87630000D02*
X159540662Y-87880000D01*
X193818286Y-150574000D02*
X193818286Y-149644000D01*
X193818286Y-147414000D02*
X193818286Y-148344000D01*
X193818286Y-147414000D02*
X190658286Y-147414000D01*
X193818286Y-150574000D02*
X192358286Y-150574000D01*
X157605000Y-98735000D02*
X157605000Y-97805000D01*
X157605000Y-95575000D02*
X157605000Y-96505000D01*
X157605000Y-95575000D02*
X154445000Y-95575000D01*
X157605000Y-98735000D02*
X156145000Y-98735000D01*
X157605000Y-94925000D02*
X157605000Y-93995000D01*
X157605000Y-91765000D02*
X157605000Y-92695000D01*
X157605000Y-91765000D02*
X154445000Y-91765000D01*
X157605000Y-94925000D02*
X156145000Y-94925000D01*
X157605000Y-91115000D02*
X157605000Y-90185000D01*
X157605000Y-87955000D02*
X157605000Y-88885000D01*
X157605000Y-87955000D02*
X154445000Y-87955000D01*
X157605000Y-91115000D02*
X156145000Y-91115000D01*
X143560000Y-107300000D02*
X137310000Y-107300000D01*
X143560000Y-102250000D02*
X137310000Y-102250000D01*
X143560000Y-102250000D02*
G75*
G02X143560000Y-107300000I0J-2525000D01*
G01*
X137310000Y-102250000D02*
G75*
G03X137310000Y-107300000I0J-2525000D01*
G01*
X174194000Y-149374000D02*
X173194000Y-149374000D01*
X173194000Y-148014000D02*
X174194000Y-148014000D01*
X167214000Y-71747000D02*
X167214000Y-70747000D01*
X168574000Y-70747000D02*
X168574000Y-71747000D01*
X108365000Y-105540000D02*
X106265000Y-105540000D01*
X108365000Y-100200000D02*
X106265000Y-100200000D01*
X152180000Y-96015000D02*
X150080000Y-96015000D01*
X152180000Y-90675000D02*
X150080000Y-90675000D01*
D12*
X135208476Y-93345000D02*
X135367575Y-93504099D01*
X140335000Y-88218476D02*
X140564810Y-88448286D01*
X145461524Y-93345000D02*
X145231714Y-93115190D01*
X140335000Y-98471524D02*
X140105190Y-98241714D01*
X135208476Y-93345000D02*
X135438286Y-93115190D01*
X140335000Y-98471524D02*
X140564810Y-98241714D01*
X145461524Y-93345000D02*
X145231714Y-93574810D01*
X140335000Y-88218476D02*
X140105190Y-88448286D01*
X135367575Y-93504099D02*
X134359948Y-94511726D01*
D11*
X83940815Y-123633173D02*
G75*
G03X78593000Y-123169170I-2787815J-1080827D01*
G01*
X83940815Y-125794827D02*
G75*
G02X78593000Y-126258830I-2787815J1080827D01*
G01*
X83407479Y-123633571D02*
G75*
G03X78898316Y-123634000I-2254479J-1080429D01*
G01*
X83407479Y-125794429D02*
G75*
G02X78898316Y-125794000I-2254479J1080429D01*
G01*
X78593000Y-123169000D02*
X78593000Y-123634000D01*
X78593000Y-125794000D02*
X78593000Y-126259000D01*
X156905000Y-83245000D02*
X156905000Y-78045000D01*
X151765000Y-83245000D02*
X156905000Y-83245000D01*
X149165000Y-78045000D02*
X156905000Y-78045000D01*
X151765000Y-83245000D02*
X151765000Y-80645000D01*
X151765000Y-80645000D02*
X149165000Y-80645000D01*
X149165000Y-80645000D02*
X149165000Y-78045000D01*
X150495000Y-83245000D02*
X149165000Y-83245000D01*
X149165000Y-83245000D02*
X149165000Y-81915000D01*
X91730000Y-128895000D02*
G75*
G02X88610000Y-128895000I-1560000J0D01*
G01*
X88610000Y-125035000D02*
X88610000Y-128895000D01*
X91730000Y-125035000D02*
X91730000Y-128895000D01*
X88610000Y-125035000D02*
X91730000Y-125035000D01*
X92130000Y-125035000D02*
X92130000Y-126155000D01*
X92130000Y-126155000D02*
X91730000Y-126155000D01*
X91730000Y-126155000D02*
X91730000Y-125035000D01*
X91730000Y-125035000D02*
X92130000Y-125035000D01*
X88900000Y-124905000D02*
X88900000Y-125035000D01*
X88900000Y-125035000D02*
X88900000Y-125035000D01*
X88900000Y-125035000D02*
X88900000Y-124905000D01*
X88900000Y-124905000D02*
X88900000Y-124905000D01*
X91440000Y-124905000D02*
X91440000Y-125035000D01*
X91440000Y-125035000D02*
X91440000Y-125035000D01*
X91440000Y-125035000D02*
X91440000Y-124905000D01*
X91440000Y-124905000D02*
X91440000Y-124905000D01*
X77918000Y-131124000D02*
X80578000Y-131124000D01*
X77918000Y-125984000D02*
X77918000Y-131124000D01*
X80578000Y-125984000D02*
X80578000Y-131124000D01*
X77918000Y-125984000D02*
X80578000Y-125984000D01*
X77918000Y-124714000D02*
X77918000Y-123384000D01*
X77918000Y-123384000D02*
X79248000Y-123384000D01*
X131425000Y-85715000D02*
G75*
G03X131425000Y-85715000I-7600000J0D01*
G01*
D12*
X123039286Y-102163571D02*
X123182143Y-102211190D01*
X123229762Y-102258810D01*
X123277381Y-102354048D01*
X123277381Y-102496905D01*
X123229762Y-102592143D01*
X123182143Y-102639762D01*
X123086905Y-102687381D01*
X122705952Y-102687381D01*
X122705952Y-101687381D01*
X123039286Y-101687381D01*
X123134524Y-101735000D01*
X123182143Y-101782619D01*
X123229762Y-101877857D01*
X123229762Y-101973095D01*
X123182143Y-102068333D01*
X123134524Y-102115952D01*
X123039286Y-102163571D01*
X122705952Y-102163571D01*
X123563095Y-101687381D02*
X124134524Y-101687381D01*
X123848809Y-102687381D02*
X123848809Y-101687381D01*
X124991667Y-102687381D02*
X124420238Y-102687381D01*
X124705952Y-102687381D02*
X124705952Y-101687381D01*
X124610714Y-101830238D01*
X124515476Y-101925476D01*
X124420238Y-101973095D01*
X106513334Y-76442143D02*
X106465715Y-76489762D01*
X106322858Y-76537381D01*
X106227620Y-76537381D01*
X106084762Y-76489762D01*
X105989524Y-76394524D01*
X105941905Y-76299286D01*
X105894286Y-76108810D01*
X105894286Y-75965952D01*
X105941905Y-75775476D01*
X105989524Y-75680238D01*
X106084762Y-75585000D01*
X106227620Y-75537381D01*
X106322858Y-75537381D01*
X106465715Y-75585000D01*
X106513334Y-75632619D01*
X107370477Y-75870714D02*
X107370477Y-76537381D01*
X107132381Y-75489762D02*
X106894286Y-76204048D01*
X107513334Y-76204048D01*
X110579048Y-77706429D02*
X111340953Y-77706429D01*
X110960001Y-78087381D02*
X110960001Y-77325476D01*
X135055381Y-93956095D02*
X134055381Y-93956095D01*
X134055381Y-93718000D01*
X134103000Y-93575142D01*
X134198238Y-93479904D01*
X134293476Y-93432285D01*
X134483952Y-93384666D01*
X134626810Y-93384666D01*
X134817286Y-93432285D01*
X134912524Y-93479904D01*
X135007762Y-93575142D01*
X135055381Y-93718000D01*
X135055381Y-93956095D01*
X134388714Y-92527523D02*
X135055381Y-92527523D01*
X134007762Y-92765619D02*
X134722048Y-93003714D01*
X134722048Y-92384666D01*
X145927381Y-80978333D02*
X146641667Y-80978333D01*
X146784524Y-81025953D01*
X146879762Y-81121191D01*
X146927381Y-81264048D01*
X146927381Y-81359286D01*
X146927381Y-79978333D02*
X146927381Y-80549762D01*
X146927381Y-80264048D02*
X145927381Y-80264048D01*
X146070238Y-80359286D01*
X146165476Y-80454524D01*
X146213095Y-80549762D01*
X158947381Y-93503333D02*
X159661667Y-93503333D01*
X159804524Y-93550953D01*
X159899762Y-93646191D01*
X159947381Y-93789048D01*
X159947381Y-93884286D01*
X159042619Y-93074762D02*
X158995000Y-93027143D01*
X158947381Y-92931905D01*
X158947381Y-92693809D01*
X158995000Y-92598571D01*
X159042619Y-92550952D01*
X159137857Y-92503333D01*
X159233095Y-92503333D01*
X159375952Y-92550952D01*
X159947381Y-93122381D01*
X159947381Y-92503333D01*
X152860476Y-107767381D02*
X152860476Y-106767381D01*
X153193810Y-107481667D01*
X153527143Y-106767381D01*
X153527143Y-107767381D01*
X154527143Y-107767381D02*
X153955714Y-107767381D01*
X154241428Y-107767381D02*
X154241428Y-106767381D01*
X154146190Y-106910238D01*
X154050952Y-107005476D01*
X153955714Y-107053095D01*
X192963048Y-147041619D02*
X192867810Y-146994000D01*
X192772572Y-146898762D01*
X192629715Y-146755905D01*
X192534476Y-146708286D01*
X192439238Y-146708286D01*
X192486857Y-146946381D02*
X192391619Y-146898762D01*
X192296381Y-146803524D01*
X192248762Y-146613048D01*
X192248762Y-146279714D01*
X192296381Y-146089238D01*
X192391619Y-145994000D01*
X192486857Y-145946381D01*
X192677334Y-145946381D01*
X192772572Y-145994000D01*
X192867810Y-146089238D01*
X192915429Y-146279714D01*
X192915429Y-146613048D01*
X192867810Y-146803524D01*
X192772572Y-146898762D01*
X192677334Y-146946381D01*
X192486857Y-146946381D01*
X193867810Y-146946381D02*
X193296381Y-146946381D01*
X193582095Y-146946381D02*
X193582095Y-145946381D01*
X193486857Y-146089238D01*
X193391619Y-146184476D01*
X193296381Y-146232095D01*
X156749762Y-95202619D02*
X156654524Y-95155000D01*
X156559286Y-95059762D01*
X156416429Y-94916905D01*
X156321190Y-94869286D01*
X156225952Y-94869286D01*
X156273571Y-95107381D02*
X156178333Y-95059762D01*
X156083095Y-94964524D01*
X156035476Y-94774048D01*
X156035476Y-94440714D01*
X156083095Y-94250238D01*
X156178333Y-94155000D01*
X156273571Y-94107381D01*
X156464048Y-94107381D01*
X156559286Y-94155000D01*
X156654524Y-94250238D01*
X156702143Y-94440714D01*
X156702143Y-94774048D01*
X156654524Y-94964524D01*
X156559286Y-95059762D01*
X156464048Y-95107381D01*
X156273571Y-95107381D01*
X157083095Y-94202619D02*
X157130714Y-94155000D01*
X157225952Y-94107381D01*
X157464048Y-94107381D01*
X157559286Y-94155000D01*
X157606905Y-94202619D01*
X157654524Y-94297857D01*
X157654524Y-94393095D01*
X157606905Y-94535952D01*
X157035476Y-95107381D01*
X157654524Y-95107381D01*
X156749762Y-91392619D02*
X156654524Y-91345000D01*
X156559286Y-91249762D01*
X156416429Y-91106905D01*
X156321190Y-91059286D01*
X156225952Y-91059286D01*
X156273571Y-91297381D02*
X156178333Y-91249762D01*
X156083095Y-91154524D01*
X156035476Y-90964048D01*
X156035476Y-90630714D01*
X156083095Y-90440238D01*
X156178333Y-90345000D01*
X156273571Y-90297381D01*
X156464048Y-90297381D01*
X156559286Y-90345000D01*
X156654524Y-90440238D01*
X156702143Y-90630714D01*
X156702143Y-90964048D01*
X156654524Y-91154524D01*
X156559286Y-91249762D01*
X156464048Y-91297381D01*
X156273571Y-91297381D01*
X157035476Y-90297381D02*
X157654524Y-90297381D01*
X157321190Y-90678333D01*
X157464048Y-90678333D01*
X157559286Y-90725952D01*
X157606905Y-90773571D01*
X157654524Y-90868810D01*
X157654524Y-91106905D01*
X157606905Y-91202143D01*
X157559286Y-91249762D01*
X157464048Y-91297381D01*
X157178333Y-91297381D01*
X157083095Y-91249762D01*
X157035476Y-91202143D01*
X156749762Y-87582619D02*
X156654524Y-87535000D01*
X156559286Y-87439762D01*
X156416429Y-87296905D01*
X156321190Y-87249286D01*
X156225952Y-87249286D01*
X156273571Y-87487381D02*
X156178333Y-87439762D01*
X156083095Y-87344524D01*
X156035476Y-87154048D01*
X156035476Y-86820714D01*
X156083095Y-86630238D01*
X156178333Y-86535000D01*
X156273571Y-86487381D01*
X156464048Y-86487381D01*
X156559286Y-86535000D01*
X156654524Y-86630238D01*
X156702143Y-86820714D01*
X156702143Y-87154048D01*
X156654524Y-87344524D01*
X156559286Y-87439762D01*
X156464048Y-87487381D01*
X156273571Y-87487381D01*
X157559286Y-86820714D02*
X157559286Y-87487381D01*
X157321190Y-86439762D02*
X157083095Y-87154048D01*
X157702143Y-87154048D01*
X139363572Y-108847619D02*
X139268334Y-108800000D01*
X139173096Y-108704762D01*
X139030239Y-108561905D01*
X138935000Y-108514286D01*
X138839762Y-108514286D01*
X138887381Y-108752381D02*
X138792143Y-108704762D01*
X138696905Y-108609524D01*
X138649286Y-108419048D01*
X138649286Y-108085714D01*
X138696905Y-107895238D01*
X138792143Y-107800000D01*
X138887381Y-107752381D01*
X139077858Y-107752381D01*
X139173096Y-107800000D01*
X139268334Y-107895238D01*
X139315953Y-108085714D01*
X139315953Y-108419048D01*
X139268334Y-108609524D01*
X139173096Y-108704762D01*
X139077858Y-108752381D01*
X138887381Y-108752381D01*
X140315953Y-108752381D02*
X139982619Y-108276190D01*
X139744524Y-108752381D02*
X139744524Y-107752381D01*
X140125477Y-107752381D01*
X140220715Y-107800000D01*
X140268334Y-107847619D01*
X140315953Y-107942857D01*
X140315953Y-108085714D01*
X140268334Y-108180952D01*
X140220715Y-108228571D01*
X140125477Y-108276190D01*
X139744524Y-108276190D01*
X140649286Y-107752381D02*
X141315953Y-107752381D01*
X140649286Y-108752381D01*
X141315953Y-108752381D01*
X142220715Y-108752381D02*
X141649286Y-108752381D01*
X141935000Y-108752381D02*
X141935000Y-107752381D01*
X141839762Y-107895238D01*
X141744524Y-107990476D01*
X141649286Y-108038095D01*
X173527334Y-147696381D02*
X173194000Y-147220190D01*
X172955905Y-147696381D02*
X172955905Y-146696381D01*
X173336858Y-146696381D01*
X173432096Y-146744000D01*
X173479715Y-146791619D01*
X173527334Y-146886857D01*
X173527334Y-147029714D01*
X173479715Y-147124952D01*
X173432096Y-147172571D01*
X173336858Y-147220190D01*
X172955905Y-147220190D01*
X174479715Y-147696381D02*
X173908286Y-147696381D01*
X174194000Y-147696381D02*
X174194000Y-146696381D01*
X174098762Y-146839238D01*
X174003524Y-146934476D01*
X173908286Y-146982095D01*
X169796381Y-71413666D02*
X169320190Y-71747000D01*
X169796381Y-71985095D02*
X168796381Y-71985095D01*
X168796381Y-71604142D01*
X168844000Y-71508904D01*
X168891619Y-71461285D01*
X168986857Y-71413666D01*
X169129714Y-71413666D01*
X169224952Y-71461285D01*
X169272571Y-71508904D01*
X169320190Y-71604142D01*
X169320190Y-71985095D01*
X168796381Y-70556523D02*
X168796381Y-70747000D01*
X168844000Y-70842238D01*
X168891619Y-70889857D01*
X169034476Y-70985095D01*
X169224952Y-71032714D01*
X169605905Y-71032714D01*
X169701143Y-70985095D01*
X169748762Y-70937476D01*
X169796381Y-70842238D01*
X169796381Y-70651761D01*
X169748762Y-70556523D01*
X169701143Y-70508904D01*
X169605905Y-70461285D01*
X169367810Y-70461285D01*
X169272571Y-70508904D01*
X169224952Y-70556523D01*
X169177333Y-70651761D01*
X169177333Y-70842238D01*
X169224952Y-70937476D01*
X169272571Y-70985095D01*
X169367810Y-71032714D01*
X106624524Y-99822381D02*
X106291190Y-99346190D01*
X106053095Y-99822381D02*
X106053095Y-98822381D01*
X106434048Y-98822381D01*
X106529286Y-98870000D01*
X106576905Y-98917619D01*
X106624524Y-99012857D01*
X106624524Y-99155714D01*
X106576905Y-99250952D01*
X106529286Y-99298571D01*
X106434048Y-99346190D01*
X106053095Y-99346190D01*
X107053095Y-99822381D02*
X107053095Y-98822381D01*
X107624524Y-99822381D01*
X107624524Y-98822381D01*
X108624524Y-99822381D02*
X108053095Y-99822381D01*
X108338809Y-99822381D02*
X108338809Y-98822381D01*
X108243571Y-98965238D01*
X108148333Y-99060476D01*
X108053095Y-99108095D01*
X150439524Y-90297381D02*
X150106190Y-89821190D01*
X149868095Y-90297381D02*
X149868095Y-89297381D01*
X150249048Y-89297381D01*
X150344286Y-89345000D01*
X150391905Y-89392619D01*
X150439524Y-89487857D01*
X150439524Y-89630714D01*
X150391905Y-89725952D01*
X150344286Y-89773571D01*
X150249048Y-89821190D01*
X149868095Y-89821190D01*
X150868095Y-90297381D02*
X150868095Y-89297381D01*
X151439524Y-90297381D01*
X151439524Y-89297381D01*
X151820476Y-89297381D02*
X152439524Y-89297381D01*
X152106190Y-89678333D01*
X152249048Y-89678333D01*
X152344286Y-89725952D01*
X152391905Y-89773571D01*
X152439524Y-89868810D01*
X152439524Y-90106905D01*
X152391905Y-90202143D01*
X152344286Y-90249762D01*
X152249048Y-90297381D01*
X151963333Y-90297381D01*
X151868095Y-90249762D01*
X151820476Y-90202143D01*
X152336667Y-110259762D02*
X152479524Y-110307381D01*
X152717620Y-110307381D01*
X152812858Y-110259762D01*
X152860477Y-110212143D01*
X152908096Y-110116905D01*
X152908096Y-110021667D01*
X152860477Y-109926429D01*
X152812858Y-109878810D01*
X152717620Y-109831190D01*
X152527143Y-109783571D01*
X152431905Y-109735952D01*
X152384286Y-109688333D01*
X152336667Y-109593095D01*
X152336667Y-109497857D01*
X152384286Y-109402619D01*
X152431905Y-109355000D01*
X152527143Y-109307381D01*
X152765239Y-109307381D01*
X152908096Y-109355000D01*
X153241429Y-109307381D02*
X153479524Y-110307381D01*
X153670001Y-109593095D01*
X153860477Y-110307381D01*
X154098572Y-109307381D01*
X155003334Y-110307381D02*
X154431905Y-110307381D01*
X154717619Y-110307381D02*
X154717619Y-109307381D01*
X154622381Y-109450238D01*
X154527143Y-109545476D01*
X154431905Y-109593095D01*
X135131031Y-89218527D02*
X135703451Y-89790947D01*
X135804466Y-89824619D01*
X135871809Y-89824619D01*
X135972824Y-89790947D01*
X136107512Y-89656259D01*
X136141184Y-89555244D01*
X136141184Y-89487901D01*
X136107512Y-89386886D01*
X135535092Y-88814466D01*
X136949306Y-88814466D02*
X136545244Y-89218527D01*
X136747275Y-89016497D02*
X136040168Y-88309390D01*
X136073840Y-88477749D01*
X136073840Y-88612435D01*
X136040168Y-88713451D01*
X80414905Y-121206381D02*
X80414905Y-120206381D01*
X80653000Y-120206381D01*
X80795858Y-120254000D01*
X80891096Y-120349238D01*
X80938715Y-120444476D01*
X80986334Y-120634952D01*
X80986334Y-120777810D01*
X80938715Y-120968286D01*
X80891096Y-121063524D01*
X80795858Y-121158762D01*
X80653000Y-121206381D01*
X80414905Y-121206381D01*
X81367286Y-120301619D02*
X81414905Y-120254000D01*
X81510143Y-120206381D01*
X81748239Y-120206381D01*
X81843477Y-120254000D01*
X81891096Y-120301619D01*
X81938715Y-120396857D01*
X81938715Y-120492095D01*
X81891096Y-120634952D01*
X81319667Y-121206381D01*
X81938715Y-121206381D01*
X148569762Y-82145000D02*
X148617381Y-82002143D01*
X148617381Y-81764047D01*
X148569762Y-81668809D01*
X148522143Y-81621190D01*
X148426905Y-81573571D01*
X148331667Y-81573571D01*
X148236429Y-81621190D01*
X148188810Y-81668809D01*
X148141190Y-81764047D01*
X148093571Y-81954524D01*
X148045952Y-82049762D01*
X147998333Y-82097381D01*
X147903095Y-82145000D01*
X147807857Y-82145000D01*
X147712619Y-82097381D01*
X147665000Y-82049762D01*
X147617381Y-81954524D01*
X147617381Y-81716428D01*
X147665000Y-81573571D01*
X148617381Y-81145000D02*
X147617381Y-81145000D01*
X147617381Y-80764047D01*
X147665000Y-80668809D01*
X147712619Y-80621190D01*
X147807857Y-80573571D01*
X147950714Y-80573571D01*
X148045952Y-80621190D01*
X148093571Y-80668809D01*
X148141190Y-80764047D01*
X148141190Y-81145000D01*
X148617381Y-80145000D02*
X147617381Y-80145000D01*
X148617381Y-79145000D02*
X148617381Y-79716429D01*
X148617381Y-79430715D02*
X147617381Y-79430715D01*
X147760238Y-79525953D01*
X147855476Y-79621191D01*
X147903095Y-79716429D01*
X89431905Y-122317381D02*
X89431905Y-121317381D01*
X89670000Y-121317381D01*
X89812858Y-121365000D01*
X89908096Y-121460238D01*
X89955715Y-121555476D01*
X90003334Y-121745952D01*
X90003334Y-121888810D01*
X89955715Y-122079286D01*
X89908096Y-122174524D01*
X89812858Y-122269762D01*
X89670000Y-122317381D01*
X89431905Y-122317381D01*
X90955715Y-122317381D02*
X90384286Y-122317381D01*
X90670000Y-122317381D02*
X90670000Y-121317381D01*
X90574762Y-121460238D01*
X90479524Y-121555476D01*
X90384286Y-121603095D01*
X77914667Y-122788762D02*
X78057524Y-122836381D01*
X78295620Y-122836381D01*
X78390858Y-122788762D01*
X78438477Y-122741143D01*
X78486096Y-122645905D01*
X78486096Y-122550667D01*
X78438477Y-122455429D01*
X78390858Y-122407810D01*
X78295620Y-122360190D01*
X78105143Y-122312571D01*
X78009905Y-122264952D01*
X77962286Y-122217333D01*
X77914667Y-122122095D01*
X77914667Y-122026857D01*
X77962286Y-121931619D01*
X78009905Y-121884000D01*
X78105143Y-121836381D01*
X78343239Y-121836381D01*
X78486096Y-121884000D01*
X78819429Y-121836381D02*
X79057524Y-122836381D01*
X79248001Y-122122095D01*
X79438477Y-122836381D01*
X79676572Y-121836381D01*
X80009905Y-121931619D02*
X80057524Y-121884000D01*
X80152762Y-121836381D01*
X80390858Y-121836381D01*
X80486096Y-121884000D01*
X80533715Y-121931619D01*
X80581334Y-122026857D01*
X80581334Y-122122095D01*
X80533715Y-122264952D01*
X79962286Y-122836381D01*
X80581334Y-122836381D01*
X133119762Y-86986905D02*
X133167381Y-86844048D01*
X133167381Y-86605952D01*
X133119762Y-86510714D01*
X133072143Y-86463095D01*
X132976905Y-86415476D01*
X132881667Y-86415476D01*
X132786429Y-86463095D01*
X132738810Y-86510714D01*
X132691190Y-86605952D01*
X132643571Y-86796429D01*
X132595952Y-86891667D01*
X132548333Y-86939286D01*
X132453095Y-86986905D01*
X132357857Y-86986905D01*
X132262619Y-86939286D01*
X132215000Y-86891667D01*
X132167381Y-86796429D01*
X132167381Y-86558333D01*
X132215000Y-86415476D01*
X133167381Y-85986905D02*
X132167381Y-85986905D01*
X132167381Y-85605952D01*
X132215000Y-85510714D01*
X132262619Y-85463095D01*
X132357857Y-85415476D01*
X132500714Y-85415476D01*
X132595952Y-85463095D01*
X132643571Y-85510714D01*
X132691190Y-85605952D01*
X132691190Y-85986905D01*
X133167381Y-84463095D02*
X133167381Y-85034524D01*
X133167381Y-84748810D02*
X132167381Y-84748810D01*
X132310238Y-84844048D01*
X132405476Y-84939286D01*
X132453095Y-85034524D01*
X126436429Y-82285952D02*
X126436429Y-81524047D01*
X126817381Y-81904999D02*
X126055476Y-81904999D01*
M02*
