G04 #@! TF.FileFunction,Copper,L2,Bot,Signal*
%FSLAX46Y46*%
G04 Gerber Fmt 4.6, Leading zero omitted, Abs format (unit mm)*
G04 Created by KiCad (PCBNEW 4.0.7-e2-6376~58~ubuntu14.04.1) date Tue Feb 20 14:15:50 2018*
%MOMM*%
%LPD*%
G01*
G04 APERTURE LIST*
%ADD10C,0.100000*%
%ADD11R,1.200000X1.700000*%
%ADD12O,1.200000X1.700000*%
%ADD13R,0.750000X1.200000*%
%ADD14R,0.800000X1.000000*%
%ADD15R,1.700000X1.700000*%
%ADD16O,1.700000X1.700000*%
%ADD17R,1.600000X1.600000*%
%ADD18C,1.600000*%
%ADD19C,4.000000*%
%ADD20R,1.900000X0.800000*%
%ADD21C,1.500000*%
%ADD22R,0.900000X1.200000*%
%ADD23R,1.800000X1.070000*%
%ADD24O,1.800000X1.070000*%
%ADD25R,1.800000X1.800000*%
%ADD26C,1.800000*%
%ADD27R,2.000000X2.000000*%
%ADD28C,2.000000*%
%ADD29R,0.800000X0.500000*%
%ADD30R,0.800000X0.400000*%
%ADD31C,0.720000*%
%ADD32C,0.250000*%
%ADD33C,0.254000*%
G04 APERTURE END LIST*
D10*
D11*
X132715000Y-104775000D03*
D12*
X134715000Y-104775000D03*
D13*
X142303500Y-104079000D03*
X142303500Y-105979000D03*
X143827500Y-105979000D03*
X143827500Y-104079000D03*
D14*
X130110000Y-91968000D03*
X130110000Y-94468000D03*
X131510000Y-94468000D03*
X131510000Y-91968000D03*
D15*
X144145000Y-79375000D03*
D16*
X144145000Y-81915000D03*
X141605000Y-79375000D03*
X141605000Y-81915000D03*
X139065000Y-79375000D03*
X139065000Y-81915000D03*
X136525000Y-79375000D03*
X136525000Y-81915000D03*
D17*
X163195000Y-87630000D03*
D18*
X163195000Y-90400000D03*
X163195000Y-93170000D03*
X163195000Y-95940000D03*
X163195000Y-98710000D03*
X166035000Y-89015000D03*
X166035000Y-91785000D03*
X166035000Y-94555000D03*
X166035000Y-97325000D03*
D19*
X163495000Y-105670000D03*
X163495000Y-80670000D03*
D20*
X127865000Y-84648000D03*
X127865000Y-86548000D03*
X124865000Y-85598000D03*
D21*
X145669000Y-104775000D03*
X140789000Y-104775000D03*
D22*
X157734000Y-79418000D03*
X157734000Y-81618000D03*
X134366000Y-80983000D03*
X134366000Y-78783000D03*
X146304000Y-80983000D03*
X146304000Y-78783000D03*
D23*
X117475000Y-102870000D03*
D24*
X117475000Y-104140000D03*
X117475000Y-105410000D03*
X117475000Y-106680000D03*
D15*
X150495000Y-81915000D03*
D16*
X150495000Y-79375000D03*
X153035000Y-81915000D03*
X153035000Y-79375000D03*
X155575000Y-81915000D03*
X155575000Y-79375000D03*
D25*
X117475000Y-97790000D03*
D26*
X117475000Y-100330000D03*
D27*
X121920000Y-81915000D03*
D28*
X121920000Y-89515000D03*
D15*
X128676400Y-107315000D03*
D16*
X128676400Y-104775000D03*
X128676400Y-102235000D03*
D15*
X155575000Y-106045000D03*
D16*
X153035000Y-106045000D03*
D15*
X155575000Y-103505000D03*
D16*
X153035000Y-103505000D03*
D29*
X135139000Y-84652000D03*
D30*
X135139000Y-86252000D03*
X135139000Y-85452000D03*
D29*
X135139000Y-87052000D03*
D30*
X133339000Y-85452000D03*
D29*
X133339000Y-84652000D03*
D30*
X133339000Y-86252000D03*
D29*
X133339000Y-87052000D03*
X157872000Y-91764000D03*
D30*
X157872000Y-93364000D03*
X157872000Y-92564000D03*
D29*
X157872000Y-94164000D03*
D30*
X156072000Y-92564000D03*
D29*
X156072000Y-91764000D03*
D30*
X156072000Y-93364000D03*
D29*
X156072000Y-94164000D03*
D31*
X127254000Y-87655400D03*
X143065500Y-107124500D03*
X136144000Y-98044000D03*
X146050000Y-90424000D03*
X130810000Y-96583500D03*
X140779500Y-90424000D03*
X139573000Y-94107000D03*
X138557000Y-94488000D03*
X144399000Y-97790000D03*
X121666000Y-102743000D03*
X145542000Y-83693000D03*
X139700000Y-101727000D03*
X134493000Y-96520000D03*
X146913600Y-93903800D03*
X149301200Y-94462600D03*
X138112500Y-85471000D03*
X138811000Y-86868000D03*
X137033000Y-87122000D03*
X130810000Y-89852500D03*
X130810000Y-95631000D03*
X130810000Y-90805000D03*
X159258000Y-94742000D03*
X160020000Y-93345000D03*
X160020000Y-91186000D03*
X145415000Y-100076000D03*
D32*
X140789000Y-104775000D02*
X140789000Y-104702000D01*
X140789000Y-104702000D02*
X141412000Y-104079000D01*
X141412000Y-104079000D02*
X142494000Y-104079000D01*
X127230000Y-86548000D02*
X127255400Y-87654000D01*
X127255400Y-87654000D02*
X127254000Y-87655400D01*
X142494000Y-105979000D02*
X143065500Y-107124500D01*
X143065500Y-107124500D02*
X144018000Y-105979000D01*
X144018000Y-104079000D02*
X144968000Y-104079000D01*
X144968000Y-104079000D02*
X145664000Y-104775000D01*
X145473500Y-104775000D02*
X145478500Y-104775000D01*
X157734000Y-79418000D02*
X157734000Y-78232000D01*
X157734000Y-78232000D02*
X157988000Y-77978000D01*
X150495000Y-79375000D02*
X150495000Y-79248000D01*
X150495000Y-79248000D02*
X151765000Y-77978000D01*
X151765000Y-77978000D02*
X157988000Y-77978000D01*
X157988000Y-77978000D02*
X164973000Y-77978000D01*
X164973000Y-77978000D02*
X166035000Y-79040000D01*
X166035000Y-79040000D02*
X166035000Y-89015000D01*
X134366000Y-80983000D02*
X134917000Y-80983000D01*
X134917000Y-80983000D02*
X136525000Y-79375000D01*
X130110000Y-96074000D02*
X130110000Y-94468000D01*
X130429000Y-96393000D02*
X130110000Y-96074000D01*
X130810000Y-96583500D02*
X130429000Y-96393000D01*
X130110000Y-94468000D02*
X130110000Y-94172000D01*
X140779500Y-90424000D02*
X140779500Y-86868000D01*
X140779500Y-86868000D02*
X138509330Y-84597830D01*
X138509330Y-84597830D02*
X135128000Y-84709000D01*
X139573000Y-94107000D02*
X143764000Y-98552000D01*
X143764000Y-98552000D02*
X157353000Y-98552000D01*
X157353000Y-98552000D02*
X159965000Y-95940000D01*
X159965000Y-95940000D02*
X163195000Y-95940000D01*
X138557000Y-94488000D02*
X143383000Y-99314000D01*
X143383000Y-99314000D02*
X157988000Y-99314000D01*
X157988000Y-99314000D02*
X159977000Y-97325000D01*
X159977000Y-97325000D02*
X166035000Y-97325000D01*
X163195000Y-90400000D02*
X157885000Y-90400000D01*
X155829000Y-97790000D02*
X144399000Y-97790000D01*
X156972000Y-96647000D02*
X155829000Y-97790000D01*
X156972000Y-91313000D02*
X156972000Y-96647000D01*
X157885000Y-90400000D02*
X156972000Y-91313000D01*
X117475000Y-97790000D02*
X117475000Y-89027000D01*
X120904000Y-85598000D02*
X124865000Y-85598000D01*
X117475000Y-89027000D02*
X120904000Y-85598000D01*
X133339000Y-87052000D02*
X132277000Y-87052000D01*
X121666000Y-94996000D02*
X121666000Y-102743000D01*
X123317000Y-93345000D02*
X121666000Y-94996000D01*
X125984000Y-93345000D02*
X123317000Y-93345000D01*
X132277000Y-87052000D02*
X125984000Y-93345000D01*
X133339000Y-85452000D02*
X131845000Y-85452000D01*
X118745000Y-105410000D02*
X117475000Y-105410000D01*
X119888000Y-104267000D02*
X118745000Y-105410000D01*
X119888000Y-94361000D02*
X119888000Y-104267000D01*
X122428000Y-91821000D02*
X119888000Y-94361000D01*
X125476000Y-91821000D02*
X122428000Y-91821000D01*
X131845000Y-85452000D02*
X125476000Y-91821000D01*
X133339000Y-86252000D02*
X132061000Y-86252000D01*
X119253000Y-106680000D02*
X117475000Y-106680000D01*
X120777000Y-105156000D02*
X119253000Y-106680000D01*
X120777000Y-94615000D02*
X120777000Y-105156000D01*
X122809000Y-92583000D02*
X120777000Y-94615000D01*
X125730000Y-92583000D02*
X122809000Y-92583000D01*
X132061000Y-86252000D02*
X125730000Y-92583000D01*
X157734000Y-81618000D02*
X155872000Y-81618000D01*
X155872000Y-81618000D02*
X155575000Y-81915000D01*
X155575000Y-81915000D02*
X155575000Y-82042000D01*
X155575000Y-82042000D02*
X153924000Y-83693000D01*
X153924000Y-83693000D02*
X145542000Y-83693000D01*
X155575000Y-81915000D02*
X155575000Y-82550000D01*
X139700000Y-101727000D02*
X137160000Y-101727000D01*
X137160000Y-101727000D02*
X134493000Y-99060000D01*
X134493000Y-99060000D02*
X134493000Y-96520000D01*
X146913600Y-93903800D02*
X147472400Y-94462600D01*
X147472400Y-94462600D02*
X149301200Y-94462600D01*
X146304000Y-78783000D02*
X146304000Y-78613000D01*
X146304000Y-78613000D02*
X145796000Y-78105000D01*
X145796000Y-78105000D02*
X142875000Y-78105000D01*
X142875000Y-78105000D02*
X141605000Y-79375000D01*
X134366000Y-78783000D02*
X134366000Y-78740000D01*
X134366000Y-78740000D02*
X135001000Y-78105000D01*
X135001000Y-78105000D02*
X137795000Y-78105000D01*
X137795000Y-78105000D02*
X139065000Y-79375000D01*
X144145000Y-79375000D02*
X144018000Y-79375000D01*
X138112500Y-85471000D02*
X137966500Y-85325000D01*
X137966500Y-85325000D02*
X135139000Y-85452000D01*
X138195000Y-86252000D02*
X135139000Y-86252000D01*
X138811000Y-86868000D02*
X138195000Y-86252000D01*
X136963000Y-87052000D02*
X135139000Y-87052000D01*
X137033000Y-87122000D02*
X136963000Y-87052000D01*
X155448000Y-91472000D02*
X155780000Y-91472000D01*
X155780000Y-91472000D02*
X156072000Y-91764000D01*
X130810000Y-89852500D02*
X132143500Y-89852500D01*
X133763000Y-91472000D02*
X155448000Y-91472000D01*
X155448000Y-91472000D02*
X155472000Y-91472000D01*
X132143500Y-89852500D02*
X133763000Y-91472000D01*
X155440000Y-91440000D02*
X155472000Y-91472000D01*
X130111500Y-90487500D02*
X130110000Y-91968000D01*
X130810000Y-89852500D02*
X130111500Y-90487500D01*
X131510000Y-94468000D02*
X132100000Y-94468000D01*
X153568000Y-93370000D02*
X156107000Y-93370000D01*
X153162000Y-92964000D02*
X153568000Y-93370000D01*
X133604000Y-92964000D02*
X153162000Y-92964000D01*
X132100000Y-94468000D02*
X133604000Y-92964000D01*
X131510000Y-94468000D02*
X131719000Y-94468000D01*
X131510000Y-95185000D02*
X131510000Y-94468000D01*
X131191000Y-95504000D02*
X131510000Y-95185000D01*
X130810000Y-95631000D02*
X131191000Y-95504000D01*
X131510000Y-94677000D02*
X131510000Y-94468000D01*
X131510000Y-91968000D02*
X132608000Y-91968000D01*
X154026000Y-92558000D02*
X156107000Y-92558000D01*
X153670000Y-92202000D02*
X154026000Y-92558000D01*
X132842000Y-92202000D02*
X153670000Y-92202000D01*
X132608000Y-91968000D02*
X132842000Y-92202000D01*
X131510000Y-91968000D02*
X131510000Y-91505000D01*
X131510000Y-91505000D02*
X130810000Y-90805000D01*
X133047900Y-84622600D02*
X133056500Y-84614000D01*
X133056500Y-84614000D02*
X127899000Y-84614000D01*
X127899000Y-84614000D02*
X127865000Y-84648000D01*
X157872000Y-93364000D02*
X158769000Y-93364000D01*
X159258000Y-93853000D02*
X159258000Y-94742000D01*
X158769000Y-93364000D02*
X159258000Y-93853000D01*
X157872000Y-92564000D02*
X159239000Y-92564000D01*
X159239000Y-92564000D02*
X160020000Y-93345000D01*
X157872000Y-91764000D02*
X159442000Y-91764000D01*
X159442000Y-91764000D02*
X160020000Y-91186000D01*
X145415000Y-100076000D02*
X145415000Y-100076000D01*
X145415000Y-100076000D02*
X158623000Y-100076000D01*
X158623000Y-100076000D02*
X159989000Y-98710000D01*
X159989000Y-98710000D02*
X163195000Y-98710000D01*
D33*
G36*
X133514936Y-78013619D02*
X133480635Y-78183000D01*
X133480635Y-79383000D01*
X133510409Y-79541237D01*
X133603927Y-79686567D01*
X133730014Y-79772719D01*
X133556301Y-79844673D01*
X133377673Y-80023302D01*
X133281000Y-80256691D01*
X133281000Y-80697250D01*
X133439750Y-80856000D01*
X134239000Y-80856000D01*
X134239000Y-80836000D01*
X134493000Y-80836000D01*
X134493000Y-80856000D01*
X135292250Y-80856000D01*
X135451000Y-80697250D01*
X135451000Y-80366796D01*
X135758076Y-80646645D01*
X135988548Y-80742104D01*
X135622025Y-80987007D01*
X135440671Y-81258421D01*
X135292250Y-81110000D01*
X134493000Y-81110000D01*
X134493000Y-82059250D01*
X134651750Y-82218000D01*
X134942310Y-82218000D01*
X135175699Y-82121327D01*
X135266086Y-82030940D01*
X135345206Y-82428705D01*
X135622025Y-82842993D01*
X136036313Y-83119812D01*
X136525000Y-83217018D01*
X137013687Y-83119812D01*
X137427975Y-82842993D01*
X137704794Y-82428705D01*
X137795000Y-81975209D01*
X137885206Y-82428705D01*
X138162025Y-82842993D01*
X138576313Y-83119812D01*
X139065000Y-83217018D01*
X139553687Y-83119812D01*
X139967975Y-82842993D01*
X140244794Y-82428705D01*
X140335000Y-81975209D01*
X140425206Y-82428705D01*
X140702025Y-82842993D01*
X141116313Y-83119812D01*
X141605000Y-83217018D01*
X142093687Y-83119812D01*
X142507975Y-82842993D01*
X142784794Y-82428705D01*
X142875000Y-81975209D01*
X142965206Y-82428705D01*
X143242025Y-82842993D01*
X143656313Y-83119812D01*
X144145000Y-83217018D01*
X144633687Y-83119812D01*
X145047975Y-82842993D01*
X145324794Y-82428705D01*
X145403914Y-82030940D01*
X145494301Y-82121327D01*
X145727690Y-82218000D01*
X146018250Y-82218000D01*
X146177000Y-82059250D01*
X146177000Y-81110000D01*
X146431000Y-81110000D01*
X146431000Y-82059250D01*
X146589750Y-82218000D01*
X146880310Y-82218000D01*
X147113699Y-82121327D01*
X147292327Y-81942698D01*
X147389000Y-81709309D01*
X147389000Y-81268750D01*
X147230250Y-81110000D01*
X146431000Y-81110000D01*
X146177000Y-81110000D01*
X145377750Y-81110000D01*
X145229329Y-81258421D01*
X145047975Y-80987007D01*
X144633687Y-80710188D01*
X144383210Y-80660365D01*
X144995000Y-80660365D01*
X145153237Y-80630591D01*
X145219000Y-80588273D01*
X145219000Y-80697250D01*
X145377750Y-80856000D01*
X146177000Y-80856000D01*
X146177000Y-80836000D01*
X146431000Y-80836000D01*
X146431000Y-80856000D01*
X147230250Y-80856000D01*
X147389000Y-80697250D01*
X147389000Y-80256691D01*
X147292327Y-80023302D01*
X147113699Y-79844673D01*
X146938110Y-79771942D01*
X147057567Y-79695073D01*
X147155064Y-79552381D01*
X147189365Y-79383000D01*
X147189365Y-78183000D01*
X147159591Y-78024763D01*
X147125639Y-77972000D01*
X150045215Y-77972000D01*
X149728076Y-78103355D01*
X149299817Y-78493642D01*
X149053514Y-79018108D01*
X149174181Y-79248000D01*
X150368000Y-79248000D01*
X150368000Y-79228000D01*
X150622000Y-79228000D01*
X150622000Y-79248000D01*
X150642000Y-79248000D01*
X150642000Y-79502000D01*
X150622000Y-79502000D01*
X150622000Y-79522000D01*
X150368000Y-79522000D01*
X150368000Y-79502000D01*
X149174181Y-79502000D01*
X149053514Y-79731892D01*
X149299817Y-80256358D01*
X149709411Y-80629635D01*
X149645000Y-80629635D01*
X149486763Y-80659409D01*
X149341433Y-80752927D01*
X149243936Y-80895619D01*
X149209635Y-81065000D01*
X149209635Y-82765000D01*
X149239409Y-82923237D01*
X149332927Y-83068567D01*
X149438937Y-83141000D01*
X146102979Y-83141000D01*
X145988382Y-83026203D01*
X145699231Y-82906137D01*
X145386143Y-82905864D01*
X145096783Y-83025425D01*
X144875203Y-83246618D01*
X144755137Y-83535769D01*
X144754864Y-83848857D01*
X144874425Y-84138217D01*
X145095618Y-84359797D01*
X145384769Y-84479863D01*
X145697857Y-84480136D01*
X145987217Y-84360575D01*
X146102994Y-84245000D01*
X153924000Y-84245000D01*
X154135242Y-84202982D01*
X154314323Y-84083323D01*
X155246059Y-83151587D01*
X155575000Y-83217018D01*
X156063687Y-83119812D01*
X156477975Y-82842993D01*
X156754794Y-82428705D01*
X156806254Y-82170000D01*
X156848635Y-82170000D01*
X156848635Y-82218000D01*
X156878409Y-82376237D01*
X156971927Y-82521567D01*
X157114619Y-82619064D01*
X157284000Y-82653365D01*
X158184000Y-82653365D01*
X158342237Y-82623591D01*
X158487567Y-82530073D01*
X158585064Y-82387381D01*
X158619365Y-82218000D01*
X158619365Y-81150642D01*
X161067579Y-81150642D01*
X161436290Y-82042989D01*
X162118420Y-82726311D01*
X163010122Y-83096578D01*
X163975642Y-83097421D01*
X164867989Y-82728710D01*
X165551311Y-82046580D01*
X165921578Y-81154878D01*
X165922421Y-80189358D01*
X165553710Y-79297011D01*
X164871580Y-78613689D01*
X163979878Y-78243422D01*
X163014358Y-78242579D01*
X162122011Y-78611290D01*
X161438689Y-79293420D01*
X161068422Y-80185122D01*
X161067579Y-81150642D01*
X158619365Y-81150642D01*
X158619365Y-81018000D01*
X158589591Y-80859763D01*
X158496073Y-80714433D01*
X158369986Y-80628281D01*
X158543699Y-80556327D01*
X158722327Y-80377698D01*
X158819000Y-80144309D01*
X158819000Y-79703750D01*
X158660250Y-79545000D01*
X157861000Y-79545000D01*
X157861000Y-79565000D01*
X157607000Y-79565000D01*
X157607000Y-79545000D01*
X157587000Y-79545000D01*
X157587000Y-79291000D01*
X157607000Y-79291000D01*
X157607000Y-78341750D01*
X157861000Y-78341750D01*
X157861000Y-79291000D01*
X158660250Y-79291000D01*
X158819000Y-79132250D01*
X158819000Y-78691691D01*
X158722327Y-78458302D01*
X158543699Y-78279673D01*
X158310310Y-78183000D01*
X158019750Y-78183000D01*
X157861000Y-78341750D01*
X157607000Y-78341750D01*
X157448250Y-78183000D01*
X157157690Y-78183000D01*
X156924301Y-78279673D01*
X156745673Y-78458302D01*
X156649000Y-78691691D01*
X156649000Y-78702963D01*
X156477975Y-78447007D01*
X156063687Y-78170188D01*
X155575000Y-78072982D01*
X155086313Y-78170188D01*
X154672025Y-78447007D01*
X154395206Y-78861295D01*
X154305000Y-79314791D01*
X154214794Y-78861295D01*
X153937975Y-78447007D01*
X153523687Y-78170188D01*
X153035000Y-78072982D01*
X152546313Y-78170188D01*
X152132025Y-78447007D01*
X151859691Y-78854583D01*
X151690183Y-78493642D01*
X151261924Y-78103355D01*
X150944785Y-77972000D01*
X170948000Y-77972000D01*
X170948000Y-108083000D01*
X164010543Y-108083000D01*
X164867989Y-107728710D01*
X165551311Y-107046580D01*
X165921578Y-106154878D01*
X165922421Y-105189358D01*
X165553710Y-104297011D01*
X164871580Y-103613689D01*
X163979878Y-103243422D01*
X163014358Y-103242579D01*
X162122011Y-103611290D01*
X161438689Y-104293420D01*
X161068422Y-105185122D01*
X161067579Y-106150642D01*
X161436290Y-107042989D01*
X162118420Y-107726311D01*
X162977423Y-108083000D01*
X129961765Y-108083000D01*
X129961765Y-106465000D01*
X129931991Y-106306763D01*
X129838473Y-106161433D01*
X129695781Y-106063936D01*
X129526400Y-106029635D01*
X129431164Y-106029635D01*
X129557758Y-105970183D01*
X129948045Y-105541924D01*
X130117876Y-105131890D01*
X129996555Y-104902000D01*
X128803400Y-104902000D01*
X128803400Y-104922000D01*
X128549400Y-104922000D01*
X128549400Y-104902000D01*
X127356245Y-104902000D01*
X127234924Y-105131890D01*
X127404755Y-105541924D01*
X127795042Y-105970183D01*
X127921636Y-106029635D01*
X127826400Y-106029635D01*
X127668163Y-106059409D01*
X127522833Y-106152927D01*
X127425336Y-106295619D01*
X127391035Y-106465000D01*
X127391035Y-108083000D01*
X114167000Y-108083000D01*
X114167000Y-104140000D01*
X116122003Y-104140000D01*
X116195231Y-104508141D01*
X116373540Y-104775000D01*
X116195231Y-105041859D01*
X116122003Y-105410000D01*
X116195231Y-105778141D01*
X116373540Y-106045000D01*
X116195231Y-106311859D01*
X116122003Y-106680000D01*
X116195231Y-107048141D01*
X116403766Y-107360237D01*
X116715862Y-107568772D01*
X117084003Y-107642000D01*
X117865997Y-107642000D01*
X118234138Y-107568772D01*
X118546234Y-107360237D01*
X118631919Y-107232000D01*
X119253000Y-107232000D01*
X119464242Y-107189982D01*
X119643323Y-107070323D01*
X121167323Y-105546323D01*
X121230473Y-105451812D01*
X121286982Y-105367241D01*
X121329000Y-105156000D01*
X121329000Y-104418110D01*
X127234924Y-104418110D01*
X127356245Y-104648000D01*
X128549400Y-104648000D01*
X128549400Y-104628000D01*
X128803400Y-104628000D01*
X128803400Y-104648000D01*
X129996555Y-104648000D01*
X130117876Y-104418110D01*
X129948045Y-104008076D01*
X129872336Y-103925000D01*
X131679635Y-103925000D01*
X131679635Y-105625000D01*
X131709409Y-105783237D01*
X131802927Y-105928567D01*
X131945619Y-106026064D01*
X132115000Y-106060365D01*
X133315000Y-106060365D01*
X133473237Y-106030591D01*
X133618567Y-105937073D01*
X133716064Y-105794381D01*
X133750365Y-105625000D01*
X133750365Y-105363547D01*
X133766176Y-105443034D01*
X133988801Y-105776217D01*
X134321984Y-105998842D01*
X134715000Y-106077018D01*
X135108016Y-105998842D01*
X135441199Y-105776217D01*
X135663824Y-105443034D01*
X135742000Y-105050018D01*
X135742000Y-105008093D01*
X139611796Y-105008093D01*
X139790606Y-105440846D01*
X140121412Y-105772230D01*
X140553853Y-105951795D01*
X141022093Y-105952204D01*
X141454846Y-105773394D01*
X141493135Y-105735172D01*
X141493135Y-106579000D01*
X141522909Y-106737237D01*
X141616427Y-106882567D01*
X141759119Y-106980064D01*
X141928500Y-107014365D01*
X142278596Y-107014365D01*
X142278364Y-107280357D01*
X142397925Y-107569717D01*
X142619118Y-107791297D01*
X142908269Y-107911363D01*
X143221357Y-107911636D01*
X143510717Y-107792075D01*
X143732297Y-107570882D01*
X143852363Y-107281731D01*
X143852573Y-107041313D01*
X143874980Y-107014365D01*
X144202500Y-107014365D01*
X144360737Y-106984591D01*
X144506067Y-106891073D01*
X144603564Y-106748381D01*
X144637865Y-106579000D01*
X144637865Y-105379000D01*
X144631856Y-105347063D01*
X144670606Y-105440846D01*
X145001412Y-105772230D01*
X145433853Y-105951795D01*
X145902093Y-105952204D01*
X146334846Y-105773394D01*
X146666230Y-105442588D01*
X146845795Y-105010147D01*
X146846204Y-104541907D01*
X146667394Y-104109154D01*
X146420564Y-103861892D01*
X151593514Y-103861892D01*
X151839817Y-104386358D01*
X152268076Y-104776645D01*
X152498548Y-104872104D01*
X152132025Y-105117007D01*
X151855206Y-105531295D01*
X151758000Y-106019982D01*
X151758000Y-106070018D01*
X151855206Y-106558705D01*
X152132025Y-106972993D01*
X152546313Y-107249812D01*
X153035000Y-107347018D01*
X153523687Y-107249812D01*
X153937975Y-106972993D01*
X154214794Y-106558705D01*
X154289635Y-106182454D01*
X154289635Y-106895000D01*
X154319409Y-107053237D01*
X154412927Y-107198567D01*
X154555619Y-107296064D01*
X154725000Y-107330365D01*
X156425000Y-107330365D01*
X156583237Y-107300591D01*
X156728567Y-107207073D01*
X156826064Y-107064381D01*
X156860365Y-106895000D01*
X156860365Y-105195000D01*
X156830591Y-105036763D01*
X156737073Y-104891433D01*
X156594381Y-104793936D01*
X156503660Y-104775564D01*
X156583237Y-104760591D01*
X156728567Y-104667073D01*
X156826064Y-104524381D01*
X156860365Y-104355000D01*
X156860365Y-102655000D01*
X156830591Y-102496763D01*
X156737073Y-102351433D01*
X156594381Y-102253936D01*
X156425000Y-102219635D01*
X154725000Y-102219635D01*
X154566763Y-102249409D01*
X154421433Y-102342927D01*
X154323936Y-102485619D01*
X154289635Y-102655000D01*
X154289635Y-102750236D01*
X154230183Y-102623642D01*
X153801924Y-102233355D01*
X153391890Y-102063524D01*
X153162000Y-102184845D01*
X153162000Y-103378000D01*
X153182000Y-103378000D01*
X153182000Y-103632000D01*
X153162000Y-103632000D01*
X153162000Y-103652000D01*
X152908000Y-103652000D01*
X152908000Y-103632000D01*
X151714181Y-103632000D01*
X151593514Y-103861892D01*
X146420564Y-103861892D01*
X146336588Y-103777770D01*
X145904147Y-103598205D01*
X145435907Y-103597796D01*
X145303926Y-103652330D01*
X145179242Y-103569018D01*
X144968000Y-103527000D01*
X144637865Y-103527000D01*
X144637865Y-103479000D01*
X144608091Y-103320763D01*
X144514573Y-103175433D01*
X144474582Y-103148108D01*
X151593514Y-103148108D01*
X151714181Y-103378000D01*
X152908000Y-103378000D01*
X152908000Y-102184845D01*
X152678110Y-102063524D01*
X152268076Y-102233355D01*
X151839817Y-102623642D01*
X151593514Y-103148108D01*
X144474582Y-103148108D01*
X144371881Y-103077936D01*
X144202500Y-103043635D01*
X143452500Y-103043635D01*
X143294263Y-103073409D01*
X143148933Y-103166927D01*
X143064560Y-103290411D01*
X142990573Y-103175433D01*
X142847881Y-103077936D01*
X142678500Y-103043635D01*
X141928500Y-103043635D01*
X141770263Y-103073409D01*
X141624933Y-103166927D01*
X141527436Y-103309619D01*
X141493135Y-103479000D01*
X141493135Y-103527000D01*
X141412000Y-103527000D01*
X141200758Y-103569018D01*
X141106130Y-103632247D01*
X141024147Y-103598205D01*
X140555907Y-103597796D01*
X140123154Y-103776606D01*
X139791770Y-104107412D01*
X139612205Y-104539853D01*
X139611796Y-105008093D01*
X135742000Y-105008093D01*
X135742000Y-104499982D01*
X135663824Y-104106966D01*
X135441199Y-103773783D01*
X135108016Y-103551158D01*
X134715000Y-103472982D01*
X134321984Y-103551158D01*
X133988801Y-103773783D01*
X133766176Y-104106966D01*
X133750365Y-104186453D01*
X133750365Y-103925000D01*
X133720591Y-103766763D01*
X133627073Y-103621433D01*
X133484381Y-103523936D01*
X133315000Y-103489635D01*
X132115000Y-103489635D01*
X131956763Y-103519409D01*
X131811433Y-103612927D01*
X131713936Y-103755619D01*
X131679635Y-103925000D01*
X129872336Y-103925000D01*
X129557758Y-103579817D01*
X129196817Y-103410309D01*
X129604393Y-103137975D01*
X129881212Y-102723687D01*
X129978418Y-102235000D01*
X129881212Y-101746313D01*
X129604393Y-101332025D01*
X129190105Y-101055206D01*
X128701418Y-100958000D01*
X128651382Y-100958000D01*
X128162695Y-101055206D01*
X127748407Y-101332025D01*
X127471588Y-101746313D01*
X127374382Y-102235000D01*
X127471588Y-102723687D01*
X127748407Y-103137975D01*
X128155983Y-103410309D01*
X127795042Y-103579817D01*
X127404755Y-104008076D01*
X127234924Y-104418110D01*
X121329000Y-104418110D01*
X121329000Y-103455216D01*
X121508769Y-103529863D01*
X121821857Y-103530136D01*
X122111217Y-103410575D01*
X122332797Y-103189382D01*
X122452863Y-102900231D01*
X122453136Y-102587143D01*
X122333575Y-102297783D01*
X122218000Y-102182006D01*
X122218000Y-96675857D01*
X133705864Y-96675857D01*
X133825425Y-96965217D01*
X133941000Y-97080994D01*
X133941000Y-99060000D01*
X133983018Y-99271242D01*
X134102677Y-99450323D01*
X136769677Y-102117323D01*
X136948759Y-102236982D01*
X137160000Y-102279000D01*
X139139021Y-102279000D01*
X139253618Y-102393797D01*
X139542769Y-102513863D01*
X139855857Y-102514136D01*
X140145217Y-102394575D01*
X140366797Y-102173382D01*
X140486863Y-101884231D01*
X140487136Y-101571143D01*
X140367575Y-101281783D01*
X140146382Y-101060203D01*
X139857231Y-100940137D01*
X139544143Y-100939864D01*
X139254783Y-101059425D01*
X139139006Y-101175000D01*
X137388646Y-101175000D01*
X135045000Y-98831354D01*
X135045000Y-97080979D01*
X135159797Y-96966382D01*
X135279863Y-96677231D01*
X135280136Y-96364143D01*
X135160575Y-96074783D01*
X134939382Y-95853203D01*
X134650231Y-95733137D01*
X134337143Y-95732864D01*
X134047783Y-95852425D01*
X133826203Y-96073618D01*
X133706137Y-96362769D01*
X133705864Y-96675857D01*
X122218000Y-96675857D01*
X122218000Y-95224646D01*
X123545646Y-93897000D01*
X125984000Y-93897000D01*
X126195242Y-93854982D01*
X126215133Y-93841691D01*
X129075000Y-93841691D01*
X129075000Y-94182250D01*
X129233750Y-94341000D01*
X129983000Y-94341000D01*
X129983000Y-93491750D01*
X129824250Y-93333000D01*
X129583690Y-93333000D01*
X129350301Y-93429673D01*
X129171673Y-93608302D01*
X129075000Y-93841691D01*
X126215133Y-93841691D01*
X126374323Y-93735323D01*
X129559436Y-90550210D01*
X129558918Y-91061063D01*
X129551763Y-91062409D01*
X129406433Y-91155927D01*
X129308936Y-91298619D01*
X129274635Y-91468000D01*
X129274635Y-92468000D01*
X129304409Y-92626237D01*
X129397927Y-92771567D01*
X129540619Y-92869064D01*
X129710000Y-92903365D01*
X130510000Y-92903365D01*
X130668237Y-92873591D01*
X130811924Y-92781130D01*
X130940619Y-92869064D01*
X131110000Y-92903365D01*
X131910000Y-92903365D01*
X132068237Y-92873591D01*
X132213567Y-92780073D01*
X132311064Y-92637381D01*
X132334835Y-92520000D01*
X132379354Y-92520000D01*
X132451677Y-92592323D01*
X132630758Y-92711982D01*
X132842000Y-92754000D01*
X133033354Y-92754000D01*
X132163169Y-93624185D01*
X132079381Y-93566936D01*
X131910000Y-93532635D01*
X131110000Y-93532635D01*
X130994410Y-93554385D01*
X130869699Y-93429673D01*
X130636310Y-93333000D01*
X130395750Y-93333000D01*
X130237000Y-93491750D01*
X130237000Y-94341000D01*
X130257000Y-94341000D01*
X130257000Y-94595000D01*
X130237000Y-94595000D01*
X130237000Y-94615000D01*
X129983000Y-94615000D01*
X129983000Y-94595000D01*
X129233750Y-94595000D01*
X129075000Y-94753750D01*
X129075000Y-95094309D01*
X129171673Y-95327698D01*
X129350301Y-95506327D01*
X129583690Y-95603000D01*
X129824250Y-95603000D01*
X129982998Y-95444252D01*
X129982998Y-95603000D01*
X130023024Y-95603000D01*
X130022864Y-95786857D01*
X130142425Y-96076217D01*
X130363618Y-96297797D01*
X130652769Y-96417863D01*
X130965857Y-96418136D01*
X131255217Y-96298575D01*
X131476797Y-96077382D01*
X131538334Y-95929183D01*
X131552671Y-95921011D01*
X131564831Y-95905342D01*
X131581323Y-95894323D01*
X131900323Y-95575323D01*
X132019982Y-95396242D01*
X132022786Y-95382143D01*
X132068237Y-95373591D01*
X132213567Y-95280073D01*
X132311064Y-95137381D01*
X132345365Y-94968000D01*
X132345365Y-94955182D01*
X132490323Y-94858323D01*
X133832646Y-93516000D01*
X139051074Y-93516000D01*
X138906203Y-93660618D01*
X138863620Y-93763169D01*
X138714231Y-93701137D01*
X138401143Y-93700864D01*
X138111783Y-93820425D01*
X137890203Y-94041618D01*
X137770137Y-94330769D01*
X137769864Y-94643857D01*
X137889425Y-94933217D01*
X138110618Y-95154797D01*
X138399769Y-95274863D01*
X138563360Y-95275006D01*
X142992677Y-99704323D01*
X143171758Y-99823982D01*
X143383000Y-99866000D01*
X144650049Y-99866000D01*
X144628137Y-99918769D01*
X144627864Y-100231857D01*
X144747425Y-100521217D01*
X144968618Y-100742797D01*
X145257769Y-100862863D01*
X145570857Y-100863136D01*
X145860217Y-100743575D01*
X145975994Y-100628000D01*
X158623000Y-100628000D01*
X158834242Y-100585982D01*
X159013323Y-100466323D01*
X160217646Y-99262000D01*
X162095467Y-99262000D01*
X162154194Y-99404131D01*
X162499053Y-99749593D01*
X162949864Y-99936786D01*
X163437995Y-99937212D01*
X163889131Y-99750806D01*
X164234593Y-99405947D01*
X164421786Y-98955136D01*
X164422212Y-98467005D01*
X164235806Y-98015869D01*
X164097179Y-97877000D01*
X164935467Y-97877000D01*
X164994194Y-98019131D01*
X165339053Y-98364593D01*
X165789864Y-98551786D01*
X166277995Y-98552212D01*
X166729131Y-98365806D01*
X167074593Y-98020947D01*
X167261786Y-97570136D01*
X167262212Y-97082005D01*
X167075806Y-96630869D01*
X166730947Y-96285407D01*
X166280136Y-96098214D01*
X165792005Y-96097788D01*
X165340869Y-96284194D01*
X164995407Y-96629053D01*
X164935635Y-96773000D01*
X164097300Y-96773000D01*
X164234593Y-96635947D01*
X164421786Y-96185136D01*
X164422212Y-95697005D01*
X164235806Y-95245869D01*
X163890947Y-94900407D01*
X163644312Y-94797995D01*
X164807788Y-94797995D01*
X164994194Y-95249131D01*
X165339053Y-95594593D01*
X165789864Y-95781786D01*
X166277995Y-95782212D01*
X166729131Y-95595806D01*
X167074593Y-95250947D01*
X167261786Y-94800136D01*
X167262212Y-94312005D01*
X167075806Y-93860869D01*
X166730947Y-93515407D01*
X166280136Y-93328214D01*
X165792005Y-93327788D01*
X165340869Y-93514194D01*
X164995407Y-93859053D01*
X164808214Y-94309864D01*
X164807788Y-94797995D01*
X163644312Y-94797995D01*
X163440136Y-94713214D01*
X162952005Y-94712788D01*
X162500869Y-94899194D01*
X162155407Y-95244053D01*
X162095635Y-95388000D01*
X159965000Y-95388000D01*
X159753758Y-95430018D01*
X159574677Y-95549677D01*
X157124354Y-98000000D01*
X156399646Y-98000000D01*
X157362323Y-97037323D01*
X157481982Y-96858242D01*
X157524000Y-96647000D01*
X157524000Y-94849365D01*
X158272000Y-94849365D01*
X158430237Y-94819591D01*
X158470955Y-94793389D01*
X158470864Y-94897857D01*
X158590425Y-95187217D01*
X158811618Y-95408797D01*
X159100769Y-95528863D01*
X159413857Y-95529136D01*
X159703217Y-95409575D01*
X159924797Y-95188382D01*
X160044863Y-94899231D01*
X160045136Y-94586143D01*
X159925575Y-94296783D01*
X159810000Y-94181006D01*
X159810000Y-94109951D01*
X159862769Y-94131863D01*
X160175857Y-94132136D01*
X160465217Y-94012575D01*
X160686797Y-93791382D01*
X160806863Y-93502231D01*
X160806940Y-93412995D01*
X161967788Y-93412995D01*
X162154194Y-93864131D01*
X162499053Y-94209593D01*
X162949864Y-94396786D01*
X163437995Y-94397212D01*
X163889131Y-94210806D01*
X164234593Y-93865947D01*
X164421786Y-93415136D01*
X164422212Y-92927005D01*
X164235806Y-92475869D01*
X163890947Y-92130407D01*
X163644312Y-92027995D01*
X164807788Y-92027995D01*
X164994194Y-92479131D01*
X165339053Y-92824593D01*
X165789864Y-93011786D01*
X166277995Y-93012212D01*
X166729131Y-92825806D01*
X167074593Y-92480947D01*
X167261786Y-92030136D01*
X167262212Y-91542005D01*
X167075806Y-91090869D01*
X166730947Y-90745407D01*
X166280136Y-90558214D01*
X165792005Y-90557788D01*
X165340869Y-90744194D01*
X164995407Y-91089053D01*
X164808214Y-91539864D01*
X164807788Y-92027995D01*
X163644312Y-92027995D01*
X163440136Y-91943214D01*
X162952005Y-91942788D01*
X162500869Y-92129194D01*
X162155407Y-92474053D01*
X161968214Y-92924864D01*
X161967788Y-93412995D01*
X160806940Y-93412995D01*
X160807136Y-93189143D01*
X160687575Y-92899783D01*
X160466382Y-92678203D01*
X160177231Y-92558137D01*
X160013640Y-92557994D01*
X159699032Y-92243386D01*
X159832323Y-92154323D01*
X160013651Y-91972995D01*
X160175857Y-91973136D01*
X160465217Y-91853575D01*
X160686797Y-91632382D01*
X160806863Y-91343231D01*
X160807136Y-91030143D01*
X160774848Y-90952000D01*
X162095467Y-90952000D01*
X162154194Y-91094131D01*
X162499053Y-91439593D01*
X162949864Y-91626786D01*
X163437995Y-91627212D01*
X163889131Y-91440806D01*
X164234593Y-91095947D01*
X164421786Y-90645136D01*
X164422212Y-90157005D01*
X164366737Y-90022745D01*
X165206861Y-90022745D01*
X165280995Y-90268864D01*
X165818223Y-90461965D01*
X166388454Y-90434778D01*
X166789005Y-90268864D01*
X166863139Y-90022745D01*
X166035000Y-89194605D01*
X165206861Y-90022745D01*
X164366737Y-90022745D01*
X164235806Y-89705869D01*
X163890947Y-89360407D01*
X163440136Y-89173214D01*
X162952005Y-89172788D01*
X162500869Y-89359194D01*
X162155407Y-89704053D01*
X162095635Y-89848000D01*
X157885000Y-89848000D01*
X157673758Y-89890018D01*
X157494677Y-90009677D01*
X156581677Y-90922677D01*
X156476817Y-91079610D01*
X156472000Y-91078635D01*
X156165770Y-91078635D01*
X155991242Y-90962018D01*
X155780000Y-90920000D01*
X155600877Y-90920000D01*
X155440000Y-90888000D01*
X155279123Y-90920000D01*
X141396592Y-90920000D01*
X141446297Y-90870382D01*
X141566363Y-90581231D01*
X141566636Y-90268143D01*
X141447075Y-89978783D01*
X141331500Y-89863006D01*
X141331500Y-86868000D01*
X141328529Y-86853064D01*
X141323942Y-86830000D01*
X161959635Y-86830000D01*
X161959635Y-88430000D01*
X161989409Y-88588237D01*
X162082927Y-88733567D01*
X162225619Y-88831064D01*
X162395000Y-88865365D01*
X163995000Y-88865365D01*
X164153237Y-88835591D01*
X164211308Y-88798223D01*
X164588035Y-88798223D01*
X164615222Y-89368454D01*
X164781136Y-89769005D01*
X165027255Y-89843139D01*
X165855395Y-89015000D01*
X166214605Y-89015000D01*
X167042745Y-89843139D01*
X167288864Y-89769005D01*
X167481965Y-89231777D01*
X167454778Y-88661546D01*
X167288864Y-88260995D01*
X167042745Y-88186861D01*
X166214605Y-89015000D01*
X165855395Y-89015000D01*
X165027255Y-88186861D01*
X164781136Y-88260995D01*
X164588035Y-88798223D01*
X164211308Y-88798223D01*
X164298567Y-88742073D01*
X164396064Y-88599381D01*
X164430365Y-88430000D01*
X164430365Y-88007255D01*
X165206861Y-88007255D01*
X166035000Y-88835395D01*
X166863139Y-88007255D01*
X166789005Y-87761136D01*
X166251777Y-87568035D01*
X165681546Y-87595222D01*
X165280995Y-87761136D01*
X165206861Y-88007255D01*
X164430365Y-88007255D01*
X164430365Y-86830000D01*
X164400591Y-86671763D01*
X164307073Y-86526433D01*
X164164381Y-86428936D01*
X163995000Y-86394635D01*
X162395000Y-86394635D01*
X162236763Y-86424409D01*
X162091433Y-86517927D01*
X161993936Y-86660619D01*
X161959635Y-86830000D01*
X141323942Y-86830000D01*
X141289482Y-86656758D01*
X141169823Y-86477677D01*
X138899653Y-84207507D01*
X138891987Y-84202384D01*
X138886616Y-84194892D01*
X138802726Y-84142742D01*
X138720572Y-84087848D01*
X138711528Y-84086049D01*
X138703699Y-84081182D01*
X138606224Y-84065103D01*
X138509330Y-84045830D01*
X138500288Y-84047629D01*
X138491191Y-84046128D01*
X135872811Y-84132214D01*
X135851073Y-84098433D01*
X135708381Y-84000936D01*
X135539000Y-83966635D01*
X134739000Y-83966635D01*
X134580763Y-83996409D01*
X134435433Y-84089927D01*
X134337936Y-84232619D01*
X134303635Y-84402000D01*
X134303635Y-84902000D01*
X134333409Y-85060237D01*
X134343022Y-85075176D01*
X134337936Y-85082619D01*
X134303635Y-85252000D01*
X134303635Y-85652000D01*
X134333409Y-85810237D01*
X134359591Y-85850925D01*
X134337936Y-85882619D01*
X134303635Y-86052000D01*
X134303635Y-86452000D01*
X134333409Y-86610237D01*
X134343022Y-86625176D01*
X134337936Y-86632619D01*
X134303635Y-86802000D01*
X134303635Y-87302000D01*
X134333409Y-87460237D01*
X134426927Y-87605567D01*
X134569619Y-87703064D01*
X134739000Y-87737365D01*
X135539000Y-87737365D01*
X135697237Y-87707591D01*
X135842567Y-87614073D01*
X135849450Y-87604000D01*
X136402144Y-87604000D01*
X136586618Y-87788797D01*
X136875769Y-87908863D01*
X137188857Y-87909136D01*
X137478217Y-87789575D01*
X137699797Y-87568382D01*
X137819863Y-87279231D01*
X137820136Y-86966143D01*
X137753140Y-86804000D01*
X137966354Y-86804000D01*
X138024005Y-86861651D01*
X138023864Y-87023857D01*
X138143425Y-87313217D01*
X138364618Y-87534797D01*
X138653769Y-87654863D01*
X138966857Y-87655136D01*
X139256217Y-87535575D01*
X139477797Y-87314382D01*
X139597863Y-87025231D01*
X139598136Y-86712143D01*
X139478575Y-86422783D01*
X139257382Y-86201203D01*
X138968231Y-86081137D01*
X138804640Y-86080994D01*
X138710102Y-85986456D01*
X138779297Y-85917382D01*
X138858205Y-85727351D01*
X140227500Y-87096646D01*
X140227500Y-89863021D01*
X140112703Y-89977618D01*
X139992637Y-90266769D01*
X139992364Y-90579857D01*
X140111925Y-90869217D01*
X140162619Y-90920000D01*
X133991646Y-90920000D01*
X132533823Y-89462177D01*
X132354742Y-89342518D01*
X132143500Y-89300500D01*
X131370979Y-89300500D01*
X131256382Y-89185703D01*
X131021482Y-89088164D01*
X132505646Y-87604000D01*
X132625919Y-87604000D01*
X132626927Y-87605567D01*
X132769619Y-87703064D01*
X132939000Y-87737365D01*
X133739000Y-87737365D01*
X133897237Y-87707591D01*
X134042567Y-87614073D01*
X134140064Y-87471381D01*
X134174365Y-87302000D01*
X134174365Y-86802000D01*
X134144591Y-86643763D01*
X134134978Y-86628824D01*
X134140064Y-86621381D01*
X134174365Y-86452000D01*
X134174365Y-86052000D01*
X134144591Y-85893763D01*
X134118409Y-85853075D01*
X134140064Y-85821381D01*
X134174365Y-85652000D01*
X134174365Y-85252000D01*
X134144591Y-85093763D01*
X134134978Y-85078824D01*
X134140064Y-85071381D01*
X134174365Y-84902000D01*
X134174365Y-84402000D01*
X134144591Y-84243763D01*
X134051073Y-84098433D01*
X133908381Y-84000936D01*
X133739000Y-83966635D01*
X132939000Y-83966635D01*
X132780763Y-83996409D01*
X132678832Y-84062000D01*
X129202726Y-84062000D01*
X129127073Y-83944433D01*
X128984381Y-83846936D01*
X128815000Y-83812635D01*
X126915000Y-83812635D01*
X126756763Y-83842409D01*
X126611433Y-83935927D01*
X126513936Y-84078619D01*
X126479635Y-84248000D01*
X126479635Y-85048000D01*
X126509409Y-85206237D01*
X126602927Y-85351567D01*
X126745619Y-85449064D01*
X126915000Y-85483365D01*
X128815000Y-85483365D01*
X128973237Y-85453591D01*
X129118567Y-85360073D01*
X129216064Y-85217381D01*
X129226469Y-85166000D01*
X131350354Y-85166000D01*
X125247354Y-91269000D01*
X122428000Y-91269000D01*
X122216759Y-91311018D01*
X122087716Y-91397242D01*
X122037677Y-91430677D01*
X119497677Y-93970677D01*
X119378018Y-94149758D01*
X119349005Y-94295618D01*
X119336000Y-94361000D01*
X119336000Y-104038354D01*
X118585630Y-104788724D01*
X118576460Y-104775000D01*
X118754769Y-104508141D01*
X118827997Y-104140000D01*
X118754769Y-103771859D01*
X118698586Y-103687774D01*
X118776064Y-103574381D01*
X118810365Y-103405000D01*
X118810365Y-102335000D01*
X118780591Y-102176763D01*
X118687073Y-102031433D01*
X118544381Y-101933936D01*
X118375000Y-101899635D01*
X116575000Y-101899635D01*
X116416763Y-101929409D01*
X116271433Y-102022927D01*
X116173936Y-102165619D01*
X116139635Y-102335000D01*
X116139635Y-103405000D01*
X116169409Y-103563237D01*
X116250463Y-103689198D01*
X116195231Y-103771859D01*
X116122003Y-104140000D01*
X114167000Y-104140000D01*
X114167000Y-101410159D01*
X116574446Y-101410159D01*
X116660852Y-101666643D01*
X117234336Y-101876458D01*
X117844460Y-101850839D01*
X118289148Y-101666643D01*
X118375554Y-101410159D01*
X117475000Y-100509605D01*
X116574446Y-101410159D01*
X114167000Y-101410159D01*
X114167000Y-100089336D01*
X115928542Y-100089336D01*
X115954161Y-100699460D01*
X116138357Y-101144148D01*
X116394841Y-101230554D01*
X117295395Y-100330000D01*
X117654605Y-100330000D01*
X118555159Y-101230554D01*
X118811643Y-101144148D01*
X119021458Y-100570664D01*
X118995839Y-99960540D01*
X118811643Y-99515852D01*
X118555159Y-99429446D01*
X117654605Y-100330000D01*
X117295395Y-100330000D01*
X116394841Y-99429446D01*
X116138357Y-99515852D01*
X115928542Y-100089336D01*
X114167000Y-100089336D01*
X114167000Y-96890000D01*
X116139635Y-96890000D01*
X116139635Y-98690000D01*
X116169409Y-98848237D01*
X116262927Y-98993567D01*
X116405619Y-99091064D01*
X116575000Y-99125365D01*
X116616380Y-99125365D01*
X116574446Y-99249841D01*
X117475000Y-100150395D01*
X118375554Y-99249841D01*
X118333620Y-99125365D01*
X118375000Y-99125365D01*
X118533237Y-99095591D01*
X118678567Y-99002073D01*
X118776064Y-98859381D01*
X118810365Y-98690000D01*
X118810365Y-96890000D01*
X118780591Y-96731763D01*
X118687073Y-96586433D01*
X118544381Y-96488936D01*
X118375000Y-96454635D01*
X118027000Y-96454635D01*
X118027000Y-89797603D01*
X120492752Y-89797603D01*
X120709543Y-90322275D01*
X121110614Y-90724047D01*
X121634907Y-90941752D01*
X122202603Y-90942248D01*
X122727275Y-90725457D01*
X123129047Y-90324386D01*
X123346752Y-89800093D01*
X123347248Y-89232397D01*
X123130457Y-88707725D01*
X122729386Y-88305953D01*
X122205093Y-88088248D01*
X121637397Y-88087752D01*
X121112725Y-88304543D01*
X120710953Y-88705614D01*
X120493248Y-89229907D01*
X120492752Y-89797603D01*
X118027000Y-89797603D01*
X118027000Y-89255646D01*
X119471389Y-87811257D01*
X126466864Y-87811257D01*
X126586425Y-88100617D01*
X126807618Y-88322197D01*
X127096769Y-88442263D01*
X127409857Y-88442536D01*
X127699217Y-88322975D01*
X127920797Y-88101782D01*
X128040863Y-87812631D01*
X128041136Y-87499543D01*
X127993132Y-87383365D01*
X128815000Y-87383365D01*
X128973237Y-87353591D01*
X129118567Y-87260073D01*
X129216064Y-87117381D01*
X129250365Y-86948000D01*
X129250365Y-86148000D01*
X129220591Y-85989763D01*
X129127073Y-85844433D01*
X128984381Y-85746936D01*
X128815000Y-85712635D01*
X126915000Y-85712635D01*
X126756763Y-85742409D01*
X126611433Y-85835927D01*
X126513936Y-85978619D01*
X126479635Y-86148000D01*
X126479635Y-86948000D01*
X126509409Y-87106237D01*
X126582632Y-87220027D01*
X126467137Y-87498169D01*
X126466864Y-87811257D01*
X119471389Y-87811257D01*
X121132646Y-86150000D01*
X123508235Y-86150000D01*
X123509409Y-86156237D01*
X123602927Y-86301567D01*
X123745619Y-86399064D01*
X123915000Y-86433365D01*
X125815000Y-86433365D01*
X125973237Y-86403591D01*
X126118567Y-86310073D01*
X126216064Y-86167381D01*
X126250365Y-85998000D01*
X126250365Y-85198000D01*
X126220591Y-85039763D01*
X126127073Y-84894433D01*
X125984381Y-84796936D01*
X125815000Y-84762635D01*
X123915000Y-84762635D01*
X123756763Y-84792409D01*
X123611433Y-84885927D01*
X123513936Y-85028619D01*
X123510416Y-85046000D01*
X120904000Y-85046000D01*
X120692759Y-85088018D01*
X120600697Y-85149532D01*
X120513677Y-85207677D01*
X117084677Y-88636677D01*
X116965018Y-88815758D01*
X116961112Y-88835395D01*
X116923000Y-89027000D01*
X116923000Y-96454635D01*
X116575000Y-96454635D01*
X116416763Y-96484409D01*
X116271433Y-96577927D01*
X116173936Y-96720619D01*
X116139635Y-96890000D01*
X114167000Y-96890000D01*
X114167000Y-80915000D01*
X120484635Y-80915000D01*
X120484635Y-82915000D01*
X120514409Y-83073237D01*
X120607927Y-83218567D01*
X120750619Y-83316064D01*
X120920000Y-83350365D01*
X122920000Y-83350365D01*
X123078237Y-83320591D01*
X123223567Y-83227073D01*
X123321064Y-83084381D01*
X123355365Y-82915000D01*
X123355365Y-81268750D01*
X133281000Y-81268750D01*
X133281000Y-81709309D01*
X133377673Y-81942698D01*
X133556301Y-82121327D01*
X133789690Y-82218000D01*
X134080250Y-82218000D01*
X134239000Y-82059250D01*
X134239000Y-81110000D01*
X133439750Y-81110000D01*
X133281000Y-81268750D01*
X123355365Y-81268750D01*
X123355365Y-80915000D01*
X123325591Y-80756763D01*
X123232073Y-80611433D01*
X123089381Y-80513936D01*
X122920000Y-80479635D01*
X120920000Y-80479635D01*
X120761763Y-80509409D01*
X120616433Y-80602927D01*
X120518936Y-80745619D01*
X120484635Y-80915000D01*
X114167000Y-80915000D01*
X114167000Y-77972000D01*
X133543373Y-77972000D01*
X133514936Y-78013619D01*
X133514936Y-78013619D01*
G37*
X133514936Y-78013619D02*
X133480635Y-78183000D01*
X133480635Y-79383000D01*
X133510409Y-79541237D01*
X133603927Y-79686567D01*
X133730014Y-79772719D01*
X133556301Y-79844673D01*
X133377673Y-80023302D01*
X133281000Y-80256691D01*
X133281000Y-80697250D01*
X133439750Y-80856000D01*
X134239000Y-80856000D01*
X134239000Y-80836000D01*
X134493000Y-80836000D01*
X134493000Y-80856000D01*
X135292250Y-80856000D01*
X135451000Y-80697250D01*
X135451000Y-80366796D01*
X135758076Y-80646645D01*
X135988548Y-80742104D01*
X135622025Y-80987007D01*
X135440671Y-81258421D01*
X135292250Y-81110000D01*
X134493000Y-81110000D01*
X134493000Y-82059250D01*
X134651750Y-82218000D01*
X134942310Y-82218000D01*
X135175699Y-82121327D01*
X135266086Y-82030940D01*
X135345206Y-82428705D01*
X135622025Y-82842993D01*
X136036313Y-83119812D01*
X136525000Y-83217018D01*
X137013687Y-83119812D01*
X137427975Y-82842993D01*
X137704794Y-82428705D01*
X137795000Y-81975209D01*
X137885206Y-82428705D01*
X138162025Y-82842993D01*
X138576313Y-83119812D01*
X139065000Y-83217018D01*
X139553687Y-83119812D01*
X139967975Y-82842993D01*
X140244794Y-82428705D01*
X140335000Y-81975209D01*
X140425206Y-82428705D01*
X140702025Y-82842993D01*
X141116313Y-83119812D01*
X141605000Y-83217018D01*
X142093687Y-83119812D01*
X142507975Y-82842993D01*
X142784794Y-82428705D01*
X142875000Y-81975209D01*
X142965206Y-82428705D01*
X143242025Y-82842993D01*
X143656313Y-83119812D01*
X144145000Y-83217018D01*
X144633687Y-83119812D01*
X145047975Y-82842993D01*
X145324794Y-82428705D01*
X145403914Y-82030940D01*
X145494301Y-82121327D01*
X145727690Y-82218000D01*
X146018250Y-82218000D01*
X146177000Y-82059250D01*
X146177000Y-81110000D01*
X146431000Y-81110000D01*
X146431000Y-82059250D01*
X146589750Y-82218000D01*
X146880310Y-82218000D01*
X147113699Y-82121327D01*
X147292327Y-81942698D01*
X147389000Y-81709309D01*
X147389000Y-81268750D01*
X147230250Y-81110000D01*
X146431000Y-81110000D01*
X146177000Y-81110000D01*
X145377750Y-81110000D01*
X145229329Y-81258421D01*
X145047975Y-80987007D01*
X144633687Y-80710188D01*
X144383210Y-80660365D01*
X144995000Y-80660365D01*
X145153237Y-80630591D01*
X145219000Y-80588273D01*
X145219000Y-80697250D01*
X145377750Y-80856000D01*
X146177000Y-80856000D01*
X146177000Y-80836000D01*
X146431000Y-80836000D01*
X146431000Y-80856000D01*
X147230250Y-80856000D01*
X147389000Y-80697250D01*
X147389000Y-80256691D01*
X147292327Y-80023302D01*
X147113699Y-79844673D01*
X146938110Y-79771942D01*
X147057567Y-79695073D01*
X147155064Y-79552381D01*
X147189365Y-79383000D01*
X147189365Y-78183000D01*
X147159591Y-78024763D01*
X147125639Y-77972000D01*
X150045215Y-77972000D01*
X149728076Y-78103355D01*
X149299817Y-78493642D01*
X149053514Y-79018108D01*
X149174181Y-79248000D01*
X150368000Y-79248000D01*
X150368000Y-79228000D01*
X150622000Y-79228000D01*
X150622000Y-79248000D01*
X150642000Y-79248000D01*
X150642000Y-79502000D01*
X150622000Y-79502000D01*
X150622000Y-79522000D01*
X150368000Y-79522000D01*
X150368000Y-79502000D01*
X149174181Y-79502000D01*
X149053514Y-79731892D01*
X149299817Y-80256358D01*
X149709411Y-80629635D01*
X149645000Y-80629635D01*
X149486763Y-80659409D01*
X149341433Y-80752927D01*
X149243936Y-80895619D01*
X149209635Y-81065000D01*
X149209635Y-82765000D01*
X149239409Y-82923237D01*
X149332927Y-83068567D01*
X149438937Y-83141000D01*
X146102979Y-83141000D01*
X145988382Y-83026203D01*
X145699231Y-82906137D01*
X145386143Y-82905864D01*
X145096783Y-83025425D01*
X144875203Y-83246618D01*
X144755137Y-83535769D01*
X144754864Y-83848857D01*
X144874425Y-84138217D01*
X145095618Y-84359797D01*
X145384769Y-84479863D01*
X145697857Y-84480136D01*
X145987217Y-84360575D01*
X146102994Y-84245000D01*
X153924000Y-84245000D01*
X154135242Y-84202982D01*
X154314323Y-84083323D01*
X155246059Y-83151587D01*
X155575000Y-83217018D01*
X156063687Y-83119812D01*
X156477975Y-82842993D01*
X156754794Y-82428705D01*
X156806254Y-82170000D01*
X156848635Y-82170000D01*
X156848635Y-82218000D01*
X156878409Y-82376237D01*
X156971927Y-82521567D01*
X157114619Y-82619064D01*
X157284000Y-82653365D01*
X158184000Y-82653365D01*
X158342237Y-82623591D01*
X158487567Y-82530073D01*
X158585064Y-82387381D01*
X158619365Y-82218000D01*
X158619365Y-81150642D01*
X161067579Y-81150642D01*
X161436290Y-82042989D01*
X162118420Y-82726311D01*
X163010122Y-83096578D01*
X163975642Y-83097421D01*
X164867989Y-82728710D01*
X165551311Y-82046580D01*
X165921578Y-81154878D01*
X165922421Y-80189358D01*
X165553710Y-79297011D01*
X164871580Y-78613689D01*
X163979878Y-78243422D01*
X163014358Y-78242579D01*
X162122011Y-78611290D01*
X161438689Y-79293420D01*
X161068422Y-80185122D01*
X161067579Y-81150642D01*
X158619365Y-81150642D01*
X158619365Y-81018000D01*
X158589591Y-80859763D01*
X158496073Y-80714433D01*
X158369986Y-80628281D01*
X158543699Y-80556327D01*
X158722327Y-80377698D01*
X158819000Y-80144309D01*
X158819000Y-79703750D01*
X158660250Y-79545000D01*
X157861000Y-79545000D01*
X157861000Y-79565000D01*
X157607000Y-79565000D01*
X157607000Y-79545000D01*
X157587000Y-79545000D01*
X157587000Y-79291000D01*
X157607000Y-79291000D01*
X157607000Y-78341750D01*
X157861000Y-78341750D01*
X157861000Y-79291000D01*
X158660250Y-79291000D01*
X158819000Y-79132250D01*
X158819000Y-78691691D01*
X158722327Y-78458302D01*
X158543699Y-78279673D01*
X158310310Y-78183000D01*
X158019750Y-78183000D01*
X157861000Y-78341750D01*
X157607000Y-78341750D01*
X157448250Y-78183000D01*
X157157690Y-78183000D01*
X156924301Y-78279673D01*
X156745673Y-78458302D01*
X156649000Y-78691691D01*
X156649000Y-78702963D01*
X156477975Y-78447007D01*
X156063687Y-78170188D01*
X155575000Y-78072982D01*
X155086313Y-78170188D01*
X154672025Y-78447007D01*
X154395206Y-78861295D01*
X154305000Y-79314791D01*
X154214794Y-78861295D01*
X153937975Y-78447007D01*
X153523687Y-78170188D01*
X153035000Y-78072982D01*
X152546313Y-78170188D01*
X152132025Y-78447007D01*
X151859691Y-78854583D01*
X151690183Y-78493642D01*
X151261924Y-78103355D01*
X150944785Y-77972000D01*
X170948000Y-77972000D01*
X170948000Y-108083000D01*
X164010543Y-108083000D01*
X164867989Y-107728710D01*
X165551311Y-107046580D01*
X165921578Y-106154878D01*
X165922421Y-105189358D01*
X165553710Y-104297011D01*
X164871580Y-103613689D01*
X163979878Y-103243422D01*
X163014358Y-103242579D01*
X162122011Y-103611290D01*
X161438689Y-104293420D01*
X161068422Y-105185122D01*
X161067579Y-106150642D01*
X161436290Y-107042989D01*
X162118420Y-107726311D01*
X162977423Y-108083000D01*
X129961765Y-108083000D01*
X129961765Y-106465000D01*
X129931991Y-106306763D01*
X129838473Y-106161433D01*
X129695781Y-106063936D01*
X129526400Y-106029635D01*
X129431164Y-106029635D01*
X129557758Y-105970183D01*
X129948045Y-105541924D01*
X130117876Y-105131890D01*
X129996555Y-104902000D01*
X128803400Y-104902000D01*
X128803400Y-104922000D01*
X128549400Y-104922000D01*
X128549400Y-104902000D01*
X127356245Y-104902000D01*
X127234924Y-105131890D01*
X127404755Y-105541924D01*
X127795042Y-105970183D01*
X127921636Y-106029635D01*
X127826400Y-106029635D01*
X127668163Y-106059409D01*
X127522833Y-106152927D01*
X127425336Y-106295619D01*
X127391035Y-106465000D01*
X127391035Y-108083000D01*
X114167000Y-108083000D01*
X114167000Y-104140000D01*
X116122003Y-104140000D01*
X116195231Y-104508141D01*
X116373540Y-104775000D01*
X116195231Y-105041859D01*
X116122003Y-105410000D01*
X116195231Y-105778141D01*
X116373540Y-106045000D01*
X116195231Y-106311859D01*
X116122003Y-106680000D01*
X116195231Y-107048141D01*
X116403766Y-107360237D01*
X116715862Y-107568772D01*
X117084003Y-107642000D01*
X117865997Y-107642000D01*
X118234138Y-107568772D01*
X118546234Y-107360237D01*
X118631919Y-107232000D01*
X119253000Y-107232000D01*
X119464242Y-107189982D01*
X119643323Y-107070323D01*
X121167323Y-105546323D01*
X121230473Y-105451812D01*
X121286982Y-105367241D01*
X121329000Y-105156000D01*
X121329000Y-104418110D01*
X127234924Y-104418110D01*
X127356245Y-104648000D01*
X128549400Y-104648000D01*
X128549400Y-104628000D01*
X128803400Y-104628000D01*
X128803400Y-104648000D01*
X129996555Y-104648000D01*
X130117876Y-104418110D01*
X129948045Y-104008076D01*
X129872336Y-103925000D01*
X131679635Y-103925000D01*
X131679635Y-105625000D01*
X131709409Y-105783237D01*
X131802927Y-105928567D01*
X131945619Y-106026064D01*
X132115000Y-106060365D01*
X133315000Y-106060365D01*
X133473237Y-106030591D01*
X133618567Y-105937073D01*
X133716064Y-105794381D01*
X133750365Y-105625000D01*
X133750365Y-105363547D01*
X133766176Y-105443034D01*
X133988801Y-105776217D01*
X134321984Y-105998842D01*
X134715000Y-106077018D01*
X135108016Y-105998842D01*
X135441199Y-105776217D01*
X135663824Y-105443034D01*
X135742000Y-105050018D01*
X135742000Y-105008093D01*
X139611796Y-105008093D01*
X139790606Y-105440846D01*
X140121412Y-105772230D01*
X140553853Y-105951795D01*
X141022093Y-105952204D01*
X141454846Y-105773394D01*
X141493135Y-105735172D01*
X141493135Y-106579000D01*
X141522909Y-106737237D01*
X141616427Y-106882567D01*
X141759119Y-106980064D01*
X141928500Y-107014365D01*
X142278596Y-107014365D01*
X142278364Y-107280357D01*
X142397925Y-107569717D01*
X142619118Y-107791297D01*
X142908269Y-107911363D01*
X143221357Y-107911636D01*
X143510717Y-107792075D01*
X143732297Y-107570882D01*
X143852363Y-107281731D01*
X143852573Y-107041313D01*
X143874980Y-107014365D01*
X144202500Y-107014365D01*
X144360737Y-106984591D01*
X144506067Y-106891073D01*
X144603564Y-106748381D01*
X144637865Y-106579000D01*
X144637865Y-105379000D01*
X144631856Y-105347063D01*
X144670606Y-105440846D01*
X145001412Y-105772230D01*
X145433853Y-105951795D01*
X145902093Y-105952204D01*
X146334846Y-105773394D01*
X146666230Y-105442588D01*
X146845795Y-105010147D01*
X146846204Y-104541907D01*
X146667394Y-104109154D01*
X146420564Y-103861892D01*
X151593514Y-103861892D01*
X151839817Y-104386358D01*
X152268076Y-104776645D01*
X152498548Y-104872104D01*
X152132025Y-105117007D01*
X151855206Y-105531295D01*
X151758000Y-106019982D01*
X151758000Y-106070018D01*
X151855206Y-106558705D01*
X152132025Y-106972993D01*
X152546313Y-107249812D01*
X153035000Y-107347018D01*
X153523687Y-107249812D01*
X153937975Y-106972993D01*
X154214794Y-106558705D01*
X154289635Y-106182454D01*
X154289635Y-106895000D01*
X154319409Y-107053237D01*
X154412927Y-107198567D01*
X154555619Y-107296064D01*
X154725000Y-107330365D01*
X156425000Y-107330365D01*
X156583237Y-107300591D01*
X156728567Y-107207073D01*
X156826064Y-107064381D01*
X156860365Y-106895000D01*
X156860365Y-105195000D01*
X156830591Y-105036763D01*
X156737073Y-104891433D01*
X156594381Y-104793936D01*
X156503660Y-104775564D01*
X156583237Y-104760591D01*
X156728567Y-104667073D01*
X156826064Y-104524381D01*
X156860365Y-104355000D01*
X156860365Y-102655000D01*
X156830591Y-102496763D01*
X156737073Y-102351433D01*
X156594381Y-102253936D01*
X156425000Y-102219635D01*
X154725000Y-102219635D01*
X154566763Y-102249409D01*
X154421433Y-102342927D01*
X154323936Y-102485619D01*
X154289635Y-102655000D01*
X154289635Y-102750236D01*
X154230183Y-102623642D01*
X153801924Y-102233355D01*
X153391890Y-102063524D01*
X153162000Y-102184845D01*
X153162000Y-103378000D01*
X153182000Y-103378000D01*
X153182000Y-103632000D01*
X153162000Y-103632000D01*
X153162000Y-103652000D01*
X152908000Y-103652000D01*
X152908000Y-103632000D01*
X151714181Y-103632000D01*
X151593514Y-103861892D01*
X146420564Y-103861892D01*
X146336588Y-103777770D01*
X145904147Y-103598205D01*
X145435907Y-103597796D01*
X145303926Y-103652330D01*
X145179242Y-103569018D01*
X144968000Y-103527000D01*
X144637865Y-103527000D01*
X144637865Y-103479000D01*
X144608091Y-103320763D01*
X144514573Y-103175433D01*
X144474582Y-103148108D01*
X151593514Y-103148108D01*
X151714181Y-103378000D01*
X152908000Y-103378000D01*
X152908000Y-102184845D01*
X152678110Y-102063524D01*
X152268076Y-102233355D01*
X151839817Y-102623642D01*
X151593514Y-103148108D01*
X144474582Y-103148108D01*
X144371881Y-103077936D01*
X144202500Y-103043635D01*
X143452500Y-103043635D01*
X143294263Y-103073409D01*
X143148933Y-103166927D01*
X143064560Y-103290411D01*
X142990573Y-103175433D01*
X142847881Y-103077936D01*
X142678500Y-103043635D01*
X141928500Y-103043635D01*
X141770263Y-103073409D01*
X141624933Y-103166927D01*
X141527436Y-103309619D01*
X141493135Y-103479000D01*
X141493135Y-103527000D01*
X141412000Y-103527000D01*
X141200758Y-103569018D01*
X141106130Y-103632247D01*
X141024147Y-103598205D01*
X140555907Y-103597796D01*
X140123154Y-103776606D01*
X139791770Y-104107412D01*
X139612205Y-104539853D01*
X139611796Y-105008093D01*
X135742000Y-105008093D01*
X135742000Y-104499982D01*
X135663824Y-104106966D01*
X135441199Y-103773783D01*
X135108016Y-103551158D01*
X134715000Y-103472982D01*
X134321984Y-103551158D01*
X133988801Y-103773783D01*
X133766176Y-104106966D01*
X133750365Y-104186453D01*
X133750365Y-103925000D01*
X133720591Y-103766763D01*
X133627073Y-103621433D01*
X133484381Y-103523936D01*
X133315000Y-103489635D01*
X132115000Y-103489635D01*
X131956763Y-103519409D01*
X131811433Y-103612927D01*
X131713936Y-103755619D01*
X131679635Y-103925000D01*
X129872336Y-103925000D01*
X129557758Y-103579817D01*
X129196817Y-103410309D01*
X129604393Y-103137975D01*
X129881212Y-102723687D01*
X129978418Y-102235000D01*
X129881212Y-101746313D01*
X129604393Y-101332025D01*
X129190105Y-101055206D01*
X128701418Y-100958000D01*
X128651382Y-100958000D01*
X128162695Y-101055206D01*
X127748407Y-101332025D01*
X127471588Y-101746313D01*
X127374382Y-102235000D01*
X127471588Y-102723687D01*
X127748407Y-103137975D01*
X128155983Y-103410309D01*
X127795042Y-103579817D01*
X127404755Y-104008076D01*
X127234924Y-104418110D01*
X121329000Y-104418110D01*
X121329000Y-103455216D01*
X121508769Y-103529863D01*
X121821857Y-103530136D01*
X122111217Y-103410575D01*
X122332797Y-103189382D01*
X122452863Y-102900231D01*
X122453136Y-102587143D01*
X122333575Y-102297783D01*
X122218000Y-102182006D01*
X122218000Y-96675857D01*
X133705864Y-96675857D01*
X133825425Y-96965217D01*
X133941000Y-97080994D01*
X133941000Y-99060000D01*
X133983018Y-99271242D01*
X134102677Y-99450323D01*
X136769677Y-102117323D01*
X136948759Y-102236982D01*
X137160000Y-102279000D01*
X139139021Y-102279000D01*
X139253618Y-102393797D01*
X139542769Y-102513863D01*
X139855857Y-102514136D01*
X140145217Y-102394575D01*
X140366797Y-102173382D01*
X140486863Y-101884231D01*
X140487136Y-101571143D01*
X140367575Y-101281783D01*
X140146382Y-101060203D01*
X139857231Y-100940137D01*
X139544143Y-100939864D01*
X139254783Y-101059425D01*
X139139006Y-101175000D01*
X137388646Y-101175000D01*
X135045000Y-98831354D01*
X135045000Y-97080979D01*
X135159797Y-96966382D01*
X135279863Y-96677231D01*
X135280136Y-96364143D01*
X135160575Y-96074783D01*
X134939382Y-95853203D01*
X134650231Y-95733137D01*
X134337143Y-95732864D01*
X134047783Y-95852425D01*
X133826203Y-96073618D01*
X133706137Y-96362769D01*
X133705864Y-96675857D01*
X122218000Y-96675857D01*
X122218000Y-95224646D01*
X123545646Y-93897000D01*
X125984000Y-93897000D01*
X126195242Y-93854982D01*
X126215133Y-93841691D01*
X129075000Y-93841691D01*
X129075000Y-94182250D01*
X129233750Y-94341000D01*
X129983000Y-94341000D01*
X129983000Y-93491750D01*
X129824250Y-93333000D01*
X129583690Y-93333000D01*
X129350301Y-93429673D01*
X129171673Y-93608302D01*
X129075000Y-93841691D01*
X126215133Y-93841691D01*
X126374323Y-93735323D01*
X129559436Y-90550210D01*
X129558918Y-91061063D01*
X129551763Y-91062409D01*
X129406433Y-91155927D01*
X129308936Y-91298619D01*
X129274635Y-91468000D01*
X129274635Y-92468000D01*
X129304409Y-92626237D01*
X129397927Y-92771567D01*
X129540619Y-92869064D01*
X129710000Y-92903365D01*
X130510000Y-92903365D01*
X130668237Y-92873591D01*
X130811924Y-92781130D01*
X130940619Y-92869064D01*
X131110000Y-92903365D01*
X131910000Y-92903365D01*
X132068237Y-92873591D01*
X132213567Y-92780073D01*
X132311064Y-92637381D01*
X132334835Y-92520000D01*
X132379354Y-92520000D01*
X132451677Y-92592323D01*
X132630758Y-92711982D01*
X132842000Y-92754000D01*
X133033354Y-92754000D01*
X132163169Y-93624185D01*
X132079381Y-93566936D01*
X131910000Y-93532635D01*
X131110000Y-93532635D01*
X130994410Y-93554385D01*
X130869699Y-93429673D01*
X130636310Y-93333000D01*
X130395750Y-93333000D01*
X130237000Y-93491750D01*
X130237000Y-94341000D01*
X130257000Y-94341000D01*
X130257000Y-94595000D01*
X130237000Y-94595000D01*
X130237000Y-94615000D01*
X129983000Y-94615000D01*
X129983000Y-94595000D01*
X129233750Y-94595000D01*
X129075000Y-94753750D01*
X129075000Y-95094309D01*
X129171673Y-95327698D01*
X129350301Y-95506327D01*
X129583690Y-95603000D01*
X129824250Y-95603000D01*
X129982998Y-95444252D01*
X129982998Y-95603000D01*
X130023024Y-95603000D01*
X130022864Y-95786857D01*
X130142425Y-96076217D01*
X130363618Y-96297797D01*
X130652769Y-96417863D01*
X130965857Y-96418136D01*
X131255217Y-96298575D01*
X131476797Y-96077382D01*
X131538334Y-95929183D01*
X131552671Y-95921011D01*
X131564831Y-95905342D01*
X131581323Y-95894323D01*
X131900323Y-95575323D01*
X132019982Y-95396242D01*
X132022786Y-95382143D01*
X132068237Y-95373591D01*
X132213567Y-95280073D01*
X132311064Y-95137381D01*
X132345365Y-94968000D01*
X132345365Y-94955182D01*
X132490323Y-94858323D01*
X133832646Y-93516000D01*
X139051074Y-93516000D01*
X138906203Y-93660618D01*
X138863620Y-93763169D01*
X138714231Y-93701137D01*
X138401143Y-93700864D01*
X138111783Y-93820425D01*
X137890203Y-94041618D01*
X137770137Y-94330769D01*
X137769864Y-94643857D01*
X137889425Y-94933217D01*
X138110618Y-95154797D01*
X138399769Y-95274863D01*
X138563360Y-95275006D01*
X142992677Y-99704323D01*
X143171758Y-99823982D01*
X143383000Y-99866000D01*
X144650049Y-99866000D01*
X144628137Y-99918769D01*
X144627864Y-100231857D01*
X144747425Y-100521217D01*
X144968618Y-100742797D01*
X145257769Y-100862863D01*
X145570857Y-100863136D01*
X145860217Y-100743575D01*
X145975994Y-100628000D01*
X158623000Y-100628000D01*
X158834242Y-100585982D01*
X159013323Y-100466323D01*
X160217646Y-99262000D01*
X162095467Y-99262000D01*
X162154194Y-99404131D01*
X162499053Y-99749593D01*
X162949864Y-99936786D01*
X163437995Y-99937212D01*
X163889131Y-99750806D01*
X164234593Y-99405947D01*
X164421786Y-98955136D01*
X164422212Y-98467005D01*
X164235806Y-98015869D01*
X164097179Y-97877000D01*
X164935467Y-97877000D01*
X164994194Y-98019131D01*
X165339053Y-98364593D01*
X165789864Y-98551786D01*
X166277995Y-98552212D01*
X166729131Y-98365806D01*
X167074593Y-98020947D01*
X167261786Y-97570136D01*
X167262212Y-97082005D01*
X167075806Y-96630869D01*
X166730947Y-96285407D01*
X166280136Y-96098214D01*
X165792005Y-96097788D01*
X165340869Y-96284194D01*
X164995407Y-96629053D01*
X164935635Y-96773000D01*
X164097300Y-96773000D01*
X164234593Y-96635947D01*
X164421786Y-96185136D01*
X164422212Y-95697005D01*
X164235806Y-95245869D01*
X163890947Y-94900407D01*
X163644312Y-94797995D01*
X164807788Y-94797995D01*
X164994194Y-95249131D01*
X165339053Y-95594593D01*
X165789864Y-95781786D01*
X166277995Y-95782212D01*
X166729131Y-95595806D01*
X167074593Y-95250947D01*
X167261786Y-94800136D01*
X167262212Y-94312005D01*
X167075806Y-93860869D01*
X166730947Y-93515407D01*
X166280136Y-93328214D01*
X165792005Y-93327788D01*
X165340869Y-93514194D01*
X164995407Y-93859053D01*
X164808214Y-94309864D01*
X164807788Y-94797995D01*
X163644312Y-94797995D01*
X163440136Y-94713214D01*
X162952005Y-94712788D01*
X162500869Y-94899194D01*
X162155407Y-95244053D01*
X162095635Y-95388000D01*
X159965000Y-95388000D01*
X159753758Y-95430018D01*
X159574677Y-95549677D01*
X157124354Y-98000000D01*
X156399646Y-98000000D01*
X157362323Y-97037323D01*
X157481982Y-96858242D01*
X157524000Y-96647000D01*
X157524000Y-94849365D01*
X158272000Y-94849365D01*
X158430237Y-94819591D01*
X158470955Y-94793389D01*
X158470864Y-94897857D01*
X158590425Y-95187217D01*
X158811618Y-95408797D01*
X159100769Y-95528863D01*
X159413857Y-95529136D01*
X159703217Y-95409575D01*
X159924797Y-95188382D01*
X160044863Y-94899231D01*
X160045136Y-94586143D01*
X159925575Y-94296783D01*
X159810000Y-94181006D01*
X159810000Y-94109951D01*
X159862769Y-94131863D01*
X160175857Y-94132136D01*
X160465217Y-94012575D01*
X160686797Y-93791382D01*
X160806863Y-93502231D01*
X160806940Y-93412995D01*
X161967788Y-93412995D01*
X162154194Y-93864131D01*
X162499053Y-94209593D01*
X162949864Y-94396786D01*
X163437995Y-94397212D01*
X163889131Y-94210806D01*
X164234593Y-93865947D01*
X164421786Y-93415136D01*
X164422212Y-92927005D01*
X164235806Y-92475869D01*
X163890947Y-92130407D01*
X163644312Y-92027995D01*
X164807788Y-92027995D01*
X164994194Y-92479131D01*
X165339053Y-92824593D01*
X165789864Y-93011786D01*
X166277995Y-93012212D01*
X166729131Y-92825806D01*
X167074593Y-92480947D01*
X167261786Y-92030136D01*
X167262212Y-91542005D01*
X167075806Y-91090869D01*
X166730947Y-90745407D01*
X166280136Y-90558214D01*
X165792005Y-90557788D01*
X165340869Y-90744194D01*
X164995407Y-91089053D01*
X164808214Y-91539864D01*
X164807788Y-92027995D01*
X163644312Y-92027995D01*
X163440136Y-91943214D01*
X162952005Y-91942788D01*
X162500869Y-92129194D01*
X162155407Y-92474053D01*
X161968214Y-92924864D01*
X161967788Y-93412995D01*
X160806940Y-93412995D01*
X160807136Y-93189143D01*
X160687575Y-92899783D01*
X160466382Y-92678203D01*
X160177231Y-92558137D01*
X160013640Y-92557994D01*
X159699032Y-92243386D01*
X159832323Y-92154323D01*
X160013651Y-91972995D01*
X160175857Y-91973136D01*
X160465217Y-91853575D01*
X160686797Y-91632382D01*
X160806863Y-91343231D01*
X160807136Y-91030143D01*
X160774848Y-90952000D01*
X162095467Y-90952000D01*
X162154194Y-91094131D01*
X162499053Y-91439593D01*
X162949864Y-91626786D01*
X163437995Y-91627212D01*
X163889131Y-91440806D01*
X164234593Y-91095947D01*
X164421786Y-90645136D01*
X164422212Y-90157005D01*
X164366737Y-90022745D01*
X165206861Y-90022745D01*
X165280995Y-90268864D01*
X165818223Y-90461965D01*
X166388454Y-90434778D01*
X166789005Y-90268864D01*
X166863139Y-90022745D01*
X166035000Y-89194605D01*
X165206861Y-90022745D01*
X164366737Y-90022745D01*
X164235806Y-89705869D01*
X163890947Y-89360407D01*
X163440136Y-89173214D01*
X162952005Y-89172788D01*
X162500869Y-89359194D01*
X162155407Y-89704053D01*
X162095635Y-89848000D01*
X157885000Y-89848000D01*
X157673758Y-89890018D01*
X157494677Y-90009677D01*
X156581677Y-90922677D01*
X156476817Y-91079610D01*
X156472000Y-91078635D01*
X156165770Y-91078635D01*
X155991242Y-90962018D01*
X155780000Y-90920000D01*
X155600877Y-90920000D01*
X155440000Y-90888000D01*
X155279123Y-90920000D01*
X141396592Y-90920000D01*
X141446297Y-90870382D01*
X141566363Y-90581231D01*
X141566636Y-90268143D01*
X141447075Y-89978783D01*
X141331500Y-89863006D01*
X141331500Y-86868000D01*
X141328529Y-86853064D01*
X141323942Y-86830000D01*
X161959635Y-86830000D01*
X161959635Y-88430000D01*
X161989409Y-88588237D01*
X162082927Y-88733567D01*
X162225619Y-88831064D01*
X162395000Y-88865365D01*
X163995000Y-88865365D01*
X164153237Y-88835591D01*
X164211308Y-88798223D01*
X164588035Y-88798223D01*
X164615222Y-89368454D01*
X164781136Y-89769005D01*
X165027255Y-89843139D01*
X165855395Y-89015000D01*
X166214605Y-89015000D01*
X167042745Y-89843139D01*
X167288864Y-89769005D01*
X167481965Y-89231777D01*
X167454778Y-88661546D01*
X167288864Y-88260995D01*
X167042745Y-88186861D01*
X166214605Y-89015000D01*
X165855395Y-89015000D01*
X165027255Y-88186861D01*
X164781136Y-88260995D01*
X164588035Y-88798223D01*
X164211308Y-88798223D01*
X164298567Y-88742073D01*
X164396064Y-88599381D01*
X164430365Y-88430000D01*
X164430365Y-88007255D01*
X165206861Y-88007255D01*
X166035000Y-88835395D01*
X166863139Y-88007255D01*
X166789005Y-87761136D01*
X166251777Y-87568035D01*
X165681546Y-87595222D01*
X165280995Y-87761136D01*
X165206861Y-88007255D01*
X164430365Y-88007255D01*
X164430365Y-86830000D01*
X164400591Y-86671763D01*
X164307073Y-86526433D01*
X164164381Y-86428936D01*
X163995000Y-86394635D01*
X162395000Y-86394635D01*
X162236763Y-86424409D01*
X162091433Y-86517927D01*
X161993936Y-86660619D01*
X161959635Y-86830000D01*
X141323942Y-86830000D01*
X141289482Y-86656758D01*
X141169823Y-86477677D01*
X138899653Y-84207507D01*
X138891987Y-84202384D01*
X138886616Y-84194892D01*
X138802726Y-84142742D01*
X138720572Y-84087848D01*
X138711528Y-84086049D01*
X138703699Y-84081182D01*
X138606224Y-84065103D01*
X138509330Y-84045830D01*
X138500288Y-84047629D01*
X138491191Y-84046128D01*
X135872811Y-84132214D01*
X135851073Y-84098433D01*
X135708381Y-84000936D01*
X135539000Y-83966635D01*
X134739000Y-83966635D01*
X134580763Y-83996409D01*
X134435433Y-84089927D01*
X134337936Y-84232619D01*
X134303635Y-84402000D01*
X134303635Y-84902000D01*
X134333409Y-85060237D01*
X134343022Y-85075176D01*
X134337936Y-85082619D01*
X134303635Y-85252000D01*
X134303635Y-85652000D01*
X134333409Y-85810237D01*
X134359591Y-85850925D01*
X134337936Y-85882619D01*
X134303635Y-86052000D01*
X134303635Y-86452000D01*
X134333409Y-86610237D01*
X134343022Y-86625176D01*
X134337936Y-86632619D01*
X134303635Y-86802000D01*
X134303635Y-87302000D01*
X134333409Y-87460237D01*
X134426927Y-87605567D01*
X134569619Y-87703064D01*
X134739000Y-87737365D01*
X135539000Y-87737365D01*
X135697237Y-87707591D01*
X135842567Y-87614073D01*
X135849450Y-87604000D01*
X136402144Y-87604000D01*
X136586618Y-87788797D01*
X136875769Y-87908863D01*
X137188857Y-87909136D01*
X137478217Y-87789575D01*
X137699797Y-87568382D01*
X137819863Y-87279231D01*
X137820136Y-86966143D01*
X137753140Y-86804000D01*
X137966354Y-86804000D01*
X138024005Y-86861651D01*
X138023864Y-87023857D01*
X138143425Y-87313217D01*
X138364618Y-87534797D01*
X138653769Y-87654863D01*
X138966857Y-87655136D01*
X139256217Y-87535575D01*
X139477797Y-87314382D01*
X139597863Y-87025231D01*
X139598136Y-86712143D01*
X139478575Y-86422783D01*
X139257382Y-86201203D01*
X138968231Y-86081137D01*
X138804640Y-86080994D01*
X138710102Y-85986456D01*
X138779297Y-85917382D01*
X138858205Y-85727351D01*
X140227500Y-87096646D01*
X140227500Y-89863021D01*
X140112703Y-89977618D01*
X139992637Y-90266769D01*
X139992364Y-90579857D01*
X140111925Y-90869217D01*
X140162619Y-90920000D01*
X133991646Y-90920000D01*
X132533823Y-89462177D01*
X132354742Y-89342518D01*
X132143500Y-89300500D01*
X131370979Y-89300500D01*
X131256382Y-89185703D01*
X131021482Y-89088164D01*
X132505646Y-87604000D01*
X132625919Y-87604000D01*
X132626927Y-87605567D01*
X132769619Y-87703064D01*
X132939000Y-87737365D01*
X133739000Y-87737365D01*
X133897237Y-87707591D01*
X134042567Y-87614073D01*
X134140064Y-87471381D01*
X134174365Y-87302000D01*
X134174365Y-86802000D01*
X134144591Y-86643763D01*
X134134978Y-86628824D01*
X134140064Y-86621381D01*
X134174365Y-86452000D01*
X134174365Y-86052000D01*
X134144591Y-85893763D01*
X134118409Y-85853075D01*
X134140064Y-85821381D01*
X134174365Y-85652000D01*
X134174365Y-85252000D01*
X134144591Y-85093763D01*
X134134978Y-85078824D01*
X134140064Y-85071381D01*
X134174365Y-84902000D01*
X134174365Y-84402000D01*
X134144591Y-84243763D01*
X134051073Y-84098433D01*
X133908381Y-84000936D01*
X133739000Y-83966635D01*
X132939000Y-83966635D01*
X132780763Y-83996409D01*
X132678832Y-84062000D01*
X129202726Y-84062000D01*
X129127073Y-83944433D01*
X128984381Y-83846936D01*
X128815000Y-83812635D01*
X126915000Y-83812635D01*
X126756763Y-83842409D01*
X126611433Y-83935927D01*
X126513936Y-84078619D01*
X126479635Y-84248000D01*
X126479635Y-85048000D01*
X126509409Y-85206237D01*
X126602927Y-85351567D01*
X126745619Y-85449064D01*
X126915000Y-85483365D01*
X128815000Y-85483365D01*
X128973237Y-85453591D01*
X129118567Y-85360073D01*
X129216064Y-85217381D01*
X129226469Y-85166000D01*
X131350354Y-85166000D01*
X125247354Y-91269000D01*
X122428000Y-91269000D01*
X122216759Y-91311018D01*
X122087716Y-91397242D01*
X122037677Y-91430677D01*
X119497677Y-93970677D01*
X119378018Y-94149758D01*
X119349005Y-94295618D01*
X119336000Y-94361000D01*
X119336000Y-104038354D01*
X118585630Y-104788724D01*
X118576460Y-104775000D01*
X118754769Y-104508141D01*
X118827997Y-104140000D01*
X118754769Y-103771859D01*
X118698586Y-103687774D01*
X118776064Y-103574381D01*
X118810365Y-103405000D01*
X118810365Y-102335000D01*
X118780591Y-102176763D01*
X118687073Y-102031433D01*
X118544381Y-101933936D01*
X118375000Y-101899635D01*
X116575000Y-101899635D01*
X116416763Y-101929409D01*
X116271433Y-102022927D01*
X116173936Y-102165619D01*
X116139635Y-102335000D01*
X116139635Y-103405000D01*
X116169409Y-103563237D01*
X116250463Y-103689198D01*
X116195231Y-103771859D01*
X116122003Y-104140000D01*
X114167000Y-104140000D01*
X114167000Y-101410159D01*
X116574446Y-101410159D01*
X116660852Y-101666643D01*
X117234336Y-101876458D01*
X117844460Y-101850839D01*
X118289148Y-101666643D01*
X118375554Y-101410159D01*
X117475000Y-100509605D01*
X116574446Y-101410159D01*
X114167000Y-101410159D01*
X114167000Y-100089336D01*
X115928542Y-100089336D01*
X115954161Y-100699460D01*
X116138357Y-101144148D01*
X116394841Y-101230554D01*
X117295395Y-100330000D01*
X117654605Y-100330000D01*
X118555159Y-101230554D01*
X118811643Y-101144148D01*
X119021458Y-100570664D01*
X118995839Y-99960540D01*
X118811643Y-99515852D01*
X118555159Y-99429446D01*
X117654605Y-100330000D01*
X117295395Y-100330000D01*
X116394841Y-99429446D01*
X116138357Y-99515852D01*
X115928542Y-100089336D01*
X114167000Y-100089336D01*
X114167000Y-96890000D01*
X116139635Y-96890000D01*
X116139635Y-98690000D01*
X116169409Y-98848237D01*
X116262927Y-98993567D01*
X116405619Y-99091064D01*
X116575000Y-99125365D01*
X116616380Y-99125365D01*
X116574446Y-99249841D01*
X117475000Y-100150395D01*
X118375554Y-99249841D01*
X118333620Y-99125365D01*
X118375000Y-99125365D01*
X118533237Y-99095591D01*
X118678567Y-99002073D01*
X118776064Y-98859381D01*
X118810365Y-98690000D01*
X118810365Y-96890000D01*
X118780591Y-96731763D01*
X118687073Y-96586433D01*
X118544381Y-96488936D01*
X118375000Y-96454635D01*
X118027000Y-96454635D01*
X118027000Y-89797603D01*
X120492752Y-89797603D01*
X120709543Y-90322275D01*
X121110614Y-90724047D01*
X121634907Y-90941752D01*
X122202603Y-90942248D01*
X122727275Y-90725457D01*
X123129047Y-90324386D01*
X123346752Y-89800093D01*
X123347248Y-89232397D01*
X123130457Y-88707725D01*
X122729386Y-88305953D01*
X122205093Y-88088248D01*
X121637397Y-88087752D01*
X121112725Y-88304543D01*
X120710953Y-88705614D01*
X120493248Y-89229907D01*
X120492752Y-89797603D01*
X118027000Y-89797603D01*
X118027000Y-89255646D01*
X119471389Y-87811257D01*
X126466864Y-87811257D01*
X126586425Y-88100617D01*
X126807618Y-88322197D01*
X127096769Y-88442263D01*
X127409857Y-88442536D01*
X127699217Y-88322975D01*
X127920797Y-88101782D01*
X128040863Y-87812631D01*
X128041136Y-87499543D01*
X127993132Y-87383365D01*
X128815000Y-87383365D01*
X128973237Y-87353591D01*
X129118567Y-87260073D01*
X129216064Y-87117381D01*
X129250365Y-86948000D01*
X129250365Y-86148000D01*
X129220591Y-85989763D01*
X129127073Y-85844433D01*
X128984381Y-85746936D01*
X128815000Y-85712635D01*
X126915000Y-85712635D01*
X126756763Y-85742409D01*
X126611433Y-85835927D01*
X126513936Y-85978619D01*
X126479635Y-86148000D01*
X126479635Y-86948000D01*
X126509409Y-87106237D01*
X126582632Y-87220027D01*
X126467137Y-87498169D01*
X126466864Y-87811257D01*
X119471389Y-87811257D01*
X121132646Y-86150000D01*
X123508235Y-86150000D01*
X123509409Y-86156237D01*
X123602927Y-86301567D01*
X123745619Y-86399064D01*
X123915000Y-86433365D01*
X125815000Y-86433365D01*
X125973237Y-86403591D01*
X126118567Y-86310073D01*
X126216064Y-86167381D01*
X126250365Y-85998000D01*
X126250365Y-85198000D01*
X126220591Y-85039763D01*
X126127073Y-84894433D01*
X125984381Y-84796936D01*
X125815000Y-84762635D01*
X123915000Y-84762635D01*
X123756763Y-84792409D01*
X123611433Y-84885927D01*
X123513936Y-85028619D01*
X123510416Y-85046000D01*
X120904000Y-85046000D01*
X120692759Y-85088018D01*
X120600697Y-85149532D01*
X120513677Y-85207677D01*
X117084677Y-88636677D01*
X116965018Y-88815758D01*
X116961112Y-88835395D01*
X116923000Y-89027000D01*
X116923000Y-96454635D01*
X116575000Y-96454635D01*
X116416763Y-96484409D01*
X116271433Y-96577927D01*
X116173936Y-96720619D01*
X116139635Y-96890000D01*
X114167000Y-96890000D01*
X114167000Y-80915000D01*
X120484635Y-80915000D01*
X120484635Y-82915000D01*
X120514409Y-83073237D01*
X120607927Y-83218567D01*
X120750619Y-83316064D01*
X120920000Y-83350365D01*
X122920000Y-83350365D01*
X123078237Y-83320591D01*
X123223567Y-83227073D01*
X123321064Y-83084381D01*
X123355365Y-82915000D01*
X123355365Y-81268750D01*
X133281000Y-81268750D01*
X133281000Y-81709309D01*
X133377673Y-81942698D01*
X133556301Y-82121327D01*
X133789690Y-82218000D01*
X134080250Y-82218000D01*
X134239000Y-82059250D01*
X134239000Y-81110000D01*
X133439750Y-81110000D01*
X133281000Y-81268750D01*
X123355365Y-81268750D01*
X123355365Y-80915000D01*
X123325591Y-80756763D01*
X123232073Y-80611433D01*
X123089381Y-80513936D01*
X122920000Y-80479635D01*
X120920000Y-80479635D01*
X120761763Y-80509409D01*
X120616433Y-80602927D01*
X120518936Y-80745619D01*
X120484635Y-80915000D01*
X114167000Y-80915000D01*
X114167000Y-77972000D01*
X133543373Y-77972000D01*
X133514936Y-78013619D01*
G36*
X136652000Y-79248000D02*
X136672000Y-79248000D01*
X136672000Y-79502000D01*
X136652000Y-79502000D01*
X136652000Y-79522000D01*
X136398000Y-79522000D01*
X136398000Y-79502000D01*
X136378000Y-79502000D01*
X136378000Y-79248000D01*
X136398000Y-79248000D01*
X136398000Y-79228000D01*
X136652000Y-79228000D01*
X136652000Y-79248000D01*
X136652000Y-79248000D01*
G37*
X136652000Y-79248000D02*
X136672000Y-79248000D01*
X136672000Y-79502000D01*
X136652000Y-79502000D01*
X136652000Y-79522000D01*
X136398000Y-79522000D01*
X136398000Y-79502000D01*
X136378000Y-79502000D01*
X136378000Y-79248000D01*
X136398000Y-79248000D01*
X136398000Y-79228000D01*
X136652000Y-79228000D01*
X136652000Y-79248000D01*
M02*
