G04 #@! TF.FileFunction,Legend,Top*
%FSLAX46Y46*%
G04 Gerber Fmt 4.6, Leading zero omitted, Abs format (unit mm)*
G04 Created by KiCad (PCBNEW 4.0.7-e2-6376~58~ubuntu14.04.1) date Tue Jan 30 14:29:15 2018*
%MOMM*%
%LPD*%
G01*
G04 APERTURE LIST*
%ADD10C,0.100000*%
%ADD11C,0.150000*%
%ADD12C,0.120000*%
G04 APERTURE END LIST*
D10*
D11*
X134370000Y-109875000D02*
X137370000Y-109875000D01*
X137370000Y-112375000D02*
X134370000Y-112375000D01*
X142921800Y-112425800D02*
X139921800Y-112425800D01*
X139921800Y-109925800D02*
X142921800Y-109925800D01*
X156464000Y-103759000D02*
X155956000Y-103759000D01*
X156464000Y-103251000D02*
X155956000Y-103251000D01*
X156464000Y-101219000D02*
X155956000Y-101219000D01*
X156464000Y-100711000D02*
X155956000Y-100711000D01*
X156464000Y-93091000D02*
X155956000Y-93091000D01*
X156464000Y-93599000D02*
X155956000Y-93599000D01*
X156464000Y-98679000D02*
X155956000Y-98679000D01*
X156464000Y-98171000D02*
X155956000Y-98171000D01*
X156464000Y-96139000D02*
X155956000Y-96139000D01*
X156464000Y-95631000D02*
X155956000Y-95631000D01*
X159004000Y-103759000D02*
X158496000Y-103759000D01*
X159004000Y-103251000D02*
X158496000Y-103251000D01*
X159004000Y-93091000D02*
X158496000Y-93091000D01*
X159004000Y-93599000D02*
X158496000Y-93599000D01*
X159004000Y-95631000D02*
X158496000Y-95631000D01*
X159004000Y-96139000D02*
X158496000Y-96139000D01*
X159004000Y-101219000D02*
X158496000Y-101219000D01*
X159004000Y-100711000D02*
X158496000Y-100711000D01*
X159004000Y-98679000D02*
X158496000Y-98679000D01*
X159004000Y-98171000D02*
X158496000Y-98171000D01*
X154940000Y-91795000D02*
X153790000Y-91795000D01*
X153790000Y-91795000D02*
X153790000Y-93345000D01*
X161544000Y-93218000D02*
X167513000Y-93218000D01*
X167513000Y-93218000D02*
X167513000Y-93472000D01*
X167513000Y-93472000D02*
X161671000Y-93472000D01*
X161671000Y-93472000D02*
X161671000Y-93345000D01*
X161671000Y-93345000D02*
X167513000Y-93345000D01*
X159004000Y-102235000D02*
X161544000Y-102235000D01*
X159004000Y-102235000D02*
X159004000Y-104775000D01*
X161544000Y-103251000D02*
X167640000Y-103251000D01*
X167640000Y-103251000D02*
X167640000Y-103759000D01*
X167640000Y-103759000D02*
X161544000Y-103759000D01*
X161544000Y-104775000D02*
X161544000Y-102235000D01*
X159004000Y-104775000D02*
X161544000Y-104775000D01*
X159004000Y-97155000D02*
X161544000Y-97155000D01*
X159004000Y-97155000D02*
X159004000Y-99695000D01*
X159004000Y-99695000D02*
X161544000Y-99695000D01*
X161544000Y-98171000D02*
X167640000Y-98171000D01*
X167640000Y-98171000D02*
X167640000Y-98679000D01*
X167640000Y-98679000D02*
X161544000Y-98679000D01*
X161544000Y-99695000D02*
X161544000Y-97155000D01*
X161544000Y-102235000D02*
X161544000Y-99695000D01*
X167640000Y-101219000D02*
X161544000Y-101219000D01*
X167640000Y-100711000D02*
X167640000Y-101219000D01*
X161544000Y-100711000D02*
X167640000Y-100711000D01*
X159004000Y-102235000D02*
X161544000Y-102235000D01*
X159004000Y-99695000D02*
X159004000Y-102235000D01*
X159004000Y-99695000D02*
X161544000Y-99695000D01*
X159004000Y-94615000D02*
X161544000Y-94615000D01*
X159004000Y-94615000D02*
X159004000Y-97155000D01*
X159004000Y-97155000D02*
X161544000Y-97155000D01*
X161544000Y-95631000D02*
X167640000Y-95631000D01*
X167640000Y-95631000D02*
X167640000Y-96139000D01*
X167640000Y-96139000D02*
X161544000Y-96139000D01*
X161544000Y-97155000D02*
X161544000Y-94615000D01*
X161544000Y-94615000D02*
X161544000Y-92075000D01*
X167640000Y-93599000D02*
X161544000Y-93599000D01*
X167640000Y-93091000D02*
X167640000Y-93599000D01*
X161544000Y-93091000D02*
X167640000Y-93091000D01*
X159004000Y-94615000D02*
X161544000Y-94615000D01*
X159004000Y-92075000D02*
X159004000Y-94615000D01*
X159004000Y-92075000D02*
X161544000Y-92075000D01*
X68624000Y-90369000D02*
X68424000Y-90369000D01*
X66030000Y-90369000D02*
X66210000Y-90369000D01*
X66340357Y-87141256D02*
G75*
G03X66024000Y-90369000I1003643J-1727744D01*
G01*
X66210932Y-87816994D02*
G75*
G03X66210000Y-89920000I1133068J-1052006D01*
G01*
X68650726Y-90356220D02*
G75*
G03X68304000Y-87119000I-1306726J1497220D01*
G01*
X68423253Y-89882889D02*
G75*
G03X68404000Y-87835000I-1079253J1013889D01*
G01*
X66210000Y-94020000D02*
X65760000Y-94020000D01*
X70260000Y-96520000D02*
G75*
G03X70260000Y-96520000I-2950000J0D01*
G01*
X68410000Y-94020000D02*
X68860000Y-94020000D01*
X114545000Y-103370000D02*
X115815000Y-103370000D01*
X114545000Y-96020000D02*
X115815000Y-96020000D01*
X152155000Y-96020000D02*
X150885000Y-96020000D01*
X152155000Y-103370000D02*
X150885000Y-103370000D01*
X114545000Y-103370000D02*
X114545000Y-96020000D01*
X152155000Y-103370000D02*
X152155000Y-96020000D01*
X115815000Y-103370000D02*
X115815000Y-104305000D01*
X71393010Y-87347305D02*
G75*
G03X70690000Y-87835000I996990J-2187695D01*
G01*
X71393010Y-91722695D02*
G75*
G02X70690000Y-91235000I996990J2187695D01*
G01*
X70690000Y-87835000D02*
X70690000Y-91235000D01*
X73383127Y-87350121D02*
G75*
G02X74790000Y-89535000I-993127J-2184879D01*
G01*
X73383127Y-91719879D02*
G75*
G03X74790000Y-89535000I-993127J2184879D01*
G01*
X133629400Y-108087160D02*
X133428740Y-107685840D01*
X133428740Y-107685840D02*
X133327140Y-107086400D01*
X133327140Y-107086400D02*
X133428740Y-106586020D01*
X133428740Y-106586020D02*
X133827520Y-105887520D01*
X133827520Y-105887520D02*
X134429500Y-105486200D01*
X134429500Y-105486200D02*
X135028940Y-105285540D01*
X135028940Y-105285540D02*
X141627860Y-105285540D01*
X141627860Y-105285540D02*
X142328900Y-105486200D01*
X142328900Y-105486200D02*
X142727680Y-105785920D01*
X142727680Y-105785920D02*
X143129000Y-106286300D01*
X143129000Y-106286300D02*
X143329660Y-106885740D01*
X143329660Y-106885740D02*
X143329660Y-107386120D01*
X143329660Y-107386120D02*
X143129000Y-107886500D01*
X143129000Y-107886500D02*
X142628620Y-108485940D01*
X142628620Y-108485940D02*
X142128240Y-108785660D01*
X142128240Y-108785660D02*
X141627860Y-108887260D01*
X141528800Y-108887260D02*
X134927340Y-108887260D01*
X134927340Y-108887260D02*
X134528560Y-108785660D01*
X134528560Y-108785660D02*
X134028180Y-108485940D01*
X134028180Y-108485940D02*
X133527800Y-107985560D01*
X141518640Y-109415580D02*
X141978380Y-109367320D01*
X141978380Y-109367320D02*
X142377160Y-109255560D01*
X142377160Y-109255560D02*
X142808960Y-109037120D01*
X142808960Y-109037120D02*
X143098520Y-108805980D01*
X143098520Y-108805980D02*
X143428720Y-108455460D01*
X143428720Y-108455460D02*
X143718280Y-107916980D01*
X143718280Y-107916980D02*
X143847820Y-107317540D01*
X143847820Y-107317540D02*
X143847820Y-106807000D01*
X143847820Y-106807000D02*
X143677640Y-106105960D01*
X143677640Y-106105960D02*
X143278860Y-105516680D01*
X143278860Y-105516680D02*
X142819120Y-105145840D01*
X142819120Y-105145840D02*
X142397480Y-104937560D01*
X142397480Y-104937560D02*
X141947900Y-104777540D01*
X141947900Y-104777540D02*
X141508480Y-104747060D01*
X134167880Y-104965500D02*
X133789420Y-105186480D01*
X133789420Y-105186480D02*
X133469380Y-105465880D01*
X133469380Y-105465880D02*
X133217920Y-105796080D01*
X133217920Y-105796080D02*
X132918200Y-106347260D01*
X132918200Y-106347260D02*
X132808980Y-106817160D01*
X132808980Y-106817160D02*
X132788660Y-107276900D01*
X132788660Y-107276900D02*
X132877560Y-107736640D01*
X132877560Y-107736640D02*
X133068060Y-108186220D01*
X133068060Y-108186220D02*
X133428740Y-108656120D01*
X133428740Y-108656120D02*
X133779260Y-108976160D01*
X133779260Y-108976160D02*
X134167880Y-109207300D01*
X134167880Y-109207300D02*
X134597140Y-109347000D01*
X134597140Y-109347000D02*
X135039100Y-109415580D01*
X141528800Y-104757220D02*
X135077200Y-104757220D01*
X135077200Y-104757220D02*
X134658100Y-104795320D01*
X134658100Y-104795320D02*
X134167880Y-104965500D01*
X141528800Y-109415580D02*
X135077200Y-109415580D01*
X72390000Y-84455000D02*
X69850000Y-84455000D01*
X73809903Y-84455000D02*
G75*
G03X73809903Y-84455000I-1419903J0D01*
G01*
X71120000Y-94615000D02*
X73660000Y-94615000D01*
X72539903Y-94615000D02*
G75*
G03X72539903Y-94615000I-1419903J0D01*
G01*
X71120000Y-99695000D02*
X73660000Y-99695000D01*
X72539903Y-99695000D02*
G75*
G03X72539903Y-99695000I-1419903J0D01*
G01*
X71120000Y-97155000D02*
X73660000Y-97155000D01*
X72539903Y-97155000D02*
G75*
G03X72539903Y-97155000I-1419903J0D01*
G01*
X119380000Y-106045000D02*
X116840000Y-106045000D01*
X120799903Y-106045000D02*
G75*
G03X120799903Y-106045000I-1419903J0D01*
G01*
X142240000Y-90805000D02*
X139700000Y-90805000D01*
X143659903Y-90805000D02*
G75*
G03X143659903Y-90805000I-1419903J0D01*
G01*
X139700000Y-93345000D02*
X142240000Y-93345000D01*
X141119903Y-93345000D02*
G75*
G03X141119903Y-93345000I-1419903J0D01*
G01*
X105794871Y-98425000D02*
G75*
G03X105794871Y-98425000I-8004871J0D01*
G01*
X150114000Y-91821000D02*
X150114000Y-92329000D01*
X149606000Y-91821000D02*
X149606000Y-92329000D01*
X147574000Y-91821000D02*
X147574000Y-92329000D01*
X147066000Y-91821000D02*
X147066000Y-92329000D01*
X145034000Y-91821000D02*
X145034000Y-92329000D01*
X144526000Y-91821000D02*
X144526000Y-92329000D01*
X147066000Y-89281000D02*
X147066000Y-89789000D01*
X147574000Y-89281000D02*
X147574000Y-89789000D01*
X149606000Y-89281000D02*
X149606000Y-89789000D01*
X150114000Y-89281000D02*
X150114000Y-89789000D01*
X144526000Y-89281000D02*
X144526000Y-89789000D01*
X145034000Y-89281000D02*
X145034000Y-89789000D01*
X143230000Y-93345000D02*
X143230000Y-94495000D01*
X143230000Y-94495000D02*
X144780000Y-94495000D01*
X144653000Y-86741000D02*
X144653000Y-80772000D01*
X144653000Y-80772000D02*
X144907000Y-80772000D01*
X144907000Y-80772000D02*
X144907000Y-86614000D01*
X144907000Y-86614000D02*
X144780000Y-86614000D01*
X144780000Y-86614000D02*
X144780000Y-80772000D01*
X146050000Y-89281000D02*
X148590000Y-89281000D01*
X148590000Y-89281000D02*
X148590000Y-86741000D01*
X147066000Y-86741000D02*
X147066000Y-80645000D01*
X147066000Y-80645000D02*
X147574000Y-80645000D01*
X147574000Y-80645000D02*
X147574000Y-86741000D01*
X148590000Y-86741000D02*
X146050000Y-86741000D01*
X151130000Y-89281000D02*
X151130000Y-86741000D01*
X151130000Y-86741000D02*
X148590000Y-86741000D01*
X150114000Y-80645000D02*
X150114000Y-86741000D01*
X149606000Y-80645000D02*
X150114000Y-80645000D01*
X149606000Y-86741000D02*
X149606000Y-80645000D01*
X151130000Y-89281000D02*
X151130000Y-86741000D01*
X148590000Y-89281000D02*
X151130000Y-89281000D01*
X148590000Y-89281000D02*
X148590000Y-86741000D01*
X146050000Y-89281000D02*
X146050000Y-86741000D01*
X146050000Y-86741000D02*
X143510000Y-86741000D01*
X145034000Y-80645000D02*
X145034000Y-86741000D01*
X144526000Y-80645000D02*
X145034000Y-80645000D01*
X144526000Y-86741000D02*
X144526000Y-80645000D01*
X146050000Y-89281000D02*
X146050000Y-86741000D01*
X143510000Y-89281000D02*
X146050000Y-89281000D01*
X143510000Y-89281000D02*
X143510000Y-86741000D01*
X131385000Y-108975000D02*
X131385000Y-113275000D01*
X121345000Y-111125000D02*
X121345000Y-113275000D01*
X131385000Y-108975000D02*
X121345000Y-108975000D01*
X131385000Y-113275000D02*
X121345000Y-113275000D01*
X126365000Y-110485000D02*
X126365000Y-111765000D01*
X128395000Y-110485000D02*
X124335000Y-110485000D01*
X124335000Y-110485000D02*
X124335000Y-111765000D01*
X124335000Y-111765000D02*
X128395000Y-111765000D01*
X128395000Y-111765000D02*
X128395000Y-110485000D01*
X119354600Y-108839000D02*
X116814600Y-108839000D01*
X120774503Y-108839000D02*
G75*
G03X120774503Y-108839000I-1419903J0D01*
G01*
D12*
X133350000Y-81855000D02*
X125670000Y-81855000D01*
X125670000Y-81855000D02*
X125670000Y-87055000D01*
X125670000Y-87055000D02*
X135950000Y-87055000D01*
X135950000Y-87055000D02*
X135950000Y-84455000D01*
X135950000Y-84455000D02*
X133350000Y-84455000D01*
X133350000Y-84455000D02*
X133350000Y-81855000D01*
X134620000Y-81855000D02*
X135950000Y-81855000D01*
X135950000Y-81855000D02*
X135950000Y-83185000D01*
X130019000Y-93319600D02*
G75*
G03X130019000Y-93319600I-860000J0D01*
G01*
X129159000Y-92459600D02*
X129159000Y-91779600D01*
X127860000Y-90805000D02*
G75*
G03X127860000Y-90805000I-860000J0D01*
G01*
X127000000Y-91665000D02*
X127000000Y-92345000D01*
X125320000Y-93345000D02*
G75*
G03X125320000Y-93345000I-860000J0D01*
G01*
X124460000Y-92485000D02*
X124460000Y-91805000D01*
X133370000Y-93355000D02*
X133370000Y-88255000D01*
X133330000Y-93355000D02*
X133330000Y-88255000D01*
X133290000Y-93354000D02*
X133290000Y-88256000D01*
X133250000Y-93353000D02*
X133250000Y-88257000D01*
X133210000Y-93351000D02*
X133210000Y-88259000D01*
X133170000Y-93348000D02*
X133170000Y-88262000D01*
X133130000Y-93344000D02*
X133130000Y-88266000D01*
X133090000Y-93340000D02*
X133090000Y-91785000D01*
X133090000Y-89825000D02*
X133090000Y-88270000D01*
X133050000Y-93336000D02*
X133050000Y-91785000D01*
X133050000Y-89825000D02*
X133050000Y-88274000D01*
X133010000Y-93330000D02*
X133010000Y-91785000D01*
X133010000Y-89825000D02*
X133010000Y-88280000D01*
X132970000Y-93324000D02*
X132970000Y-91785000D01*
X132970000Y-89825000D02*
X132970000Y-88286000D01*
X132930000Y-93318000D02*
X132930000Y-91785000D01*
X132930000Y-89825000D02*
X132930000Y-88292000D01*
X132890000Y-93311000D02*
X132890000Y-91785000D01*
X132890000Y-89825000D02*
X132890000Y-88299000D01*
X132850000Y-93303000D02*
X132850000Y-91785000D01*
X132850000Y-89825000D02*
X132850000Y-88307000D01*
X132810000Y-93294000D02*
X132810000Y-91785000D01*
X132810000Y-89825000D02*
X132810000Y-88316000D01*
X132770000Y-93285000D02*
X132770000Y-91785000D01*
X132770000Y-89825000D02*
X132770000Y-88325000D01*
X132730000Y-93275000D02*
X132730000Y-91785000D01*
X132730000Y-89825000D02*
X132730000Y-88335000D01*
X132690000Y-93265000D02*
X132690000Y-91785000D01*
X132690000Y-89825000D02*
X132690000Y-88345000D01*
X132649000Y-93253000D02*
X132649000Y-91785000D01*
X132649000Y-89825000D02*
X132649000Y-88357000D01*
X132609000Y-93241000D02*
X132609000Y-91785000D01*
X132609000Y-89825000D02*
X132609000Y-88369000D01*
X132569000Y-93229000D02*
X132569000Y-91785000D01*
X132569000Y-89825000D02*
X132569000Y-88381000D01*
X132529000Y-93215000D02*
X132529000Y-91785000D01*
X132529000Y-89825000D02*
X132529000Y-88395000D01*
X132489000Y-93201000D02*
X132489000Y-91785000D01*
X132489000Y-89825000D02*
X132489000Y-88409000D01*
X132449000Y-93187000D02*
X132449000Y-91785000D01*
X132449000Y-89825000D02*
X132449000Y-88423000D01*
X132409000Y-93171000D02*
X132409000Y-91785000D01*
X132409000Y-89825000D02*
X132409000Y-88439000D01*
X132369000Y-93155000D02*
X132369000Y-91785000D01*
X132369000Y-89825000D02*
X132369000Y-88455000D01*
X132329000Y-93138000D02*
X132329000Y-91785000D01*
X132329000Y-89825000D02*
X132329000Y-88472000D01*
X132289000Y-93120000D02*
X132289000Y-91785000D01*
X132289000Y-89825000D02*
X132289000Y-88490000D01*
X132249000Y-93101000D02*
X132249000Y-91785000D01*
X132249000Y-89825000D02*
X132249000Y-88509000D01*
X132209000Y-93081000D02*
X132209000Y-91785000D01*
X132209000Y-89825000D02*
X132209000Y-88529000D01*
X132169000Y-93061000D02*
X132169000Y-91785000D01*
X132169000Y-89825000D02*
X132169000Y-88549000D01*
X132129000Y-93039000D02*
X132129000Y-91785000D01*
X132129000Y-89825000D02*
X132129000Y-88571000D01*
X132089000Y-93017000D02*
X132089000Y-91785000D01*
X132089000Y-89825000D02*
X132089000Y-88593000D01*
X132049000Y-92994000D02*
X132049000Y-91785000D01*
X132049000Y-89825000D02*
X132049000Y-88616000D01*
X132009000Y-92970000D02*
X132009000Y-91785000D01*
X132009000Y-89825000D02*
X132009000Y-88640000D01*
X131969000Y-92945000D02*
X131969000Y-91785000D01*
X131969000Y-89825000D02*
X131969000Y-88665000D01*
X131929000Y-92918000D02*
X131929000Y-91785000D01*
X131929000Y-89825000D02*
X131929000Y-88692000D01*
X131889000Y-92891000D02*
X131889000Y-91785000D01*
X131889000Y-89825000D02*
X131889000Y-88719000D01*
X131849000Y-92863000D02*
X131849000Y-91785000D01*
X131849000Y-89825000D02*
X131849000Y-88747000D01*
X131809000Y-92833000D02*
X131809000Y-91785000D01*
X131809000Y-89825000D02*
X131809000Y-88777000D01*
X131769000Y-92802000D02*
X131769000Y-91785000D01*
X131769000Y-89825000D02*
X131769000Y-88808000D01*
X131729000Y-92770000D02*
X131729000Y-91785000D01*
X131729000Y-89825000D02*
X131729000Y-88840000D01*
X131689000Y-92737000D02*
X131689000Y-91785000D01*
X131689000Y-89825000D02*
X131689000Y-88873000D01*
X131649000Y-92702000D02*
X131649000Y-91785000D01*
X131649000Y-89825000D02*
X131649000Y-88908000D01*
X131609000Y-92666000D02*
X131609000Y-91785000D01*
X131609000Y-89825000D02*
X131609000Y-88944000D01*
X131569000Y-92628000D02*
X131569000Y-91785000D01*
X131569000Y-89825000D02*
X131569000Y-88982000D01*
X131529000Y-92588000D02*
X131529000Y-91785000D01*
X131529000Y-89825000D02*
X131529000Y-89022000D01*
X131489000Y-92547000D02*
X131489000Y-91785000D01*
X131489000Y-89825000D02*
X131489000Y-89063000D01*
X131449000Y-92504000D02*
X131449000Y-91785000D01*
X131449000Y-89825000D02*
X131449000Y-89106000D01*
X131409000Y-92459000D02*
X131409000Y-91785000D01*
X131409000Y-89825000D02*
X131409000Y-89151000D01*
X131369000Y-92411000D02*
X131369000Y-91785000D01*
X131369000Y-89825000D02*
X131369000Y-89199000D01*
X131329000Y-92361000D02*
X131329000Y-91785000D01*
X131329000Y-89825000D02*
X131329000Y-89249000D01*
X131289000Y-92309000D02*
X131289000Y-91785000D01*
X131289000Y-89825000D02*
X131289000Y-89301000D01*
X131249000Y-92253000D02*
X131249000Y-91785000D01*
X131249000Y-89825000D02*
X131249000Y-89357000D01*
X131209000Y-92195000D02*
X131209000Y-91785000D01*
X131209000Y-89825000D02*
X131209000Y-89415000D01*
X131169000Y-92132000D02*
X131169000Y-91785000D01*
X131169000Y-89825000D02*
X131169000Y-89478000D01*
X131129000Y-92066000D02*
X131129000Y-89544000D01*
X131089000Y-91994000D02*
X131089000Y-89616000D01*
X131049000Y-91917000D02*
X131049000Y-89693000D01*
X131009000Y-91833000D02*
X131009000Y-89777000D01*
X130969000Y-91739000D02*
X130969000Y-89871000D01*
X130929000Y-91634000D02*
X130929000Y-89976000D01*
X130889000Y-91512000D02*
X130889000Y-90098000D01*
X130849000Y-91364000D02*
X130849000Y-90246000D01*
X130809000Y-91159000D02*
X130809000Y-90451000D01*
X136820000Y-90805000D02*
X135620000Y-90805000D01*
X136220000Y-91455000D02*
X136220000Y-90155000D01*
X130973137Y-91786400D02*
G75*
G03X135767436Y-91785000I2396863J981400D01*
G01*
X130973137Y-89823600D02*
G75*
G02X135767436Y-89825000I2396863J-981400D01*
G01*
X130973137Y-89823600D02*
G75*
G03X130972564Y-91785000I2396863J-981400D01*
G01*
D11*
X135703334Y-108982143D02*
X135655715Y-109029762D01*
X135512858Y-109077381D01*
X135417620Y-109077381D01*
X135274762Y-109029762D01*
X135179524Y-108934524D01*
X135131905Y-108839286D01*
X135084286Y-108648810D01*
X135084286Y-108505952D01*
X135131905Y-108315476D01*
X135179524Y-108220238D01*
X135274762Y-108125000D01*
X135417620Y-108077381D01*
X135512858Y-108077381D01*
X135655715Y-108125000D01*
X135703334Y-108172619D01*
X136655715Y-109077381D02*
X136084286Y-109077381D01*
X136370000Y-109077381D02*
X136370000Y-108077381D01*
X136274762Y-108220238D01*
X136179524Y-108315476D01*
X136084286Y-108363095D01*
X141255134Y-114032943D02*
X141207515Y-114080562D01*
X141064658Y-114128181D01*
X140969420Y-114128181D01*
X140826562Y-114080562D01*
X140731324Y-113985324D01*
X140683705Y-113890086D01*
X140636086Y-113699610D01*
X140636086Y-113556752D01*
X140683705Y-113366276D01*
X140731324Y-113271038D01*
X140826562Y-113175800D01*
X140969420Y-113128181D01*
X141064658Y-113128181D01*
X141207515Y-113175800D01*
X141255134Y-113223419D01*
X141636086Y-113223419D02*
X141683705Y-113175800D01*
X141778943Y-113128181D01*
X142017039Y-113128181D01*
X142112277Y-113175800D01*
X142159896Y-113223419D01*
X142207515Y-113318657D01*
X142207515Y-113413895D01*
X142159896Y-113556752D01*
X141588467Y-114128181D01*
X142207515Y-114128181D01*
X154249524Y-88602143D02*
X154201905Y-88649762D01*
X154059048Y-88697381D01*
X153963810Y-88697381D01*
X153820952Y-88649762D01*
X153725714Y-88554524D01*
X153678095Y-88459286D01*
X153630476Y-88268810D01*
X153630476Y-88125952D01*
X153678095Y-87935476D01*
X153725714Y-87840238D01*
X153820952Y-87745000D01*
X153963810Y-87697381D01*
X154059048Y-87697381D01*
X154201905Y-87745000D01*
X154249524Y-87792619D01*
X154678095Y-88697381D02*
X154678095Y-87697381D01*
X155249524Y-88697381D01*
X155249524Y-87697381D01*
X155630476Y-87697381D02*
X156249524Y-87697381D01*
X155916190Y-88078333D01*
X156059048Y-88078333D01*
X156154286Y-88125952D01*
X156201905Y-88173571D01*
X156249524Y-88268810D01*
X156249524Y-88506905D01*
X156201905Y-88602143D01*
X156154286Y-88649762D01*
X156059048Y-88697381D01*
X155773333Y-88697381D01*
X155678095Y-88649762D01*
X155630476Y-88602143D01*
X70822381Y-88998095D02*
X69822381Y-88998095D01*
X69822381Y-88760000D01*
X69870000Y-88617142D01*
X69965238Y-88521904D01*
X70060476Y-88474285D01*
X70250952Y-88426666D01*
X70393810Y-88426666D01*
X70584286Y-88474285D01*
X70679524Y-88521904D01*
X70774762Y-88617142D01*
X70822381Y-88760000D01*
X70822381Y-88998095D01*
X70822381Y-87474285D02*
X70822381Y-88045714D01*
X70822381Y-87760000D02*
X69822381Y-87760000D01*
X69965238Y-87855238D01*
X70060476Y-87950476D01*
X70108095Y-88045714D01*
X69502381Y-92121905D02*
X68502381Y-92121905D01*
X69502381Y-91550476D02*
X68930952Y-91979048D01*
X68502381Y-91550476D02*
X69073810Y-92121905D01*
X66571905Y-92817381D02*
X66571905Y-91817381D01*
X66810000Y-91817381D01*
X66952858Y-91865000D01*
X67048096Y-91960238D01*
X67095715Y-92055476D01*
X67143334Y-92245952D01*
X67143334Y-92388810D01*
X67095715Y-92579286D01*
X67048096Y-92674524D01*
X66952858Y-92769762D01*
X66810000Y-92817381D01*
X66571905Y-92817381D01*
X67524286Y-91912619D02*
X67571905Y-91865000D01*
X67667143Y-91817381D01*
X67905239Y-91817381D01*
X68000477Y-91865000D01*
X68048096Y-91912619D01*
X68095715Y-92007857D01*
X68095715Y-92103095D01*
X68048096Y-92245952D01*
X67476667Y-92817381D01*
X68095715Y-92817381D01*
X112072381Y-105338333D02*
X111072381Y-105338333D01*
X111786667Y-105004999D01*
X111072381Y-104671666D01*
X112072381Y-104671666D01*
X111977143Y-103624047D02*
X112024762Y-103671666D01*
X112072381Y-103814523D01*
X112072381Y-103909761D01*
X112024762Y-104052619D01*
X111929524Y-104147857D01*
X111834286Y-104195476D01*
X111643810Y-104243095D01*
X111500952Y-104243095D01*
X111310476Y-104195476D01*
X111215238Y-104147857D01*
X111120000Y-104052619D01*
X111072381Y-103909761D01*
X111072381Y-103814523D01*
X111120000Y-103671666D01*
X111167619Y-103624047D01*
X111072381Y-103195476D02*
X111881905Y-103195476D01*
X111977143Y-103147857D01*
X112024762Y-103100238D01*
X112072381Y-103005000D01*
X112072381Y-102814523D01*
X112024762Y-102719285D01*
X111977143Y-102671666D01*
X111881905Y-102624047D01*
X111072381Y-102624047D01*
X112072381Y-101624047D02*
X112072381Y-102195476D01*
X112072381Y-101909762D02*
X111072381Y-101909762D01*
X111215238Y-102005000D01*
X111310476Y-102100238D01*
X111358095Y-102195476D01*
X76937619Y-87090238D02*
X76890000Y-87185476D01*
X76794762Y-87280714D01*
X76651905Y-87423571D01*
X76604286Y-87518810D01*
X76604286Y-87614048D01*
X76842381Y-87566429D02*
X76794762Y-87661667D01*
X76699524Y-87756905D01*
X76509048Y-87804524D01*
X76175714Y-87804524D01*
X75985238Y-87756905D01*
X75890000Y-87661667D01*
X75842381Y-87566429D01*
X75842381Y-87375952D01*
X75890000Y-87280714D01*
X75985238Y-87185476D01*
X76175714Y-87137857D01*
X76509048Y-87137857D01*
X76699524Y-87185476D01*
X76794762Y-87280714D01*
X76842381Y-87375952D01*
X76842381Y-87566429D01*
X76842381Y-86185476D02*
X76842381Y-86756905D01*
X76842381Y-86471191D02*
X75842381Y-86471191D01*
X75985238Y-86566429D01*
X76080476Y-86661667D01*
X76128095Y-86756905D01*
X137256972Y-111444019D02*
X137161734Y-111396400D01*
X137066496Y-111301162D01*
X136923639Y-111158305D01*
X136828400Y-111110686D01*
X136733162Y-111110686D01*
X136780781Y-111348781D02*
X136685543Y-111301162D01*
X136590305Y-111205924D01*
X136542686Y-111015448D01*
X136542686Y-110682114D01*
X136590305Y-110491638D01*
X136685543Y-110396400D01*
X136780781Y-110348781D01*
X136971258Y-110348781D01*
X137066496Y-110396400D01*
X137161734Y-110491638D01*
X137209353Y-110682114D01*
X137209353Y-111015448D01*
X137161734Y-111205924D01*
X137066496Y-111301162D01*
X136971258Y-111348781D01*
X136780781Y-111348781D01*
X138209353Y-111348781D02*
X137876019Y-110872590D01*
X137637924Y-111348781D02*
X137637924Y-110348781D01*
X138018877Y-110348781D01*
X138114115Y-110396400D01*
X138161734Y-110444019D01*
X138209353Y-110539257D01*
X138209353Y-110682114D01*
X138161734Y-110777352D01*
X138114115Y-110824971D01*
X138018877Y-110872590D01*
X137637924Y-110872590D01*
X138542686Y-110348781D02*
X139209353Y-110348781D01*
X138542686Y-111348781D01*
X139209353Y-111348781D01*
X140114115Y-111348781D02*
X139542686Y-111348781D01*
X139828400Y-111348781D02*
X139828400Y-110348781D01*
X139733162Y-110491638D01*
X139637924Y-110586876D01*
X139542686Y-110634495D01*
X71969334Y-82367381D02*
X71636000Y-81891190D01*
X71397905Y-82367381D02*
X71397905Y-81367381D01*
X71778858Y-81367381D01*
X71874096Y-81415000D01*
X71921715Y-81462619D01*
X71969334Y-81557857D01*
X71969334Y-81700714D01*
X71921715Y-81795952D01*
X71874096Y-81843571D01*
X71778858Y-81891190D01*
X71397905Y-81891190D01*
X72350286Y-81462619D02*
X72397905Y-81415000D01*
X72493143Y-81367381D01*
X72731239Y-81367381D01*
X72826477Y-81415000D01*
X72874096Y-81462619D01*
X72921715Y-81557857D01*
X72921715Y-81653095D01*
X72874096Y-81795952D01*
X72302667Y-82367381D01*
X72921715Y-82367381D01*
X71207334Y-97607381D02*
X70874000Y-97131190D01*
X70635905Y-97607381D02*
X70635905Y-96607381D01*
X71016858Y-96607381D01*
X71112096Y-96655000D01*
X71159715Y-96702619D01*
X71207334Y-96797857D01*
X71207334Y-96940714D01*
X71159715Y-97035952D01*
X71112096Y-97083571D01*
X71016858Y-97131190D01*
X70635905Y-97131190D01*
X71540667Y-96607381D02*
X72159715Y-96607381D01*
X71826381Y-96988333D01*
X71969239Y-96988333D01*
X72064477Y-97035952D01*
X72112096Y-97083571D01*
X72159715Y-97178810D01*
X72159715Y-97416905D01*
X72112096Y-97512143D01*
X72064477Y-97559762D01*
X71969239Y-97607381D01*
X71683524Y-97607381D01*
X71588286Y-97559762D01*
X71540667Y-97512143D01*
X71207334Y-102687381D02*
X70874000Y-102211190D01*
X70635905Y-102687381D02*
X70635905Y-101687381D01*
X71016858Y-101687381D01*
X71112096Y-101735000D01*
X71159715Y-101782619D01*
X71207334Y-101877857D01*
X71207334Y-102020714D01*
X71159715Y-102115952D01*
X71112096Y-102163571D01*
X71016858Y-102211190D01*
X70635905Y-102211190D01*
X72064477Y-102020714D02*
X72064477Y-102687381D01*
X71826381Y-101639762D02*
X71588286Y-102354048D01*
X72207334Y-102354048D01*
X71207334Y-100147381D02*
X70874000Y-99671190D01*
X70635905Y-100147381D02*
X70635905Y-99147381D01*
X71016858Y-99147381D01*
X71112096Y-99195000D01*
X71159715Y-99242619D01*
X71207334Y-99337857D01*
X71207334Y-99480714D01*
X71159715Y-99575952D01*
X71112096Y-99623571D01*
X71016858Y-99671190D01*
X70635905Y-99671190D01*
X72112096Y-99147381D02*
X71635905Y-99147381D01*
X71588286Y-99623571D01*
X71635905Y-99575952D01*
X71731143Y-99528333D01*
X71969239Y-99528333D01*
X72064477Y-99575952D01*
X72112096Y-99623571D01*
X72159715Y-99718810D01*
X72159715Y-99956905D01*
X72112096Y-100052143D01*
X72064477Y-100099762D01*
X71969239Y-100147381D01*
X71731143Y-100147381D01*
X71635905Y-100099762D01*
X71588286Y-100052143D01*
X118959334Y-103957381D02*
X118626000Y-103481190D01*
X118387905Y-103957381D02*
X118387905Y-102957381D01*
X118768858Y-102957381D01*
X118864096Y-103005000D01*
X118911715Y-103052619D01*
X118959334Y-103147857D01*
X118959334Y-103290714D01*
X118911715Y-103385952D01*
X118864096Y-103433571D01*
X118768858Y-103481190D01*
X118387905Y-103481190D01*
X119816477Y-102957381D02*
X119626000Y-102957381D01*
X119530762Y-103005000D01*
X119483143Y-103052619D01*
X119387905Y-103195476D01*
X119340286Y-103385952D01*
X119340286Y-103766905D01*
X119387905Y-103862143D01*
X119435524Y-103909762D01*
X119530762Y-103957381D01*
X119721239Y-103957381D01*
X119816477Y-103909762D01*
X119864096Y-103862143D01*
X119911715Y-103766905D01*
X119911715Y-103528810D01*
X119864096Y-103433571D01*
X119816477Y-103385952D01*
X119721239Y-103338333D01*
X119530762Y-103338333D01*
X119435524Y-103385952D01*
X119387905Y-103433571D01*
X119340286Y-103528810D01*
X141819334Y-88717381D02*
X141486000Y-88241190D01*
X141247905Y-88717381D02*
X141247905Y-87717381D01*
X141628858Y-87717381D01*
X141724096Y-87765000D01*
X141771715Y-87812619D01*
X141819334Y-87907857D01*
X141819334Y-88050714D01*
X141771715Y-88145952D01*
X141724096Y-88193571D01*
X141628858Y-88241190D01*
X141247905Y-88241190D01*
X142152667Y-87717381D02*
X142819334Y-87717381D01*
X142390762Y-88717381D01*
X139787334Y-96337381D02*
X139454000Y-95861190D01*
X139215905Y-96337381D02*
X139215905Y-95337381D01*
X139596858Y-95337381D01*
X139692096Y-95385000D01*
X139739715Y-95432619D01*
X139787334Y-95527857D01*
X139787334Y-95670714D01*
X139739715Y-95765952D01*
X139692096Y-95813571D01*
X139596858Y-95861190D01*
X139215905Y-95861190D01*
X140358762Y-95765952D02*
X140263524Y-95718333D01*
X140215905Y-95670714D01*
X140168286Y-95575476D01*
X140168286Y-95527857D01*
X140215905Y-95432619D01*
X140263524Y-95385000D01*
X140358762Y-95337381D01*
X140549239Y-95337381D01*
X140644477Y-95385000D01*
X140692096Y-95432619D01*
X140739715Y-95527857D01*
X140739715Y-95575476D01*
X140692096Y-95670714D01*
X140644477Y-95718333D01*
X140549239Y-95765952D01*
X140358762Y-95765952D01*
X140263524Y-95813571D01*
X140215905Y-95861190D01*
X140168286Y-95956429D01*
X140168286Y-96146905D01*
X140215905Y-96242143D01*
X140263524Y-96289762D01*
X140358762Y-96337381D01*
X140549239Y-96337381D01*
X140644477Y-96289762D01*
X140692096Y-96242143D01*
X140739715Y-96146905D01*
X140739715Y-95956429D01*
X140692096Y-95861190D01*
X140644477Y-95813571D01*
X140549239Y-95765952D01*
X99944822Y-99935825D02*
X99992441Y-99792968D01*
X99992441Y-99554872D01*
X99944822Y-99459634D01*
X99897203Y-99412015D01*
X99801965Y-99364396D01*
X99706727Y-99364396D01*
X99611489Y-99412015D01*
X99563870Y-99459634D01*
X99516250Y-99554872D01*
X99468631Y-99745349D01*
X99421012Y-99840587D01*
X99373393Y-99888206D01*
X99278155Y-99935825D01*
X99182917Y-99935825D01*
X99087679Y-99888206D01*
X99040060Y-99840587D01*
X98992441Y-99745349D01*
X98992441Y-99507253D01*
X99040060Y-99364396D01*
X99992441Y-98935825D02*
X98992441Y-98935825D01*
X98992441Y-98554872D01*
X99040060Y-98459634D01*
X99087679Y-98412015D01*
X99182917Y-98364396D01*
X99325774Y-98364396D01*
X99421012Y-98412015D01*
X99468631Y-98459634D01*
X99516250Y-98554872D01*
X99516250Y-98935825D01*
X99992441Y-97412015D02*
X99992441Y-97983444D01*
X99992441Y-97697730D02*
X98992441Y-97697730D01*
X99135298Y-97792968D01*
X99230536Y-97888206D01*
X99278155Y-97983444D01*
X140084762Y-94845000D02*
X140132381Y-94702143D01*
X140132381Y-94464047D01*
X140084762Y-94368809D01*
X140037143Y-94321190D01*
X139941905Y-94273571D01*
X139846667Y-94273571D01*
X139751429Y-94321190D01*
X139703810Y-94368809D01*
X139656190Y-94464047D01*
X139608571Y-94654524D01*
X139560952Y-94749762D01*
X139513333Y-94797381D01*
X139418095Y-94845000D01*
X139322857Y-94845000D01*
X139227619Y-94797381D01*
X139180000Y-94749762D01*
X139132381Y-94654524D01*
X139132381Y-94416428D01*
X139180000Y-94273571D01*
X140132381Y-93845000D02*
X139132381Y-93845000D01*
X139132381Y-93464047D01*
X139180000Y-93368809D01*
X139227619Y-93321190D01*
X139322857Y-93273571D01*
X139465714Y-93273571D01*
X139560952Y-93321190D01*
X139608571Y-93368809D01*
X139656190Y-93464047D01*
X139656190Y-93845000D01*
X140132381Y-92845000D02*
X139132381Y-92845000D01*
X140132381Y-91845000D02*
X140132381Y-92416429D01*
X140132381Y-92130715D02*
X139132381Y-92130715D01*
X139275238Y-92225953D01*
X139370476Y-92321191D01*
X139418095Y-92416429D01*
X132959762Y-112458333D02*
X133007381Y-112315476D01*
X133007381Y-112077380D01*
X132959762Y-111982142D01*
X132912143Y-111934523D01*
X132816905Y-111886904D01*
X132721667Y-111886904D01*
X132626429Y-111934523D01*
X132578810Y-111982142D01*
X132531190Y-112077380D01*
X132483571Y-112267857D01*
X132435952Y-112363095D01*
X132388333Y-112410714D01*
X132293095Y-112458333D01*
X132197857Y-112458333D01*
X132102619Y-112410714D01*
X132055000Y-112363095D01*
X132007381Y-112267857D01*
X132007381Y-112029761D01*
X132055000Y-111886904D01*
X132007381Y-111553571D02*
X133007381Y-111315476D01*
X132293095Y-111124999D01*
X133007381Y-110934523D01*
X132007381Y-110696428D01*
X132102619Y-110363095D02*
X132055000Y-110315476D01*
X132007381Y-110220238D01*
X132007381Y-109982142D01*
X132055000Y-109886904D01*
X132102619Y-109839285D01*
X132197857Y-109791666D01*
X132293095Y-109791666D01*
X132435952Y-109839285D01*
X133007381Y-110410714D01*
X133007381Y-109791666D01*
X145986667Y-107719762D02*
X146129524Y-107767381D01*
X146367620Y-107767381D01*
X146462858Y-107719762D01*
X146510477Y-107672143D01*
X146558096Y-107576905D01*
X146558096Y-107481667D01*
X146510477Y-107386429D01*
X146462858Y-107338810D01*
X146367620Y-107291190D01*
X146177143Y-107243571D01*
X146081905Y-107195952D01*
X146034286Y-107148333D01*
X145986667Y-107053095D01*
X145986667Y-106957857D01*
X146034286Y-106862619D01*
X146081905Y-106815000D01*
X146177143Y-106767381D01*
X146415239Y-106767381D01*
X146558096Y-106815000D01*
X146891429Y-106767381D02*
X147129524Y-107767381D01*
X147320001Y-107053095D01*
X147510477Y-107767381D01*
X147748572Y-106767381D01*
X148653334Y-107767381D02*
X148081905Y-107767381D01*
X148367619Y-107767381D02*
X148367619Y-106767381D01*
X148272381Y-106910238D01*
X148177143Y-107005476D01*
X148081905Y-107053095D01*
X116054286Y-107243571D02*
X116197143Y-107291190D01*
X116244762Y-107338810D01*
X116292381Y-107434048D01*
X116292381Y-107576905D01*
X116244762Y-107672143D01*
X116197143Y-107719762D01*
X116101905Y-107767381D01*
X115720952Y-107767381D01*
X115720952Y-106767381D01*
X116054286Y-106767381D01*
X116149524Y-106815000D01*
X116197143Y-106862619D01*
X116244762Y-106957857D01*
X116244762Y-107053095D01*
X116197143Y-107148333D01*
X116149524Y-107195952D01*
X116054286Y-107243571D01*
X115720952Y-107243571D01*
X116578095Y-106767381D02*
X117149524Y-106767381D01*
X116863809Y-107767381D02*
X116863809Y-106767381D01*
X118006667Y-107767381D02*
X117435238Y-107767381D01*
X117720952Y-107767381D02*
X117720952Y-106767381D01*
X117625714Y-106910238D01*
X117530476Y-107005476D01*
X117435238Y-107053095D01*
X146510476Y-111577381D02*
X146510476Y-110577381D01*
X146843810Y-111291667D01*
X147177143Y-110577381D01*
X147177143Y-111577381D01*
X148177143Y-111577381D02*
X147605714Y-111577381D01*
X147891428Y-111577381D02*
X147891428Y-110577381D01*
X147796190Y-110720238D01*
X147700952Y-110815476D01*
X147605714Y-110863095D01*
X118362505Y-106751381D02*
X118362505Y-105751381D01*
X118600600Y-105751381D01*
X118743458Y-105799000D01*
X118838696Y-105894238D01*
X118886315Y-105989476D01*
X118933934Y-106179952D01*
X118933934Y-106322810D01*
X118886315Y-106513286D01*
X118838696Y-106608524D01*
X118743458Y-106703762D01*
X118600600Y-106751381D01*
X118362505Y-106751381D01*
X119267267Y-105751381D02*
X119886315Y-105751381D01*
X119552981Y-106132333D01*
X119695839Y-106132333D01*
X119791077Y-106179952D01*
X119838696Y-106227571D01*
X119886315Y-106322810D01*
X119886315Y-106560905D01*
X119838696Y-106656143D01*
X119791077Y-106703762D01*
X119695839Y-106751381D01*
X119410124Y-106751381D01*
X119314886Y-106703762D01*
X119267267Y-106656143D01*
X136402381Y-84788333D02*
X137116667Y-84788333D01*
X137259524Y-84835953D01*
X137354762Y-84931191D01*
X137402381Y-85074048D01*
X137402381Y-85169286D01*
X137402381Y-83788333D02*
X137402381Y-84359762D01*
X137402381Y-84074048D02*
X136402381Y-84074048D01*
X136545238Y-84169286D01*
X136640476Y-84264524D01*
X136688095Y-84359762D01*
X127751381Y-92216266D02*
X127275190Y-92549600D01*
X127751381Y-92787695D02*
X126751381Y-92787695D01*
X126751381Y-92406742D01*
X126799000Y-92311504D01*
X126846619Y-92263885D01*
X126941857Y-92216266D01*
X127084714Y-92216266D01*
X127179952Y-92263885D01*
X127227571Y-92311504D01*
X127275190Y-92406742D01*
X127275190Y-92787695D01*
X127751381Y-91740076D02*
X127751381Y-91549600D01*
X127703762Y-91454361D01*
X127656143Y-91406742D01*
X127513286Y-91311504D01*
X127322810Y-91263885D01*
X126941857Y-91263885D01*
X126846619Y-91311504D01*
X126799000Y-91359123D01*
X126751381Y-91454361D01*
X126751381Y-91644838D01*
X126799000Y-91740076D01*
X126846619Y-91787695D01*
X126941857Y-91835314D01*
X127179952Y-91835314D01*
X127275190Y-91787695D01*
X127322810Y-91740076D01*
X127370429Y-91644838D01*
X127370429Y-91454361D01*
X127322810Y-91359123D01*
X127275190Y-91311504D01*
X127179952Y-91263885D01*
X129312381Y-92717857D02*
X128836190Y-93051191D01*
X129312381Y-93289286D02*
X128312381Y-93289286D01*
X128312381Y-92908333D01*
X128360000Y-92813095D01*
X128407619Y-92765476D01*
X128502857Y-92717857D01*
X128645714Y-92717857D01*
X128740952Y-92765476D01*
X128788571Y-92813095D01*
X128836190Y-92908333D01*
X128836190Y-93289286D01*
X129312381Y-91765476D02*
X129312381Y-92336905D01*
X129312381Y-92051191D02*
X128312381Y-92051191D01*
X128455238Y-92146429D01*
X128550476Y-92241667D01*
X128598095Y-92336905D01*
X128312381Y-91146429D02*
X128312381Y-91051190D01*
X128360000Y-90955952D01*
X128407619Y-90908333D01*
X128502857Y-90860714D01*
X128693333Y-90813095D01*
X128931429Y-90813095D01*
X129121905Y-90860714D01*
X129217143Y-90908333D01*
X129264762Y-90955952D01*
X129312381Y-91051190D01*
X129312381Y-91146429D01*
X129264762Y-91241667D01*
X129217143Y-91289286D01*
X129121905Y-91336905D01*
X128931429Y-91384524D01*
X128693333Y-91384524D01*
X128502857Y-91336905D01*
X128407619Y-91289286D01*
X128360000Y-91241667D01*
X128312381Y-91146429D01*
X123052381Y-92717857D02*
X122576190Y-93051191D01*
X123052381Y-93289286D02*
X122052381Y-93289286D01*
X122052381Y-92908333D01*
X122100000Y-92813095D01*
X122147619Y-92765476D01*
X122242857Y-92717857D01*
X122385714Y-92717857D01*
X122480952Y-92765476D01*
X122528571Y-92813095D01*
X122576190Y-92908333D01*
X122576190Y-93289286D01*
X123052381Y-91765476D02*
X123052381Y-92336905D01*
X123052381Y-92051191D02*
X122052381Y-92051191D01*
X122195238Y-92146429D01*
X122290476Y-92241667D01*
X122338095Y-92336905D01*
X123052381Y-90813095D02*
X123052381Y-91384524D01*
X123052381Y-91098810D02*
X122052381Y-91098810D01*
X122195238Y-91194048D01*
X122290476Y-91289286D01*
X122338095Y-91384524D01*
X133203334Y-94722143D02*
X133155715Y-94769762D01*
X133012858Y-94817381D01*
X132917620Y-94817381D01*
X132774762Y-94769762D01*
X132679524Y-94674524D01*
X132631905Y-94579286D01*
X132584286Y-94388810D01*
X132584286Y-94245952D01*
X132631905Y-94055476D01*
X132679524Y-93960238D01*
X132774762Y-93865000D01*
X132917620Y-93817381D01*
X133012858Y-93817381D01*
X133155715Y-93865000D01*
X133203334Y-93912619D01*
X133536667Y-93817381D02*
X134155715Y-93817381D01*
X133822381Y-94198333D01*
X133965239Y-94198333D01*
X134060477Y-94245952D01*
X134108096Y-94293571D01*
X134155715Y-94388810D01*
X134155715Y-94626905D01*
X134108096Y-94722143D01*
X134060477Y-94769762D01*
X133965239Y-94817381D01*
X133679524Y-94817381D01*
X133584286Y-94769762D01*
X133536667Y-94722143D01*
M02*
