M48
;DRILL file {KiCad 4.0.7-e2-6376~58~ubuntu14.04.1} date Tue Jan 30 14:29:22 2018
;FORMAT={-:-/ absolute / inch / decimal}
FMAT,2
INCH,TZ
T1C0.016
T2C0.028
T3C0.030
T4C0.031
T5C0.032
T6C0.032
T7C0.039
T8C0.039
T9C0.040
%
G90
G05
M72
T1
X2.715Y-3.755
X3.025Y-3.85
X3.6Y-3.47
X3.69Y-3.47
X4.385Y-3.88
X4.475Y-3.79
X4.675Y-4.
X4.705Y-3.88
X4.775Y-4.
X4.805Y-3.88
X4.885Y-3.935
X4.905Y-3.47
X4.93Y-3.935
X4.97Y-3.85
X5.Y-3.475
X5.09Y-4.15
X5.33Y-3.945
X5.405Y-4.205
X5.43Y-3.835
X5.445Y-3.565
X5.465Y-3.85
X5.565Y-3.95
X5.585Y-3.85
X5.805Y-3.955
X5.83Y-3.835
T2
X4.9Y-3.575
X4.9Y-3.675
X5.Y-3.575
X5.Y-3.675
X5.085Y-3.574
X5.085Y-3.674
T3
X2.65Y-3.725
X2.65Y-3.775
X2.65Y-3.825
X2.65Y-3.875
X4.825Y-4.375
X5.125Y-4.375
T4
X2.85Y-3.425
X2.85Y-3.525
X2.85Y-3.625
X4.6Y-3.775
X4.6Y-4.075
X4.7Y-3.775
X4.7Y-4.075
X4.8Y-3.775
X4.8Y-4.075
X4.9Y-3.775
X4.9Y-4.075
X5.Y-3.775
X5.Y-4.075
X5.1Y-3.775
X5.1Y-4.075
X5.2Y-3.775
X5.2Y-4.075
X5.2016Y-3.575
X5.3Y-3.575
X5.3Y-3.775
X5.3Y-4.075
X5.3Y-4.375
X5.4Y-3.775
X5.4Y-4.075
X5.5Y-3.775
X5.5Y-4.075
X5.6Y-3.775
X5.6Y-4.075
X5.617Y-4.377
X5.7Y-3.775
X5.7Y-4.075
X5.8Y-3.775
X5.8Y-4.075
X5.9Y-3.775
X5.9Y-4.075
T5
X4.525Y-4.375
X4.675Y-4.375
X5.3499Y-4.216
X5.3984Y-4.375
X5.5186Y-4.377
X5.5421Y-4.216
X5.725Y-4.225
X5.725Y-4.375
X5.875Y-4.225
X5.875Y-4.375
T6
X2.75Y-3.325
X2.8Y-3.725
X2.8Y-3.825
X2.8Y-3.925
X2.85Y-3.325
X2.9Y-3.725
X2.9Y-3.825
X2.9Y-3.925
X4.599Y-4.285
X4.6Y-4.175
X4.699Y-4.285
X4.7Y-4.175
X5.5Y-3.575
X5.5Y-3.675
X5.6Y-3.575
X5.6Y-3.675
T7
X5.Y-3.275
X5.Y-3.375
X5.1Y-3.275
X5.1Y-3.375
X5.2Y-3.275
X5.2Y-3.375
X5.3Y-3.275
X5.3Y-3.375
T8
X2.65Y-3.45
X2.65Y-3.55
X3.85Y-3.675
X3.85Y-4.075
T9
X5.7Y-3.575
X5.7Y-3.675
X5.8Y-3.575
X5.8Y-3.675
X5.9Y-3.575
X5.9Y-3.675
X6.1Y-3.675
X6.1Y-3.775
X6.1Y-3.875
X6.1Y-3.975
X6.1Y-4.075
X6.2Y-3.675
X6.2Y-3.775
X6.2Y-3.875
X6.2Y-3.975
X6.2Y-4.075
T0
M30
