M48
;DRILL file {KiCad 4.0.7-e2-6376~58~ubuntu14.04.1} date Tue Feb 20 14:15:58 2018
;FORMAT={-:-/ absolute / metric / decimal}
FMAT,2
METRIC,TZ
T1C0.520
T2C0.750
T3C0.800
T4C0.900
T5C1.000
T6C3.200
%
G90
G05
M71
T1
X121.666Y-102.743
X127.254Y-87.655
X130.81Y-89.852
X130.81Y-90.805
X130.81Y-95.631
X130.81Y-96.584
X134.493Y-96.52
X136.144Y-98.044
X137.033Y-87.122
X138.112Y-85.471
X138.557Y-94.488
X138.811Y-86.868
X139.573Y-94.107
X139.7Y-101.727
X140.779Y-90.424
X143.065Y-107.124
X144.399Y-97.79
X145.415Y-100.076
X145.542Y-83.693
X146.05Y-90.424
X146.914Y-93.904
X149.301Y-94.463
X159.258Y-94.742
X160.02Y-91.186
X160.02Y-93.345
T2
X132.715Y-104.775
X134.715Y-104.775
T3
X140.789Y-104.775
X145.669Y-104.775
T4
X117.475Y-97.79
X117.475Y-100.33
X117.475Y-102.87
X117.475Y-104.14
X117.475Y-105.41
X117.475Y-106.68
T5
X121.92Y-81.915
X121.92Y-89.515
X128.676Y-102.235
X128.676Y-104.775
X128.676Y-107.315
X136.525Y-79.375
X136.525Y-81.915
X139.065Y-79.375
X139.065Y-81.915
X141.605Y-79.375
X141.605Y-81.915
X144.145Y-79.375
X144.145Y-81.915
X150.495Y-79.375
X150.495Y-81.915
X153.035Y-79.375
X153.035Y-81.915
X153.035Y-103.505
X153.035Y-106.045
X155.575Y-79.375
X155.575Y-81.915
X155.575Y-103.505
X155.575Y-106.045
X163.195Y-87.63
X163.195Y-90.4
X163.195Y-93.17
X163.195Y-95.94
X163.195Y-98.71
X166.035Y-89.015
X166.035Y-91.785
X166.035Y-94.555
X166.035Y-97.325
T6
X163.495Y-80.67
X163.495Y-105.67
T0
M30
