G04 #@! TF.FileFunction,Soldermask,Bot*
%FSLAX46Y46*%
G04 Gerber Fmt 4.6, Leading zero omitted, Abs format (unit mm)*
G04 Created by KiCad (PCBNEW 4.0.7-e2-6376~58~ubuntu14.04.1) date Sat Feb  3 00:25:04 2018*
%MOMM*%
%LPD*%
G01*
G04 APERTURE LIST*
%ADD10C,0.100000*%
%ADD11C,2.398980*%
%ADD12R,1.150000X1.600000*%
%ADD13R,1.200000X1.400000*%
%ADD14R,2.100000X2.100000*%
%ADD15O,2.100000X2.100000*%
%ADD16R,2.000000X2.000000*%
%ADD17C,2.000000*%
%ADD18C,4.400000*%
%ADD19C,1.900000*%
%ADD20R,1.300000X1.600000*%
%ADD21R,1.300000X1.300000*%
%ADD22R,1.470000X2.200000*%
%ADD23O,1.470000X2.200000*%
%ADD24R,2.200000X2.200000*%
%ADD25C,2.200000*%
%ADD26R,2.400000X2.400000*%
%ADD27C,2.400000*%
G04 APERTURE END LIST*
D10*
D11*
X121920000Y-106045000D03*
X125730000Y-106045000D03*
D12*
X139700000Y-104079000D03*
X139700000Y-105979000D03*
X141224000Y-105979000D03*
X141224000Y-104079000D03*
D13*
X131253000Y-91968000D03*
X131253000Y-94468000D03*
X132653000Y-94468000D03*
X132653000Y-91968000D03*
D14*
X144145000Y-79375000D03*
D15*
X144145000Y-81915000D03*
X141605000Y-79375000D03*
X141605000Y-81915000D03*
X139065000Y-79375000D03*
X139065000Y-81915000D03*
X136525000Y-79375000D03*
X136525000Y-81915000D03*
D16*
X163195000Y-87630000D03*
D17*
X163195000Y-90400000D03*
X163195000Y-93170000D03*
X163195000Y-95940000D03*
X163195000Y-98710000D03*
X166035000Y-89015000D03*
X166035000Y-91785000D03*
X166035000Y-94555000D03*
X166035000Y-97325000D03*
D18*
X163495000Y-105670000D03*
X163495000Y-80670000D03*
D11*
X155575000Y-103505000D03*
X151765000Y-103505000D03*
D19*
X142875000Y-104775000D03*
X137995000Y-104775000D03*
D20*
X134366000Y-80983000D03*
X134366000Y-78783000D03*
X146304000Y-80983000D03*
X146304000Y-78783000D03*
D21*
X158472000Y-91472000D03*
X158472000Y-95472000D03*
X158472000Y-92812000D03*
X158472000Y-94132000D03*
X155472000Y-92812000D03*
X155472000Y-91472000D03*
X155472000Y-95472000D03*
X155472000Y-94132000D03*
D11*
X155575000Y-106045000D03*
X151765000Y-106045000D03*
D22*
X79248000Y-124714000D03*
D23*
X80518000Y-124714000D03*
X81788000Y-124714000D03*
X83058000Y-124714000D03*
D14*
X150495000Y-81915000D03*
D15*
X150495000Y-79375000D03*
X153035000Y-81915000D03*
X153035000Y-79375000D03*
X155575000Y-81915000D03*
X155575000Y-79375000D03*
D24*
X88900000Y-123825000D03*
D25*
X91440000Y-123825000D03*
D14*
X79248000Y-124714000D03*
D15*
X79248000Y-127254000D03*
X79248000Y-129794000D03*
D26*
X123825000Y-81915000D03*
D27*
X123825000Y-89515000D03*
M02*
