G04 #@! TF.GenerationSoftware,KiCad,Pcbnew,5.0.2+dfsg1-1*
G04 #@! TF.CreationDate,2021-06-22T16:41:51+02:00*
G04 #@! TF.ProjectId,MainBoard,4d61696e-426f-4617-9264-2e6b69636164,rev?*
G04 #@! TF.SameCoordinates,Original*
G04 #@! TF.FileFunction,Legend,Bot*
G04 #@! TF.FilePolarity,Positive*
%FSLAX46Y46*%
G04 Gerber Fmt 4.6, Leading zero omitted, Abs format (unit mm)*
G04 Created by KiCad (PCBNEW 5.0.2+dfsg1-1) date Tue 22 Jun 2021 16:41:51 CEST*
%MOMM*%
%LPD*%
G01*
G04 APERTURE LIST*
%ADD10C,0.170000*%
%ADD11C,0.230000*%
%ADD12C,0.120000*%
%ADD13C,0.150000*%
%ADD14C,0.010000*%
G04 APERTURE END LIST*
D10*
X72889904Y-81002142D02*
X72937523Y-81049761D01*
X73080380Y-81097380D01*
X73175619Y-81097380D01*
X73318476Y-81049761D01*
X73413714Y-80954523D01*
X73461333Y-80859285D01*
X73508952Y-80668809D01*
X73508952Y-80525952D01*
X73461333Y-80335476D01*
X73413714Y-80240238D01*
X73318476Y-80145000D01*
X73175619Y-80097380D01*
X73080380Y-80097380D01*
X72937523Y-80145000D01*
X72889904Y-80192619D01*
X72270857Y-80097380D02*
X72080380Y-80097380D01*
X71985142Y-80145000D01*
X71889904Y-80240238D01*
X71842285Y-80430714D01*
X71842285Y-80764047D01*
X71889904Y-80954523D01*
X71985142Y-81049761D01*
X72080380Y-81097380D01*
X72270857Y-81097380D01*
X72366095Y-81049761D01*
X72461333Y-80954523D01*
X72508952Y-80764047D01*
X72508952Y-80430714D01*
X72461333Y-80240238D01*
X72366095Y-80145000D01*
X72270857Y-80097380D01*
X71413714Y-81097380D02*
X71413714Y-80097380D01*
X70842285Y-81097380D01*
X70842285Y-80097380D01*
X70366095Y-81097380D02*
X70366095Y-80097380D01*
X69794666Y-81097380D01*
X69794666Y-80097380D01*
X81994285Y-81129142D02*
X82041904Y-81176761D01*
X82184761Y-81224380D01*
X82280000Y-81224380D01*
X82422857Y-81176761D01*
X82518095Y-81081523D01*
X82565714Y-80986285D01*
X82613333Y-80795809D01*
X82613333Y-80652952D01*
X82565714Y-80462476D01*
X82518095Y-80367238D01*
X82422857Y-80272000D01*
X82280000Y-80224380D01*
X82184761Y-80224380D01*
X82041904Y-80272000D01*
X81994285Y-80319619D01*
X81565714Y-81224380D02*
X81565714Y-80224380D01*
X81565714Y-80700571D02*
X80994285Y-80700571D01*
X80994285Y-81224380D02*
X80994285Y-80224380D01*
X79994285Y-80272000D02*
X80089523Y-80224380D01*
X80232380Y-80224380D01*
X80375238Y-80272000D01*
X80470476Y-80367238D01*
X80518095Y-80462476D01*
X80565714Y-80652952D01*
X80565714Y-80795809D01*
X80518095Y-80986285D01*
X80470476Y-81081523D01*
X80375238Y-81176761D01*
X80232380Y-81224380D01*
X80137142Y-81224380D01*
X79994285Y-81176761D01*
X79946666Y-81129142D01*
X79946666Y-80795809D01*
X80137142Y-80795809D01*
D11*
X96719566Y-92102371D02*
X97052900Y-92102371D01*
X97052900Y-92626180D02*
X97052900Y-91626180D01*
X96576709Y-91626180D01*
X96052900Y-92626180D02*
X96148138Y-92578561D01*
X96195757Y-92530942D01*
X96243376Y-92435704D01*
X96243376Y-92149990D01*
X96195757Y-92054752D01*
X96148138Y-92007133D01*
X96052900Y-91959514D01*
X95910042Y-91959514D01*
X95814804Y-92007133D01*
X95767185Y-92054752D01*
X95719566Y-92149990D01*
X95719566Y-92435704D01*
X95767185Y-92530942D01*
X95814804Y-92578561D01*
X95910042Y-92626180D01*
X96052900Y-92626180D01*
X95148138Y-92626180D02*
X95243376Y-92578561D01*
X95290995Y-92483323D01*
X95290995Y-91626180D01*
X94624328Y-92626180D02*
X94719566Y-92578561D01*
X94767185Y-92483323D01*
X94767185Y-91626180D01*
X94100519Y-92626180D02*
X94195757Y-92578561D01*
X94243376Y-92530942D01*
X94290995Y-92435704D01*
X94290995Y-92149990D01*
X94243376Y-92054752D01*
X94195757Y-92007133D01*
X94100519Y-91959514D01*
X93957661Y-91959514D01*
X93862423Y-92007133D01*
X93814804Y-92054752D01*
X93767185Y-92149990D01*
X93767185Y-92435704D01*
X93814804Y-92530942D01*
X93862423Y-92578561D01*
X93957661Y-92626180D01*
X94100519Y-92626180D01*
X93433852Y-91959514D02*
X93243376Y-92626180D01*
X93052900Y-92149990D01*
X92862423Y-92626180D01*
X92671947Y-91959514D01*
X91529090Y-92626180D02*
X91529090Y-91959514D01*
X91529090Y-92054752D02*
X91481471Y-92007133D01*
X91386233Y-91959514D01*
X91243376Y-91959514D01*
X91148138Y-92007133D01*
X91100519Y-92102371D01*
X91100519Y-92626180D01*
X91100519Y-92102371D02*
X91052900Y-92007133D01*
X90957661Y-91959514D01*
X90814804Y-91959514D01*
X90719566Y-92007133D01*
X90671947Y-92102371D01*
X90671947Y-92626180D01*
X89814804Y-92578561D02*
X89910042Y-92626180D01*
X90100519Y-92626180D01*
X90195757Y-92578561D01*
X90243376Y-92483323D01*
X90243376Y-92102371D01*
X90195757Y-92007133D01*
X90100519Y-91959514D01*
X89910042Y-91959514D01*
X89814804Y-92007133D01*
X89767185Y-92102371D01*
X89767185Y-92197609D01*
X90243376Y-92292847D01*
X97767185Y-94356180D02*
X97862423Y-94308561D01*
X97910042Y-94260942D01*
X97957661Y-94165704D01*
X97957661Y-93879990D01*
X97910042Y-93784752D01*
X97862423Y-93737133D01*
X97767185Y-93689514D01*
X97624328Y-93689514D01*
X97529090Y-93737133D01*
X97481471Y-93784752D01*
X97433852Y-93879990D01*
X97433852Y-94165704D01*
X97481471Y-94260942D01*
X97529090Y-94308561D01*
X97624328Y-94356180D01*
X97767185Y-94356180D01*
X97005280Y-93689514D02*
X97005280Y-94356180D01*
X97005280Y-93784752D02*
X96957661Y-93737133D01*
X96862423Y-93689514D01*
X96719566Y-93689514D01*
X96624328Y-93737133D01*
X96576709Y-93832371D01*
X96576709Y-94356180D01*
X95338614Y-94356180D02*
X95338614Y-93356180D01*
X95338614Y-93832371D02*
X94767185Y-93832371D01*
X94767185Y-94356180D02*
X94767185Y-93356180D01*
X93862423Y-94356180D02*
X93862423Y-93832371D01*
X93910042Y-93737133D01*
X94005280Y-93689514D01*
X94195757Y-93689514D01*
X94290995Y-93737133D01*
X93862423Y-94308561D02*
X93957661Y-94356180D01*
X94195757Y-94356180D01*
X94290995Y-94308561D01*
X94338614Y-94213323D01*
X94338614Y-94118085D01*
X94290995Y-94022847D01*
X94195757Y-93975228D01*
X93957661Y-93975228D01*
X93862423Y-93927609D01*
X92957661Y-94308561D02*
X93052900Y-94356180D01*
X93243376Y-94356180D01*
X93338614Y-94308561D01*
X93386233Y-94260942D01*
X93433852Y-94165704D01*
X93433852Y-93879990D01*
X93386233Y-93784752D01*
X93338614Y-93737133D01*
X93243376Y-93689514D01*
X93052900Y-93689514D01*
X92957661Y-93737133D01*
X92529090Y-94356180D02*
X92529090Y-93356180D01*
X92433852Y-93975228D02*
X92148138Y-94356180D01*
X92148138Y-93689514D02*
X92529090Y-94070466D01*
X91767185Y-94070466D02*
X91290995Y-94070466D01*
X91862423Y-94356180D02*
X91529090Y-93356180D01*
X91195757Y-94356180D01*
X90862423Y-94356180D02*
X90862423Y-93356180D01*
X90624328Y-93356180D01*
X90481471Y-93403800D01*
X90386233Y-93499038D01*
X90338614Y-93594276D01*
X90290995Y-93784752D01*
X90290995Y-93927609D01*
X90338614Y-94118085D01*
X90386233Y-94213323D01*
X90481471Y-94308561D01*
X90624328Y-94356180D01*
X90862423Y-94356180D01*
X89433852Y-94356180D02*
X89433852Y-93832371D01*
X89481471Y-93737133D01*
X89576709Y-93689514D01*
X89767185Y-93689514D01*
X89862423Y-93737133D01*
X89433852Y-94308561D02*
X89529090Y-94356180D01*
X89767185Y-94356180D01*
X89862423Y-94308561D01*
X89910042Y-94213323D01*
X89910042Y-94118085D01*
X89862423Y-94022847D01*
X89767185Y-93975228D01*
X89529090Y-93975228D01*
X89433852Y-93927609D01*
X89052900Y-93689514D02*
X88814804Y-94356180D01*
X88576709Y-93689514D02*
X88814804Y-94356180D01*
X88910042Y-94594276D01*
X88957661Y-94641895D01*
X89052900Y-94689514D01*
X88195757Y-94260942D02*
X88148138Y-94308561D01*
X88195757Y-94356180D01*
X88243376Y-94308561D01*
X88195757Y-94260942D01*
X88195757Y-94356180D01*
X88195757Y-93737133D02*
X88148138Y-93784752D01*
X88195757Y-93832371D01*
X88243376Y-93784752D01*
X88195757Y-93737133D01*
X88195757Y-93832371D01*
X97957661Y-96086180D02*
X97957661Y-95086180D01*
X97957661Y-95467133D02*
X97862423Y-95419514D01*
X97671947Y-95419514D01*
X97576709Y-95467133D01*
X97529090Y-95514752D01*
X97481471Y-95609990D01*
X97481471Y-95895704D01*
X97529090Y-95990942D01*
X97576709Y-96038561D01*
X97671947Y-96086180D01*
X97862423Y-96086180D01*
X97957661Y-96038561D01*
X97052900Y-96086180D02*
X97052900Y-95419514D01*
X97052900Y-95086180D02*
X97100519Y-95133800D01*
X97052900Y-95181419D01*
X97005280Y-95133800D01*
X97052900Y-95086180D01*
X97052900Y-95181419D01*
X96719566Y-95419514D02*
X96338614Y-95419514D01*
X96576709Y-95086180D02*
X96576709Y-95943323D01*
X96529090Y-96038561D01*
X96433852Y-96086180D01*
X96338614Y-96086180D01*
X96005280Y-95990942D02*
X95957661Y-96038561D01*
X96005280Y-96086180D01*
X96052900Y-96038561D01*
X96005280Y-95990942D01*
X96005280Y-96086180D01*
X95386233Y-96086180D02*
X95481471Y-96038561D01*
X95529090Y-95943323D01*
X95529090Y-95086180D01*
X95100519Y-95419514D02*
X94862423Y-96086180D01*
X94624328Y-95419514D02*
X94862423Y-96086180D01*
X94957661Y-96324276D01*
X95005280Y-96371895D01*
X95100519Y-96419514D01*
X93529090Y-95038561D02*
X94386233Y-96324276D01*
X93290995Y-95086180D02*
X92624328Y-96086180D01*
X92624328Y-95086180D02*
X93290995Y-96086180D01*
X92290995Y-95800466D02*
X91814804Y-95800466D01*
X92386233Y-96086180D02*
X92052900Y-95086180D01*
X91719566Y-96086180D01*
X91433852Y-96038561D02*
X91290995Y-96086180D01*
X91052900Y-96086180D01*
X90957661Y-96038561D01*
X90910042Y-95990942D01*
X90862423Y-95895704D01*
X90862423Y-95800466D01*
X90910042Y-95705228D01*
X90957661Y-95657609D01*
X91052900Y-95609990D01*
X91243376Y-95562371D01*
X91338614Y-95514752D01*
X91386233Y-95467133D01*
X91433852Y-95371895D01*
X91433852Y-95276657D01*
X91386233Y-95181419D01*
X91338614Y-95133800D01*
X91243376Y-95086180D01*
X91005280Y-95086180D01*
X90862423Y-95133800D01*
X89957661Y-96086180D02*
X90433852Y-96086180D01*
X90433852Y-95086180D01*
X89719566Y-95086180D02*
X89052900Y-95086180D01*
X89719566Y-96086180D01*
X89052900Y-96086180D01*
X88100519Y-96086180D02*
X88433852Y-95609990D01*
X88671947Y-96086180D02*
X88671947Y-95086180D01*
X88290995Y-95086180D01*
X88195757Y-95133800D01*
X88148138Y-95181419D01*
X88100519Y-95276657D01*
X88100519Y-95419514D01*
X88148138Y-95514752D01*
X88195757Y-95562371D01*
X88290995Y-95609990D01*
X88671947Y-95609990D01*
D12*
G04 #@! TO.C,BT1*
X102606800Y-109085200D02*
X107806800Y-109085200D01*
X107806800Y-109085200D02*
X107806800Y-111745200D01*
X107806800Y-111745200D02*
X102606800Y-111745200D01*
X102606800Y-111745200D02*
X102606800Y-109085200D01*
X103556800Y-111745200D02*
X103556800Y-117745200D01*
X103556800Y-117745200D02*
X104316800Y-117745200D01*
X104316800Y-117745200D02*
X104316800Y-111745200D01*
X103616800Y-111745200D02*
X103616800Y-117745200D01*
X103736800Y-111745200D02*
X103736800Y-117745200D01*
X103856800Y-111745200D02*
X103856800Y-117745200D01*
X103976800Y-111745200D02*
X103976800Y-117745200D01*
X104096800Y-111745200D02*
X104096800Y-117745200D01*
X104216800Y-111745200D02*
X104216800Y-117745200D01*
X103556800Y-108755200D02*
X103556800Y-109085200D01*
X104316800Y-108755200D02*
X104316800Y-109085200D01*
X105206800Y-109085200D02*
X105206800Y-111745200D01*
X106096800Y-111745200D02*
X106096800Y-117745200D01*
X106096800Y-117745200D02*
X106856800Y-117745200D01*
X106856800Y-117745200D02*
X106856800Y-111745200D01*
X106096800Y-108688129D02*
X106096800Y-109085200D01*
X106856800Y-108688129D02*
X106856800Y-109085200D01*
X103936800Y-106375200D02*
X102666800Y-106375200D01*
X102666800Y-106375200D02*
X102666800Y-107645200D01*
G04 #@! TO.C,C401*
X109836852Y-102995400D02*
X109314348Y-102995400D01*
X109836852Y-101525400D02*
X109314348Y-101525400D01*
G04 #@! TO.C,U401*
X113116000Y-107188000D02*
X113116000Y-108688000D01*
X113116000Y-107188000D02*
X113116000Y-105688000D01*
X109896000Y-107188000D02*
X109896000Y-108688000D01*
X109896000Y-107188000D02*
X109896000Y-104263000D01*
G04 #@! TO.C,R8*
X111044222Y-89002800D02*
X111561378Y-89002800D01*
X111044222Y-90422800D02*
X111561378Y-90422800D01*
G04 #@! TO.C,R9*
X113482622Y-92759600D02*
X113999778Y-92759600D01*
X113482622Y-91339600D02*
X113999778Y-91339600D01*
G04 #@! TO.C,TP1*
X79445000Y-102419000D02*
X81845000Y-102419000D01*
X81845000Y-102419000D02*
X81845000Y-100019000D01*
X81845000Y-100019000D02*
X79445000Y-100019000D01*
X79445000Y-100019000D02*
X79445000Y-102419000D01*
G04 #@! TO.C,TP2*
X73145800Y-100019000D02*
X73145800Y-102419000D01*
X75545800Y-100019000D02*
X73145800Y-100019000D01*
X75545800Y-102419000D02*
X75545800Y-100019000D01*
X73145800Y-102419000D02*
X75545800Y-102419000D01*
G04 #@! TO.C,TP3*
X76295400Y-102419000D02*
X78695400Y-102419000D01*
X78695400Y-102419000D02*
X78695400Y-100019000D01*
X78695400Y-100019000D02*
X76295400Y-100019000D01*
X76295400Y-100019000D02*
X76295400Y-102419000D01*
G04 #@! TO.C,R1*
X113431822Y-93879600D02*
X113948978Y-93879600D01*
X113431822Y-95299600D02*
X113948978Y-95299600D01*
G04 #@! TO.C,R7*
X105211378Y-89764800D02*
X104694222Y-89764800D01*
X105211378Y-91184800D02*
X104694222Y-91184800D01*
G04 #@! TO.C,C5*
X66911136Y-96414000D02*
X68115264Y-96414000D01*
X66911136Y-94594000D02*
X68115264Y-94594000D01*
G04 #@! TO.C,D8*
X94046800Y-97698200D02*
X96046800Y-97698200D01*
X96046800Y-97698200D02*
X96046800Y-101548200D01*
X94046800Y-97698200D02*
X94046800Y-101548200D01*
D13*
G04 #@! TO.C,J4*
X77528000Y-85481600D02*
X65728000Y-85481600D01*
X65728000Y-85481600D02*
X65728000Y-79381600D01*
X65728000Y-79381600D02*
X68199000Y-77825600D01*
X77528000Y-85481600D02*
X77528000Y-79381600D01*
X77528000Y-79381600D02*
X74803000Y-77698600D01*
X74813520Y-77680084D02*
G75*
G03X68199000Y-77825600I-3185520J-5606516D01*
G01*
D12*
G04 #@! TO.C,C4*
X73842378Y-94286000D02*
X73325222Y-94286000D01*
X73842378Y-95706000D02*
X73325222Y-95706000D01*
D13*
G04 #@! TO.C,AMP1*
X79704600Y-97281400D02*
X79704600Y-96781400D01*
X76454600Y-94031400D02*
X76454600Y-94531400D01*
X79704600Y-94031400D02*
X79704600Y-94531400D01*
X76454600Y-97281400D02*
X76954600Y-97281400D01*
X76454600Y-94031400D02*
X76954600Y-94031400D01*
X79704600Y-94031400D02*
X79204600Y-94031400D01*
X79704600Y-97281400D02*
X79204600Y-97281400D01*
D12*
G04 #@! TO.C,C2*
X67187578Y-98627000D02*
X66670422Y-98627000D01*
X67187578Y-97207000D02*
X66670422Y-97207000D01*
G04 #@! TO.C,C31*
X91555500Y-104262422D02*
X91555500Y-104779578D01*
X92975500Y-104262422D02*
X92975500Y-104779578D01*
G04 #@! TO.C,R6*
X68194422Y-89714000D02*
X68711578Y-89714000D01*
X68194422Y-91134000D02*
X68711578Y-91134000D01*
G04 #@! TO.C,R5*
X68168922Y-89229000D02*
X68686078Y-89229000D01*
X68168922Y-87809000D02*
X68686078Y-87809000D01*
G04 #@! TO.C,R52*
X100833422Y-106859000D02*
X101350578Y-106859000D01*
X100833422Y-108279000D02*
X101350578Y-108279000D01*
G04 #@! TO.C,C50*
X91564592Y-107564422D02*
X91564592Y-108081578D01*
X92984592Y-107564422D02*
X92984592Y-108081578D01*
G04 #@! TO.C,C52*
X82830600Y-105989622D02*
X82830600Y-106506778D01*
X84250600Y-105989622D02*
X84250600Y-106506778D01*
G04 #@! TO.C,R55*
X106125778Y-105459600D02*
X105608622Y-105459600D01*
X106125778Y-104039600D02*
X105608622Y-104039600D01*
G04 #@! TO.C,C8*
X96524578Y-86462800D02*
X96007422Y-86462800D01*
X96524578Y-87882800D02*
X96007422Y-87882800D01*
G04 #@! TO.C,C9*
X96524578Y-89864000D02*
X96007422Y-89864000D01*
X96524578Y-88444000D02*
X96007422Y-88444000D01*
G04 #@! TO.C,C19*
X70099422Y-100532000D02*
X70616578Y-100532000D01*
X70099422Y-99112000D02*
X70616578Y-99112000D01*
G04 #@! TO.C,Q6*
X85473000Y-86289000D02*
X85473000Y-85359000D01*
X85473000Y-83129000D02*
X85473000Y-84059000D01*
X85473000Y-83129000D02*
X87633000Y-83129000D01*
X85473000Y-86289000D02*
X86933000Y-86289000D01*
G04 #@! TO.C,R12*
X94032000Y-84205578D02*
X94032000Y-83688422D01*
X95452000Y-84205578D02*
X95452000Y-83688422D01*
G04 #@! TO.C,R14*
X89864000Y-85085422D02*
X89864000Y-85602578D01*
X88444000Y-85085422D02*
X88444000Y-85602578D01*
G04 #@! TO.C,R15*
X70099422Y-98627000D02*
X70616578Y-98627000D01*
X70099422Y-97207000D02*
X70616578Y-97207000D01*
G04 #@! TO.C,C3*
X73350622Y-93064400D02*
X73867778Y-93064400D01*
X73350622Y-91644400D02*
X73867778Y-91644400D01*
G04 #@! TO.C,C53*
X101849422Y-104827000D02*
X102366578Y-104827000D01*
X101849422Y-106247000D02*
X102366578Y-106247000D01*
G04 #@! TO.C,U3*
X76865600Y-90232400D02*
X76215600Y-90232400D01*
X76215600Y-90232400D02*
X76215600Y-90382400D01*
X78785600Y-92952400D02*
X79435600Y-92952400D01*
X79435600Y-92952400D02*
X79435600Y-92802400D01*
X76865600Y-92952400D02*
X76215600Y-92952400D01*
X76215600Y-92952400D02*
X76215600Y-92802400D01*
D14*
G04 #@! TO.C,H4*
G36*
X98726041Y-82401616D02*
X98752553Y-82388518D01*
X98785247Y-82365694D01*
X98809075Y-82340804D01*
X98825394Y-82309551D01*
X98835560Y-82267634D01*
X98840928Y-82210756D01*
X98842856Y-82134616D01*
X98842969Y-82101883D01*
X98842639Y-82030144D01*
X98841273Y-81978873D01*
X98838300Y-81943396D01*
X98833151Y-81919037D01*
X98825257Y-81901120D01*
X98817043Y-81888898D01*
X98764613Y-81836895D01*
X98702870Y-81805616D01*
X98636264Y-81796208D01*
X98569242Y-81809820D01*
X98548008Y-81819446D01*
X98497176Y-81845941D01*
X98497176Y-81430748D01*
X98534275Y-81449932D01*
X98583157Y-81464775D01*
X98643239Y-81468578D01*
X98703236Y-81461557D01*
X98748544Y-81445787D01*
X98786125Y-81415753D01*
X98818236Y-81372776D01*
X98820650Y-81368364D01*
X98830833Y-81347579D01*
X98838270Y-81326630D01*
X98843389Y-81301252D01*
X98846619Y-81267182D01*
X98848387Y-81220159D01*
X98849123Y-81155918D01*
X98849256Y-81083624D01*
X98849256Y-80852978D01*
X98710939Y-80852978D01*
X98710939Y-81278267D01*
X98672251Y-81310821D01*
X98632062Y-81336860D01*
X98594003Y-81341595D01*
X98555734Y-81329411D01*
X98535338Y-81317480D01*
X98520158Y-81300487D01*
X98509362Y-81274805D01*
X98502117Y-81236809D01*
X98497592Y-81182874D01*
X98494956Y-81109375D01*
X98494028Y-81060453D01*
X98490889Y-80859265D01*
X98424874Y-80855464D01*
X98358860Y-80851664D01*
X98358860Y-82100150D01*
X98497176Y-82100150D01*
X98500703Y-82030546D01*
X98512585Y-81982231D01*
X98534780Y-81952169D01*
X98569241Y-81937329D01*
X98604058Y-81934364D01*
X98643471Y-81937772D01*
X98669629Y-81951183D01*
X98685986Y-81968904D01*
X98698863Y-81987965D01*
X98706528Y-82009199D01*
X98709939Y-82038951D01*
X98710051Y-82083564D01*
X98708903Y-82120920D01*
X98706268Y-82177196D01*
X98702344Y-82214142D01*
X98695737Y-82237577D01*
X98685051Y-82253320D01*
X98674967Y-82262420D01*
X98632830Y-82282263D01*
X98582960Y-82285468D01*
X98554324Y-82278632D01*
X98525972Y-82254336D01*
X98507191Y-82207072D01*
X98498088Y-82137176D01*
X98497176Y-82100150D01*
X98358860Y-82100150D01*
X98358860Y-82412186D01*
X98428018Y-82412186D01*
X98469540Y-82410544D01*
X98490962Y-82404713D01*
X98497174Y-82393339D01*
X98497176Y-82393002D01*
X98500058Y-82381862D01*
X98512770Y-82383127D01*
X98538043Y-82395367D01*
X98596931Y-82414093D01*
X98663185Y-82416061D01*
X98726041Y-82401616D01*
X98726041Y-82401616D01*
G37*
X98726041Y-82401616D02*
X98752553Y-82388518D01*
X98785247Y-82365694D01*
X98809075Y-82340804D01*
X98825394Y-82309551D01*
X98835560Y-82267634D01*
X98840928Y-82210756D01*
X98842856Y-82134616D01*
X98842969Y-82101883D01*
X98842639Y-82030144D01*
X98841273Y-81978873D01*
X98838300Y-81943396D01*
X98833151Y-81919037D01*
X98825257Y-81901120D01*
X98817043Y-81888898D01*
X98764613Y-81836895D01*
X98702870Y-81805616D01*
X98636264Y-81796208D01*
X98569242Y-81809820D01*
X98548008Y-81819446D01*
X98497176Y-81845941D01*
X98497176Y-81430748D01*
X98534275Y-81449932D01*
X98583157Y-81464775D01*
X98643239Y-81468578D01*
X98703236Y-81461557D01*
X98748544Y-81445787D01*
X98786125Y-81415753D01*
X98818236Y-81372776D01*
X98820650Y-81368364D01*
X98830833Y-81347579D01*
X98838270Y-81326630D01*
X98843389Y-81301252D01*
X98846619Y-81267182D01*
X98848387Y-81220159D01*
X98849123Y-81155918D01*
X98849256Y-81083624D01*
X98849256Y-80852978D01*
X98710939Y-80852978D01*
X98710939Y-81278267D01*
X98672251Y-81310821D01*
X98632062Y-81336860D01*
X98594003Y-81341595D01*
X98555734Y-81329411D01*
X98535338Y-81317480D01*
X98520158Y-81300487D01*
X98509362Y-81274805D01*
X98502117Y-81236809D01*
X98497592Y-81182874D01*
X98494956Y-81109375D01*
X98494028Y-81060453D01*
X98490889Y-80859265D01*
X98424874Y-80855464D01*
X98358860Y-80851664D01*
X98358860Y-82100150D01*
X98497176Y-82100150D01*
X98500703Y-82030546D01*
X98512585Y-81982231D01*
X98534780Y-81952169D01*
X98569241Y-81937329D01*
X98604058Y-81934364D01*
X98643471Y-81937772D01*
X98669629Y-81951183D01*
X98685986Y-81968904D01*
X98698863Y-81987965D01*
X98706528Y-82009199D01*
X98709939Y-82038951D01*
X98710051Y-82083564D01*
X98708903Y-82120920D01*
X98706268Y-82177196D01*
X98702344Y-82214142D01*
X98695737Y-82237577D01*
X98685051Y-82253320D01*
X98674967Y-82262420D01*
X98632830Y-82282263D01*
X98582960Y-82285468D01*
X98554324Y-82278632D01*
X98525972Y-82254336D01*
X98507191Y-82207072D01*
X98498088Y-82137176D01*
X98497176Y-82100150D01*
X98358860Y-82100150D01*
X98358860Y-82412186D01*
X98428018Y-82412186D01*
X98469540Y-82410544D01*
X98490962Y-82404713D01*
X98497174Y-82393339D01*
X98497176Y-82393002D01*
X98500058Y-82381862D01*
X98512770Y-82383127D01*
X98538043Y-82395367D01*
X98596931Y-82414093D01*
X98663185Y-82416061D01*
X98726041Y-82401616D01*
G36*
X99250590Y-81464245D02*
X99309745Y-81448461D01*
X99354777Y-81419852D01*
X99386554Y-81382381D01*
X99396434Y-81366389D01*
X99403727Y-81349637D01*
X99408826Y-81328208D01*
X99412121Y-81298184D01*
X99414003Y-81255646D01*
X99414863Y-81196678D01*
X99415093Y-81117360D01*
X99415097Y-81096316D01*
X99415097Y-80852978D01*
X99354741Y-80852978D01*
X99316243Y-80855674D01*
X99287777Y-80862505D01*
X99280645Y-80866717D01*
X99261148Y-80873987D01*
X99241234Y-80866717D01*
X99208447Y-80857640D01*
X99160822Y-80853987D01*
X99108036Y-80855572D01*
X99059764Y-80862211D01*
X99031582Y-80870728D01*
X98977047Y-80905737D01*
X98942965Y-80954321D01*
X98927643Y-81018918D01*
X98927501Y-81020577D01*
X98928845Y-81049234D01*
X99050444Y-81049234D01*
X99061074Y-81016639D01*
X99078390Y-80998295D01*
X99113148Y-80984421D01*
X99159027Y-80978883D01*
X99205812Y-80981609D01*
X99243286Y-80992526D01*
X99253785Y-80999531D01*
X99272132Y-81031896D01*
X99276780Y-81068689D01*
X99276780Y-81117037D01*
X99207218Y-81117037D01*
X99141133Y-81111950D01*
X99091036Y-81097537D01*
X99059871Y-81075071D01*
X99050444Y-81049234D01*
X98928845Y-81049234D01*
X98930813Y-81091153D01*
X98954090Y-81146955D01*
X98997852Y-81189153D01*
X99003901Y-81192992D01*
X99029893Y-81205491D01*
X99062065Y-81213060D01*
X99107040Y-81216739D01*
X99160469Y-81217584D01*
X99276780Y-81217631D01*
X99276780Y-81266389D01*
X99271847Y-81304219D01*
X99259257Y-81329564D01*
X99257783Y-81330913D01*
X99229766Y-81342000D01*
X99187474Y-81346297D01*
X99140736Y-81344185D01*
X99099382Y-81336044D01*
X99074843Y-81323835D01*
X99061547Y-81314054D01*
X99047506Y-81312187D01*
X99028129Y-81320200D01*
X98998824Y-81340061D01*
X98954997Y-81373737D01*
X98950975Y-81376891D01*
X98953036Y-81388564D01*
X98970232Y-81407978D01*
X98996367Y-81429552D01*
X99025248Y-81447704D01*
X99034322Y-81451991D01*
X99067420Y-81460544D01*
X99115920Y-81466645D01*
X99170105Y-81469092D01*
X99172639Y-81469097D01*
X99250590Y-81464245D01*
X99250590Y-81464245D01*
G37*
X99250590Y-81464245D02*
X99309745Y-81448461D01*
X99354777Y-81419852D01*
X99386554Y-81382381D01*
X99396434Y-81366389D01*
X99403727Y-81349637D01*
X99408826Y-81328208D01*
X99412121Y-81298184D01*
X99414003Y-81255646D01*
X99414863Y-81196678D01*
X99415093Y-81117360D01*
X99415097Y-81096316D01*
X99415097Y-80852978D01*
X99354741Y-80852978D01*
X99316243Y-80855674D01*
X99287777Y-80862505D01*
X99280645Y-80866717D01*
X99261148Y-80873987D01*
X99241234Y-80866717D01*
X99208447Y-80857640D01*
X99160822Y-80853987D01*
X99108036Y-80855572D01*
X99059764Y-80862211D01*
X99031582Y-80870728D01*
X98977047Y-80905737D01*
X98942965Y-80954321D01*
X98927643Y-81018918D01*
X98927501Y-81020577D01*
X98928845Y-81049234D01*
X99050444Y-81049234D01*
X99061074Y-81016639D01*
X99078390Y-80998295D01*
X99113148Y-80984421D01*
X99159027Y-80978883D01*
X99205812Y-80981609D01*
X99243286Y-80992526D01*
X99253785Y-80999531D01*
X99272132Y-81031896D01*
X99276780Y-81068689D01*
X99276780Y-81117037D01*
X99207218Y-81117037D01*
X99141133Y-81111950D01*
X99091036Y-81097537D01*
X99059871Y-81075071D01*
X99050444Y-81049234D01*
X98928845Y-81049234D01*
X98930813Y-81091153D01*
X98954090Y-81146955D01*
X98997852Y-81189153D01*
X99003901Y-81192992D01*
X99029893Y-81205491D01*
X99062065Y-81213060D01*
X99107040Y-81216739D01*
X99160469Y-81217584D01*
X99276780Y-81217631D01*
X99276780Y-81266389D01*
X99271847Y-81304219D01*
X99259257Y-81329564D01*
X99257783Y-81330913D01*
X99229766Y-81342000D01*
X99187474Y-81346297D01*
X99140736Y-81344185D01*
X99099382Y-81336044D01*
X99074843Y-81323835D01*
X99061547Y-81314054D01*
X99047506Y-81312187D01*
X99028129Y-81320200D01*
X98998824Y-81340061D01*
X98954997Y-81373737D01*
X98950975Y-81376891D01*
X98953036Y-81388564D01*
X98970232Y-81407978D01*
X98996367Y-81429552D01*
X99025248Y-81447704D01*
X99034322Y-81451991D01*
X99067420Y-81460544D01*
X99115920Y-81466645D01*
X99170105Y-81469092D01*
X99172639Y-81469097D01*
X99250590Y-81464245D01*
G36*
X99641444Y-81467780D02*
X99660261Y-81462140D01*
X99666327Y-81449747D01*
X99666582Y-81444153D01*
X99667671Y-81428570D01*
X99675168Y-81426124D01*
X99695419Y-81436807D01*
X99707449Y-81444106D01*
X99745400Y-81459737D01*
X99790728Y-81467466D01*
X99838256Y-81468060D01*
X99882805Y-81462287D01*
X99919198Y-81450916D01*
X99942257Y-81434712D01*
X99946804Y-81414445D01*
X99944509Y-81408957D01*
X99927780Y-81386174D01*
X99901837Y-81358153D01*
X99897145Y-81353623D01*
X99872417Y-81332795D01*
X99851082Y-81326065D01*
X99821245Y-81330762D01*
X99809292Y-81333883D01*
X99772095Y-81341379D01*
X99745941Y-81338008D01*
X99723854Y-81326119D01*
X99703622Y-81310165D01*
X99688721Y-81290100D01*
X99678366Y-81262098D01*
X99671771Y-81222333D01*
X99668151Y-81166977D01*
X99666722Y-81092206D01*
X99666582Y-81047060D01*
X99666582Y-80852978D01*
X99540840Y-80852978D01*
X99540840Y-81469117D01*
X99603711Y-81469117D01*
X99641444Y-81467780D01*
X99641444Y-81467780D01*
G37*
X99641444Y-81467780D02*
X99660261Y-81462140D01*
X99666327Y-81449747D01*
X99666582Y-81444153D01*
X99667671Y-81428570D01*
X99675168Y-81426124D01*
X99695419Y-81436807D01*
X99707449Y-81444106D01*
X99745400Y-81459737D01*
X99790728Y-81467466D01*
X99838256Y-81468060D01*
X99882805Y-81462287D01*
X99919198Y-81450916D01*
X99942257Y-81434712D01*
X99946804Y-81414445D01*
X99944509Y-81408957D01*
X99927780Y-81386174D01*
X99901837Y-81358153D01*
X99897145Y-81353623D01*
X99872417Y-81332795D01*
X99851082Y-81326065D01*
X99821245Y-81330762D01*
X99809292Y-81333883D01*
X99772095Y-81341379D01*
X99745941Y-81338008D01*
X99723854Y-81326119D01*
X99703622Y-81310165D01*
X99688721Y-81290100D01*
X99678366Y-81262098D01*
X99671771Y-81222333D01*
X99668151Y-81166977D01*
X99666722Y-81092206D01*
X99666582Y-81047060D01*
X99666582Y-80852978D01*
X99540840Y-80852978D01*
X99540840Y-81469117D01*
X99603711Y-81469117D01*
X99641444Y-81467780D01*
G36*
X100433612Y-80852978D02*
X100364454Y-80852978D01*
X100324312Y-80854155D01*
X100303406Y-80859028D01*
X100295878Y-80869614D01*
X100295295Y-80876771D01*
X100294026Y-80891124D01*
X100286021Y-80893877D01*
X100264985Y-80885029D01*
X100248627Y-80876771D01*
X100185823Y-80857203D01*
X100117552Y-80856071D01*
X100062048Y-80870665D01*
X100010362Y-80905923D01*
X99970962Y-80957965D01*
X99949387Y-81019350D01*
X99948838Y-81022782D01*
X99945633Y-81060229D01*
X99944039Y-81113987D01*
X99944167Y-81154645D01*
X100081521Y-81154645D01*
X100084703Y-81100606D01*
X100091941Y-81056065D01*
X100101740Y-81030912D01*
X100138811Y-80996540D01*
X100182826Y-80984218D01*
X100228216Y-80994182D01*
X100267003Y-81023905D01*
X100281692Y-81043895D01*
X100290281Y-81067750D01*
X100294304Y-81102570D01*
X100295295Y-81154870D01*
X100293522Y-81206661D01*
X100288837Y-81252166D01*
X100282197Y-81282619D01*
X100281090Y-81285348D01*
X100254309Y-81317800D01*
X100215221Y-81335617D01*
X100171485Y-81338494D01*
X100130762Y-81326126D01*
X100100713Y-81298207D01*
X100097596Y-81292652D01*
X100087839Y-81258778D01*
X100082523Y-81210072D01*
X100081521Y-81154645D01*
X99944167Y-81154645D01*
X99944232Y-81175260D01*
X99945136Y-81208237D01*
X99951286Y-81289819D01*
X99964067Y-81351070D01*
X99985329Y-81396351D01*
X100016922Y-81430021D01*
X100047593Y-81449786D01*
X100090446Y-81463680D01*
X100143744Y-81468446D01*
X100198320Y-81464564D01*
X100245008Y-81452518D01*
X100269676Y-81438107D01*
X100295295Y-81414922D01*
X100295295Y-81708027D01*
X100433612Y-81708027D01*
X100433612Y-80852978D01*
X100433612Y-80852978D01*
G37*
X100433612Y-80852978D02*
X100364454Y-80852978D01*
X100324312Y-80854155D01*
X100303406Y-80859028D01*
X100295878Y-80869614D01*
X100295295Y-80876771D01*
X100294026Y-80891124D01*
X100286021Y-80893877D01*
X100264985Y-80885029D01*
X100248627Y-80876771D01*
X100185823Y-80857203D01*
X100117552Y-80856071D01*
X100062048Y-80870665D01*
X100010362Y-80905923D01*
X99970962Y-80957965D01*
X99949387Y-81019350D01*
X99948838Y-81022782D01*
X99945633Y-81060229D01*
X99944039Y-81113987D01*
X99944167Y-81154645D01*
X100081521Y-81154645D01*
X100084703Y-81100606D01*
X100091941Y-81056065D01*
X100101740Y-81030912D01*
X100138811Y-80996540D01*
X100182826Y-80984218D01*
X100228216Y-80994182D01*
X100267003Y-81023905D01*
X100281692Y-81043895D01*
X100290281Y-81067750D01*
X100294304Y-81102570D01*
X100295295Y-81154870D01*
X100293522Y-81206661D01*
X100288837Y-81252166D01*
X100282197Y-81282619D01*
X100281090Y-81285348D01*
X100254309Y-81317800D01*
X100215221Y-81335617D01*
X100171485Y-81338494D01*
X100130762Y-81326126D01*
X100100713Y-81298207D01*
X100097596Y-81292652D01*
X100087839Y-81258778D01*
X100082523Y-81210072D01*
X100081521Y-81154645D01*
X99944167Y-81154645D01*
X99944232Y-81175260D01*
X99945136Y-81208237D01*
X99951286Y-81289819D01*
X99964067Y-81351070D01*
X99985329Y-81396351D01*
X100016922Y-81430021D01*
X100047593Y-81449786D01*
X100090446Y-81463680D01*
X100143744Y-81468446D01*
X100198320Y-81464564D01*
X100245008Y-81452518D01*
X100269676Y-81438107D01*
X100295295Y-81414922D01*
X100295295Y-81708027D01*
X100433612Y-81708027D01*
X100433612Y-80852978D01*
G36*
X100916324Y-81466563D02*
X100966055Y-81462829D01*
X101096091Y-81073027D01*
X101116478Y-81142186D01*
X101128746Y-81184926D01*
X101144885Y-81242685D01*
X101162312Y-81306175D01*
X101171526Y-81340230D01*
X101206188Y-81469117D01*
X101349191Y-81469117D01*
X101306446Y-81333943D01*
X101285396Y-81267458D01*
X101259967Y-81187261D01*
X101233410Y-81103607D01*
X101209702Y-81029018D01*
X101155702Y-80859265D01*
X101097398Y-80855472D01*
X101039095Y-80851678D01*
X101007479Y-80956066D01*
X100987982Y-81020911D01*
X100966704Y-81092400D01*
X100948108Y-81155537D01*
X100947374Y-81158050D01*
X100933484Y-81200831D01*
X100921229Y-81230021D01*
X100912646Y-81241059D01*
X100910882Y-81239782D01*
X100904691Y-81222670D01*
X100892928Y-81186013D01*
X100877025Y-81134422D01*
X100858414Y-81072506D01*
X100848343Y-81038448D01*
X100793807Y-80852978D01*
X100678064Y-80852978D01*
X100585537Y-81145329D01*
X100559544Y-81227338D01*
X100535866Y-81301813D01*
X100515620Y-81365256D01*
X100499926Y-81414168D01*
X100489902Y-81445051D01*
X100486855Y-81454074D01*
X100489267Y-81463313D01*
X100508208Y-81467359D01*
X100547623Y-81466954D01*
X100553793Y-81466648D01*
X100626886Y-81462829D01*
X100674757Y-81286790D01*
X100692353Y-81222589D01*
X100708077Y-81166151D01*
X100720546Y-81122378D01*
X100728374Y-81096170D01*
X100729820Y-81091897D01*
X100735814Y-81096810D01*
X100747901Y-81122268D01*
X100764693Y-81164803D01*
X100784803Y-81220950D01*
X100801803Y-81271670D01*
X100866594Y-81470296D01*
X100916324Y-81466563D01*
X100916324Y-81466563D01*
G37*
X100916324Y-81466563D02*
X100966055Y-81462829D01*
X101096091Y-81073027D01*
X101116478Y-81142186D01*
X101128746Y-81184926D01*
X101144885Y-81242685D01*
X101162312Y-81306175D01*
X101171526Y-81340230D01*
X101206188Y-81469117D01*
X101349191Y-81469117D01*
X101306446Y-81333943D01*
X101285396Y-81267458D01*
X101259967Y-81187261D01*
X101233410Y-81103607D01*
X101209702Y-81029018D01*
X101155702Y-80859265D01*
X101097398Y-80855472D01*
X101039095Y-80851678D01*
X101007479Y-80956066D01*
X100987982Y-81020911D01*
X100966704Y-81092400D01*
X100948108Y-81155537D01*
X100947374Y-81158050D01*
X100933484Y-81200831D01*
X100921229Y-81230021D01*
X100912646Y-81241059D01*
X100910882Y-81239782D01*
X100904691Y-81222670D01*
X100892928Y-81186013D01*
X100877025Y-81134422D01*
X100858414Y-81072506D01*
X100848343Y-81038448D01*
X100793807Y-80852978D01*
X100678064Y-80852978D01*
X100585537Y-81145329D01*
X100559544Y-81227338D01*
X100535866Y-81301813D01*
X100515620Y-81365256D01*
X100499926Y-81414168D01*
X100489902Y-81445051D01*
X100486855Y-81454074D01*
X100489267Y-81463313D01*
X100508208Y-81467359D01*
X100547623Y-81466954D01*
X100553793Y-81466648D01*
X100626886Y-81462829D01*
X100674757Y-81286790D01*
X100692353Y-81222589D01*
X100708077Y-81166151D01*
X100720546Y-81122378D01*
X100728374Y-81096170D01*
X100729820Y-81091897D01*
X100735814Y-81096810D01*
X100747901Y-81122268D01*
X100764693Y-81164803D01*
X100784803Y-81220950D01*
X100801803Y-81271670D01*
X100866594Y-81470296D01*
X100916324Y-81466563D01*
G36*
X101673211Y-81465383D02*
X101726211Y-81452510D01*
X101741531Y-81445690D01*
X101771228Y-81427826D01*
X101794020Y-81407707D01*
X101810883Y-81381838D01*
X101822798Y-81346727D01*
X101830742Y-81298880D01*
X101835694Y-81234804D01*
X101838631Y-81151006D01*
X101839747Y-81095032D01*
X101843852Y-80852978D01*
X101773732Y-80852978D01*
X101731193Y-80854762D01*
X101709276Y-80860858D01*
X101703612Y-80871094D01*
X101700621Y-80882163D01*
X101687251Y-80880046D01*
X101669033Y-80871171D01*
X101623424Y-80857567D01*
X101564807Y-80853901D01*
X101503154Y-80859897D01*
X101448438Y-80875279D01*
X101443530Y-80877414D01*
X101393523Y-80912545D01*
X101360556Y-80961381D01*
X101345387Y-81018467D01*
X101346546Y-81038976D01*
X101470308Y-81038976D01*
X101481213Y-81011375D01*
X101513545Y-80991596D01*
X101565710Y-80980981D01*
X101593587Y-80979572D01*
X101640047Y-80983180D01*
X101670929Y-80997203D01*
X101678464Y-81003869D01*
X101698876Y-81040134D01*
X101703612Y-81073027D01*
X101703612Y-81117037D01*
X101642313Y-81117037D01*
X101571056Y-81113405D01*
X101521076Y-81101982D01*
X101489496Y-81081976D01*
X101482426Y-81073057D01*
X101470308Y-81038976D01*
X101346546Y-81038976D01*
X101348771Y-81078344D01*
X101371463Y-81135556D01*
X101402424Y-81174220D01*
X101421176Y-81190936D01*
X101439533Y-81201922D01*
X101463419Y-81208620D01*
X101498757Y-81212474D01*
X101551469Y-81214927D01*
X101572377Y-81215632D01*
X101703612Y-81219921D01*
X101703420Y-81259642D01*
X101698337Y-81301395D01*
X101679962Y-81326642D01*
X101642839Y-81342770D01*
X101641843Y-81343058D01*
X101589210Y-81349400D01*
X101537706Y-81341116D01*
X101499430Y-81320973D01*
X101484072Y-81311027D01*
X101467530Y-81312403D01*
X101442075Y-81326813D01*
X101427128Y-81336983D01*
X101397891Y-81358712D01*
X101379780Y-81375000D01*
X101376874Y-81379663D01*
X101388840Y-81403795D01*
X101424196Y-81432615D01*
X101439553Y-81442339D01*
X101483701Y-81459086D01*
X101543198Y-81468573D01*
X101609287Y-81470705D01*
X101673211Y-81465383D01*
X101673211Y-81465383D01*
G37*
X101673211Y-81465383D02*
X101726211Y-81452510D01*
X101741531Y-81445690D01*
X101771228Y-81427826D01*
X101794020Y-81407707D01*
X101810883Y-81381838D01*
X101822798Y-81346727D01*
X101830742Y-81298880D01*
X101835694Y-81234804D01*
X101838631Y-81151006D01*
X101839747Y-81095032D01*
X101843852Y-80852978D01*
X101773732Y-80852978D01*
X101731193Y-80854762D01*
X101709276Y-80860858D01*
X101703612Y-80871094D01*
X101700621Y-80882163D01*
X101687251Y-80880046D01*
X101669033Y-80871171D01*
X101623424Y-80857567D01*
X101564807Y-80853901D01*
X101503154Y-80859897D01*
X101448438Y-80875279D01*
X101443530Y-80877414D01*
X101393523Y-80912545D01*
X101360556Y-80961381D01*
X101345387Y-81018467D01*
X101346546Y-81038976D01*
X101470308Y-81038976D01*
X101481213Y-81011375D01*
X101513545Y-80991596D01*
X101565710Y-80980981D01*
X101593587Y-80979572D01*
X101640047Y-80983180D01*
X101670929Y-80997203D01*
X101678464Y-81003869D01*
X101698876Y-81040134D01*
X101703612Y-81073027D01*
X101703612Y-81117037D01*
X101642313Y-81117037D01*
X101571056Y-81113405D01*
X101521076Y-81101982D01*
X101489496Y-81081976D01*
X101482426Y-81073057D01*
X101470308Y-81038976D01*
X101346546Y-81038976D01*
X101348771Y-81078344D01*
X101371463Y-81135556D01*
X101402424Y-81174220D01*
X101421176Y-81190936D01*
X101439533Y-81201922D01*
X101463419Y-81208620D01*
X101498757Y-81212474D01*
X101551469Y-81214927D01*
X101572377Y-81215632D01*
X101703612Y-81219921D01*
X101703420Y-81259642D01*
X101698337Y-81301395D01*
X101679962Y-81326642D01*
X101642839Y-81342770D01*
X101641843Y-81343058D01*
X101589210Y-81349400D01*
X101537706Y-81341116D01*
X101499430Y-81320973D01*
X101484072Y-81311027D01*
X101467530Y-81312403D01*
X101442075Y-81326813D01*
X101427128Y-81336983D01*
X101397891Y-81358712D01*
X101379780Y-81375000D01*
X101376874Y-81379663D01*
X101388840Y-81403795D01*
X101424196Y-81432615D01*
X101439553Y-81442339D01*
X101483701Y-81459086D01*
X101543198Y-81468573D01*
X101609287Y-81470705D01*
X101673211Y-81465383D01*
G36*
X102270055Y-81469314D02*
X102318395Y-81459785D01*
X102345914Y-81445675D01*
X102374864Y-81422232D01*
X102333676Y-81370229D01*
X102308282Y-81338736D01*
X102291038Y-81323372D01*
X102273902Y-81321024D01*
X102248827Y-81328583D01*
X102237057Y-81332859D01*
X102189070Y-81339169D01*
X102145124Y-81325644D01*
X102112860Y-81295090D01*
X102107619Y-81285348D01*
X102101912Y-81259542D01*
X102097506Y-81211983D01*
X102094611Y-81146042D01*
X102093431Y-81065090D01*
X102093414Y-81053574D01*
X102093414Y-80852978D01*
X101955097Y-80852978D01*
X101955097Y-81469117D01*
X102024256Y-81469117D01*
X102064133Y-81468075D01*
X102084907Y-81463442D01*
X102092589Y-81452951D01*
X102093414Y-81443055D01*
X102093414Y-81416994D01*
X102126545Y-81443055D01*
X102164535Y-81460835D01*
X102215570Y-81469626D01*
X102270055Y-81469314D01*
X102270055Y-81469314D01*
G37*
X102270055Y-81469314D02*
X102318395Y-81459785D01*
X102345914Y-81445675D01*
X102374864Y-81422232D01*
X102333676Y-81370229D01*
X102308282Y-81338736D01*
X102291038Y-81323372D01*
X102273902Y-81321024D01*
X102248827Y-81328583D01*
X102237057Y-81332859D01*
X102189070Y-81339169D01*
X102145124Y-81325644D01*
X102112860Y-81295090D01*
X102107619Y-81285348D01*
X102101912Y-81259542D01*
X102097506Y-81211983D01*
X102094611Y-81146042D01*
X102093431Y-81065090D01*
X102093414Y-81053574D01*
X102093414Y-80852978D01*
X101955097Y-80852978D01*
X101955097Y-81469117D01*
X102024256Y-81469117D01*
X102064133Y-81468075D01*
X102084907Y-81463442D01*
X102092589Y-81452951D01*
X102093414Y-81443055D01*
X102093414Y-81416994D01*
X102126545Y-81443055D01*
X102164535Y-81460835D01*
X102215570Y-81469626D01*
X102270055Y-81469314D01*
G36*
X102667381Y-81465830D02*
X102727485Y-81450203D01*
X102777821Y-81417952D01*
X102802193Y-81393860D01*
X102842145Y-81336905D01*
X102865042Y-81270835D01*
X102872908Y-81189618D01*
X102872948Y-81183052D01*
X102873018Y-81117037D01*
X102493064Y-81117037D01*
X102501163Y-81082458D01*
X102515787Y-81051141D01*
X102541381Y-81018509D01*
X102546735Y-81013300D01*
X102592743Y-80985106D01*
X102645210Y-80980325D01*
X102705603Y-80998874D01*
X102715840Y-81003869D01*
X102747239Y-81019055D01*
X102768270Y-81027706D01*
X102771939Y-81028507D01*
X102784748Y-81020737D01*
X102809178Y-81001728D01*
X102821579Y-80991340D01*
X102847276Y-80967479D01*
X102855715Y-80951723D01*
X102849858Y-80937229D01*
X102846728Y-80933266D01*
X102825525Y-80915921D01*
X102790538Y-80894841D01*
X102766137Y-80882535D01*
X102696872Y-80860854D01*
X102620188Y-80853829D01*
X102547565Y-80862153D01*
X102527226Y-80868114D01*
X102464276Y-80901848D01*
X102417615Y-80953755D01*
X102386973Y-81024341D01*
X102372082Y-81114108D01*
X102370447Y-81161047D01*
X102375221Y-81229387D01*
X102495790Y-81229387D01*
X102507452Y-81224335D01*
X102538798Y-81220371D01*
X102584371Y-81218032D01*
X102615246Y-81217631D01*
X102670781Y-81218017D01*
X102705833Y-81219825D01*
X102725062Y-81224027D01*
X102733130Y-81231597D01*
X102734701Y-81242582D01*
X102723921Y-81276419D01*
X102696780Y-81309860D01*
X102661077Y-81335528D01*
X102625360Y-81346028D01*
X102576848Y-81336714D01*
X102534853Y-81309787D01*
X102505736Y-81270973D01*
X102495790Y-81229387D01*
X102375221Y-81229387D01*
X102377399Y-81260564D01*
X102398855Y-81339851D01*
X102435270Y-81399537D01*
X102487097Y-81440251D01*
X102554790Y-81462621D01*
X102591462Y-81466929D01*
X102667381Y-81465830D01*
X102667381Y-81465830D01*
G37*
X102667381Y-81465830D02*
X102727485Y-81450203D01*
X102777821Y-81417952D01*
X102802193Y-81393860D01*
X102842145Y-81336905D01*
X102865042Y-81270835D01*
X102872908Y-81189618D01*
X102872948Y-81183052D01*
X102873018Y-81117037D01*
X102493064Y-81117037D01*
X102501163Y-81082458D01*
X102515787Y-81051141D01*
X102541381Y-81018509D01*
X102546735Y-81013300D01*
X102592743Y-80985106D01*
X102645210Y-80980325D01*
X102705603Y-80998874D01*
X102715840Y-81003869D01*
X102747239Y-81019055D01*
X102768270Y-81027706D01*
X102771939Y-81028507D01*
X102784748Y-81020737D01*
X102809178Y-81001728D01*
X102821579Y-80991340D01*
X102847276Y-80967479D01*
X102855715Y-80951723D01*
X102849858Y-80937229D01*
X102846728Y-80933266D01*
X102825525Y-80915921D01*
X102790538Y-80894841D01*
X102766137Y-80882535D01*
X102696872Y-80860854D01*
X102620188Y-80853829D01*
X102547565Y-80862153D01*
X102527226Y-80868114D01*
X102464276Y-80901848D01*
X102417615Y-80953755D01*
X102386973Y-81024341D01*
X102372082Y-81114108D01*
X102370447Y-81161047D01*
X102375221Y-81229387D01*
X102495790Y-81229387D01*
X102507452Y-81224335D01*
X102538798Y-81220371D01*
X102584371Y-81218032D01*
X102615246Y-81217631D01*
X102670781Y-81218017D01*
X102705833Y-81219825D01*
X102725062Y-81224027D01*
X102733130Y-81231597D01*
X102734701Y-81242582D01*
X102723921Y-81276419D01*
X102696780Y-81309860D01*
X102661077Y-81335528D01*
X102625360Y-81346028D01*
X102576848Y-81336714D01*
X102534853Y-81309787D01*
X102505736Y-81270973D01*
X102495790Y-81229387D01*
X102375221Y-81229387D01*
X102377399Y-81260564D01*
X102398855Y-81339851D01*
X102435270Y-81399537D01*
X102487097Y-81440251D01*
X102554790Y-81462621D01*
X102591462Y-81466929D01*
X102667381Y-81465830D01*
G36*
X98096539Y-82405652D02*
X98162321Y-82376569D01*
X98212260Y-82328007D01*
X98246426Y-82259892D01*
X98264893Y-82172149D01*
X98266217Y-82158449D01*
X98267254Y-82061861D01*
X98253807Y-81977198D01*
X98226692Y-81908579D01*
X98212173Y-81886506D01*
X98161599Y-81839789D01*
X98097191Y-81809532D01*
X98025134Y-81796976D01*
X97951615Y-81803361D01*
X97895728Y-81823028D01*
X97847668Y-81856171D01*
X97808388Y-81899625D01*
X97807708Y-81900642D01*
X97791756Y-81927462D01*
X97781390Y-81954432D01*
X97775112Y-81988468D01*
X97771427Y-82036490D01*
X97769803Y-82075869D01*
X97769128Y-82111581D01*
X97894845Y-82111581D01*
X97896074Y-82076030D01*
X97900534Y-82028706D01*
X97908403Y-81998335D01*
X97922593Y-81976728D01*
X97935883Y-81964106D01*
X97982998Y-81937678D01*
X98032295Y-81934147D01*
X98078207Y-81953161D01*
X98101162Y-81974469D01*
X98117704Y-81995941D01*
X98127379Y-82016487D01*
X98131626Y-82043226D01*
X98131880Y-82083277D01*
X98130572Y-82120162D01*
X98127757Y-82172853D01*
X98123295Y-82207028D01*
X98115252Y-82229320D01*
X98101697Y-82246358D01*
X98090955Y-82256097D01*
X98046023Y-82281677D01*
X97997551Y-82282953D01*
X97956906Y-82267801D01*
X97922233Y-82236158D01*
X97901576Y-82184180D01*
X97894845Y-82111581D01*
X97769128Y-82111581D01*
X97768321Y-82154179D01*
X97770852Y-82212744D01*
X97778438Y-82256793D01*
X97792119Y-82291552D01*
X97812935Y-82322249D01*
X97820653Y-82331364D01*
X97868911Y-82376779D01*
X97920672Y-82403307D01*
X97983972Y-82414421D01*
X98014839Y-82415329D01*
X98096539Y-82405652D01*
X98096539Y-82405652D01*
G37*
X98096539Y-82405652D02*
X98162321Y-82376569D01*
X98212260Y-82328007D01*
X98246426Y-82259892D01*
X98264893Y-82172149D01*
X98266217Y-82158449D01*
X98267254Y-82061861D01*
X98253807Y-81977198D01*
X98226692Y-81908579D01*
X98212173Y-81886506D01*
X98161599Y-81839789D01*
X98097191Y-81809532D01*
X98025134Y-81796976D01*
X97951615Y-81803361D01*
X97895728Y-81823028D01*
X97847668Y-81856171D01*
X97808388Y-81899625D01*
X97807708Y-81900642D01*
X97791756Y-81927462D01*
X97781390Y-81954432D01*
X97775112Y-81988468D01*
X97771427Y-82036490D01*
X97769803Y-82075869D01*
X97769128Y-82111581D01*
X97894845Y-82111581D01*
X97896074Y-82076030D01*
X97900534Y-82028706D01*
X97908403Y-81998335D01*
X97922593Y-81976728D01*
X97935883Y-81964106D01*
X97982998Y-81937678D01*
X98032295Y-81934147D01*
X98078207Y-81953161D01*
X98101162Y-81974469D01*
X98117704Y-81995941D01*
X98127379Y-82016487D01*
X98131626Y-82043226D01*
X98131880Y-82083277D01*
X98130572Y-82120162D01*
X98127757Y-82172853D01*
X98123295Y-82207028D01*
X98115252Y-82229320D01*
X98101697Y-82246358D01*
X98090955Y-82256097D01*
X98046023Y-82281677D01*
X97997551Y-82282953D01*
X97956906Y-82267801D01*
X97922233Y-82236158D01*
X97901576Y-82184180D01*
X97894845Y-82111581D01*
X97769128Y-82111581D01*
X97768321Y-82154179D01*
X97770852Y-82212744D01*
X97778438Y-82256793D01*
X97792119Y-82291552D01*
X97812935Y-82322249D01*
X97820653Y-82331364D01*
X97868911Y-82376779D01*
X97920672Y-82403307D01*
X97983972Y-82414421D01*
X98014839Y-82415329D01*
X98096539Y-82405652D01*
G36*
X99278101Y-82398186D02*
X99290632Y-82392286D01*
X99334001Y-82360517D01*
X99375010Y-82314154D01*
X99405632Y-82263104D01*
X99414341Y-82239634D01*
X99422288Y-82197709D01*
X99427026Y-82147043D01*
X99427601Y-82126121D01*
X99427671Y-82060107D01*
X99047717Y-82060107D01*
X99055817Y-82025527D01*
X99075696Y-81984630D01*
X99110453Y-81949286D01*
X99151802Y-81926518D01*
X99178151Y-81921790D01*
X99213884Y-81927527D01*
X99256518Y-81941918D01*
X99271001Y-81948538D01*
X99324560Y-81975287D01*
X99370267Y-81940424D01*
X99396642Y-81916845D01*
X99410676Y-81897383D01*
X99411386Y-81891671D01*
X99398849Y-81877827D01*
X99371372Y-81856788D01*
X99346434Y-81840375D01*
X99279136Y-81810870D01*
X99203690Y-81797516D01*
X99128912Y-81800988D01*
X99069305Y-81819137D01*
X99007859Y-81858016D01*
X98964192Y-81909205D01*
X98936874Y-81975433D01*
X98924478Y-82059429D01*
X98923379Y-82097864D01*
X98927778Y-82185939D01*
X98928318Y-82188501D01*
X99054218Y-82188501D01*
X99057685Y-82180242D01*
X99071937Y-82175687D01*
X99101330Y-82173735D01*
X99150225Y-82173283D01*
X99169052Y-82173275D01*
X99226333Y-82173957D01*
X99262659Y-82176436D01*
X99282196Y-82181357D01*
X99289110Y-82189366D01*
X99289355Y-82191938D01*
X99281464Y-82212377D01*
X99261715Y-82241011D01*
X99253225Y-82251037D01*
X99221706Y-82279392D01*
X99188851Y-82290541D01*
X99171149Y-82291473D01*
X99123261Y-82279819D01*
X99083101Y-82248515D01*
X99057627Y-82203048D01*
X99057175Y-82201567D01*
X99054218Y-82188501D01*
X98928318Y-82188501D01*
X98942408Y-82255290D01*
X98968762Y-82310775D01*
X99000993Y-82350161D01*
X99060583Y-82392869D01*
X99130632Y-82415691D01*
X99205139Y-82417754D01*
X99278101Y-82398186D01*
X99278101Y-82398186D01*
G37*
X99278101Y-82398186D02*
X99290632Y-82392286D01*
X99334001Y-82360517D01*
X99375010Y-82314154D01*
X99405632Y-82263104D01*
X99414341Y-82239634D01*
X99422288Y-82197709D01*
X99427026Y-82147043D01*
X99427601Y-82126121D01*
X99427671Y-82060107D01*
X99047717Y-82060107D01*
X99055817Y-82025527D01*
X99075696Y-81984630D01*
X99110453Y-81949286D01*
X99151802Y-81926518D01*
X99178151Y-81921790D01*
X99213884Y-81927527D01*
X99256518Y-81941918D01*
X99271001Y-81948538D01*
X99324560Y-81975287D01*
X99370267Y-81940424D01*
X99396642Y-81916845D01*
X99410676Y-81897383D01*
X99411386Y-81891671D01*
X99398849Y-81877827D01*
X99371372Y-81856788D01*
X99346434Y-81840375D01*
X99279136Y-81810870D01*
X99203690Y-81797516D01*
X99128912Y-81800988D01*
X99069305Y-81819137D01*
X99007859Y-81858016D01*
X98964192Y-81909205D01*
X98936874Y-81975433D01*
X98924478Y-82059429D01*
X98923379Y-82097864D01*
X98927778Y-82185939D01*
X98928318Y-82188501D01*
X99054218Y-82188501D01*
X99057685Y-82180242D01*
X99071937Y-82175687D01*
X99101330Y-82173735D01*
X99150225Y-82173283D01*
X99169052Y-82173275D01*
X99226333Y-82173957D01*
X99262659Y-82176436D01*
X99282196Y-82181357D01*
X99289110Y-82189366D01*
X99289355Y-82191938D01*
X99281464Y-82212377D01*
X99261715Y-82241011D01*
X99253225Y-82251037D01*
X99221706Y-82279392D01*
X99188851Y-82290541D01*
X99171149Y-82291473D01*
X99123261Y-82279819D01*
X99083101Y-82248515D01*
X99057627Y-82203048D01*
X99057175Y-82201567D01*
X99054218Y-82188501D01*
X98928318Y-82188501D01*
X98942408Y-82255290D01*
X98968762Y-82310775D01*
X99000993Y-82350161D01*
X99060583Y-82392869D01*
X99130632Y-82415691D01*
X99205139Y-82417754D01*
X99278101Y-82398186D01*
G36*
X100648817Y-82414348D02*
X100696434Y-82405318D01*
X100745834Y-82386430D01*
X100751112Y-82384023D01*
X100788574Y-82364324D01*
X100814517Y-82346019D01*
X100822903Y-82334292D01*
X100814917Y-82315168D01*
X100795520Y-82286950D01*
X100786910Y-82276416D01*
X100751428Y-82234953D01*
X100705685Y-82261942D01*
X100662150Y-82279922D01*
X100611850Y-82289533D01*
X100563612Y-82290140D01*
X100526267Y-82281109D01*
X100517305Y-82275473D01*
X100500237Y-82249629D01*
X100498163Y-82219859D01*
X100510934Y-82196603D01*
X100518488Y-82192092D01*
X100541125Y-82186491D01*
X100580915Y-82179908D01*
X100629966Y-82173617D01*
X100639015Y-82172630D01*
X100717796Y-82159002D01*
X100774936Y-82135854D01*
X100812830Y-82101048D01*
X100833879Y-82052446D01*
X100840435Y-81993082D01*
X100831377Y-81925602D01*
X100801964Y-81872612D01*
X100752078Y-81834017D01*
X100681600Y-81809719D01*
X100603365Y-81800133D01*
X100539566Y-81800248D01*
X100487816Y-81808955D01*
X100452473Y-81820975D01*
X100407817Y-81841920D01*
X100366547Y-81866226D01*
X100351879Y-81876924D01*
X100314157Y-81907716D01*
X100359652Y-81953751D01*
X100405147Y-81999787D01*
X100456872Y-81965557D01*
X100508752Y-81939848D01*
X100564151Y-81926401D01*
X100617405Y-81924982D01*
X100662849Y-81935357D01*
X100694816Y-81957293D01*
X100705138Y-81975802D01*
X100703589Y-82005486D01*
X100677940Y-82028185D01*
X100628260Y-82043860D01*
X100573831Y-82051105D01*
X100490064Y-82064927D01*
X100427833Y-82091004D01*
X100386307Y-82130101D01*
X100364653Y-82182980D01*
X100361653Y-82245674D01*
X100376471Y-82311158D01*
X100410254Y-82360656D01*
X100463305Y-82394392D01*
X100535926Y-82412593D01*
X100589728Y-82416161D01*
X100648817Y-82414348D01*
X100648817Y-82414348D01*
G37*
X100648817Y-82414348D02*
X100696434Y-82405318D01*
X100745834Y-82386430D01*
X100751112Y-82384023D01*
X100788574Y-82364324D01*
X100814517Y-82346019D01*
X100822903Y-82334292D01*
X100814917Y-82315168D01*
X100795520Y-82286950D01*
X100786910Y-82276416D01*
X100751428Y-82234953D01*
X100705685Y-82261942D01*
X100662150Y-82279922D01*
X100611850Y-82289533D01*
X100563612Y-82290140D01*
X100526267Y-82281109D01*
X100517305Y-82275473D01*
X100500237Y-82249629D01*
X100498163Y-82219859D01*
X100510934Y-82196603D01*
X100518488Y-82192092D01*
X100541125Y-82186491D01*
X100580915Y-82179908D01*
X100629966Y-82173617D01*
X100639015Y-82172630D01*
X100717796Y-82159002D01*
X100774936Y-82135854D01*
X100812830Y-82101048D01*
X100833879Y-82052446D01*
X100840435Y-81993082D01*
X100831377Y-81925602D01*
X100801964Y-81872612D01*
X100752078Y-81834017D01*
X100681600Y-81809719D01*
X100603365Y-81800133D01*
X100539566Y-81800248D01*
X100487816Y-81808955D01*
X100452473Y-81820975D01*
X100407817Y-81841920D01*
X100366547Y-81866226D01*
X100351879Y-81876924D01*
X100314157Y-81907716D01*
X100359652Y-81953751D01*
X100405147Y-81999787D01*
X100456872Y-81965557D01*
X100508752Y-81939848D01*
X100564151Y-81926401D01*
X100617405Y-81924982D01*
X100662849Y-81935357D01*
X100694816Y-81957293D01*
X100705138Y-81975802D01*
X100703589Y-82005486D01*
X100677940Y-82028185D01*
X100628260Y-82043860D01*
X100573831Y-82051105D01*
X100490064Y-82064927D01*
X100427833Y-82091004D01*
X100386307Y-82130101D01*
X100364653Y-82182980D01*
X100361653Y-82245674D01*
X100376471Y-82311158D01*
X100410254Y-82360656D01*
X100463305Y-82394392D01*
X100535926Y-82412593D01*
X100589728Y-82416161D01*
X100648817Y-82414348D01*
G36*
X101245562Y-82404745D02*
X101309163Y-82370108D01*
X101358923Y-82315428D01*
X101382368Y-82270958D01*
X101392434Y-82231679D01*
X101398956Y-82175684D01*
X101401751Y-82111179D01*
X101400636Y-82046371D01*
X101395426Y-81989466D01*
X101389341Y-81959073D01*
X101368814Y-81917494D01*
X101333263Y-81873332D01*
X101290419Y-81834713D01*
X101248011Y-81809766D01*
X101246977Y-81809370D01*
X101194353Y-81798469D01*
X101131988Y-81798199D01*
X101072724Y-81808124D01*
X101049840Y-81816078D01*
X100990902Y-81849500D01*
X100948690Y-81893289D01*
X100920956Y-81951262D01*
X100905451Y-82027235D01*
X100901943Y-82067029D01*
X100902390Y-82117034D01*
X101037176Y-82117034D01*
X101041717Y-82044068D01*
X101054786Y-81988466D01*
X101075556Y-81952939D01*
X101090352Y-81942780D01*
X101128264Y-81935696D01*
X101173327Y-81937793D01*
X101212287Y-81947988D01*
X101222504Y-81953596D01*
X101249459Y-81986262D01*
X101267251Y-82036255D01*
X101274824Y-82097095D01*
X101271125Y-82162303D01*
X101262857Y-82201547D01*
X101239120Y-82246995D01*
X101201649Y-82275404D01*
X101156520Y-82285227D01*
X101109811Y-82274913D01*
X101073932Y-82249688D01*
X101055077Y-82228875D01*
X101044072Y-82208361D01*
X101038826Y-82180597D01*
X101037249Y-82138038D01*
X101037176Y-82117034D01*
X100902390Y-82117034D01*
X100902894Y-82173220D01*
X100920188Y-82260299D01*
X100953829Y-82328270D01*
X101003818Y-82377136D01*
X101070156Y-82406901D01*
X101084401Y-82410352D01*
X101170010Y-82418455D01*
X101245562Y-82404745D01*
X101245562Y-82404745D01*
G37*
X101245562Y-82404745D02*
X101309163Y-82370108D01*
X101358923Y-82315428D01*
X101382368Y-82270958D01*
X101392434Y-82231679D01*
X101398956Y-82175684D01*
X101401751Y-82111179D01*
X101400636Y-82046371D01*
X101395426Y-81989466D01*
X101389341Y-81959073D01*
X101368814Y-81917494D01*
X101333263Y-81873332D01*
X101290419Y-81834713D01*
X101248011Y-81809766D01*
X101246977Y-81809370D01*
X101194353Y-81798469D01*
X101131988Y-81798199D01*
X101072724Y-81808124D01*
X101049840Y-81816078D01*
X100990902Y-81849500D01*
X100948690Y-81893289D01*
X100920956Y-81951262D01*
X100905451Y-82027235D01*
X100901943Y-82067029D01*
X100902390Y-82117034D01*
X101037176Y-82117034D01*
X101041717Y-82044068D01*
X101054786Y-81988466D01*
X101075556Y-81952939D01*
X101090352Y-81942780D01*
X101128264Y-81935696D01*
X101173327Y-81937793D01*
X101212287Y-81947988D01*
X101222504Y-81953596D01*
X101249459Y-81986262D01*
X101267251Y-82036255D01*
X101274824Y-82097095D01*
X101271125Y-82162303D01*
X101262857Y-82201547D01*
X101239120Y-82246995D01*
X101201649Y-82275404D01*
X101156520Y-82285227D01*
X101109811Y-82274913D01*
X101073932Y-82249688D01*
X101055077Y-82228875D01*
X101044072Y-82208361D01*
X101038826Y-82180597D01*
X101037249Y-82138038D01*
X101037176Y-82117034D01*
X100902390Y-82117034D01*
X100902894Y-82173220D01*
X100920188Y-82260299D01*
X100953829Y-82328270D01*
X101003818Y-82377136D01*
X101070156Y-82406901D01*
X101084401Y-82410352D01*
X101170010Y-82418455D01*
X101245562Y-82404745D01*
G36*
X101628167Y-82216458D02*
X101629355Y-82124237D01*
X101633697Y-82054190D01*
X101642358Y-82003419D01*
X101656504Y-81969028D01*
X101677300Y-81948121D01*
X101705910Y-81937800D01*
X101741335Y-81935164D01*
X101778436Y-81938118D01*
X101806618Y-81948911D01*
X101827043Y-81970440D01*
X101840879Y-82005601D01*
X101849291Y-82057290D01*
X101853443Y-82128406D01*
X101854503Y-82216458D01*
X101854503Y-82412186D01*
X101992820Y-82412186D01*
X101992820Y-81808621D01*
X101923662Y-81808621D01*
X101881970Y-81810311D01*
X101860501Y-81816244D01*
X101854503Y-81827507D01*
X101850891Y-81837539D01*
X101836514Y-81835417D01*
X101807536Y-81821220D01*
X101741119Y-81799320D01*
X101670675Y-81800872D01*
X101603177Y-81824653D01*
X101571033Y-81843438D01*
X101546515Y-81863778D01*
X101528604Y-81889227D01*
X101516279Y-81923342D01*
X101508523Y-81969679D01*
X101504316Y-82031793D01*
X101502640Y-82113239D01*
X101502424Y-82176222D01*
X101502424Y-82412186D01*
X101628167Y-82412186D01*
X101628167Y-82216458D01*
X101628167Y-82216458D01*
G37*
X101628167Y-82216458D02*
X101629355Y-82124237D01*
X101633697Y-82054190D01*
X101642358Y-82003419D01*
X101656504Y-81969028D01*
X101677300Y-81948121D01*
X101705910Y-81937800D01*
X101741335Y-81935164D01*
X101778436Y-81938118D01*
X101806618Y-81948911D01*
X101827043Y-81970440D01*
X101840879Y-82005601D01*
X101849291Y-82057290D01*
X101853443Y-82128406D01*
X101854503Y-82216458D01*
X101854503Y-82412186D01*
X101992820Y-82412186D01*
X101992820Y-81808621D01*
X101923662Y-81808621D01*
X101881970Y-81810311D01*
X101860501Y-81816244D01*
X101854503Y-81827507D01*
X101850891Y-81837539D01*
X101836514Y-81835417D01*
X101807536Y-81821220D01*
X101741119Y-81799320D01*
X101670675Y-81800872D01*
X101603177Y-81824653D01*
X101571033Y-81843438D01*
X101546515Y-81863778D01*
X101528604Y-81889227D01*
X101516279Y-81923342D01*
X101508523Y-81969679D01*
X101504316Y-82031793D01*
X101502640Y-82113239D01*
X101502424Y-82176222D01*
X101502424Y-82412186D01*
X101628167Y-82412186D01*
X101628167Y-82216458D01*
G36*
X102852026Y-82406920D02*
X102924880Y-82375970D01*
X102947827Y-82360905D01*
X102977154Y-82337752D01*
X102995564Y-82319547D01*
X102998761Y-82313617D01*
X102989735Y-82300460D01*
X102966637Y-82278133D01*
X102948144Y-82262550D01*
X102897528Y-82221874D01*
X102857560Y-82255505D01*
X102826674Y-82277216D01*
X102796559Y-82284710D01*
X102762092Y-82282880D01*
X102707361Y-82269272D01*
X102669686Y-82241028D01*
X102646791Y-82195367D01*
X102636397Y-82129511D01*
X102636395Y-82129469D01*
X102637294Y-82055861D01*
X102651263Y-82001854D01*
X102679128Y-81965084D01*
X102698125Y-81952632D01*
X102748576Y-81937127D01*
X102802463Y-81937117D01*
X102849346Y-81952162D01*
X102860444Y-81959513D01*
X102888276Y-81978289D01*
X102910036Y-81981366D01*
X102933504Y-81967391D01*
X102959449Y-81942290D01*
X103000516Y-81899920D01*
X102954921Y-81862336D01*
X102884474Y-81819918D01*
X102805033Y-81799015D01*
X102722015Y-81800528D01*
X102667494Y-81814389D01*
X102603770Y-81848665D01*
X102552805Y-81902588D01*
X102529651Y-81940651D01*
X102510899Y-81995264D01*
X102501515Y-82064431D01*
X102501443Y-82139393D01*
X102510624Y-82211391D01*
X102528999Y-82271663D01*
X102531893Y-82277842D01*
X102574752Y-82338449D01*
X102632779Y-82382576D01*
X102701391Y-82409307D01*
X102776001Y-82417727D01*
X102852026Y-82406920D01*
X102852026Y-82406920D01*
G37*
X102852026Y-82406920D02*
X102924880Y-82375970D01*
X102947827Y-82360905D01*
X102977154Y-82337752D01*
X102995564Y-82319547D01*
X102998761Y-82313617D01*
X102989735Y-82300460D01*
X102966637Y-82278133D01*
X102948144Y-82262550D01*
X102897528Y-82221874D01*
X102857560Y-82255505D01*
X102826674Y-82277216D01*
X102796559Y-82284710D01*
X102762092Y-82282880D01*
X102707361Y-82269272D01*
X102669686Y-82241028D01*
X102646791Y-82195367D01*
X102636397Y-82129511D01*
X102636395Y-82129469D01*
X102637294Y-82055861D01*
X102651263Y-82001854D01*
X102679128Y-81965084D01*
X102698125Y-81952632D01*
X102748576Y-81937127D01*
X102802463Y-81937117D01*
X102849346Y-81952162D01*
X102860444Y-81959513D01*
X102888276Y-81978289D01*
X102910036Y-81981366D01*
X102933504Y-81967391D01*
X102959449Y-81942290D01*
X103000516Y-81899920D01*
X102954921Y-81862336D01*
X102884474Y-81819918D01*
X102805033Y-81799015D01*
X102722015Y-81800528D01*
X102667494Y-81814389D01*
X102603770Y-81848665D01*
X102552805Y-81902588D01*
X102529651Y-81940651D01*
X102510899Y-81995264D01*
X102501515Y-82064431D01*
X102501443Y-82139393D01*
X102510624Y-82211391D01*
X102528999Y-82271663D01*
X102531893Y-82277842D01*
X102574752Y-82338449D01*
X102632779Y-82382576D01*
X102701391Y-82409307D01*
X102776001Y-82417727D01*
X102852026Y-82406920D01*
G36*
X103312698Y-82414343D02*
X103344896Y-82406521D01*
X103406625Y-82377879D01*
X103459410Y-82334133D01*
X103495941Y-82281683D01*
X103500960Y-82269907D01*
X103507845Y-82239060D01*
X103512664Y-82193429D01*
X103514305Y-82147308D01*
X103514305Y-82060107D01*
X103331978Y-82060107D01*
X103256779Y-82059822D01*
X103203803Y-82058096D01*
X103170125Y-82053619D01*
X103152820Y-82045080D01*
X103148963Y-82031170D01*
X103155629Y-82010578D01*
X103167570Y-81986485D01*
X103200880Y-81946275D01*
X103247168Y-81926242D01*
X103303744Y-81926895D01*
X103367831Y-81948699D01*
X103423217Y-81975607D01*
X103469175Y-81939268D01*
X103515133Y-81902928D01*
X103471896Y-81862981D01*
X103414174Y-81825237D01*
X103343186Y-81802480D01*
X103266829Y-81796112D01*
X103192999Y-81807532D01*
X103181087Y-81811407D01*
X103116199Y-81845294D01*
X103067930Y-81895814D01*
X103035265Y-81964475D01*
X103017185Y-82052786D01*
X103016975Y-82054679D01*
X103015356Y-82150922D01*
X103021900Y-82185258D01*
X103149652Y-82185258D01*
X103161384Y-82179978D01*
X103193238Y-82175933D01*
X103240197Y-82173624D01*
X103269954Y-82173275D01*
X103325448Y-82173494D01*
X103360146Y-82174884D01*
X103378401Y-82178549D01*
X103384566Y-82185590D01*
X103382995Y-82197110D01*
X103381678Y-82201567D01*
X103359182Y-82243445D01*
X103323803Y-82277196D01*
X103292580Y-82292027D01*
X103251101Y-82291132D01*
X103209069Y-82272636D01*
X103173812Y-82242014D01*
X103152654Y-82204738D01*
X103149652Y-82185258D01*
X103021900Y-82185258D01*
X103031490Y-82235571D01*
X103063498Y-82306609D01*
X103109501Y-82362021D01*
X103167621Y-82399791D01*
X103235980Y-82417904D01*
X103312698Y-82414343D01*
X103312698Y-82414343D01*
G37*
X103312698Y-82414343D02*
X103344896Y-82406521D01*
X103406625Y-82377879D01*
X103459410Y-82334133D01*
X103495941Y-82281683D01*
X103500960Y-82269907D01*
X103507845Y-82239060D01*
X103512664Y-82193429D01*
X103514305Y-82147308D01*
X103514305Y-82060107D01*
X103331978Y-82060107D01*
X103256779Y-82059822D01*
X103203803Y-82058096D01*
X103170125Y-82053619D01*
X103152820Y-82045080D01*
X103148963Y-82031170D01*
X103155629Y-82010578D01*
X103167570Y-81986485D01*
X103200880Y-81946275D01*
X103247168Y-81926242D01*
X103303744Y-81926895D01*
X103367831Y-81948699D01*
X103423217Y-81975607D01*
X103469175Y-81939268D01*
X103515133Y-81902928D01*
X103471896Y-81862981D01*
X103414174Y-81825237D01*
X103343186Y-81802480D01*
X103266829Y-81796112D01*
X103192999Y-81807532D01*
X103181087Y-81811407D01*
X103116199Y-81845294D01*
X103067930Y-81895814D01*
X103035265Y-81964475D01*
X103017185Y-82052786D01*
X103016975Y-82054679D01*
X103015356Y-82150922D01*
X103021900Y-82185258D01*
X103149652Y-82185258D01*
X103161384Y-82179978D01*
X103193238Y-82175933D01*
X103240197Y-82173624D01*
X103269954Y-82173275D01*
X103325448Y-82173494D01*
X103360146Y-82174884D01*
X103378401Y-82178549D01*
X103384566Y-82185590D01*
X103382995Y-82197110D01*
X103381678Y-82201567D01*
X103359182Y-82243445D01*
X103323803Y-82277196D01*
X103292580Y-82292027D01*
X103251101Y-82291132D01*
X103209069Y-82272636D01*
X103173812Y-82242014D01*
X103152654Y-82204738D01*
X103149652Y-82185258D01*
X103021900Y-82185258D01*
X103031490Y-82235571D01*
X103063498Y-82306609D01*
X103109501Y-82362021D01*
X103167621Y-82399791D01*
X103235980Y-82417904D01*
X103312698Y-82414343D01*
G36*
X99880788Y-82401798D02*
X99912083Y-82386850D01*
X99942391Y-82365259D01*
X99965482Y-82340409D01*
X99982300Y-82308713D01*
X99993794Y-82266586D01*
X100000909Y-82210442D01*
X100004593Y-82136694D01*
X100005792Y-82041756D01*
X100005811Y-82031815D01*
X100006087Y-81808621D01*
X99867770Y-81808621D01*
X99867770Y-82014382D01*
X99867672Y-82090611D01*
X99866991Y-82145861D01*
X99865149Y-82184299D01*
X99861567Y-82210094D01*
X99855668Y-82227416D01*
X99846873Y-82240432D01*
X99834620Y-82253293D01*
X99791753Y-82280927D01*
X99744957Y-82286055D01*
X99700376Y-82268583D01*
X99684872Y-82255579D01*
X99673490Y-82243353D01*
X99665319Y-82230260D01*
X99659826Y-82212185D01*
X99656480Y-82185013D01*
X99654749Y-82144630D01*
X99654103Y-82086921D01*
X99654008Y-82016668D01*
X99654008Y-81808621D01*
X99515691Y-81808621D01*
X99515691Y-82412186D01*
X99584850Y-82412186D01*
X99626372Y-82410544D01*
X99647794Y-82404713D01*
X99654005Y-82393339D01*
X99654008Y-82393002D01*
X99656890Y-82381862D01*
X99669601Y-82383126D01*
X99694874Y-82395366D01*
X99752195Y-82413376D01*
X99817763Y-82415379D01*
X99880788Y-82401798D01*
X99880788Y-82401798D01*
G37*
X99880788Y-82401798D02*
X99912083Y-82386850D01*
X99942391Y-82365259D01*
X99965482Y-82340409D01*
X99982300Y-82308713D01*
X99993794Y-82266586D01*
X100000909Y-82210442D01*
X100004593Y-82136694D01*
X100005792Y-82041756D01*
X100005811Y-82031815D01*
X100006087Y-81808621D01*
X99867770Y-81808621D01*
X99867770Y-82014382D01*
X99867672Y-82090611D01*
X99866991Y-82145861D01*
X99865149Y-82184299D01*
X99861567Y-82210094D01*
X99855668Y-82227416D01*
X99846873Y-82240432D01*
X99834620Y-82253293D01*
X99791753Y-82280927D01*
X99744957Y-82286055D01*
X99700376Y-82268583D01*
X99684872Y-82255579D01*
X99673490Y-82243353D01*
X99665319Y-82230260D01*
X99659826Y-82212185D01*
X99656480Y-82185013D01*
X99654749Y-82144630D01*
X99654103Y-82086921D01*
X99654008Y-82016668D01*
X99654008Y-81808621D01*
X99515691Y-81808621D01*
X99515691Y-82412186D01*
X99584850Y-82412186D01*
X99626372Y-82410544D01*
X99647794Y-82404713D01*
X99654005Y-82393339D01*
X99654008Y-82393002D01*
X99656890Y-82381862D01*
X99669601Y-82383126D01*
X99694874Y-82395366D01*
X99752195Y-82413376D01*
X99817763Y-82415379D01*
X99880788Y-82401798D01*
G36*
X102434260Y-82412770D02*
X102477511Y-82399555D01*
X102505358Y-82382859D01*
X102514429Y-82369655D01*
X102511932Y-82354003D01*
X102495731Y-82329415D01*
X102482032Y-82312000D01*
X102453792Y-82280517D01*
X102432575Y-82267271D01*
X102414488Y-82268136D01*
X102360835Y-82281790D01*
X102321430Y-82281170D01*
X102289432Y-82265696D01*
X102278690Y-82256639D01*
X102244305Y-82224773D01*
X102244305Y-81808621D01*
X102105988Y-81808621D01*
X102105988Y-82412186D01*
X102175147Y-82412186D01*
X102216669Y-82410544D01*
X102238091Y-82404713D01*
X102244302Y-82393339D01*
X102244305Y-82393002D01*
X102247239Y-82381087D01*
X102260504Y-82382641D01*
X102278884Y-82391237D01*
X102316846Y-82407232D01*
X102347672Y-82416855D01*
X102387336Y-82419322D01*
X102434260Y-82412770D01*
X102434260Y-82412770D01*
G37*
X102434260Y-82412770D02*
X102477511Y-82399555D01*
X102505358Y-82382859D01*
X102514429Y-82369655D01*
X102511932Y-82354003D01*
X102495731Y-82329415D01*
X102482032Y-82312000D01*
X102453792Y-82280517D01*
X102432575Y-82267271D01*
X102414488Y-82268136D01*
X102360835Y-82281790D01*
X102321430Y-82281170D01*
X102289432Y-82265696D01*
X102278690Y-82256639D01*
X102244305Y-82224773D01*
X102244305Y-81808621D01*
X102105988Y-81808621D01*
X102105988Y-82412186D01*
X102175147Y-82412186D01*
X102216669Y-82410544D01*
X102238091Y-82404713D01*
X102244302Y-82393339D01*
X102244305Y-82393002D01*
X102247239Y-82381087D01*
X102260504Y-82382641D01*
X102278884Y-82391237D01*
X102316846Y-82407232D01*
X102347672Y-82416855D01*
X102387336Y-82419322D01*
X102434260Y-82412770D01*
G36*
X101011764Y-86580782D02*
X101068612Y-86279230D01*
X101488138Y-86106288D01*
X101739784Y-86277405D01*
X101810258Y-86325050D01*
X101873963Y-86367590D01*
X101927926Y-86403085D01*
X101969173Y-86429590D01*
X101994734Y-86445164D01*
X102001695Y-86448522D01*
X102014235Y-86439886D01*
X102041031Y-86416008D01*
X102079080Y-86379941D01*
X102125379Y-86334733D01*
X102176923Y-86283436D01*
X102230709Y-86229099D01*
X102283735Y-86174772D01*
X102332995Y-86123505D01*
X102375487Y-86078349D01*
X102408207Y-86042354D01*
X102428151Y-86018570D01*
X102432919Y-86010610D01*
X102426057Y-85995935D01*
X102406820Y-85963786D01*
X102377230Y-85917308D01*
X102339310Y-85859644D01*
X102295082Y-85793940D01*
X102269454Y-85756464D01*
X102222741Y-85688032D01*
X102181232Y-85626280D01*
X102146940Y-85574281D01*
X102121880Y-85535108D01*
X102108064Y-85511835D01*
X102105988Y-85506945D01*
X102110695Y-85493045D01*
X102123523Y-85460650D01*
X102142538Y-85414315D01*
X102165803Y-85358594D01*
X102191384Y-85298042D01*
X102217345Y-85237214D01*
X102241750Y-85180664D01*
X102262663Y-85132948D01*
X102278149Y-85098619D01*
X102286272Y-85082232D01*
X102286752Y-85081588D01*
X102299507Y-85078459D01*
X102333477Y-85071479D01*
X102385140Y-85061333D01*
X102450976Y-85048708D01*
X102527464Y-85034291D01*
X102572090Y-85025977D01*
X102653821Y-85010416D01*
X102727643Y-84995608D01*
X102789821Y-84982364D01*
X102836622Y-84971495D01*
X102864309Y-84963811D01*
X102869874Y-84961373D01*
X102875326Y-84944870D01*
X102879724Y-84907600D01*
X102883072Y-84853920D01*
X102885374Y-84788188D01*
X102886632Y-84714763D01*
X102886848Y-84638004D01*
X102886027Y-84562268D01*
X102884171Y-84491914D01*
X102881282Y-84431300D01*
X102877365Y-84384784D01*
X102872422Y-84356725D01*
X102869457Y-84350884D01*
X102851734Y-84343883D01*
X102814181Y-84333873D01*
X102761764Y-84322031D01*
X102699452Y-84309533D01*
X102677700Y-84305490D01*
X102572824Y-84286280D01*
X102489980Y-84270809D01*
X102426430Y-84258463D01*
X102379437Y-84248627D01*
X102346263Y-84240686D01*
X102324171Y-84234024D01*
X102310424Y-84228027D01*
X102302284Y-84222081D01*
X102301145Y-84220906D01*
X102289777Y-84201974D01*
X102272435Y-84165131D01*
X102250850Y-84114887D01*
X102226754Y-84055754D01*
X102201879Y-83992244D01*
X102177957Y-83928868D01*
X102156719Y-83870138D01*
X102139897Y-83820565D01*
X102129222Y-83784661D01*
X102126427Y-83766938D01*
X102126660Y-83766317D01*
X102136131Y-83751830D01*
X102157618Y-83719956D01*
X102188863Y-83674011D01*
X102227607Y-83617315D01*
X102271593Y-83553183D01*
X102284119Y-83534958D01*
X102328784Y-83468886D01*
X102368088Y-83408600D01*
X102399888Y-83357565D01*
X102422045Y-83319240D01*
X102432417Y-83297089D01*
X102432919Y-83294368D01*
X102424205Y-83280064D01*
X102400125Y-83251728D01*
X102363776Y-83212404D01*
X102318253Y-83165139D01*
X102266652Y-83112977D01*
X102212067Y-83058965D01*
X102157594Y-83006147D01*
X102106329Y-82957569D01*
X102061367Y-82916277D01*
X102025804Y-82885315D01*
X102002735Y-82867730D01*
X101996354Y-82864859D01*
X101981499Y-82871622D01*
X101951086Y-82889861D01*
X101910068Y-82916503D01*
X101878509Y-82937948D01*
X101821325Y-82977297D01*
X101753606Y-83023629D01*
X101685680Y-83069887D01*
X101649161Y-83094645D01*
X101525552Y-83178253D01*
X101421791Y-83122150D01*
X101374520Y-83097572D01*
X101334323Y-83078469D01*
X101307126Y-83067573D01*
X101300202Y-83066057D01*
X101291877Y-83077251D01*
X101275454Y-83108883D01*
X101252157Y-83158035D01*
X101223214Y-83221790D01*
X101189850Y-83297229D01*
X101153291Y-83381436D01*
X101114764Y-83471492D01*
X101075494Y-83564479D01*
X101036708Y-83657480D01*
X100999630Y-83747577D01*
X100965489Y-83831852D01*
X100935508Y-83907387D01*
X100910916Y-83971266D01*
X100892936Y-84020569D01*
X100882797Y-84052379D01*
X100881166Y-84063304D01*
X100894091Y-84077239D01*
X100922389Y-84099860D01*
X100960146Y-84126467D01*
X100963315Y-84128572D01*
X101060900Y-84206686D01*
X101139586Y-84297818D01*
X101198691Y-84399055D01*
X101237532Y-84507482D01*
X101255428Y-84620186D01*
X101251697Y-84734252D01*
X101225657Y-84846766D01*
X101176625Y-84954815D01*
X101162200Y-84978455D01*
X101087169Y-85073913D01*
X100998530Y-85150568D01*
X100899349Y-85208020D01*
X100792695Y-85245871D01*
X100681636Y-85263722D01*
X100569239Y-85261175D01*
X100458573Y-85237830D01*
X100352706Y-85193290D01*
X100254705Y-85127155D01*
X100224390Y-85100313D01*
X100147238Y-85016288D01*
X100091018Y-84927834D01*
X100052453Y-84828685D01*
X100030974Y-84730497D01*
X100025672Y-84620103D01*
X100043352Y-84509160D01*
X100082219Y-84401419D01*
X100140477Y-84300631D01*
X100216331Y-84210544D01*
X100307983Y-84134908D01*
X100320028Y-84126936D01*
X100358189Y-84100826D01*
X100387199Y-84078205D01*
X100401068Y-84063761D01*
X100401269Y-84063304D01*
X100398292Y-84047679D01*
X100386489Y-84012218D01*
X100367086Y-83959838D01*
X100341312Y-83893455D01*
X100310391Y-83815986D01*
X100275551Y-83730350D01*
X100238017Y-83639463D01*
X100199017Y-83546241D01*
X100159777Y-83453603D01*
X100121524Y-83364465D01*
X100085483Y-83281745D01*
X100052883Y-83208359D01*
X100024948Y-83147225D01*
X100002905Y-83101259D01*
X99987982Y-83073379D01*
X99981972Y-83066057D01*
X99963609Y-83071759D01*
X99929248Y-83087051D01*
X99884816Y-83109201D01*
X99860383Y-83122150D01*
X99756622Y-83178253D01*
X99633013Y-83094645D01*
X99569914Y-83051813D01*
X99500830Y-83004678D01*
X99436093Y-82960297D01*
X99403666Y-82937948D01*
X99358059Y-82907323D01*
X99319440Y-82883053D01*
X99292848Y-82868213D01*
X99284210Y-82865076D01*
X99271639Y-82873539D01*
X99243816Y-82897164D01*
X99203439Y-82933498D01*
X99153205Y-82980089D01*
X99095812Y-83034483D01*
X99059514Y-83069408D01*
X98996010Y-83131804D01*
X98941127Y-83187612D01*
X98897086Y-83234446D01*
X98866105Y-83269918D01*
X98850402Y-83291639D01*
X98848895Y-83296048D01*
X98855886Y-83312815D01*
X98875206Y-83346718D01*
X98904709Y-83394324D01*
X98942255Y-83452201D01*
X98985700Y-83516916D01*
X98998055Y-83534958D01*
X99043073Y-83600533D01*
X99083460Y-83659572D01*
X99116960Y-83708758D01*
X99141314Y-83744772D01*
X99154264Y-83764298D01*
X99155515Y-83766317D01*
X99153644Y-83781878D01*
X99143713Y-83816091D01*
X99127453Y-83864445D01*
X99106595Y-83922429D01*
X99082873Y-83985530D01*
X99058016Y-84049237D01*
X99033758Y-84109039D01*
X99011829Y-84160424D01*
X98993962Y-84198881D01*
X98981887Y-84219898D01*
X98981029Y-84220906D01*
X98973646Y-84226912D01*
X98961175Y-84232852D01*
X98940880Y-84239340D01*
X98910022Y-84246991D01*
X98865866Y-84256420D01*
X98805674Y-84268241D01*
X98726707Y-84283071D01*
X98626230Y-84301523D01*
X98604475Y-84305490D01*
X98539998Y-84317947D01*
X98483789Y-84330134D01*
X98440813Y-84340874D01*
X98416040Y-84348991D01*
X98412718Y-84350884D01*
X98407244Y-84367662D01*
X98402794Y-84405155D01*
X98399372Y-84459006D01*
X98396981Y-84524856D01*
X98395623Y-84598347D01*
X98395301Y-84675120D01*
X98396019Y-84750817D01*
X98397779Y-84821080D01*
X98400584Y-84881550D01*
X98404438Y-84927870D01*
X98409343Y-84955681D01*
X98412300Y-84961373D01*
X98428763Y-84967114D01*
X98466249Y-84976455D01*
X98521025Y-84988585D01*
X98589355Y-85002693D01*
X98667506Y-85017970D01*
X98710084Y-85025977D01*
X98790871Y-85041079D01*
X98862913Y-85054760D01*
X98922689Y-85066333D01*
X98966679Y-85075113D01*
X98991361Y-85080413D01*
X98995423Y-85081588D01*
X99002289Y-85094835D01*
X99016802Y-85126743D01*
X99037029Y-85172753D01*
X99061034Y-85228308D01*
X99086882Y-85288847D01*
X99112640Y-85349814D01*
X99136373Y-85406649D01*
X99156146Y-85454794D01*
X99170024Y-85489690D01*
X99176074Y-85506779D01*
X99176186Y-85507526D01*
X99169328Y-85521007D01*
X99150102Y-85552030D01*
X99120528Y-85597511D01*
X99082627Y-85654368D01*
X99038420Y-85719517D01*
X99012721Y-85756938D01*
X98965893Y-85825553D01*
X98924301Y-85887848D01*
X98889975Y-85940671D01*
X98864943Y-85980873D01*
X98851235Y-86005300D01*
X98849256Y-86010776D01*
X98857766Y-86023522D01*
X98881293Y-86050737D01*
X98916832Y-86089372D01*
X98961377Y-86136377D01*
X99011923Y-86188705D01*
X99065464Y-86243305D01*
X99118995Y-86297130D01*
X99169511Y-86347130D01*
X99214006Y-86390257D01*
X99249475Y-86423461D01*
X99272913Y-86443694D01*
X99280754Y-86448522D01*
X99293520Y-86441733D01*
X99324056Y-86422658D01*
X99369390Y-86393239D01*
X99426556Y-86355419D01*
X99492584Y-86311139D01*
X99542390Y-86277405D01*
X99794036Y-86106288D01*
X100003799Y-86192759D01*
X100213563Y-86279230D01*
X100270411Y-86580782D01*
X100327260Y-86882334D01*
X100954915Y-86882334D01*
X101011764Y-86580782D01*
X101011764Y-86580782D01*
G37*
X101011764Y-86580782D02*
X101068612Y-86279230D01*
X101488138Y-86106288D01*
X101739784Y-86277405D01*
X101810258Y-86325050D01*
X101873963Y-86367590D01*
X101927926Y-86403085D01*
X101969173Y-86429590D01*
X101994734Y-86445164D01*
X102001695Y-86448522D01*
X102014235Y-86439886D01*
X102041031Y-86416008D01*
X102079080Y-86379941D01*
X102125379Y-86334733D01*
X102176923Y-86283436D01*
X102230709Y-86229099D01*
X102283735Y-86174772D01*
X102332995Y-86123505D01*
X102375487Y-86078349D01*
X102408207Y-86042354D01*
X102428151Y-86018570D01*
X102432919Y-86010610D01*
X102426057Y-85995935D01*
X102406820Y-85963786D01*
X102377230Y-85917308D01*
X102339310Y-85859644D01*
X102295082Y-85793940D01*
X102269454Y-85756464D01*
X102222741Y-85688032D01*
X102181232Y-85626280D01*
X102146940Y-85574281D01*
X102121880Y-85535108D01*
X102108064Y-85511835D01*
X102105988Y-85506945D01*
X102110695Y-85493045D01*
X102123523Y-85460650D01*
X102142538Y-85414315D01*
X102165803Y-85358594D01*
X102191384Y-85298042D01*
X102217345Y-85237214D01*
X102241750Y-85180664D01*
X102262663Y-85132948D01*
X102278149Y-85098619D01*
X102286272Y-85082232D01*
X102286752Y-85081588D01*
X102299507Y-85078459D01*
X102333477Y-85071479D01*
X102385140Y-85061333D01*
X102450976Y-85048708D01*
X102527464Y-85034291D01*
X102572090Y-85025977D01*
X102653821Y-85010416D01*
X102727643Y-84995608D01*
X102789821Y-84982364D01*
X102836622Y-84971495D01*
X102864309Y-84963811D01*
X102869874Y-84961373D01*
X102875326Y-84944870D01*
X102879724Y-84907600D01*
X102883072Y-84853920D01*
X102885374Y-84788188D01*
X102886632Y-84714763D01*
X102886848Y-84638004D01*
X102886027Y-84562268D01*
X102884171Y-84491914D01*
X102881282Y-84431300D01*
X102877365Y-84384784D01*
X102872422Y-84356725D01*
X102869457Y-84350884D01*
X102851734Y-84343883D01*
X102814181Y-84333873D01*
X102761764Y-84322031D01*
X102699452Y-84309533D01*
X102677700Y-84305490D01*
X102572824Y-84286280D01*
X102489980Y-84270809D01*
X102426430Y-84258463D01*
X102379437Y-84248627D01*
X102346263Y-84240686D01*
X102324171Y-84234024D01*
X102310424Y-84228027D01*
X102302284Y-84222081D01*
X102301145Y-84220906D01*
X102289777Y-84201974D01*
X102272435Y-84165131D01*
X102250850Y-84114887D01*
X102226754Y-84055754D01*
X102201879Y-83992244D01*
X102177957Y-83928868D01*
X102156719Y-83870138D01*
X102139897Y-83820565D01*
X102129222Y-83784661D01*
X102126427Y-83766938D01*
X102126660Y-83766317D01*
X102136131Y-83751830D01*
X102157618Y-83719956D01*
X102188863Y-83674011D01*
X102227607Y-83617315D01*
X102271593Y-83553183D01*
X102284119Y-83534958D01*
X102328784Y-83468886D01*
X102368088Y-83408600D01*
X102399888Y-83357565D01*
X102422045Y-83319240D01*
X102432417Y-83297089D01*
X102432919Y-83294368D01*
X102424205Y-83280064D01*
X102400125Y-83251728D01*
X102363776Y-83212404D01*
X102318253Y-83165139D01*
X102266652Y-83112977D01*
X102212067Y-83058965D01*
X102157594Y-83006147D01*
X102106329Y-82957569D01*
X102061367Y-82916277D01*
X102025804Y-82885315D01*
X102002735Y-82867730D01*
X101996354Y-82864859D01*
X101981499Y-82871622D01*
X101951086Y-82889861D01*
X101910068Y-82916503D01*
X101878509Y-82937948D01*
X101821325Y-82977297D01*
X101753606Y-83023629D01*
X101685680Y-83069887D01*
X101649161Y-83094645D01*
X101525552Y-83178253D01*
X101421791Y-83122150D01*
X101374520Y-83097572D01*
X101334323Y-83078469D01*
X101307126Y-83067573D01*
X101300202Y-83066057D01*
X101291877Y-83077251D01*
X101275454Y-83108883D01*
X101252157Y-83158035D01*
X101223214Y-83221790D01*
X101189850Y-83297229D01*
X101153291Y-83381436D01*
X101114764Y-83471492D01*
X101075494Y-83564479D01*
X101036708Y-83657480D01*
X100999630Y-83747577D01*
X100965489Y-83831852D01*
X100935508Y-83907387D01*
X100910916Y-83971266D01*
X100892936Y-84020569D01*
X100882797Y-84052379D01*
X100881166Y-84063304D01*
X100894091Y-84077239D01*
X100922389Y-84099860D01*
X100960146Y-84126467D01*
X100963315Y-84128572D01*
X101060900Y-84206686D01*
X101139586Y-84297818D01*
X101198691Y-84399055D01*
X101237532Y-84507482D01*
X101255428Y-84620186D01*
X101251697Y-84734252D01*
X101225657Y-84846766D01*
X101176625Y-84954815D01*
X101162200Y-84978455D01*
X101087169Y-85073913D01*
X100998530Y-85150568D01*
X100899349Y-85208020D01*
X100792695Y-85245871D01*
X100681636Y-85263722D01*
X100569239Y-85261175D01*
X100458573Y-85237830D01*
X100352706Y-85193290D01*
X100254705Y-85127155D01*
X100224390Y-85100313D01*
X100147238Y-85016288D01*
X100091018Y-84927834D01*
X100052453Y-84828685D01*
X100030974Y-84730497D01*
X100025672Y-84620103D01*
X100043352Y-84509160D01*
X100082219Y-84401419D01*
X100140477Y-84300631D01*
X100216331Y-84210544D01*
X100307983Y-84134908D01*
X100320028Y-84126936D01*
X100358189Y-84100826D01*
X100387199Y-84078205D01*
X100401068Y-84063761D01*
X100401269Y-84063304D01*
X100398292Y-84047679D01*
X100386489Y-84012218D01*
X100367086Y-83959838D01*
X100341312Y-83893455D01*
X100310391Y-83815986D01*
X100275551Y-83730350D01*
X100238017Y-83639463D01*
X100199017Y-83546241D01*
X100159777Y-83453603D01*
X100121524Y-83364465D01*
X100085483Y-83281745D01*
X100052883Y-83208359D01*
X100024948Y-83147225D01*
X100002905Y-83101259D01*
X99987982Y-83073379D01*
X99981972Y-83066057D01*
X99963609Y-83071759D01*
X99929248Y-83087051D01*
X99884816Y-83109201D01*
X99860383Y-83122150D01*
X99756622Y-83178253D01*
X99633013Y-83094645D01*
X99569914Y-83051813D01*
X99500830Y-83004678D01*
X99436093Y-82960297D01*
X99403666Y-82937948D01*
X99358059Y-82907323D01*
X99319440Y-82883053D01*
X99292848Y-82868213D01*
X99284210Y-82865076D01*
X99271639Y-82873539D01*
X99243816Y-82897164D01*
X99203439Y-82933498D01*
X99153205Y-82980089D01*
X99095812Y-83034483D01*
X99059514Y-83069408D01*
X98996010Y-83131804D01*
X98941127Y-83187612D01*
X98897086Y-83234446D01*
X98866105Y-83269918D01*
X98850402Y-83291639D01*
X98848895Y-83296048D01*
X98855886Y-83312815D01*
X98875206Y-83346718D01*
X98904709Y-83394324D01*
X98942255Y-83452201D01*
X98985700Y-83516916D01*
X98998055Y-83534958D01*
X99043073Y-83600533D01*
X99083460Y-83659572D01*
X99116960Y-83708758D01*
X99141314Y-83744772D01*
X99154264Y-83764298D01*
X99155515Y-83766317D01*
X99153644Y-83781878D01*
X99143713Y-83816091D01*
X99127453Y-83864445D01*
X99106595Y-83922429D01*
X99082873Y-83985530D01*
X99058016Y-84049237D01*
X99033758Y-84109039D01*
X99011829Y-84160424D01*
X98993962Y-84198881D01*
X98981887Y-84219898D01*
X98981029Y-84220906D01*
X98973646Y-84226912D01*
X98961175Y-84232852D01*
X98940880Y-84239340D01*
X98910022Y-84246991D01*
X98865866Y-84256420D01*
X98805674Y-84268241D01*
X98726707Y-84283071D01*
X98626230Y-84301523D01*
X98604475Y-84305490D01*
X98539998Y-84317947D01*
X98483789Y-84330134D01*
X98440813Y-84340874D01*
X98416040Y-84348991D01*
X98412718Y-84350884D01*
X98407244Y-84367662D01*
X98402794Y-84405155D01*
X98399372Y-84459006D01*
X98396981Y-84524856D01*
X98395623Y-84598347D01*
X98395301Y-84675120D01*
X98396019Y-84750817D01*
X98397779Y-84821080D01*
X98400584Y-84881550D01*
X98404438Y-84927870D01*
X98409343Y-84955681D01*
X98412300Y-84961373D01*
X98428763Y-84967114D01*
X98466249Y-84976455D01*
X98521025Y-84988585D01*
X98589355Y-85002693D01*
X98667506Y-85017970D01*
X98710084Y-85025977D01*
X98790871Y-85041079D01*
X98862913Y-85054760D01*
X98922689Y-85066333D01*
X98966679Y-85075113D01*
X98991361Y-85080413D01*
X98995423Y-85081588D01*
X99002289Y-85094835D01*
X99016802Y-85126743D01*
X99037029Y-85172753D01*
X99061034Y-85228308D01*
X99086882Y-85288847D01*
X99112640Y-85349814D01*
X99136373Y-85406649D01*
X99156146Y-85454794D01*
X99170024Y-85489690D01*
X99176074Y-85506779D01*
X99176186Y-85507526D01*
X99169328Y-85521007D01*
X99150102Y-85552030D01*
X99120528Y-85597511D01*
X99082627Y-85654368D01*
X99038420Y-85719517D01*
X99012721Y-85756938D01*
X98965893Y-85825553D01*
X98924301Y-85887848D01*
X98889975Y-85940671D01*
X98864943Y-85980873D01*
X98851235Y-86005300D01*
X98849256Y-86010776D01*
X98857766Y-86023522D01*
X98881293Y-86050737D01*
X98916832Y-86089372D01*
X98961377Y-86136377D01*
X99011923Y-86188705D01*
X99065464Y-86243305D01*
X99118995Y-86297130D01*
X99169511Y-86347130D01*
X99214006Y-86390257D01*
X99249475Y-86423461D01*
X99272913Y-86443694D01*
X99280754Y-86448522D01*
X99293520Y-86441733D01*
X99324056Y-86422658D01*
X99369390Y-86393239D01*
X99426556Y-86355419D01*
X99492584Y-86311139D01*
X99542390Y-86277405D01*
X99794036Y-86106288D01*
X100003799Y-86192759D01*
X100213563Y-86279230D01*
X100270411Y-86580782D01*
X100327260Y-86882334D01*
X100954915Y-86882334D01*
X101011764Y-86580782D01*
D12*
G04 #@! TO.C,DPWR1*
X98590000Y-108304000D02*
X96305000Y-108304000D01*
X96305000Y-108304000D02*
X96305000Y-106834000D01*
X96305000Y-106834000D02*
X98590000Y-106834000D01*
G04 #@! TO.C,D4*
X99485000Y-91600000D02*
X100635000Y-91600000D01*
X99485000Y-98900000D02*
X99485000Y-91600000D01*
X104985000Y-98900000D02*
X104985000Y-91600000D01*
G04 #@! TO.C,D3*
X72751500Y-104871500D02*
X73901500Y-104871500D01*
X72751500Y-112171500D02*
X72751500Y-104871500D01*
X78251500Y-112171500D02*
X78251500Y-104871500D01*
G04 #@! TO.C,Q30*
X69471000Y-105720000D02*
X69471000Y-104790000D01*
X69471000Y-102560000D02*
X69471000Y-103490000D01*
X69471000Y-102560000D02*
X71631000Y-102560000D01*
X69471000Y-105720000D02*
X70931000Y-105720000D01*
G04 #@! TO.C,QPWR1*
X96210000Y-104015000D02*
X97140000Y-104015000D01*
X99370000Y-104015000D02*
X98440000Y-104015000D01*
X99370000Y-104015000D02*
X99370000Y-106175000D01*
X96210000Y-104015000D02*
X96210000Y-105475000D01*
G04 #@! TO.C,C401*
D13*
X114403047Y-102617542D02*
X114450666Y-102665161D01*
X114593523Y-102712780D01*
X114688761Y-102712780D01*
X114831619Y-102665161D01*
X114926857Y-102569923D01*
X114974476Y-102474685D01*
X115022095Y-102284209D01*
X115022095Y-102141352D01*
X114974476Y-101950876D01*
X114926857Y-101855638D01*
X114831619Y-101760400D01*
X114688761Y-101712780D01*
X114593523Y-101712780D01*
X114450666Y-101760400D01*
X114403047Y-101808019D01*
X113545904Y-102046114D02*
X113545904Y-102712780D01*
X113784000Y-101665161D02*
X114022095Y-102379447D01*
X113403047Y-102379447D01*
X112831619Y-101712780D02*
X112736380Y-101712780D01*
X112641142Y-101760400D01*
X112593523Y-101808019D01*
X112545904Y-101903257D01*
X112498285Y-102093733D01*
X112498285Y-102331828D01*
X112545904Y-102522304D01*
X112593523Y-102617542D01*
X112641142Y-102665161D01*
X112736380Y-102712780D01*
X112831619Y-102712780D01*
X112926857Y-102665161D01*
X112974476Y-102617542D01*
X113022095Y-102522304D01*
X113069714Y-102331828D01*
X113069714Y-102093733D01*
X113022095Y-101903257D01*
X112974476Y-101808019D01*
X112926857Y-101760400D01*
X112831619Y-101712780D01*
X111545904Y-102712780D02*
X112117333Y-102712780D01*
X111831619Y-102712780D02*
X111831619Y-101712780D01*
X111926857Y-101855638D01*
X112022095Y-101950876D01*
X112117333Y-101998495D01*
G04 #@! TO.C,U401*
X108508380Y-105473714D02*
X109317904Y-105473714D01*
X109413142Y-105521333D01*
X109460761Y-105568952D01*
X109508380Y-105664190D01*
X109508380Y-105854666D01*
X109460761Y-105949904D01*
X109413142Y-105997523D01*
X109317904Y-106045142D01*
X108508380Y-106045142D01*
X108841714Y-106949904D02*
X109508380Y-106949904D01*
X108460761Y-106711809D02*
X109175047Y-106473714D01*
X109175047Y-107092761D01*
X108508380Y-107664190D02*
X108508380Y-107759428D01*
X108556000Y-107854666D01*
X108603619Y-107902285D01*
X108698857Y-107949904D01*
X108889333Y-107997523D01*
X109127428Y-107997523D01*
X109317904Y-107949904D01*
X109413142Y-107902285D01*
X109460761Y-107854666D01*
X109508380Y-107759428D01*
X109508380Y-107664190D01*
X109460761Y-107568952D01*
X109413142Y-107521333D01*
X109317904Y-107473714D01*
X109127428Y-107426095D01*
X108889333Y-107426095D01*
X108698857Y-107473714D01*
X108603619Y-107521333D01*
X108556000Y-107568952D01*
X108508380Y-107664190D01*
X109508380Y-108949904D02*
X109508380Y-108378476D01*
X109508380Y-108664190D02*
X108508380Y-108664190D01*
X108651238Y-108568952D01*
X108746476Y-108473714D01*
X108794095Y-108378476D01*
G04 #@! TO.C,R8*
X114263466Y-90165180D02*
X114596800Y-89688990D01*
X114834895Y-90165180D02*
X114834895Y-89165180D01*
X114453942Y-89165180D01*
X114358704Y-89212800D01*
X114311085Y-89260419D01*
X114263466Y-89355657D01*
X114263466Y-89498514D01*
X114311085Y-89593752D01*
X114358704Y-89641371D01*
X114453942Y-89688990D01*
X114834895Y-89688990D01*
X113692038Y-89593752D02*
X113787276Y-89546133D01*
X113834895Y-89498514D01*
X113882514Y-89403276D01*
X113882514Y-89355657D01*
X113834895Y-89260419D01*
X113787276Y-89212800D01*
X113692038Y-89165180D01*
X113501561Y-89165180D01*
X113406323Y-89212800D01*
X113358704Y-89260419D01*
X113311085Y-89355657D01*
X113311085Y-89403276D01*
X113358704Y-89498514D01*
X113406323Y-89546133D01*
X113501561Y-89593752D01*
X113692038Y-89593752D01*
X113787276Y-89641371D01*
X113834895Y-89688990D01*
X113882514Y-89784228D01*
X113882514Y-89974704D01*
X113834895Y-90069942D01*
X113787276Y-90117561D01*
X113692038Y-90165180D01*
X113501561Y-90165180D01*
X113406323Y-90117561D01*
X113358704Y-90069942D01*
X113311085Y-89974704D01*
X113311085Y-89784228D01*
X113358704Y-89688990D01*
X113406323Y-89641371D01*
X113501561Y-89593752D01*
G04 #@! TO.C,R9*
X116600266Y-92501980D02*
X116933600Y-92025790D01*
X117171695Y-92501980D02*
X117171695Y-91501980D01*
X116790742Y-91501980D01*
X116695504Y-91549600D01*
X116647885Y-91597219D01*
X116600266Y-91692457D01*
X116600266Y-91835314D01*
X116647885Y-91930552D01*
X116695504Y-91978171D01*
X116790742Y-92025790D01*
X117171695Y-92025790D01*
X116124076Y-92501980D02*
X115933600Y-92501980D01*
X115838361Y-92454361D01*
X115790742Y-92406742D01*
X115695504Y-92263885D01*
X115647885Y-92073409D01*
X115647885Y-91692457D01*
X115695504Y-91597219D01*
X115743123Y-91549600D01*
X115838361Y-91501980D01*
X116028838Y-91501980D01*
X116124076Y-91549600D01*
X116171695Y-91597219D01*
X116219314Y-91692457D01*
X116219314Y-91930552D01*
X116171695Y-92025790D01*
X116124076Y-92073409D01*
X116028838Y-92121028D01*
X115838361Y-92121028D01*
X115743123Y-92073409D01*
X115695504Y-92025790D01*
X115647885Y-91930552D01*
G04 #@! TO.C,TP1*
X81906904Y-102669380D02*
X81335476Y-102669380D01*
X81621190Y-103669380D02*
X81621190Y-102669380D01*
X81002142Y-103669380D02*
X81002142Y-102669380D01*
X80621190Y-102669380D01*
X80525952Y-102717000D01*
X80478333Y-102764619D01*
X80430714Y-102859857D01*
X80430714Y-103002714D01*
X80478333Y-103097952D01*
X80525952Y-103145571D01*
X80621190Y-103193190D01*
X81002142Y-103193190D01*
X79478333Y-103669380D02*
X80049761Y-103669380D01*
X79764047Y-103669380D02*
X79764047Y-102669380D01*
X79859285Y-102812238D01*
X79954523Y-102907476D01*
X80049761Y-102955095D01*
G04 #@! TO.C,TP2*
X75607704Y-102669380D02*
X75036276Y-102669380D01*
X75321990Y-103669380D02*
X75321990Y-102669380D01*
X74702942Y-103669380D02*
X74702942Y-102669380D01*
X74321990Y-102669380D01*
X74226752Y-102717000D01*
X74179133Y-102764619D01*
X74131514Y-102859857D01*
X74131514Y-103002714D01*
X74179133Y-103097952D01*
X74226752Y-103145571D01*
X74321990Y-103193190D01*
X74702942Y-103193190D01*
X73750561Y-102764619D02*
X73702942Y-102717000D01*
X73607704Y-102669380D01*
X73369609Y-102669380D01*
X73274371Y-102717000D01*
X73226752Y-102764619D01*
X73179133Y-102859857D01*
X73179133Y-102955095D01*
X73226752Y-103097952D01*
X73798180Y-103669380D01*
X73179133Y-103669380D01*
G04 #@! TO.C,TP3*
X78757304Y-102669380D02*
X78185876Y-102669380D01*
X78471590Y-103669380D02*
X78471590Y-102669380D01*
X77852542Y-103669380D02*
X77852542Y-102669380D01*
X77471590Y-102669380D01*
X77376352Y-102717000D01*
X77328733Y-102764619D01*
X77281114Y-102859857D01*
X77281114Y-103002714D01*
X77328733Y-103097952D01*
X77376352Y-103145571D01*
X77471590Y-103193190D01*
X77852542Y-103193190D01*
X76947780Y-102669380D02*
X76328733Y-102669380D01*
X76662066Y-103050333D01*
X76519209Y-103050333D01*
X76423971Y-103097952D01*
X76376352Y-103145571D01*
X76328733Y-103240809D01*
X76328733Y-103478904D01*
X76376352Y-103574142D01*
X76423971Y-103621761D01*
X76519209Y-103669380D01*
X76804923Y-103669380D01*
X76900161Y-103621761D01*
X76947780Y-103574142D01*
G04 #@! TO.C,R1*
X113857066Y-96642180D02*
X114190400Y-96165990D01*
X114428495Y-96642180D02*
X114428495Y-95642180D01*
X114047542Y-95642180D01*
X113952304Y-95689800D01*
X113904685Y-95737419D01*
X113857066Y-95832657D01*
X113857066Y-95975514D01*
X113904685Y-96070752D01*
X113952304Y-96118371D01*
X114047542Y-96165990D01*
X114428495Y-96165990D01*
X112904685Y-96642180D02*
X113476114Y-96642180D01*
X113190400Y-96642180D02*
X113190400Y-95642180D01*
X113285638Y-95785038D01*
X113380876Y-95880276D01*
X113476114Y-95927895D01*
G04 #@! TO.C,R7*
X102452466Y-90927180D02*
X102785800Y-90450990D01*
X103023895Y-90927180D02*
X103023895Y-89927180D01*
X102642942Y-89927180D01*
X102547704Y-89974800D01*
X102500085Y-90022419D01*
X102452466Y-90117657D01*
X102452466Y-90260514D01*
X102500085Y-90355752D01*
X102547704Y-90403371D01*
X102642942Y-90450990D01*
X103023895Y-90450990D01*
X102119133Y-89927180D02*
X101452466Y-89927180D01*
X101881038Y-90927180D01*
G04 #@! TO.C,C5*
X65025542Y-95337333D02*
X65073161Y-95289714D01*
X65120780Y-95146857D01*
X65120780Y-95051619D01*
X65073161Y-94908761D01*
X64977923Y-94813523D01*
X64882685Y-94765904D01*
X64692209Y-94718285D01*
X64549352Y-94718285D01*
X64358876Y-94765904D01*
X64263638Y-94813523D01*
X64168400Y-94908761D01*
X64120780Y-95051619D01*
X64120780Y-95146857D01*
X64168400Y-95289714D01*
X64216019Y-95337333D01*
X64120780Y-96242095D02*
X64120780Y-95765904D01*
X64596971Y-95718285D01*
X64549352Y-95765904D01*
X64501733Y-95861142D01*
X64501733Y-96099238D01*
X64549352Y-96194476D01*
X64596971Y-96242095D01*
X64692209Y-96289714D01*
X64930304Y-96289714D01*
X65025542Y-96242095D01*
X65073161Y-96194476D01*
X65120780Y-96099238D01*
X65120780Y-95861142D01*
X65073161Y-95765904D01*
X65025542Y-95718285D01*
G04 #@! TO.C,D8*
X93721180Y-99147404D02*
X92721180Y-99147404D01*
X92721180Y-99385500D01*
X92768800Y-99528357D01*
X92864038Y-99623595D01*
X92959276Y-99671214D01*
X93149752Y-99718833D01*
X93292609Y-99718833D01*
X93483085Y-99671214D01*
X93578323Y-99623595D01*
X93673561Y-99528357D01*
X93721180Y-99385500D01*
X93721180Y-99147404D01*
X93149752Y-100290261D02*
X93102133Y-100195023D01*
X93054514Y-100147404D01*
X92959276Y-100099785D01*
X92911657Y-100099785D01*
X92816419Y-100147404D01*
X92768800Y-100195023D01*
X92721180Y-100290261D01*
X92721180Y-100480738D01*
X92768800Y-100575976D01*
X92816419Y-100623595D01*
X92911657Y-100671214D01*
X92959276Y-100671214D01*
X93054514Y-100623595D01*
X93102133Y-100575976D01*
X93149752Y-100480738D01*
X93149752Y-100290261D01*
X93197371Y-100195023D01*
X93244990Y-100147404D01*
X93340228Y-100099785D01*
X93530704Y-100099785D01*
X93625942Y-100147404D01*
X93673561Y-100195023D01*
X93721180Y-100290261D01*
X93721180Y-100480738D01*
X93673561Y-100575976D01*
X93625942Y-100623595D01*
X93530704Y-100671214D01*
X93340228Y-100671214D01*
X93244990Y-100623595D01*
X93197371Y-100575976D01*
X93149752Y-100480738D01*
G04 #@! TO.C,J4*
X71961333Y-81333980D02*
X71961333Y-82048266D01*
X72008952Y-82191123D01*
X72104190Y-82286361D01*
X72247047Y-82333980D01*
X72342285Y-82333980D01*
X71056571Y-81667314D02*
X71056571Y-82333980D01*
X71294666Y-81286361D02*
X71532761Y-82000647D01*
X70913714Y-82000647D01*
G04 #@! TO.C,C4*
X71680342Y-94829333D02*
X71727961Y-94781714D01*
X71775580Y-94638857D01*
X71775580Y-94543619D01*
X71727961Y-94400761D01*
X71632723Y-94305523D01*
X71537485Y-94257904D01*
X71347009Y-94210285D01*
X71204152Y-94210285D01*
X71013676Y-94257904D01*
X70918438Y-94305523D01*
X70823200Y-94400761D01*
X70775580Y-94543619D01*
X70775580Y-94638857D01*
X70823200Y-94781714D01*
X70870819Y-94829333D01*
X71108914Y-95686476D02*
X71775580Y-95686476D01*
X70727961Y-95448380D02*
X71442247Y-95210285D01*
X71442247Y-95829333D01*
G04 #@! TO.C,AMP1*
X79865314Y-98673066D02*
X79389123Y-98673066D01*
X79960552Y-98958780D02*
X79627219Y-97958780D01*
X79293885Y-98958780D01*
X78960552Y-98958780D02*
X78960552Y-97958780D01*
X78627219Y-98673066D01*
X78293885Y-97958780D01*
X78293885Y-98958780D01*
X77817695Y-98958780D02*
X77817695Y-97958780D01*
X77436742Y-97958780D01*
X77341504Y-98006400D01*
X77293885Y-98054019D01*
X77246266Y-98149257D01*
X77246266Y-98292114D01*
X77293885Y-98387352D01*
X77341504Y-98434971D01*
X77436742Y-98482590D01*
X77817695Y-98482590D01*
X76293885Y-98958780D02*
X76865314Y-98958780D01*
X76579600Y-98958780D02*
X76579600Y-97958780D01*
X76674838Y-98101638D01*
X76770076Y-98196876D01*
X76865314Y-98244495D01*
G04 #@! TO.C,C2*
X65000142Y-97724933D02*
X65047761Y-97677314D01*
X65095380Y-97534457D01*
X65095380Y-97439219D01*
X65047761Y-97296361D01*
X64952523Y-97201123D01*
X64857285Y-97153504D01*
X64666809Y-97105885D01*
X64523952Y-97105885D01*
X64333476Y-97153504D01*
X64238238Y-97201123D01*
X64143000Y-97296361D01*
X64095380Y-97439219D01*
X64095380Y-97534457D01*
X64143000Y-97677314D01*
X64190619Y-97724933D01*
X64190619Y-98105885D02*
X64143000Y-98153504D01*
X64095380Y-98248742D01*
X64095380Y-98486838D01*
X64143000Y-98582076D01*
X64190619Y-98629695D01*
X64285857Y-98677314D01*
X64381095Y-98677314D01*
X64523952Y-98629695D01*
X65095380Y-98058266D01*
X65095380Y-98677314D01*
G04 #@! TO.C,C31*
X94210142Y-103471742D02*
X94257761Y-103424123D01*
X94305380Y-103281266D01*
X94305380Y-103186028D01*
X94257761Y-103043171D01*
X94162523Y-102947933D01*
X94067285Y-102900314D01*
X93876809Y-102852695D01*
X93733952Y-102852695D01*
X93543476Y-102900314D01*
X93448238Y-102947933D01*
X93353000Y-103043171D01*
X93305380Y-103186028D01*
X93305380Y-103281266D01*
X93353000Y-103424123D01*
X93400619Y-103471742D01*
X93305380Y-103805076D02*
X93305380Y-104424123D01*
X93686333Y-104090790D01*
X93686333Y-104233647D01*
X93733952Y-104328885D01*
X93781571Y-104376504D01*
X93876809Y-104424123D01*
X94114904Y-104424123D01*
X94210142Y-104376504D01*
X94257761Y-104328885D01*
X94305380Y-104233647D01*
X94305380Y-103947933D01*
X94257761Y-103852695D01*
X94210142Y-103805076D01*
X94305380Y-105376504D02*
X94305380Y-104805076D01*
X94305380Y-105090790D02*
X93305380Y-105090790D01*
X93448238Y-104995552D01*
X93543476Y-104900314D01*
X93591095Y-104805076D01*
G04 #@! TO.C,R6*
X66003466Y-90876380D02*
X66336800Y-90400190D01*
X66574895Y-90876380D02*
X66574895Y-89876380D01*
X66193942Y-89876380D01*
X66098704Y-89924000D01*
X66051085Y-89971619D01*
X66003466Y-90066857D01*
X66003466Y-90209714D01*
X66051085Y-90304952D01*
X66098704Y-90352571D01*
X66193942Y-90400190D01*
X66574895Y-90400190D01*
X65146323Y-89876380D02*
X65336800Y-89876380D01*
X65432038Y-89924000D01*
X65479657Y-89971619D01*
X65574895Y-90114476D01*
X65622514Y-90304952D01*
X65622514Y-90685904D01*
X65574895Y-90781142D01*
X65527276Y-90828761D01*
X65432038Y-90876380D01*
X65241561Y-90876380D01*
X65146323Y-90828761D01*
X65098704Y-90781142D01*
X65051085Y-90685904D01*
X65051085Y-90447809D01*
X65098704Y-90352571D01*
X65146323Y-90304952D01*
X65241561Y-90257333D01*
X65432038Y-90257333D01*
X65527276Y-90304952D01*
X65574895Y-90352571D01*
X65622514Y-90447809D01*
G04 #@! TO.C,R5*
X65990766Y-88971380D02*
X66324100Y-88495190D01*
X66562195Y-88971380D02*
X66562195Y-87971380D01*
X66181242Y-87971380D01*
X66086004Y-88019000D01*
X66038385Y-88066619D01*
X65990766Y-88161857D01*
X65990766Y-88304714D01*
X66038385Y-88399952D01*
X66086004Y-88447571D01*
X66181242Y-88495190D01*
X66562195Y-88495190D01*
X65086004Y-87971380D02*
X65562195Y-87971380D01*
X65609814Y-88447571D01*
X65562195Y-88399952D01*
X65466957Y-88352333D01*
X65228861Y-88352333D01*
X65133623Y-88399952D01*
X65086004Y-88447571D01*
X65038385Y-88542809D01*
X65038385Y-88780904D01*
X65086004Y-88876142D01*
X65133623Y-88923761D01*
X65228861Y-88971380D01*
X65466957Y-88971380D01*
X65562195Y-88923761D01*
X65609814Y-88876142D01*
G04 #@! TO.C,R52*
X101544380Y-109135942D02*
X101068190Y-108802609D01*
X101544380Y-108564514D02*
X100544380Y-108564514D01*
X100544380Y-108945466D01*
X100592000Y-109040704D01*
X100639619Y-109088323D01*
X100734857Y-109135942D01*
X100877714Y-109135942D01*
X100972952Y-109088323D01*
X101020571Y-109040704D01*
X101068190Y-108945466D01*
X101068190Y-108564514D01*
X100544380Y-110040704D02*
X100544380Y-109564514D01*
X101020571Y-109516895D01*
X100972952Y-109564514D01*
X100925333Y-109659752D01*
X100925333Y-109897847D01*
X100972952Y-109993085D01*
X101020571Y-110040704D01*
X101115809Y-110088323D01*
X101353904Y-110088323D01*
X101449142Y-110040704D01*
X101496761Y-109993085D01*
X101544380Y-109897847D01*
X101544380Y-109659752D01*
X101496761Y-109564514D01*
X101449142Y-109516895D01*
X100639619Y-110469276D02*
X100592000Y-110516895D01*
X100544380Y-110612133D01*
X100544380Y-110850228D01*
X100592000Y-110945466D01*
X100639619Y-110993085D01*
X100734857Y-111040704D01*
X100830095Y-111040704D01*
X100972952Y-110993085D01*
X101544380Y-110421657D01*
X101544380Y-111040704D01*
G04 #@! TO.C,C50*
X94235542Y-106849942D02*
X94283161Y-106802323D01*
X94330780Y-106659466D01*
X94330780Y-106564228D01*
X94283161Y-106421371D01*
X94187923Y-106326133D01*
X94092685Y-106278514D01*
X93902209Y-106230895D01*
X93759352Y-106230895D01*
X93568876Y-106278514D01*
X93473638Y-106326133D01*
X93378400Y-106421371D01*
X93330780Y-106564228D01*
X93330780Y-106659466D01*
X93378400Y-106802323D01*
X93426019Y-106849942D01*
X93330780Y-107754704D02*
X93330780Y-107278514D01*
X93806971Y-107230895D01*
X93759352Y-107278514D01*
X93711733Y-107373752D01*
X93711733Y-107611847D01*
X93759352Y-107707085D01*
X93806971Y-107754704D01*
X93902209Y-107802323D01*
X94140304Y-107802323D01*
X94235542Y-107754704D01*
X94283161Y-107707085D01*
X94330780Y-107611847D01*
X94330780Y-107373752D01*
X94283161Y-107278514D01*
X94235542Y-107230895D01*
X93330780Y-108421371D02*
X93330780Y-108516609D01*
X93378400Y-108611847D01*
X93426019Y-108659466D01*
X93521257Y-108707085D01*
X93711733Y-108754704D01*
X93949828Y-108754704D01*
X94140304Y-108707085D01*
X94235542Y-108659466D01*
X94283161Y-108611847D01*
X94330780Y-108516609D01*
X94330780Y-108421371D01*
X94283161Y-108326133D01*
X94235542Y-108278514D01*
X94140304Y-108230895D01*
X93949828Y-108183276D01*
X93711733Y-108183276D01*
X93521257Y-108230895D01*
X93426019Y-108278514D01*
X93378400Y-108326133D01*
X93330780Y-108421371D01*
G04 #@! TO.C,C52*
X82247742Y-105605342D02*
X82295361Y-105557723D01*
X82342980Y-105414866D01*
X82342980Y-105319628D01*
X82295361Y-105176771D01*
X82200123Y-105081533D01*
X82104885Y-105033914D01*
X81914409Y-104986295D01*
X81771552Y-104986295D01*
X81581076Y-105033914D01*
X81485838Y-105081533D01*
X81390600Y-105176771D01*
X81342980Y-105319628D01*
X81342980Y-105414866D01*
X81390600Y-105557723D01*
X81438219Y-105605342D01*
X81342980Y-106510104D02*
X81342980Y-106033914D01*
X81819171Y-105986295D01*
X81771552Y-106033914D01*
X81723933Y-106129152D01*
X81723933Y-106367247D01*
X81771552Y-106462485D01*
X81819171Y-106510104D01*
X81914409Y-106557723D01*
X82152504Y-106557723D01*
X82247742Y-106510104D01*
X82295361Y-106462485D01*
X82342980Y-106367247D01*
X82342980Y-106129152D01*
X82295361Y-106033914D01*
X82247742Y-105986295D01*
X81438219Y-106938676D02*
X81390600Y-106986295D01*
X81342980Y-107081533D01*
X81342980Y-107319628D01*
X81390600Y-107414866D01*
X81438219Y-107462485D01*
X81533457Y-107510104D01*
X81628695Y-107510104D01*
X81771552Y-107462485D01*
X82342980Y-106891057D01*
X82342980Y-107510104D01*
G04 #@! TO.C,R55*
X106510057Y-106827580D02*
X106843390Y-106351390D01*
X107081485Y-106827580D02*
X107081485Y-105827580D01*
X106700533Y-105827580D01*
X106605295Y-105875200D01*
X106557676Y-105922819D01*
X106510057Y-106018057D01*
X106510057Y-106160914D01*
X106557676Y-106256152D01*
X106605295Y-106303771D01*
X106700533Y-106351390D01*
X107081485Y-106351390D01*
X105605295Y-105827580D02*
X106081485Y-105827580D01*
X106129104Y-106303771D01*
X106081485Y-106256152D01*
X105986247Y-106208533D01*
X105748152Y-106208533D01*
X105652914Y-106256152D01*
X105605295Y-106303771D01*
X105557676Y-106399009D01*
X105557676Y-106637104D01*
X105605295Y-106732342D01*
X105652914Y-106779961D01*
X105748152Y-106827580D01*
X105986247Y-106827580D01*
X106081485Y-106779961D01*
X106129104Y-106732342D01*
X104652914Y-105827580D02*
X105129104Y-105827580D01*
X105176723Y-106303771D01*
X105129104Y-106256152D01*
X105033866Y-106208533D01*
X104795771Y-106208533D01*
X104700533Y-106256152D01*
X104652914Y-106303771D01*
X104605295Y-106399009D01*
X104605295Y-106637104D01*
X104652914Y-106732342D01*
X104700533Y-106779961D01*
X104795771Y-106827580D01*
X105033866Y-106827580D01*
X105129104Y-106779961D01*
X105176723Y-106732342D01*
G04 #@! TO.C,C8*
X99048866Y-87529942D02*
X99096485Y-87577561D01*
X99239342Y-87625180D01*
X99334580Y-87625180D01*
X99477438Y-87577561D01*
X99572676Y-87482323D01*
X99620295Y-87387085D01*
X99667914Y-87196609D01*
X99667914Y-87053752D01*
X99620295Y-86863276D01*
X99572676Y-86768038D01*
X99477438Y-86672800D01*
X99334580Y-86625180D01*
X99239342Y-86625180D01*
X99096485Y-86672800D01*
X99048866Y-86720419D01*
X98477438Y-87053752D02*
X98572676Y-87006133D01*
X98620295Y-86958514D01*
X98667914Y-86863276D01*
X98667914Y-86815657D01*
X98620295Y-86720419D01*
X98572676Y-86672800D01*
X98477438Y-86625180D01*
X98286961Y-86625180D01*
X98191723Y-86672800D01*
X98144104Y-86720419D01*
X98096485Y-86815657D01*
X98096485Y-86863276D01*
X98144104Y-86958514D01*
X98191723Y-87006133D01*
X98286961Y-87053752D01*
X98477438Y-87053752D01*
X98572676Y-87101371D01*
X98620295Y-87148990D01*
X98667914Y-87244228D01*
X98667914Y-87434704D01*
X98620295Y-87529942D01*
X98572676Y-87577561D01*
X98477438Y-87625180D01*
X98286961Y-87625180D01*
X98191723Y-87577561D01*
X98144104Y-87529942D01*
X98096485Y-87434704D01*
X98096485Y-87244228D01*
X98144104Y-87148990D01*
X98191723Y-87101371D01*
X98286961Y-87053752D01*
G04 #@! TO.C,C9*
X98998066Y-89511142D02*
X99045685Y-89558761D01*
X99188542Y-89606380D01*
X99283780Y-89606380D01*
X99426638Y-89558761D01*
X99521876Y-89463523D01*
X99569495Y-89368285D01*
X99617114Y-89177809D01*
X99617114Y-89034952D01*
X99569495Y-88844476D01*
X99521876Y-88749238D01*
X99426638Y-88654000D01*
X99283780Y-88606380D01*
X99188542Y-88606380D01*
X99045685Y-88654000D01*
X98998066Y-88701619D01*
X98521876Y-89606380D02*
X98331400Y-89606380D01*
X98236161Y-89558761D01*
X98188542Y-89511142D01*
X98093304Y-89368285D01*
X98045685Y-89177809D01*
X98045685Y-88796857D01*
X98093304Y-88701619D01*
X98140923Y-88654000D01*
X98236161Y-88606380D01*
X98426638Y-88606380D01*
X98521876Y-88654000D01*
X98569495Y-88701619D01*
X98617114Y-88796857D01*
X98617114Y-89034952D01*
X98569495Y-89130190D01*
X98521876Y-89177809D01*
X98426638Y-89225428D01*
X98236161Y-89225428D01*
X98140923Y-89177809D01*
X98093304Y-89130190D01*
X98045685Y-89034952D01*
G04 #@! TO.C,C19*
X67851257Y-100179142D02*
X67898876Y-100226761D01*
X68041733Y-100274380D01*
X68136971Y-100274380D01*
X68279828Y-100226761D01*
X68375066Y-100131523D01*
X68422685Y-100036285D01*
X68470304Y-99845809D01*
X68470304Y-99702952D01*
X68422685Y-99512476D01*
X68375066Y-99417238D01*
X68279828Y-99322000D01*
X68136971Y-99274380D01*
X68041733Y-99274380D01*
X67898876Y-99322000D01*
X67851257Y-99369619D01*
X66898876Y-100274380D02*
X67470304Y-100274380D01*
X67184590Y-100274380D02*
X67184590Y-99274380D01*
X67279828Y-99417238D01*
X67375066Y-99512476D01*
X67470304Y-99560095D01*
X66422685Y-100274380D02*
X66232209Y-100274380D01*
X66136971Y-100226761D01*
X66089352Y-100179142D01*
X65994114Y-100036285D01*
X65946495Y-99845809D01*
X65946495Y-99464857D01*
X65994114Y-99369619D01*
X66041733Y-99322000D01*
X66136971Y-99274380D01*
X66327447Y-99274380D01*
X66422685Y-99322000D01*
X66470304Y-99369619D01*
X66517923Y-99464857D01*
X66517923Y-99702952D01*
X66470304Y-99798190D01*
X66422685Y-99845809D01*
X66327447Y-99893428D01*
X66136971Y-99893428D01*
X66041733Y-99845809D01*
X65994114Y-99798190D01*
X65946495Y-99702952D01*
G04 #@! TO.C,Q6*
X86328238Y-82756619D02*
X86423476Y-82709000D01*
X86518714Y-82613761D01*
X86661571Y-82470904D01*
X86756809Y-82423285D01*
X86852047Y-82423285D01*
X86804428Y-82661380D02*
X86899666Y-82613761D01*
X86994904Y-82518523D01*
X87042523Y-82328047D01*
X87042523Y-81994714D01*
X86994904Y-81804238D01*
X86899666Y-81709000D01*
X86804428Y-81661380D01*
X86613952Y-81661380D01*
X86518714Y-81709000D01*
X86423476Y-81804238D01*
X86375857Y-81994714D01*
X86375857Y-82328047D01*
X86423476Y-82518523D01*
X86518714Y-82613761D01*
X86613952Y-82661380D01*
X86804428Y-82661380D01*
X85518714Y-81661380D02*
X85709190Y-81661380D01*
X85804428Y-81709000D01*
X85852047Y-81756619D01*
X85947285Y-81899476D01*
X85994904Y-82089952D01*
X85994904Y-82470904D01*
X85947285Y-82566142D01*
X85899666Y-82613761D01*
X85804428Y-82661380D01*
X85613952Y-82661380D01*
X85518714Y-82613761D01*
X85471095Y-82566142D01*
X85423476Y-82470904D01*
X85423476Y-82232809D01*
X85471095Y-82137571D01*
X85518714Y-82089952D01*
X85613952Y-82042333D01*
X85804428Y-82042333D01*
X85899666Y-82089952D01*
X85947285Y-82137571D01*
X85994904Y-82232809D01*
G04 #@! TO.C,R12*
X93568780Y-83304142D02*
X93092590Y-82970809D01*
X93568780Y-82732714D02*
X92568780Y-82732714D01*
X92568780Y-83113666D01*
X92616400Y-83208904D01*
X92664019Y-83256523D01*
X92759257Y-83304142D01*
X92902114Y-83304142D01*
X92997352Y-83256523D01*
X93044971Y-83208904D01*
X93092590Y-83113666D01*
X93092590Y-82732714D01*
X93568780Y-84256523D02*
X93568780Y-83685095D01*
X93568780Y-83970809D02*
X92568780Y-83970809D01*
X92711638Y-83875571D01*
X92806876Y-83780333D01*
X92854495Y-83685095D01*
X92664019Y-84637476D02*
X92616400Y-84685095D01*
X92568780Y-84780333D01*
X92568780Y-85018428D01*
X92616400Y-85113666D01*
X92664019Y-85161285D01*
X92759257Y-85208904D01*
X92854495Y-85208904D01*
X92997352Y-85161285D01*
X93568780Y-84589857D01*
X93568780Y-85208904D01*
G04 #@! TO.C,R14*
X91257380Y-84701142D02*
X90781190Y-84367809D01*
X91257380Y-84129714D02*
X90257380Y-84129714D01*
X90257380Y-84510666D01*
X90305000Y-84605904D01*
X90352619Y-84653523D01*
X90447857Y-84701142D01*
X90590714Y-84701142D01*
X90685952Y-84653523D01*
X90733571Y-84605904D01*
X90781190Y-84510666D01*
X90781190Y-84129714D01*
X91257380Y-85653523D02*
X91257380Y-85082095D01*
X91257380Y-85367809D02*
X90257380Y-85367809D01*
X90400238Y-85272571D01*
X90495476Y-85177333D01*
X90543095Y-85082095D01*
X90590714Y-86510666D02*
X91257380Y-86510666D01*
X90209761Y-86272571D02*
X90924047Y-86034476D01*
X90924047Y-86653523D01*
G04 #@! TO.C,R15*
X74074257Y-98013780D02*
X74407590Y-97537590D01*
X74645685Y-98013780D02*
X74645685Y-97013780D01*
X74264733Y-97013780D01*
X74169495Y-97061400D01*
X74121876Y-97109019D01*
X74074257Y-97204257D01*
X74074257Y-97347114D01*
X74121876Y-97442352D01*
X74169495Y-97489971D01*
X74264733Y-97537590D01*
X74645685Y-97537590D01*
X73121876Y-98013780D02*
X73693304Y-98013780D01*
X73407590Y-98013780D02*
X73407590Y-97013780D01*
X73502828Y-97156638D01*
X73598066Y-97251876D01*
X73693304Y-97299495D01*
X72217114Y-97013780D02*
X72693304Y-97013780D01*
X72740923Y-97489971D01*
X72693304Y-97442352D01*
X72598066Y-97394733D01*
X72359971Y-97394733D01*
X72264733Y-97442352D01*
X72217114Y-97489971D01*
X72169495Y-97585209D01*
X72169495Y-97823304D01*
X72217114Y-97918542D01*
X72264733Y-97966161D01*
X72359971Y-98013780D01*
X72598066Y-98013780D01*
X72693304Y-97966161D01*
X72740923Y-97918542D01*
G04 #@! TO.C,C3*
X71680342Y-92187733D02*
X71727961Y-92140114D01*
X71775580Y-91997257D01*
X71775580Y-91902019D01*
X71727961Y-91759161D01*
X71632723Y-91663923D01*
X71537485Y-91616304D01*
X71347009Y-91568685D01*
X71204152Y-91568685D01*
X71013676Y-91616304D01*
X70918438Y-91663923D01*
X70823200Y-91759161D01*
X70775580Y-91902019D01*
X70775580Y-91997257D01*
X70823200Y-92140114D01*
X70870819Y-92187733D01*
X70775580Y-92521066D02*
X70775580Y-93140114D01*
X71156533Y-92806780D01*
X71156533Y-92949638D01*
X71204152Y-93044876D01*
X71251771Y-93092495D01*
X71347009Y-93140114D01*
X71585104Y-93140114D01*
X71680342Y-93092495D01*
X71727961Y-93044876D01*
X71775580Y-92949638D01*
X71775580Y-92663923D01*
X71727961Y-92568685D01*
X71680342Y-92521066D01*
G04 #@! TO.C,C53*
X102750857Y-104293942D02*
X102798476Y-104341561D01*
X102941333Y-104389180D01*
X103036571Y-104389180D01*
X103179428Y-104341561D01*
X103274666Y-104246323D01*
X103322285Y-104151085D01*
X103369904Y-103960609D01*
X103369904Y-103817752D01*
X103322285Y-103627276D01*
X103274666Y-103532038D01*
X103179428Y-103436800D01*
X103036571Y-103389180D01*
X102941333Y-103389180D01*
X102798476Y-103436800D01*
X102750857Y-103484419D01*
X101846095Y-103389180D02*
X102322285Y-103389180D01*
X102369904Y-103865371D01*
X102322285Y-103817752D01*
X102227047Y-103770133D01*
X101988952Y-103770133D01*
X101893714Y-103817752D01*
X101846095Y-103865371D01*
X101798476Y-103960609D01*
X101798476Y-104198704D01*
X101846095Y-104293942D01*
X101893714Y-104341561D01*
X101988952Y-104389180D01*
X102227047Y-104389180D01*
X102322285Y-104341561D01*
X102369904Y-104293942D01*
X101465142Y-103389180D02*
X100846095Y-103389180D01*
X101179428Y-103770133D01*
X101036571Y-103770133D01*
X100941333Y-103817752D01*
X100893714Y-103865371D01*
X100846095Y-103960609D01*
X100846095Y-104198704D01*
X100893714Y-104293942D01*
X100941333Y-104341561D01*
X101036571Y-104389180D01*
X101322285Y-104389180D01*
X101417523Y-104341561D01*
X101465142Y-104293942D01*
G04 #@! TO.C,U3*
X78587504Y-88844780D02*
X78587504Y-89654304D01*
X78539885Y-89749542D01*
X78492266Y-89797161D01*
X78397028Y-89844780D01*
X78206552Y-89844780D01*
X78111314Y-89797161D01*
X78063695Y-89749542D01*
X78016076Y-89654304D01*
X78016076Y-88844780D01*
X77635123Y-88844780D02*
X77016076Y-88844780D01*
X77349409Y-89225733D01*
X77206552Y-89225733D01*
X77111314Y-89273352D01*
X77063695Y-89320971D01*
X77016076Y-89416209D01*
X77016076Y-89654304D01*
X77063695Y-89749542D01*
X77111314Y-89797161D01*
X77206552Y-89844780D01*
X77492266Y-89844780D01*
X77587504Y-89797161D01*
X77635123Y-89749542D01*
G04 #@! TO.C,DPWR1*
X95956380Y-103862476D02*
X94956380Y-103862476D01*
X94956380Y-104100571D01*
X95004000Y-104243428D01*
X95099238Y-104338666D01*
X95194476Y-104386285D01*
X95384952Y-104433904D01*
X95527809Y-104433904D01*
X95718285Y-104386285D01*
X95813523Y-104338666D01*
X95908761Y-104243428D01*
X95956380Y-104100571D01*
X95956380Y-103862476D01*
X95956380Y-104862476D02*
X94956380Y-104862476D01*
X94956380Y-105243428D01*
X95004000Y-105338666D01*
X95051619Y-105386285D01*
X95146857Y-105433904D01*
X95289714Y-105433904D01*
X95384952Y-105386285D01*
X95432571Y-105338666D01*
X95480190Y-105243428D01*
X95480190Y-104862476D01*
X94956380Y-105767238D02*
X95956380Y-106005333D01*
X95242095Y-106195809D01*
X95956380Y-106386285D01*
X94956380Y-106624380D01*
X95956380Y-107576761D02*
X95480190Y-107243428D01*
X95956380Y-107005333D02*
X94956380Y-107005333D01*
X94956380Y-107386285D01*
X95004000Y-107481523D01*
X95051619Y-107529142D01*
X95146857Y-107576761D01*
X95289714Y-107576761D01*
X95384952Y-107529142D01*
X95432571Y-107481523D01*
X95480190Y-107386285D01*
X95480190Y-107005333D01*
X95956380Y-108529142D02*
X95956380Y-107957714D01*
X95956380Y-108243428D02*
X94956380Y-108243428D01*
X95099238Y-108148190D01*
X95194476Y-108052952D01*
X95242095Y-107957714D01*
G04 #@! TO.C,TRGR1*
X99391504Y-111415580D02*
X98820076Y-111415580D01*
X99105790Y-112415580D02*
X99105790Y-111415580D01*
X97915314Y-112415580D02*
X98248647Y-111939390D01*
X98486742Y-112415580D02*
X98486742Y-111415580D01*
X98105790Y-111415580D01*
X98010552Y-111463200D01*
X97962933Y-111510819D01*
X97915314Y-111606057D01*
X97915314Y-111748914D01*
X97962933Y-111844152D01*
X98010552Y-111891771D01*
X98105790Y-111939390D01*
X98486742Y-111939390D01*
X96962933Y-111463200D02*
X97058171Y-111415580D01*
X97201028Y-111415580D01*
X97343885Y-111463200D01*
X97439123Y-111558438D01*
X97486742Y-111653676D01*
X97534361Y-111844152D01*
X97534361Y-111987009D01*
X97486742Y-112177485D01*
X97439123Y-112272723D01*
X97343885Y-112367961D01*
X97201028Y-112415580D01*
X97105790Y-112415580D01*
X96962933Y-112367961D01*
X96915314Y-112320342D01*
X96915314Y-111987009D01*
X97105790Y-111987009D01*
X95915314Y-112415580D02*
X96248647Y-111939390D01*
X96486742Y-112415580D02*
X96486742Y-111415580D01*
X96105790Y-111415580D01*
X96010552Y-111463200D01*
X95962933Y-111510819D01*
X95915314Y-111606057D01*
X95915314Y-111748914D01*
X95962933Y-111844152D01*
X96010552Y-111891771D01*
X96105790Y-111939390D01*
X96486742Y-111939390D01*
X94962933Y-112415580D02*
X95534361Y-112415580D01*
X95248647Y-112415580D02*
X95248647Y-111415580D01*
X95343885Y-111558438D01*
X95439123Y-111653676D01*
X95534361Y-111701295D01*
G04 #@! TO.C,D4*
X106187380Y-94511904D02*
X105187380Y-94511904D01*
X105187380Y-94750000D01*
X105235000Y-94892857D01*
X105330238Y-94988095D01*
X105425476Y-95035714D01*
X105615952Y-95083333D01*
X105758809Y-95083333D01*
X105949285Y-95035714D01*
X106044523Y-94988095D01*
X106139761Y-94892857D01*
X106187380Y-94750000D01*
X106187380Y-94511904D01*
X105520714Y-95940476D02*
X106187380Y-95940476D01*
X105139761Y-95702380D02*
X105854047Y-95464285D01*
X105854047Y-96083333D01*
X104287380Y-99685714D02*
X104287380Y-99114285D01*
X104287380Y-99400000D02*
X103287380Y-99400000D01*
X103430238Y-99304761D01*
X103525476Y-99209523D01*
X103573095Y-99114285D01*
G04 #@! TO.C,D3*
X79453880Y-107783404D02*
X78453880Y-107783404D01*
X78453880Y-108021500D01*
X78501500Y-108164357D01*
X78596738Y-108259595D01*
X78691976Y-108307214D01*
X78882452Y-108354833D01*
X79025309Y-108354833D01*
X79215785Y-108307214D01*
X79311023Y-108259595D01*
X79406261Y-108164357D01*
X79453880Y-108021500D01*
X79453880Y-107783404D01*
X78453880Y-108688166D02*
X78453880Y-109307214D01*
X78834833Y-108973880D01*
X78834833Y-109116738D01*
X78882452Y-109211976D01*
X78930071Y-109259595D01*
X79025309Y-109307214D01*
X79263404Y-109307214D01*
X79358642Y-109259595D01*
X79406261Y-109211976D01*
X79453880Y-109116738D01*
X79453880Y-108831023D01*
X79406261Y-108735785D01*
X79358642Y-108688166D01*
X77553880Y-112957214D02*
X77553880Y-112385785D01*
X77553880Y-112671500D02*
X76553880Y-112671500D01*
X76696738Y-112576261D01*
X76791976Y-112481023D01*
X76839595Y-112385785D01*
G04 #@! TO.C,Q30*
X70802428Y-102187619D02*
X70897666Y-102140000D01*
X70992904Y-102044761D01*
X71135761Y-101901904D01*
X71231000Y-101854285D01*
X71326238Y-101854285D01*
X71278619Y-102092380D02*
X71373857Y-102044761D01*
X71469095Y-101949523D01*
X71516714Y-101759047D01*
X71516714Y-101425714D01*
X71469095Y-101235238D01*
X71373857Y-101140000D01*
X71278619Y-101092380D01*
X71088142Y-101092380D01*
X70992904Y-101140000D01*
X70897666Y-101235238D01*
X70850047Y-101425714D01*
X70850047Y-101759047D01*
X70897666Y-101949523D01*
X70992904Y-102044761D01*
X71088142Y-102092380D01*
X71278619Y-102092380D01*
X70516714Y-101092380D02*
X69897666Y-101092380D01*
X70231000Y-101473333D01*
X70088142Y-101473333D01*
X69992904Y-101520952D01*
X69945285Y-101568571D01*
X69897666Y-101663809D01*
X69897666Y-101901904D01*
X69945285Y-101997142D01*
X69992904Y-102044761D01*
X70088142Y-102092380D01*
X70373857Y-102092380D01*
X70469095Y-102044761D01*
X70516714Y-101997142D01*
X69278619Y-101092380D02*
X69183380Y-101092380D01*
X69088142Y-101140000D01*
X69040523Y-101187619D01*
X68992904Y-101282857D01*
X68945285Y-101473333D01*
X68945285Y-101711428D01*
X68992904Y-101901904D01*
X69040523Y-101997142D01*
X69088142Y-102044761D01*
X69183380Y-102092380D01*
X69278619Y-102092380D01*
X69373857Y-102044761D01*
X69421476Y-101997142D01*
X69469095Y-101901904D01*
X69516714Y-101711428D01*
X69516714Y-101473333D01*
X69469095Y-101282857D01*
X69421476Y-101187619D01*
X69373857Y-101140000D01*
X69278619Y-101092380D01*
G04 #@! TO.C,QPWR1*
X98337619Y-98930033D02*
X98290000Y-98834795D01*
X98194761Y-98739557D01*
X98051904Y-98596700D01*
X98004285Y-98501461D01*
X98004285Y-98406223D01*
X98242380Y-98453842D02*
X98194761Y-98358604D01*
X98099523Y-98263366D01*
X97909047Y-98215747D01*
X97575714Y-98215747D01*
X97385238Y-98263366D01*
X97290000Y-98358604D01*
X97242380Y-98453842D01*
X97242380Y-98644319D01*
X97290000Y-98739557D01*
X97385238Y-98834795D01*
X97575714Y-98882414D01*
X97909047Y-98882414D01*
X98099523Y-98834795D01*
X98194761Y-98739557D01*
X98242380Y-98644319D01*
X98242380Y-98453842D01*
X98242380Y-99310985D02*
X97242380Y-99310985D01*
X97242380Y-99691938D01*
X97290000Y-99787176D01*
X97337619Y-99834795D01*
X97432857Y-99882414D01*
X97575714Y-99882414D01*
X97670952Y-99834795D01*
X97718571Y-99787176D01*
X97766190Y-99691938D01*
X97766190Y-99310985D01*
X97242380Y-100215747D02*
X98242380Y-100453842D01*
X97528095Y-100644319D01*
X98242380Y-100834795D01*
X97242380Y-101072890D01*
X98242380Y-102025271D02*
X97766190Y-101691938D01*
X98242380Y-101453842D02*
X97242380Y-101453842D01*
X97242380Y-101834795D01*
X97290000Y-101930033D01*
X97337619Y-101977652D01*
X97432857Y-102025271D01*
X97575714Y-102025271D01*
X97670952Y-101977652D01*
X97718571Y-101930033D01*
X97766190Y-101834795D01*
X97766190Y-101453842D01*
X98242380Y-102977652D02*
X98242380Y-102406223D01*
X98242380Y-102691938D02*
X97242380Y-102691938D01*
X97385238Y-102596700D01*
X97480476Y-102501461D01*
X97528095Y-102406223D01*
G04 #@! TD*
M02*
