G04 #@! TF.GenerationSoftware,KiCad,Pcbnew,5.0.2+dfsg1-1*
G04 #@! TF.CreationDate,2021-06-22T16:41:51+02:00*
G04 #@! TF.ProjectId,MainBoard,4d61696e-426f-4617-9264-2e6b69636164,rev?*
G04 #@! TF.SameCoordinates,Original*
G04 #@! TF.FileFunction,Paste,Top*
G04 #@! TF.FilePolarity,Positive*
%FSLAX46Y46*%
G04 Gerber Fmt 4.6, Leading zero omitted, Abs format (unit mm)*
G04 Created by KiCad (PCBNEW 5.0.2+dfsg1-1) date Tue 22 Jun 2021 16:41:51 CEST*
%MOMM*%
%LPD*%
G01*
G04 APERTURE LIST*
%ADD10C,0.100000*%
%ADD11C,0.600000*%
%ADD12C,0.400000*%
%ADD13C,0.800000*%
%ADD14C,1.000000*%
%ADD15C,0.975000*%
%ADD16R,0.600000X1.050000*%
%ADD17R,0.450000X1.300000*%
%ADD18R,1.200000X0.400000*%
%ADD19R,0.800000X0.900000*%
%ADD20R,1.500000X2.200000*%
%ADD21R,3.800000X2.200000*%
%ADD22R,1.500000X1.000000*%
%ADD23R,5.000000X5.000000*%
%ADD24R,0.900000X2.000000*%
%ADD25R,2.000000X0.900000*%
G04 APERTURE END LIST*
D10*
G04 #@! TO.C,D402*
G36*
X117101503Y-80174322D02*
X117116064Y-80176482D01*
X117130343Y-80180059D01*
X117144203Y-80185018D01*
X117157510Y-80191312D01*
X117170136Y-80198880D01*
X117181959Y-80207648D01*
X117192866Y-80217534D01*
X117202752Y-80228441D01*
X117211520Y-80240264D01*
X117219088Y-80252890D01*
X117225382Y-80266197D01*
X117230341Y-80280057D01*
X117233918Y-80294336D01*
X117236078Y-80308897D01*
X117236800Y-80323600D01*
X117236800Y-81823600D01*
X117236078Y-81838303D01*
X117233918Y-81852864D01*
X117230341Y-81867143D01*
X117225382Y-81881003D01*
X117219088Y-81894310D01*
X117211520Y-81906936D01*
X117202752Y-81918759D01*
X117192866Y-81929666D01*
X117181959Y-81939552D01*
X117170136Y-81948320D01*
X117157510Y-81955888D01*
X117144203Y-81962182D01*
X117130343Y-81967141D01*
X117116064Y-81970718D01*
X117101503Y-81972878D01*
X117086800Y-81973600D01*
X116786800Y-81973600D01*
X116772097Y-81972878D01*
X116757536Y-81970718D01*
X116743257Y-81967141D01*
X116729397Y-81962182D01*
X116716090Y-81955888D01*
X116703464Y-81948320D01*
X116691641Y-81939552D01*
X116680734Y-81929666D01*
X116670848Y-81918759D01*
X116662080Y-81906936D01*
X116654512Y-81894310D01*
X116648218Y-81881003D01*
X116643259Y-81867143D01*
X116639682Y-81852864D01*
X116637522Y-81838303D01*
X116636800Y-81823600D01*
X116636800Y-80323600D01*
X116637522Y-80308897D01*
X116639682Y-80294336D01*
X116643259Y-80280057D01*
X116648218Y-80266197D01*
X116654512Y-80252890D01*
X116662080Y-80240264D01*
X116670848Y-80228441D01*
X116680734Y-80217534D01*
X116691641Y-80207648D01*
X116703464Y-80198880D01*
X116716090Y-80191312D01*
X116729397Y-80185018D01*
X116743257Y-80180059D01*
X116757536Y-80176482D01*
X116772097Y-80174322D01*
X116786800Y-80173600D01*
X117086800Y-80173600D01*
X117101503Y-80174322D01*
X117101503Y-80174322D01*
G37*
D11*
X116936800Y-81073600D03*
D10*
G36*
X116171602Y-80174082D02*
X116181309Y-80175521D01*
X116190828Y-80177906D01*
X116200068Y-80181212D01*
X116208940Y-80185408D01*
X116217357Y-80190453D01*
X116225239Y-80196299D01*
X116232511Y-80202889D01*
X116239101Y-80210161D01*
X116244947Y-80218043D01*
X116249992Y-80226460D01*
X116254188Y-80235332D01*
X116257494Y-80244572D01*
X116259879Y-80254091D01*
X116261318Y-80263798D01*
X116261800Y-80273600D01*
X116261800Y-81873600D01*
X116261318Y-81883402D01*
X116259879Y-81893109D01*
X116257494Y-81902628D01*
X116254188Y-81911868D01*
X116249992Y-81920740D01*
X116244947Y-81929157D01*
X116239101Y-81937039D01*
X116232511Y-81944311D01*
X116225239Y-81950901D01*
X116217357Y-81956747D01*
X116208940Y-81961792D01*
X116200068Y-81965988D01*
X116190828Y-81969294D01*
X116181309Y-81971679D01*
X116171602Y-81973118D01*
X116161800Y-81973600D01*
X115961800Y-81973600D01*
X115951998Y-81973118D01*
X115942291Y-81971679D01*
X115932772Y-81969294D01*
X115923532Y-81965988D01*
X115914660Y-81961792D01*
X115906243Y-81956747D01*
X115898361Y-81950901D01*
X115891089Y-81944311D01*
X115884499Y-81937039D01*
X115878653Y-81929157D01*
X115873608Y-81920740D01*
X115869412Y-81911868D01*
X115866106Y-81902628D01*
X115863721Y-81893109D01*
X115862282Y-81883402D01*
X115861800Y-81873600D01*
X115861800Y-80273600D01*
X115862282Y-80263798D01*
X115863721Y-80254091D01*
X115866106Y-80244572D01*
X115869412Y-80235332D01*
X115873608Y-80226460D01*
X115878653Y-80218043D01*
X115884499Y-80210161D01*
X115891089Y-80202889D01*
X115898361Y-80196299D01*
X115906243Y-80190453D01*
X115914660Y-80185408D01*
X115923532Y-80181212D01*
X115932772Y-80177906D01*
X115942291Y-80175521D01*
X115951998Y-80174082D01*
X115961800Y-80173600D01*
X116161800Y-80173600D01*
X116171602Y-80174082D01*
X116171602Y-80174082D01*
G37*
D12*
X116061800Y-81073600D03*
D10*
G36*
X118281403Y-80174563D02*
X118300818Y-80177443D01*
X118319857Y-80182212D01*
X118338337Y-80188824D01*
X118356079Y-80197216D01*
X118372914Y-80207306D01*
X118388679Y-80218998D01*
X118403221Y-80232179D01*
X118416402Y-80246721D01*
X118428094Y-80262486D01*
X118438184Y-80279321D01*
X118446576Y-80297063D01*
X118453188Y-80315543D01*
X118457957Y-80334582D01*
X118460837Y-80353997D01*
X118461800Y-80373600D01*
X118461800Y-81773600D01*
X118460837Y-81793203D01*
X118457957Y-81812618D01*
X118453188Y-81831657D01*
X118446576Y-81850137D01*
X118438184Y-81867879D01*
X118428094Y-81884714D01*
X118416402Y-81900479D01*
X118403221Y-81915021D01*
X118388679Y-81928202D01*
X118372914Y-81939894D01*
X118356079Y-81949984D01*
X118338337Y-81958376D01*
X118319857Y-81964988D01*
X118300818Y-81969757D01*
X118281403Y-81972637D01*
X118261800Y-81973600D01*
X117861800Y-81973600D01*
X117842197Y-81972637D01*
X117822782Y-81969757D01*
X117803743Y-81964988D01*
X117785263Y-81958376D01*
X117767521Y-81949984D01*
X117750686Y-81939894D01*
X117734921Y-81928202D01*
X117720379Y-81915021D01*
X117707198Y-81900479D01*
X117695506Y-81884714D01*
X117685416Y-81867879D01*
X117677024Y-81850137D01*
X117670412Y-81831657D01*
X117665643Y-81812618D01*
X117662763Y-81793203D01*
X117661800Y-81773600D01*
X117661800Y-80373600D01*
X117662763Y-80353997D01*
X117665643Y-80334582D01*
X117670412Y-80315543D01*
X117677024Y-80297063D01*
X117685416Y-80279321D01*
X117695506Y-80262486D01*
X117707198Y-80246721D01*
X117720379Y-80232179D01*
X117734921Y-80218998D01*
X117750686Y-80207306D01*
X117767521Y-80197216D01*
X117785263Y-80188824D01*
X117803743Y-80182212D01*
X117822782Y-80177443D01*
X117842197Y-80174563D01*
X117861800Y-80173600D01*
X118261800Y-80173600D01*
X118281403Y-80174563D01*
X118281403Y-80174563D01*
G37*
D13*
X118061800Y-81073600D03*
D10*
G36*
X115306403Y-80174563D02*
X115325818Y-80177443D01*
X115344857Y-80182212D01*
X115363337Y-80188824D01*
X115381079Y-80197216D01*
X115397914Y-80207306D01*
X115413679Y-80218998D01*
X115428221Y-80232179D01*
X115441402Y-80246721D01*
X115453094Y-80262486D01*
X115463184Y-80279321D01*
X115471576Y-80297063D01*
X115478188Y-80315543D01*
X115482957Y-80334582D01*
X115485837Y-80353997D01*
X115486800Y-80373600D01*
X115486800Y-81773600D01*
X115485837Y-81793203D01*
X115482957Y-81812618D01*
X115478188Y-81831657D01*
X115471576Y-81850137D01*
X115463184Y-81867879D01*
X115453094Y-81884714D01*
X115441402Y-81900479D01*
X115428221Y-81915021D01*
X115413679Y-81928202D01*
X115397914Y-81939894D01*
X115381079Y-81949984D01*
X115363337Y-81958376D01*
X115344857Y-81964988D01*
X115325818Y-81969757D01*
X115306403Y-81972637D01*
X115286800Y-81973600D01*
X114886800Y-81973600D01*
X114867197Y-81972637D01*
X114847782Y-81969757D01*
X114828743Y-81964988D01*
X114810263Y-81958376D01*
X114792521Y-81949984D01*
X114775686Y-81939894D01*
X114759921Y-81928202D01*
X114745379Y-81915021D01*
X114732198Y-81900479D01*
X114720506Y-81884714D01*
X114710416Y-81867879D01*
X114702024Y-81850137D01*
X114695412Y-81831657D01*
X114690643Y-81812618D01*
X114687763Y-81793203D01*
X114686800Y-81773600D01*
X114686800Y-80373600D01*
X114687763Y-80353997D01*
X114690643Y-80334582D01*
X114695412Y-80315543D01*
X114702024Y-80297063D01*
X114710416Y-80279321D01*
X114720506Y-80262486D01*
X114732198Y-80246721D01*
X114745379Y-80232179D01*
X114759921Y-80218998D01*
X114775686Y-80207306D01*
X114792521Y-80197216D01*
X114810263Y-80188824D01*
X114828743Y-80182212D01*
X114847782Y-80177443D01*
X114867197Y-80174563D01*
X114886800Y-80173600D01*
X115286800Y-80173600D01*
X115306403Y-80174563D01*
X115306403Y-80174563D01*
G37*
D13*
X115086800Y-81073600D03*
G04 #@! TD*
D10*
G04 #@! TO.C,C201*
G36*
X85894304Y-101746404D02*
X85918573Y-101750004D01*
X85942371Y-101755965D01*
X85965471Y-101764230D01*
X85987649Y-101774720D01*
X86008693Y-101787333D01*
X86028398Y-101801947D01*
X86046577Y-101818423D01*
X86063053Y-101836602D01*
X86077667Y-101856307D01*
X86090280Y-101877351D01*
X86100770Y-101899529D01*
X86109035Y-101922629D01*
X86114996Y-101946427D01*
X86118596Y-101970696D01*
X86119800Y-101995200D01*
X86119800Y-102495200D01*
X86118596Y-102519704D01*
X86114996Y-102543973D01*
X86109035Y-102567771D01*
X86100770Y-102590871D01*
X86090280Y-102613049D01*
X86077667Y-102634093D01*
X86063053Y-102653798D01*
X86046577Y-102671977D01*
X86028398Y-102688453D01*
X86008693Y-102703067D01*
X85987649Y-102715680D01*
X85965471Y-102726170D01*
X85942371Y-102734435D01*
X85918573Y-102740396D01*
X85894304Y-102743996D01*
X85869800Y-102745200D01*
X84919800Y-102745200D01*
X84895296Y-102743996D01*
X84871027Y-102740396D01*
X84847229Y-102734435D01*
X84824129Y-102726170D01*
X84801951Y-102715680D01*
X84780907Y-102703067D01*
X84761202Y-102688453D01*
X84743023Y-102671977D01*
X84726547Y-102653798D01*
X84711933Y-102634093D01*
X84699320Y-102613049D01*
X84688830Y-102590871D01*
X84680565Y-102567771D01*
X84674604Y-102543973D01*
X84671004Y-102519704D01*
X84669800Y-102495200D01*
X84669800Y-101995200D01*
X84671004Y-101970696D01*
X84674604Y-101946427D01*
X84680565Y-101922629D01*
X84688830Y-101899529D01*
X84699320Y-101877351D01*
X84711933Y-101856307D01*
X84726547Y-101836602D01*
X84743023Y-101818423D01*
X84761202Y-101801947D01*
X84780907Y-101787333D01*
X84801951Y-101774720D01*
X84824129Y-101764230D01*
X84847229Y-101755965D01*
X84871027Y-101750004D01*
X84895296Y-101746404D01*
X84919800Y-101745200D01*
X85869800Y-101745200D01*
X85894304Y-101746404D01*
X85894304Y-101746404D01*
G37*
D14*
X85394800Y-102245200D03*
D10*
G36*
X85894304Y-99846404D02*
X85918573Y-99850004D01*
X85942371Y-99855965D01*
X85965471Y-99864230D01*
X85987649Y-99874720D01*
X86008693Y-99887333D01*
X86028398Y-99901947D01*
X86046577Y-99918423D01*
X86063053Y-99936602D01*
X86077667Y-99956307D01*
X86090280Y-99977351D01*
X86100770Y-99999529D01*
X86109035Y-100022629D01*
X86114996Y-100046427D01*
X86118596Y-100070696D01*
X86119800Y-100095200D01*
X86119800Y-100595200D01*
X86118596Y-100619704D01*
X86114996Y-100643973D01*
X86109035Y-100667771D01*
X86100770Y-100690871D01*
X86090280Y-100713049D01*
X86077667Y-100734093D01*
X86063053Y-100753798D01*
X86046577Y-100771977D01*
X86028398Y-100788453D01*
X86008693Y-100803067D01*
X85987649Y-100815680D01*
X85965471Y-100826170D01*
X85942371Y-100834435D01*
X85918573Y-100840396D01*
X85894304Y-100843996D01*
X85869800Y-100845200D01*
X84919800Y-100845200D01*
X84895296Y-100843996D01*
X84871027Y-100840396D01*
X84847229Y-100834435D01*
X84824129Y-100826170D01*
X84801951Y-100815680D01*
X84780907Y-100803067D01*
X84761202Y-100788453D01*
X84743023Y-100771977D01*
X84726547Y-100753798D01*
X84711933Y-100734093D01*
X84699320Y-100713049D01*
X84688830Y-100690871D01*
X84680565Y-100667771D01*
X84674604Y-100643973D01*
X84671004Y-100619704D01*
X84669800Y-100595200D01*
X84669800Y-100095200D01*
X84671004Y-100070696D01*
X84674604Y-100046427D01*
X84680565Y-100022629D01*
X84688830Y-99999529D01*
X84699320Y-99977351D01*
X84711933Y-99956307D01*
X84726547Y-99936602D01*
X84743023Y-99918423D01*
X84761202Y-99901947D01*
X84780907Y-99887333D01*
X84801951Y-99874720D01*
X84824129Y-99864230D01*
X84847229Y-99855965D01*
X84871027Y-99850004D01*
X84895296Y-99846404D01*
X84919800Y-99845200D01*
X85869800Y-99845200D01*
X85894304Y-99846404D01*
X85894304Y-99846404D01*
G37*
D14*
X85394800Y-100345200D03*
G04 #@! TD*
D10*
G04 #@! TO.C,D401*
G36*
X109583103Y-80123522D02*
X109597664Y-80125682D01*
X109611943Y-80129259D01*
X109625803Y-80134218D01*
X109639110Y-80140512D01*
X109651736Y-80148080D01*
X109663559Y-80156848D01*
X109674466Y-80166734D01*
X109684352Y-80177641D01*
X109693120Y-80189464D01*
X109700688Y-80202090D01*
X109706982Y-80215397D01*
X109711941Y-80229257D01*
X109715518Y-80243536D01*
X109717678Y-80258097D01*
X109718400Y-80272800D01*
X109718400Y-81772800D01*
X109717678Y-81787503D01*
X109715518Y-81802064D01*
X109711941Y-81816343D01*
X109706982Y-81830203D01*
X109700688Y-81843510D01*
X109693120Y-81856136D01*
X109684352Y-81867959D01*
X109674466Y-81878866D01*
X109663559Y-81888752D01*
X109651736Y-81897520D01*
X109639110Y-81905088D01*
X109625803Y-81911382D01*
X109611943Y-81916341D01*
X109597664Y-81919918D01*
X109583103Y-81922078D01*
X109568400Y-81922800D01*
X109268400Y-81922800D01*
X109253697Y-81922078D01*
X109239136Y-81919918D01*
X109224857Y-81916341D01*
X109210997Y-81911382D01*
X109197690Y-81905088D01*
X109185064Y-81897520D01*
X109173241Y-81888752D01*
X109162334Y-81878866D01*
X109152448Y-81867959D01*
X109143680Y-81856136D01*
X109136112Y-81843510D01*
X109129818Y-81830203D01*
X109124859Y-81816343D01*
X109121282Y-81802064D01*
X109119122Y-81787503D01*
X109118400Y-81772800D01*
X109118400Y-80272800D01*
X109119122Y-80258097D01*
X109121282Y-80243536D01*
X109124859Y-80229257D01*
X109129818Y-80215397D01*
X109136112Y-80202090D01*
X109143680Y-80189464D01*
X109152448Y-80177641D01*
X109162334Y-80166734D01*
X109173241Y-80156848D01*
X109185064Y-80148080D01*
X109197690Y-80140512D01*
X109210997Y-80134218D01*
X109224857Y-80129259D01*
X109239136Y-80125682D01*
X109253697Y-80123522D01*
X109268400Y-80122800D01*
X109568400Y-80122800D01*
X109583103Y-80123522D01*
X109583103Y-80123522D01*
G37*
D11*
X109418400Y-81022800D03*
D10*
G36*
X108653202Y-80123282D02*
X108662909Y-80124721D01*
X108672428Y-80127106D01*
X108681668Y-80130412D01*
X108690540Y-80134608D01*
X108698957Y-80139653D01*
X108706839Y-80145499D01*
X108714111Y-80152089D01*
X108720701Y-80159361D01*
X108726547Y-80167243D01*
X108731592Y-80175660D01*
X108735788Y-80184532D01*
X108739094Y-80193772D01*
X108741479Y-80203291D01*
X108742918Y-80212998D01*
X108743400Y-80222800D01*
X108743400Y-81822800D01*
X108742918Y-81832602D01*
X108741479Y-81842309D01*
X108739094Y-81851828D01*
X108735788Y-81861068D01*
X108731592Y-81869940D01*
X108726547Y-81878357D01*
X108720701Y-81886239D01*
X108714111Y-81893511D01*
X108706839Y-81900101D01*
X108698957Y-81905947D01*
X108690540Y-81910992D01*
X108681668Y-81915188D01*
X108672428Y-81918494D01*
X108662909Y-81920879D01*
X108653202Y-81922318D01*
X108643400Y-81922800D01*
X108443400Y-81922800D01*
X108433598Y-81922318D01*
X108423891Y-81920879D01*
X108414372Y-81918494D01*
X108405132Y-81915188D01*
X108396260Y-81910992D01*
X108387843Y-81905947D01*
X108379961Y-81900101D01*
X108372689Y-81893511D01*
X108366099Y-81886239D01*
X108360253Y-81878357D01*
X108355208Y-81869940D01*
X108351012Y-81861068D01*
X108347706Y-81851828D01*
X108345321Y-81842309D01*
X108343882Y-81832602D01*
X108343400Y-81822800D01*
X108343400Y-80222800D01*
X108343882Y-80212998D01*
X108345321Y-80203291D01*
X108347706Y-80193772D01*
X108351012Y-80184532D01*
X108355208Y-80175660D01*
X108360253Y-80167243D01*
X108366099Y-80159361D01*
X108372689Y-80152089D01*
X108379961Y-80145499D01*
X108387843Y-80139653D01*
X108396260Y-80134608D01*
X108405132Y-80130412D01*
X108414372Y-80127106D01*
X108423891Y-80124721D01*
X108433598Y-80123282D01*
X108443400Y-80122800D01*
X108643400Y-80122800D01*
X108653202Y-80123282D01*
X108653202Y-80123282D01*
G37*
D12*
X108543400Y-81022800D03*
D10*
G36*
X110763003Y-80123763D02*
X110782418Y-80126643D01*
X110801457Y-80131412D01*
X110819937Y-80138024D01*
X110837679Y-80146416D01*
X110854514Y-80156506D01*
X110870279Y-80168198D01*
X110884821Y-80181379D01*
X110898002Y-80195921D01*
X110909694Y-80211686D01*
X110919784Y-80228521D01*
X110928176Y-80246263D01*
X110934788Y-80264743D01*
X110939557Y-80283782D01*
X110942437Y-80303197D01*
X110943400Y-80322800D01*
X110943400Y-81722800D01*
X110942437Y-81742403D01*
X110939557Y-81761818D01*
X110934788Y-81780857D01*
X110928176Y-81799337D01*
X110919784Y-81817079D01*
X110909694Y-81833914D01*
X110898002Y-81849679D01*
X110884821Y-81864221D01*
X110870279Y-81877402D01*
X110854514Y-81889094D01*
X110837679Y-81899184D01*
X110819937Y-81907576D01*
X110801457Y-81914188D01*
X110782418Y-81918957D01*
X110763003Y-81921837D01*
X110743400Y-81922800D01*
X110343400Y-81922800D01*
X110323797Y-81921837D01*
X110304382Y-81918957D01*
X110285343Y-81914188D01*
X110266863Y-81907576D01*
X110249121Y-81899184D01*
X110232286Y-81889094D01*
X110216521Y-81877402D01*
X110201979Y-81864221D01*
X110188798Y-81849679D01*
X110177106Y-81833914D01*
X110167016Y-81817079D01*
X110158624Y-81799337D01*
X110152012Y-81780857D01*
X110147243Y-81761818D01*
X110144363Y-81742403D01*
X110143400Y-81722800D01*
X110143400Y-80322800D01*
X110144363Y-80303197D01*
X110147243Y-80283782D01*
X110152012Y-80264743D01*
X110158624Y-80246263D01*
X110167016Y-80228521D01*
X110177106Y-80211686D01*
X110188798Y-80195921D01*
X110201979Y-80181379D01*
X110216521Y-80168198D01*
X110232286Y-80156506D01*
X110249121Y-80146416D01*
X110266863Y-80138024D01*
X110285343Y-80131412D01*
X110304382Y-80126643D01*
X110323797Y-80123763D01*
X110343400Y-80122800D01*
X110743400Y-80122800D01*
X110763003Y-80123763D01*
X110763003Y-80123763D01*
G37*
D13*
X110543400Y-81022800D03*
D10*
G36*
X107788003Y-80123763D02*
X107807418Y-80126643D01*
X107826457Y-80131412D01*
X107844937Y-80138024D01*
X107862679Y-80146416D01*
X107879514Y-80156506D01*
X107895279Y-80168198D01*
X107909821Y-80181379D01*
X107923002Y-80195921D01*
X107934694Y-80211686D01*
X107944784Y-80228521D01*
X107953176Y-80246263D01*
X107959788Y-80264743D01*
X107964557Y-80283782D01*
X107967437Y-80303197D01*
X107968400Y-80322800D01*
X107968400Y-81722800D01*
X107967437Y-81742403D01*
X107964557Y-81761818D01*
X107959788Y-81780857D01*
X107953176Y-81799337D01*
X107944784Y-81817079D01*
X107934694Y-81833914D01*
X107923002Y-81849679D01*
X107909821Y-81864221D01*
X107895279Y-81877402D01*
X107879514Y-81889094D01*
X107862679Y-81899184D01*
X107844937Y-81907576D01*
X107826457Y-81914188D01*
X107807418Y-81918957D01*
X107788003Y-81921837D01*
X107768400Y-81922800D01*
X107368400Y-81922800D01*
X107348797Y-81921837D01*
X107329382Y-81918957D01*
X107310343Y-81914188D01*
X107291863Y-81907576D01*
X107274121Y-81899184D01*
X107257286Y-81889094D01*
X107241521Y-81877402D01*
X107226979Y-81864221D01*
X107213798Y-81849679D01*
X107202106Y-81833914D01*
X107192016Y-81817079D01*
X107183624Y-81799337D01*
X107177012Y-81780857D01*
X107172243Y-81761818D01*
X107169363Y-81742403D01*
X107168400Y-81722800D01*
X107168400Y-80322800D01*
X107169363Y-80303197D01*
X107172243Y-80283782D01*
X107177012Y-80264743D01*
X107183624Y-80246263D01*
X107192016Y-80228521D01*
X107202106Y-80211686D01*
X107213798Y-80195921D01*
X107226979Y-80181379D01*
X107241521Y-80168198D01*
X107257286Y-80156506D01*
X107274121Y-80146416D01*
X107291863Y-80138024D01*
X107310343Y-80131412D01*
X107329382Y-80126643D01*
X107348797Y-80123763D01*
X107368400Y-80122800D01*
X107768400Y-80122800D01*
X107788003Y-80123763D01*
X107788003Y-80123763D01*
G37*
D13*
X107568400Y-81022800D03*
G04 #@! TD*
D10*
G04 #@! TO.C,R30*
G36*
X76609642Y-102679174D02*
X76633303Y-102682684D01*
X76656507Y-102688496D01*
X76679029Y-102696554D01*
X76700653Y-102706782D01*
X76721170Y-102719079D01*
X76740383Y-102733329D01*
X76758107Y-102749393D01*
X76774171Y-102767117D01*
X76788421Y-102786330D01*
X76800718Y-102806847D01*
X76810946Y-102828471D01*
X76819004Y-102850993D01*
X76824816Y-102874197D01*
X76828326Y-102897858D01*
X76829500Y-102921750D01*
X76829500Y-103834250D01*
X76828326Y-103858142D01*
X76824816Y-103881803D01*
X76819004Y-103905007D01*
X76810946Y-103927529D01*
X76800718Y-103949153D01*
X76788421Y-103969670D01*
X76774171Y-103988883D01*
X76758107Y-104006607D01*
X76740383Y-104022671D01*
X76721170Y-104036921D01*
X76700653Y-104049218D01*
X76679029Y-104059446D01*
X76656507Y-104067504D01*
X76633303Y-104073316D01*
X76609642Y-104076826D01*
X76585750Y-104078000D01*
X76098250Y-104078000D01*
X76074358Y-104076826D01*
X76050697Y-104073316D01*
X76027493Y-104067504D01*
X76004971Y-104059446D01*
X75983347Y-104049218D01*
X75962830Y-104036921D01*
X75943617Y-104022671D01*
X75925893Y-104006607D01*
X75909829Y-103988883D01*
X75895579Y-103969670D01*
X75883282Y-103949153D01*
X75873054Y-103927529D01*
X75864996Y-103905007D01*
X75859184Y-103881803D01*
X75855674Y-103858142D01*
X75854500Y-103834250D01*
X75854500Y-102921750D01*
X75855674Y-102897858D01*
X75859184Y-102874197D01*
X75864996Y-102850993D01*
X75873054Y-102828471D01*
X75883282Y-102806847D01*
X75895579Y-102786330D01*
X75909829Y-102767117D01*
X75925893Y-102749393D01*
X75943617Y-102733329D01*
X75962830Y-102719079D01*
X75983347Y-102706782D01*
X76004971Y-102696554D01*
X76027493Y-102688496D01*
X76050697Y-102682684D01*
X76074358Y-102679174D01*
X76098250Y-102678000D01*
X76585750Y-102678000D01*
X76609642Y-102679174D01*
X76609642Y-102679174D01*
G37*
D15*
X76342000Y-103378000D03*
D10*
G36*
X78484642Y-102679174D02*
X78508303Y-102682684D01*
X78531507Y-102688496D01*
X78554029Y-102696554D01*
X78575653Y-102706782D01*
X78596170Y-102719079D01*
X78615383Y-102733329D01*
X78633107Y-102749393D01*
X78649171Y-102767117D01*
X78663421Y-102786330D01*
X78675718Y-102806847D01*
X78685946Y-102828471D01*
X78694004Y-102850993D01*
X78699816Y-102874197D01*
X78703326Y-102897858D01*
X78704500Y-102921750D01*
X78704500Y-103834250D01*
X78703326Y-103858142D01*
X78699816Y-103881803D01*
X78694004Y-103905007D01*
X78685946Y-103927529D01*
X78675718Y-103949153D01*
X78663421Y-103969670D01*
X78649171Y-103988883D01*
X78633107Y-104006607D01*
X78615383Y-104022671D01*
X78596170Y-104036921D01*
X78575653Y-104049218D01*
X78554029Y-104059446D01*
X78531507Y-104067504D01*
X78508303Y-104073316D01*
X78484642Y-104076826D01*
X78460750Y-104078000D01*
X77973250Y-104078000D01*
X77949358Y-104076826D01*
X77925697Y-104073316D01*
X77902493Y-104067504D01*
X77879971Y-104059446D01*
X77858347Y-104049218D01*
X77837830Y-104036921D01*
X77818617Y-104022671D01*
X77800893Y-104006607D01*
X77784829Y-103988883D01*
X77770579Y-103969670D01*
X77758282Y-103949153D01*
X77748054Y-103927529D01*
X77739996Y-103905007D01*
X77734184Y-103881803D01*
X77730674Y-103858142D01*
X77729500Y-103834250D01*
X77729500Y-102921750D01*
X77730674Y-102897858D01*
X77734184Y-102874197D01*
X77739996Y-102850993D01*
X77748054Y-102828471D01*
X77758282Y-102806847D01*
X77770579Y-102786330D01*
X77784829Y-102767117D01*
X77800893Y-102749393D01*
X77818617Y-102733329D01*
X77837830Y-102719079D01*
X77858347Y-102706782D01*
X77879971Y-102696554D01*
X77902493Y-102688496D01*
X77925697Y-102682684D01*
X77949358Y-102679174D01*
X77973250Y-102678000D01*
X78460750Y-102678000D01*
X78484642Y-102679174D01*
X78484642Y-102679174D01*
G37*
D15*
X78217000Y-103378000D03*
G04 #@! TD*
D10*
G04 #@! TO.C,R56*
G36*
X105248142Y-104050774D02*
X105271803Y-104054284D01*
X105295007Y-104060096D01*
X105317529Y-104068154D01*
X105339153Y-104078382D01*
X105359670Y-104090679D01*
X105378883Y-104104929D01*
X105396607Y-104120993D01*
X105412671Y-104138717D01*
X105426921Y-104157930D01*
X105439218Y-104178447D01*
X105449446Y-104200071D01*
X105457504Y-104222593D01*
X105463316Y-104245797D01*
X105466826Y-104269458D01*
X105468000Y-104293350D01*
X105468000Y-105205850D01*
X105466826Y-105229742D01*
X105463316Y-105253403D01*
X105457504Y-105276607D01*
X105449446Y-105299129D01*
X105439218Y-105320753D01*
X105426921Y-105341270D01*
X105412671Y-105360483D01*
X105396607Y-105378207D01*
X105378883Y-105394271D01*
X105359670Y-105408521D01*
X105339153Y-105420818D01*
X105317529Y-105431046D01*
X105295007Y-105439104D01*
X105271803Y-105444916D01*
X105248142Y-105448426D01*
X105224250Y-105449600D01*
X104736750Y-105449600D01*
X104712858Y-105448426D01*
X104689197Y-105444916D01*
X104665993Y-105439104D01*
X104643471Y-105431046D01*
X104621847Y-105420818D01*
X104601330Y-105408521D01*
X104582117Y-105394271D01*
X104564393Y-105378207D01*
X104548329Y-105360483D01*
X104534079Y-105341270D01*
X104521782Y-105320753D01*
X104511554Y-105299129D01*
X104503496Y-105276607D01*
X104497684Y-105253403D01*
X104494174Y-105229742D01*
X104493000Y-105205850D01*
X104493000Y-104293350D01*
X104494174Y-104269458D01*
X104497684Y-104245797D01*
X104503496Y-104222593D01*
X104511554Y-104200071D01*
X104521782Y-104178447D01*
X104534079Y-104157930D01*
X104548329Y-104138717D01*
X104564393Y-104120993D01*
X104582117Y-104104929D01*
X104601330Y-104090679D01*
X104621847Y-104078382D01*
X104643471Y-104068154D01*
X104665993Y-104060096D01*
X104689197Y-104054284D01*
X104712858Y-104050774D01*
X104736750Y-104049600D01*
X105224250Y-104049600D01*
X105248142Y-104050774D01*
X105248142Y-104050774D01*
G37*
D15*
X104980500Y-104749600D03*
D10*
G36*
X107123142Y-104050774D02*
X107146803Y-104054284D01*
X107170007Y-104060096D01*
X107192529Y-104068154D01*
X107214153Y-104078382D01*
X107234670Y-104090679D01*
X107253883Y-104104929D01*
X107271607Y-104120993D01*
X107287671Y-104138717D01*
X107301921Y-104157930D01*
X107314218Y-104178447D01*
X107324446Y-104200071D01*
X107332504Y-104222593D01*
X107338316Y-104245797D01*
X107341826Y-104269458D01*
X107343000Y-104293350D01*
X107343000Y-105205850D01*
X107341826Y-105229742D01*
X107338316Y-105253403D01*
X107332504Y-105276607D01*
X107324446Y-105299129D01*
X107314218Y-105320753D01*
X107301921Y-105341270D01*
X107287671Y-105360483D01*
X107271607Y-105378207D01*
X107253883Y-105394271D01*
X107234670Y-105408521D01*
X107214153Y-105420818D01*
X107192529Y-105431046D01*
X107170007Y-105439104D01*
X107146803Y-105444916D01*
X107123142Y-105448426D01*
X107099250Y-105449600D01*
X106611750Y-105449600D01*
X106587858Y-105448426D01*
X106564197Y-105444916D01*
X106540993Y-105439104D01*
X106518471Y-105431046D01*
X106496847Y-105420818D01*
X106476330Y-105408521D01*
X106457117Y-105394271D01*
X106439393Y-105378207D01*
X106423329Y-105360483D01*
X106409079Y-105341270D01*
X106396782Y-105320753D01*
X106386554Y-105299129D01*
X106378496Y-105276607D01*
X106372684Y-105253403D01*
X106369174Y-105229742D01*
X106368000Y-105205850D01*
X106368000Y-104293350D01*
X106369174Y-104269458D01*
X106372684Y-104245797D01*
X106378496Y-104222593D01*
X106386554Y-104200071D01*
X106396782Y-104178447D01*
X106409079Y-104157930D01*
X106423329Y-104138717D01*
X106439393Y-104120993D01*
X106457117Y-104104929D01*
X106476330Y-104090679D01*
X106496847Y-104078382D01*
X106518471Y-104068154D01*
X106540993Y-104060096D01*
X106564197Y-104054284D01*
X106587858Y-104050774D01*
X106611750Y-104049600D01*
X107099250Y-104049600D01*
X107123142Y-104050774D01*
X107123142Y-104050774D01*
G37*
D15*
X106855500Y-104749600D03*
G04 #@! TD*
D16*
G04 #@! TO.C,U4*
X98486000Y-105871000D03*
X96586000Y-105871000D03*
X96586000Y-103171000D03*
X97536000Y-103171000D03*
X98486000Y-103171000D03*
G04 #@! TD*
D17*
G04 #@! TO.C,J3*
X101884000Y-84881800D03*
X101234000Y-84881800D03*
X100584000Y-84881800D03*
X99934000Y-84881800D03*
X99284000Y-84881800D03*
G04 #@! TD*
D10*
G04 #@! TO.C,DUSB1*
G36*
X95222142Y-81477174D02*
X95245803Y-81480684D01*
X95269007Y-81486496D01*
X95291529Y-81494554D01*
X95313153Y-81504782D01*
X95333670Y-81517079D01*
X95352883Y-81531329D01*
X95370607Y-81547393D01*
X95386671Y-81565117D01*
X95400921Y-81584330D01*
X95413218Y-81604847D01*
X95423446Y-81626471D01*
X95431504Y-81648993D01*
X95437316Y-81672197D01*
X95440826Y-81695858D01*
X95442000Y-81719750D01*
X95442000Y-82207250D01*
X95440826Y-82231142D01*
X95437316Y-82254803D01*
X95431504Y-82278007D01*
X95423446Y-82300529D01*
X95413218Y-82322153D01*
X95400921Y-82342670D01*
X95386671Y-82361883D01*
X95370607Y-82379607D01*
X95352883Y-82395671D01*
X95333670Y-82409921D01*
X95313153Y-82422218D01*
X95291529Y-82432446D01*
X95269007Y-82440504D01*
X95245803Y-82446316D01*
X95222142Y-82449826D01*
X95198250Y-82451000D01*
X94285750Y-82451000D01*
X94261858Y-82449826D01*
X94238197Y-82446316D01*
X94214993Y-82440504D01*
X94192471Y-82432446D01*
X94170847Y-82422218D01*
X94150330Y-82409921D01*
X94131117Y-82395671D01*
X94113393Y-82379607D01*
X94097329Y-82361883D01*
X94083079Y-82342670D01*
X94070782Y-82322153D01*
X94060554Y-82300529D01*
X94052496Y-82278007D01*
X94046684Y-82254803D01*
X94043174Y-82231142D01*
X94042000Y-82207250D01*
X94042000Y-81719750D01*
X94043174Y-81695858D01*
X94046684Y-81672197D01*
X94052496Y-81648993D01*
X94060554Y-81626471D01*
X94070782Y-81604847D01*
X94083079Y-81584330D01*
X94097329Y-81565117D01*
X94113393Y-81547393D01*
X94131117Y-81531329D01*
X94150330Y-81517079D01*
X94170847Y-81504782D01*
X94192471Y-81494554D01*
X94214993Y-81486496D01*
X94238197Y-81480684D01*
X94261858Y-81477174D01*
X94285750Y-81476000D01*
X95198250Y-81476000D01*
X95222142Y-81477174D01*
X95222142Y-81477174D01*
G37*
D15*
X94742000Y-81963500D03*
D10*
G36*
X95222142Y-79602174D02*
X95245803Y-79605684D01*
X95269007Y-79611496D01*
X95291529Y-79619554D01*
X95313153Y-79629782D01*
X95333670Y-79642079D01*
X95352883Y-79656329D01*
X95370607Y-79672393D01*
X95386671Y-79690117D01*
X95400921Y-79709330D01*
X95413218Y-79729847D01*
X95423446Y-79751471D01*
X95431504Y-79773993D01*
X95437316Y-79797197D01*
X95440826Y-79820858D01*
X95442000Y-79844750D01*
X95442000Y-80332250D01*
X95440826Y-80356142D01*
X95437316Y-80379803D01*
X95431504Y-80403007D01*
X95423446Y-80425529D01*
X95413218Y-80447153D01*
X95400921Y-80467670D01*
X95386671Y-80486883D01*
X95370607Y-80504607D01*
X95352883Y-80520671D01*
X95333670Y-80534921D01*
X95313153Y-80547218D01*
X95291529Y-80557446D01*
X95269007Y-80565504D01*
X95245803Y-80571316D01*
X95222142Y-80574826D01*
X95198250Y-80576000D01*
X94285750Y-80576000D01*
X94261858Y-80574826D01*
X94238197Y-80571316D01*
X94214993Y-80565504D01*
X94192471Y-80557446D01*
X94170847Y-80547218D01*
X94150330Y-80534921D01*
X94131117Y-80520671D01*
X94113393Y-80504607D01*
X94097329Y-80486883D01*
X94083079Y-80467670D01*
X94070782Y-80447153D01*
X94060554Y-80425529D01*
X94052496Y-80403007D01*
X94046684Y-80379803D01*
X94043174Y-80356142D01*
X94042000Y-80332250D01*
X94042000Y-79844750D01*
X94043174Y-79820858D01*
X94046684Y-79797197D01*
X94052496Y-79773993D01*
X94060554Y-79751471D01*
X94070782Y-79729847D01*
X94083079Y-79709330D01*
X94097329Y-79690117D01*
X94113393Y-79672393D01*
X94131117Y-79656329D01*
X94150330Y-79642079D01*
X94170847Y-79629782D01*
X94192471Y-79619554D01*
X94214993Y-79611496D01*
X94238197Y-79605684D01*
X94261858Y-79602174D01*
X94285750Y-79601000D01*
X95198250Y-79601000D01*
X95222142Y-79602174D01*
X95222142Y-79602174D01*
G37*
D15*
X94742000Y-80088500D03*
G04 #@! TD*
D18*
G04 #@! TO.C,U13*
X88459000Y-86042500D03*
X88459000Y-86677500D03*
X88459000Y-87312500D03*
X88459000Y-87947500D03*
X88459000Y-88582500D03*
X88459000Y-89217500D03*
X88459000Y-89852500D03*
X88459000Y-90487500D03*
X88459000Y-91122500D03*
X88459000Y-91757500D03*
X93659000Y-91757500D03*
X93659000Y-91122500D03*
X93659000Y-90487500D03*
X93659000Y-89852500D03*
X93659000Y-89217500D03*
X93659000Y-88582500D03*
X93659000Y-87947500D03*
X93659000Y-87312500D03*
X93659000Y-86677500D03*
X93659000Y-86042500D03*
G04 #@! TD*
D19*
G04 #@! TO.C,Q5*
X86360000Y-82439000D03*
X87310000Y-84439000D03*
X85410000Y-84439000D03*
G04 #@! TD*
D10*
G04 #@! TO.C,R13*
G36*
X86078142Y-85444174D02*
X86101803Y-85447684D01*
X86125007Y-85453496D01*
X86147529Y-85461554D01*
X86169153Y-85471782D01*
X86189670Y-85484079D01*
X86208883Y-85498329D01*
X86226607Y-85514393D01*
X86242671Y-85532117D01*
X86256921Y-85551330D01*
X86269218Y-85571847D01*
X86279446Y-85593471D01*
X86287504Y-85615993D01*
X86293316Y-85639197D01*
X86296826Y-85662858D01*
X86298000Y-85686750D01*
X86298000Y-86174250D01*
X86296826Y-86198142D01*
X86293316Y-86221803D01*
X86287504Y-86245007D01*
X86279446Y-86267529D01*
X86269218Y-86289153D01*
X86256921Y-86309670D01*
X86242671Y-86328883D01*
X86226607Y-86346607D01*
X86208883Y-86362671D01*
X86189670Y-86376921D01*
X86169153Y-86389218D01*
X86147529Y-86399446D01*
X86125007Y-86407504D01*
X86101803Y-86413316D01*
X86078142Y-86416826D01*
X86054250Y-86418000D01*
X85141750Y-86418000D01*
X85117858Y-86416826D01*
X85094197Y-86413316D01*
X85070993Y-86407504D01*
X85048471Y-86399446D01*
X85026847Y-86389218D01*
X85006330Y-86376921D01*
X84987117Y-86362671D01*
X84969393Y-86346607D01*
X84953329Y-86328883D01*
X84939079Y-86309670D01*
X84926782Y-86289153D01*
X84916554Y-86267529D01*
X84908496Y-86245007D01*
X84902684Y-86221803D01*
X84899174Y-86198142D01*
X84898000Y-86174250D01*
X84898000Y-85686750D01*
X84899174Y-85662858D01*
X84902684Y-85639197D01*
X84908496Y-85615993D01*
X84916554Y-85593471D01*
X84926782Y-85571847D01*
X84939079Y-85551330D01*
X84953329Y-85532117D01*
X84969393Y-85514393D01*
X84987117Y-85498329D01*
X85006330Y-85484079D01*
X85026847Y-85471782D01*
X85048471Y-85461554D01*
X85070993Y-85453496D01*
X85094197Y-85447684D01*
X85117858Y-85444174D01*
X85141750Y-85443000D01*
X86054250Y-85443000D01*
X86078142Y-85444174D01*
X86078142Y-85444174D01*
G37*
D15*
X85598000Y-85930500D03*
D10*
G36*
X86078142Y-87319174D02*
X86101803Y-87322684D01*
X86125007Y-87328496D01*
X86147529Y-87336554D01*
X86169153Y-87346782D01*
X86189670Y-87359079D01*
X86208883Y-87373329D01*
X86226607Y-87389393D01*
X86242671Y-87407117D01*
X86256921Y-87426330D01*
X86269218Y-87446847D01*
X86279446Y-87468471D01*
X86287504Y-87490993D01*
X86293316Y-87514197D01*
X86296826Y-87537858D01*
X86298000Y-87561750D01*
X86298000Y-88049250D01*
X86296826Y-88073142D01*
X86293316Y-88096803D01*
X86287504Y-88120007D01*
X86279446Y-88142529D01*
X86269218Y-88164153D01*
X86256921Y-88184670D01*
X86242671Y-88203883D01*
X86226607Y-88221607D01*
X86208883Y-88237671D01*
X86189670Y-88251921D01*
X86169153Y-88264218D01*
X86147529Y-88274446D01*
X86125007Y-88282504D01*
X86101803Y-88288316D01*
X86078142Y-88291826D01*
X86054250Y-88293000D01*
X85141750Y-88293000D01*
X85117858Y-88291826D01*
X85094197Y-88288316D01*
X85070993Y-88282504D01*
X85048471Y-88274446D01*
X85026847Y-88264218D01*
X85006330Y-88251921D01*
X84987117Y-88237671D01*
X84969393Y-88221607D01*
X84953329Y-88203883D01*
X84939079Y-88184670D01*
X84926782Y-88164153D01*
X84916554Y-88142529D01*
X84908496Y-88120007D01*
X84902684Y-88096803D01*
X84899174Y-88073142D01*
X84898000Y-88049250D01*
X84898000Y-87561750D01*
X84899174Y-87537858D01*
X84902684Y-87514197D01*
X84908496Y-87490993D01*
X84916554Y-87468471D01*
X84926782Y-87446847D01*
X84939079Y-87426330D01*
X84953329Y-87407117D01*
X84969393Y-87389393D01*
X84987117Y-87373329D01*
X85006330Y-87359079D01*
X85026847Y-87346782D01*
X85048471Y-87336554D01*
X85070993Y-87328496D01*
X85094197Y-87322684D01*
X85117858Y-87319174D01*
X85141750Y-87318000D01*
X86054250Y-87318000D01*
X86078142Y-87319174D01*
X86078142Y-87319174D01*
G37*
D15*
X85598000Y-87805500D03*
G04 #@! TD*
D20*
G04 #@! TO.C,U50*
X86069200Y-111862000D03*
X83769200Y-111862000D03*
X81469200Y-111862000D03*
D21*
X83769200Y-105562000D03*
G04 #@! TD*
D10*
G04 #@! TO.C,C54*
G36*
X98867042Y-100476374D02*
X98890703Y-100479884D01*
X98913907Y-100485696D01*
X98936429Y-100493754D01*
X98958053Y-100503982D01*
X98978570Y-100516279D01*
X98997783Y-100530529D01*
X99015507Y-100546593D01*
X99031571Y-100564317D01*
X99045821Y-100583530D01*
X99058118Y-100604047D01*
X99068346Y-100625671D01*
X99076404Y-100648193D01*
X99082216Y-100671397D01*
X99085726Y-100695058D01*
X99086900Y-100718950D01*
X99086900Y-101206450D01*
X99085726Y-101230342D01*
X99082216Y-101254003D01*
X99076404Y-101277207D01*
X99068346Y-101299729D01*
X99058118Y-101321353D01*
X99045821Y-101341870D01*
X99031571Y-101361083D01*
X99015507Y-101378807D01*
X98997783Y-101394871D01*
X98978570Y-101409121D01*
X98958053Y-101421418D01*
X98936429Y-101431646D01*
X98913907Y-101439704D01*
X98890703Y-101445516D01*
X98867042Y-101449026D01*
X98843150Y-101450200D01*
X97930650Y-101450200D01*
X97906758Y-101449026D01*
X97883097Y-101445516D01*
X97859893Y-101439704D01*
X97837371Y-101431646D01*
X97815747Y-101421418D01*
X97795230Y-101409121D01*
X97776017Y-101394871D01*
X97758293Y-101378807D01*
X97742229Y-101361083D01*
X97727979Y-101341870D01*
X97715682Y-101321353D01*
X97705454Y-101299729D01*
X97697396Y-101277207D01*
X97691584Y-101254003D01*
X97688074Y-101230342D01*
X97686900Y-101206450D01*
X97686900Y-100718950D01*
X97688074Y-100695058D01*
X97691584Y-100671397D01*
X97697396Y-100648193D01*
X97705454Y-100625671D01*
X97715682Y-100604047D01*
X97727979Y-100583530D01*
X97742229Y-100564317D01*
X97758293Y-100546593D01*
X97776017Y-100530529D01*
X97795230Y-100516279D01*
X97815747Y-100503982D01*
X97837371Y-100493754D01*
X97859893Y-100485696D01*
X97883097Y-100479884D01*
X97906758Y-100476374D01*
X97930650Y-100475200D01*
X98843150Y-100475200D01*
X98867042Y-100476374D01*
X98867042Y-100476374D01*
G37*
D15*
X98386900Y-100962700D03*
D10*
G36*
X98867042Y-98601374D02*
X98890703Y-98604884D01*
X98913907Y-98610696D01*
X98936429Y-98618754D01*
X98958053Y-98628982D01*
X98978570Y-98641279D01*
X98997783Y-98655529D01*
X99015507Y-98671593D01*
X99031571Y-98689317D01*
X99045821Y-98708530D01*
X99058118Y-98729047D01*
X99068346Y-98750671D01*
X99076404Y-98773193D01*
X99082216Y-98796397D01*
X99085726Y-98820058D01*
X99086900Y-98843950D01*
X99086900Y-99331450D01*
X99085726Y-99355342D01*
X99082216Y-99379003D01*
X99076404Y-99402207D01*
X99068346Y-99424729D01*
X99058118Y-99446353D01*
X99045821Y-99466870D01*
X99031571Y-99486083D01*
X99015507Y-99503807D01*
X98997783Y-99519871D01*
X98978570Y-99534121D01*
X98958053Y-99546418D01*
X98936429Y-99556646D01*
X98913907Y-99564704D01*
X98890703Y-99570516D01*
X98867042Y-99574026D01*
X98843150Y-99575200D01*
X97930650Y-99575200D01*
X97906758Y-99574026D01*
X97883097Y-99570516D01*
X97859893Y-99564704D01*
X97837371Y-99556646D01*
X97815747Y-99546418D01*
X97795230Y-99534121D01*
X97776017Y-99519871D01*
X97758293Y-99503807D01*
X97742229Y-99486083D01*
X97727979Y-99466870D01*
X97715682Y-99446353D01*
X97705454Y-99424729D01*
X97697396Y-99402207D01*
X97691584Y-99379003D01*
X97688074Y-99355342D01*
X97686900Y-99331450D01*
X97686900Y-98843950D01*
X97688074Y-98820058D01*
X97691584Y-98796397D01*
X97697396Y-98773193D01*
X97705454Y-98750671D01*
X97715682Y-98729047D01*
X97727979Y-98708530D01*
X97742229Y-98689317D01*
X97758293Y-98671593D01*
X97776017Y-98655529D01*
X97795230Y-98641279D01*
X97815747Y-98628982D01*
X97837371Y-98618754D01*
X97859893Y-98610696D01*
X97883097Y-98604884D01*
X97906758Y-98601374D01*
X97930650Y-98600200D01*
X98843150Y-98600200D01*
X98867042Y-98601374D01*
X98867042Y-98601374D01*
G37*
D15*
X98386900Y-99087700D03*
G04 #@! TD*
D22*
G04 #@! TO.C,D5*
X99785000Y-93650000D03*
X99785000Y-96850000D03*
X104685000Y-93650000D03*
X104685000Y-96850000D03*
G04 #@! TD*
G04 #@! TO.C,D2*
X73051500Y-106921500D03*
X73051500Y-110121500D03*
X77951500Y-106921500D03*
X77951500Y-110121500D03*
G04 #@! TD*
D23*
G04 #@! TO.C,U1*
X72905000Y-93710000D03*
D24*
X65405000Y-101210000D03*
X66675000Y-101210000D03*
X67945000Y-101210000D03*
X69215000Y-101210000D03*
X70485000Y-101210000D03*
X71755000Y-101210000D03*
X73025000Y-101210000D03*
X74295000Y-101210000D03*
X75565000Y-101210000D03*
X76835000Y-101210000D03*
X78105000Y-101210000D03*
X79375000Y-101210000D03*
X80645000Y-101210000D03*
X81915000Y-101210000D03*
D25*
X82915000Y-98425000D03*
X82915000Y-97155000D03*
X82915000Y-95885000D03*
X82915000Y-94615000D03*
X82915000Y-93345000D03*
X82915000Y-92075000D03*
X82915000Y-90805000D03*
X82915000Y-89535000D03*
X82915000Y-88265000D03*
X82915000Y-86995000D03*
D24*
X81915000Y-84210000D03*
X80645000Y-84210000D03*
X79375000Y-84210000D03*
X78105000Y-84210000D03*
X76835000Y-84210000D03*
X75565000Y-84210000D03*
X74295000Y-84210000D03*
X73025000Y-84210000D03*
X71755000Y-84210000D03*
X70485000Y-84210000D03*
X69215000Y-84210000D03*
X67945000Y-84210000D03*
X66675000Y-84210000D03*
X65405000Y-84210000D03*
G04 #@! TD*
M02*
