M48
INCH,TZ
T1C0.0118
T2C0.0217
T3C0.0299
T4C0.0315
T5C0.0335
T6C0.0394
%
G90
G05
T1
X26250Y-32340
X26250Y-39846
X26581Y-35600
X26750Y-39846
X27004Y-33744
X27250Y-34175
X27620Y-41887
X27750Y-34596
X27920Y-35620
X29250Y-39846
X29690Y-38230
X29800Y-34050
X29825Y-41775
X30115Y-40650
X30250Y-33154
X30250Y-39846
X30330Y-34050
X30400Y-38980
X30605Y-35346
X30725Y-43725
X30750Y-34850
X30870Y-38950
X31100Y-42100
X31200Y-35050
X31475Y-40725
X31475Y-41175
X31500Y-35550
X31750Y-35300
X31750Y-39846
X32890Y-41461
X34000Y-31900
X34220Y-39120
X34260Y-34350
X34344Y-33724
X35148Y-33869
X35480Y-35140
X35740Y-42860
X35774Y-34620
X36100Y-38700
X36270Y-35090
X36329Y-42081
X36338Y-34769
X36350Y-41500
X36374Y-39925
X36400Y-34460
X36500Y-40870
X36650Y-40225
X36874Y-33849
X37300Y-31531
X37420Y-39880
X37531Y-34320
X38250Y-36250
X38860Y-41120
X39300Y-36550
X39300Y-37475
X39325Y-41175
X39820Y-41560
X40225Y-38900
X41250Y-38450
X41331Y-41240
X41600Y-34194
X42500Y-41290
X42500Y-41720
X42500Y-42150
X42700Y-33600
X43080Y-33400
X43520Y-34194
X43934Y-42494
X44580Y-33380
X44660Y-41043
X44900Y-35420
X44900Y-40797
X45149Y-36240
X45149Y-40551
X45437Y-38257
X45520Y-37240
X46040Y-33360
X46520Y-33520
X30543Y-37463
X30543Y-37857
X30740Y-37660
X30937Y-37463
X30937Y-37857
T3
X42700Y-35740
X42700Y-36740
X42700Y-37740
X42700Y-38740
X43700Y-36240
X43700Y-37240
X43700Y-38240
X43700Y-39240
T4
X33735Y-36673
X33735Y-37460
X25680Y-41980
X25680Y-42767
X25680Y-43555
X25680Y-44342
X26740Y-41980
X26740Y-42767
T6
X40040Y-40100
X41040Y-40100
X45900Y-41200
X45900Y-42200
X45900Y-43200
X45900Y-44200
X40920Y-42380
X41920Y-42380
X43780Y-44180
X44780Y-44180
X37750Y-43150
X38750Y-43150
T2
X38074Y-32030G85X38074Y-31774
G05
X41126Y-32030G85X41126Y-31774
G05
T5
X38133Y-33507G85X38133Y-33290
G05
X41067Y-33507G85X41067Y-33290
G05
T0
M30
