G04 #@! TF.GenerationSoftware,KiCad,Pcbnew,5.0.2+dfsg1-1*
G04 #@! TF.CreationDate,2021-06-22T16:41:51+02:00*
G04 #@! TF.ProjectId,MainBoard,4d61696e-426f-4617-9264-2e6b69636164,rev?*
G04 #@! TF.SameCoordinates,Original*
G04 #@! TF.FileFunction,Soldermask,Bot*
G04 #@! TF.FilePolarity,Negative*
%FSLAX46Y46*%
G04 Gerber Fmt 4.6, Leading zero omitted, Abs format (unit mm)*
G04 Created by KiCad (PCBNEW 5.0.2+dfsg1-1) date Tue 22 Jun 2021 16:41:51 CEST*
%MOMM*%
%LPD*%
G01*
G04 APERTURE LIST*
%ADD10C,0.010000*%
%ADD11C,0.100000*%
G04 APERTURE END LIST*
D10*
G04 #@! TO.C,H3*
G36*
X84915854Y-100584000D02*
X85029793Y-100594865D01*
X85137416Y-100626482D01*
X85236415Y-100677385D01*
X85324484Y-100746107D01*
X85399316Y-100831181D01*
X85457184Y-100928168D01*
X85496805Y-101034436D01*
X85515373Y-101141450D01*
X85514234Y-101247100D01*
X85494730Y-101349275D01*
X85458206Y-101445866D01*
X85406005Y-101534762D01*
X85339473Y-101613854D01*
X85259952Y-101681031D01*
X85168787Y-101734183D01*
X85067323Y-101771201D01*
X84956902Y-101789973D01*
X84907006Y-101791911D01*
X84819067Y-101791911D01*
X84819067Y-101843840D01*
X84821911Y-101880147D01*
X84833711Y-101907045D01*
X84857449Y-101934151D01*
X84895831Y-101972533D01*
X87087402Y-101972533D01*
X87349539Y-101972524D01*
X87590041Y-101972492D01*
X87809848Y-101972428D01*
X88009901Y-101972324D01*
X88191144Y-101972173D01*
X88354516Y-101971966D01*
X88500960Y-101971694D01*
X88631417Y-101971350D01*
X88746829Y-101970926D01*
X88848138Y-101970413D01*
X88936284Y-101969803D01*
X89012210Y-101969088D01*
X89076857Y-101968260D01*
X89131167Y-101967311D01*
X89176080Y-101966233D01*
X89212540Y-101965017D01*
X89241487Y-101963655D01*
X89263863Y-101962139D01*
X89280609Y-101960462D01*
X89292668Y-101958614D01*
X89300980Y-101956587D01*
X89306487Y-101954375D01*
X89308337Y-101953292D01*
X89315349Y-101949129D01*
X89321796Y-101945595D01*
X89327700Y-101941765D01*
X89333086Y-101936718D01*
X89337978Y-101929529D01*
X89342398Y-101919277D01*
X89346372Y-101905036D01*
X89349921Y-101885886D01*
X89353070Y-101860901D01*
X89355842Y-101829160D01*
X89358261Y-101789738D01*
X89360351Y-101741714D01*
X89362135Y-101684163D01*
X89363637Y-101616163D01*
X89364880Y-101536790D01*
X89365889Y-101445121D01*
X89366685Y-101340234D01*
X89367294Y-101221204D01*
X89367739Y-101087110D01*
X89368043Y-100937027D01*
X89368230Y-100770033D01*
X89368324Y-100585204D01*
X89368348Y-100381617D01*
X89368325Y-100158350D01*
X89368280Y-99914478D01*
X89368237Y-99649079D01*
X89368232Y-99610696D01*
X89368189Y-99343718D01*
X89368118Y-99098398D01*
X89368013Y-98873817D01*
X89367866Y-98669055D01*
X89367669Y-98483194D01*
X89367416Y-98315312D01*
X89367100Y-98164492D01*
X89366713Y-98029813D01*
X89366247Y-97910356D01*
X89365697Y-97805201D01*
X89365053Y-97713429D01*
X89364311Y-97634121D01*
X89363461Y-97566357D01*
X89362497Y-97509218D01*
X89361411Y-97461783D01*
X89360197Y-97423134D01*
X89358847Y-97392351D01*
X89357355Y-97368515D01*
X89355711Y-97350706D01*
X89353911Y-97338005D01*
X89351945Y-97329492D01*
X89350277Y-97325134D01*
X89346706Y-97316672D01*
X89344070Y-97308903D01*
X89341434Y-97301798D01*
X89337862Y-97295327D01*
X89332421Y-97289461D01*
X89324175Y-97284171D01*
X89312190Y-97279426D01*
X89295531Y-97275198D01*
X89273263Y-97271457D01*
X89244452Y-97268173D01*
X89208163Y-97265317D01*
X89163461Y-97262860D01*
X89109411Y-97260771D01*
X89045079Y-97259022D01*
X88969530Y-97257583D01*
X88881830Y-97256424D01*
X88781043Y-97255517D01*
X88666234Y-97254831D01*
X88536470Y-97254337D01*
X88390815Y-97254005D01*
X88228335Y-97253807D01*
X88048095Y-97253713D01*
X87849160Y-97253692D01*
X87630596Y-97253715D01*
X87391468Y-97253754D01*
X87130840Y-97253778D01*
X87088689Y-97253778D01*
X86825792Y-97253764D01*
X86584532Y-97253739D01*
X86363965Y-97253729D01*
X86163152Y-97253758D01*
X85981149Y-97253852D01*
X85817016Y-97254038D01*
X85669811Y-97254341D01*
X85538592Y-97254786D01*
X85428667Y-97255366D01*
X85428667Y-97558203D01*
X85486511Y-97597993D01*
X85502279Y-97609164D01*
X85516241Y-97619234D01*
X85529584Y-97628262D01*
X85543493Y-97636303D01*
X85559156Y-97643414D01*
X85577758Y-97649653D01*
X85600486Y-97655075D01*
X85628527Y-97659738D01*
X85663067Y-97663699D01*
X85705292Y-97667015D01*
X85756389Y-97669741D01*
X85817544Y-97671936D01*
X85889944Y-97673655D01*
X85974775Y-97674956D01*
X86073222Y-97675895D01*
X86186474Y-97676530D01*
X86315716Y-97676916D01*
X86462134Y-97677112D01*
X86626916Y-97677173D01*
X86811247Y-97677157D01*
X87016313Y-97677120D01*
X87138933Y-97677111D01*
X87355882Y-97677135D01*
X87551442Y-97677169D01*
X87726799Y-97677157D01*
X87883141Y-97677042D01*
X88021657Y-97676770D01*
X88143534Y-97676282D01*
X88249960Y-97675524D01*
X88342122Y-97674438D01*
X88421209Y-97672969D01*
X88488408Y-97671060D01*
X88544907Y-97668656D01*
X88591893Y-97665699D01*
X88630555Y-97662134D01*
X88662080Y-97657905D01*
X88687655Y-97652954D01*
X88708470Y-97647227D01*
X88725711Y-97640667D01*
X88740565Y-97633217D01*
X88754222Y-97624821D01*
X88767869Y-97615424D01*
X88782693Y-97604968D01*
X88791583Y-97598877D01*
X88849200Y-97560104D01*
X88849200Y-98091668D01*
X88849165Y-98214917D01*
X88849015Y-98317413D01*
X88848678Y-98400980D01*
X88848086Y-98467444D01*
X88847167Y-98518629D01*
X88845851Y-98556359D01*
X88844069Y-98582460D01*
X88841751Y-98598756D01*
X88838826Y-98607072D01*
X88835224Y-98609232D01*
X88830875Y-98607061D01*
X88829445Y-98605865D01*
X88792373Y-98580715D01*
X88739572Y-98554817D01*
X88677570Y-98531208D01*
X88651157Y-98522939D01*
X88633216Y-98518322D01*
X88612155Y-98514421D01*
X88585889Y-98511152D01*
X88552332Y-98508434D01*
X88509399Y-98506185D01*
X88455004Y-98504323D01*
X88387062Y-98502764D01*
X88303488Y-98501428D01*
X88202195Y-98500231D01*
X88081100Y-98499092D01*
X88036400Y-98498715D01*
X87911249Y-98497698D01*
X87806882Y-98496940D01*
X87721507Y-98496497D01*
X87653333Y-98496430D01*
X87600565Y-98496795D01*
X87561414Y-98497652D01*
X87534085Y-98499059D01*
X87516786Y-98501075D01*
X87507726Y-98503757D01*
X87505112Y-98507164D01*
X87507151Y-98511356D01*
X87511467Y-98515829D01*
X87524402Y-98526184D01*
X87553476Y-98548242D01*
X87596559Y-98580443D01*
X87651518Y-98621226D01*
X87716223Y-98669030D01*
X87788542Y-98722295D01*
X87866344Y-98779460D01*
X87947498Y-98838963D01*
X88029872Y-98899245D01*
X88111336Y-98958745D01*
X88189757Y-99015902D01*
X88263004Y-99069155D01*
X88328947Y-99116943D01*
X88385454Y-99157707D01*
X88430393Y-99189884D01*
X88461634Y-99211915D01*
X88468266Y-99216483D01*
X88505169Y-99239404D01*
X88553159Y-99266212D01*
X88602697Y-99291611D01*
X88609377Y-99294832D01*
X88657572Y-99316510D01*
X88695134Y-99329096D01*
X88730960Y-99334826D01*
X88773000Y-99335944D01*
X88849200Y-99335310D01*
X88849200Y-100489749D01*
X88755469Y-100398585D01*
X88705575Y-100351788D01*
X88649095Y-100301501D01*
X88594826Y-100255456D01*
X88569473Y-100235031D01*
X88529928Y-100204593D01*
X88476716Y-100164538D01*
X88411467Y-100116039D01*
X88335811Y-100060265D01*
X88251377Y-99998389D01*
X88159794Y-99931581D01*
X88062692Y-99861013D01*
X87961701Y-99787855D01*
X87858450Y-99713279D01*
X87754568Y-99638456D01*
X87651685Y-99564557D01*
X87551431Y-99492754D01*
X87455436Y-99424216D01*
X87365327Y-99360116D01*
X87282736Y-99301625D01*
X87209292Y-99249914D01*
X87146624Y-99206153D01*
X87096361Y-99171515D01*
X87060134Y-99147170D01*
X87039571Y-99134289D01*
X87035468Y-99132531D01*
X87024142Y-99140490D01*
X86996962Y-99161285D01*
X86955629Y-99193553D01*
X86901844Y-99235930D01*
X86837306Y-99287053D01*
X86763718Y-99345559D01*
X86682778Y-99410086D01*
X86596188Y-99479269D01*
X86505648Y-99551747D01*
X86412860Y-99626154D01*
X86338502Y-99685883D01*
X86338502Y-100696889D01*
X86351459Y-100702798D01*
X86373708Y-100717128D01*
X86375191Y-100718175D01*
X86405344Y-100736962D01*
X86442175Y-100756609D01*
X86450311Y-100760508D01*
X86458740Y-100764044D01*
X86468859Y-100767170D01*
X86482060Y-100769914D01*
X86499738Y-100772308D01*
X86523284Y-100774381D01*
X86554093Y-100776165D01*
X86593557Y-100777688D01*
X86643069Y-100778981D01*
X86704023Y-100780074D01*
X86777811Y-100780997D01*
X86865828Y-100781781D01*
X86969465Y-100782455D01*
X87090116Y-100783050D01*
X87229174Y-100783595D01*
X87388032Y-100784121D01*
X87566889Y-100784655D01*
X87752007Y-100785194D01*
X87915945Y-100785628D01*
X88060103Y-100785891D01*
X88185879Y-100785916D01*
X88294671Y-100785635D01*
X88387877Y-100784981D01*
X88466897Y-100783886D01*
X88533128Y-100782282D01*
X88587970Y-100780103D01*
X88632821Y-100777281D01*
X88669078Y-100773749D01*
X88698141Y-100769439D01*
X88721409Y-100764283D01*
X88740279Y-100758215D01*
X88756151Y-100751167D01*
X88770422Y-100743071D01*
X88784491Y-100733860D01*
X88796958Y-100725360D01*
X88823252Y-100708224D01*
X88840837Y-100698078D01*
X88844057Y-100696889D01*
X88845134Y-100707796D01*
X88846135Y-100738989D01*
X88847035Y-100788177D01*
X88847810Y-100853067D01*
X88848437Y-100931370D01*
X88848891Y-101020793D01*
X88849149Y-101119044D01*
X88849200Y-101187955D01*
X88848980Y-101292948D01*
X88848348Y-101389790D01*
X88847349Y-101476293D01*
X88846027Y-101550268D01*
X88844426Y-101609526D01*
X88842591Y-101651880D01*
X88840565Y-101675140D01*
X88839293Y-101679022D01*
X88824391Y-101671324D01*
X88816360Y-101663326D01*
X88799234Y-101650154D01*
X88768983Y-101632915D01*
X88744422Y-101620993D01*
X88685511Y-101594355D01*
X87508645Y-101591280D01*
X86331778Y-101588205D01*
X86331778Y-101142547D01*
X86331942Y-101044730D01*
X86332411Y-100954336D01*
X86333147Y-100873770D01*
X86334116Y-100805438D01*
X86335280Y-100751744D01*
X86336603Y-100715095D01*
X86338049Y-100697896D01*
X86338502Y-100696889D01*
X86338502Y-99685883D01*
X86319522Y-99701130D01*
X86227337Y-99775310D01*
X86138004Y-99847331D01*
X86053224Y-99915831D01*
X85974698Y-99979445D01*
X85904126Y-100036812D01*
X85843209Y-100086567D01*
X85793647Y-100127348D01*
X85772978Y-100144512D01*
X85672316Y-100230804D01*
X85589059Y-100307403D01*
X85521238Y-100376217D01*
X85466889Y-100439152D01*
X85459522Y-100448533D01*
X85428917Y-100488044D01*
X85428667Y-99356284D01*
X85476644Y-99361573D01*
X85533988Y-99358270D01*
X85602263Y-99336739D01*
X85682012Y-99296765D01*
X85754295Y-99251457D01*
X85776940Y-99235239D01*
X85814496Y-99207186D01*
X85864821Y-99168970D01*
X85925773Y-99122263D01*
X85995211Y-99068739D01*
X86070994Y-99010069D01*
X86150980Y-98947925D01*
X86233028Y-98883979D01*
X86314996Y-98819905D01*
X86394743Y-98757373D01*
X86470127Y-98698057D01*
X86539007Y-98643629D01*
X86599242Y-98595761D01*
X86648689Y-98556125D01*
X86685208Y-98526394D01*
X86706658Y-98508239D01*
X86709956Y-98505180D01*
X86701949Y-98502321D01*
X86671655Y-98500107D01*
X86619356Y-98498543D01*
X86545331Y-98497633D01*
X86449863Y-98497380D01*
X86333234Y-98497787D01*
X86213245Y-98498696D01*
X86081133Y-98500018D01*
X85969394Y-98501543D01*
X85875825Y-98503519D01*
X85798219Y-98506194D01*
X85734374Y-98509818D01*
X85682083Y-98514639D01*
X85639144Y-98520906D01*
X85603351Y-98528868D01*
X85572500Y-98538773D01*
X85544386Y-98550869D01*
X85516805Y-98565407D01*
X85491766Y-98580089D01*
X85428667Y-98618086D01*
X85428667Y-97558203D01*
X85428667Y-97255366D01*
X85422417Y-97255399D01*
X85320344Y-97256205D01*
X85231433Y-97257230D01*
X85154741Y-97258500D01*
X85089327Y-97260040D01*
X85034249Y-97261876D01*
X84988565Y-97264033D01*
X84951334Y-97266537D01*
X84921613Y-97269413D01*
X84898462Y-97272687D01*
X84880939Y-97276385D01*
X84868101Y-97280531D01*
X84859008Y-97285153D01*
X84852718Y-97290274D01*
X84848288Y-97295922D01*
X84844778Y-97302121D01*
X84841245Y-97308896D01*
X84837676Y-97314892D01*
X84835100Y-97320125D01*
X84832772Y-97328301D01*
X84830678Y-97340514D01*
X84828807Y-97357859D01*
X84827147Y-97381431D01*
X84825684Y-97412323D01*
X84824408Y-97451632D01*
X84823304Y-97500450D01*
X84822361Y-97559873D01*
X84821567Y-97630996D01*
X84820909Y-97714912D01*
X84820375Y-97812717D01*
X84819953Y-97925506D01*
X84819629Y-98054371D01*
X84819392Y-98200409D01*
X84819230Y-98364714D01*
X84819130Y-98548380D01*
X84819080Y-98752503D01*
X84819067Y-98963647D01*
X84819067Y-100584000D01*
X84915854Y-100584000D01*
X84915854Y-100584000D01*
G37*
X84915854Y-100584000D02*
X85029793Y-100594865D01*
X85137416Y-100626482D01*
X85236415Y-100677385D01*
X85324484Y-100746107D01*
X85399316Y-100831181D01*
X85457184Y-100928168D01*
X85496805Y-101034436D01*
X85515373Y-101141450D01*
X85514234Y-101247100D01*
X85494730Y-101349275D01*
X85458206Y-101445866D01*
X85406005Y-101534762D01*
X85339473Y-101613854D01*
X85259952Y-101681031D01*
X85168787Y-101734183D01*
X85067323Y-101771201D01*
X84956902Y-101789973D01*
X84907006Y-101791911D01*
X84819067Y-101791911D01*
X84819067Y-101843840D01*
X84821911Y-101880147D01*
X84833711Y-101907045D01*
X84857449Y-101934151D01*
X84895831Y-101972533D01*
X87087402Y-101972533D01*
X87349539Y-101972524D01*
X87590041Y-101972492D01*
X87809848Y-101972428D01*
X88009901Y-101972324D01*
X88191144Y-101972173D01*
X88354516Y-101971966D01*
X88500960Y-101971694D01*
X88631417Y-101971350D01*
X88746829Y-101970926D01*
X88848138Y-101970413D01*
X88936284Y-101969803D01*
X89012210Y-101969088D01*
X89076857Y-101968260D01*
X89131167Y-101967311D01*
X89176080Y-101966233D01*
X89212540Y-101965017D01*
X89241487Y-101963655D01*
X89263863Y-101962139D01*
X89280609Y-101960462D01*
X89292668Y-101958614D01*
X89300980Y-101956587D01*
X89306487Y-101954375D01*
X89308337Y-101953292D01*
X89315349Y-101949129D01*
X89321796Y-101945595D01*
X89327700Y-101941765D01*
X89333086Y-101936718D01*
X89337978Y-101929529D01*
X89342398Y-101919277D01*
X89346372Y-101905036D01*
X89349921Y-101885886D01*
X89353070Y-101860901D01*
X89355842Y-101829160D01*
X89358261Y-101789738D01*
X89360351Y-101741714D01*
X89362135Y-101684163D01*
X89363637Y-101616163D01*
X89364880Y-101536790D01*
X89365889Y-101445121D01*
X89366685Y-101340234D01*
X89367294Y-101221204D01*
X89367739Y-101087110D01*
X89368043Y-100937027D01*
X89368230Y-100770033D01*
X89368324Y-100585204D01*
X89368348Y-100381617D01*
X89368325Y-100158350D01*
X89368280Y-99914478D01*
X89368237Y-99649079D01*
X89368232Y-99610696D01*
X89368189Y-99343718D01*
X89368118Y-99098398D01*
X89368013Y-98873817D01*
X89367866Y-98669055D01*
X89367669Y-98483194D01*
X89367416Y-98315312D01*
X89367100Y-98164492D01*
X89366713Y-98029813D01*
X89366247Y-97910356D01*
X89365697Y-97805201D01*
X89365053Y-97713429D01*
X89364311Y-97634121D01*
X89363461Y-97566357D01*
X89362497Y-97509218D01*
X89361411Y-97461783D01*
X89360197Y-97423134D01*
X89358847Y-97392351D01*
X89357355Y-97368515D01*
X89355711Y-97350706D01*
X89353911Y-97338005D01*
X89351945Y-97329492D01*
X89350277Y-97325134D01*
X89346706Y-97316672D01*
X89344070Y-97308903D01*
X89341434Y-97301798D01*
X89337862Y-97295327D01*
X89332421Y-97289461D01*
X89324175Y-97284171D01*
X89312190Y-97279426D01*
X89295531Y-97275198D01*
X89273263Y-97271457D01*
X89244452Y-97268173D01*
X89208163Y-97265317D01*
X89163461Y-97262860D01*
X89109411Y-97260771D01*
X89045079Y-97259022D01*
X88969530Y-97257583D01*
X88881830Y-97256424D01*
X88781043Y-97255517D01*
X88666234Y-97254831D01*
X88536470Y-97254337D01*
X88390815Y-97254005D01*
X88228335Y-97253807D01*
X88048095Y-97253713D01*
X87849160Y-97253692D01*
X87630596Y-97253715D01*
X87391468Y-97253754D01*
X87130840Y-97253778D01*
X87088689Y-97253778D01*
X86825792Y-97253764D01*
X86584532Y-97253739D01*
X86363965Y-97253729D01*
X86163152Y-97253758D01*
X85981149Y-97253852D01*
X85817016Y-97254038D01*
X85669811Y-97254341D01*
X85538592Y-97254786D01*
X85428667Y-97255366D01*
X85428667Y-97558203D01*
X85486511Y-97597993D01*
X85502279Y-97609164D01*
X85516241Y-97619234D01*
X85529584Y-97628262D01*
X85543493Y-97636303D01*
X85559156Y-97643414D01*
X85577758Y-97649653D01*
X85600486Y-97655075D01*
X85628527Y-97659738D01*
X85663067Y-97663699D01*
X85705292Y-97667015D01*
X85756389Y-97669741D01*
X85817544Y-97671936D01*
X85889944Y-97673655D01*
X85974775Y-97674956D01*
X86073222Y-97675895D01*
X86186474Y-97676530D01*
X86315716Y-97676916D01*
X86462134Y-97677112D01*
X86626916Y-97677173D01*
X86811247Y-97677157D01*
X87016313Y-97677120D01*
X87138933Y-97677111D01*
X87355882Y-97677135D01*
X87551442Y-97677169D01*
X87726799Y-97677157D01*
X87883141Y-97677042D01*
X88021657Y-97676770D01*
X88143534Y-97676282D01*
X88249960Y-97675524D01*
X88342122Y-97674438D01*
X88421209Y-97672969D01*
X88488408Y-97671060D01*
X88544907Y-97668656D01*
X88591893Y-97665699D01*
X88630555Y-97662134D01*
X88662080Y-97657905D01*
X88687655Y-97652954D01*
X88708470Y-97647227D01*
X88725711Y-97640667D01*
X88740565Y-97633217D01*
X88754222Y-97624821D01*
X88767869Y-97615424D01*
X88782693Y-97604968D01*
X88791583Y-97598877D01*
X88849200Y-97560104D01*
X88849200Y-98091668D01*
X88849165Y-98214917D01*
X88849015Y-98317413D01*
X88848678Y-98400980D01*
X88848086Y-98467444D01*
X88847167Y-98518629D01*
X88845851Y-98556359D01*
X88844069Y-98582460D01*
X88841751Y-98598756D01*
X88838826Y-98607072D01*
X88835224Y-98609232D01*
X88830875Y-98607061D01*
X88829445Y-98605865D01*
X88792373Y-98580715D01*
X88739572Y-98554817D01*
X88677570Y-98531208D01*
X88651157Y-98522939D01*
X88633216Y-98518322D01*
X88612155Y-98514421D01*
X88585889Y-98511152D01*
X88552332Y-98508434D01*
X88509399Y-98506185D01*
X88455004Y-98504323D01*
X88387062Y-98502764D01*
X88303488Y-98501428D01*
X88202195Y-98500231D01*
X88081100Y-98499092D01*
X88036400Y-98498715D01*
X87911249Y-98497698D01*
X87806882Y-98496940D01*
X87721507Y-98496497D01*
X87653333Y-98496430D01*
X87600565Y-98496795D01*
X87561414Y-98497652D01*
X87534085Y-98499059D01*
X87516786Y-98501075D01*
X87507726Y-98503757D01*
X87505112Y-98507164D01*
X87507151Y-98511356D01*
X87511467Y-98515829D01*
X87524402Y-98526184D01*
X87553476Y-98548242D01*
X87596559Y-98580443D01*
X87651518Y-98621226D01*
X87716223Y-98669030D01*
X87788542Y-98722295D01*
X87866344Y-98779460D01*
X87947498Y-98838963D01*
X88029872Y-98899245D01*
X88111336Y-98958745D01*
X88189757Y-99015902D01*
X88263004Y-99069155D01*
X88328947Y-99116943D01*
X88385454Y-99157707D01*
X88430393Y-99189884D01*
X88461634Y-99211915D01*
X88468266Y-99216483D01*
X88505169Y-99239404D01*
X88553159Y-99266212D01*
X88602697Y-99291611D01*
X88609377Y-99294832D01*
X88657572Y-99316510D01*
X88695134Y-99329096D01*
X88730960Y-99334826D01*
X88773000Y-99335944D01*
X88849200Y-99335310D01*
X88849200Y-100489749D01*
X88755469Y-100398585D01*
X88705575Y-100351788D01*
X88649095Y-100301501D01*
X88594826Y-100255456D01*
X88569473Y-100235031D01*
X88529928Y-100204593D01*
X88476716Y-100164538D01*
X88411467Y-100116039D01*
X88335811Y-100060265D01*
X88251377Y-99998389D01*
X88159794Y-99931581D01*
X88062692Y-99861013D01*
X87961701Y-99787855D01*
X87858450Y-99713279D01*
X87754568Y-99638456D01*
X87651685Y-99564557D01*
X87551431Y-99492754D01*
X87455436Y-99424216D01*
X87365327Y-99360116D01*
X87282736Y-99301625D01*
X87209292Y-99249914D01*
X87146624Y-99206153D01*
X87096361Y-99171515D01*
X87060134Y-99147170D01*
X87039571Y-99134289D01*
X87035468Y-99132531D01*
X87024142Y-99140490D01*
X86996962Y-99161285D01*
X86955629Y-99193553D01*
X86901844Y-99235930D01*
X86837306Y-99287053D01*
X86763718Y-99345559D01*
X86682778Y-99410086D01*
X86596188Y-99479269D01*
X86505648Y-99551747D01*
X86412860Y-99626154D01*
X86338502Y-99685883D01*
X86338502Y-100696889D01*
X86351459Y-100702798D01*
X86373708Y-100717128D01*
X86375191Y-100718175D01*
X86405344Y-100736962D01*
X86442175Y-100756609D01*
X86450311Y-100760508D01*
X86458740Y-100764044D01*
X86468859Y-100767170D01*
X86482060Y-100769914D01*
X86499738Y-100772308D01*
X86523284Y-100774381D01*
X86554093Y-100776165D01*
X86593557Y-100777688D01*
X86643069Y-100778981D01*
X86704023Y-100780074D01*
X86777811Y-100780997D01*
X86865828Y-100781781D01*
X86969465Y-100782455D01*
X87090116Y-100783050D01*
X87229174Y-100783595D01*
X87388032Y-100784121D01*
X87566889Y-100784655D01*
X87752007Y-100785194D01*
X87915945Y-100785628D01*
X88060103Y-100785891D01*
X88185879Y-100785916D01*
X88294671Y-100785635D01*
X88387877Y-100784981D01*
X88466897Y-100783886D01*
X88533128Y-100782282D01*
X88587970Y-100780103D01*
X88632821Y-100777281D01*
X88669078Y-100773749D01*
X88698141Y-100769439D01*
X88721409Y-100764283D01*
X88740279Y-100758215D01*
X88756151Y-100751167D01*
X88770422Y-100743071D01*
X88784491Y-100733860D01*
X88796958Y-100725360D01*
X88823252Y-100708224D01*
X88840837Y-100698078D01*
X88844057Y-100696889D01*
X88845134Y-100707796D01*
X88846135Y-100738989D01*
X88847035Y-100788177D01*
X88847810Y-100853067D01*
X88848437Y-100931370D01*
X88848891Y-101020793D01*
X88849149Y-101119044D01*
X88849200Y-101187955D01*
X88848980Y-101292948D01*
X88848348Y-101389790D01*
X88847349Y-101476293D01*
X88846027Y-101550268D01*
X88844426Y-101609526D01*
X88842591Y-101651880D01*
X88840565Y-101675140D01*
X88839293Y-101679022D01*
X88824391Y-101671324D01*
X88816360Y-101663326D01*
X88799234Y-101650154D01*
X88768983Y-101632915D01*
X88744422Y-101620993D01*
X88685511Y-101594355D01*
X87508645Y-101591280D01*
X86331778Y-101588205D01*
X86331778Y-101142547D01*
X86331942Y-101044730D01*
X86332411Y-100954336D01*
X86333147Y-100873770D01*
X86334116Y-100805438D01*
X86335280Y-100751744D01*
X86336603Y-100715095D01*
X86338049Y-100697896D01*
X86338502Y-100696889D01*
X86338502Y-99685883D01*
X86319522Y-99701130D01*
X86227337Y-99775310D01*
X86138004Y-99847331D01*
X86053224Y-99915831D01*
X85974698Y-99979445D01*
X85904126Y-100036812D01*
X85843209Y-100086567D01*
X85793647Y-100127348D01*
X85772978Y-100144512D01*
X85672316Y-100230804D01*
X85589059Y-100307403D01*
X85521238Y-100376217D01*
X85466889Y-100439152D01*
X85459522Y-100448533D01*
X85428917Y-100488044D01*
X85428667Y-99356284D01*
X85476644Y-99361573D01*
X85533988Y-99358270D01*
X85602263Y-99336739D01*
X85682012Y-99296765D01*
X85754295Y-99251457D01*
X85776940Y-99235239D01*
X85814496Y-99207186D01*
X85864821Y-99168970D01*
X85925773Y-99122263D01*
X85995211Y-99068739D01*
X86070994Y-99010069D01*
X86150980Y-98947925D01*
X86233028Y-98883979D01*
X86314996Y-98819905D01*
X86394743Y-98757373D01*
X86470127Y-98698057D01*
X86539007Y-98643629D01*
X86599242Y-98595761D01*
X86648689Y-98556125D01*
X86685208Y-98526394D01*
X86706658Y-98508239D01*
X86709956Y-98505180D01*
X86701949Y-98502321D01*
X86671655Y-98500107D01*
X86619356Y-98498543D01*
X86545331Y-98497633D01*
X86449863Y-98497380D01*
X86333234Y-98497787D01*
X86213245Y-98498696D01*
X86081133Y-98500018D01*
X85969394Y-98501543D01*
X85875825Y-98503519D01*
X85798219Y-98506194D01*
X85734374Y-98509818D01*
X85682083Y-98514639D01*
X85639144Y-98520906D01*
X85603351Y-98528868D01*
X85572500Y-98538773D01*
X85544386Y-98550869D01*
X85516805Y-98565407D01*
X85491766Y-98580089D01*
X85428667Y-98618086D01*
X85428667Y-97558203D01*
X85428667Y-97255366D01*
X85422417Y-97255399D01*
X85320344Y-97256205D01*
X85231433Y-97257230D01*
X85154741Y-97258500D01*
X85089327Y-97260040D01*
X85034249Y-97261876D01*
X84988565Y-97264033D01*
X84951334Y-97266537D01*
X84921613Y-97269413D01*
X84898462Y-97272687D01*
X84880939Y-97276385D01*
X84868101Y-97280531D01*
X84859008Y-97285153D01*
X84852718Y-97290274D01*
X84848288Y-97295922D01*
X84844778Y-97302121D01*
X84841245Y-97308896D01*
X84837676Y-97314892D01*
X84835100Y-97320125D01*
X84832772Y-97328301D01*
X84830678Y-97340514D01*
X84828807Y-97357859D01*
X84827147Y-97381431D01*
X84825684Y-97412323D01*
X84824408Y-97451632D01*
X84823304Y-97500450D01*
X84822361Y-97559873D01*
X84821567Y-97630996D01*
X84820909Y-97714912D01*
X84820375Y-97812717D01*
X84819953Y-97925506D01*
X84819629Y-98054371D01*
X84819392Y-98200409D01*
X84819230Y-98364714D01*
X84819130Y-98548380D01*
X84819080Y-98752503D01*
X84819067Y-98963647D01*
X84819067Y-100584000D01*
X84915854Y-100584000D01*
G36*
X85375871Y-103858829D02*
X85397045Y-104018970D01*
X85437185Y-104182910D01*
X85496689Y-104352713D01*
X85575954Y-104530443D01*
X85581499Y-104541710D01*
X85609525Y-104599405D01*
X85633602Y-104650952D01*
X85652049Y-104692591D01*
X85663186Y-104720562D01*
X85665733Y-104730133D01*
X85670741Y-104749350D01*
X85674947Y-104753961D01*
X85685380Y-104748858D01*
X85711668Y-104732818D01*
X85751057Y-104707688D01*
X85800791Y-104675314D01*
X85858115Y-104637543D01*
X85920276Y-104596222D01*
X85984518Y-104553198D01*
X86048085Y-104510317D01*
X86108225Y-104469426D01*
X86162180Y-104432371D01*
X86207197Y-104401000D01*
X86240521Y-104377159D01*
X86259397Y-104362694D01*
X86261587Y-104360709D01*
X86256938Y-104350591D01*
X86239762Y-104328250D01*
X86213240Y-104297680D01*
X86198764Y-104281936D01*
X86123482Y-104185447D01*
X86068041Y-104078736D01*
X86032941Y-103963232D01*
X86018680Y-103840362D01*
X86019851Y-103770961D01*
X86037012Y-103649823D01*
X86072894Y-103540605D01*
X86127759Y-103442982D01*
X86201870Y-103356628D01*
X86295488Y-103281215D01*
X86408876Y-103216418D01*
X86495467Y-103179001D01*
X86631166Y-103135148D01*
X86778650Y-103102828D01*
X86934114Y-103081957D01*
X87093756Y-103072451D01*
X87253773Y-103074227D01*
X87410361Y-103087203D01*
X87559718Y-103111294D01*
X87698040Y-103146418D01*
X87821524Y-103192492D01*
X87855778Y-103208773D01*
X87969864Y-103277020D01*
X88066357Y-103357479D01*
X88144470Y-103448970D01*
X88203417Y-103550311D01*
X88242412Y-103660320D01*
X88260668Y-103777815D01*
X88262011Y-103819283D01*
X88251090Y-103940841D01*
X88218274Y-104061278D01*
X88164239Y-104179066D01*
X88089665Y-104292677D01*
X88011339Y-104384085D01*
X87966808Y-104430615D01*
X88264071Y-104611883D01*
X88338233Y-104656980D01*
X88406446Y-104698219D01*
X88466259Y-104734135D01*
X88515220Y-104763266D01*
X88550879Y-104784150D01*
X88570784Y-104795324D01*
X88573879Y-104796775D01*
X88583518Y-104788546D01*
X88600799Y-104762967D01*
X88624083Y-104723273D01*
X88651734Y-104672697D01*
X88682115Y-104614474D01*
X88713590Y-104551837D01*
X88744522Y-104488021D01*
X88773273Y-104426260D01*
X88798208Y-104369788D01*
X88817689Y-104321838D01*
X88826118Y-104298386D01*
X88863933Y-104164621D01*
X88888936Y-104026727D01*
X88901940Y-103879022D01*
X88904268Y-103752233D01*
X88903173Y-103684278D01*
X88901075Y-103618677D01*
X88898234Y-103561247D01*
X88894906Y-103517803D01*
X88893222Y-103503698D01*
X88864387Y-103364684D01*
X88819268Y-103223157D01*
X88760550Y-103085675D01*
X88690920Y-102958794D01*
X88638241Y-102881289D01*
X88530039Y-102753881D01*
X88403471Y-102635578D01*
X88261666Y-102528572D01*
X88107751Y-102435052D01*
X87944853Y-102357210D01*
X87827556Y-102313356D01*
X87643928Y-102263108D01*
X87449381Y-102229609D01*
X87248125Y-102212849D01*
X87044368Y-102212816D01*
X86842321Y-102229501D01*
X86646192Y-102262893D01*
X86460191Y-102312980D01*
X86448603Y-102316797D01*
X86286550Y-102379681D01*
X86138632Y-102456428D01*
X86000665Y-102549642D01*
X85868461Y-102661927D01*
X85823199Y-102705792D01*
X85699257Y-102841934D01*
X85596715Y-102981891D01*
X85514456Y-103127811D01*
X85451364Y-103281842D01*
X85406323Y-103446132D01*
X85388833Y-103541689D01*
X85373266Y-103700423D01*
X85375871Y-103858829D01*
X85375871Y-103858829D01*
G37*
X85375871Y-103858829D02*
X85397045Y-104018970D01*
X85437185Y-104182910D01*
X85496689Y-104352713D01*
X85575954Y-104530443D01*
X85581499Y-104541710D01*
X85609525Y-104599405D01*
X85633602Y-104650952D01*
X85652049Y-104692591D01*
X85663186Y-104720562D01*
X85665733Y-104730133D01*
X85670741Y-104749350D01*
X85674947Y-104753961D01*
X85685380Y-104748858D01*
X85711668Y-104732818D01*
X85751057Y-104707688D01*
X85800791Y-104675314D01*
X85858115Y-104637543D01*
X85920276Y-104596222D01*
X85984518Y-104553198D01*
X86048085Y-104510317D01*
X86108225Y-104469426D01*
X86162180Y-104432371D01*
X86207197Y-104401000D01*
X86240521Y-104377159D01*
X86259397Y-104362694D01*
X86261587Y-104360709D01*
X86256938Y-104350591D01*
X86239762Y-104328250D01*
X86213240Y-104297680D01*
X86198764Y-104281936D01*
X86123482Y-104185447D01*
X86068041Y-104078736D01*
X86032941Y-103963232D01*
X86018680Y-103840362D01*
X86019851Y-103770961D01*
X86037012Y-103649823D01*
X86072894Y-103540605D01*
X86127759Y-103442982D01*
X86201870Y-103356628D01*
X86295488Y-103281215D01*
X86408876Y-103216418D01*
X86495467Y-103179001D01*
X86631166Y-103135148D01*
X86778650Y-103102828D01*
X86934114Y-103081957D01*
X87093756Y-103072451D01*
X87253773Y-103074227D01*
X87410361Y-103087203D01*
X87559718Y-103111294D01*
X87698040Y-103146418D01*
X87821524Y-103192492D01*
X87855778Y-103208773D01*
X87969864Y-103277020D01*
X88066357Y-103357479D01*
X88144470Y-103448970D01*
X88203417Y-103550311D01*
X88242412Y-103660320D01*
X88260668Y-103777815D01*
X88262011Y-103819283D01*
X88251090Y-103940841D01*
X88218274Y-104061278D01*
X88164239Y-104179066D01*
X88089665Y-104292677D01*
X88011339Y-104384085D01*
X87966808Y-104430615D01*
X88264071Y-104611883D01*
X88338233Y-104656980D01*
X88406446Y-104698219D01*
X88466259Y-104734135D01*
X88515220Y-104763266D01*
X88550879Y-104784150D01*
X88570784Y-104795324D01*
X88573879Y-104796775D01*
X88583518Y-104788546D01*
X88600799Y-104762967D01*
X88624083Y-104723273D01*
X88651734Y-104672697D01*
X88682115Y-104614474D01*
X88713590Y-104551837D01*
X88744522Y-104488021D01*
X88773273Y-104426260D01*
X88798208Y-104369788D01*
X88817689Y-104321838D01*
X88826118Y-104298386D01*
X88863933Y-104164621D01*
X88888936Y-104026727D01*
X88901940Y-103879022D01*
X88904268Y-103752233D01*
X88903173Y-103684278D01*
X88901075Y-103618677D01*
X88898234Y-103561247D01*
X88894906Y-103517803D01*
X88893222Y-103503698D01*
X88864387Y-103364684D01*
X88819268Y-103223157D01*
X88760550Y-103085675D01*
X88690920Y-102958794D01*
X88638241Y-102881289D01*
X88530039Y-102753881D01*
X88403471Y-102635578D01*
X88261666Y-102528572D01*
X88107751Y-102435052D01*
X87944853Y-102357210D01*
X87827556Y-102313356D01*
X87643928Y-102263108D01*
X87449381Y-102229609D01*
X87248125Y-102212849D01*
X87044368Y-102212816D01*
X86842321Y-102229501D01*
X86646192Y-102262893D01*
X86460191Y-102312980D01*
X86448603Y-102316797D01*
X86286550Y-102379681D01*
X86138632Y-102456428D01*
X86000665Y-102549642D01*
X85868461Y-102661927D01*
X85823199Y-102705792D01*
X85699257Y-102841934D01*
X85596715Y-102981891D01*
X85514456Y-103127811D01*
X85451364Y-103281842D01*
X85406323Y-103446132D01*
X85388833Y-103541689D01*
X85373266Y-103700423D01*
X85375871Y-103858829D01*
G36*
X86293352Y-106203974D02*
X86313367Y-106355892D01*
X86347002Y-106491156D01*
X86394525Y-106610639D01*
X86456205Y-106715215D01*
X86519765Y-106792824D01*
X86593899Y-106861665D01*
X86673671Y-106915406D01*
X86765891Y-106958310D01*
X86808961Y-106973784D01*
X86847942Y-106986644D01*
X86884089Y-106997846D01*
X86919234Y-107007520D01*
X86955210Y-107015796D01*
X86993850Y-107022803D01*
X87036985Y-107028672D01*
X87086449Y-107033531D01*
X87144073Y-107037510D01*
X87211691Y-107040740D01*
X87291134Y-107043349D01*
X87384236Y-107045467D01*
X87492827Y-107047224D01*
X87618742Y-107048749D01*
X87763812Y-107050172D01*
X87906578Y-107051425D01*
X88062768Y-107052751D01*
X88198039Y-107053956D01*
X88314046Y-107055166D01*
X88412445Y-107056506D01*
X88494893Y-107058100D01*
X88563046Y-107060075D01*
X88618560Y-107062556D01*
X88663092Y-107065669D01*
X88698298Y-107069538D01*
X88725834Y-107074289D01*
X88747356Y-107080048D01*
X88764522Y-107086939D01*
X88778986Y-107095089D01*
X88792406Y-107104623D01*
X88806438Y-107115666D01*
X88811871Y-107119966D01*
X88834710Y-107135786D01*
X88850263Y-107142822D01*
X88850722Y-107142844D01*
X88852921Y-107131967D01*
X88854947Y-107100982D01*
X88856742Y-107052357D01*
X88858251Y-106988563D01*
X88859416Y-106912069D01*
X88860180Y-106825344D01*
X88860486Y-106730857D01*
X88860489Y-106719950D01*
X88860489Y-106297057D01*
X88764422Y-106293795D01*
X88668356Y-106290533D01*
X88719343Y-106228444D01*
X88786857Y-106131114D01*
X88841549Y-106021213D01*
X88871778Y-105934749D01*
X88886466Y-105865678D01*
X88896459Y-105782325D01*
X88901446Y-105692559D01*
X88901113Y-105604245D01*
X88895151Y-105525251D01*
X88889438Y-105489022D01*
X88851576Y-105349003D01*
X88796732Y-105222578D01*
X88725724Y-105110660D01*
X88639368Y-105014162D01*
X88538479Y-104934000D01*
X88423876Y-104871087D01*
X88297784Y-104826712D01*
X88241201Y-104814378D01*
X88179002Y-104806768D01*
X88104163Y-104803139D01*
X88070267Y-104802645D01*
X88067082Y-104802710D01*
X88067082Y-105562648D01*
X88142133Y-105571941D01*
X88205960Y-105600128D01*
X88261598Y-105648597D01*
X88266011Y-105653654D01*
X88300837Y-105701948D01*
X88323420Y-105753657D01*
X88335340Y-105814389D01*
X88338183Y-105889752D01*
X88337778Y-105907859D01*
X88335125Y-105961678D01*
X88329709Y-106001708D01*
X88319545Y-106036724D01*
X88302650Y-106075503D01*
X88297472Y-106086145D01*
X88261644Y-106146796D01*
X88219012Y-106193615D01*
X88203773Y-106206352D01*
X88147262Y-106251022D01*
X87951386Y-106251022D01*
X87872739Y-106250486D01*
X87814788Y-106248796D01*
X87775675Y-106245828D01*
X87753541Y-106241457D01*
X87747074Y-106237372D01*
X87743911Y-106221447D01*
X87741288Y-106187664D01*
X87739455Y-106140740D01*
X87738657Y-106085393D01*
X87738642Y-106076506D01*
X87743896Y-105955730D01*
X87760063Y-105853060D01*
X87787761Y-105766506D01*
X87827608Y-105694081D01*
X87874558Y-105639151D01*
X87932445Y-105594604D01*
X87995493Y-105569880D01*
X88067082Y-105562648D01*
X88067082Y-104802710D01*
X87976512Y-104804578D01*
X87897612Y-104812922D01*
X87826390Y-104829168D01*
X87755664Y-104854805D01*
X87703293Y-104878801D01*
X87607996Y-104937420D01*
X87519970Y-105015517D01*
X87440817Y-105110715D01*
X87372140Y-105220638D01*
X87315541Y-105342910D01*
X87272621Y-105475155D01*
X87257682Y-105539822D01*
X87235577Y-105676004D01*
X87220994Y-105824449D01*
X87214613Y-105975905D01*
X87216245Y-106102464D01*
X87223024Y-106264350D01*
X87164045Y-106256930D01*
X87064892Y-106237638D01*
X86984172Y-106206504D01*
X86921266Y-106162669D01*
X86875556Y-106105271D01*
X86846422Y-106033448D01*
X86833247Y-105946341D01*
X86835411Y-105843086D01*
X86839412Y-105805111D01*
X86864580Y-105663920D01*
X86905614Y-105527107D01*
X86943615Y-105432578D01*
X86962990Y-105387418D01*
X86978560Y-105348985D01*
X86988205Y-105322634D01*
X86990252Y-105314946D01*
X86981174Y-105305202D01*
X86952205Y-105288483D01*
X86903017Y-105264632D01*
X86833284Y-105233493D01*
X86742679Y-105194907D01*
X86726889Y-105188310D01*
X86654572Y-105158253D01*
X86589225Y-105131274D01*
X86533706Y-105108536D01*
X86490872Y-105091206D01*
X86463581Y-105080448D01*
X86454742Y-105077341D01*
X86449987Y-105087340D01*
X86444710Y-105113617D01*
X86441031Y-105141889D01*
X86436274Y-105172046D01*
X86426828Y-105219833D01*
X86413620Y-105281012D01*
X86397576Y-105351346D01*
X86379620Y-105426594D01*
X86372597Y-105455155D01*
X86347009Y-105560216D01*
X86326947Y-105647880D01*
X86311769Y-105722468D01*
X86300835Y-105788303D01*
X86293504Y-105849707D01*
X86289135Y-105911002D01*
X86287087Y-105976510D01*
X86286689Y-106034528D01*
X86293352Y-106203974D01*
X86293352Y-106203974D01*
G37*
X86293352Y-106203974D02*
X86313367Y-106355892D01*
X86347002Y-106491156D01*
X86394525Y-106610639D01*
X86456205Y-106715215D01*
X86519765Y-106792824D01*
X86593899Y-106861665D01*
X86673671Y-106915406D01*
X86765891Y-106958310D01*
X86808961Y-106973784D01*
X86847942Y-106986644D01*
X86884089Y-106997846D01*
X86919234Y-107007520D01*
X86955210Y-107015796D01*
X86993850Y-107022803D01*
X87036985Y-107028672D01*
X87086449Y-107033531D01*
X87144073Y-107037510D01*
X87211691Y-107040740D01*
X87291134Y-107043349D01*
X87384236Y-107045467D01*
X87492827Y-107047224D01*
X87618742Y-107048749D01*
X87763812Y-107050172D01*
X87906578Y-107051425D01*
X88062768Y-107052751D01*
X88198039Y-107053956D01*
X88314046Y-107055166D01*
X88412445Y-107056506D01*
X88494893Y-107058100D01*
X88563046Y-107060075D01*
X88618560Y-107062556D01*
X88663092Y-107065669D01*
X88698298Y-107069538D01*
X88725834Y-107074289D01*
X88747356Y-107080048D01*
X88764522Y-107086939D01*
X88778986Y-107095089D01*
X88792406Y-107104623D01*
X88806438Y-107115666D01*
X88811871Y-107119966D01*
X88834710Y-107135786D01*
X88850263Y-107142822D01*
X88850722Y-107142844D01*
X88852921Y-107131967D01*
X88854947Y-107100982D01*
X88856742Y-107052357D01*
X88858251Y-106988563D01*
X88859416Y-106912069D01*
X88860180Y-106825344D01*
X88860486Y-106730857D01*
X88860489Y-106719950D01*
X88860489Y-106297057D01*
X88764422Y-106293795D01*
X88668356Y-106290533D01*
X88719343Y-106228444D01*
X88786857Y-106131114D01*
X88841549Y-106021213D01*
X88871778Y-105934749D01*
X88886466Y-105865678D01*
X88896459Y-105782325D01*
X88901446Y-105692559D01*
X88901113Y-105604245D01*
X88895151Y-105525251D01*
X88889438Y-105489022D01*
X88851576Y-105349003D01*
X88796732Y-105222578D01*
X88725724Y-105110660D01*
X88639368Y-105014162D01*
X88538479Y-104934000D01*
X88423876Y-104871087D01*
X88297784Y-104826712D01*
X88241201Y-104814378D01*
X88179002Y-104806768D01*
X88104163Y-104803139D01*
X88070267Y-104802645D01*
X88067082Y-104802710D01*
X88067082Y-105562648D01*
X88142133Y-105571941D01*
X88205960Y-105600128D01*
X88261598Y-105648597D01*
X88266011Y-105653654D01*
X88300837Y-105701948D01*
X88323420Y-105753657D01*
X88335340Y-105814389D01*
X88338183Y-105889752D01*
X88337778Y-105907859D01*
X88335125Y-105961678D01*
X88329709Y-106001708D01*
X88319545Y-106036724D01*
X88302650Y-106075503D01*
X88297472Y-106086145D01*
X88261644Y-106146796D01*
X88219012Y-106193615D01*
X88203773Y-106206352D01*
X88147262Y-106251022D01*
X87951386Y-106251022D01*
X87872739Y-106250486D01*
X87814788Y-106248796D01*
X87775675Y-106245828D01*
X87753541Y-106241457D01*
X87747074Y-106237372D01*
X87743911Y-106221447D01*
X87741288Y-106187664D01*
X87739455Y-106140740D01*
X87738657Y-106085393D01*
X87738642Y-106076506D01*
X87743896Y-105955730D01*
X87760063Y-105853060D01*
X87787761Y-105766506D01*
X87827608Y-105694081D01*
X87874558Y-105639151D01*
X87932445Y-105594604D01*
X87995493Y-105569880D01*
X88067082Y-105562648D01*
X88067082Y-104802710D01*
X87976512Y-104804578D01*
X87897612Y-104812922D01*
X87826390Y-104829168D01*
X87755664Y-104854805D01*
X87703293Y-104878801D01*
X87607996Y-104937420D01*
X87519970Y-105015517D01*
X87440817Y-105110715D01*
X87372140Y-105220638D01*
X87315541Y-105342910D01*
X87272621Y-105475155D01*
X87257682Y-105539822D01*
X87235577Y-105676004D01*
X87220994Y-105824449D01*
X87214613Y-105975905D01*
X87216245Y-106102464D01*
X87223024Y-106264350D01*
X87164045Y-106256930D01*
X87064892Y-106237638D01*
X86984172Y-106206504D01*
X86921266Y-106162669D01*
X86875556Y-106105271D01*
X86846422Y-106033448D01*
X86833247Y-105946341D01*
X86835411Y-105843086D01*
X86839412Y-105805111D01*
X86864580Y-105663920D01*
X86905614Y-105527107D01*
X86943615Y-105432578D01*
X86962990Y-105387418D01*
X86978560Y-105348985D01*
X86988205Y-105322634D01*
X86990252Y-105314946D01*
X86981174Y-105305202D01*
X86952205Y-105288483D01*
X86903017Y-105264632D01*
X86833284Y-105233493D01*
X86742679Y-105194907D01*
X86726889Y-105188310D01*
X86654572Y-105158253D01*
X86589225Y-105131274D01*
X86533706Y-105108536D01*
X86490872Y-105091206D01*
X86463581Y-105080448D01*
X86454742Y-105077341D01*
X86449987Y-105087340D01*
X86444710Y-105113617D01*
X86441031Y-105141889D01*
X86436274Y-105172046D01*
X86426828Y-105219833D01*
X86413620Y-105281012D01*
X86397576Y-105351346D01*
X86379620Y-105426594D01*
X86372597Y-105455155D01*
X86347009Y-105560216D01*
X86326947Y-105647880D01*
X86311769Y-105722468D01*
X86300835Y-105788303D01*
X86293504Y-105849707D01*
X86289135Y-105911002D01*
X86287087Y-105976510D01*
X86286689Y-106034528D01*
X86293352Y-106203974D01*
G36*
X86899045Y-109716907D02*
X87133462Y-109716926D01*
X87346403Y-109716952D01*
X87538968Y-109717025D01*
X87712259Y-109717182D01*
X87867376Y-109717464D01*
X88005420Y-109717909D01*
X88127492Y-109718556D01*
X88234694Y-109719445D01*
X88328126Y-109720613D01*
X88408890Y-109722101D01*
X88478086Y-109723946D01*
X88536815Y-109726189D01*
X88586179Y-109728869D01*
X88627278Y-109732023D01*
X88661213Y-109735692D01*
X88689086Y-109739913D01*
X88711998Y-109744727D01*
X88731049Y-109750173D01*
X88747340Y-109756288D01*
X88761973Y-109763112D01*
X88776049Y-109770685D01*
X88790668Y-109779045D01*
X88799774Y-109784239D01*
X88860489Y-109818504D01*
X88860489Y-108960355D01*
X88764533Y-108960355D01*
X88721170Y-108959624D01*
X88688005Y-108957672D01*
X88670224Y-108954863D01*
X88668578Y-108953621D01*
X88675462Y-108942199D01*
X88693305Y-108919484D01*
X88712679Y-108896785D01*
X88753414Y-108842200D01*
X88794417Y-108772721D01*
X88831923Y-108695670D01*
X88862164Y-108618365D01*
X88871812Y-108587513D01*
X88886378Y-108519016D01*
X88896339Y-108436164D01*
X88901383Y-108346771D01*
X88901196Y-108258648D01*
X88895466Y-108179607D01*
X88889658Y-108141911D01*
X88851597Y-108003814D01*
X88793873Y-107876513D01*
X88717011Y-107760692D01*
X88621539Y-107657037D01*
X88507979Y-107566233D01*
X88397181Y-107499431D01*
X88280425Y-107444564D01*
X88161076Y-107402563D01*
X88035083Y-107372567D01*
X87898394Y-107353711D01*
X87746958Y-107345132D01*
X87669511Y-107344406D01*
X87612734Y-107346500D01*
X87612734Y-108175617D01*
X87705802Y-108175824D01*
X87793492Y-108178737D01*
X87870572Y-108184400D01*
X87931809Y-108192855D01*
X87944150Y-108195438D01*
X88051433Y-108227240D01*
X88138458Y-108268898D01*
X88205442Y-108320763D01*
X88252605Y-108383181D01*
X88280165Y-108456500D01*
X88288341Y-108541069D01*
X88277351Y-108637235D01*
X88261629Y-108700711D01*
X88243439Y-108749854D01*
X88217591Y-108803983D01*
X88193889Y-108844644D01*
X88147521Y-108915200D01*
X86997330Y-108915200D01*
X86953762Y-108847792D01*
X86912840Y-108769267D01*
X86886189Y-108685081D01*
X86874265Y-108599957D01*
X86877522Y-108518616D01*
X86896415Y-108445780D01*
X86911984Y-108413826D01*
X86954981Y-108355901D01*
X87011753Y-108306944D01*
X87084375Y-108265790D01*
X87174921Y-108231274D01*
X87285466Y-108202233D01*
X87291333Y-108200952D01*
X87353588Y-108190781D01*
X87431394Y-108183139D01*
X87519520Y-108178070D01*
X87612734Y-108175617D01*
X87612734Y-107346500D01*
X87456695Y-107352257D01*
X87260859Y-107374202D01*
X87082132Y-107410186D01*
X86920645Y-107460159D01*
X86776526Y-107524068D01*
X86649906Y-107601862D01*
X86540915Y-107693489D01*
X86449683Y-107798897D01*
X86418732Y-107844062D01*
X86362585Y-107945011D01*
X86322974Y-108048301D01*
X86298814Y-108158389D01*
X86289019Y-108279730D01*
X86290065Y-108372236D01*
X86301031Y-108501890D01*
X86322846Y-108614484D01*
X86356514Y-108713275D01*
X86403036Y-108801521D01*
X86437248Y-108850386D01*
X86459162Y-108879753D01*
X86474133Y-108901443D01*
X86478533Y-108909653D01*
X86467704Y-108911268D01*
X86437051Y-108912559D01*
X86389326Y-108913538D01*
X86327279Y-108914217D01*
X86253662Y-108914610D01*
X86171227Y-108914730D01*
X86082725Y-108914588D01*
X85990907Y-108914197D01*
X85898524Y-108913571D01*
X85808328Y-108912720D01*
X85723071Y-108911660D01*
X85645503Y-108910401D01*
X85578376Y-108908956D01*
X85524441Y-108907338D01*
X85486450Y-108905561D01*
X85479467Y-108905069D01*
X85409051Y-108897492D01*
X85353902Y-108885931D01*
X85306781Y-108868192D01*
X85260447Y-108842082D01*
X85250867Y-108835815D01*
X85214178Y-108811383D01*
X85214178Y-109716711D01*
X86899045Y-109716907D01*
X86899045Y-109716907D01*
G37*
X86899045Y-109716907D02*
X87133462Y-109716926D01*
X87346403Y-109716952D01*
X87538968Y-109717025D01*
X87712259Y-109717182D01*
X87867376Y-109717464D01*
X88005420Y-109717909D01*
X88127492Y-109718556D01*
X88234694Y-109719445D01*
X88328126Y-109720613D01*
X88408890Y-109722101D01*
X88478086Y-109723946D01*
X88536815Y-109726189D01*
X88586179Y-109728869D01*
X88627278Y-109732023D01*
X88661213Y-109735692D01*
X88689086Y-109739913D01*
X88711998Y-109744727D01*
X88731049Y-109750173D01*
X88747340Y-109756288D01*
X88761973Y-109763112D01*
X88776049Y-109770685D01*
X88790668Y-109779045D01*
X88799774Y-109784239D01*
X88860489Y-109818504D01*
X88860489Y-108960355D01*
X88764533Y-108960355D01*
X88721170Y-108959624D01*
X88688005Y-108957672D01*
X88670224Y-108954863D01*
X88668578Y-108953621D01*
X88675462Y-108942199D01*
X88693305Y-108919484D01*
X88712679Y-108896785D01*
X88753414Y-108842200D01*
X88794417Y-108772721D01*
X88831923Y-108695670D01*
X88862164Y-108618365D01*
X88871812Y-108587513D01*
X88886378Y-108519016D01*
X88896339Y-108436164D01*
X88901383Y-108346771D01*
X88901196Y-108258648D01*
X88895466Y-108179607D01*
X88889658Y-108141911D01*
X88851597Y-108003814D01*
X88793873Y-107876513D01*
X88717011Y-107760692D01*
X88621539Y-107657037D01*
X88507979Y-107566233D01*
X88397181Y-107499431D01*
X88280425Y-107444564D01*
X88161076Y-107402563D01*
X88035083Y-107372567D01*
X87898394Y-107353711D01*
X87746958Y-107345132D01*
X87669511Y-107344406D01*
X87612734Y-107346500D01*
X87612734Y-108175617D01*
X87705802Y-108175824D01*
X87793492Y-108178737D01*
X87870572Y-108184400D01*
X87931809Y-108192855D01*
X87944150Y-108195438D01*
X88051433Y-108227240D01*
X88138458Y-108268898D01*
X88205442Y-108320763D01*
X88252605Y-108383181D01*
X88280165Y-108456500D01*
X88288341Y-108541069D01*
X88277351Y-108637235D01*
X88261629Y-108700711D01*
X88243439Y-108749854D01*
X88217591Y-108803983D01*
X88193889Y-108844644D01*
X88147521Y-108915200D01*
X86997330Y-108915200D01*
X86953762Y-108847792D01*
X86912840Y-108769267D01*
X86886189Y-108685081D01*
X86874265Y-108599957D01*
X86877522Y-108518616D01*
X86896415Y-108445780D01*
X86911984Y-108413826D01*
X86954981Y-108355901D01*
X87011753Y-108306944D01*
X87084375Y-108265790D01*
X87174921Y-108231274D01*
X87285466Y-108202233D01*
X87291333Y-108200952D01*
X87353588Y-108190781D01*
X87431394Y-108183139D01*
X87519520Y-108178070D01*
X87612734Y-108175617D01*
X87612734Y-107346500D01*
X87456695Y-107352257D01*
X87260859Y-107374202D01*
X87082132Y-107410186D01*
X86920645Y-107460159D01*
X86776526Y-107524068D01*
X86649906Y-107601862D01*
X86540915Y-107693489D01*
X86449683Y-107798897D01*
X86418732Y-107844062D01*
X86362585Y-107945011D01*
X86322974Y-108048301D01*
X86298814Y-108158389D01*
X86289019Y-108279730D01*
X86290065Y-108372236D01*
X86301031Y-108501890D01*
X86322846Y-108614484D01*
X86356514Y-108713275D01*
X86403036Y-108801521D01*
X86437248Y-108850386D01*
X86459162Y-108879753D01*
X86474133Y-108901443D01*
X86478533Y-108909653D01*
X86467704Y-108911268D01*
X86437051Y-108912559D01*
X86389326Y-108913538D01*
X86327279Y-108914217D01*
X86253662Y-108914610D01*
X86171227Y-108914730D01*
X86082725Y-108914588D01*
X85990907Y-108914197D01*
X85898524Y-108913571D01*
X85808328Y-108912720D01*
X85723071Y-108911660D01*
X85645503Y-108910401D01*
X85578376Y-108908956D01*
X85524441Y-108907338D01*
X85486450Y-108905561D01*
X85479467Y-108905069D01*
X85409051Y-108897492D01*
X85353902Y-108885931D01*
X85306781Y-108868192D01*
X85260447Y-108842082D01*
X85250867Y-108835815D01*
X85214178Y-108811383D01*
X85214178Y-109716711D01*
X86899045Y-109716907D01*
G36*
X84453371Y-101257357D02*
X84477609Y-101353632D01*
X84520441Y-101440216D01*
X84580219Y-101515027D01*
X84655294Y-101575982D01*
X84744020Y-101621001D01*
X84840330Y-101647264D01*
X84937595Y-101653114D01*
X85031454Y-101638260D01*
X85119311Y-101604560D01*
X85198570Y-101553872D01*
X85266636Y-101488055D01*
X85320912Y-101408966D01*
X85358802Y-101318466D01*
X85371226Y-101267200D01*
X85378747Y-101222702D01*
X85381719Y-101188401D01*
X85379894Y-101155440D01*
X85373025Y-101114966D01*
X85366050Y-101081869D01*
X85334541Y-100988453D01*
X85283417Y-100904781D01*
X85214229Y-100832735D01*
X85128528Y-100774200D01*
X85101289Y-100760252D01*
X85064922Y-100743814D01*
X85034382Y-100733506D01*
X85002250Y-100727940D01*
X84961107Y-100725731D01*
X84915022Y-100725452D01*
X84830665Y-100729539D01*
X84761386Y-100742954D01*
X84700761Y-100768144D01*
X84642367Y-100807554D01*
X84598102Y-100846102D01*
X84532284Y-100917994D01*
X84486853Y-100993087D01*
X84459650Y-101075838D01*
X84449376Y-101153472D01*
X84453371Y-101257357D01*
X84453371Y-101257357D01*
G37*
X84453371Y-101257357D02*
X84477609Y-101353632D01*
X84520441Y-101440216D01*
X84580219Y-101515027D01*
X84655294Y-101575982D01*
X84744020Y-101621001D01*
X84840330Y-101647264D01*
X84937595Y-101653114D01*
X85031454Y-101638260D01*
X85119311Y-101604560D01*
X85198570Y-101553872D01*
X85266636Y-101488055D01*
X85320912Y-101408966D01*
X85358802Y-101318466D01*
X85371226Y-101267200D01*
X85378747Y-101222702D01*
X85381719Y-101188401D01*
X85379894Y-101155440D01*
X85373025Y-101114966D01*
X85366050Y-101081869D01*
X85334541Y-100988453D01*
X85283417Y-100904781D01*
X85214229Y-100832735D01*
X85128528Y-100774200D01*
X85101289Y-100760252D01*
X85064922Y-100743814D01*
X85034382Y-100733506D01*
X85002250Y-100727940D01*
X84961107Y-100725731D01*
X84915022Y-100725452D01*
X84830665Y-100729539D01*
X84761386Y-100742954D01*
X84700761Y-100768144D01*
X84642367Y-100807554D01*
X84598102Y-100846102D01*
X84532284Y-100917994D01*
X84486853Y-100993087D01*
X84459650Y-101075838D01*
X84449376Y-101153472D01*
X84453371Y-101257357D01*
D11*
G36*
X91359967Y-110771521D02*
X91540579Y-110807447D01*
X91841042Y-110931903D01*
X91994581Y-111034495D01*
X92111454Y-111112587D01*
X92341413Y-111342546D01*
X92341415Y-111342549D01*
X92522097Y-111612958D01*
X92646553Y-111913421D01*
X92667702Y-112019744D01*
X92710000Y-112232389D01*
X92710000Y-112557611D01*
X92667702Y-112770256D01*
X92646553Y-112876579D01*
X92573211Y-113053643D01*
X92535352Y-113145043D01*
X92522097Y-113177042D01*
X92403055Y-113355200D01*
X92341413Y-113447454D01*
X92111454Y-113677413D01*
X92111451Y-113677415D01*
X91841042Y-113858097D01*
X91540579Y-113982553D01*
X91434256Y-114003702D01*
X91221611Y-114046000D01*
X90896389Y-114046000D01*
X90683744Y-114003702D01*
X90577421Y-113982553D01*
X90276958Y-113858097D01*
X90006549Y-113677415D01*
X90006546Y-113677413D01*
X89776587Y-113447454D01*
X89714945Y-113355200D01*
X89595903Y-113177042D01*
X89582649Y-113145043D01*
X89544789Y-113053643D01*
X89471447Y-112876579D01*
X89450298Y-112770256D01*
X89408000Y-112557611D01*
X89408000Y-112232389D01*
X89450298Y-112019744D01*
X89471447Y-111913421D01*
X89595903Y-111612958D01*
X89776585Y-111342549D01*
X89776587Y-111342546D01*
X90006546Y-111112587D01*
X90123419Y-111034495D01*
X90276958Y-110931903D01*
X90577421Y-110807447D01*
X90758033Y-110771521D01*
X90896389Y-110744000D01*
X91221611Y-110744000D01*
X91359967Y-110771521D01*
X91359967Y-110771521D01*
G37*
G36*
X65284191Y-111905301D02*
X65369521Y-111913705D01*
X65506372Y-111955219D01*
X65506374Y-111955220D01*
X65506377Y-111955221D01*
X65632496Y-112022632D01*
X65743043Y-112113357D01*
X65833768Y-112223904D01*
X65901179Y-112350023D01*
X65901180Y-112350026D01*
X65901181Y-112350028D01*
X65942695Y-112486879D01*
X65956712Y-112629200D01*
X65942695Y-112771521D01*
X65901237Y-112908186D01*
X65901179Y-112908377D01*
X65833768Y-113034496D01*
X65743043Y-113145043D01*
X65632496Y-113235768D01*
X65506377Y-113303179D01*
X65506374Y-113303180D01*
X65506372Y-113303181D01*
X65369521Y-113344695D01*
X65284191Y-113353099D01*
X65262860Y-113355200D01*
X65191540Y-113355200D01*
X65170209Y-113353099D01*
X65084879Y-113344695D01*
X64948028Y-113303181D01*
X64948026Y-113303180D01*
X64948023Y-113303179D01*
X64821904Y-113235768D01*
X64711357Y-113145043D01*
X64620632Y-113034496D01*
X64553221Y-112908377D01*
X64553163Y-112908186D01*
X64511705Y-112771521D01*
X64497688Y-112629200D01*
X64511705Y-112486879D01*
X64553219Y-112350028D01*
X64553220Y-112350026D01*
X64553221Y-112350023D01*
X64620632Y-112223904D01*
X64711357Y-112113357D01*
X64821904Y-112022632D01*
X64948023Y-111955221D01*
X64948026Y-111955220D01*
X64948028Y-111955219D01*
X65084879Y-111913705D01*
X65170209Y-111905301D01*
X65191540Y-111903200D01*
X65262860Y-111903200D01*
X65284191Y-111905301D01*
X65284191Y-111905301D01*
G37*
G36*
X116696443Y-111373519D02*
X116762627Y-111380037D01*
X116875853Y-111414384D01*
X116932467Y-111431557D01*
X116993950Y-111464421D01*
X117088991Y-111515222D01*
X117124729Y-111544552D01*
X117226186Y-111627814D01*
X117297087Y-111714209D01*
X117338778Y-111765009D01*
X117338779Y-111765011D01*
X117422443Y-111921533D01*
X117422443Y-111921534D01*
X117473963Y-112091373D01*
X117491359Y-112268000D01*
X117473963Y-112444627D01*
X117439690Y-112557609D01*
X117422443Y-112614467D01*
X117348348Y-112753087D01*
X117338778Y-112770991D01*
X117309448Y-112806729D01*
X117226186Y-112908186D01*
X117124729Y-112991448D01*
X117088991Y-113020778D01*
X117088989Y-113020779D01*
X116932467Y-113104443D01*
X116887115Y-113118200D01*
X116762627Y-113155963D01*
X116696442Y-113162482D01*
X116630260Y-113169000D01*
X116541740Y-113169000D01*
X116475558Y-113162482D01*
X116409373Y-113155963D01*
X116284885Y-113118200D01*
X116239533Y-113104443D01*
X116083011Y-113020779D01*
X116083009Y-113020778D01*
X116047271Y-112991448D01*
X115945814Y-112908186D01*
X115862552Y-112806729D01*
X115833222Y-112770991D01*
X115823652Y-112753087D01*
X115749557Y-112614467D01*
X115732310Y-112557609D01*
X115698037Y-112444627D01*
X115680641Y-112268000D01*
X115698037Y-112091373D01*
X115749557Y-111921534D01*
X115749557Y-111921533D01*
X115833221Y-111765011D01*
X115833222Y-111765009D01*
X115874913Y-111714209D01*
X115945814Y-111627814D01*
X116047271Y-111544552D01*
X116083009Y-111515222D01*
X116178050Y-111464421D01*
X116239533Y-111431557D01*
X116296147Y-111414384D01*
X116409373Y-111380037D01*
X116475557Y-111373519D01*
X116541740Y-111367000D01*
X116630260Y-111367000D01*
X116696443Y-111373519D01*
X116696443Y-111373519D01*
G37*
G36*
X111311642Y-111322718D02*
X111377827Y-111329237D01*
X111491053Y-111363584D01*
X111547667Y-111380757D01*
X111686287Y-111454852D01*
X111704191Y-111464422D01*
X111739929Y-111493752D01*
X111841386Y-111577014D01*
X111924648Y-111678471D01*
X111953978Y-111714209D01*
X111953979Y-111714211D01*
X112037643Y-111870733D01*
X112050592Y-111913421D01*
X112089163Y-112040573D01*
X112106559Y-112217200D01*
X112089163Y-112393827D01*
X112073753Y-112444627D01*
X112037643Y-112563667D01*
X112010490Y-112614466D01*
X111953978Y-112720191D01*
X111924648Y-112755929D01*
X111841386Y-112857386D01*
X111779258Y-112908372D01*
X111704191Y-112969978D01*
X111704189Y-112969979D01*
X111547667Y-113053643D01*
X111491053Y-113070816D01*
X111377827Y-113105163D01*
X111311643Y-113111681D01*
X111245460Y-113118200D01*
X111156940Y-113118200D01*
X111090757Y-113111681D01*
X111024573Y-113105163D01*
X110911347Y-113070816D01*
X110854733Y-113053643D01*
X110698211Y-112969979D01*
X110698209Y-112969978D01*
X110623142Y-112908372D01*
X110561014Y-112857386D01*
X110477752Y-112755929D01*
X110448422Y-112720191D01*
X110391910Y-112614466D01*
X110364757Y-112563667D01*
X110328647Y-112444627D01*
X110313237Y-112393827D01*
X110295841Y-112217200D01*
X110313237Y-112040573D01*
X110351808Y-111913421D01*
X110364757Y-111870733D01*
X110448421Y-111714211D01*
X110448422Y-111714209D01*
X110477752Y-111678471D01*
X110561014Y-111577014D01*
X110662471Y-111493752D01*
X110698209Y-111464422D01*
X110716113Y-111454852D01*
X110854733Y-111380757D01*
X110911347Y-111363584D01*
X111024573Y-111329237D01*
X111090758Y-111322718D01*
X111156940Y-111316200D01*
X111245460Y-111316200D01*
X111311642Y-111322718D01*
X111311642Y-111322718D01*
G37*
G36*
X114642200Y-113118200D02*
X112840200Y-113118200D01*
X112840200Y-111316200D01*
X114642200Y-111316200D01*
X114642200Y-113118200D01*
X114642200Y-113118200D01*
G37*
G36*
X77652500Y-111772500D02*
X76550500Y-111772500D01*
X76550500Y-110170500D01*
X77652500Y-110170500D01*
X77652500Y-111772500D01*
X77652500Y-111772500D01*
G37*
G36*
X74452500Y-111772500D02*
X73350500Y-111772500D01*
X73350500Y-110170500D01*
X74452500Y-110170500D01*
X74452500Y-111772500D01*
X74452500Y-111772500D01*
G37*
G36*
X65277328Y-109904625D02*
X65369521Y-109913705D01*
X65506372Y-109955219D01*
X65506374Y-109955220D01*
X65506377Y-109955221D01*
X65632496Y-110022632D01*
X65743043Y-110113357D01*
X65833768Y-110223904D01*
X65901179Y-110350023D01*
X65901180Y-110350026D01*
X65901181Y-110350028D01*
X65942695Y-110486879D01*
X65956712Y-110629200D01*
X65942695Y-110771521D01*
X65901181Y-110908372D01*
X65901179Y-110908377D01*
X65833768Y-111034496D01*
X65743043Y-111145043D01*
X65632496Y-111235768D01*
X65506377Y-111303179D01*
X65506374Y-111303180D01*
X65506372Y-111303181D01*
X65369521Y-111344695D01*
X65284191Y-111353099D01*
X65262860Y-111355200D01*
X65191540Y-111355200D01*
X65170209Y-111353099D01*
X65084879Y-111344695D01*
X64948028Y-111303181D01*
X64948026Y-111303180D01*
X64948023Y-111303179D01*
X64821904Y-111235768D01*
X64711357Y-111145043D01*
X64620632Y-111034496D01*
X64553221Y-110908377D01*
X64553219Y-110908372D01*
X64511705Y-110771521D01*
X64497688Y-110629200D01*
X64511705Y-110486879D01*
X64553219Y-110350028D01*
X64553220Y-110350026D01*
X64553221Y-110350023D01*
X64620632Y-110223904D01*
X64711357Y-110113357D01*
X64821904Y-110022632D01*
X64948023Y-109955221D01*
X64948026Y-109955220D01*
X64948028Y-109955219D01*
X65084879Y-109913705D01*
X65177072Y-109904625D01*
X65191540Y-109903200D01*
X65262860Y-109903200D01*
X65277328Y-109904625D01*
X65277328Y-109904625D01*
G37*
G36*
X116696443Y-108833519D02*
X116762627Y-108840037D01*
X116875853Y-108874384D01*
X116932467Y-108891557D01*
X117062036Y-108960814D01*
X117088991Y-108975222D01*
X117124729Y-109004552D01*
X117226186Y-109087814D01*
X117294566Y-109171137D01*
X117338778Y-109225009D01*
X117338779Y-109225011D01*
X117422443Y-109381533D01*
X117422443Y-109381534D01*
X117473963Y-109551373D01*
X117491359Y-109728000D01*
X117473963Y-109904627D01*
X117439616Y-110017853D01*
X117422443Y-110074467D01*
X117348348Y-110213087D01*
X117338778Y-110230991D01*
X117330411Y-110241186D01*
X117226186Y-110368186D01*
X117124729Y-110451448D01*
X117088991Y-110480778D01*
X117088989Y-110480779D01*
X116932467Y-110564443D01*
X116875853Y-110581616D01*
X116762627Y-110615963D01*
X116696442Y-110622482D01*
X116630260Y-110629000D01*
X116541740Y-110629000D01*
X116475558Y-110622482D01*
X116409373Y-110615963D01*
X116296147Y-110581616D01*
X116239533Y-110564443D01*
X116083011Y-110480779D01*
X116083009Y-110480778D01*
X116047271Y-110451448D01*
X115945814Y-110368186D01*
X115841589Y-110241186D01*
X115833222Y-110230991D01*
X115823652Y-110213087D01*
X115749557Y-110074467D01*
X115732384Y-110017853D01*
X115698037Y-109904627D01*
X115680641Y-109728000D01*
X115698037Y-109551373D01*
X115749557Y-109381534D01*
X115749557Y-109381533D01*
X115833221Y-109225011D01*
X115833222Y-109225009D01*
X115877434Y-109171137D01*
X115945814Y-109087814D01*
X116047271Y-109004552D01*
X116083009Y-108975222D01*
X116109964Y-108960814D01*
X116239533Y-108891557D01*
X116296147Y-108874384D01*
X116409373Y-108840037D01*
X116475557Y-108833519D01*
X116541740Y-108827000D01*
X116630260Y-108827000D01*
X116696443Y-108833519D01*
X116696443Y-108833519D01*
G37*
G36*
X96786000Y-110502000D02*
X94984000Y-110502000D01*
X94984000Y-108700000D01*
X96786000Y-108700000D01*
X96786000Y-110502000D01*
X96786000Y-110502000D01*
G37*
G36*
X98535443Y-108706519D02*
X98601627Y-108713037D01*
X98714853Y-108747384D01*
X98771467Y-108764557D01*
X98888288Y-108827000D01*
X98927991Y-108848222D01*
X98963729Y-108877552D01*
X99065186Y-108960814D01*
X99125654Y-109034496D01*
X99177778Y-109098009D01*
X99177779Y-109098011D01*
X99261443Y-109254533D01*
X99261443Y-109254534D01*
X99312963Y-109424373D01*
X99330359Y-109601000D01*
X99312963Y-109777627D01*
X99278616Y-109890853D01*
X99261443Y-109947467D01*
X99257299Y-109955219D01*
X99177778Y-110103991D01*
X99153730Y-110133293D01*
X99065186Y-110241186D01*
X98963729Y-110324448D01*
X98927991Y-110353778D01*
X98927989Y-110353779D01*
X98771467Y-110437443D01*
X98714853Y-110454616D01*
X98601627Y-110488963D01*
X98535443Y-110495481D01*
X98469260Y-110502000D01*
X98380740Y-110502000D01*
X98314557Y-110495481D01*
X98248373Y-110488963D01*
X98135147Y-110454616D01*
X98078533Y-110437443D01*
X97922011Y-110353779D01*
X97922009Y-110353778D01*
X97886271Y-110324448D01*
X97784814Y-110241186D01*
X97696270Y-110133293D01*
X97672222Y-110103991D01*
X97592701Y-109955219D01*
X97588557Y-109947467D01*
X97571384Y-109890853D01*
X97537037Y-109777627D01*
X97519641Y-109601000D01*
X97537037Y-109424373D01*
X97588557Y-109254534D01*
X97588557Y-109254533D01*
X97672221Y-109098011D01*
X97672222Y-109098009D01*
X97724346Y-109034496D01*
X97784814Y-108960814D01*
X97886271Y-108877552D01*
X97922009Y-108848222D01*
X97961712Y-108827000D01*
X98078533Y-108764557D01*
X98135147Y-108747384D01*
X98248373Y-108713037D01*
X98314557Y-108706519D01*
X98380740Y-108700000D01*
X98469260Y-108700000D01*
X98535443Y-108706519D01*
X98535443Y-108706519D01*
G37*
G36*
X110676293Y-108613323D02*
X110683311Y-108615452D01*
X110697080Y-108622811D01*
X110719719Y-108632187D01*
X110743753Y-108636967D01*
X110768257Y-108636966D01*
X110792290Y-108632184D01*
X110814920Y-108622811D01*
X110828689Y-108615452D01*
X110835707Y-108613323D01*
X110849140Y-108612000D01*
X111162860Y-108612000D01*
X111176293Y-108613323D01*
X111183311Y-108615452D01*
X111197080Y-108622811D01*
X111219719Y-108632187D01*
X111243753Y-108636967D01*
X111268257Y-108636966D01*
X111292290Y-108632184D01*
X111314920Y-108622811D01*
X111328689Y-108615452D01*
X111335707Y-108613323D01*
X111349140Y-108612000D01*
X111662860Y-108612000D01*
X111676293Y-108613323D01*
X111683311Y-108615452D01*
X111697080Y-108622811D01*
X111719719Y-108632187D01*
X111743753Y-108636967D01*
X111768257Y-108636966D01*
X111792290Y-108632184D01*
X111814920Y-108622811D01*
X111828689Y-108615452D01*
X111835707Y-108613323D01*
X111849140Y-108612000D01*
X112162860Y-108612000D01*
X112176293Y-108613323D01*
X112183311Y-108615452D01*
X112197080Y-108622811D01*
X112219719Y-108632187D01*
X112243753Y-108636967D01*
X112268257Y-108636966D01*
X112292290Y-108632184D01*
X112314920Y-108622811D01*
X112328689Y-108615452D01*
X112335707Y-108613323D01*
X112349140Y-108612000D01*
X112662860Y-108612000D01*
X112676293Y-108613323D01*
X112683312Y-108615452D01*
X112689775Y-108618907D01*
X112695442Y-108623558D01*
X112700093Y-108629225D01*
X112703548Y-108635688D01*
X112705677Y-108642707D01*
X112707000Y-108656140D01*
X112707000Y-110119860D01*
X112705677Y-110133293D01*
X112703548Y-110140312D01*
X112700093Y-110146775D01*
X112695442Y-110152442D01*
X112689775Y-110157093D01*
X112683312Y-110160548D01*
X112676293Y-110162677D01*
X112662860Y-110164000D01*
X112349140Y-110164000D01*
X112335707Y-110162677D01*
X112328689Y-110160548D01*
X112314920Y-110153189D01*
X112292281Y-110143813D01*
X112268247Y-110139033D01*
X112243743Y-110139034D01*
X112219710Y-110143816D01*
X112197080Y-110153189D01*
X112183311Y-110160548D01*
X112176293Y-110162677D01*
X112162860Y-110164000D01*
X111849140Y-110164000D01*
X111835707Y-110162677D01*
X111828689Y-110160548D01*
X111814920Y-110153189D01*
X111792281Y-110143813D01*
X111768247Y-110139033D01*
X111743743Y-110139034D01*
X111719710Y-110143816D01*
X111697080Y-110153189D01*
X111683311Y-110160548D01*
X111676293Y-110162677D01*
X111662860Y-110164000D01*
X111349140Y-110164000D01*
X111335707Y-110162677D01*
X111328689Y-110160548D01*
X111314920Y-110153189D01*
X111292281Y-110143813D01*
X111268247Y-110139033D01*
X111243743Y-110139034D01*
X111219710Y-110143816D01*
X111197080Y-110153189D01*
X111183311Y-110160548D01*
X111176293Y-110162677D01*
X111162860Y-110164000D01*
X110849140Y-110164000D01*
X110835707Y-110162677D01*
X110828689Y-110160548D01*
X110814920Y-110153189D01*
X110792281Y-110143813D01*
X110768247Y-110139033D01*
X110743743Y-110139034D01*
X110719710Y-110143816D01*
X110697080Y-110153189D01*
X110683311Y-110160548D01*
X110676293Y-110162677D01*
X110662860Y-110164000D01*
X110349140Y-110164000D01*
X110335707Y-110162677D01*
X110328688Y-110160548D01*
X110322225Y-110157093D01*
X110316558Y-110152442D01*
X110311907Y-110146775D01*
X110308452Y-110140312D01*
X110306323Y-110133293D01*
X110305000Y-110119860D01*
X110305000Y-108656140D01*
X110306323Y-108642707D01*
X110308452Y-108635688D01*
X110311907Y-108629225D01*
X110316558Y-108623558D01*
X110322225Y-108618907D01*
X110328688Y-108615452D01*
X110335707Y-108613323D01*
X110349140Y-108612000D01*
X110662860Y-108612000D01*
X110676293Y-108613323D01*
X110676293Y-108613323D01*
G37*
G36*
X65284191Y-107905301D02*
X65369521Y-107913705D01*
X65506372Y-107955219D01*
X65506374Y-107955220D01*
X65506377Y-107955221D01*
X65632496Y-108022632D01*
X65743043Y-108113357D01*
X65833768Y-108223904D01*
X65901179Y-108350023D01*
X65901180Y-108350026D01*
X65901181Y-108350028D01*
X65942695Y-108486879D01*
X65956712Y-108629200D01*
X65942695Y-108771521D01*
X65901181Y-108908372D01*
X65901179Y-108908377D01*
X65833768Y-109034496D01*
X65743043Y-109145043D01*
X65632496Y-109235768D01*
X65506377Y-109303179D01*
X65506374Y-109303180D01*
X65506372Y-109303181D01*
X65369521Y-109344695D01*
X65284191Y-109353099D01*
X65262860Y-109355200D01*
X65191540Y-109355200D01*
X65170209Y-109353099D01*
X65084879Y-109344695D01*
X64948028Y-109303181D01*
X64948026Y-109303180D01*
X64948023Y-109303179D01*
X64821904Y-109235768D01*
X64711357Y-109145043D01*
X64620632Y-109034496D01*
X64553221Y-108908377D01*
X64553219Y-108908372D01*
X64511705Y-108771521D01*
X64497688Y-108629200D01*
X64511705Y-108486879D01*
X64553219Y-108350028D01*
X64553220Y-108350026D01*
X64553221Y-108350023D01*
X64620632Y-108223904D01*
X64711357Y-108113357D01*
X64821904Y-108022632D01*
X64948023Y-107955221D01*
X64948026Y-107955220D01*
X64948028Y-107955219D01*
X65084879Y-107913705D01*
X65170209Y-107905301D01*
X65191540Y-107903200D01*
X65262860Y-107903200D01*
X65284191Y-107905301D01*
X65284191Y-107905301D01*
G37*
G36*
X67976591Y-107905301D02*
X68061921Y-107913705D01*
X68198772Y-107955219D01*
X68198774Y-107955220D01*
X68198777Y-107955221D01*
X68324896Y-108022632D01*
X68435443Y-108113357D01*
X68526168Y-108223904D01*
X68593579Y-108350023D01*
X68593580Y-108350026D01*
X68593581Y-108350028D01*
X68635095Y-108486879D01*
X68649112Y-108629200D01*
X68635095Y-108771521D01*
X68593581Y-108908372D01*
X68593579Y-108908377D01*
X68526168Y-109034496D01*
X68435443Y-109145043D01*
X68324896Y-109235768D01*
X68198777Y-109303179D01*
X68198774Y-109303180D01*
X68198772Y-109303181D01*
X68061921Y-109344695D01*
X67976591Y-109353099D01*
X67955260Y-109355200D01*
X67883940Y-109355200D01*
X67862609Y-109353099D01*
X67777279Y-109344695D01*
X67640428Y-109303181D01*
X67640426Y-109303180D01*
X67640423Y-109303179D01*
X67514304Y-109235768D01*
X67403757Y-109145043D01*
X67313032Y-109034496D01*
X67245621Y-108908377D01*
X67245619Y-108908372D01*
X67204105Y-108771521D01*
X67190088Y-108629200D01*
X67204105Y-108486879D01*
X67245619Y-108350028D01*
X67245620Y-108350026D01*
X67245621Y-108350023D01*
X67313032Y-108223904D01*
X67403757Y-108113357D01*
X67514304Y-108022632D01*
X67640423Y-107955221D01*
X67640426Y-107955220D01*
X67640428Y-107955219D01*
X67777279Y-107913705D01*
X67862609Y-107905301D01*
X67883940Y-107903200D01*
X67955260Y-107903200D01*
X67976591Y-107905301D01*
X67976591Y-107905301D01*
G37*
G36*
X92859058Y-108226565D02*
X92897729Y-108238296D01*
X92933371Y-108257348D01*
X92964609Y-108282983D01*
X92990244Y-108314221D01*
X93009296Y-108349863D01*
X93021027Y-108388534D01*
X93025592Y-108434888D01*
X93025592Y-109086112D01*
X93021027Y-109132466D01*
X93009296Y-109171137D01*
X92990244Y-109206779D01*
X92964609Y-109238017D01*
X92933371Y-109263652D01*
X92897729Y-109282704D01*
X92859058Y-109294435D01*
X92812704Y-109299000D01*
X91736480Y-109299000D01*
X91690126Y-109294435D01*
X91651455Y-109282704D01*
X91615813Y-109263652D01*
X91584575Y-109238017D01*
X91558940Y-109206779D01*
X91539888Y-109171137D01*
X91528157Y-109132466D01*
X91523592Y-109086112D01*
X91523592Y-108434888D01*
X91528157Y-108388534D01*
X91539888Y-108349863D01*
X91558940Y-108314221D01*
X91584575Y-108282983D01*
X91615813Y-108257348D01*
X91651455Y-108238296D01*
X91690126Y-108226565D01*
X91736480Y-108222000D01*
X92812704Y-108222000D01*
X92859058Y-108226565D01*
X92859058Y-108226565D01*
G37*
G36*
X106587242Y-106750718D02*
X106653427Y-106757237D01*
X106766653Y-106791584D01*
X106823267Y-106808757D01*
X106919299Y-106860088D01*
X106979791Y-106892422D01*
X107001479Y-106910221D01*
X107116986Y-107005014D01*
X107200248Y-107106471D01*
X107229578Y-107142209D01*
X107229579Y-107142211D01*
X107313243Y-107298733D01*
X107313243Y-107298734D01*
X107364763Y-107468573D01*
X107382159Y-107645200D01*
X107364763Y-107821827D01*
X107340079Y-107903200D01*
X107313243Y-107991667D01*
X107253585Y-108103278D01*
X107229578Y-108148191D01*
X107200248Y-108183929D01*
X107116986Y-108285386D01*
X107048411Y-108341663D01*
X106979791Y-108397978D01*
X106979789Y-108397979D01*
X106823267Y-108481643D01*
X106791596Y-108491250D01*
X106653427Y-108533163D01*
X106587243Y-108539681D01*
X106521060Y-108546200D01*
X106432540Y-108546200D01*
X106366357Y-108539681D01*
X106300173Y-108533163D01*
X106162004Y-108491250D01*
X106130333Y-108481643D01*
X105973811Y-108397979D01*
X105973809Y-108397978D01*
X105905189Y-108341663D01*
X105836614Y-108285386D01*
X105753352Y-108183929D01*
X105724022Y-108148191D01*
X105700015Y-108103278D01*
X105640357Y-107991667D01*
X105613521Y-107903200D01*
X105588837Y-107821827D01*
X105571441Y-107645200D01*
X105588837Y-107468573D01*
X105640357Y-107298734D01*
X105640357Y-107298733D01*
X105724021Y-107142211D01*
X105724022Y-107142209D01*
X105753352Y-107106471D01*
X105836614Y-107005014D01*
X105952121Y-106910221D01*
X105973809Y-106892422D01*
X106034301Y-106860088D01*
X106130333Y-106808757D01*
X106186947Y-106791584D01*
X106300173Y-106757237D01*
X106366358Y-106750718D01*
X106432540Y-106744200D01*
X106521060Y-106744200D01*
X106587242Y-106750718D01*
X106587242Y-106750718D01*
G37*
G36*
X104837800Y-108546200D02*
X103035800Y-108546200D01*
X103035800Y-106744200D01*
X104837800Y-106744200D01*
X104837800Y-108546200D01*
X104837800Y-108546200D01*
G37*
G36*
X102401466Y-106822565D02*
X102440137Y-106834296D01*
X102475779Y-106853348D01*
X102507017Y-106878983D01*
X102532652Y-106910221D01*
X102551704Y-106945863D01*
X102563435Y-106984534D01*
X102568000Y-107030888D01*
X102568000Y-108107112D01*
X102563435Y-108153466D01*
X102551704Y-108192137D01*
X102532652Y-108227779D01*
X102507017Y-108259017D01*
X102475779Y-108284652D01*
X102440137Y-108303704D01*
X102401466Y-108315435D01*
X102355112Y-108320000D01*
X101703888Y-108320000D01*
X101657534Y-108315435D01*
X101618863Y-108303704D01*
X101583221Y-108284652D01*
X101551983Y-108259017D01*
X101526348Y-108227779D01*
X101507296Y-108192137D01*
X101495565Y-108153466D01*
X101491000Y-108107112D01*
X101491000Y-107030888D01*
X101495565Y-106984534D01*
X101507296Y-106945863D01*
X101526348Y-106910221D01*
X101551983Y-106878983D01*
X101583221Y-106853348D01*
X101618863Y-106834296D01*
X101657534Y-106822565D01*
X101703888Y-106818000D01*
X102355112Y-106818000D01*
X102401466Y-106822565D01*
X102401466Y-106822565D01*
G37*
G36*
X100526466Y-106822565D02*
X100565137Y-106834296D01*
X100600779Y-106853348D01*
X100632017Y-106878983D01*
X100657652Y-106910221D01*
X100676704Y-106945863D01*
X100688435Y-106984534D01*
X100693000Y-107030888D01*
X100693000Y-108107112D01*
X100688435Y-108153466D01*
X100676704Y-108192137D01*
X100657652Y-108227779D01*
X100632017Y-108259017D01*
X100600779Y-108284652D01*
X100565137Y-108303704D01*
X100526466Y-108315435D01*
X100480112Y-108320000D01*
X99828888Y-108320000D01*
X99782534Y-108315435D01*
X99743863Y-108303704D01*
X99708221Y-108284652D01*
X99676983Y-108259017D01*
X99651348Y-108227779D01*
X99632296Y-108192137D01*
X99620565Y-108153466D01*
X99616000Y-108107112D01*
X99616000Y-107030888D01*
X99620565Y-106984534D01*
X99632296Y-106945863D01*
X99651348Y-106910221D01*
X99676983Y-106878983D01*
X99708221Y-106853348D01*
X99743863Y-106834296D01*
X99782534Y-106822565D01*
X99828888Y-106818000D01*
X100480112Y-106818000D01*
X100526466Y-106822565D01*
X100526466Y-106822565D01*
G37*
G36*
X98919591Y-107047085D02*
X98953569Y-107057393D01*
X98984887Y-107074133D01*
X99012339Y-107096661D01*
X99034867Y-107124113D01*
X99051607Y-107155431D01*
X99061915Y-107189409D01*
X99066000Y-107230890D01*
X99066000Y-107907110D01*
X99061915Y-107948591D01*
X99051607Y-107982569D01*
X99034867Y-108013887D01*
X99012339Y-108041339D01*
X98984887Y-108063867D01*
X98953569Y-108080607D01*
X98919591Y-108090915D01*
X98878110Y-108095000D01*
X98276890Y-108095000D01*
X98235409Y-108090915D01*
X98201431Y-108080607D01*
X98170113Y-108063867D01*
X98142661Y-108041339D01*
X98120133Y-108013887D01*
X98103393Y-107982569D01*
X98093085Y-107948591D01*
X98089000Y-107907110D01*
X98089000Y-107230890D01*
X98093085Y-107189409D01*
X98103393Y-107155431D01*
X98120133Y-107124113D01*
X98142661Y-107096661D01*
X98170113Y-107074133D01*
X98201431Y-107057393D01*
X98235409Y-107047085D01*
X98276890Y-107043000D01*
X98878110Y-107043000D01*
X98919591Y-107047085D01*
X98919591Y-107047085D01*
G37*
G36*
X97344591Y-107047085D02*
X97378569Y-107057393D01*
X97409887Y-107074133D01*
X97437339Y-107096661D01*
X97459867Y-107124113D01*
X97476607Y-107155431D01*
X97486915Y-107189409D01*
X97491000Y-107230890D01*
X97491000Y-107907110D01*
X97486915Y-107948591D01*
X97476607Y-107982569D01*
X97459867Y-108013887D01*
X97437339Y-108041339D01*
X97409887Y-108063867D01*
X97378569Y-108080607D01*
X97344591Y-108090915D01*
X97303110Y-108095000D01*
X96701890Y-108095000D01*
X96660409Y-108090915D01*
X96626431Y-108080607D01*
X96595113Y-108063867D01*
X96567661Y-108041339D01*
X96545133Y-108013887D01*
X96528393Y-107982569D01*
X96518085Y-107948591D01*
X96514000Y-107907110D01*
X96514000Y-107230890D01*
X96518085Y-107189409D01*
X96528393Y-107155431D01*
X96545133Y-107124113D01*
X96567661Y-107096661D01*
X96595113Y-107074133D01*
X96626431Y-107057393D01*
X96660409Y-107047085D01*
X96701890Y-107043000D01*
X97303110Y-107043000D01*
X97344591Y-107047085D01*
X97344591Y-107047085D01*
G37*
G36*
X116696442Y-106293518D02*
X116762627Y-106300037D01*
X116875853Y-106334384D01*
X116932467Y-106351557D01*
X117038031Y-106407983D01*
X117088991Y-106435222D01*
X117124729Y-106464552D01*
X117226186Y-106547814D01*
X117282349Y-106616250D01*
X117338778Y-106685009D01*
X117338779Y-106685011D01*
X117422443Y-106841533D01*
X117433803Y-106878983D01*
X117473963Y-107011373D01*
X117491359Y-107188000D01*
X117473963Y-107364627D01*
X117457522Y-107418826D01*
X117422443Y-107534467D01*
X117389372Y-107596337D01*
X117338778Y-107690991D01*
X117315770Y-107719026D01*
X117226186Y-107828186D01*
X117134780Y-107903200D01*
X117088991Y-107940778D01*
X117074374Y-107948591D01*
X116932467Y-108024443D01*
X116876767Y-108041339D01*
X116762627Y-108075963D01*
X116696442Y-108082482D01*
X116630260Y-108089000D01*
X116541740Y-108089000D01*
X116475558Y-108082482D01*
X116409373Y-108075963D01*
X116295233Y-108041339D01*
X116239533Y-108024443D01*
X116097626Y-107948591D01*
X116083009Y-107940778D01*
X116037220Y-107903200D01*
X115945814Y-107828186D01*
X115856230Y-107719026D01*
X115833222Y-107690991D01*
X115782628Y-107596337D01*
X115749557Y-107534467D01*
X115714478Y-107418826D01*
X115698037Y-107364627D01*
X115680641Y-107188000D01*
X115698037Y-107011373D01*
X115738197Y-106878983D01*
X115749557Y-106841533D01*
X115833221Y-106685011D01*
X115833222Y-106685009D01*
X115889651Y-106616250D01*
X115945814Y-106547814D01*
X116047271Y-106464552D01*
X116083009Y-106435222D01*
X116133969Y-106407983D01*
X116239533Y-106351557D01*
X116296147Y-106334384D01*
X116409373Y-106300037D01*
X116475558Y-106293518D01*
X116541740Y-106287000D01*
X116630260Y-106287000D01*
X116696442Y-106293518D01*
X116696442Y-106293518D01*
G37*
G36*
X84125066Y-106651765D02*
X84163737Y-106663496D01*
X84199379Y-106682548D01*
X84230617Y-106708183D01*
X84256252Y-106739421D01*
X84275304Y-106775063D01*
X84287035Y-106813734D01*
X84291600Y-106860088D01*
X84291600Y-107511312D01*
X84287035Y-107557666D01*
X84275304Y-107596337D01*
X84256252Y-107631979D01*
X84230617Y-107663217D01*
X84199379Y-107688852D01*
X84163737Y-107707904D01*
X84125066Y-107719635D01*
X84078712Y-107724200D01*
X83002488Y-107724200D01*
X82956134Y-107719635D01*
X82917463Y-107707904D01*
X82881821Y-107688852D01*
X82850583Y-107663217D01*
X82824948Y-107631979D01*
X82805896Y-107596337D01*
X82794165Y-107557666D01*
X82789600Y-107511312D01*
X82789600Y-106860088D01*
X82794165Y-106813734D01*
X82805896Y-106775063D01*
X82824948Y-106739421D01*
X82850583Y-106708183D01*
X82881821Y-106682548D01*
X82917463Y-106663496D01*
X82956134Y-106651765D01*
X83002488Y-106647200D01*
X84078712Y-106647200D01*
X84125066Y-106651765D01*
X84125066Y-106651765D01*
G37*
G36*
X92859058Y-106351565D02*
X92897729Y-106363296D01*
X92933371Y-106382348D01*
X92964609Y-106407983D01*
X92990244Y-106439221D01*
X93009296Y-106474863D01*
X93021027Y-106513534D01*
X93025592Y-106559888D01*
X93025592Y-107211112D01*
X93021027Y-107257466D01*
X93009296Y-107296137D01*
X92990244Y-107331779D01*
X92964609Y-107363017D01*
X92933371Y-107388652D01*
X92897729Y-107407704D01*
X92859058Y-107419435D01*
X92812704Y-107424000D01*
X91736480Y-107424000D01*
X91690126Y-107419435D01*
X91651455Y-107407704D01*
X91615813Y-107388652D01*
X91584575Y-107363017D01*
X91558940Y-107331779D01*
X91539888Y-107296137D01*
X91528157Y-107257466D01*
X91523592Y-107211112D01*
X91523592Y-106559888D01*
X91528157Y-106513534D01*
X91539888Y-106474863D01*
X91558940Y-106439221D01*
X91584575Y-106407983D01*
X91615813Y-106382348D01*
X91651455Y-106363296D01*
X91690126Y-106351565D01*
X91736480Y-106347000D01*
X92812704Y-106347000D01*
X92859058Y-106351565D01*
X92859058Y-106351565D01*
G37*
G36*
X65953200Y-107355200D02*
X64501200Y-107355200D01*
X64501200Y-105903200D01*
X65953200Y-105903200D01*
X65953200Y-107355200D01*
X65953200Y-107355200D01*
G37*
G36*
X68645600Y-107355200D02*
X67193600Y-107355200D01*
X67193600Y-105903200D01*
X68645600Y-105903200D01*
X68645600Y-107355200D01*
X68645600Y-107355200D01*
G37*
G36*
X77652500Y-106872500D02*
X76550500Y-106872500D01*
X76550500Y-105270500D01*
X77652500Y-105270500D01*
X77652500Y-106872500D01*
X77652500Y-106872500D01*
G37*
G36*
X74452500Y-106872500D02*
X73350500Y-106872500D01*
X73350500Y-105270500D01*
X74452500Y-105270500D01*
X74452500Y-106872500D01*
X74452500Y-106872500D01*
G37*
G36*
X103417466Y-104790565D02*
X103456137Y-104802296D01*
X103491779Y-104821348D01*
X103523017Y-104846983D01*
X103548652Y-104878221D01*
X103567704Y-104913863D01*
X103579435Y-104952534D01*
X103584000Y-104998888D01*
X103584000Y-106075112D01*
X103579435Y-106121466D01*
X103567704Y-106160137D01*
X103548652Y-106195779D01*
X103523017Y-106227017D01*
X103491779Y-106252652D01*
X103456137Y-106271704D01*
X103417466Y-106283435D01*
X103371112Y-106288000D01*
X102719888Y-106288000D01*
X102673534Y-106283435D01*
X102634863Y-106271704D01*
X102599221Y-106252652D01*
X102567983Y-106227017D01*
X102542348Y-106195779D01*
X102523296Y-106160137D01*
X102511565Y-106121466D01*
X102507000Y-106075112D01*
X102507000Y-104998888D01*
X102511565Y-104952534D01*
X102523296Y-104913863D01*
X102542348Y-104878221D01*
X102567983Y-104846983D01*
X102599221Y-104821348D01*
X102634863Y-104802296D01*
X102673534Y-104790565D01*
X102719888Y-104786000D01*
X103371112Y-104786000D01*
X103417466Y-104790565D01*
X103417466Y-104790565D01*
G37*
G36*
X101542466Y-104790565D02*
X101581137Y-104802296D01*
X101616779Y-104821348D01*
X101648017Y-104846983D01*
X101673652Y-104878221D01*
X101692704Y-104913863D01*
X101704435Y-104952534D01*
X101709000Y-104998888D01*
X101709000Y-106075112D01*
X101704435Y-106121466D01*
X101692704Y-106160137D01*
X101673652Y-106195779D01*
X101648017Y-106227017D01*
X101616779Y-106252652D01*
X101581137Y-106271704D01*
X101542466Y-106283435D01*
X101496112Y-106288000D01*
X100844888Y-106288000D01*
X100798534Y-106283435D01*
X100759863Y-106271704D01*
X100724221Y-106252652D01*
X100692983Y-106227017D01*
X100667348Y-106195779D01*
X100648296Y-106160137D01*
X100636565Y-106121466D01*
X100632000Y-106075112D01*
X100632000Y-104998888D01*
X100636565Y-104952534D01*
X100648296Y-104913863D01*
X100667348Y-104878221D01*
X100692983Y-104846983D01*
X100724221Y-104821348D01*
X100759863Y-104802296D01*
X100798534Y-104790565D01*
X100844888Y-104786000D01*
X101496112Y-104786000D01*
X101542466Y-104790565D01*
X101542466Y-104790565D01*
G37*
G36*
X99191000Y-106276000D02*
X98289000Y-106276000D01*
X98289000Y-105274000D01*
X99191000Y-105274000D01*
X99191000Y-106276000D01*
X99191000Y-106276000D01*
G37*
G36*
X97291000Y-106276000D02*
X96389000Y-106276000D01*
X96389000Y-105274000D01*
X97291000Y-105274000D01*
X97291000Y-106276000D01*
X97291000Y-106276000D01*
G37*
G36*
X92849966Y-104924565D02*
X92888637Y-104936296D01*
X92924279Y-104955348D01*
X92955517Y-104980983D01*
X92981152Y-105012221D01*
X93000204Y-105047863D01*
X93011935Y-105086534D01*
X93016500Y-105132888D01*
X93016500Y-105784112D01*
X93011935Y-105830466D01*
X93000204Y-105869137D01*
X92981152Y-105904779D01*
X92955517Y-105936017D01*
X92924279Y-105961652D01*
X92888637Y-105980704D01*
X92849966Y-105992435D01*
X92803612Y-105997000D01*
X91727388Y-105997000D01*
X91681034Y-105992435D01*
X91642363Y-105980704D01*
X91606721Y-105961652D01*
X91575483Y-105936017D01*
X91549848Y-105904779D01*
X91530796Y-105869137D01*
X91519065Y-105830466D01*
X91514500Y-105784112D01*
X91514500Y-105132888D01*
X91519065Y-105086534D01*
X91530796Y-105047863D01*
X91549848Y-105012221D01*
X91575483Y-104980983D01*
X91606721Y-104955348D01*
X91642363Y-104936296D01*
X91681034Y-104924565D01*
X91727388Y-104920000D01*
X92803612Y-104920000D01*
X92849966Y-104924565D01*
X92849966Y-104924565D01*
G37*
G36*
X84125066Y-104776765D02*
X84163737Y-104788496D01*
X84199379Y-104807548D01*
X84230617Y-104833183D01*
X84256252Y-104864421D01*
X84275304Y-104900063D01*
X84287035Y-104938734D01*
X84291600Y-104985088D01*
X84291600Y-105636312D01*
X84287035Y-105682666D01*
X84275304Y-105721337D01*
X84256252Y-105756979D01*
X84230617Y-105788217D01*
X84199379Y-105813852D01*
X84163737Y-105832904D01*
X84125066Y-105844635D01*
X84078712Y-105849200D01*
X83002488Y-105849200D01*
X82956134Y-105844635D01*
X82917463Y-105832904D01*
X82881821Y-105813852D01*
X82850583Y-105788217D01*
X82824948Y-105756979D01*
X82805896Y-105721337D01*
X82794165Y-105682666D01*
X82789600Y-105636312D01*
X82789600Y-104985088D01*
X82794165Y-104938734D01*
X82805896Y-104900063D01*
X82824948Y-104864421D01*
X82850583Y-104833183D01*
X82881821Y-104807548D01*
X82917463Y-104788496D01*
X82956134Y-104776765D01*
X83002488Y-104772200D01*
X84078712Y-104772200D01*
X84125066Y-104776765D01*
X84125066Y-104776765D01*
G37*
G36*
X110676293Y-104213323D02*
X110683311Y-104215452D01*
X110697080Y-104222811D01*
X110719719Y-104232187D01*
X110743753Y-104236967D01*
X110768257Y-104236966D01*
X110792290Y-104232184D01*
X110814920Y-104222811D01*
X110828689Y-104215452D01*
X110835707Y-104213323D01*
X110849140Y-104212000D01*
X111162860Y-104212000D01*
X111176293Y-104213323D01*
X111183311Y-104215452D01*
X111197080Y-104222811D01*
X111219719Y-104232187D01*
X111243753Y-104236967D01*
X111268257Y-104236966D01*
X111292290Y-104232184D01*
X111314920Y-104222811D01*
X111328689Y-104215452D01*
X111335707Y-104213323D01*
X111349140Y-104212000D01*
X111662860Y-104212000D01*
X111676293Y-104213323D01*
X111683311Y-104215452D01*
X111697080Y-104222811D01*
X111719719Y-104232187D01*
X111743753Y-104236967D01*
X111768257Y-104236966D01*
X111792290Y-104232184D01*
X111814920Y-104222811D01*
X111828689Y-104215452D01*
X111835707Y-104213323D01*
X111849140Y-104212000D01*
X112162860Y-104212000D01*
X112176293Y-104213323D01*
X112183311Y-104215452D01*
X112197080Y-104222811D01*
X112219719Y-104232187D01*
X112243753Y-104236967D01*
X112268257Y-104236966D01*
X112292290Y-104232184D01*
X112314920Y-104222811D01*
X112328689Y-104215452D01*
X112335707Y-104213323D01*
X112349140Y-104212000D01*
X112662860Y-104212000D01*
X112676293Y-104213323D01*
X112683312Y-104215452D01*
X112689775Y-104218907D01*
X112695442Y-104223558D01*
X112700093Y-104229225D01*
X112703548Y-104235688D01*
X112705677Y-104242707D01*
X112707000Y-104256140D01*
X112707000Y-105719860D01*
X112705677Y-105733293D01*
X112703548Y-105740312D01*
X112700093Y-105746775D01*
X112695442Y-105752442D01*
X112689775Y-105757093D01*
X112683312Y-105760548D01*
X112676293Y-105762677D01*
X112662860Y-105764000D01*
X112349140Y-105764000D01*
X112335707Y-105762677D01*
X112328689Y-105760548D01*
X112314920Y-105753189D01*
X112292281Y-105743813D01*
X112268247Y-105739033D01*
X112243743Y-105739034D01*
X112219710Y-105743816D01*
X112197080Y-105753189D01*
X112183311Y-105760548D01*
X112176293Y-105762677D01*
X112162860Y-105764000D01*
X111849140Y-105764000D01*
X111835707Y-105762677D01*
X111828689Y-105760548D01*
X111814920Y-105753189D01*
X111792281Y-105743813D01*
X111768247Y-105739033D01*
X111743743Y-105739034D01*
X111719710Y-105743816D01*
X111697080Y-105753189D01*
X111683311Y-105760548D01*
X111676293Y-105762677D01*
X111662860Y-105764000D01*
X111349140Y-105764000D01*
X111335707Y-105762677D01*
X111328689Y-105760548D01*
X111314920Y-105753189D01*
X111292281Y-105743813D01*
X111268247Y-105739033D01*
X111243743Y-105739034D01*
X111219710Y-105743816D01*
X111197080Y-105753189D01*
X111183311Y-105760548D01*
X111176293Y-105762677D01*
X111162860Y-105764000D01*
X110849140Y-105764000D01*
X110835707Y-105762677D01*
X110828689Y-105760548D01*
X110814920Y-105753189D01*
X110792281Y-105743813D01*
X110768247Y-105739033D01*
X110743743Y-105739034D01*
X110719710Y-105743816D01*
X110697080Y-105753189D01*
X110683311Y-105760548D01*
X110676293Y-105762677D01*
X110662860Y-105764000D01*
X110349140Y-105764000D01*
X110335707Y-105762677D01*
X110328688Y-105760548D01*
X110322225Y-105757093D01*
X110316558Y-105752442D01*
X110311907Y-105746775D01*
X110308452Y-105740312D01*
X110306323Y-105733293D01*
X110305000Y-105719860D01*
X110305000Y-104256140D01*
X110306323Y-104242707D01*
X110308452Y-104235688D01*
X110311907Y-104229225D01*
X110316558Y-104223558D01*
X110322225Y-104218907D01*
X110328688Y-104215452D01*
X110335707Y-104213323D01*
X110349140Y-104212000D01*
X110662860Y-104212000D01*
X110676293Y-104213323D01*
X110676293Y-104213323D01*
G37*
G36*
X117487000Y-105549000D02*
X115685000Y-105549000D01*
X115685000Y-103747000D01*
X117487000Y-103747000D01*
X117487000Y-105549000D01*
X117487000Y-105549000D01*
G37*
G36*
X71732000Y-105541000D02*
X70730000Y-105541000D01*
X70730000Y-104639000D01*
X71732000Y-104639000D01*
X71732000Y-105541000D01*
X71732000Y-105541000D01*
G37*
G36*
X107176666Y-104003165D02*
X107215337Y-104014896D01*
X107250979Y-104033948D01*
X107282217Y-104059583D01*
X107307852Y-104090821D01*
X107326904Y-104126463D01*
X107338635Y-104165134D01*
X107343200Y-104211488D01*
X107343200Y-105287712D01*
X107338635Y-105334066D01*
X107326904Y-105372737D01*
X107307852Y-105408379D01*
X107282217Y-105439617D01*
X107250979Y-105465252D01*
X107215337Y-105484304D01*
X107176666Y-105496035D01*
X107130312Y-105500600D01*
X106479088Y-105500600D01*
X106432734Y-105496035D01*
X106394063Y-105484304D01*
X106358421Y-105465252D01*
X106327183Y-105439617D01*
X106301548Y-105408379D01*
X106282496Y-105372737D01*
X106270765Y-105334066D01*
X106266200Y-105287712D01*
X106266200Y-104211488D01*
X106270765Y-104165134D01*
X106282496Y-104126463D01*
X106301548Y-104090821D01*
X106327183Y-104059583D01*
X106358421Y-104033948D01*
X106394063Y-104014896D01*
X106432734Y-104003165D01*
X106479088Y-103998600D01*
X107130312Y-103998600D01*
X107176666Y-104003165D01*
X107176666Y-104003165D01*
G37*
G36*
X105301666Y-104003165D02*
X105340337Y-104014896D01*
X105375979Y-104033948D01*
X105407217Y-104059583D01*
X105432852Y-104090821D01*
X105451904Y-104126463D01*
X105463635Y-104165134D01*
X105468200Y-104211488D01*
X105468200Y-105287712D01*
X105463635Y-105334066D01*
X105451904Y-105372737D01*
X105432852Y-105408379D01*
X105407217Y-105439617D01*
X105375979Y-105465252D01*
X105340337Y-105484304D01*
X105301666Y-105496035D01*
X105255312Y-105500600D01*
X104604088Y-105500600D01*
X104557734Y-105496035D01*
X104519063Y-105484304D01*
X104483421Y-105465252D01*
X104452183Y-105439617D01*
X104426548Y-105408379D01*
X104407496Y-105372737D01*
X104395765Y-105334066D01*
X104391200Y-105287712D01*
X104391200Y-104211488D01*
X104395765Y-104165134D01*
X104407496Y-104126463D01*
X104426548Y-104090821D01*
X104452183Y-104059583D01*
X104483421Y-104033948D01*
X104519063Y-104014896D01*
X104557734Y-104003165D01*
X104604088Y-103998600D01*
X105255312Y-103998600D01*
X105301666Y-104003165D01*
X105301666Y-104003165D01*
G37*
G36*
X69732000Y-104591000D02*
X68730000Y-104591000D01*
X68730000Y-103689000D01*
X69732000Y-103689000D01*
X69732000Y-104591000D01*
X69732000Y-104591000D01*
G37*
G36*
X98241000Y-104276000D02*
X97339000Y-104276000D01*
X97339000Y-103274000D01*
X98241000Y-103274000D01*
X98241000Y-104276000D01*
X98241000Y-104276000D01*
G37*
G36*
X92849966Y-103049565D02*
X92888637Y-103061296D01*
X92924279Y-103080348D01*
X92955517Y-103105983D01*
X92981152Y-103137221D01*
X93000204Y-103172863D01*
X93011935Y-103211534D01*
X93016500Y-103257888D01*
X93016500Y-103909112D01*
X93011935Y-103955466D01*
X93000204Y-103994137D01*
X92981152Y-104029779D01*
X92955517Y-104061017D01*
X92924279Y-104086652D01*
X92888637Y-104105704D01*
X92849966Y-104117435D01*
X92803612Y-104122000D01*
X91727388Y-104122000D01*
X91681034Y-104117435D01*
X91642363Y-104105704D01*
X91606721Y-104086652D01*
X91575483Y-104061017D01*
X91549848Y-104029779D01*
X91530796Y-103994137D01*
X91519065Y-103955466D01*
X91514500Y-103909112D01*
X91514500Y-103257888D01*
X91519065Y-103211534D01*
X91530796Y-103172863D01*
X91549848Y-103137221D01*
X91575483Y-103105983D01*
X91606721Y-103080348D01*
X91642363Y-103061296D01*
X91681034Y-103049565D01*
X91727388Y-103045000D01*
X92803612Y-103045000D01*
X92849966Y-103049565D01*
X92849966Y-103049565D01*
G37*
G36*
X71732000Y-103641000D02*
X70730000Y-103641000D01*
X70730000Y-102739000D01*
X71732000Y-102739000D01*
X71732000Y-103641000D01*
X71732000Y-103641000D01*
G37*
G36*
X110905033Y-101489086D02*
X110944881Y-101501174D01*
X110981601Y-101520801D01*
X111013786Y-101547214D01*
X111040199Y-101579399D01*
X111059826Y-101616119D01*
X111071914Y-101655967D01*
X111076600Y-101703541D01*
X111076600Y-102817259D01*
X111071914Y-102864833D01*
X111059826Y-102904681D01*
X111040199Y-102941401D01*
X111013786Y-102973586D01*
X110981601Y-102999999D01*
X110944881Y-103019626D01*
X110905033Y-103031714D01*
X110857459Y-103036400D01*
X110193741Y-103036400D01*
X110146167Y-103031714D01*
X110106319Y-103019626D01*
X110069599Y-102999999D01*
X110037414Y-102973586D01*
X110011001Y-102941401D01*
X109991374Y-102904681D01*
X109979286Y-102864833D01*
X109974600Y-102817259D01*
X109974600Y-101703541D01*
X109979286Y-101655967D01*
X109991374Y-101616119D01*
X110011001Y-101579399D01*
X110037414Y-101547214D01*
X110069599Y-101520801D01*
X110106319Y-101501174D01*
X110146167Y-101489086D01*
X110193741Y-101484400D01*
X110857459Y-101484400D01*
X110905033Y-101489086D01*
X110905033Y-101489086D01*
G37*
G36*
X109005033Y-101489086D02*
X109044881Y-101501174D01*
X109081601Y-101520801D01*
X109113786Y-101547214D01*
X109140199Y-101579399D01*
X109159826Y-101616119D01*
X109171914Y-101655967D01*
X109176600Y-101703541D01*
X109176600Y-102817259D01*
X109171914Y-102864833D01*
X109159826Y-102904681D01*
X109140199Y-102941401D01*
X109113786Y-102973586D01*
X109081601Y-102999999D01*
X109044881Y-103019626D01*
X109005033Y-103031714D01*
X108957459Y-103036400D01*
X108293741Y-103036400D01*
X108246167Y-103031714D01*
X108206319Y-103019626D01*
X108169599Y-102999999D01*
X108137414Y-102973586D01*
X108111001Y-102941401D01*
X108091374Y-102904681D01*
X108079286Y-102864833D01*
X108074600Y-102817259D01*
X108074600Y-101703541D01*
X108079286Y-101655967D01*
X108091374Y-101616119D01*
X108111001Y-101579399D01*
X108137414Y-101547214D01*
X108169599Y-101520801D01*
X108206319Y-101501174D01*
X108246167Y-101489086D01*
X108293741Y-101484400D01*
X108957459Y-101484400D01*
X109005033Y-101489086D01*
X109005033Y-101489086D01*
G37*
G36*
X101812043Y-100959519D02*
X101878227Y-100966037D01*
X101991453Y-101000384D01*
X102048067Y-101017557D01*
X102186687Y-101091652D01*
X102204591Y-101101222D01*
X102240329Y-101130552D01*
X102341786Y-101213814D01*
X102425048Y-101315271D01*
X102454378Y-101351009D01*
X102454379Y-101351011D01*
X102538043Y-101507533D01*
X102545110Y-101530830D01*
X102589563Y-101677373D01*
X102606959Y-101854000D01*
X102589563Y-102030627D01*
X102555216Y-102143853D01*
X102538043Y-102200467D01*
X102526526Y-102222013D01*
X102454378Y-102356991D01*
X102425048Y-102392729D01*
X102341786Y-102494186D01*
X102240329Y-102577448D01*
X102204591Y-102606778D01*
X102204589Y-102606779D01*
X102048067Y-102690443D01*
X101991453Y-102707616D01*
X101878227Y-102741963D01*
X101812042Y-102748482D01*
X101745860Y-102755000D01*
X101657340Y-102755000D01*
X101591157Y-102748481D01*
X101524973Y-102741963D01*
X101411747Y-102707616D01*
X101355133Y-102690443D01*
X101198611Y-102606779D01*
X101198609Y-102606778D01*
X101162871Y-102577448D01*
X101061414Y-102494186D01*
X100978152Y-102392729D01*
X100948822Y-102356991D01*
X100876674Y-102222013D01*
X100865157Y-102200467D01*
X100847984Y-102143853D01*
X100813637Y-102030627D01*
X100796241Y-101854000D01*
X100813637Y-101677373D01*
X100858090Y-101530830D01*
X100865157Y-101507533D01*
X100948821Y-101351011D01*
X100948822Y-101351009D01*
X100978152Y-101315271D01*
X101061414Y-101213814D01*
X101162871Y-101130552D01*
X101198609Y-101101222D01*
X101216513Y-101091652D01*
X101355133Y-101017557D01*
X101411747Y-101000384D01*
X101524973Y-100966037D01*
X101591158Y-100959518D01*
X101657340Y-100953000D01*
X101745860Y-100953000D01*
X101812043Y-100959519D01*
X101812043Y-100959519D01*
G37*
G36*
X105142600Y-102755000D02*
X103340600Y-102755000D01*
X103340600Y-100953000D01*
X105142600Y-100953000D01*
X105142600Y-102755000D01*
X105142600Y-102755000D01*
G37*
G36*
X117723256Y-99330898D02*
X117829579Y-99352047D01*
X118130042Y-99476503D01*
X118396852Y-99654780D01*
X118400454Y-99657187D01*
X118630413Y-99887146D01*
X118630415Y-99887149D01*
X118811097Y-100157558D01*
X118933613Y-100453337D01*
X118935553Y-100458022D01*
X118999000Y-100776989D01*
X118999000Y-101102211D01*
X118976800Y-101213815D01*
X118935553Y-101421179D01*
X118811097Y-101721642D01*
X118722658Y-101854000D01*
X118630413Y-101992054D01*
X118400454Y-102222013D01*
X118400451Y-102222015D01*
X118130042Y-102402697D01*
X117829579Y-102527153D01*
X117723256Y-102548302D01*
X117510611Y-102590600D01*
X117185389Y-102590600D01*
X116972744Y-102548302D01*
X116866421Y-102527153D01*
X116565958Y-102402697D01*
X116295549Y-102222015D01*
X116295546Y-102222013D01*
X116065587Y-101992054D01*
X115973342Y-101854000D01*
X115884903Y-101721642D01*
X115760447Y-101421179D01*
X115719200Y-101213815D01*
X115697000Y-101102211D01*
X115697000Y-100776989D01*
X115760447Y-100458022D01*
X115762388Y-100453337D01*
X115884903Y-100157558D01*
X116065585Y-99887149D01*
X116065587Y-99887146D01*
X116295546Y-99657187D01*
X116299148Y-99654780D01*
X116565958Y-99476503D01*
X116866421Y-99352047D01*
X116972744Y-99330898D01*
X117185389Y-99288600D01*
X117510611Y-99288600D01*
X117723256Y-99330898D01*
X117723256Y-99330898D01*
G37*
G36*
X81696000Y-102270000D02*
X79594000Y-102270000D01*
X79594000Y-100168000D01*
X81696000Y-100168000D01*
X81696000Y-102270000D01*
X81696000Y-102270000D01*
G37*
G36*
X75396800Y-102270000D02*
X73294800Y-102270000D01*
X73294800Y-100168000D01*
X75396800Y-100168000D01*
X75396800Y-102270000D01*
X75396800Y-102270000D01*
G37*
G36*
X78546400Y-102270000D02*
X76444400Y-102270000D01*
X76444400Y-100168000D01*
X78546400Y-100168000D01*
X78546400Y-102270000D01*
X78546400Y-102270000D01*
G37*
G36*
X95647800Y-101899200D02*
X94445800Y-101899200D01*
X94445800Y-100697200D01*
X95647800Y-100697200D01*
X95647800Y-101899200D01*
X95647800Y-101899200D01*
G37*
G36*
X71667466Y-99075565D02*
X71706137Y-99087296D01*
X71741779Y-99106348D01*
X71773017Y-99131983D01*
X71798652Y-99163221D01*
X71817704Y-99198863D01*
X71829435Y-99237534D01*
X71834000Y-99283888D01*
X71834000Y-100360112D01*
X71829435Y-100406466D01*
X71817704Y-100445137D01*
X71798652Y-100480779D01*
X71773017Y-100512017D01*
X71741779Y-100537652D01*
X71706137Y-100556704D01*
X71667466Y-100568435D01*
X71621112Y-100573000D01*
X70969888Y-100573000D01*
X70923534Y-100568435D01*
X70884863Y-100556704D01*
X70849221Y-100537652D01*
X70817983Y-100512017D01*
X70792348Y-100480779D01*
X70773296Y-100445137D01*
X70761565Y-100406466D01*
X70757000Y-100360112D01*
X70757000Y-99283888D01*
X70761565Y-99237534D01*
X70773296Y-99198863D01*
X70792348Y-99163221D01*
X70817983Y-99131983D01*
X70849221Y-99106348D01*
X70884863Y-99087296D01*
X70923534Y-99075565D01*
X70969888Y-99071000D01*
X71621112Y-99071000D01*
X71667466Y-99075565D01*
X71667466Y-99075565D01*
G37*
G36*
X69792466Y-99075565D02*
X69831137Y-99087296D01*
X69866779Y-99106348D01*
X69898017Y-99131983D01*
X69923652Y-99163221D01*
X69942704Y-99198863D01*
X69954435Y-99237534D01*
X69959000Y-99283888D01*
X69959000Y-100360112D01*
X69954435Y-100406466D01*
X69942704Y-100445137D01*
X69923652Y-100480779D01*
X69898017Y-100512017D01*
X69866779Y-100537652D01*
X69831137Y-100556704D01*
X69792466Y-100568435D01*
X69746112Y-100573000D01*
X69094888Y-100573000D01*
X69048534Y-100568435D01*
X69009863Y-100556704D01*
X68974221Y-100537652D01*
X68942983Y-100512017D01*
X68917348Y-100480779D01*
X68898296Y-100445137D01*
X68886565Y-100406466D01*
X68882000Y-100360112D01*
X68882000Y-99283888D01*
X68886565Y-99237534D01*
X68898296Y-99198863D01*
X68917348Y-99163221D01*
X68942983Y-99131983D01*
X68974221Y-99106348D01*
X69009863Y-99087296D01*
X69048534Y-99075565D01*
X69094888Y-99071000D01*
X69746112Y-99071000D01*
X69792466Y-99075565D01*
X69792466Y-99075565D01*
G37*
G36*
X111799000Y-100470600D02*
X110197000Y-100470600D01*
X110197000Y-98868600D01*
X111799000Y-98868600D01*
X111799000Y-100470600D01*
X111799000Y-100470600D01*
G37*
G36*
X108691643Y-97629381D02*
X108837415Y-97689762D01*
X108968611Y-97777424D01*
X109080176Y-97888989D01*
X109167838Y-98020185D01*
X109228219Y-98165957D01*
X109259000Y-98320707D01*
X109259000Y-98478493D01*
X109228219Y-98633243D01*
X109167838Y-98779015D01*
X109080176Y-98910211D01*
X108968611Y-99021776D01*
X108837415Y-99109438D01*
X108691643Y-99169819D01*
X108536893Y-99200600D01*
X108379107Y-99200600D01*
X108224357Y-99169819D01*
X108078585Y-99109438D01*
X107947389Y-99021776D01*
X107835824Y-98910211D01*
X107748162Y-98779015D01*
X107687781Y-98633243D01*
X107657000Y-98478493D01*
X107657000Y-98320707D01*
X107687781Y-98165957D01*
X107748162Y-98020185D01*
X107835824Y-97888989D01*
X107947389Y-97777424D01*
X108078585Y-97689762D01*
X108224357Y-97629381D01*
X108379107Y-97598600D01*
X108536893Y-97598600D01*
X108691643Y-97629381D01*
X108691643Y-97629381D01*
G37*
G36*
X95647800Y-99099200D02*
X94445800Y-99099200D01*
X94445800Y-97897200D01*
X95647800Y-97897200D01*
X95647800Y-99099200D01*
X95647800Y-99099200D01*
G37*
G36*
X66363466Y-97170565D02*
X66402137Y-97182296D01*
X66437779Y-97201348D01*
X66469017Y-97226983D01*
X66494652Y-97258221D01*
X66513704Y-97293863D01*
X66525435Y-97332534D01*
X66530000Y-97378888D01*
X66530000Y-98455112D01*
X66525435Y-98501466D01*
X66513704Y-98540137D01*
X66494652Y-98575779D01*
X66469017Y-98607017D01*
X66437779Y-98632652D01*
X66402137Y-98651704D01*
X66363466Y-98663435D01*
X66317112Y-98668000D01*
X65665888Y-98668000D01*
X65619534Y-98663435D01*
X65580863Y-98651704D01*
X65545221Y-98632652D01*
X65513983Y-98607017D01*
X65488348Y-98575779D01*
X65469296Y-98540137D01*
X65457565Y-98501466D01*
X65453000Y-98455112D01*
X65453000Y-97378888D01*
X65457565Y-97332534D01*
X65469296Y-97293863D01*
X65488348Y-97258221D01*
X65513983Y-97226983D01*
X65545221Y-97201348D01*
X65580863Y-97182296D01*
X65619534Y-97170565D01*
X65665888Y-97166000D01*
X66317112Y-97166000D01*
X66363466Y-97170565D01*
X66363466Y-97170565D01*
G37*
G36*
X68238466Y-97170565D02*
X68277137Y-97182296D01*
X68312779Y-97201348D01*
X68344017Y-97226983D01*
X68369652Y-97258221D01*
X68388704Y-97293863D01*
X68400435Y-97332534D01*
X68405000Y-97378888D01*
X68405000Y-98455112D01*
X68400435Y-98501466D01*
X68388704Y-98540137D01*
X68369652Y-98575779D01*
X68344017Y-98607017D01*
X68312779Y-98632652D01*
X68277137Y-98651704D01*
X68238466Y-98663435D01*
X68192112Y-98668000D01*
X67540888Y-98668000D01*
X67494534Y-98663435D01*
X67455863Y-98651704D01*
X67420221Y-98632652D01*
X67388983Y-98607017D01*
X67363348Y-98575779D01*
X67344296Y-98540137D01*
X67332565Y-98501466D01*
X67328000Y-98455112D01*
X67328000Y-97378888D01*
X67332565Y-97332534D01*
X67344296Y-97293863D01*
X67363348Y-97258221D01*
X67388983Y-97226983D01*
X67420221Y-97201348D01*
X67455863Y-97182296D01*
X67494534Y-97170565D01*
X67540888Y-97166000D01*
X68192112Y-97166000D01*
X68238466Y-97170565D01*
X68238466Y-97170565D01*
G37*
G36*
X69792466Y-97170565D02*
X69831137Y-97182296D01*
X69866779Y-97201348D01*
X69898017Y-97226983D01*
X69923652Y-97258221D01*
X69942704Y-97293863D01*
X69954435Y-97332534D01*
X69959000Y-97378888D01*
X69959000Y-98455112D01*
X69954435Y-98501466D01*
X69942704Y-98540137D01*
X69923652Y-98575779D01*
X69898017Y-98607017D01*
X69866779Y-98632652D01*
X69831137Y-98651704D01*
X69792466Y-98663435D01*
X69746112Y-98668000D01*
X69094888Y-98668000D01*
X69048534Y-98663435D01*
X69009863Y-98651704D01*
X68974221Y-98632652D01*
X68942983Y-98607017D01*
X68917348Y-98575779D01*
X68898296Y-98540137D01*
X68886565Y-98501466D01*
X68882000Y-98455112D01*
X68882000Y-97378888D01*
X68886565Y-97332534D01*
X68898296Y-97293863D01*
X68917348Y-97258221D01*
X68942983Y-97226983D01*
X68974221Y-97201348D01*
X69009863Y-97182296D01*
X69048534Y-97170565D01*
X69094888Y-97166000D01*
X69746112Y-97166000D01*
X69792466Y-97170565D01*
X69792466Y-97170565D01*
G37*
G36*
X71667466Y-97170565D02*
X71706137Y-97182296D01*
X71741779Y-97201348D01*
X71773017Y-97226983D01*
X71798652Y-97258221D01*
X71817704Y-97293863D01*
X71829435Y-97332534D01*
X71834000Y-97378888D01*
X71834000Y-98455112D01*
X71829435Y-98501466D01*
X71817704Y-98540137D01*
X71798652Y-98575779D01*
X71773017Y-98607017D01*
X71741779Y-98632652D01*
X71706137Y-98651704D01*
X71667466Y-98663435D01*
X71621112Y-98668000D01*
X70969888Y-98668000D01*
X70923534Y-98663435D01*
X70884863Y-98651704D01*
X70849221Y-98632652D01*
X70817983Y-98607017D01*
X70792348Y-98575779D01*
X70773296Y-98540137D01*
X70761565Y-98501466D01*
X70757000Y-98455112D01*
X70757000Y-97378888D01*
X70761565Y-97332534D01*
X70773296Y-97293863D01*
X70792348Y-97258221D01*
X70817983Y-97226983D01*
X70849221Y-97201348D01*
X70884863Y-97182296D01*
X70923534Y-97170565D01*
X70969888Y-97166000D01*
X71621112Y-97166000D01*
X71667466Y-97170565D01*
X71667466Y-97170565D01*
G37*
G36*
X101186000Y-98501000D02*
X100084000Y-98501000D01*
X100084000Y-96899000D01*
X101186000Y-96899000D01*
X101186000Y-98501000D01*
X101186000Y-98501000D01*
G37*
G36*
X104386000Y-98501000D02*
X103284000Y-98501000D01*
X103284000Y-96899000D01*
X104386000Y-96899000D01*
X104386000Y-98501000D01*
X104386000Y-98501000D01*
G37*
G36*
X111231643Y-96359381D02*
X111377415Y-96419762D01*
X111508611Y-96507424D01*
X111620176Y-96618989D01*
X111707838Y-96750185D01*
X111768219Y-96895957D01*
X111799000Y-97050707D01*
X111799000Y-97208493D01*
X111768219Y-97363243D01*
X111707838Y-97509015D01*
X111620176Y-97640211D01*
X111508611Y-97751776D01*
X111377415Y-97839438D01*
X111231643Y-97899819D01*
X111076893Y-97930600D01*
X110919107Y-97930600D01*
X110764357Y-97899819D01*
X110618585Y-97839438D01*
X110487389Y-97751776D01*
X110375824Y-97640211D01*
X110288162Y-97509015D01*
X110227781Y-97363243D01*
X110197000Y-97208493D01*
X110197000Y-97050707D01*
X110227781Y-96895957D01*
X110288162Y-96750185D01*
X110375824Y-96618989D01*
X110487389Y-96507424D01*
X110618585Y-96419762D01*
X110764357Y-96359381D01*
X110919107Y-96328600D01*
X111076893Y-96328600D01*
X111231643Y-96359381D01*
X111231643Y-96359381D01*
G37*
G36*
X78869000Y-93758308D02*
X78869003Y-93758309D01*
X78906891Y-93769802D01*
X78941810Y-93788466D01*
X78972416Y-93813584D01*
X78997534Y-93844190D01*
X79016198Y-93879109D01*
X79025552Y-93909945D01*
X79027692Y-93917000D01*
X79030600Y-93946527D01*
X79030600Y-94416273D01*
X79027692Y-94445800D01*
X79027691Y-94445802D01*
X79027691Y-94445803D01*
X79016198Y-94483691D01*
X78997534Y-94518610D01*
X78997532Y-94518612D01*
X78996002Y-94521475D01*
X78986625Y-94544114D01*
X78981844Y-94568147D01*
X78981844Y-94592652D01*
X78986624Y-94616685D01*
X78996002Y-94639324D01*
X79009615Y-94659699D01*
X79026942Y-94677026D01*
X79046962Y-94690403D01*
X79051666Y-94699204D01*
X79067212Y-94718146D01*
X79086154Y-94733692D01*
X79107765Y-94745243D01*
X79131214Y-94752356D01*
X79155600Y-94754758D01*
X79179986Y-94752356D01*
X79203435Y-94745243D01*
X79214525Y-94739998D01*
X79217388Y-94738468D01*
X79217390Y-94738466D01*
X79252309Y-94719802D01*
X79290197Y-94708309D01*
X79290200Y-94708308D01*
X79319727Y-94705400D01*
X79789473Y-94705400D01*
X79819000Y-94708308D01*
X79819003Y-94708309D01*
X79856891Y-94719802D01*
X79891810Y-94738466D01*
X79922416Y-94763584D01*
X79947534Y-94794190D01*
X79963063Y-94823243D01*
X79966197Y-94829107D01*
X79977692Y-94867000D01*
X79981572Y-94906400D01*
X79977692Y-94945800D01*
X79977691Y-94945803D01*
X79966198Y-94983691D01*
X79947534Y-95018610D01*
X79922416Y-95049216D01*
X79910982Y-95058600D01*
X79909552Y-95059773D01*
X79892225Y-95077100D01*
X79878611Y-95097474D01*
X79869233Y-95120113D01*
X79864452Y-95144146D01*
X79864452Y-95168651D01*
X79869232Y-95192684D01*
X79878609Y-95215323D01*
X79892223Y-95235698D01*
X79909550Y-95253025D01*
X79922416Y-95263584D01*
X79947534Y-95294190D01*
X79966198Y-95329109D01*
X79972228Y-95348989D01*
X79977692Y-95367000D01*
X79981572Y-95406400D01*
X79977692Y-95445800D01*
X79977691Y-95445803D01*
X79966198Y-95483691D01*
X79947534Y-95518610D01*
X79922416Y-95549216D01*
X79922414Y-95549218D01*
X79909552Y-95559773D01*
X79892225Y-95577100D01*
X79878611Y-95597474D01*
X79869233Y-95620113D01*
X79864452Y-95644146D01*
X79864452Y-95668651D01*
X79869232Y-95692684D01*
X79878609Y-95715323D01*
X79892223Y-95735698D01*
X79909550Y-95753025D01*
X79922416Y-95763584D01*
X79947534Y-95794190D01*
X79965066Y-95826990D01*
X79966197Y-95829107D01*
X79977692Y-95867000D01*
X79981572Y-95906400D01*
X79977692Y-95945800D01*
X79977691Y-95945803D01*
X79966198Y-95983691D01*
X79947534Y-96018610D01*
X79922416Y-96049216D01*
X79922414Y-96049218D01*
X79909552Y-96059773D01*
X79892225Y-96077100D01*
X79878611Y-96097474D01*
X79869233Y-96120113D01*
X79864452Y-96144146D01*
X79864452Y-96168651D01*
X79869232Y-96192684D01*
X79878609Y-96215323D01*
X79892223Y-96235698D01*
X79909552Y-96253027D01*
X79921800Y-96263078D01*
X79922416Y-96263584D01*
X79947534Y-96294190D01*
X79955527Y-96309145D01*
X79966197Y-96329107D01*
X79977692Y-96367000D01*
X79981572Y-96406400D01*
X79977692Y-96445800D01*
X79977691Y-96445803D01*
X79966198Y-96483691D01*
X79947534Y-96518610D01*
X79922416Y-96549216D01*
X79891810Y-96574334D01*
X79856891Y-96592998D01*
X79826055Y-96602352D01*
X79819000Y-96604492D01*
X79789473Y-96607400D01*
X79319727Y-96607400D01*
X79290200Y-96604492D01*
X79283145Y-96602352D01*
X79252309Y-96592998D01*
X79217390Y-96574334D01*
X79217388Y-96574332D01*
X79214525Y-96572802D01*
X79191886Y-96563425D01*
X79167853Y-96558644D01*
X79143348Y-96558644D01*
X79119315Y-96563424D01*
X79096676Y-96572802D01*
X79076301Y-96586415D01*
X79058974Y-96603742D01*
X79045597Y-96623762D01*
X79036796Y-96628466D01*
X79017854Y-96644012D01*
X79002308Y-96662954D01*
X78990757Y-96684565D01*
X78983644Y-96708014D01*
X78981242Y-96732400D01*
X78983644Y-96756786D01*
X78990757Y-96780235D01*
X78996002Y-96791325D01*
X78997532Y-96794188D01*
X78997534Y-96794190D01*
X79014323Y-96825601D01*
X79016197Y-96829107D01*
X79027692Y-96867000D01*
X79030600Y-96896527D01*
X79030600Y-97366273D01*
X79027692Y-97395800D01*
X79027691Y-97395802D01*
X79027691Y-97395803D01*
X79016198Y-97433691D01*
X78997534Y-97468610D01*
X78972416Y-97499216D01*
X78941809Y-97524334D01*
X78906890Y-97542998D01*
X78869002Y-97554491D01*
X78869001Y-97554491D01*
X78868998Y-97554492D01*
X78829600Y-97558372D01*
X78790200Y-97554492D01*
X78783145Y-97552352D01*
X78752309Y-97542998D01*
X78717390Y-97524334D01*
X78686784Y-97499216D01*
X78686782Y-97499213D01*
X78676227Y-97486352D01*
X78658900Y-97469025D01*
X78638526Y-97455411D01*
X78615887Y-97446033D01*
X78591854Y-97441252D01*
X78567349Y-97441252D01*
X78543316Y-97446032D01*
X78520677Y-97455409D01*
X78500302Y-97469023D01*
X78482973Y-97486352D01*
X78472419Y-97499213D01*
X78472417Y-97499214D01*
X78472416Y-97499216D01*
X78441809Y-97524334D01*
X78406890Y-97542998D01*
X78369002Y-97554491D01*
X78369001Y-97554491D01*
X78368998Y-97554492D01*
X78329600Y-97558372D01*
X78290200Y-97554492D01*
X78283145Y-97552352D01*
X78252309Y-97542998D01*
X78217390Y-97524334D01*
X78186784Y-97499216D01*
X78186782Y-97499213D01*
X78176227Y-97486352D01*
X78158900Y-97469025D01*
X78138526Y-97455411D01*
X78115887Y-97446033D01*
X78091854Y-97441252D01*
X78067349Y-97441252D01*
X78043316Y-97446032D01*
X78020677Y-97455409D01*
X78000302Y-97469023D01*
X77982973Y-97486352D01*
X77972419Y-97499213D01*
X77972417Y-97499214D01*
X77972416Y-97499216D01*
X77941809Y-97524334D01*
X77906890Y-97542998D01*
X77869002Y-97554491D01*
X77869001Y-97554491D01*
X77868998Y-97554492D01*
X77829600Y-97558372D01*
X77790200Y-97554492D01*
X77783145Y-97552352D01*
X77752309Y-97542998D01*
X77717390Y-97524334D01*
X77686784Y-97499216D01*
X77686782Y-97499213D01*
X77676227Y-97486352D01*
X77658900Y-97469025D01*
X77638526Y-97455411D01*
X77615887Y-97446033D01*
X77591854Y-97441252D01*
X77567349Y-97441252D01*
X77543316Y-97446032D01*
X77520677Y-97455409D01*
X77500302Y-97469023D01*
X77482973Y-97486352D01*
X77472419Y-97499213D01*
X77472417Y-97499214D01*
X77472416Y-97499216D01*
X77441809Y-97524334D01*
X77406890Y-97542998D01*
X77369002Y-97554491D01*
X77369001Y-97554491D01*
X77368998Y-97554492D01*
X77329600Y-97558372D01*
X77290200Y-97554492D01*
X77283145Y-97552352D01*
X77252309Y-97542998D01*
X77217390Y-97524334D01*
X77186784Y-97499216D01*
X77161666Y-97468609D01*
X77143002Y-97433690D01*
X77131509Y-97395802D01*
X77131508Y-97395799D01*
X77128600Y-97366272D01*
X77128600Y-96896531D01*
X77131509Y-96867001D01*
X77143004Y-96829107D01*
X77144878Y-96825601D01*
X77161667Y-96794190D01*
X77161669Y-96794188D01*
X77163199Y-96791325D01*
X77172576Y-96768686D01*
X77177357Y-96744653D01*
X77177357Y-96720148D01*
X77172577Y-96696115D01*
X77163199Y-96673476D01*
X77149586Y-96653101D01*
X77132259Y-96635774D01*
X77112238Y-96622396D01*
X77107534Y-96613596D01*
X77091988Y-96594654D01*
X77073046Y-96579108D01*
X77051435Y-96567557D01*
X77027986Y-96560444D01*
X77003600Y-96558042D01*
X76979214Y-96560444D01*
X76955765Y-96567557D01*
X76944675Y-96572802D01*
X76941812Y-96574332D01*
X76941810Y-96574334D01*
X76906891Y-96592998D01*
X76876055Y-96602352D01*
X76869000Y-96604492D01*
X76839473Y-96607400D01*
X76369727Y-96607400D01*
X76340200Y-96604492D01*
X76333145Y-96602352D01*
X76302309Y-96592998D01*
X76267390Y-96574334D01*
X76236784Y-96549216D01*
X76211666Y-96518610D01*
X76193002Y-96483691D01*
X76181509Y-96445803D01*
X76181508Y-96445800D01*
X76177628Y-96406400D01*
X76181508Y-96367000D01*
X76193003Y-96329107D01*
X76203673Y-96309145D01*
X76211666Y-96294190D01*
X76236784Y-96263584D01*
X76237401Y-96263078D01*
X76249648Y-96253027D01*
X76266975Y-96235700D01*
X76280589Y-96215326D01*
X76289967Y-96192687D01*
X76294748Y-96168654D01*
X76294748Y-96144149D01*
X76289968Y-96120116D01*
X76280591Y-96097477D01*
X76266977Y-96077102D01*
X76249648Y-96059773D01*
X76236786Y-96049218D01*
X76236784Y-96049216D01*
X76211666Y-96018610D01*
X76193002Y-95983691D01*
X76181509Y-95945803D01*
X76181508Y-95945800D01*
X76177628Y-95906400D01*
X76181508Y-95867000D01*
X76193003Y-95829107D01*
X76194134Y-95826990D01*
X76211666Y-95794190D01*
X76236784Y-95763584D01*
X76249650Y-95753025D01*
X76266975Y-95735700D01*
X76280589Y-95715326D01*
X76289967Y-95692687D01*
X76294748Y-95668654D01*
X76294748Y-95644149D01*
X76289968Y-95620116D01*
X76280591Y-95597477D01*
X76266977Y-95577102D01*
X76249648Y-95559773D01*
X76236786Y-95549218D01*
X76236784Y-95549216D01*
X76211666Y-95518610D01*
X76193002Y-95483691D01*
X76181509Y-95445803D01*
X76181508Y-95445800D01*
X76177628Y-95406400D01*
X76181508Y-95367000D01*
X76186972Y-95348989D01*
X76193002Y-95329109D01*
X76211666Y-95294190D01*
X76236784Y-95263584D01*
X76249650Y-95253025D01*
X76266975Y-95235700D01*
X76280589Y-95215326D01*
X76289967Y-95192687D01*
X76294748Y-95168654D01*
X76294748Y-95144149D01*
X76289968Y-95120116D01*
X76280591Y-95097477D01*
X76266977Y-95077102D01*
X76249648Y-95059773D01*
X76248219Y-95058600D01*
X76236784Y-95049216D01*
X76211666Y-95018610D01*
X76193002Y-94983691D01*
X76181509Y-94945803D01*
X76181508Y-94945800D01*
X76177628Y-94906400D01*
X76181508Y-94867000D01*
X76193003Y-94829107D01*
X76196137Y-94823243D01*
X76211666Y-94794190D01*
X76236784Y-94763584D01*
X76267390Y-94738466D01*
X76302309Y-94719802D01*
X76340197Y-94708309D01*
X76340200Y-94708308D01*
X76369727Y-94705400D01*
X76839473Y-94705400D01*
X76869000Y-94708308D01*
X76869003Y-94708309D01*
X76906891Y-94719802D01*
X76941810Y-94738466D01*
X76941812Y-94738468D01*
X76944675Y-94739998D01*
X76967314Y-94749375D01*
X76991347Y-94754156D01*
X77015852Y-94754156D01*
X77039885Y-94749376D01*
X77062524Y-94739998D01*
X77082899Y-94726385D01*
X77100226Y-94709058D01*
X77113602Y-94689039D01*
X77122405Y-94684334D01*
X77141347Y-94668788D01*
X77156893Y-94649846D01*
X77168444Y-94628235D01*
X77175557Y-94604786D01*
X77177959Y-94580400D01*
X77175557Y-94556014D01*
X77168444Y-94532565D01*
X77163198Y-94521474D01*
X77161667Y-94518610D01*
X77161666Y-94518609D01*
X77155684Y-94507416D01*
X77143003Y-94483694D01*
X77131508Y-94445799D01*
X77128600Y-94416272D01*
X77128600Y-93946531D01*
X77131509Y-93917001D01*
X77131510Y-93916997D01*
X77143003Y-93879109D01*
X77161667Y-93844190D01*
X77186785Y-93813584D01*
X77217391Y-93788466D01*
X77252310Y-93769802D01*
X77290198Y-93758309D01*
X77290199Y-93758309D01*
X77290202Y-93758308D01*
X77329600Y-93754428D01*
X77369000Y-93758308D01*
X77369003Y-93758309D01*
X77406891Y-93769802D01*
X77441810Y-93788466D01*
X77472416Y-93813584D01*
X77479636Y-93822381D01*
X77482973Y-93826448D01*
X77500300Y-93843775D01*
X77520674Y-93857389D01*
X77543313Y-93866767D01*
X77567346Y-93871548D01*
X77591851Y-93871548D01*
X77615884Y-93866768D01*
X77638523Y-93857391D01*
X77658898Y-93843777D01*
X77676225Y-93826451D01*
X77686783Y-93813586D01*
X77686785Y-93813584D01*
X77717391Y-93788466D01*
X77752310Y-93769802D01*
X77790198Y-93758309D01*
X77790199Y-93758309D01*
X77790202Y-93758308D01*
X77829600Y-93754428D01*
X77869000Y-93758308D01*
X77869003Y-93758309D01*
X77906891Y-93769802D01*
X77941810Y-93788466D01*
X77972416Y-93813584D01*
X77979636Y-93822381D01*
X77982973Y-93826448D01*
X78000300Y-93843775D01*
X78020674Y-93857389D01*
X78043313Y-93866767D01*
X78067346Y-93871548D01*
X78091851Y-93871548D01*
X78115884Y-93866768D01*
X78138523Y-93857391D01*
X78158898Y-93843777D01*
X78176225Y-93826451D01*
X78186783Y-93813586D01*
X78186785Y-93813584D01*
X78217391Y-93788466D01*
X78252310Y-93769802D01*
X78290198Y-93758309D01*
X78290199Y-93758309D01*
X78290202Y-93758308D01*
X78329600Y-93754428D01*
X78369000Y-93758308D01*
X78369003Y-93758309D01*
X78406891Y-93769802D01*
X78441810Y-93788466D01*
X78472416Y-93813584D01*
X78479636Y-93822381D01*
X78482973Y-93826448D01*
X78500300Y-93843775D01*
X78520674Y-93857389D01*
X78543313Y-93866767D01*
X78567346Y-93871548D01*
X78591851Y-93871548D01*
X78615884Y-93866768D01*
X78638523Y-93857391D01*
X78658898Y-93843777D01*
X78676225Y-93826451D01*
X78686783Y-93813586D01*
X78686785Y-93813584D01*
X78717391Y-93788466D01*
X78752310Y-93769802D01*
X78790198Y-93758309D01*
X78790199Y-93758309D01*
X78790202Y-93758308D01*
X78829600Y-93754428D01*
X78869000Y-93758308D01*
X78869000Y-93758308D01*
G37*
G36*
X108691643Y-95089381D02*
X108837415Y-95149762D01*
X108968611Y-95237424D01*
X109080176Y-95348989D01*
X109167838Y-95480185D01*
X109228219Y-95625957D01*
X109259000Y-95780707D01*
X109259000Y-95938493D01*
X109228219Y-96093243D01*
X109167838Y-96239015D01*
X109080176Y-96370211D01*
X108968611Y-96481776D01*
X108837415Y-96569438D01*
X108691643Y-96629819D01*
X108536893Y-96660600D01*
X108379107Y-96660600D01*
X108224357Y-96629819D01*
X108078585Y-96569438D01*
X107947389Y-96481776D01*
X107835824Y-96370211D01*
X107748162Y-96239015D01*
X107687781Y-96093243D01*
X107657000Y-95938493D01*
X107657000Y-95780707D01*
X107687781Y-95625957D01*
X107748162Y-95480185D01*
X107835824Y-95348989D01*
X107947389Y-95237424D01*
X108078585Y-95149762D01*
X108224357Y-95089381D01*
X108379107Y-95058600D01*
X108536893Y-95058600D01*
X108691643Y-95089381D01*
X108691643Y-95089381D01*
G37*
G36*
X66631804Y-94582347D02*
X66668345Y-94593432D01*
X66702020Y-94611431D01*
X66731541Y-94635659D01*
X66755769Y-94665180D01*
X66773768Y-94698855D01*
X66784853Y-94735396D01*
X66789200Y-94779538D01*
X66789200Y-96228462D01*
X66784853Y-96272604D01*
X66773768Y-96309145D01*
X66755769Y-96342820D01*
X66731541Y-96372341D01*
X66702020Y-96396569D01*
X66668345Y-96414568D01*
X66631804Y-96425653D01*
X66587662Y-96430000D01*
X65638738Y-96430000D01*
X65594596Y-96425653D01*
X65558055Y-96414568D01*
X65524380Y-96396569D01*
X65494859Y-96372341D01*
X65470631Y-96342820D01*
X65452632Y-96309145D01*
X65441547Y-96272604D01*
X65437200Y-96228462D01*
X65437200Y-94779538D01*
X65441547Y-94735396D01*
X65452632Y-94698855D01*
X65470631Y-94665180D01*
X65494859Y-94635659D01*
X65524380Y-94611431D01*
X65558055Y-94593432D01*
X65594596Y-94582347D01*
X65638738Y-94578000D01*
X66587662Y-94578000D01*
X66631804Y-94582347D01*
X66631804Y-94582347D01*
G37*
G36*
X69431804Y-94582347D02*
X69468345Y-94593432D01*
X69502020Y-94611431D01*
X69531541Y-94635659D01*
X69555769Y-94665180D01*
X69573768Y-94698855D01*
X69584853Y-94735396D01*
X69589200Y-94779538D01*
X69589200Y-96228462D01*
X69584853Y-96272604D01*
X69573768Y-96309145D01*
X69555769Y-96342820D01*
X69531541Y-96372341D01*
X69502020Y-96396569D01*
X69468345Y-96414568D01*
X69431804Y-96425653D01*
X69387662Y-96430000D01*
X68438738Y-96430000D01*
X68394596Y-96425653D01*
X68358055Y-96414568D01*
X68324380Y-96396569D01*
X68294859Y-96372341D01*
X68270631Y-96342820D01*
X68252632Y-96309145D01*
X68241547Y-96272604D01*
X68237200Y-96228462D01*
X68237200Y-94779538D01*
X68241547Y-94735396D01*
X68252632Y-94698855D01*
X68270631Y-94665180D01*
X68294859Y-94635659D01*
X68324380Y-94611431D01*
X68358055Y-94593432D01*
X68394596Y-94582347D01*
X68438738Y-94578000D01*
X69387662Y-94578000D01*
X69431804Y-94582347D01*
X69431804Y-94582347D01*
G37*
G36*
X86412900Y-95874400D02*
X84960900Y-95874400D01*
X84960900Y-94422400D01*
X86412900Y-94422400D01*
X86412900Y-95874400D01*
X86412900Y-95874400D01*
G37*
G36*
X74893266Y-94249565D02*
X74931937Y-94261296D01*
X74967579Y-94280348D01*
X74998817Y-94305983D01*
X75024452Y-94337221D01*
X75043504Y-94372863D01*
X75055235Y-94411534D01*
X75059800Y-94457888D01*
X75059800Y-95534112D01*
X75055235Y-95580466D01*
X75043504Y-95619137D01*
X75024452Y-95654779D01*
X74998817Y-95686017D01*
X74967579Y-95711652D01*
X74931937Y-95730704D01*
X74893266Y-95742435D01*
X74846912Y-95747000D01*
X74195688Y-95747000D01*
X74149334Y-95742435D01*
X74110663Y-95730704D01*
X74075021Y-95711652D01*
X74043783Y-95686017D01*
X74018148Y-95654779D01*
X73999096Y-95619137D01*
X73987365Y-95580466D01*
X73982800Y-95534112D01*
X73982800Y-94457888D01*
X73987365Y-94411534D01*
X73999096Y-94372863D01*
X74018148Y-94337221D01*
X74043783Y-94305983D01*
X74075021Y-94280348D01*
X74110663Y-94261296D01*
X74149334Y-94249565D01*
X74195688Y-94245000D01*
X74846912Y-94245000D01*
X74893266Y-94249565D01*
X74893266Y-94249565D01*
G37*
G36*
X73018266Y-94249565D02*
X73056937Y-94261296D01*
X73092579Y-94280348D01*
X73123817Y-94305983D01*
X73149452Y-94337221D01*
X73168504Y-94372863D01*
X73180235Y-94411534D01*
X73184800Y-94457888D01*
X73184800Y-95534112D01*
X73180235Y-95580466D01*
X73168504Y-95619137D01*
X73149452Y-95654779D01*
X73123817Y-95686017D01*
X73092579Y-95711652D01*
X73056937Y-95730704D01*
X73018266Y-95742435D01*
X72971912Y-95747000D01*
X72320688Y-95747000D01*
X72274334Y-95742435D01*
X72235663Y-95730704D01*
X72200021Y-95711652D01*
X72168783Y-95686017D01*
X72143148Y-95654779D01*
X72124096Y-95619137D01*
X72112365Y-95580466D01*
X72107800Y-95534112D01*
X72107800Y-94457888D01*
X72112365Y-94411534D01*
X72124096Y-94372863D01*
X72143148Y-94337221D01*
X72168783Y-94305983D01*
X72200021Y-94280348D01*
X72235663Y-94261296D01*
X72274334Y-94249565D01*
X72320688Y-94245000D01*
X72971912Y-94245000D01*
X73018266Y-94249565D01*
X73018266Y-94249565D01*
G37*
G36*
X111231643Y-93819381D02*
X111377415Y-93879762D01*
X111508611Y-93967424D01*
X111620176Y-94078989D01*
X111707838Y-94210185D01*
X111768219Y-94355957D01*
X111799000Y-94510707D01*
X111799000Y-94668493D01*
X111768219Y-94823243D01*
X111707838Y-94969015D01*
X111620176Y-95100211D01*
X111508611Y-95211776D01*
X111377415Y-95299438D01*
X111231643Y-95359819D01*
X111076893Y-95390600D01*
X110919107Y-95390600D01*
X110764357Y-95359819D01*
X110618585Y-95299438D01*
X110487389Y-95211776D01*
X110375824Y-95100211D01*
X110288162Y-94969015D01*
X110227781Y-94823243D01*
X110197000Y-94668493D01*
X110197000Y-94510707D01*
X110227781Y-94355957D01*
X110288162Y-94210185D01*
X110375824Y-94078989D01*
X110487389Y-93967424D01*
X110618585Y-93879762D01*
X110764357Y-93819381D01*
X110919107Y-93788600D01*
X111076893Y-93788600D01*
X111231643Y-93819381D01*
X111231643Y-93819381D01*
G37*
G36*
X113124866Y-93843165D02*
X113163537Y-93854896D01*
X113199179Y-93873948D01*
X113230417Y-93899583D01*
X113256052Y-93930821D01*
X113275104Y-93966463D01*
X113286835Y-94005134D01*
X113291400Y-94051488D01*
X113291400Y-95127712D01*
X113286835Y-95174066D01*
X113275104Y-95212737D01*
X113256052Y-95248379D01*
X113230417Y-95279617D01*
X113199179Y-95305252D01*
X113163537Y-95324304D01*
X113124866Y-95336035D01*
X113078512Y-95340600D01*
X112427288Y-95340600D01*
X112380934Y-95336035D01*
X112342263Y-95324304D01*
X112306621Y-95305252D01*
X112275383Y-95279617D01*
X112249748Y-95248379D01*
X112230696Y-95212737D01*
X112218965Y-95174066D01*
X112214400Y-95127712D01*
X112214400Y-94051488D01*
X112218965Y-94005134D01*
X112230696Y-93966463D01*
X112249748Y-93930821D01*
X112275383Y-93899583D01*
X112306621Y-93873948D01*
X112342263Y-93854896D01*
X112380934Y-93843165D01*
X112427288Y-93838600D01*
X113078512Y-93838600D01*
X113124866Y-93843165D01*
X113124866Y-93843165D01*
G37*
G36*
X114999866Y-93843165D02*
X115038537Y-93854896D01*
X115074179Y-93873948D01*
X115105417Y-93899583D01*
X115131052Y-93930821D01*
X115150104Y-93966463D01*
X115161835Y-94005134D01*
X115166400Y-94051488D01*
X115166400Y-95127712D01*
X115161835Y-95174066D01*
X115150104Y-95212737D01*
X115131052Y-95248379D01*
X115105417Y-95279617D01*
X115074179Y-95305252D01*
X115038537Y-95324304D01*
X114999866Y-95336035D01*
X114953512Y-95340600D01*
X114302288Y-95340600D01*
X114255934Y-95336035D01*
X114217263Y-95324304D01*
X114181621Y-95305252D01*
X114150383Y-95279617D01*
X114124748Y-95248379D01*
X114105696Y-95212737D01*
X114093965Y-95174066D01*
X114089400Y-95127712D01*
X114089400Y-94051488D01*
X114093965Y-94005134D01*
X114105696Y-93966463D01*
X114124748Y-93930821D01*
X114150383Y-93899583D01*
X114181621Y-93873948D01*
X114217263Y-93854896D01*
X114255934Y-93843165D01*
X114302288Y-93838600D01*
X114953512Y-93838600D01*
X114999866Y-93843165D01*
X114999866Y-93843165D01*
G37*
G36*
X108691643Y-92549381D02*
X108837415Y-92609762D01*
X108968611Y-92697424D01*
X109080176Y-92808989D01*
X109167838Y-92940185D01*
X109228219Y-93085957D01*
X109259000Y-93240707D01*
X109259000Y-93398493D01*
X109228219Y-93553243D01*
X109167838Y-93699015D01*
X109080176Y-93830211D01*
X108968611Y-93941776D01*
X108837415Y-94029438D01*
X108691643Y-94089819D01*
X108536893Y-94120600D01*
X108379107Y-94120600D01*
X108224357Y-94089819D01*
X108078585Y-94029438D01*
X107947389Y-93941776D01*
X107835824Y-93830211D01*
X107748162Y-93699015D01*
X107687781Y-93553243D01*
X107657000Y-93398493D01*
X107657000Y-93240707D01*
X107687781Y-93085957D01*
X107748162Y-92940185D01*
X107835824Y-92808989D01*
X107947389Y-92697424D01*
X108078585Y-92609762D01*
X108224357Y-92549381D01*
X108379107Y-92518600D01*
X108536893Y-92518600D01*
X108691643Y-92549381D01*
X108691643Y-92549381D01*
G37*
G36*
X85743891Y-92424501D02*
X85829221Y-92432905D01*
X85966072Y-92474419D01*
X85966074Y-92474420D01*
X85966077Y-92474421D01*
X86092196Y-92541832D01*
X86202743Y-92632557D01*
X86293468Y-92743104D01*
X86360879Y-92869223D01*
X86360880Y-92869226D01*
X86360881Y-92869228D01*
X86402395Y-93006079D01*
X86416412Y-93148400D01*
X86402395Y-93290721D01*
X86369702Y-93398492D01*
X86360879Y-93427577D01*
X86293468Y-93553696D01*
X86202743Y-93664243D01*
X86092196Y-93754968D01*
X85966077Y-93822379D01*
X85966074Y-93822380D01*
X85966072Y-93822381D01*
X85829221Y-93863895D01*
X85743891Y-93872299D01*
X85722560Y-93874400D01*
X85651240Y-93874400D01*
X85629909Y-93872299D01*
X85544579Y-93863895D01*
X85407728Y-93822381D01*
X85407726Y-93822380D01*
X85407723Y-93822379D01*
X85281604Y-93754968D01*
X85171057Y-93664243D01*
X85080332Y-93553696D01*
X85012921Y-93427577D01*
X85004098Y-93398492D01*
X84971405Y-93290721D01*
X84957388Y-93148400D01*
X84971405Y-93006079D01*
X85012919Y-92869228D01*
X85012920Y-92869226D01*
X85012921Y-92869223D01*
X85080332Y-92743104D01*
X85171057Y-92632557D01*
X85281604Y-92541832D01*
X85407723Y-92474421D01*
X85407726Y-92474420D01*
X85407728Y-92474419D01*
X85544579Y-92432905D01*
X85629909Y-92424501D01*
X85651240Y-92422400D01*
X85722560Y-92422400D01*
X85743891Y-92424501D01*
X85743891Y-92424501D01*
G37*
G36*
X104386000Y-93601000D02*
X103284000Y-93601000D01*
X103284000Y-91999000D01*
X104386000Y-91999000D01*
X104386000Y-93601000D01*
X104386000Y-93601000D01*
G37*
G36*
X101186000Y-93601000D02*
X100084000Y-93601000D01*
X100084000Y-91999000D01*
X101186000Y-91999000D01*
X101186000Y-93601000D01*
X101186000Y-93601000D01*
G37*
G36*
X74918666Y-91607965D02*
X74957337Y-91619696D01*
X74992979Y-91638748D01*
X75024217Y-91664383D01*
X75049852Y-91695621D01*
X75068904Y-91731263D01*
X75080635Y-91769934D01*
X75085200Y-91816288D01*
X75085200Y-92892512D01*
X75080635Y-92938866D01*
X75068904Y-92977537D01*
X75049852Y-93013179D01*
X75024217Y-93044417D01*
X74992979Y-93070052D01*
X74957337Y-93089104D01*
X74918666Y-93100835D01*
X74872312Y-93105400D01*
X74221088Y-93105400D01*
X74174734Y-93100835D01*
X74136063Y-93089104D01*
X74100421Y-93070052D01*
X74069183Y-93044417D01*
X74043548Y-93013179D01*
X74024496Y-92977537D01*
X74012765Y-92938866D01*
X74008200Y-92892512D01*
X74008200Y-91816288D01*
X74012765Y-91769934D01*
X74024496Y-91731263D01*
X74043548Y-91695621D01*
X74069183Y-91664383D01*
X74100421Y-91638748D01*
X74136063Y-91619696D01*
X74174734Y-91607965D01*
X74221088Y-91603400D01*
X74872312Y-91603400D01*
X74918666Y-91607965D01*
X74918666Y-91607965D01*
G37*
G36*
X73043666Y-91607965D02*
X73082337Y-91619696D01*
X73117979Y-91638748D01*
X73149217Y-91664383D01*
X73174852Y-91695621D01*
X73193904Y-91731263D01*
X73205635Y-91769934D01*
X73210200Y-91816288D01*
X73210200Y-92892512D01*
X73205635Y-92938866D01*
X73193904Y-92977537D01*
X73174852Y-93013179D01*
X73149217Y-93044417D01*
X73117979Y-93070052D01*
X73082337Y-93089104D01*
X73043666Y-93100835D01*
X72997312Y-93105400D01*
X72346088Y-93105400D01*
X72299734Y-93100835D01*
X72261063Y-93089104D01*
X72225421Y-93070052D01*
X72194183Y-93044417D01*
X72168548Y-93013179D01*
X72149496Y-92977537D01*
X72137765Y-92938866D01*
X72133200Y-92892512D01*
X72133200Y-91816288D01*
X72137765Y-91769934D01*
X72149496Y-91731263D01*
X72168548Y-91695621D01*
X72194183Y-91664383D01*
X72225421Y-91638748D01*
X72261063Y-91619696D01*
X72299734Y-91607965D01*
X72346088Y-91603400D01*
X72997312Y-91603400D01*
X73043666Y-91607965D01*
X73043666Y-91607965D01*
G37*
G36*
X77522000Y-90315798D02*
X77534251Y-90316400D01*
X78116949Y-90316400D01*
X78129200Y-90315798D01*
X78131738Y-90315548D01*
X78519460Y-90315548D01*
X78535599Y-90317137D01*
X78545211Y-90320053D01*
X78554069Y-90324788D01*
X78561837Y-90331163D01*
X78568212Y-90338931D01*
X78572947Y-90347789D01*
X78575863Y-90357401D01*
X78577452Y-90373540D01*
X78577452Y-90565442D01*
X78579854Y-90589828D01*
X78586967Y-90613277D01*
X78598518Y-90634888D01*
X78614064Y-90653830D01*
X78633006Y-90669376D01*
X78654617Y-90680927D01*
X78678066Y-90688040D01*
X78702452Y-90690442D01*
X78726838Y-90688040D01*
X78750287Y-90680927D01*
X78771898Y-90669376D01*
X78790840Y-90653830D01*
X78834589Y-90610081D01*
X78847131Y-90599788D01*
X78855989Y-90595053D01*
X78865601Y-90592137D01*
X78881740Y-90590548D01*
X79294460Y-90590548D01*
X79310599Y-90592137D01*
X79320211Y-90595053D01*
X79329069Y-90599788D01*
X79336837Y-90606163D01*
X79343212Y-90613931D01*
X79347947Y-90622789D01*
X79350863Y-90632401D01*
X79352452Y-90648540D01*
X79352452Y-91036262D01*
X79352202Y-91038800D01*
X79351600Y-91051051D01*
X79351600Y-92133749D01*
X79352202Y-92146000D01*
X79352452Y-92148538D01*
X79352452Y-92536260D01*
X79350863Y-92552399D01*
X79347947Y-92562011D01*
X79343212Y-92570869D01*
X79336837Y-92578637D01*
X79329069Y-92585012D01*
X79320211Y-92589747D01*
X79310599Y-92592663D01*
X79294460Y-92594252D01*
X78881740Y-92594252D01*
X78865601Y-92592663D01*
X78855989Y-92589747D01*
X78847131Y-92585012D01*
X78834589Y-92574719D01*
X78790840Y-92530970D01*
X78771898Y-92515424D01*
X78750287Y-92503873D01*
X78726838Y-92496760D01*
X78702452Y-92494358D01*
X78678066Y-92496760D01*
X78654617Y-92503873D01*
X78633006Y-92515424D01*
X78614064Y-92530970D01*
X78598518Y-92549912D01*
X78586967Y-92571523D01*
X78579854Y-92594972D01*
X78577452Y-92619358D01*
X78577452Y-92811260D01*
X78575863Y-92827399D01*
X78572947Y-92837011D01*
X78568212Y-92845869D01*
X78561837Y-92853637D01*
X78554069Y-92860012D01*
X78545211Y-92864747D01*
X78535599Y-92867663D01*
X78519460Y-92869252D01*
X78131738Y-92869252D01*
X78129200Y-92869002D01*
X78116949Y-92868400D01*
X77534251Y-92868400D01*
X77522000Y-92869002D01*
X77519462Y-92869252D01*
X77131740Y-92869252D01*
X77115601Y-92867663D01*
X77105989Y-92864747D01*
X77097131Y-92860012D01*
X77089363Y-92853637D01*
X77082988Y-92845869D01*
X77078253Y-92837011D01*
X77075337Y-92827399D01*
X77073748Y-92811260D01*
X77073748Y-92619358D01*
X77071346Y-92594972D01*
X77064233Y-92571523D01*
X77052682Y-92549912D01*
X77037136Y-92530970D01*
X77018194Y-92515424D01*
X76996583Y-92503873D01*
X76973134Y-92496760D01*
X76948748Y-92494358D01*
X76924362Y-92496760D01*
X76900913Y-92503873D01*
X76879302Y-92515424D01*
X76860360Y-92530970D01*
X76816611Y-92574719D01*
X76804069Y-92585012D01*
X76795211Y-92589747D01*
X76785599Y-92592663D01*
X76769460Y-92594252D01*
X76356740Y-92594252D01*
X76340601Y-92592663D01*
X76330989Y-92589747D01*
X76322131Y-92585012D01*
X76314363Y-92578637D01*
X76307988Y-92570869D01*
X76303253Y-92562011D01*
X76300337Y-92552399D01*
X76298748Y-92536260D01*
X76298748Y-92148538D01*
X76298998Y-92146000D01*
X76299600Y-92133749D01*
X76299600Y-91118506D01*
X77076600Y-91118506D01*
X77076600Y-92066294D01*
X77079002Y-92090680D01*
X77086115Y-92114129D01*
X77097666Y-92135740D01*
X77113212Y-92154682D01*
X77132154Y-92170228D01*
X77153765Y-92181779D01*
X77177214Y-92188892D01*
X77201600Y-92191294D01*
X77225986Y-92188892D01*
X77249435Y-92181779D01*
X77271046Y-92170228D01*
X77289988Y-92154682D01*
X77334589Y-92110081D01*
X77347131Y-92099788D01*
X77355989Y-92095053D01*
X77365601Y-92092137D01*
X77381740Y-92090548D01*
X77519462Y-92090548D01*
X77522000Y-92090798D01*
X77534251Y-92091400D01*
X78116949Y-92091400D01*
X78129200Y-92090798D01*
X78131738Y-92090548D01*
X78269460Y-92090548D01*
X78285599Y-92092137D01*
X78295211Y-92095053D01*
X78304069Y-92099788D01*
X78316611Y-92110081D01*
X78361212Y-92154682D01*
X78380154Y-92170228D01*
X78401765Y-92181779D01*
X78425214Y-92188892D01*
X78449600Y-92191294D01*
X78473986Y-92188892D01*
X78497435Y-92181779D01*
X78519046Y-92170228D01*
X78537988Y-92154682D01*
X78553534Y-92135740D01*
X78565085Y-92114129D01*
X78572198Y-92090680D01*
X78574600Y-92066294D01*
X78574600Y-91118506D01*
X78572198Y-91094120D01*
X78565085Y-91070671D01*
X78553534Y-91049060D01*
X78537988Y-91030118D01*
X78519046Y-91014572D01*
X78497435Y-91003021D01*
X78473986Y-90995908D01*
X78449600Y-90993506D01*
X78425214Y-90995908D01*
X78401765Y-91003021D01*
X78380154Y-91014572D01*
X78361212Y-91030118D01*
X78316611Y-91074719D01*
X78304069Y-91085012D01*
X78295211Y-91089747D01*
X78285599Y-91092663D01*
X78269460Y-91094252D01*
X78131738Y-91094252D01*
X78129200Y-91094002D01*
X78116949Y-91093400D01*
X77534251Y-91093400D01*
X77522000Y-91094002D01*
X77519462Y-91094252D01*
X77381740Y-91094252D01*
X77365601Y-91092663D01*
X77355989Y-91089747D01*
X77347131Y-91085012D01*
X77334589Y-91074719D01*
X77289988Y-91030118D01*
X77271046Y-91014572D01*
X77249435Y-91003021D01*
X77225986Y-90995908D01*
X77201600Y-90993506D01*
X77177214Y-90995908D01*
X77153765Y-91003021D01*
X77132154Y-91014572D01*
X77113212Y-91030118D01*
X77097666Y-91049060D01*
X77086115Y-91070671D01*
X77079002Y-91094120D01*
X77076600Y-91118506D01*
X76299600Y-91118506D01*
X76299600Y-91051051D01*
X76298998Y-91038800D01*
X76298748Y-91036262D01*
X76298748Y-90648540D01*
X76300337Y-90632401D01*
X76303253Y-90622789D01*
X76307988Y-90613931D01*
X76314363Y-90606163D01*
X76322131Y-90599788D01*
X76330989Y-90595053D01*
X76340601Y-90592137D01*
X76356740Y-90590548D01*
X76769460Y-90590548D01*
X76785599Y-90592137D01*
X76795211Y-90595053D01*
X76804069Y-90599788D01*
X76816611Y-90610081D01*
X76860360Y-90653830D01*
X76879302Y-90669376D01*
X76900913Y-90680927D01*
X76924362Y-90688040D01*
X76948748Y-90690442D01*
X76973134Y-90688040D01*
X76996583Y-90680927D01*
X77018194Y-90669376D01*
X77037136Y-90653830D01*
X77052682Y-90634888D01*
X77064233Y-90613277D01*
X77071346Y-90589828D01*
X77073748Y-90565442D01*
X77073748Y-90373540D01*
X77075337Y-90357401D01*
X77078253Y-90347789D01*
X77082988Y-90338931D01*
X77089363Y-90331163D01*
X77097131Y-90324788D01*
X77105989Y-90320053D01*
X77115601Y-90317137D01*
X77131740Y-90315548D01*
X77519462Y-90315548D01*
X77522000Y-90315798D01*
X77522000Y-90315798D01*
G37*
G36*
X111231643Y-91279381D02*
X111377415Y-91339762D01*
X111508611Y-91427424D01*
X111620176Y-91538989D01*
X111707838Y-91670185D01*
X111768219Y-91815957D01*
X111799000Y-91970707D01*
X111799000Y-92128493D01*
X111768219Y-92283243D01*
X111707838Y-92429015D01*
X111620176Y-92560211D01*
X111508611Y-92671776D01*
X111377415Y-92759438D01*
X111231643Y-92819819D01*
X111076893Y-92850600D01*
X110919107Y-92850600D01*
X110764357Y-92819819D01*
X110618585Y-92759438D01*
X110487389Y-92671776D01*
X110375824Y-92560211D01*
X110288162Y-92429015D01*
X110227781Y-92283243D01*
X110197000Y-92128493D01*
X110197000Y-91970707D01*
X110227781Y-91815957D01*
X110288162Y-91670185D01*
X110375824Y-91538989D01*
X110487389Y-91427424D01*
X110618585Y-91339762D01*
X110764357Y-91279381D01*
X110919107Y-91248600D01*
X111076893Y-91248600D01*
X111231643Y-91279381D01*
X111231643Y-91279381D01*
G37*
G36*
X113175665Y-91303165D02*
X113214336Y-91314896D01*
X113249978Y-91333948D01*
X113281216Y-91359583D01*
X113306851Y-91390821D01*
X113325903Y-91426463D01*
X113337634Y-91465134D01*
X113342199Y-91511488D01*
X113342199Y-92587712D01*
X113337634Y-92634066D01*
X113325903Y-92672737D01*
X113306851Y-92708379D01*
X113281216Y-92739617D01*
X113249978Y-92765252D01*
X113214336Y-92784304D01*
X113175665Y-92796035D01*
X113129311Y-92800600D01*
X112478087Y-92800600D01*
X112431733Y-92796035D01*
X112393062Y-92784304D01*
X112357420Y-92765252D01*
X112326182Y-92739617D01*
X112300547Y-92708379D01*
X112281495Y-92672737D01*
X112269764Y-92634066D01*
X112265199Y-92587712D01*
X112265199Y-91511488D01*
X112269764Y-91465134D01*
X112281495Y-91426463D01*
X112300547Y-91390821D01*
X112326182Y-91359583D01*
X112357420Y-91333948D01*
X112393062Y-91314896D01*
X112431733Y-91303165D01*
X112478087Y-91298600D01*
X113129311Y-91298600D01*
X113175665Y-91303165D01*
X113175665Y-91303165D01*
G37*
G36*
X115050667Y-91303165D02*
X115089338Y-91314896D01*
X115124980Y-91333948D01*
X115156218Y-91359583D01*
X115181853Y-91390821D01*
X115200905Y-91426463D01*
X115212636Y-91465134D01*
X115217201Y-91511488D01*
X115217201Y-92587712D01*
X115212636Y-92634066D01*
X115200905Y-92672737D01*
X115181853Y-92708379D01*
X115156218Y-92739617D01*
X115124980Y-92765252D01*
X115089338Y-92784304D01*
X115050667Y-92796035D01*
X115004313Y-92800600D01*
X114353089Y-92800600D01*
X114306735Y-92796035D01*
X114268064Y-92784304D01*
X114232422Y-92765252D01*
X114201184Y-92739617D01*
X114175549Y-92708379D01*
X114156497Y-92672737D01*
X114144766Y-92634066D01*
X114140201Y-92587712D01*
X114140201Y-91511488D01*
X114144766Y-91465134D01*
X114156497Y-91426463D01*
X114175549Y-91390821D01*
X114201184Y-91359583D01*
X114232422Y-91333948D01*
X114268064Y-91314896D01*
X114306735Y-91303165D01*
X114353089Y-91298600D01*
X115004313Y-91298600D01*
X115050667Y-91303165D01*
X115050667Y-91303165D01*
G37*
G36*
X108691643Y-90009381D02*
X108837415Y-90069762D01*
X108968611Y-90157424D01*
X109080176Y-90268989D01*
X109167838Y-90400185D01*
X109228219Y-90545957D01*
X109259000Y-90700707D01*
X109259000Y-90858493D01*
X109228219Y-91013243D01*
X109167838Y-91159015D01*
X109080176Y-91290211D01*
X108968611Y-91401776D01*
X108837415Y-91489438D01*
X108691643Y-91549819D01*
X108536893Y-91580600D01*
X108379107Y-91580600D01*
X108224357Y-91549819D01*
X108078585Y-91489438D01*
X107947389Y-91401776D01*
X107835824Y-91290211D01*
X107748162Y-91159015D01*
X107687781Y-91013243D01*
X107657000Y-90858493D01*
X107657000Y-90700707D01*
X107687781Y-90545957D01*
X107748162Y-90400185D01*
X107835824Y-90268989D01*
X107947389Y-90157424D01*
X108078585Y-90069762D01*
X108224357Y-90009381D01*
X108379107Y-89978600D01*
X108536893Y-89978600D01*
X108691643Y-90009381D01*
X108691643Y-90009381D01*
G37*
G36*
X104387266Y-89728365D02*
X104425937Y-89740096D01*
X104461579Y-89759148D01*
X104492817Y-89784783D01*
X104518452Y-89816021D01*
X104537504Y-89851663D01*
X104549235Y-89890334D01*
X104553800Y-89936688D01*
X104553800Y-91012912D01*
X104549235Y-91059266D01*
X104537504Y-91097937D01*
X104518452Y-91133579D01*
X104492817Y-91164817D01*
X104461579Y-91190452D01*
X104425937Y-91209504D01*
X104387266Y-91221235D01*
X104340912Y-91225800D01*
X103689688Y-91225800D01*
X103643334Y-91221235D01*
X103604663Y-91209504D01*
X103569021Y-91190452D01*
X103537783Y-91164817D01*
X103512148Y-91133579D01*
X103493096Y-91097937D01*
X103481365Y-91059266D01*
X103476800Y-91012912D01*
X103476800Y-89936688D01*
X103481365Y-89890334D01*
X103493096Y-89851663D01*
X103512148Y-89816021D01*
X103537783Y-89784783D01*
X103569021Y-89759148D01*
X103604663Y-89740096D01*
X103643334Y-89728365D01*
X103689688Y-89723800D01*
X104340912Y-89723800D01*
X104387266Y-89728365D01*
X104387266Y-89728365D01*
G37*
G36*
X106262266Y-89728365D02*
X106300937Y-89740096D01*
X106336579Y-89759148D01*
X106367817Y-89784783D01*
X106393452Y-89816021D01*
X106412504Y-89851663D01*
X106424235Y-89890334D01*
X106428800Y-89936688D01*
X106428800Y-91012912D01*
X106424235Y-91059266D01*
X106412504Y-91097937D01*
X106393452Y-91133579D01*
X106367817Y-91164817D01*
X106336579Y-91190452D01*
X106300937Y-91209504D01*
X106262266Y-91221235D01*
X106215912Y-91225800D01*
X105564688Y-91225800D01*
X105518334Y-91221235D01*
X105479663Y-91209504D01*
X105444021Y-91190452D01*
X105412783Y-91164817D01*
X105387148Y-91133579D01*
X105368096Y-91097937D01*
X105356365Y-91059266D01*
X105351800Y-91012912D01*
X105351800Y-89936688D01*
X105356365Y-89890334D01*
X105368096Y-89851663D01*
X105387148Y-89816021D01*
X105412783Y-89784783D01*
X105444021Y-89759148D01*
X105479663Y-89740096D01*
X105518334Y-89728365D01*
X105564688Y-89723800D01*
X106215912Y-89723800D01*
X106262266Y-89728365D01*
X106262266Y-89728365D01*
G37*
G36*
X67887466Y-89677565D02*
X67926137Y-89689296D01*
X67961779Y-89708348D01*
X67993017Y-89733983D01*
X68018652Y-89765221D01*
X68037704Y-89800863D01*
X68049435Y-89839534D01*
X68054000Y-89885888D01*
X68054000Y-90962112D01*
X68049435Y-91008466D01*
X68037704Y-91047137D01*
X68018652Y-91082779D01*
X67993017Y-91114017D01*
X67961779Y-91139652D01*
X67926137Y-91158704D01*
X67887466Y-91170435D01*
X67841112Y-91175000D01*
X67189888Y-91175000D01*
X67143534Y-91170435D01*
X67104863Y-91158704D01*
X67069221Y-91139652D01*
X67037983Y-91114017D01*
X67012348Y-91082779D01*
X66993296Y-91047137D01*
X66981565Y-91008466D01*
X66977000Y-90962112D01*
X66977000Y-89885888D01*
X66981565Y-89839534D01*
X66993296Y-89800863D01*
X67012348Y-89765221D01*
X67037983Y-89733983D01*
X67069221Y-89708348D01*
X67104863Y-89689296D01*
X67143534Y-89677565D01*
X67189888Y-89673000D01*
X67841112Y-89673000D01*
X67887466Y-89677565D01*
X67887466Y-89677565D01*
G37*
G36*
X69762466Y-89677565D02*
X69801137Y-89689296D01*
X69836779Y-89708348D01*
X69868017Y-89733983D01*
X69893652Y-89765221D01*
X69912704Y-89800863D01*
X69924435Y-89839534D01*
X69929000Y-89885888D01*
X69929000Y-90962112D01*
X69924435Y-91008466D01*
X69912704Y-91047137D01*
X69893652Y-91082779D01*
X69868017Y-91114017D01*
X69836779Y-91139652D01*
X69801137Y-91158704D01*
X69762466Y-91170435D01*
X69716112Y-91175000D01*
X69064888Y-91175000D01*
X69018534Y-91170435D01*
X68979863Y-91158704D01*
X68944221Y-91139652D01*
X68912983Y-91114017D01*
X68887348Y-91082779D01*
X68868296Y-91047137D01*
X68856565Y-91008466D01*
X68852000Y-90962112D01*
X68852000Y-89885888D01*
X68856565Y-89839534D01*
X68868296Y-89800863D01*
X68887348Y-89765221D01*
X68912983Y-89733983D01*
X68944221Y-89708348D01*
X68979863Y-89689296D01*
X69018534Y-89677565D01*
X69064888Y-89673000D01*
X69716112Y-89673000D01*
X69762466Y-89677565D01*
X69762466Y-89677565D01*
G37*
G36*
X117697943Y-87895863D02*
X117829579Y-87922047D01*
X118042037Y-88010050D01*
X118107704Y-88037250D01*
X118130042Y-88046503D01*
X118396852Y-88224780D01*
X118400454Y-88227187D01*
X118630413Y-88457146D01*
X118630415Y-88457149D01*
X118811097Y-88727558D01*
X118935553Y-89028021D01*
X118946183Y-89081463D01*
X118999000Y-89346989D01*
X118999000Y-89672211D01*
X118965781Y-89839212D01*
X118935553Y-89991179D01*
X118811097Y-90291642D01*
X118699115Y-90459235D01*
X118630413Y-90562054D01*
X118400454Y-90792013D01*
X118400451Y-90792015D01*
X118130042Y-90972697D01*
X118130041Y-90972698D01*
X118130040Y-90972698D01*
X118043688Y-91008466D01*
X117829579Y-91097153D01*
X117784413Y-91106137D01*
X117510611Y-91160600D01*
X117185389Y-91160600D01*
X116911587Y-91106137D01*
X116866421Y-91097153D01*
X116652312Y-91008466D01*
X116565960Y-90972698D01*
X116565959Y-90972698D01*
X116565958Y-90972697D01*
X116295549Y-90792015D01*
X116295546Y-90792013D01*
X116065587Y-90562054D01*
X115996885Y-90459235D01*
X115884903Y-90291642D01*
X115760447Y-89991179D01*
X115730219Y-89839212D01*
X115697000Y-89672211D01*
X115697000Y-89346989D01*
X115749817Y-89081463D01*
X115760447Y-89028021D01*
X115884903Y-88727558D01*
X116065585Y-88457149D01*
X116065587Y-88457146D01*
X116295546Y-88227187D01*
X116299148Y-88224780D01*
X116565958Y-88046503D01*
X116588297Y-88037250D01*
X116653963Y-88010050D01*
X116866421Y-87922047D01*
X116998057Y-87895863D01*
X117185389Y-87858600D01*
X117510611Y-87858600D01*
X117697943Y-87895863D01*
X117697943Y-87895863D01*
G37*
G36*
X112612267Y-88966365D02*
X112650938Y-88978096D01*
X112686580Y-88997148D01*
X112717818Y-89022783D01*
X112743453Y-89054021D01*
X112762505Y-89089663D01*
X112774236Y-89128334D01*
X112778801Y-89174688D01*
X112778801Y-90250912D01*
X112774236Y-90297266D01*
X112762505Y-90335937D01*
X112743453Y-90371579D01*
X112717818Y-90402817D01*
X112686580Y-90428452D01*
X112650938Y-90447504D01*
X112612267Y-90459235D01*
X112565913Y-90463800D01*
X111914689Y-90463800D01*
X111868335Y-90459235D01*
X111829664Y-90447504D01*
X111794022Y-90428452D01*
X111762784Y-90402817D01*
X111737149Y-90371579D01*
X111718097Y-90335937D01*
X111706366Y-90297266D01*
X111701801Y-90250912D01*
X111701801Y-89174688D01*
X111706366Y-89128334D01*
X111718097Y-89089663D01*
X111737149Y-89054021D01*
X111762784Y-89022783D01*
X111794022Y-88997148D01*
X111829664Y-88978096D01*
X111868335Y-88966365D01*
X111914689Y-88961800D01*
X112565913Y-88961800D01*
X112612267Y-88966365D01*
X112612267Y-88966365D01*
G37*
G36*
X110737265Y-88966365D02*
X110775936Y-88978096D01*
X110811578Y-88997148D01*
X110842816Y-89022783D01*
X110868451Y-89054021D01*
X110887503Y-89089663D01*
X110899234Y-89128334D01*
X110903799Y-89174688D01*
X110903799Y-90250912D01*
X110899234Y-90297266D01*
X110887503Y-90335937D01*
X110868451Y-90371579D01*
X110842816Y-90402817D01*
X110811578Y-90428452D01*
X110775936Y-90447504D01*
X110737265Y-90459235D01*
X110690911Y-90463800D01*
X110039687Y-90463800D01*
X109993333Y-90459235D01*
X109954662Y-90447504D01*
X109919020Y-90428452D01*
X109887782Y-90402817D01*
X109862147Y-90371579D01*
X109843095Y-90335937D01*
X109831364Y-90297266D01*
X109826799Y-90250912D01*
X109826799Y-89174688D01*
X109831364Y-89128334D01*
X109843095Y-89089663D01*
X109862147Y-89054021D01*
X109887782Y-89022783D01*
X109919020Y-88997148D01*
X109954662Y-88978096D01*
X109993333Y-88966365D01*
X110039687Y-88961800D01*
X110690911Y-88961800D01*
X110737265Y-88966365D01*
X110737265Y-88966365D01*
G37*
G36*
X97575466Y-88407565D02*
X97614137Y-88419296D01*
X97649779Y-88438348D01*
X97681017Y-88463983D01*
X97706652Y-88495221D01*
X97725704Y-88530863D01*
X97737435Y-88569534D01*
X97742000Y-88615888D01*
X97742000Y-89692112D01*
X97737435Y-89738466D01*
X97725704Y-89777137D01*
X97706652Y-89812779D01*
X97681017Y-89844017D01*
X97649779Y-89869652D01*
X97614137Y-89888704D01*
X97575466Y-89900435D01*
X97529112Y-89905000D01*
X96877888Y-89905000D01*
X96831534Y-89900435D01*
X96792863Y-89888704D01*
X96757221Y-89869652D01*
X96725983Y-89844017D01*
X96700348Y-89812779D01*
X96681296Y-89777137D01*
X96669565Y-89738466D01*
X96665000Y-89692112D01*
X96665000Y-88615888D01*
X96669565Y-88569534D01*
X96681296Y-88530863D01*
X96700348Y-88495221D01*
X96725983Y-88463983D01*
X96757221Y-88438348D01*
X96792863Y-88419296D01*
X96831534Y-88407565D01*
X96877888Y-88403000D01*
X97529112Y-88403000D01*
X97575466Y-88407565D01*
X97575466Y-88407565D01*
G37*
G36*
X95700466Y-88407565D02*
X95739137Y-88419296D01*
X95774779Y-88438348D01*
X95806017Y-88463983D01*
X95831652Y-88495221D01*
X95850704Y-88530863D01*
X95862435Y-88569534D01*
X95867000Y-88615888D01*
X95867000Y-89692112D01*
X95862435Y-89738466D01*
X95850704Y-89777137D01*
X95831652Y-89812779D01*
X95806017Y-89844017D01*
X95774779Y-89869652D01*
X95739137Y-89888704D01*
X95700466Y-89900435D01*
X95654112Y-89905000D01*
X95002888Y-89905000D01*
X94956534Y-89900435D01*
X94917863Y-89888704D01*
X94882221Y-89869652D01*
X94850983Y-89844017D01*
X94825348Y-89812779D01*
X94806296Y-89777137D01*
X94794565Y-89738466D01*
X94790000Y-89692112D01*
X94790000Y-88615888D01*
X94794565Y-88569534D01*
X94806296Y-88530863D01*
X94825348Y-88495221D01*
X94850983Y-88463983D01*
X94882221Y-88438348D01*
X94917863Y-88419296D01*
X94956534Y-88407565D01*
X95002888Y-88403000D01*
X95654112Y-88403000D01*
X95700466Y-88407565D01*
X95700466Y-88407565D01*
G37*
G36*
X67861966Y-87772565D02*
X67900637Y-87784296D01*
X67936279Y-87803348D01*
X67967517Y-87828983D01*
X67993152Y-87860221D01*
X68012204Y-87895863D01*
X68023935Y-87934534D01*
X68028500Y-87980888D01*
X68028500Y-89057112D01*
X68023935Y-89103466D01*
X68012204Y-89142137D01*
X67993152Y-89177779D01*
X67967517Y-89209017D01*
X67936279Y-89234652D01*
X67900637Y-89253704D01*
X67861966Y-89265435D01*
X67815612Y-89270000D01*
X67164388Y-89270000D01*
X67118034Y-89265435D01*
X67079363Y-89253704D01*
X67043721Y-89234652D01*
X67012483Y-89209017D01*
X66986848Y-89177779D01*
X66967796Y-89142137D01*
X66956065Y-89103466D01*
X66951500Y-89057112D01*
X66951500Y-87980888D01*
X66956065Y-87934534D01*
X66967796Y-87895863D01*
X66986848Y-87860221D01*
X67012483Y-87828983D01*
X67043721Y-87803348D01*
X67079363Y-87784296D01*
X67118034Y-87772565D01*
X67164388Y-87768000D01*
X67815612Y-87768000D01*
X67861966Y-87772565D01*
X67861966Y-87772565D01*
G37*
G36*
X69736966Y-87772565D02*
X69775637Y-87784296D01*
X69811279Y-87803348D01*
X69842517Y-87828983D01*
X69868152Y-87860221D01*
X69887204Y-87895863D01*
X69898935Y-87934534D01*
X69903500Y-87980888D01*
X69903500Y-89057112D01*
X69898935Y-89103466D01*
X69887204Y-89142137D01*
X69868152Y-89177779D01*
X69842517Y-89209017D01*
X69811279Y-89234652D01*
X69775637Y-89253704D01*
X69736966Y-89265435D01*
X69690612Y-89270000D01*
X69039388Y-89270000D01*
X68993034Y-89265435D01*
X68954363Y-89253704D01*
X68918721Y-89234652D01*
X68887483Y-89209017D01*
X68861848Y-89177779D01*
X68842796Y-89142137D01*
X68831065Y-89103466D01*
X68826500Y-89057112D01*
X68826500Y-87980888D01*
X68831065Y-87934534D01*
X68842796Y-87895863D01*
X68861848Y-87860221D01*
X68887483Y-87828983D01*
X68918721Y-87803348D01*
X68954363Y-87784296D01*
X68993034Y-87772565D01*
X69039388Y-87768000D01*
X69690612Y-87768000D01*
X69736966Y-87772565D01*
X69736966Y-87772565D01*
G37*
G36*
X95700466Y-86426365D02*
X95739137Y-86438096D01*
X95774779Y-86457148D01*
X95806017Y-86482783D01*
X95831652Y-86514021D01*
X95850704Y-86549663D01*
X95862435Y-86588334D01*
X95867000Y-86634688D01*
X95867000Y-87710912D01*
X95862435Y-87757266D01*
X95850704Y-87795937D01*
X95831652Y-87831579D01*
X95806017Y-87862817D01*
X95774779Y-87888452D01*
X95739137Y-87907504D01*
X95700466Y-87919235D01*
X95654112Y-87923800D01*
X95002888Y-87923800D01*
X94956534Y-87919235D01*
X94917863Y-87907504D01*
X94882221Y-87888452D01*
X94850983Y-87862817D01*
X94825348Y-87831579D01*
X94806296Y-87795937D01*
X94794565Y-87757266D01*
X94790000Y-87710912D01*
X94790000Y-86634688D01*
X94794565Y-86588334D01*
X94806296Y-86549663D01*
X94825348Y-86514021D01*
X94850983Y-86482783D01*
X94882221Y-86457148D01*
X94917863Y-86438096D01*
X94956534Y-86426365D01*
X95002888Y-86421800D01*
X95654112Y-86421800D01*
X95700466Y-86426365D01*
X95700466Y-86426365D01*
G37*
G36*
X97575466Y-86426365D02*
X97614137Y-86438096D01*
X97649779Y-86457148D01*
X97681017Y-86482783D01*
X97706652Y-86514021D01*
X97725704Y-86549663D01*
X97737435Y-86588334D01*
X97742000Y-86634688D01*
X97742000Y-87710912D01*
X97737435Y-87757266D01*
X97725704Y-87795937D01*
X97706652Y-87831579D01*
X97681017Y-87862817D01*
X97649779Y-87888452D01*
X97614137Y-87907504D01*
X97575466Y-87919235D01*
X97529112Y-87923800D01*
X96877888Y-87923800D01*
X96831534Y-87919235D01*
X96792863Y-87907504D01*
X96757221Y-87888452D01*
X96725983Y-87862817D01*
X96700348Y-87831579D01*
X96681296Y-87795937D01*
X96669565Y-87757266D01*
X96665000Y-87710912D01*
X96665000Y-86634688D01*
X96669565Y-86588334D01*
X96681296Y-86549663D01*
X96700348Y-86514021D01*
X96725983Y-86482783D01*
X96757221Y-86457148D01*
X96792863Y-86438096D01*
X96831534Y-86426365D01*
X96877888Y-86421800D01*
X97529112Y-86421800D01*
X97575466Y-86426365D01*
X97575466Y-86426365D01*
G37*
G36*
X89738466Y-85747565D02*
X89777137Y-85759296D01*
X89812779Y-85778348D01*
X89844017Y-85803983D01*
X89869652Y-85835221D01*
X89888704Y-85870863D01*
X89900435Y-85909534D01*
X89905000Y-85955888D01*
X89905000Y-86607112D01*
X89900435Y-86653466D01*
X89888704Y-86692137D01*
X89869652Y-86727779D01*
X89844017Y-86759017D01*
X89812779Y-86784652D01*
X89777137Y-86803704D01*
X89738466Y-86815435D01*
X89692112Y-86820000D01*
X88615888Y-86820000D01*
X88569534Y-86815435D01*
X88530863Y-86803704D01*
X88495221Y-86784652D01*
X88463983Y-86759017D01*
X88438348Y-86727779D01*
X88419296Y-86692137D01*
X88407565Y-86653466D01*
X88403000Y-86607112D01*
X88403000Y-85955888D01*
X88407565Y-85909534D01*
X88419296Y-85870863D01*
X88438348Y-85835221D01*
X88463983Y-85803983D01*
X88495221Y-85778348D01*
X88530863Y-85759296D01*
X88569534Y-85747565D01*
X88615888Y-85743000D01*
X89692112Y-85743000D01*
X89738466Y-85747565D01*
X89738466Y-85747565D01*
G37*
G36*
X72276328Y-84189609D02*
X72358386Y-84214501D01*
X72434005Y-84254921D01*
X72500285Y-84309315D01*
X72554679Y-84375595D01*
X72595099Y-84451214D01*
X72619991Y-84533272D01*
X72629000Y-84624740D01*
X72629000Y-85738460D01*
X72619991Y-85829928D01*
X72595099Y-85911986D01*
X72554679Y-85987605D01*
X72500285Y-86053885D01*
X72434005Y-86108279D01*
X72358386Y-86148699D01*
X72276328Y-86173591D01*
X72184860Y-86182600D01*
X71071140Y-86182600D01*
X70979672Y-86173591D01*
X70897614Y-86148699D01*
X70821995Y-86108279D01*
X70755715Y-86053885D01*
X70701321Y-85987605D01*
X70660901Y-85911986D01*
X70636009Y-85829928D01*
X70627000Y-85738460D01*
X70627000Y-84624740D01*
X70636009Y-84533272D01*
X70660901Y-84451214D01*
X70701321Y-84375595D01*
X70755715Y-84309315D01*
X70821995Y-84254921D01*
X70897614Y-84214501D01*
X70979672Y-84189609D01*
X71071140Y-84180600D01*
X72184860Y-84180600D01*
X72276328Y-84189609D01*
X72276328Y-84189609D01*
G37*
G36*
X69776328Y-84189609D02*
X69858386Y-84214501D01*
X69934005Y-84254921D01*
X70000285Y-84309315D01*
X70054679Y-84375595D01*
X70095099Y-84451214D01*
X70119991Y-84533272D01*
X70129000Y-84624740D01*
X70129000Y-85738460D01*
X70119991Y-85829928D01*
X70095099Y-85911986D01*
X70054679Y-85987605D01*
X70000285Y-86053885D01*
X69934005Y-86108279D01*
X69858386Y-86148699D01*
X69776328Y-86173591D01*
X69684860Y-86182600D01*
X68571140Y-86182600D01*
X68479672Y-86173591D01*
X68397614Y-86148699D01*
X68321995Y-86108279D01*
X68255715Y-86053885D01*
X68201321Y-85987605D01*
X68160901Y-85911986D01*
X68136009Y-85829928D01*
X68127000Y-85738460D01*
X68127000Y-84624740D01*
X68136009Y-84533272D01*
X68160901Y-84451214D01*
X68201321Y-84375595D01*
X68255715Y-84309315D01*
X68321995Y-84254921D01*
X68397614Y-84214501D01*
X68479672Y-84189609D01*
X68571140Y-84180600D01*
X69684860Y-84180600D01*
X69776328Y-84189609D01*
X69776328Y-84189609D01*
G37*
G36*
X74776328Y-84189609D02*
X74858386Y-84214501D01*
X74934005Y-84254921D01*
X75000285Y-84309315D01*
X75054679Y-84375595D01*
X75095099Y-84451214D01*
X75119991Y-84533272D01*
X75129000Y-84624740D01*
X75129000Y-85738460D01*
X75119991Y-85829928D01*
X75095099Y-85911986D01*
X75054679Y-85987605D01*
X75000285Y-86053885D01*
X74934005Y-86108279D01*
X74858386Y-86148699D01*
X74776328Y-86173591D01*
X74684860Y-86182600D01*
X73571140Y-86182600D01*
X73479672Y-86173591D01*
X73397614Y-86148699D01*
X73321995Y-86108279D01*
X73255715Y-86053885D01*
X73201321Y-85987605D01*
X73160901Y-85911986D01*
X73136009Y-85829928D01*
X73127000Y-85738460D01*
X73127000Y-84624740D01*
X73136009Y-84533272D01*
X73160901Y-84451214D01*
X73201321Y-84375595D01*
X73255715Y-84309315D01*
X73321995Y-84254921D01*
X73397614Y-84214501D01*
X73479672Y-84189609D01*
X73571140Y-84180600D01*
X74684860Y-84180600D01*
X74776328Y-84189609D01*
X74776328Y-84189609D01*
G37*
G36*
X87734000Y-86110000D02*
X86732000Y-86110000D01*
X86732000Y-85208000D01*
X87734000Y-85208000D01*
X87734000Y-86110000D01*
X87734000Y-86110000D01*
G37*
G36*
X103172413Y-83337325D02*
X103247456Y-83360090D01*
X103257425Y-83363114D01*
X103335774Y-83404993D01*
X103404448Y-83461352D01*
X103460807Y-83530026D01*
X103502686Y-83608375D01*
X103502687Y-83608379D01*
X103528475Y-83693387D01*
X103537182Y-83781800D01*
X103528475Y-83870213D01*
X103511454Y-83926321D01*
X103506673Y-83950354D01*
X103506673Y-83974858D01*
X103511453Y-83998892D01*
X103520830Y-84021531D01*
X103534444Y-84041906D01*
X103551771Y-84059233D01*
X103572146Y-84072847D01*
X103594785Y-84082224D01*
X103618818Y-84087005D01*
X103643322Y-84087005D01*
X103667356Y-84082225D01*
X103689995Y-84072848D01*
X103710370Y-84059234D01*
X103727698Y-84041906D01*
X103757632Y-84005431D01*
X103757634Y-84005429D01*
X103875791Y-83908459D01*
X104010600Y-83836402D01*
X104010602Y-83836401D01*
X104156879Y-83792029D01*
X104156882Y-83792028D01*
X104309000Y-83777046D01*
X104461119Y-83792028D01*
X104461122Y-83792029D01*
X104607399Y-83836401D01*
X104607401Y-83836402D01*
X104742210Y-83908459D01*
X104860369Y-84005431D01*
X104957341Y-84123590D01*
X105027539Y-84254921D01*
X105029399Y-84258401D01*
X105055971Y-84346000D01*
X105073772Y-84404681D01*
X105085000Y-84518682D01*
X105085000Y-85144918D01*
X105073772Y-85258919D01*
X105073771Y-85258921D01*
X105073771Y-85258922D01*
X105034722Y-85387652D01*
X105029398Y-85405201D01*
X104957341Y-85540010D01*
X104860369Y-85658169D01*
X104742209Y-85755141D01*
X104726580Y-85763495D01*
X104607398Y-85827199D01*
X104490487Y-85862663D01*
X104461118Y-85871572D01*
X104309000Y-85886554D01*
X104156881Y-85871572D01*
X104127512Y-85862663D01*
X104010601Y-85827199D01*
X103891419Y-85763495D01*
X103875790Y-85755141D01*
X103757631Y-85658169D01*
X103660659Y-85540009D01*
X103588602Y-85405200D01*
X103580237Y-85377623D01*
X103544229Y-85258921D01*
X103544228Y-85258918D01*
X103533000Y-85144917D01*
X103533000Y-84518682D01*
X103544228Y-84404681D01*
X103562029Y-84346000D01*
X103588601Y-84258401D01*
X103588602Y-84258399D01*
X103590844Y-84251008D01*
X103594345Y-84242554D01*
X103599123Y-84218521D01*
X103599121Y-84194016D01*
X103594338Y-84169983D01*
X103584959Y-84147345D01*
X103571344Y-84126972D01*
X103554015Y-84109646D01*
X103533639Y-84096034D01*
X103510999Y-84086658D01*
X103486966Y-84081880D01*
X103462461Y-84081882D01*
X103438428Y-84086665D01*
X103415790Y-84096044D01*
X103395429Y-84109650D01*
X103374313Y-84126979D01*
X103335775Y-84158607D01*
X103310735Y-84171991D01*
X103257425Y-84200486D01*
X103247456Y-84203510D01*
X103172413Y-84226275D01*
X103106158Y-84232800D01*
X103061842Y-84232800D01*
X102995587Y-84226275D01*
X102920544Y-84203510D01*
X102910575Y-84200486D01*
X102832226Y-84158607D01*
X102763552Y-84102248D01*
X102707193Y-84033574D01*
X102665314Y-83955225D01*
X102662290Y-83945256D01*
X102639525Y-83870213D01*
X102630818Y-83781800D01*
X102639525Y-83693387D01*
X102665313Y-83608379D01*
X102665314Y-83608375D01*
X102707193Y-83530026D01*
X102763552Y-83461352D01*
X102832226Y-83404993D01*
X102910575Y-83363114D01*
X102920544Y-83360090D01*
X102995587Y-83337325D01*
X103061842Y-83330800D01*
X103106158Y-83330800D01*
X103172413Y-83337325D01*
X103172413Y-83337325D01*
G37*
G36*
X98172413Y-83337325D02*
X98247456Y-83360090D01*
X98257425Y-83363114D01*
X98335774Y-83404993D01*
X98404448Y-83461352D01*
X98460807Y-83530026D01*
X98502686Y-83608375D01*
X98502687Y-83608379D01*
X98528475Y-83693387D01*
X98537182Y-83781800D01*
X98528475Y-83870213D01*
X98505710Y-83945256D01*
X98502686Y-83955225D01*
X98460807Y-84033574D01*
X98404448Y-84102248D01*
X98335774Y-84158607D01*
X98257425Y-84200486D01*
X98247456Y-84203510D01*
X98172413Y-84226275D01*
X98106158Y-84232800D01*
X98061842Y-84232800D01*
X97995587Y-84226275D01*
X97920544Y-84203510D01*
X97910575Y-84200486D01*
X97857265Y-84171991D01*
X97832225Y-84158607D01*
X97793687Y-84126979D01*
X97772571Y-84109650D01*
X97752202Y-84096039D01*
X97729563Y-84086662D01*
X97705529Y-84081881D01*
X97681025Y-84081881D01*
X97656992Y-84086661D01*
X97634352Y-84096038D01*
X97613978Y-84109652D01*
X97596650Y-84126979D01*
X97583036Y-84147353D01*
X97573659Y-84169992D01*
X97568878Y-84194026D01*
X97568878Y-84218530D01*
X97573658Y-84242563D01*
X97577157Y-84251012D01*
X97579398Y-84258399D01*
X97579399Y-84258401D01*
X97605971Y-84346000D01*
X97623772Y-84404681D01*
X97635000Y-84518682D01*
X97635000Y-85144918D01*
X97623772Y-85258919D01*
X97623771Y-85258921D01*
X97623771Y-85258922D01*
X97584722Y-85387652D01*
X97579398Y-85405201D01*
X97507341Y-85540010D01*
X97410369Y-85658169D01*
X97292209Y-85755141D01*
X97276580Y-85763495D01*
X97157398Y-85827199D01*
X97040487Y-85862663D01*
X97011118Y-85871572D01*
X96859000Y-85886554D01*
X96706881Y-85871572D01*
X96677512Y-85862663D01*
X96560601Y-85827199D01*
X96441419Y-85763495D01*
X96425790Y-85755141D01*
X96307631Y-85658169D01*
X96210659Y-85540009D01*
X96138602Y-85405200D01*
X96130237Y-85377623D01*
X96094229Y-85258921D01*
X96094228Y-85258918D01*
X96083000Y-85144917D01*
X96083000Y-84518682D01*
X96094228Y-84404681D01*
X96112029Y-84346000D01*
X96138601Y-84258401D01*
X96140461Y-84254921D01*
X96210660Y-84123590D01*
X96307632Y-84005431D01*
X96425791Y-83908459D01*
X96560600Y-83836402D01*
X96560602Y-83836401D01*
X96706879Y-83792029D01*
X96706882Y-83792028D01*
X96859000Y-83777046D01*
X97011119Y-83792028D01*
X97011122Y-83792029D01*
X97157399Y-83836401D01*
X97157401Y-83836402D01*
X97292210Y-83908459D01*
X97355281Y-83960221D01*
X97410367Y-84005429D01*
X97410370Y-84005432D01*
X97440304Y-84041905D01*
X97457631Y-84059232D01*
X97478006Y-84072846D01*
X97500645Y-84082223D01*
X97524678Y-84087003D01*
X97549183Y-84087003D01*
X97573216Y-84082222D01*
X97595855Y-84072844D01*
X97616229Y-84059230D01*
X97633556Y-84041903D01*
X97647170Y-84021528D01*
X97656547Y-83998889D01*
X97661327Y-83974856D01*
X97661327Y-83950351D01*
X97656547Y-83926324D01*
X97645072Y-83888495D01*
X97639525Y-83870211D01*
X97630818Y-83781800D01*
X97639525Y-83693387D01*
X97665313Y-83608379D01*
X97665314Y-83608375D01*
X97707193Y-83530026D01*
X97763552Y-83461352D01*
X97832226Y-83404993D01*
X97910575Y-83363114D01*
X97920544Y-83360090D01*
X97995587Y-83337325D01*
X98061842Y-83330800D01*
X98106158Y-83330800D01*
X98172413Y-83337325D01*
X98172413Y-83337325D01*
G37*
G36*
X95326466Y-84350565D02*
X95365137Y-84362296D01*
X95400779Y-84381348D01*
X95432017Y-84406983D01*
X95457652Y-84438221D01*
X95476704Y-84473863D01*
X95488435Y-84512534D01*
X95493000Y-84558888D01*
X95493000Y-85210112D01*
X95488435Y-85256466D01*
X95476704Y-85295137D01*
X95457652Y-85330779D01*
X95432017Y-85362017D01*
X95400779Y-85387652D01*
X95365137Y-85406704D01*
X95326466Y-85418435D01*
X95280112Y-85423000D01*
X94203888Y-85423000D01*
X94157534Y-85418435D01*
X94118863Y-85406704D01*
X94083221Y-85387652D01*
X94051983Y-85362017D01*
X94026348Y-85330779D01*
X94007296Y-85295137D01*
X93995565Y-85256466D01*
X93991000Y-85210112D01*
X93991000Y-84558888D01*
X93995565Y-84512534D01*
X94007296Y-84473863D01*
X94026348Y-84438221D01*
X94051983Y-84406983D01*
X94083221Y-84381348D01*
X94118863Y-84362296D01*
X94157534Y-84350565D01*
X94203888Y-84346000D01*
X95280112Y-84346000D01*
X95326466Y-84350565D01*
X95326466Y-84350565D01*
G37*
G36*
X85734000Y-85160000D02*
X84732000Y-85160000D01*
X84732000Y-84258000D01*
X85734000Y-84258000D01*
X85734000Y-85160000D01*
X85734000Y-85160000D01*
G37*
G36*
X89738466Y-83872565D02*
X89777137Y-83884296D01*
X89812779Y-83903348D01*
X89844017Y-83928983D01*
X89869652Y-83960221D01*
X89888704Y-83995863D01*
X89900435Y-84034534D01*
X89905000Y-84080888D01*
X89905000Y-84732112D01*
X89900435Y-84778466D01*
X89888704Y-84817137D01*
X89869652Y-84852779D01*
X89844017Y-84884017D01*
X89812779Y-84909652D01*
X89777137Y-84928704D01*
X89738466Y-84940435D01*
X89692112Y-84945000D01*
X88615888Y-84945000D01*
X88569534Y-84940435D01*
X88530863Y-84928704D01*
X88495221Y-84909652D01*
X88463983Y-84884017D01*
X88438348Y-84852779D01*
X88419296Y-84817137D01*
X88407565Y-84778466D01*
X88403000Y-84732112D01*
X88403000Y-84080888D01*
X88407565Y-84034534D01*
X88419296Y-83995863D01*
X88438348Y-83960221D01*
X88463983Y-83928983D01*
X88495221Y-83903348D01*
X88530863Y-83884296D01*
X88569534Y-83872565D01*
X88615888Y-83868000D01*
X89692112Y-83868000D01*
X89738466Y-83872565D01*
X89738466Y-83872565D01*
G37*
G36*
X87734000Y-84210000D02*
X86732000Y-84210000D01*
X86732000Y-83308000D01*
X87734000Y-83308000D01*
X87734000Y-84210000D01*
X87734000Y-84210000D01*
G37*
G36*
X95326466Y-82475565D02*
X95365137Y-82487296D01*
X95400779Y-82506348D01*
X95432017Y-82531983D01*
X95457652Y-82563221D01*
X95476704Y-82598863D01*
X95488435Y-82637534D01*
X95493000Y-82683888D01*
X95493000Y-83335112D01*
X95488435Y-83381466D01*
X95476704Y-83420137D01*
X95457652Y-83455779D01*
X95432017Y-83487017D01*
X95400779Y-83512652D01*
X95365137Y-83531704D01*
X95326466Y-83543435D01*
X95280112Y-83548000D01*
X94203888Y-83548000D01*
X94157534Y-83543435D01*
X94118863Y-83531704D01*
X94083221Y-83512652D01*
X94051983Y-83487017D01*
X94026348Y-83455779D01*
X94007296Y-83420137D01*
X93995565Y-83381466D01*
X93991000Y-83335112D01*
X93991000Y-82683888D01*
X93995565Y-82637534D01*
X94007296Y-82598863D01*
X94026348Y-82563221D01*
X94051983Y-82531983D01*
X94083221Y-82506348D01*
X94118863Y-82487296D01*
X94157534Y-82475565D01*
X94203888Y-82471000D01*
X95280112Y-82471000D01*
X95326466Y-82475565D01*
X95326466Y-82475565D01*
G37*
G36*
X91434256Y-79417298D02*
X91540579Y-79438447D01*
X91841042Y-79562903D01*
X91942357Y-79630600D01*
X92111454Y-79743587D01*
X92341413Y-79973546D01*
X92341415Y-79973549D01*
X92481889Y-80183782D01*
X92522098Y-80243960D01*
X92558550Y-80331963D01*
X92614103Y-80466079D01*
X92646553Y-80544422D01*
X92710000Y-80863389D01*
X92710000Y-81188611D01*
X92685345Y-81312558D01*
X92646553Y-81507579D01*
X92522097Y-81808042D01*
X92403304Y-81985828D01*
X92341413Y-82078454D01*
X92111454Y-82308413D01*
X92111451Y-82308415D01*
X91841042Y-82489097D01*
X91841041Y-82489098D01*
X91841040Y-82489098D01*
X91775182Y-82516377D01*
X91540579Y-82613553D01*
X91434256Y-82634702D01*
X91221611Y-82677000D01*
X90896389Y-82677000D01*
X90683744Y-82634702D01*
X90577421Y-82613553D01*
X90342818Y-82516377D01*
X90276960Y-82489098D01*
X90276959Y-82489098D01*
X90276958Y-82489097D01*
X90006549Y-82308415D01*
X90006546Y-82308413D01*
X89776587Y-82078454D01*
X89714696Y-81985828D01*
X89595903Y-81808042D01*
X89471447Y-81507579D01*
X89432655Y-81312558D01*
X89408000Y-81188611D01*
X89408000Y-80863389D01*
X89471447Y-80544422D01*
X89503898Y-80466079D01*
X89559450Y-80331963D01*
X89595902Y-80243960D01*
X89636112Y-80183782D01*
X89776585Y-79973549D01*
X89776587Y-79973546D01*
X90006546Y-79743587D01*
X90175643Y-79630600D01*
X90276958Y-79562903D01*
X90577421Y-79438447D01*
X90683744Y-79417298D01*
X90896389Y-79375000D01*
X91221611Y-79375000D01*
X91434256Y-79417298D01*
X91434256Y-79417298D01*
G37*
G36*
X69332472Y-80707538D02*
X69460049Y-80760382D01*
X69574865Y-80837100D01*
X69672500Y-80934735D01*
X69749218Y-81049551D01*
X69802062Y-81177128D01*
X69829000Y-81312556D01*
X69829000Y-81450644D01*
X69802062Y-81586072D01*
X69749218Y-81713649D01*
X69672500Y-81828465D01*
X69574865Y-81926100D01*
X69460049Y-82002818D01*
X69332472Y-82055662D01*
X69197044Y-82082600D01*
X69058956Y-82082600D01*
X68923528Y-82055662D01*
X68795951Y-82002818D01*
X68681135Y-81926100D01*
X68583500Y-81828465D01*
X68506782Y-81713649D01*
X68453938Y-81586072D01*
X68427000Y-81450644D01*
X68427000Y-81312556D01*
X68453938Y-81177128D01*
X68506782Y-81049551D01*
X68583500Y-80934735D01*
X68681135Y-80837100D01*
X68795951Y-80760382D01*
X68923528Y-80707538D01*
X69058956Y-80680600D01*
X69197044Y-80680600D01*
X69332472Y-80707538D01*
X69332472Y-80707538D01*
G37*
G36*
X74332472Y-80707538D02*
X74460049Y-80760382D01*
X74574865Y-80837100D01*
X74672500Y-80934735D01*
X74749218Y-81049551D01*
X74802062Y-81177128D01*
X74829000Y-81312556D01*
X74829000Y-81450644D01*
X74802062Y-81586072D01*
X74749218Y-81713649D01*
X74672500Y-81828465D01*
X74574865Y-81926100D01*
X74460049Y-82002818D01*
X74332472Y-82055662D01*
X74197044Y-82082600D01*
X74058956Y-82082600D01*
X73923528Y-82055662D01*
X73795951Y-82002818D01*
X73681135Y-81926100D01*
X73583500Y-81828465D01*
X73506782Y-81713649D01*
X73453938Y-81586072D01*
X73427000Y-81450644D01*
X73427000Y-81312556D01*
X73453938Y-81177128D01*
X73506782Y-81049551D01*
X73583500Y-80934735D01*
X73681135Y-80837100D01*
X73795951Y-80760382D01*
X73923528Y-80707538D01*
X74058956Y-80680600D01*
X74197044Y-80680600D01*
X74332472Y-80707538D01*
X74332472Y-80707538D01*
G37*
G36*
X104581714Y-80089858D02*
X104581717Y-80089859D01*
X104699719Y-80125654D01*
X104699721Y-80125655D01*
X104808471Y-80183783D01*
X104903790Y-80262010D01*
X104982017Y-80357329D01*
X105040145Y-80466079D01*
X105075942Y-80584086D01*
X105085000Y-80676053D01*
X105085000Y-81387547D01*
X105075942Y-81479514D01*
X105075941Y-81479516D01*
X105075941Y-81479517D01*
X105043618Y-81586074D01*
X105040145Y-81597521D01*
X104982017Y-81706271D01*
X104903793Y-81801587D01*
X104903791Y-81801588D01*
X104903790Y-81801590D01*
X104808468Y-81879818D01*
X104699718Y-81937946D01*
X104603682Y-81967078D01*
X104581713Y-81973742D01*
X104459000Y-81985828D01*
X104336286Y-81973742D01*
X104314317Y-81967078D01*
X104218281Y-81937946D01*
X104109531Y-81879818D01*
X104109529Y-81879817D01*
X104014213Y-81801593D01*
X104014212Y-81801591D01*
X104014210Y-81801590D01*
X103935982Y-81706268D01*
X103877854Y-81597518D01*
X103842059Y-81479516D01*
X103842058Y-81479513D01*
X103833000Y-81387546D01*
X103833000Y-80676053D01*
X103842058Y-80584086D01*
X103877854Y-80466081D01*
X103877855Y-80466079D01*
X103935983Y-80357331D01*
X104014211Y-80262010D01*
X104036207Y-80243958D01*
X104109530Y-80183783D01*
X104218280Y-80125655D01*
X104218282Y-80125654D01*
X104336284Y-80089859D01*
X104336287Y-80089858D01*
X104459000Y-80077772D01*
X104581714Y-80089858D01*
X104581714Y-80089858D01*
G37*
G36*
X96831714Y-80089858D02*
X96831717Y-80089859D01*
X96949719Y-80125654D01*
X96949721Y-80125655D01*
X97058471Y-80183783D01*
X97153790Y-80262010D01*
X97232017Y-80357329D01*
X97290145Y-80466079D01*
X97325942Y-80584086D01*
X97335000Y-80676053D01*
X97335000Y-81387547D01*
X97325942Y-81479514D01*
X97325941Y-81479516D01*
X97325941Y-81479517D01*
X97293618Y-81586074D01*
X97290145Y-81597521D01*
X97232017Y-81706271D01*
X97153793Y-81801587D01*
X97153791Y-81801588D01*
X97153790Y-81801590D01*
X97058468Y-81879818D01*
X96949718Y-81937946D01*
X96853682Y-81967078D01*
X96831713Y-81973742D01*
X96709000Y-81985828D01*
X96586286Y-81973742D01*
X96564317Y-81967078D01*
X96468281Y-81937946D01*
X96359531Y-81879818D01*
X96359529Y-81879817D01*
X96264213Y-81801593D01*
X96264212Y-81801591D01*
X96264210Y-81801590D01*
X96185982Y-81706268D01*
X96127854Y-81597518D01*
X96092059Y-81479516D01*
X96092058Y-81479513D01*
X96083000Y-81387546D01*
X96083000Y-80676053D01*
X96092058Y-80584086D01*
X96127854Y-80466081D01*
X96127855Y-80466079D01*
X96185983Y-80357331D01*
X96264211Y-80262010D01*
X96286207Y-80243958D01*
X96359530Y-80183783D01*
X96468280Y-80125655D01*
X96468282Y-80125654D01*
X96586284Y-80089859D01*
X96586287Y-80089858D01*
X96709000Y-80077772D01*
X96831714Y-80089858D01*
X96831714Y-80089858D01*
G37*
G36*
X77929000Y-81432600D02*
X76127000Y-81432600D01*
X76127000Y-79630600D01*
X77929000Y-79630600D01*
X77929000Y-81432600D01*
X77929000Y-81432600D01*
G37*
G36*
X67129000Y-81432600D02*
X65327000Y-81432600D01*
X65327000Y-79630600D01*
X67129000Y-79630600D01*
X67129000Y-81432600D01*
X67129000Y-81432600D01*
G37*
M02*
