G04 #@! TF.GenerationSoftware,KiCad,Pcbnew,5.0.2+dfsg1-1*
G04 #@! TF.CreationDate,2021-06-22T16:41:51+02:00*
G04 #@! TF.ProjectId,MainBoard,4d61696e-426f-4617-9264-2e6b69636164,rev?*
G04 #@! TF.SameCoordinates,Original*
G04 #@! TF.FileFunction,Paste,Bot*
G04 #@! TF.FilePolarity,Positive*
%FSLAX46Y46*%
G04 Gerber Fmt 4.6, Leading zero omitted, Abs format (unit mm)*
G04 Created by KiCad (PCBNEW 5.0.2+dfsg1-1) date Tue 22 Jun 2021 16:41:51 CEST*
%MOMM*%
%LPD*%
G01*
G04 APERTURE LIST*
%ADD10C,0.100000*%
%ADD11C,1.000000*%
%ADD12C,0.300000*%
%ADD13C,0.975000*%
%ADD14C,1.250000*%
%ADD15R,1.100000X1.100000*%
%ADD16R,1.700000X1.700000*%
%ADD17C,1.900000*%
%ADD18O,0.750000X0.300000*%
%ADD19O,0.300000X0.750000*%
%ADD20R,0.730000X0.730000*%
%ADD21R,0.900000X0.800000*%
%ADD22C,0.400000*%
%ADD23R,0.675000X0.400000*%
%ADD24R,0.400000X0.675000*%
%ADD25C,0.875000*%
%ADD26R,1.000000X1.500000*%
%ADD27R,0.800000X0.900000*%
G04 APERTURE END LIST*
D10*
G04 #@! TO.C,C401*
G36*
X108900104Y-101536604D02*
X108924373Y-101540204D01*
X108948171Y-101546165D01*
X108971271Y-101554430D01*
X108993449Y-101564920D01*
X109014493Y-101577533D01*
X109034198Y-101592147D01*
X109052377Y-101608623D01*
X109068853Y-101626802D01*
X109083467Y-101646507D01*
X109096080Y-101667551D01*
X109106570Y-101689729D01*
X109114835Y-101712829D01*
X109120796Y-101736627D01*
X109124396Y-101760896D01*
X109125600Y-101785400D01*
X109125600Y-102735400D01*
X109124396Y-102759904D01*
X109120796Y-102784173D01*
X109114835Y-102807971D01*
X109106570Y-102831071D01*
X109096080Y-102853249D01*
X109083467Y-102874293D01*
X109068853Y-102893998D01*
X109052377Y-102912177D01*
X109034198Y-102928653D01*
X109014493Y-102943267D01*
X108993449Y-102955880D01*
X108971271Y-102966370D01*
X108948171Y-102974635D01*
X108924373Y-102980596D01*
X108900104Y-102984196D01*
X108875600Y-102985400D01*
X108375600Y-102985400D01*
X108351096Y-102984196D01*
X108326827Y-102980596D01*
X108303029Y-102974635D01*
X108279929Y-102966370D01*
X108257751Y-102955880D01*
X108236707Y-102943267D01*
X108217002Y-102928653D01*
X108198823Y-102912177D01*
X108182347Y-102893998D01*
X108167733Y-102874293D01*
X108155120Y-102853249D01*
X108144630Y-102831071D01*
X108136365Y-102807971D01*
X108130404Y-102784173D01*
X108126804Y-102759904D01*
X108125600Y-102735400D01*
X108125600Y-101785400D01*
X108126804Y-101760896D01*
X108130404Y-101736627D01*
X108136365Y-101712829D01*
X108144630Y-101689729D01*
X108155120Y-101667551D01*
X108167733Y-101646507D01*
X108182347Y-101626802D01*
X108198823Y-101608623D01*
X108217002Y-101592147D01*
X108236707Y-101577533D01*
X108257751Y-101564920D01*
X108279929Y-101554430D01*
X108303029Y-101546165D01*
X108326827Y-101540204D01*
X108351096Y-101536604D01*
X108375600Y-101535400D01*
X108875600Y-101535400D01*
X108900104Y-101536604D01*
X108900104Y-101536604D01*
G37*
D11*
X108625600Y-102260400D03*
D10*
G36*
X110800104Y-101536604D02*
X110824373Y-101540204D01*
X110848171Y-101546165D01*
X110871271Y-101554430D01*
X110893449Y-101564920D01*
X110914493Y-101577533D01*
X110934198Y-101592147D01*
X110952377Y-101608623D01*
X110968853Y-101626802D01*
X110983467Y-101646507D01*
X110996080Y-101667551D01*
X111006570Y-101689729D01*
X111014835Y-101712829D01*
X111020796Y-101736627D01*
X111024396Y-101760896D01*
X111025600Y-101785400D01*
X111025600Y-102735400D01*
X111024396Y-102759904D01*
X111020796Y-102784173D01*
X111014835Y-102807971D01*
X111006570Y-102831071D01*
X110996080Y-102853249D01*
X110983467Y-102874293D01*
X110968853Y-102893998D01*
X110952377Y-102912177D01*
X110934198Y-102928653D01*
X110914493Y-102943267D01*
X110893449Y-102955880D01*
X110871271Y-102966370D01*
X110848171Y-102974635D01*
X110824373Y-102980596D01*
X110800104Y-102984196D01*
X110775600Y-102985400D01*
X110275600Y-102985400D01*
X110251096Y-102984196D01*
X110226827Y-102980596D01*
X110203029Y-102974635D01*
X110179929Y-102966370D01*
X110157751Y-102955880D01*
X110136707Y-102943267D01*
X110117002Y-102928653D01*
X110098823Y-102912177D01*
X110082347Y-102893998D01*
X110067733Y-102874293D01*
X110055120Y-102853249D01*
X110044630Y-102831071D01*
X110036365Y-102807971D01*
X110030404Y-102784173D01*
X110026804Y-102759904D01*
X110025600Y-102735400D01*
X110025600Y-101785400D01*
X110026804Y-101760896D01*
X110030404Y-101736627D01*
X110036365Y-101712829D01*
X110044630Y-101689729D01*
X110055120Y-101667551D01*
X110067733Y-101646507D01*
X110082347Y-101626802D01*
X110098823Y-101608623D01*
X110117002Y-101592147D01*
X110136707Y-101577533D01*
X110157751Y-101564920D01*
X110179929Y-101554430D01*
X110203029Y-101546165D01*
X110226827Y-101540204D01*
X110251096Y-101536604D01*
X110275600Y-101535400D01*
X110775600Y-101535400D01*
X110800104Y-101536604D01*
X110800104Y-101536604D01*
G37*
D11*
X110525600Y-102260400D03*
G04 #@! TD*
D10*
G04 #@! TO.C,U401*
G36*
X110588351Y-104263361D02*
X110595632Y-104264441D01*
X110602771Y-104266229D01*
X110609701Y-104268709D01*
X110616355Y-104271856D01*
X110622668Y-104275640D01*
X110628579Y-104280024D01*
X110634033Y-104284967D01*
X110638976Y-104290421D01*
X110643360Y-104296332D01*
X110647144Y-104302645D01*
X110650291Y-104309299D01*
X110652771Y-104316229D01*
X110654559Y-104323368D01*
X110655639Y-104330649D01*
X110656000Y-104338000D01*
X110656000Y-105638000D01*
X110655639Y-105645351D01*
X110654559Y-105652632D01*
X110652771Y-105659771D01*
X110650291Y-105666701D01*
X110647144Y-105673355D01*
X110643360Y-105679668D01*
X110638976Y-105685579D01*
X110634033Y-105691033D01*
X110628579Y-105695976D01*
X110622668Y-105700360D01*
X110616355Y-105704144D01*
X110609701Y-105707291D01*
X110602771Y-105709771D01*
X110595632Y-105711559D01*
X110588351Y-105712639D01*
X110581000Y-105713000D01*
X110431000Y-105713000D01*
X110423649Y-105712639D01*
X110416368Y-105711559D01*
X110409229Y-105709771D01*
X110402299Y-105707291D01*
X110395645Y-105704144D01*
X110389332Y-105700360D01*
X110383421Y-105695976D01*
X110377967Y-105691033D01*
X110373024Y-105685579D01*
X110368640Y-105679668D01*
X110364856Y-105673355D01*
X110361709Y-105666701D01*
X110359229Y-105659771D01*
X110357441Y-105652632D01*
X110356361Y-105645351D01*
X110356000Y-105638000D01*
X110356000Y-104338000D01*
X110356361Y-104330649D01*
X110357441Y-104323368D01*
X110359229Y-104316229D01*
X110361709Y-104309299D01*
X110364856Y-104302645D01*
X110368640Y-104296332D01*
X110373024Y-104290421D01*
X110377967Y-104284967D01*
X110383421Y-104280024D01*
X110389332Y-104275640D01*
X110395645Y-104271856D01*
X110402299Y-104268709D01*
X110409229Y-104266229D01*
X110416368Y-104264441D01*
X110423649Y-104263361D01*
X110431000Y-104263000D01*
X110581000Y-104263000D01*
X110588351Y-104263361D01*
X110588351Y-104263361D01*
G37*
D12*
X110506000Y-104988000D03*
D10*
G36*
X111088351Y-104263361D02*
X111095632Y-104264441D01*
X111102771Y-104266229D01*
X111109701Y-104268709D01*
X111116355Y-104271856D01*
X111122668Y-104275640D01*
X111128579Y-104280024D01*
X111134033Y-104284967D01*
X111138976Y-104290421D01*
X111143360Y-104296332D01*
X111147144Y-104302645D01*
X111150291Y-104309299D01*
X111152771Y-104316229D01*
X111154559Y-104323368D01*
X111155639Y-104330649D01*
X111156000Y-104338000D01*
X111156000Y-105638000D01*
X111155639Y-105645351D01*
X111154559Y-105652632D01*
X111152771Y-105659771D01*
X111150291Y-105666701D01*
X111147144Y-105673355D01*
X111143360Y-105679668D01*
X111138976Y-105685579D01*
X111134033Y-105691033D01*
X111128579Y-105695976D01*
X111122668Y-105700360D01*
X111116355Y-105704144D01*
X111109701Y-105707291D01*
X111102771Y-105709771D01*
X111095632Y-105711559D01*
X111088351Y-105712639D01*
X111081000Y-105713000D01*
X110931000Y-105713000D01*
X110923649Y-105712639D01*
X110916368Y-105711559D01*
X110909229Y-105709771D01*
X110902299Y-105707291D01*
X110895645Y-105704144D01*
X110889332Y-105700360D01*
X110883421Y-105695976D01*
X110877967Y-105691033D01*
X110873024Y-105685579D01*
X110868640Y-105679668D01*
X110864856Y-105673355D01*
X110861709Y-105666701D01*
X110859229Y-105659771D01*
X110857441Y-105652632D01*
X110856361Y-105645351D01*
X110856000Y-105638000D01*
X110856000Y-104338000D01*
X110856361Y-104330649D01*
X110857441Y-104323368D01*
X110859229Y-104316229D01*
X110861709Y-104309299D01*
X110864856Y-104302645D01*
X110868640Y-104296332D01*
X110873024Y-104290421D01*
X110877967Y-104284967D01*
X110883421Y-104280024D01*
X110889332Y-104275640D01*
X110895645Y-104271856D01*
X110902299Y-104268709D01*
X110909229Y-104266229D01*
X110916368Y-104264441D01*
X110923649Y-104263361D01*
X110931000Y-104263000D01*
X111081000Y-104263000D01*
X111088351Y-104263361D01*
X111088351Y-104263361D01*
G37*
D12*
X111006000Y-104988000D03*
D10*
G36*
X111588351Y-104263361D02*
X111595632Y-104264441D01*
X111602771Y-104266229D01*
X111609701Y-104268709D01*
X111616355Y-104271856D01*
X111622668Y-104275640D01*
X111628579Y-104280024D01*
X111634033Y-104284967D01*
X111638976Y-104290421D01*
X111643360Y-104296332D01*
X111647144Y-104302645D01*
X111650291Y-104309299D01*
X111652771Y-104316229D01*
X111654559Y-104323368D01*
X111655639Y-104330649D01*
X111656000Y-104338000D01*
X111656000Y-105638000D01*
X111655639Y-105645351D01*
X111654559Y-105652632D01*
X111652771Y-105659771D01*
X111650291Y-105666701D01*
X111647144Y-105673355D01*
X111643360Y-105679668D01*
X111638976Y-105685579D01*
X111634033Y-105691033D01*
X111628579Y-105695976D01*
X111622668Y-105700360D01*
X111616355Y-105704144D01*
X111609701Y-105707291D01*
X111602771Y-105709771D01*
X111595632Y-105711559D01*
X111588351Y-105712639D01*
X111581000Y-105713000D01*
X111431000Y-105713000D01*
X111423649Y-105712639D01*
X111416368Y-105711559D01*
X111409229Y-105709771D01*
X111402299Y-105707291D01*
X111395645Y-105704144D01*
X111389332Y-105700360D01*
X111383421Y-105695976D01*
X111377967Y-105691033D01*
X111373024Y-105685579D01*
X111368640Y-105679668D01*
X111364856Y-105673355D01*
X111361709Y-105666701D01*
X111359229Y-105659771D01*
X111357441Y-105652632D01*
X111356361Y-105645351D01*
X111356000Y-105638000D01*
X111356000Y-104338000D01*
X111356361Y-104330649D01*
X111357441Y-104323368D01*
X111359229Y-104316229D01*
X111361709Y-104309299D01*
X111364856Y-104302645D01*
X111368640Y-104296332D01*
X111373024Y-104290421D01*
X111377967Y-104284967D01*
X111383421Y-104280024D01*
X111389332Y-104275640D01*
X111395645Y-104271856D01*
X111402299Y-104268709D01*
X111409229Y-104266229D01*
X111416368Y-104264441D01*
X111423649Y-104263361D01*
X111431000Y-104263000D01*
X111581000Y-104263000D01*
X111588351Y-104263361D01*
X111588351Y-104263361D01*
G37*
D12*
X111506000Y-104988000D03*
D10*
G36*
X112088351Y-104263361D02*
X112095632Y-104264441D01*
X112102771Y-104266229D01*
X112109701Y-104268709D01*
X112116355Y-104271856D01*
X112122668Y-104275640D01*
X112128579Y-104280024D01*
X112134033Y-104284967D01*
X112138976Y-104290421D01*
X112143360Y-104296332D01*
X112147144Y-104302645D01*
X112150291Y-104309299D01*
X112152771Y-104316229D01*
X112154559Y-104323368D01*
X112155639Y-104330649D01*
X112156000Y-104338000D01*
X112156000Y-105638000D01*
X112155639Y-105645351D01*
X112154559Y-105652632D01*
X112152771Y-105659771D01*
X112150291Y-105666701D01*
X112147144Y-105673355D01*
X112143360Y-105679668D01*
X112138976Y-105685579D01*
X112134033Y-105691033D01*
X112128579Y-105695976D01*
X112122668Y-105700360D01*
X112116355Y-105704144D01*
X112109701Y-105707291D01*
X112102771Y-105709771D01*
X112095632Y-105711559D01*
X112088351Y-105712639D01*
X112081000Y-105713000D01*
X111931000Y-105713000D01*
X111923649Y-105712639D01*
X111916368Y-105711559D01*
X111909229Y-105709771D01*
X111902299Y-105707291D01*
X111895645Y-105704144D01*
X111889332Y-105700360D01*
X111883421Y-105695976D01*
X111877967Y-105691033D01*
X111873024Y-105685579D01*
X111868640Y-105679668D01*
X111864856Y-105673355D01*
X111861709Y-105666701D01*
X111859229Y-105659771D01*
X111857441Y-105652632D01*
X111856361Y-105645351D01*
X111856000Y-105638000D01*
X111856000Y-104338000D01*
X111856361Y-104330649D01*
X111857441Y-104323368D01*
X111859229Y-104316229D01*
X111861709Y-104309299D01*
X111864856Y-104302645D01*
X111868640Y-104296332D01*
X111873024Y-104290421D01*
X111877967Y-104284967D01*
X111883421Y-104280024D01*
X111889332Y-104275640D01*
X111895645Y-104271856D01*
X111902299Y-104268709D01*
X111909229Y-104266229D01*
X111916368Y-104264441D01*
X111923649Y-104263361D01*
X111931000Y-104263000D01*
X112081000Y-104263000D01*
X112088351Y-104263361D01*
X112088351Y-104263361D01*
G37*
D12*
X112006000Y-104988000D03*
D10*
G36*
X112588351Y-104263361D02*
X112595632Y-104264441D01*
X112602771Y-104266229D01*
X112609701Y-104268709D01*
X112616355Y-104271856D01*
X112622668Y-104275640D01*
X112628579Y-104280024D01*
X112634033Y-104284967D01*
X112638976Y-104290421D01*
X112643360Y-104296332D01*
X112647144Y-104302645D01*
X112650291Y-104309299D01*
X112652771Y-104316229D01*
X112654559Y-104323368D01*
X112655639Y-104330649D01*
X112656000Y-104338000D01*
X112656000Y-105638000D01*
X112655639Y-105645351D01*
X112654559Y-105652632D01*
X112652771Y-105659771D01*
X112650291Y-105666701D01*
X112647144Y-105673355D01*
X112643360Y-105679668D01*
X112638976Y-105685579D01*
X112634033Y-105691033D01*
X112628579Y-105695976D01*
X112622668Y-105700360D01*
X112616355Y-105704144D01*
X112609701Y-105707291D01*
X112602771Y-105709771D01*
X112595632Y-105711559D01*
X112588351Y-105712639D01*
X112581000Y-105713000D01*
X112431000Y-105713000D01*
X112423649Y-105712639D01*
X112416368Y-105711559D01*
X112409229Y-105709771D01*
X112402299Y-105707291D01*
X112395645Y-105704144D01*
X112389332Y-105700360D01*
X112383421Y-105695976D01*
X112377967Y-105691033D01*
X112373024Y-105685579D01*
X112368640Y-105679668D01*
X112364856Y-105673355D01*
X112361709Y-105666701D01*
X112359229Y-105659771D01*
X112357441Y-105652632D01*
X112356361Y-105645351D01*
X112356000Y-105638000D01*
X112356000Y-104338000D01*
X112356361Y-104330649D01*
X112357441Y-104323368D01*
X112359229Y-104316229D01*
X112361709Y-104309299D01*
X112364856Y-104302645D01*
X112368640Y-104296332D01*
X112373024Y-104290421D01*
X112377967Y-104284967D01*
X112383421Y-104280024D01*
X112389332Y-104275640D01*
X112395645Y-104271856D01*
X112402299Y-104268709D01*
X112409229Y-104266229D01*
X112416368Y-104264441D01*
X112423649Y-104263361D01*
X112431000Y-104263000D01*
X112581000Y-104263000D01*
X112588351Y-104263361D01*
X112588351Y-104263361D01*
G37*
D12*
X112506000Y-104988000D03*
D10*
G36*
X112588351Y-108663361D02*
X112595632Y-108664441D01*
X112602771Y-108666229D01*
X112609701Y-108668709D01*
X112616355Y-108671856D01*
X112622668Y-108675640D01*
X112628579Y-108680024D01*
X112634033Y-108684967D01*
X112638976Y-108690421D01*
X112643360Y-108696332D01*
X112647144Y-108702645D01*
X112650291Y-108709299D01*
X112652771Y-108716229D01*
X112654559Y-108723368D01*
X112655639Y-108730649D01*
X112656000Y-108738000D01*
X112656000Y-110038000D01*
X112655639Y-110045351D01*
X112654559Y-110052632D01*
X112652771Y-110059771D01*
X112650291Y-110066701D01*
X112647144Y-110073355D01*
X112643360Y-110079668D01*
X112638976Y-110085579D01*
X112634033Y-110091033D01*
X112628579Y-110095976D01*
X112622668Y-110100360D01*
X112616355Y-110104144D01*
X112609701Y-110107291D01*
X112602771Y-110109771D01*
X112595632Y-110111559D01*
X112588351Y-110112639D01*
X112581000Y-110113000D01*
X112431000Y-110113000D01*
X112423649Y-110112639D01*
X112416368Y-110111559D01*
X112409229Y-110109771D01*
X112402299Y-110107291D01*
X112395645Y-110104144D01*
X112389332Y-110100360D01*
X112383421Y-110095976D01*
X112377967Y-110091033D01*
X112373024Y-110085579D01*
X112368640Y-110079668D01*
X112364856Y-110073355D01*
X112361709Y-110066701D01*
X112359229Y-110059771D01*
X112357441Y-110052632D01*
X112356361Y-110045351D01*
X112356000Y-110038000D01*
X112356000Y-108738000D01*
X112356361Y-108730649D01*
X112357441Y-108723368D01*
X112359229Y-108716229D01*
X112361709Y-108709299D01*
X112364856Y-108702645D01*
X112368640Y-108696332D01*
X112373024Y-108690421D01*
X112377967Y-108684967D01*
X112383421Y-108680024D01*
X112389332Y-108675640D01*
X112395645Y-108671856D01*
X112402299Y-108668709D01*
X112409229Y-108666229D01*
X112416368Y-108664441D01*
X112423649Y-108663361D01*
X112431000Y-108663000D01*
X112581000Y-108663000D01*
X112588351Y-108663361D01*
X112588351Y-108663361D01*
G37*
D12*
X112506000Y-109388000D03*
D10*
G36*
X112088351Y-108663361D02*
X112095632Y-108664441D01*
X112102771Y-108666229D01*
X112109701Y-108668709D01*
X112116355Y-108671856D01*
X112122668Y-108675640D01*
X112128579Y-108680024D01*
X112134033Y-108684967D01*
X112138976Y-108690421D01*
X112143360Y-108696332D01*
X112147144Y-108702645D01*
X112150291Y-108709299D01*
X112152771Y-108716229D01*
X112154559Y-108723368D01*
X112155639Y-108730649D01*
X112156000Y-108738000D01*
X112156000Y-110038000D01*
X112155639Y-110045351D01*
X112154559Y-110052632D01*
X112152771Y-110059771D01*
X112150291Y-110066701D01*
X112147144Y-110073355D01*
X112143360Y-110079668D01*
X112138976Y-110085579D01*
X112134033Y-110091033D01*
X112128579Y-110095976D01*
X112122668Y-110100360D01*
X112116355Y-110104144D01*
X112109701Y-110107291D01*
X112102771Y-110109771D01*
X112095632Y-110111559D01*
X112088351Y-110112639D01*
X112081000Y-110113000D01*
X111931000Y-110113000D01*
X111923649Y-110112639D01*
X111916368Y-110111559D01*
X111909229Y-110109771D01*
X111902299Y-110107291D01*
X111895645Y-110104144D01*
X111889332Y-110100360D01*
X111883421Y-110095976D01*
X111877967Y-110091033D01*
X111873024Y-110085579D01*
X111868640Y-110079668D01*
X111864856Y-110073355D01*
X111861709Y-110066701D01*
X111859229Y-110059771D01*
X111857441Y-110052632D01*
X111856361Y-110045351D01*
X111856000Y-110038000D01*
X111856000Y-108738000D01*
X111856361Y-108730649D01*
X111857441Y-108723368D01*
X111859229Y-108716229D01*
X111861709Y-108709299D01*
X111864856Y-108702645D01*
X111868640Y-108696332D01*
X111873024Y-108690421D01*
X111877967Y-108684967D01*
X111883421Y-108680024D01*
X111889332Y-108675640D01*
X111895645Y-108671856D01*
X111902299Y-108668709D01*
X111909229Y-108666229D01*
X111916368Y-108664441D01*
X111923649Y-108663361D01*
X111931000Y-108663000D01*
X112081000Y-108663000D01*
X112088351Y-108663361D01*
X112088351Y-108663361D01*
G37*
D12*
X112006000Y-109388000D03*
D10*
G36*
X111588351Y-108663361D02*
X111595632Y-108664441D01*
X111602771Y-108666229D01*
X111609701Y-108668709D01*
X111616355Y-108671856D01*
X111622668Y-108675640D01*
X111628579Y-108680024D01*
X111634033Y-108684967D01*
X111638976Y-108690421D01*
X111643360Y-108696332D01*
X111647144Y-108702645D01*
X111650291Y-108709299D01*
X111652771Y-108716229D01*
X111654559Y-108723368D01*
X111655639Y-108730649D01*
X111656000Y-108738000D01*
X111656000Y-110038000D01*
X111655639Y-110045351D01*
X111654559Y-110052632D01*
X111652771Y-110059771D01*
X111650291Y-110066701D01*
X111647144Y-110073355D01*
X111643360Y-110079668D01*
X111638976Y-110085579D01*
X111634033Y-110091033D01*
X111628579Y-110095976D01*
X111622668Y-110100360D01*
X111616355Y-110104144D01*
X111609701Y-110107291D01*
X111602771Y-110109771D01*
X111595632Y-110111559D01*
X111588351Y-110112639D01*
X111581000Y-110113000D01*
X111431000Y-110113000D01*
X111423649Y-110112639D01*
X111416368Y-110111559D01*
X111409229Y-110109771D01*
X111402299Y-110107291D01*
X111395645Y-110104144D01*
X111389332Y-110100360D01*
X111383421Y-110095976D01*
X111377967Y-110091033D01*
X111373024Y-110085579D01*
X111368640Y-110079668D01*
X111364856Y-110073355D01*
X111361709Y-110066701D01*
X111359229Y-110059771D01*
X111357441Y-110052632D01*
X111356361Y-110045351D01*
X111356000Y-110038000D01*
X111356000Y-108738000D01*
X111356361Y-108730649D01*
X111357441Y-108723368D01*
X111359229Y-108716229D01*
X111361709Y-108709299D01*
X111364856Y-108702645D01*
X111368640Y-108696332D01*
X111373024Y-108690421D01*
X111377967Y-108684967D01*
X111383421Y-108680024D01*
X111389332Y-108675640D01*
X111395645Y-108671856D01*
X111402299Y-108668709D01*
X111409229Y-108666229D01*
X111416368Y-108664441D01*
X111423649Y-108663361D01*
X111431000Y-108663000D01*
X111581000Y-108663000D01*
X111588351Y-108663361D01*
X111588351Y-108663361D01*
G37*
D12*
X111506000Y-109388000D03*
D10*
G36*
X111088351Y-108663361D02*
X111095632Y-108664441D01*
X111102771Y-108666229D01*
X111109701Y-108668709D01*
X111116355Y-108671856D01*
X111122668Y-108675640D01*
X111128579Y-108680024D01*
X111134033Y-108684967D01*
X111138976Y-108690421D01*
X111143360Y-108696332D01*
X111147144Y-108702645D01*
X111150291Y-108709299D01*
X111152771Y-108716229D01*
X111154559Y-108723368D01*
X111155639Y-108730649D01*
X111156000Y-108738000D01*
X111156000Y-110038000D01*
X111155639Y-110045351D01*
X111154559Y-110052632D01*
X111152771Y-110059771D01*
X111150291Y-110066701D01*
X111147144Y-110073355D01*
X111143360Y-110079668D01*
X111138976Y-110085579D01*
X111134033Y-110091033D01*
X111128579Y-110095976D01*
X111122668Y-110100360D01*
X111116355Y-110104144D01*
X111109701Y-110107291D01*
X111102771Y-110109771D01*
X111095632Y-110111559D01*
X111088351Y-110112639D01*
X111081000Y-110113000D01*
X110931000Y-110113000D01*
X110923649Y-110112639D01*
X110916368Y-110111559D01*
X110909229Y-110109771D01*
X110902299Y-110107291D01*
X110895645Y-110104144D01*
X110889332Y-110100360D01*
X110883421Y-110095976D01*
X110877967Y-110091033D01*
X110873024Y-110085579D01*
X110868640Y-110079668D01*
X110864856Y-110073355D01*
X110861709Y-110066701D01*
X110859229Y-110059771D01*
X110857441Y-110052632D01*
X110856361Y-110045351D01*
X110856000Y-110038000D01*
X110856000Y-108738000D01*
X110856361Y-108730649D01*
X110857441Y-108723368D01*
X110859229Y-108716229D01*
X110861709Y-108709299D01*
X110864856Y-108702645D01*
X110868640Y-108696332D01*
X110873024Y-108690421D01*
X110877967Y-108684967D01*
X110883421Y-108680024D01*
X110889332Y-108675640D01*
X110895645Y-108671856D01*
X110902299Y-108668709D01*
X110909229Y-108666229D01*
X110916368Y-108664441D01*
X110923649Y-108663361D01*
X110931000Y-108663000D01*
X111081000Y-108663000D01*
X111088351Y-108663361D01*
X111088351Y-108663361D01*
G37*
D12*
X111006000Y-109388000D03*
D10*
G36*
X110588351Y-108663361D02*
X110595632Y-108664441D01*
X110602771Y-108666229D01*
X110609701Y-108668709D01*
X110616355Y-108671856D01*
X110622668Y-108675640D01*
X110628579Y-108680024D01*
X110634033Y-108684967D01*
X110638976Y-108690421D01*
X110643360Y-108696332D01*
X110647144Y-108702645D01*
X110650291Y-108709299D01*
X110652771Y-108716229D01*
X110654559Y-108723368D01*
X110655639Y-108730649D01*
X110656000Y-108738000D01*
X110656000Y-110038000D01*
X110655639Y-110045351D01*
X110654559Y-110052632D01*
X110652771Y-110059771D01*
X110650291Y-110066701D01*
X110647144Y-110073355D01*
X110643360Y-110079668D01*
X110638976Y-110085579D01*
X110634033Y-110091033D01*
X110628579Y-110095976D01*
X110622668Y-110100360D01*
X110616355Y-110104144D01*
X110609701Y-110107291D01*
X110602771Y-110109771D01*
X110595632Y-110111559D01*
X110588351Y-110112639D01*
X110581000Y-110113000D01*
X110431000Y-110113000D01*
X110423649Y-110112639D01*
X110416368Y-110111559D01*
X110409229Y-110109771D01*
X110402299Y-110107291D01*
X110395645Y-110104144D01*
X110389332Y-110100360D01*
X110383421Y-110095976D01*
X110377967Y-110091033D01*
X110373024Y-110085579D01*
X110368640Y-110079668D01*
X110364856Y-110073355D01*
X110361709Y-110066701D01*
X110359229Y-110059771D01*
X110357441Y-110052632D01*
X110356361Y-110045351D01*
X110356000Y-110038000D01*
X110356000Y-108738000D01*
X110356361Y-108730649D01*
X110357441Y-108723368D01*
X110359229Y-108716229D01*
X110361709Y-108709299D01*
X110364856Y-108702645D01*
X110368640Y-108696332D01*
X110373024Y-108690421D01*
X110377967Y-108684967D01*
X110383421Y-108680024D01*
X110389332Y-108675640D01*
X110395645Y-108671856D01*
X110402299Y-108668709D01*
X110409229Y-108666229D01*
X110416368Y-108664441D01*
X110423649Y-108663361D01*
X110431000Y-108663000D01*
X110581000Y-108663000D01*
X110588351Y-108663361D01*
X110588351Y-108663361D01*
G37*
D12*
X110506000Y-109388000D03*
G04 #@! TD*
D10*
G04 #@! TO.C,R8*
G36*
X112507943Y-89013974D02*
X112531604Y-89017484D01*
X112554808Y-89023296D01*
X112577330Y-89031354D01*
X112598954Y-89041582D01*
X112619471Y-89053879D01*
X112638684Y-89068129D01*
X112656408Y-89084193D01*
X112672472Y-89101917D01*
X112686722Y-89121130D01*
X112699019Y-89141647D01*
X112709247Y-89163271D01*
X112717305Y-89185793D01*
X112723117Y-89208997D01*
X112726627Y-89232658D01*
X112727801Y-89256550D01*
X112727801Y-90169050D01*
X112726627Y-90192942D01*
X112723117Y-90216603D01*
X112717305Y-90239807D01*
X112709247Y-90262329D01*
X112699019Y-90283953D01*
X112686722Y-90304470D01*
X112672472Y-90323683D01*
X112656408Y-90341407D01*
X112638684Y-90357471D01*
X112619471Y-90371721D01*
X112598954Y-90384018D01*
X112577330Y-90394246D01*
X112554808Y-90402304D01*
X112531604Y-90408116D01*
X112507943Y-90411626D01*
X112484051Y-90412800D01*
X111996551Y-90412800D01*
X111972659Y-90411626D01*
X111948998Y-90408116D01*
X111925794Y-90402304D01*
X111903272Y-90394246D01*
X111881648Y-90384018D01*
X111861131Y-90371721D01*
X111841918Y-90357471D01*
X111824194Y-90341407D01*
X111808130Y-90323683D01*
X111793880Y-90304470D01*
X111781583Y-90283953D01*
X111771355Y-90262329D01*
X111763297Y-90239807D01*
X111757485Y-90216603D01*
X111753975Y-90192942D01*
X111752801Y-90169050D01*
X111752801Y-89256550D01*
X111753975Y-89232658D01*
X111757485Y-89208997D01*
X111763297Y-89185793D01*
X111771355Y-89163271D01*
X111781583Y-89141647D01*
X111793880Y-89121130D01*
X111808130Y-89101917D01*
X111824194Y-89084193D01*
X111841918Y-89068129D01*
X111861131Y-89053879D01*
X111881648Y-89041582D01*
X111903272Y-89031354D01*
X111925794Y-89023296D01*
X111948998Y-89017484D01*
X111972659Y-89013974D01*
X111996551Y-89012800D01*
X112484051Y-89012800D01*
X112507943Y-89013974D01*
X112507943Y-89013974D01*
G37*
D13*
X112240301Y-89712800D03*
D10*
G36*
X110632941Y-89013974D02*
X110656602Y-89017484D01*
X110679806Y-89023296D01*
X110702328Y-89031354D01*
X110723952Y-89041582D01*
X110744469Y-89053879D01*
X110763682Y-89068129D01*
X110781406Y-89084193D01*
X110797470Y-89101917D01*
X110811720Y-89121130D01*
X110824017Y-89141647D01*
X110834245Y-89163271D01*
X110842303Y-89185793D01*
X110848115Y-89208997D01*
X110851625Y-89232658D01*
X110852799Y-89256550D01*
X110852799Y-90169050D01*
X110851625Y-90192942D01*
X110848115Y-90216603D01*
X110842303Y-90239807D01*
X110834245Y-90262329D01*
X110824017Y-90283953D01*
X110811720Y-90304470D01*
X110797470Y-90323683D01*
X110781406Y-90341407D01*
X110763682Y-90357471D01*
X110744469Y-90371721D01*
X110723952Y-90384018D01*
X110702328Y-90394246D01*
X110679806Y-90402304D01*
X110656602Y-90408116D01*
X110632941Y-90411626D01*
X110609049Y-90412800D01*
X110121549Y-90412800D01*
X110097657Y-90411626D01*
X110073996Y-90408116D01*
X110050792Y-90402304D01*
X110028270Y-90394246D01*
X110006646Y-90384018D01*
X109986129Y-90371721D01*
X109966916Y-90357471D01*
X109949192Y-90341407D01*
X109933128Y-90323683D01*
X109918878Y-90304470D01*
X109906581Y-90283953D01*
X109896353Y-90262329D01*
X109888295Y-90239807D01*
X109882483Y-90216603D01*
X109878973Y-90192942D01*
X109877799Y-90169050D01*
X109877799Y-89256550D01*
X109878973Y-89232658D01*
X109882483Y-89208997D01*
X109888295Y-89185793D01*
X109896353Y-89163271D01*
X109906581Y-89141647D01*
X109918878Y-89121130D01*
X109933128Y-89101917D01*
X109949192Y-89084193D01*
X109966916Y-89068129D01*
X109986129Y-89053879D01*
X110006646Y-89041582D01*
X110028270Y-89031354D01*
X110050792Y-89023296D01*
X110073996Y-89017484D01*
X110097657Y-89013974D01*
X110121549Y-89012800D01*
X110609049Y-89012800D01*
X110632941Y-89013974D01*
X110632941Y-89013974D01*
G37*
D13*
X110365299Y-89712800D03*
G04 #@! TD*
D10*
G04 #@! TO.C,R9*
G36*
X113071341Y-91350774D02*
X113095002Y-91354284D01*
X113118206Y-91360096D01*
X113140728Y-91368154D01*
X113162352Y-91378382D01*
X113182869Y-91390679D01*
X113202082Y-91404929D01*
X113219806Y-91420993D01*
X113235870Y-91438717D01*
X113250120Y-91457930D01*
X113262417Y-91478447D01*
X113272645Y-91500071D01*
X113280703Y-91522593D01*
X113286515Y-91545797D01*
X113290025Y-91569458D01*
X113291199Y-91593350D01*
X113291199Y-92505850D01*
X113290025Y-92529742D01*
X113286515Y-92553403D01*
X113280703Y-92576607D01*
X113272645Y-92599129D01*
X113262417Y-92620753D01*
X113250120Y-92641270D01*
X113235870Y-92660483D01*
X113219806Y-92678207D01*
X113202082Y-92694271D01*
X113182869Y-92708521D01*
X113162352Y-92720818D01*
X113140728Y-92731046D01*
X113118206Y-92739104D01*
X113095002Y-92744916D01*
X113071341Y-92748426D01*
X113047449Y-92749600D01*
X112559949Y-92749600D01*
X112536057Y-92748426D01*
X112512396Y-92744916D01*
X112489192Y-92739104D01*
X112466670Y-92731046D01*
X112445046Y-92720818D01*
X112424529Y-92708521D01*
X112405316Y-92694271D01*
X112387592Y-92678207D01*
X112371528Y-92660483D01*
X112357278Y-92641270D01*
X112344981Y-92620753D01*
X112334753Y-92599129D01*
X112326695Y-92576607D01*
X112320883Y-92553403D01*
X112317373Y-92529742D01*
X112316199Y-92505850D01*
X112316199Y-91593350D01*
X112317373Y-91569458D01*
X112320883Y-91545797D01*
X112326695Y-91522593D01*
X112334753Y-91500071D01*
X112344981Y-91478447D01*
X112357278Y-91457930D01*
X112371528Y-91438717D01*
X112387592Y-91420993D01*
X112405316Y-91404929D01*
X112424529Y-91390679D01*
X112445046Y-91378382D01*
X112466670Y-91368154D01*
X112489192Y-91360096D01*
X112512396Y-91354284D01*
X112536057Y-91350774D01*
X112559949Y-91349600D01*
X113047449Y-91349600D01*
X113071341Y-91350774D01*
X113071341Y-91350774D01*
G37*
D13*
X112803699Y-92049600D03*
D10*
G36*
X114946343Y-91350774D02*
X114970004Y-91354284D01*
X114993208Y-91360096D01*
X115015730Y-91368154D01*
X115037354Y-91378382D01*
X115057871Y-91390679D01*
X115077084Y-91404929D01*
X115094808Y-91420993D01*
X115110872Y-91438717D01*
X115125122Y-91457930D01*
X115137419Y-91478447D01*
X115147647Y-91500071D01*
X115155705Y-91522593D01*
X115161517Y-91545797D01*
X115165027Y-91569458D01*
X115166201Y-91593350D01*
X115166201Y-92505850D01*
X115165027Y-92529742D01*
X115161517Y-92553403D01*
X115155705Y-92576607D01*
X115147647Y-92599129D01*
X115137419Y-92620753D01*
X115125122Y-92641270D01*
X115110872Y-92660483D01*
X115094808Y-92678207D01*
X115077084Y-92694271D01*
X115057871Y-92708521D01*
X115037354Y-92720818D01*
X115015730Y-92731046D01*
X114993208Y-92739104D01*
X114970004Y-92744916D01*
X114946343Y-92748426D01*
X114922451Y-92749600D01*
X114434951Y-92749600D01*
X114411059Y-92748426D01*
X114387398Y-92744916D01*
X114364194Y-92739104D01*
X114341672Y-92731046D01*
X114320048Y-92720818D01*
X114299531Y-92708521D01*
X114280318Y-92694271D01*
X114262594Y-92678207D01*
X114246530Y-92660483D01*
X114232280Y-92641270D01*
X114219983Y-92620753D01*
X114209755Y-92599129D01*
X114201697Y-92576607D01*
X114195885Y-92553403D01*
X114192375Y-92529742D01*
X114191201Y-92505850D01*
X114191201Y-91593350D01*
X114192375Y-91569458D01*
X114195885Y-91545797D01*
X114201697Y-91522593D01*
X114209755Y-91500071D01*
X114219983Y-91478447D01*
X114232280Y-91457930D01*
X114246530Y-91438717D01*
X114262594Y-91420993D01*
X114280318Y-91404929D01*
X114299531Y-91390679D01*
X114320048Y-91378382D01*
X114341672Y-91368154D01*
X114364194Y-91360096D01*
X114387398Y-91354284D01*
X114411059Y-91350774D01*
X114434951Y-91349600D01*
X114922451Y-91349600D01*
X114946343Y-91350774D01*
X114946343Y-91350774D01*
G37*
D13*
X114678701Y-92049600D03*
G04 #@! TD*
D10*
G04 #@! TO.C,R1*
G36*
X114895542Y-93890774D02*
X114919203Y-93894284D01*
X114942407Y-93900096D01*
X114964929Y-93908154D01*
X114986553Y-93918382D01*
X115007070Y-93930679D01*
X115026283Y-93944929D01*
X115044007Y-93960993D01*
X115060071Y-93978717D01*
X115074321Y-93997930D01*
X115086618Y-94018447D01*
X115096846Y-94040071D01*
X115104904Y-94062593D01*
X115110716Y-94085797D01*
X115114226Y-94109458D01*
X115115400Y-94133350D01*
X115115400Y-95045850D01*
X115114226Y-95069742D01*
X115110716Y-95093403D01*
X115104904Y-95116607D01*
X115096846Y-95139129D01*
X115086618Y-95160753D01*
X115074321Y-95181270D01*
X115060071Y-95200483D01*
X115044007Y-95218207D01*
X115026283Y-95234271D01*
X115007070Y-95248521D01*
X114986553Y-95260818D01*
X114964929Y-95271046D01*
X114942407Y-95279104D01*
X114919203Y-95284916D01*
X114895542Y-95288426D01*
X114871650Y-95289600D01*
X114384150Y-95289600D01*
X114360258Y-95288426D01*
X114336597Y-95284916D01*
X114313393Y-95279104D01*
X114290871Y-95271046D01*
X114269247Y-95260818D01*
X114248730Y-95248521D01*
X114229517Y-95234271D01*
X114211793Y-95218207D01*
X114195729Y-95200483D01*
X114181479Y-95181270D01*
X114169182Y-95160753D01*
X114158954Y-95139129D01*
X114150896Y-95116607D01*
X114145084Y-95093403D01*
X114141574Y-95069742D01*
X114140400Y-95045850D01*
X114140400Y-94133350D01*
X114141574Y-94109458D01*
X114145084Y-94085797D01*
X114150896Y-94062593D01*
X114158954Y-94040071D01*
X114169182Y-94018447D01*
X114181479Y-93997930D01*
X114195729Y-93978717D01*
X114211793Y-93960993D01*
X114229517Y-93944929D01*
X114248730Y-93930679D01*
X114269247Y-93918382D01*
X114290871Y-93908154D01*
X114313393Y-93900096D01*
X114336597Y-93894284D01*
X114360258Y-93890774D01*
X114384150Y-93889600D01*
X114871650Y-93889600D01*
X114895542Y-93890774D01*
X114895542Y-93890774D01*
G37*
D13*
X114627900Y-94589600D03*
D10*
G36*
X113020542Y-93890774D02*
X113044203Y-93894284D01*
X113067407Y-93900096D01*
X113089929Y-93908154D01*
X113111553Y-93918382D01*
X113132070Y-93930679D01*
X113151283Y-93944929D01*
X113169007Y-93960993D01*
X113185071Y-93978717D01*
X113199321Y-93997930D01*
X113211618Y-94018447D01*
X113221846Y-94040071D01*
X113229904Y-94062593D01*
X113235716Y-94085797D01*
X113239226Y-94109458D01*
X113240400Y-94133350D01*
X113240400Y-95045850D01*
X113239226Y-95069742D01*
X113235716Y-95093403D01*
X113229904Y-95116607D01*
X113221846Y-95139129D01*
X113211618Y-95160753D01*
X113199321Y-95181270D01*
X113185071Y-95200483D01*
X113169007Y-95218207D01*
X113151283Y-95234271D01*
X113132070Y-95248521D01*
X113111553Y-95260818D01*
X113089929Y-95271046D01*
X113067407Y-95279104D01*
X113044203Y-95284916D01*
X113020542Y-95288426D01*
X112996650Y-95289600D01*
X112509150Y-95289600D01*
X112485258Y-95288426D01*
X112461597Y-95284916D01*
X112438393Y-95279104D01*
X112415871Y-95271046D01*
X112394247Y-95260818D01*
X112373730Y-95248521D01*
X112354517Y-95234271D01*
X112336793Y-95218207D01*
X112320729Y-95200483D01*
X112306479Y-95181270D01*
X112294182Y-95160753D01*
X112283954Y-95139129D01*
X112275896Y-95116607D01*
X112270084Y-95093403D01*
X112266574Y-95069742D01*
X112265400Y-95045850D01*
X112265400Y-94133350D01*
X112266574Y-94109458D01*
X112270084Y-94085797D01*
X112275896Y-94062593D01*
X112283954Y-94040071D01*
X112294182Y-94018447D01*
X112306479Y-93997930D01*
X112320729Y-93978717D01*
X112336793Y-93960993D01*
X112354517Y-93944929D01*
X112373730Y-93930679D01*
X112394247Y-93918382D01*
X112415871Y-93908154D01*
X112438393Y-93900096D01*
X112461597Y-93894284D01*
X112485258Y-93890774D01*
X112509150Y-93889600D01*
X112996650Y-93889600D01*
X113020542Y-93890774D01*
X113020542Y-93890774D01*
G37*
D13*
X112752900Y-94589600D03*
G04 #@! TD*
D10*
G04 #@! TO.C,R7*
G36*
X106157942Y-89775974D02*
X106181603Y-89779484D01*
X106204807Y-89785296D01*
X106227329Y-89793354D01*
X106248953Y-89803582D01*
X106269470Y-89815879D01*
X106288683Y-89830129D01*
X106306407Y-89846193D01*
X106322471Y-89863917D01*
X106336721Y-89883130D01*
X106349018Y-89903647D01*
X106359246Y-89925271D01*
X106367304Y-89947793D01*
X106373116Y-89970997D01*
X106376626Y-89994658D01*
X106377800Y-90018550D01*
X106377800Y-90931050D01*
X106376626Y-90954942D01*
X106373116Y-90978603D01*
X106367304Y-91001807D01*
X106359246Y-91024329D01*
X106349018Y-91045953D01*
X106336721Y-91066470D01*
X106322471Y-91085683D01*
X106306407Y-91103407D01*
X106288683Y-91119471D01*
X106269470Y-91133721D01*
X106248953Y-91146018D01*
X106227329Y-91156246D01*
X106204807Y-91164304D01*
X106181603Y-91170116D01*
X106157942Y-91173626D01*
X106134050Y-91174800D01*
X105646550Y-91174800D01*
X105622658Y-91173626D01*
X105598997Y-91170116D01*
X105575793Y-91164304D01*
X105553271Y-91156246D01*
X105531647Y-91146018D01*
X105511130Y-91133721D01*
X105491917Y-91119471D01*
X105474193Y-91103407D01*
X105458129Y-91085683D01*
X105443879Y-91066470D01*
X105431582Y-91045953D01*
X105421354Y-91024329D01*
X105413296Y-91001807D01*
X105407484Y-90978603D01*
X105403974Y-90954942D01*
X105402800Y-90931050D01*
X105402800Y-90018550D01*
X105403974Y-89994658D01*
X105407484Y-89970997D01*
X105413296Y-89947793D01*
X105421354Y-89925271D01*
X105431582Y-89903647D01*
X105443879Y-89883130D01*
X105458129Y-89863917D01*
X105474193Y-89846193D01*
X105491917Y-89830129D01*
X105511130Y-89815879D01*
X105531647Y-89803582D01*
X105553271Y-89793354D01*
X105575793Y-89785296D01*
X105598997Y-89779484D01*
X105622658Y-89775974D01*
X105646550Y-89774800D01*
X106134050Y-89774800D01*
X106157942Y-89775974D01*
X106157942Y-89775974D01*
G37*
D13*
X105890300Y-90474800D03*
D10*
G36*
X104282942Y-89775974D02*
X104306603Y-89779484D01*
X104329807Y-89785296D01*
X104352329Y-89793354D01*
X104373953Y-89803582D01*
X104394470Y-89815879D01*
X104413683Y-89830129D01*
X104431407Y-89846193D01*
X104447471Y-89863917D01*
X104461721Y-89883130D01*
X104474018Y-89903647D01*
X104484246Y-89925271D01*
X104492304Y-89947793D01*
X104498116Y-89970997D01*
X104501626Y-89994658D01*
X104502800Y-90018550D01*
X104502800Y-90931050D01*
X104501626Y-90954942D01*
X104498116Y-90978603D01*
X104492304Y-91001807D01*
X104484246Y-91024329D01*
X104474018Y-91045953D01*
X104461721Y-91066470D01*
X104447471Y-91085683D01*
X104431407Y-91103407D01*
X104413683Y-91119471D01*
X104394470Y-91133721D01*
X104373953Y-91146018D01*
X104352329Y-91156246D01*
X104329807Y-91164304D01*
X104306603Y-91170116D01*
X104282942Y-91173626D01*
X104259050Y-91174800D01*
X103771550Y-91174800D01*
X103747658Y-91173626D01*
X103723997Y-91170116D01*
X103700793Y-91164304D01*
X103678271Y-91156246D01*
X103656647Y-91146018D01*
X103636130Y-91133721D01*
X103616917Y-91119471D01*
X103599193Y-91103407D01*
X103583129Y-91085683D01*
X103568879Y-91066470D01*
X103556582Y-91045953D01*
X103546354Y-91024329D01*
X103538296Y-91001807D01*
X103532484Y-90978603D01*
X103528974Y-90954942D01*
X103527800Y-90931050D01*
X103527800Y-90018550D01*
X103528974Y-89994658D01*
X103532484Y-89970997D01*
X103538296Y-89947793D01*
X103546354Y-89925271D01*
X103556582Y-89903647D01*
X103568879Y-89883130D01*
X103583129Y-89863917D01*
X103599193Y-89846193D01*
X103616917Y-89830129D01*
X103636130Y-89815879D01*
X103656647Y-89803582D01*
X103678271Y-89793354D01*
X103700793Y-89785296D01*
X103723997Y-89779484D01*
X103747658Y-89775974D01*
X103771550Y-89774800D01*
X104259050Y-89774800D01*
X104282942Y-89775974D01*
X104282942Y-89775974D01*
G37*
D13*
X104015300Y-90474800D03*
G04 #@! TD*
D10*
G04 #@! TO.C,C5*
G36*
X66512704Y-94630204D02*
X66536973Y-94633804D01*
X66560771Y-94639765D01*
X66583871Y-94648030D01*
X66606049Y-94658520D01*
X66627093Y-94671133D01*
X66646798Y-94685747D01*
X66664977Y-94702223D01*
X66681453Y-94720402D01*
X66696067Y-94740107D01*
X66708680Y-94761151D01*
X66719170Y-94783329D01*
X66727435Y-94806429D01*
X66733396Y-94830227D01*
X66736996Y-94854496D01*
X66738200Y-94879000D01*
X66738200Y-96129000D01*
X66736996Y-96153504D01*
X66733396Y-96177773D01*
X66727435Y-96201571D01*
X66719170Y-96224671D01*
X66708680Y-96246849D01*
X66696067Y-96267893D01*
X66681453Y-96287598D01*
X66664977Y-96305777D01*
X66646798Y-96322253D01*
X66627093Y-96336867D01*
X66606049Y-96349480D01*
X66583871Y-96359970D01*
X66560771Y-96368235D01*
X66536973Y-96374196D01*
X66512704Y-96377796D01*
X66488200Y-96379000D01*
X65738200Y-96379000D01*
X65713696Y-96377796D01*
X65689427Y-96374196D01*
X65665629Y-96368235D01*
X65642529Y-96359970D01*
X65620351Y-96349480D01*
X65599307Y-96336867D01*
X65579602Y-96322253D01*
X65561423Y-96305777D01*
X65544947Y-96287598D01*
X65530333Y-96267893D01*
X65517720Y-96246849D01*
X65507230Y-96224671D01*
X65498965Y-96201571D01*
X65493004Y-96177773D01*
X65489404Y-96153504D01*
X65488200Y-96129000D01*
X65488200Y-94879000D01*
X65489404Y-94854496D01*
X65493004Y-94830227D01*
X65498965Y-94806429D01*
X65507230Y-94783329D01*
X65517720Y-94761151D01*
X65530333Y-94740107D01*
X65544947Y-94720402D01*
X65561423Y-94702223D01*
X65579602Y-94685747D01*
X65599307Y-94671133D01*
X65620351Y-94658520D01*
X65642529Y-94648030D01*
X65665629Y-94639765D01*
X65689427Y-94633804D01*
X65713696Y-94630204D01*
X65738200Y-94629000D01*
X66488200Y-94629000D01*
X66512704Y-94630204D01*
X66512704Y-94630204D01*
G37*
D14*
X66113200Y-95504000D03*
D10*
G36*
X69312704Y-94630204D02*
X69336973Y-94633804D01*
X69360771Y-94639765D01*
X69383871Y-94648030D01*
X69406049Y-94658520D01*
X69427093Y-94671133D01*
X69446798Y-94685747D01*
X69464977Y-94702223D01*
X69481453Y-94720402D01*
X69496067Y-94740107D01*
X69508680Y-94761151D01*
X69519170Y-94783329D01*
X69527435Y-94806429D01*
X69533396Y-94830227D01*
X69536996Y-94854496D01*
X69538200Y-94879000D01*
X69538200Y-96129000D01*
X69536996Y-96153504D01*
X69533396Y-96177773D01*
X69527435Y-96201571D01*
X69519170Y-96224671D01*
X69508680Y-96246849D01*
X69496067Y-96267893D01*
X69481453Y-96287598D01*
X69464977Y-96305777D01*
X69446798Y-96322253D01*
X69427093Y-96336867D01*
X69406049Y-96349480D01*
X69383871Y-96359970D01*
X69360771Y-96368235D01*
X69336973Y-96374196D01*
X69312704Y-96377796D01*
X69288200Y-96379000D01*
X68538200Y-96379000D01*
X68513696Y-96377796D01*
X68489427Y-96374196D01*
X68465629Y-96368235D01*
X68442529Y-96359970D01*
X68420351Y-96349480D01*
X68399307Y-96336867D01*
X68379602Y-96322253D01*
X68361423Y-96305777D01*
X68344947Y-96287598D01*
X68330333Y-96267893D01*
X68317720Y-96246849D01*
X68307230Y-96224671D01*
X68298965Y-96201571D01*
X68293004Y-96177773D01*
X68289404Y-96153504D01*
X68288200Y-96129000D01*
X68288200Y-94879000D01*
X68289404Y-94854496D01*
X68293004Y-94830227D01*
X68298965Y-94806429D01*
X68307230Y-94783329D01*
X68317720Y-94761151D01*
X68330333Y-94740107D01*
X68344947Y-94720402D01*
X68361423Y-94702223D01*
X68379602Y-94685747D01*
X68399307Y-94671133D01*
X68420351Y-94658520D01*
X68442529Y-94648030D01*
X68465629Y-94639765D01*
X68489427Y-94633804D01*
X68513696Y-94630204D01*
X68538200Y-94629000D01*
X69288200Y-94629000D01*
X69312704Y-94630204D01*
X69312704Y-94630204D01*
G37*
D14*
X68913200Y-95504000D03*
G04 #@! TD*
D15*
G04 #@! TO.C,D8*
X95046800Y-98498200D03*
X95046800Y-101298200D03*
G04 #@! TD*
D16*
G04 #@! TO.C,J4*
X66228000Y-80531600D03*
D10*
G36*
X72149558Y-84233887D02*
X72195668Y-84240727D01*
X72240885Y-84252053D01*
X72284775Y-84267757D01*
X72326913Y-84287687D01*
X72366896Y-84311652D01*
X72404337Y-84339420D01*
X72438876Y-84370724D01*
X72470180Y-84405263D01*
X72497948Y-84442704D01*
X72521913Y-84482687D01*
X72541843Y-84524825D01*
X72557547Y-84568715D01*
X72568873Y-84613932D01*
X72575713Y-84660042D01*
X72578000Y-84706600D01*
X72578000Y-85656600D01*
X72575713Y-85703158D01*
X72568873Y-85749268D01*
X72557547Y-85794485D01*
X72541843Y-85838375D01*
X72521913Y-85880513D01*
X72497948Y-85920496D01*
X72470180Y-85957937D01*
X72438876Y-85992476D01*
X72404337Y-86023780D01*
X72366896Y-86051548D01*
X72326913Y-86075513D01*
X72284775Y-86095443D01*
X72240885Y-86111147D01*
X72195668Y-86122473D01*
X72149558Y-86129313D01*
X72103000Y-86131600D01*
X71153000Y-86131600D01*
X71106442Y-86129313D01*
X71060332Y-86122473D01*
X71015115Y-86111147D01*
X70971225Y-86095443D01*
X70929087Y-86075513D01*
X70889104Y-86051548D01*
X70851663Y-86023780D01*
X70817124Y-85992476D01*
X70785820Y-85957937D01*
X70758052Y-85920496D01*
X70734087Y-85880513D01*
X70714157Y-85838375D01*
X70698453Y-85794485D01*
X70687127Y-85749268D01*
X70680287Y-85703158D01*
X70678000Y-85656600D01*
X70678000Y-84706600D01*
X70680287Y-84660042D01*
X70687127Y-84613932D01*
X70698453Y-84568715D01*
X70714157Y-84524825D01*
X70734087Y-84482687D01*
X70758052Y-84442704D01*
X70785820Y-84405263D01*
X70817124Y-84370724D01*
X70851663Y-84339420D01*
X70889104Y-84311652D01*
X70929087Y-84287687D01*
X70971225Y-84267757D01*
X71015115Y-84252053D01*
X71060332Y-84240727D01*
X71106442Y-84233887D01*
X71153000Y-84231600D01*
X72103000Y-84231600D01*
X72149558Y-84233887D01*
X72149558Y-84233887D01*
G37*
D17*
X71628000Y-85181600D03*
D16*
X77028000Y-80531600D03*
D10*
G36*
X69649558Y-84233887D02*
X69695668Y-84240727D01*
X69740885Y-84252053D01*
X69784775Y-84267757D01*
X69826913Y-84287687D01*
X69866896Y-84311652D01*
X69904337Y-84339420D01*
X69938876Y-84370724D01*
X69970180Y-84405263D01*
X69997948Y-84442704D01*
X70021913Y-84482687D01*
X70041843Y-84524825D01*
X70057547Y-84568715D01*
X70068873Y-84613932D01*
X70075713Y-84660042D01*
X70078000Y-84706600D01*
X70078000Y-85656600D01*
X70075713Y-85703158D01*
X70068873Y-85749268D01*
X70057547Y-85794485D01*
X70041843Y-85838375D01*
X70021913Y-85880513D01*
X69997948Y-85920496D01*
X69970180Y-85957937D01*
X69938876Y-85992476D01*
X69904337Y-86023780D01*
X69866896Y-86051548D01*
X69826913Y-86075513D01*
X69784775Y-86095443D01*
X69740885Y-86111147D01*
X69695668Y-86122473D01*
X69649558Y-86129313D01*
X69603000Y-86131600D01*
X68653000Y-86131600D01*
X68606442Y-86129313D01*
X68560332Y-86122473D01*
X68515115Y-86111147D01*
X68471225Y-86095443D01*
X68429087Y-86075513D01*
X68389104Y-86051548D01*
X68351663Y-86023780D01*
X68317124Y-85992476D01*
X68285820Y-85957937D01*
X68258052Y-85920496D01*
X68234087Y-85880513D01*
X68214157Y-85838375D01*
X68198453Y-85794485D01*
X68187127Y-85749268D01*
X68180287Y-85703158D01*
X68178000Y-85656600D01*
X68178000Y-84706600D01*
X68180287Y-84660042D01*
X68187127Y-84613932D01*
X68198453Y-84568715D01*
X68214157Y-84524825D01*
X68234087Y-84482687D01*
X68258052Y-84442704D01*
X68285820Y-84405263D01*
X68317124Y-84370724D01*
X68351663Y-84339420D01*
X68389104Y-84311652D01*
X68429087Y-84287687D01*
X68471225Y-84267757D01*
X68515115Y-84252053D01*
X68560332Y-84240727D01*
X68606442Y-84233887D01*
X68653000Y-84231600D01*
X69603000Y-84231600D01*
X69649558Y-84233887D01*
X69649558Y-84233887D01*
G37*
D17*
X69128000Y-85181600D03*
D10*
G36*
X74649558Y-84233887D02*
X74695668Y-84240727D01*
X74740885Y-84252053D01*
X74784775Y-84267757D01*
X74826913Y-84287687D01*
X74866896Y-84311652D01*
X74904337Y-84339420D01*
X74938876Y-84370724D01*
X74970180Y-84405263D01*
X74997948Y-84442704D01*
X75021913Y-84482687D01*
X75041843Y-84524825D01*
X75057547Y-84568715D01*
X75068873Y-84613932D01*
X75075713Y-84660042D01*
X75078000Y-84706600D01*
X75078000Y-85656600D01*
X75075713Y-85703158D01*
X75068873Y-85749268D01*
X75057547Y-85794485D01*
X75041843Y-85838375D01*
X75021913Y-85880513D01*
X74997948Y-85920496D01*
X74970180Y-85957937D01*
X74938876Y-85992476D01*
X74904337Y-86023780D01*
X74866896Y-86051548D01*
X74826913Y-86075513D01*
X74784775Y-86095443D01*
X74740885Y-86111147D01*
X74695668Y-86122473D01*
X74649558Y-86129313D01*
X74603000Y-86131600D01*
X73653000Y-86131600D01*
X73606442Y-86129313D01*
X73560332Y-86122473D01*
X73515115Y-86111147D01*
X73471225Y-86095443D01*
X73429087Y-86075513D01*
X73389104Y-86051548D01*
X73351663Y-86023780D01*
X73317124Y-85992476D01*
X73285820Y-85957937D01*
X73258052Y-85920496D01*
X73234087Y-85880513D01*
X73214157Y-85838375D01*
X73198453Y-85794485D01*
X73187127Y-85749268D01*
X73180287Y-85703158D01*
X73178000Y-85656600D01*
X73178000Y-84706600D01*
X73180287Y-84660042D01*
X73187127Y-84613932D01*
X73198453Y-84568715D01*
X73214157Y-84524825D01*
X73234087Y-84482687D01*
X73258052Y-84442704D01*
X73285820Y-84405263D01*
X73317124Y-84370724D01*
X73351663Y-84339420D01*
X73389104Y-84311652D01*
X73429087Y-84287687D01*
X73471225Y-84267757D01*
X73515115Y-84252053D01*
X73560332Y-84240727D01*
X73606442Y-84233887D01*
X73653000Y-84231600D01*
X74603000Y-84231600D01*
X74649558Y-84233887D01*
X74649558Y-84233887D01*
G37*
D17*
X74128000Y-85181600D03*
G04 #@! TD*
D10*
G04 #@! TO.C,C4*
G36*
X74788942Y-94297174D02*
X74812603Y-94300684D01*
X74835807Y-94306496D01*
X74858329Y-94314554D01*
X74879953Y-94324782D01*
X74900470Y-94337079D01*
X74919683Y-94351329D01*
X74937407Y-94367393D01*
X74953471Y-94385117D01*
X74967721Y-94404330D01*
X74980018Y-94424847D01*
X74990246Y-94446471D01*
X74998304Y-94468993D01*
X75004116Y-94492197D01*
X75007626Y-94515858D01*
X75008800Y-94539750D01*
X75008800Y-95452250D01*
X75007626Y-95476142D01*
X75004116Y-95499803D01*
X74998304Y-95523007D01*
X74990246Y-95545529D01*
X74980018Y-95567153D01*
X74967721Y-95587670D01*
X74953471Y-95606883D01*
X74937407Y-95624607D01*
X74919683Y-95640671D01*
X74900470Y-95654921D01*
X74879953Y-95667218D01*
X74858329Y-95677446D01*
X74835807Y-95685504D01*
X74812603Y-95691316D01*
X74788942Y-95694826D01*
X74765050Y-95696000D01*
X74277550Y-95696000D01*
X74253658Y-95694826D01*
X74229997Y-95691316D01*
X74206793Y-95685504D01*
X74184271Y-95677446D01*
X74162647Y-95667218D01*
X74142130Y-95654921D01*
X74122917Y-95640671D01*
X74105193Y-95624607D01*
X74089129Y-95606883D01*
X74074879Y-95587670D01*
X74062582Y-95567153D01*
X74052354Y-95545529D01*
X74044296Y-95523007D01*
X74038484Y-95499803D01*
X74034974Y-95476142D01*
X74033800Y-95452250D01*
X74033800Y-94539750D01*
X74034974Y-94515858D01*
X74038484Y-94492197D01*
X74044296Y-94468993D01*
X74052354Y-94446471D01*
X74062582Y-94424847D01*
X74074879Y-94404330D01*
X74089129Y-94385117D01*
X74105193Y-94367393D01*
X74122917Y-94351329D01*
X74142130Y-94337079D01*
X74162647Y-94324782D01*
X74184271Y-94314554D01*
X74206793Y-94306496D01*
X74229997Y-94300684D01*
X74253658Y-94297174D01*
X74277550Y-94296000D01*
X74765050Y-94296000D01*
X74788942Y-94297174D01*
X74788942Y-94297174D01*
G37*
D13*
X74521300Y-94996000D03*
D10*
G36*
X72913942Y-94297174D02*
X72937603Y-94300684D01*
X72960807Y-94306496D01*
X72983329Y-94314554D01*
X73004953Y-94324782D01*
X73025470Y-94337079D01*
X73044683Y-94351329D01*
X73062407Y-94367393D01*
X73078471Y-94385117D01*
X73092721Y-94404330D01*
X73105018Y-94424847D01*
X73115246Y-94446471D01*
X73123304Y-94468993D01*
X73129116Y-94492197D01*
X73132626Y-94515858D01*
X73133800Y-94539750D01*
X73133800Y-95452250D01*
X73132626Y-95476142D01*
X73129116Y-95499803D01*
X73123304Y-95523007D01*
X73115246Y-95545529D01*
X73105018Y-95567153D01*
X73092721Y-95587670D01*
X73078471Y-95606883D01*
X73062407Y-95624607D01*
X73044683Y-95640671D01*
X73025470Y-95654921D01*
X73004953Y-95667218D01*
X72983329Y-95677446D01*
X72960807Y-95685504D01*
X72937603Y-95691316D01*
X72913942Y-95694826D01*
X72890050Y-95696000D01*
X72402550Y-95696000D01*
X72378658Y-95694826D01*
X72354997Y-95691316D01*
X72331793Y-95685504D01*
X72309271Y-95677446D01*
X72287647Y-95667218D01*
X72267130Y-95654921D01*
X72247917Y-95640671D01*
X72230193Y-95624607D01*
X72214129Y-95606883D01*
X72199879Y-95587670D01*
X72187582Y-95567153D01*
X72177354Y-95545529D01*
X72169296Y-95523007D01*
X72163484Y-95499803D01*
X72159974Y-95476142D01*
X72158800Y-95452250D01*
X72158800Y-94539750D01*
X72159974Y-94515858D01*
X72163484Y-94492197D01*
X72169296Y-94468993D01*
X72177354Y-94446471D01*
X72187582Y-94424847D01*
X72199879Y-94404330D01*
X72214129Y-94385117D01*
X72230193Y-94367393D01*
X72247917Y-94351329D01*
X72267130Y-94337079D01*
X72287647Y-94324782D01*
X72309271Y-94314554D01*
X72331793Y-94306496D01*
X72354997Y-94300684D01*
X72378658Y-94297174D01*
X72402550Y-94296000D01*
X72890050Y-94296000D01*
X72913942Y-94297174D01*
X72913942Y-94297174D01*
G37*
D13*
X72646300Y-94996000D03*
G04 #@! TD*
D18*
G04 #@! TO.C,AMP1*
X76604600Y-96406400D03*
X76604600Y-95906400D03*
X76604600Y-95406400D03*
X76604600Y-94906400D03*
D19*
X77329600Y-94181400D03*
X77829600Y-94181400D03*
X78329600Y-94181400D03*
X78829600Y-94181400D03*
D18*
X79554600Y-94906400D03*
X79554600Y-95406400D03*
X79554600Y-95906400D03*
X79554600Y-96406400D03*
D19*
X78829600Y-97131400D03*
X78329600Y-97131400D03*
X77829600Y-97131400D03*
X77329600Y-97131400D03*
D20*
X78579600Y-96156400D03*
X77579600Y-96156400D03*
X77579600Y-95156400D03*
X78579600Y-95156400D03*
G04 #@! TD*
D10*
G04 #@! TO.C,C2*
G36*
X66259142Y-97218174D02*
X66282803Y-97221684D01*
X66306007Y-97227496D01*
X66328529Y-97235554D01*
X66350153Y-97245782D01*
X66370670Y-97258079D01*
X66389883Y-97272329D01*
X66407607Y-97288393D01*
X66423671Y-97306117D01*
X66437921Y-97325330D01*
X66450218Y-97345847D01*
X66460446Y-97367471D01*
X66468504Y-97389993D01*
X66474316Y-97413197D01*
X66477826Y-97436858D01*
X66479000Y-97460750D01*
X66479000Y-98373250D01*
X66477826Y-98397142D01*
X66474316Y-98420803D01*
X66468504Y-98444007D01*
X66460446Y-98466529D01*
X66450218Y-98488153D01*
X66437921Y-98508670D01*
X66423671Y-98527883D01*
X66407607Y-98545607D01*
X66389883Y-98561671D01*
X66370670Y-98575921D01*
X66350153Y-98588218D01*
X66328529Y-98598446D01*
X66306007Y-98606504D01*
X66282803Y-98612316D01*
X66259142Y-98615826D01*
X66235250Y-98617000D01*
X65747750Y-98617000D01*
X65723858Y-98615826D01*
X65700197Y-98612316D01*
X65676993Y-98606504D01*
X65654471Y-98598446D01*
X65632847Y-98588218D01*
X65612330Y-98575921D01*
X65593117Y-98561671D01*
X65575393Y-98545607D01*
X65559329Y-98527883D01*
X65545079Y-98508670D01*
X65532782Y-98488153D01*
X65522554Y-98466529D01*
X65514496Y-98444007D01*
X65508684Y-98420803D01*
X65505174Y-98397142D01*
X65504000Y-98373250D01*
X65504000Y-97460750D01*
X65505174Y-97436858D01*
X65508684Y-97413197D01*
X65514496Y-97389993D01*
X65522554Y-97367471D01*
X65532782Y-97345847D01*
X65545079Y-97325330D01*
X65559329Y-97306117D01*
X65575393Y-97288393D01*
X65593117Y-97272329D01*
X65612330Y-97258079D01*
X65632847Y-97245782D01*
X65654471Y-97235554D01*
X65676993Y-97227496D01*
X65700197Y-97221684D01*
X65723858Y-97218174D01*
X65747750Y-97217000D01*
X66235250Y-97217000D01*
X66259142Y-97218174D01*
X66259142Y-97218174D01*
G37*
D13*
X65991500Y-97917000D03*
D10*
G36*
X68134142Y-97218174D02*
X68157803Y-97221684D01*
X68181007Y-97227496D01*
X68203529Y-97235554D01*
X68225153Y-97245782D01*
X68245670Y-97258079D01*
X68264883Y-97272329D01*
X68282607Y-97288393D01*
X68298671Y-97306117D01*
X68312921Y-97325330D01*
X68325218Y-97345847D01*
X68335446Y-97367471D01*
X68343504Y-97389993D01*
X68349316Y-97413197D01*
X68352826Y-97436858D01*
X68354000Y-97460750D01*
X68354000Y-98373250D01*
X68352826Y-98397142D01*
X68349316Y-98420803D01*
X68343504Y-98444007D01*
X68335446Y-98466529D01*
X68325218Y-98488153D01*
X68312921Y-98508670D01*
X68298671Y-98527883D01*
X68282607Y-98545607D01*
X68264883Y-98561671D01*
X68245670Y-98575921D01*
X68225153Y-98588218D01*
X68203529Y-98598446D01*
X68181007Y-98606504D01*
X68157803Y-98612316D01*
X68134142Y-98615826D01*
X68110250Y-98617000D01*
X67622750Y-98617000D01*
X67598858Y-98615826D01*
X67575197Y-98612316D01*
X67551993Y-98606504D01*
X67529471Y-98598446D01*
X67507847Y-98588218D01*
X67487330Y-98575921D01*
X67468117Y-98561671D01*
X67450393Y-98545607D01*
X67434329Y-98527883D01*
X67420079Y-98508670D01*
X67407782Y-98488153D01*
X67397554Y-98466529D01*
X67389496Y-98444007D01*
X67383684Y-98420803D01*
X67380174Y-98397142D01*
X67379000Y-98373250D01*
X67379000Y-97460750D01*
X67380174Y-97436858D01*
X67383684Y-97413197D01*
X67389496Y-97389993D01*
X67397554Y-97367471D01*
X67407782Y-97345847D01*
X67420079Y-97325330D01*
X67434329Y-97306117D01*
X67450393Y-97288393D01*
X67468117Y-97272329D01*
X67487330Y-97258079D01*
X67507847Y-97245782D01*
X67529471Y-97235554D01*
X67551993Y-97227496D01*
X67575197Y-97221684D01*
X67598858Y-97218174D01*
X67622750Y-97217000D01*
X68110250Y-97217000D01*
X68134142Y-97218174D01*
X68134142Y-97218174D01*
G37*
D13*
X67866500Y-97917000D03*
G04 #@! TD*
D10*
G04 #@! TO.C,C31*
G36*
X92745642Y-103097174D02*
X92769303Y-103100684D01*
X92792507Y-103106496D01*
X92815029Y-103114554D01*
X92836653Y-103124782D01*
X92857170Y-103137079D01*
X92876383Y-103151329D01*
X92894107Y-103167393D01*
X92910171Y-103185117D01*
X92924421Y-103204330D01*
X92936718Y-103224847D01*
X92946946Y-103246471D01*
X92955004Y-103268993D01*
X92960816Y-103292197D01*
X92964326Y-103315858D01*
X92965500Y-103339750D01*
X92965500Y-103827250D01*
X92964326Y-103851142D01*
X92960816Y-103874803D01*
X92955004Y-103898007D01*
X92946946Y-103920529D01*
X92936718Y-103942153D01*
X92924421Y-103962670D01*
X92910171Y-103981883D01*
X92894107Y-103999607D01*
X92876383Y-104015671D01*
X92857170Y-104029921D01*
X92836653Y-104042218D01*
X92815029Y-104052446D01*
X92792507Y-104060504D01*
X92769303Y-104066316D01*
X92745642Y-104069826D01*
X92721750Y-104071000D01*
X91809250Y-104071000D01*
X91785358Y-104069826D01*
X91761697Y-104066316D01*
X91738493Y-104060504D01*
X91715971Y-104052446D01*
X91694347Y-104042218D01*
X91673830Y-104029921D01*
X91654617Y-104015671D01*
X91636893Y-103999607D01*
X91620829Y-103981883D01*
X91606579Y-103962670D01*
X91594282Y-103942153D01*
X91584054Y-103920529D01*
X91575996Y-103898007D01*
X91570184Y-103874803D01*
X91566674Y-103851142D01*
X91565500Y-103827250D01*
X91565500Y-103339750D01*
X91566674Y-103315858D01*
X91570184Y-103292197D01*
X91575996Y-103268993D01*
X91584054Y-103246471D01*
X91594282Y-103224847D01*
X91606579Y-103204330D01*
X91620829Y-103185117D01*
X91636893Y-103167393D01*
X91654617Y-103151329D01*
X91673830Y-103137079D01*
X91694347Y-103124782D01*
X91715971Y-103114554D01*
X91738493Y-103106496D01*
X91761697Y-103100684D01*
X91785358Y-103097174D01*
X91809250Y-103096000D01*
X92721750Y-103096000D01*
X92745642Y-103097174D01*
X92745642Y-103097174D01*
G37*
D13*
X92265500Y-103583500D03*
D10*
G36*
X92745642Y-104972174D02*
X92769303Y-104975684D01*
X92792507Y-104981496D01*
X92815029Y-104989554D01*
X92836653Y-104999782D01*
X92857170Y-105012079D01*
X92876383Y-105026329D01*
X92894107Y-105042393D01*
X92910171Y-105060117D01*
X92924421Y-105079330D01*
X92936718Y-105099847D01*
X92946946Y-105121471D01*
X92955004Y-105143993D01*
X92960816Y-105167197D01*
X92964326Y-105190858D01*
X92965500Y-105214750D01*
X92965500Y-105702250D01*
X92964326Y-105726142D01*
X92960816Y-105749803D01*
X92955004Y-105773007D01*
X92946946Y-105795529D01*
X92936718Y-105817153D01*
X92924421Y-105837670D01*
X92910171Y-105856883D01*
X92894107Y-105874607D01*
X92876383Y-105890671D01*
X92857170Y-105904921D01*
X92836653Y-105917218D01*
X92815029Y-105927446D01*
X92792507Y-105935504D01*
X92769303Y-105941316D01*
X92745642Y-105944826D01*
X92721750Y-105946000D01*
X91809250Y-105946000D01*
X91785358Y-105944826D01*
X91761697Y-105941316D01*
X91738493Y-105935504D01*
X91715971Y-105927446D01*
X91694347Y-105917218D01*
X91673830Y-105904921D01*
X91654617Y-105890671D01*
X91636893Y-105874607D01*
X91620829Y-105856883D01*
X91606579Y-105837670D01*
X91594282Y-105817153D01*
X91584054Y-105795529D01*
X91575996Y-105773007D01*
X91570184Y-105749803D01*
X91566674Y-105726142D01*
X91565500Y-105702250D01*
X91565500Y-105214750D01*
X91566674Y-105190858D01*
X91570184Y-105167197D01*
X91575996Y-105143993D01*
X91584054Y-105121471D01*
X91594282Y-105099847D01*
X91606579Y-105079330D01*
X91620829Y-105060117D01*
X91636893Y-105042393D01*
X91654617Y-105026329D01*
X91673830Y-105012079D01*
X91694347Y-104999782D01*
X91715971Y-104989554D01*
X91738493Y-104981496D01*
X91761697Y-104975684D01*
X91785358Y-104972174D01*
X91809250Y-104971000D01*
X92721750Y-104971000D01*
X92745642Y-104972174D01*
X92745642Y-104972174D01*
G37*
D13*
X92265500Y-105458500D03*
G04 #@! TD*
D10*
G04 #@! TO.C,R6*
G36*
X69658142Y-89725174D02*
X69681803Y-89728684D01*
X69705007Y-89734496D01*
X69727529Y-89742554D01*
X69749153Y-89752782D01*
X69769670Y-89765079D01*
X69788883Y-89779329D01*
X69806607Y-89795393D01*
X69822671Y-89813117D01*
X69836921Y-89832330D01*
X69849218Y-89852847D01*
X69859446Y-89874471D01*
X69867504Y-89896993D01*
X69873316Y-89920197D01*
X69876826Y-89943858D01*
X69878000Y-89967750D01*
X69878000Y-90880250D01*
X69876826Y-90904142D01*
X69873316Y-90927803D01*
X69867504Y-90951007D01*
X69859446Y-90973529D01*
X69849218Y-90995153D01*
X69836921Y-91015670D01*
X69822671Y-91034883D01*
X69806607Y-91052607D01*
X69788883Y-91068671D01*
X69769670Y-91082921D01*
X69749153Y-91095218D01*
X69727529Y-91105446D01*
X69705007Y-91113504D01*
X69681803Y-91119316D01*
X69658142Y-91122826D01*
X69634250Y-91124000D01*
X69146750Y-91124000D01*
X69122858Y-91122826D01*
X69099197Y-91119316D01*
X69075993Y-91113504D01*
X69053471Y-91105446D01*
X69031847Y-91095218D01*
X69011330Y-91082921D01*
X68992117Y-91068671D01*
X68974393Y-91052607D01*
X68958329Y-91034883D01*
X68944079Y-91015670D01*
X68931782Y-90995153D01*
X68921554Y-90973529D01*
X68913496Y-90951007D01*
X68907684Y-90927803D01*
X68904174Y-90904142D01*
X68903000Y-90880250D01*
X68903000Y-89967750D01*
X68904174Y-89943858D01*
X68907684Y-89920197D01*
X68913496Y-89896993D01*
X68921554Y-89874471D01*
X68931782Y-89852847D01*
X68944079Y-89832330D01*
X68958329Y-89813117D01*
X68974393Y-89795393D01*
X68992117Y-89779329D01*
X69011330Y-89765079D01*
X69031847Y-89752782D01*
X69053471Y-89742554D01*
X69075993Y-89734496D01*
X69099197Y-89728684D01*
X69122858Y-89725174D01*
X69146750Y-89724000D01*
X69634250Y-89724000D01*
X69658142Y-89725174D01*
X69658142Y-89725174D01*
G37*
D13*
X69390500Y-90424000D03*
D10*
G36*
X67783142Y-89725174D02*
X67806803Y-89728684D01*
X67830007Y-89734496D01*
X67852529Y-89742554D01*
X67874153Y-89752782D01*
X67894670Y-89765079D01*
X67913883Y-89779329D01*
X67931607Y-89795393D01*
X67947671Y-89813117D01*
X67961921Y-89832330D01*
X67974218Y-89852847D01*
X67984446Y-89874471D01*
X67992504Y-89896993D01*
X67998316Y-89920197D01*
X68001826Y-89943858D01*
X68003000Y-89967750D01*
X68003000Y-90880250D01*
X68001826Y-90904142D01*
X67998316Y-90927803D01*
X67992504Y-90951007D01*
X67984446Y-90973529D01*
X67974218Y-90995153D01*
X67961921Y-91015670D01*
X67947671Y-91034883D01*
X67931607Y-91052607D01*
X67913883Y-91068671D01*
X67894670Y-91082921D01*
X67874153Y-91095218D01*
X67852529Y-91105446D01*
X67830007Y-91113504D01*
X67806803Y-91119316D01*
X67783142Y-91122826D01*
X67759250Y-91124000D01*
X67271750Y-91124000D01*
X67247858Y-91122826D01*
X67224197Y-91119316D01*
X67200993Y-91113504D01*
X67178471Y-91105446D01*
X67156847Y-91095218D01*
X67136330Y-91082921D01*
X67117117Y-91068671D01*
X67099393Y-91052607D01*
X67083329Y-91034883D01*
X67069079Y-91015670D01*
X67056782Y-90995153D01*
X67046554Y-90973529D01*
X67038496Y-90951007D01*
X67032684Y-90927803D01*
X67029174Y-90904142D01*
X67028000Y-90880250D01*
X67028000Y-89967750D01*
X67029174Y-89943858D01*
X67032684Y-89920197D01*
X67038496Y-89896993D01*
X67046554Y-89874471D01*
X67056782Y-89852847D01*
X67069079Y-89832330D01*
X67083329Y-89813117D01*
X67099393Y-89795393D01*
X67117117Y-89779329D01*
X67136330Y-89765079D01*
X67156847Y-89752782D01*
X67178471Y-89742554D01*
X67200993Y-89734496D01*
X67224197Y-89728684D01*
X67247858Y-89725174D01*
X67271750Y-89724000D01*
X67759250Y-89724000D01*
X67783142Y-89725174D01*
X67783142Y-89725174D01*
G37*
D13*
X67515500Y-90424000D03*
G04 #@! TD*
D10*
G04 #@! TO.C,R5*
G36*
X67757642Y-87820174D02*
X67781303Y-87823684D01*
X67804507Y-87829496D01*
X67827029Y-87837554D01*
X67848653Y-87847782D01*
X67869170Y-87860079D01*
X67888383Y-87874329D01*
X67906107Y-87890393D01*
X67922171Y-87908117D01*
X67936421Y-87927330D01*
X67948718Y-87947847D01*
X67958946Y-87969471D01*
X67967004Y-87991993D01*
X67972816Y-88015197D01*
X67976326Y-88038858D01*
X67977500Y-88062750D01*
X67977500Y-88975250D01*
X67976326Y-88999142D01*
X67972816Y-89022803D01*
X67967004Y-89046007D01*
X67958946Y-89068529D01*
X67948718Y-89090153D01*
X67936421Y-89110670D01*
X67922171Y-89129883D01*
X67906107Y-89147607D01*
X67888383Y-89163671D01*
X67869170Y-89177921D01*
X67848653Y-89190218D01*
X67827029Y-89200446D01*
X67804507Y-89208504D01*
X67781303Y-89214316D01*
X67757642Y-89217826D01*
X67733750Y-89219000D01*
X67246250Y-89219000D01*
X67222358Y-89217826D01*
X67198697Y-89214316D01*
X67175493Y-89208504D01*
X67152971Y-89200446D01*
X67131347Y-89190218D01*
X67110830Y-89177921D01*
X67091617Y-89163671D01*
X67073893Y-89147607D01*
X67057829Y-89129883D01*
X67043579Y-89110670D01*
X67031282Y-89090153D01*
X67021054Y-89068529D01*
X67012996Y-89046007D01*
X67007184Y-89022803D01*
X67003674Y-88999142D01*
X67002500Y-88975250D01*
X67002500Y-88062750D01*
X67003674Y-88038858D01*
X67007184Y-88015197D01*
X67012996Y-87991993D01*
X67021054Y-87969471D01*
X67031282Y-87947847D01*
X67043579Y-87927330D01*
X67057829Y-87908117D01*
X67073893Y-87890393D01*
X67091617Y-87874329D01*
X67110830Y-87860079D01*
X67131347Y-87847782D01*
X67152971Y-87837554D01*
X67175493Y-87829496D01*
X67198697Y-87823684D01*
X67222358Y-87820174D01*
X67246250Y-87819000D01*
X67733750Y-87819000D01*
X67757642Y-87820174D01*
X67757642Y-87820174D01*
G37*
D13*
X67490000Y-88519000D03*
D10*
G36*
X69632642Y-87820174D02*
X69656303Y-87823684D01*
X69679507Y-87829496D01*
X69702029Y-87837554D01*
X69723653Y-87847782D01*
X69744170Y-87860079D01*
X69763383Y-87874329D01*
X69781107Y-87890393D01*
X69797171Y-87908117D01*
X69811421Y-87927330D01*
X69823718Y-87947847D01*
X69833946Y-87969471D01*
X69842004Y-87991993D01*
X69847816Y-88015197D01*
X69851326Y-88038858D01*
X69852500Y-88062750D01*
X69852500Y-88975250D01*
X69851326Y-88999142D01*
X69847816Y-89022803D01*
X69842004Y-89046007D01*
X69833946Y-89068529D01*
X69823718Y-89090153D01*
X69811421Y-89110670D01*
X69797171Y-89129883D01*
X69781107Y-89147607D01*
X69763383Y-89163671D01*
X69744170Y-89177921D01*
X69723653Y-89190218D01*
X69702029Y-89200446D01*
X69679507Y-89208504D01*
X69656303Y-89214316D01*
X69632642Y-89217826D01*
X69608750Y-89219000D01*
X69121250Y-89219000D01*
X69097358Y-89217826D01*
X69073697Y-89214316D01*
X69050493Y-89208504D01*
X69027971Y-89200446D01*
X69006347Y-89190218D01*
X68985830Y-89177921D01*
X68966617Y-89163671D01*
X68948893Y-89147607D01*
X68932829Y-89129883D01*
X68918579Y-89110670D01*
X68906282Y-89090153D01*
X68896054Y-89068529D01*
X68887996Y-89046007D01*
X68882184Y-89022803D01*
X68878674Y-88999142D01*
X68877500Y-88975250D01*
X68877500Y-88062750D01*
X68878674Y-88038858D01*
X68882184Y-88015197D01*
X68887996Y-87991993D01*
X68896054Y-87969471D01*
X68906282Y-87947847D01*
X68918579Y-87927330D01*
X68932829Y-87908117D01*
X68948893Y-87890393D01*
X68966617Y-87874329D01*
X68985830Y-87860079D01*
X69006347Y-87847782D01*
X69027971Y-87837554D01*
X69050493Y-87829496D01*
X69073697Y-87823684D01*
X69097358Y-87820174D01*
X69121250Y-87819000D01*
X69608750Y-87819000D01*
X69632642Y-87820174D01*
X69632642Y-87820174D01*
G37*
D13*
X69365000Y-88519000D03*
G04 #@! TD*
D10*
G04 #@! TO.C,R52*
G36*
X102297142Y-106870174D02*
X102320803Y-106873684D01*
X102344007Y-106879496D01*
X102366529Y-106887554D01*
X102388153Y-106897782D01*
X102408670Y-106910079D01*
X102427883Y-106924329D01*
X102445607Y-106940393D01*
X102461671Y-106958117D01*
X102475921Y-106977330D01*
X102488218Y-106997847D01*
X102498446Y-107019471D01*
X102506504Y-107041993D01*
X102512316Y-107065197D01*
X102515826Y-107088858D01*
X102517000Y-107112750D01*
X102517000Y-108025250D01*
X102515826Y-108049142D01*
X102512316Y-108072803D01*
X102506504Y-108096007D01*
X102498446Y-108118529D01*
X102488218Y-108140153D01*
X102475921Y-108160670D01*
X102461671Y-108179883D01*
X102445607Y-108197607D01*
X102427883Y-108213671D01*
X102408670Y-108227921D01*
X102388153Y-108240218D01*
X102366529Y-108250446D01*
X102344007Y-108258504D01*
X102320803Y-108264316D01*
X102297142Y-108267826D01*
X102273250Y-108269000D01*
X101785750Y-108269000D01*
X101761858Y-108267826D01*
X101738197Y-108264316D01*
X101714993Y-108258504D01*
X101692471Y-108250446D01*
X101670847Y-108240218D01*
X101650330Y-108227921D01*
X101631117Y-108213671D01*
X101613393Y-108197607D01*
X101597329Y-108179883D01*
X101583079Y-108160670D01*
X101570782Y-108140153D01*
X101560554Y-108118529D01*
X101552496Y-108096007D01*
X101546684Y-108072803D01*
X101543174Y-108049142D01*
X101542000Y-108025250D01*
X101542000Y-107112750D01*
X101543174Y-107088858D01*
X101546684Y-107065197D01*
X101552496Y-107041993D01*
X101560554Y-107019471D01*
X101570782Y-106997847D01*
X101583079Y-106977330D01*
X101597329Y-106958117D01*
X101613393Y-106940393D01*
X101631117Y-106924329D01*
X101650330Y-106910079D01*
X101670847Y-106897782D01*
X101692471Y-106887554D01*
X101714993Y-106879496D01*
X101738197Y-106873684D01*
X101761858Y-106870174D01*
X101785750Y-106869000D01*
X102273250Y-106869000D01*
X102297142Y-106870174D01*
X102297142Y-106870174D01*
G37*
D13*
X102029500Y-107569000D03*
D10*
G36*
X100422142Y-106870174D02*
X100445803Y-106873684D01*
X100469007Y-106879496D01*
X100491529Y-106887554D01*
X100513153Y-106897782D01*
X100533670Y-106910079D01*
X100552883Y-106924329D01*
X100570607Y-106940393D01*
X100586671Y-106958117D01*
X100600921Y-106977330D01*
X100613218Y-106997847D01*
X100623446Y-107019471D01*
X100631504Y-107041993D01*
X100637316Y-107065197D01*
X100640826Y-107088858D01*
X100642000Y-107112750D01*
X100642000Y-108025250D01*
X100640826Y-108049142D01*
X100637316Y-108072803D01*
X100631504Y-108096007D01*
X100623446Y-108118529D01*
X100613218Y-108140153D01*
X100600921Y-108160670D01*
X100586671Y-108179883D01*
X100570607Y-108197607D01*
X100552883Y-108213671D01*
X100533670Y-108227921D01*
X100513153Y-108240218D01*
X100491529Y-108250446D01*
X100469007Y-108258504D01*
X100445803Y-108264316D01*
X100422142Y-108267826D01*
X100398250Y-108269000D01*
X99910750Y-108269000D01*
X99886858Y-108267826D01*
X99863197Y-108264316D01*
X99839993Y-108258504D01*
X99817471Y-108250446D01*
X99795847Y-108240218D01*
X99775330Y-108227921D01*
X99756117Y-108213671D01*
X99738393Y-108197607D01*
X99722329Y-108179883D01*
X99708079Y-108160670D01*
X99695782Y-108140153D01*
X99685554Y-108118529D01*
X99677496Y-108096007D01*
X99671684Y-108072803D01*
X99668174Y-108049142D01*
X99667000Y-108025250D01*
X99667000Y-107112750D01*
X99668174Y-107088858D01*
X99671684Y-107065197D01*
X99677496Y-107041993D01*
X99685554Y-107019471D01*
X99695782Y-106997847D01*
X99708079Y-106977330D01*
X99722329Y-106958117D01*
X99738393Y-106940393D01*
X99756117Y-106924329D01*
X99775330Y-106910079D01*
X99795847Y-106897782D01*
X99817471Y-106887554D01*
X99839993Y-106879496D01*
X99863197Y-106873684D01*
X99886858Y-106870174D01*
X99910750Y-106869000D01*
X100398250Y-106869000D01*
X100422142Y-106870174D01*
X100422142Y-106870174D01*
G37*
D13*
X100154500Y-107569000D03*
G04 #@! TD*
D10*
G04 #@! TO.C,C50*
G36*
X92754734Y-106399174D02*
X92778395Y-106402684D01*
X92801599Y-106408496D01*
X92824121Y-106416554D01*
X92845745Y-106426782D01*
X92866262Y-106439079D01*
X92885475Y-106453329D01*
X92903199Y-106469393D01*
X92919263Y-106487117D01*
X92933513Y-106506330D01*
X92945810Y-106526847D01*
X92956038Y-106548471D01*
X92964096Y-106570993D01*
X92969908Y-106594197D01*
X92973418Y-106617858D01*
X92974592Y-106641750D01*
X92974592Y-107129250D01*
X92973418Y-107153142D01*
X92969908Y-107176803D01*
X92964096Y-107200007D01*
X92956038Y-107222529D01*
X92945810Y-107244153D01*
X92933513Y-107264670D01*
X92919263Y-107283883D01*
X92903199Y-107301607D01*
X92885475Y-107317671D01*
X92866262Y-107331921D01*
X92845745Y-107344218D01*
X92824121Y-107354446D01*
X92801599Y-107362504D01*
X92778395Y-107368316D01*
X92754734Y-107371826D01*
X92730842Y-107373000D01*
X91818342Y-107373000D01*
X91794450Y-107371826D01*
X91770789Y-107368316D01*
X91747585Y-107362504D01*
X91725063Y-107354446D01*
X91703439Y-107344218D01*
X91682922Y-107331921D01*
X91663709Y-107317671D01*
X91645985Y-107301607D01*
X91629921Y-107283883D01*
X91615671Y-107264670D01*
X91603374Y-107244153D01*
X91593146Y-107222529D01*
X91585088Y-107200007D01*
X91579276Y-107176803D01*
X91575766Y-107153142D01*
X91574592Y-107129250D01*
X91574592Y-106641750D01*
X91575766Y-106617858D01*
X91579276Y-106594197D01*
X91585088Y-106570993D01*
X91593146Y-106548471D01*
X91603374Y-106526847D01*
X91615671Y-106506330D01*
X91629921Y-106487117D01*
X91645985Y-106469393D01*
X91663709Y-106453329D01*
X91682922Y-106439079D01*
X91703439Y-106426782D01*
X91725063Y-106416554D01*
X91747585Y-106408496D01*
X91770789Y-106402684D01*
X91794450Y-106399174D01*
X91818342Y-106398000D01*
X92730842Y-106398000D01*
X92754734Y-106399174D01*
X92754734Y-106399174D01*
G37*
D13*
X92274592Y-106885500D03*
D10*
G36*
X92754734Y-108274174D02*
X92778395Y-108277684D01*
X92801599Y-108283496D01*
X92824121Y-108291554D01*
X92845745Y-108301782D01*
X92866262Y-108314079D01*
X92885475Y-108328329D01*
X92903199Y-108344393D01*
X92919263Y-108362117D01*
X92933513Y-108381330D01*
X92945810Y-108401847D01*
X92956038Y-108423471D01*
X92964096Y-108445993D01*
X92969908Y-108469197D01*
X92973418Y-108492858D01*
X92974592Y-108516750D01*
X92974592Y-109004250D01*
X92973418Y-109028142D01*
X92969908Y-109051803D01*
X92964096Y-109075007D01*
X92956038Y-109097529D01*
X92945810Y-109119153D01*
X92933513Y-109139670D01*
X92919263Y-109158883D01*
X92903199Y-109176607D01*
X92885475Y-109192671D01*
X92866262Y-109206921D01*
X92845745Y-109219218D01*
X92824121Y-109229446D01*
X92801599Y-109237504D01*
X92778395Y-109243316D01*
X92754734Y-109246826D01*
X92730842Y-109248000D01*
X91818342Y-109248000D01*
X91794450Y-109246826D01*
X91770789Y-109243316D01*
X91747585Y-109237504D01*
X91725063Y-109229446D01*
X91703439Y-109219218D01*
X91682922Y-109206921D01*
X91663709Y-109192671D01*
X91645985Y-109176607D01*
X91629921Y-109158883D01*
X91615671Y-109139670D01*
X91603374Y-109119153D01*
X91593146Y-109097529D01*
X91585088Y-109075007D01*
X91579276Y-109051803D01*
X91575766Y-109028142D01*
X91574592Y-109004250D01*
X91574592Y-108516750D01*
X91575766Y-108492858D01*
X91579276Y-108469197D01*
X91585088Y-108445993D01*
X91593146Y-108423471D01*
X91603374Y-108401847D01*
X91615671Y-108381330D01*
X91629921Y-108362117D01*
X91645985Y-108344393D01*
X91663709Y-108328329D01*
X91682922Y-108314079D01*
X91703439Y-108301782D01*
X91725063Y-108291554D01*
X91747585Y-108283496D01*
X91770789Y-108277684D01*
X91794450Y-108274174D01*
X91818342Y-108273000D01*
X92730842Y-108273000D01*
X92754734Y-108274174D01*
X92754734Y-108274174D01*
G37*
D13*
X92274592Y-108760500D03*
G04 #@! TD*
D10*
G04 #@! TO.C,C52*
G36*
X84020742Y-104824374D02*
X84044403Y-104827884D01*
X84067607Y-104833696D01*
X84090129Y-104841754D01*
X84111753Y-104851982D01*
X84132270Y-104864279D01*
X84151483Y-104878529D01*
X84169207Y-104894593D01*
X84185271Y-104912317D01*
X84199521Y-104931530D01*
X84211818Y-104952047D01*
X84222046Y-104973671D01*
X84230104Y-104996193D01*
X84235916Y-105019397D01*
X84239426Y-105043058D01*
X84240600Y-105066950D01*
X84240600Y-105554450D01*
X84239426Y-105578342D01*
X84235916Y-105602003D01*
X84230104Y-105625207D01*
X84222046Y-105647729D01*
X84211818Y-105669353D01*
X84199521Y-105689870D01*
X84185271Y-105709083D01*
X84169207Y-105726807D01*
X84151483Y-105742871D01*
X84132270Y-105757121D01*
X84111753Y-105769418D01*
X84090129Y-105779646D01*
X84067607Y-105787704D01*
X84044403Y-105793516D01*
X84020742Y-105797026D01*
X83996850Y-105798200D01*
X83084350Y-105798200D01*
X83060458Y-105797026D01*
X83036797Y-105793516D01*
X83013593Y-105787704D01*
X82991071Y-105779646D01*
X82969447Y-105769418D01*
X82948930Y-105757121D01*
X82929717Y-105742871D01*
X82911993Y-105726807D01*
X82895929Y-105709083D01*
X82881679Y-105689870D01*
X82869382Y-105669353D01*
X82859154Y-105647729D01*
X82851096Y-105625207D01*
X82845284Y-105602003D01*
X82841774Y-105578342D01*
X82840600Y-105554450D01*
X82840600Y-105066950D01*
X82841774Y-105043058D01*
X82845284Y-105019397D01*
X82851096Y-104996193D01*
X82859154Y-104973671D01*
X82869382Y-104952047D01*
X82881679Y-104931530D01*
X82895929Y-104912317D01*
X82911993Y-104894593D01*
X82929717Y-104878529D01*
X82948930Y-104864279D01*
X82969447Y-104851982D01*
X82991071Y-104841754D01*
X83013593Y-104833696D01*
X83036797Y-104827884D01*
X83060458Y-104824374D01*
X83084350Y-104823200D01*
X83996850Y-104823200D01*
X84020742Y-104824374D01*
X84020742Y-104824374D01*
G37*
D13*
X83540600Y-105310700D03*
D10*
G36*
X84020742Y-106699374D02*
X84044403Y-106702884D01*
X84067607Y-106708696D01*
X84090129Y-106716754D01*
X84111753Y-106726982D01*
X84132270Y-106739279D01*
X84151483Y-106753529D01*
X84169207Y-106769593D01*
X84185271Y-106787317D01*
X84199521Y-106806530D01*
X84211818Y-106827047D01*
X84222046Y-106848671D01*
X84230104Y-106871193D01*
X84235916Y-106894397D01*
X84239426Y-106918058D01*
X84240600Y-106941950D01*
X84240600Y-107429450D01*
X84239426Y-107453342D01*
X84235916Y-107477003D01*
X84230104Y-107500207D01*
X84222046Y-107522729D01*
X84211818Y-107544353D01*
X84199521Y-107564870D01*
X84185271Y-107584083D01*
X84169207Y-107601807D01*
X84151483Y-107617871D01*
X84132270Y-107632121D01*
X84111753Y-107644418D01*
X84090129Y-107654646D01*
X84067607Y-107662704D01*
X84044403Y-107668516D01*
X84020742Y-107672026D01*
X83996850Y-107673200D01*
X83084350Y-107673200D01*
X83060458Y-107672026D01*
X83036797Y-107668516D01*
X83013593Y-107662704D01*
X82991071Y-107654646D01*
X82969447Y-107644418D01*
X82948930Y-107632121D01*
X82929717Y-107617871D01*
X82911993Y-107601807D01*
X82895929Y-107584083D01*
X82881679Y-107564870D01*
X82869382Y-107544353D01*
X82859154Y-107522729D01*
X82851096Y-107500207D01*
X82845284Y-107477003D01*
X82841774Y-107453342D01*
X82840600Y-107429450D01*
X82840600Y-106941950D01*
X82841774Y-106918058D01*
X82845284Y-106894397D01*
X82851096Y-106871193D01*
X82859154Y-106848671D01*
X82869382Y-106827047D01*
X82881679Y-106806530D01*
X82895929Y-106787317D01*
X82911993Y-106769593D01*
X82929717Y-106753529D01*
X82948930Y-106739279D01*
X82969447Y-106726982D01*
X82991071Y-106716754D01*
X83013593Y-106708696D01*
X83036797Y-106702884D01*
X83060458Y-106699374D01*
X83084350Y-106698200D01*
X83996850Y-106698200D01*
X84020742Y-106699374D01*
X84020742Y-106699374D01*
G37*
D13*
X83540600Y-107185700D03*
G04 #@! TD*
D10*
G04 #@! TO.C,R55*
G36*
X105197342Y-104050774D02*
X105221003Y-104054284D01*
X105244207Y-104060096D01*
X105266729Y-104068154D01*
X105288353Y-104078382D01*
X105308870Y-104090679D01*
X105328083Y-104104929D01*
X105345807Y-104120993D01*
X105361871Y-104138717D01*
X105376121Y-104157930D01*
X105388418Y-104178447D01*
X105398646Y-104200071D01*
X105406704Y-104222593D01*
X105412516Y-104245797D01*
X105416026Y-104269458D01*
X105417200Y-104293350D01*
X105417200Y-105205850D01*
X105416026Y-105229742D01*
X105412516Y-105253403D01*
X105406704Y-105276607D01*
X105398646Y-105299129D01*
X105388418Y-105320753D01*
X105376121Y-105341270D01*
X105361871Y-105360483D01*
X105345807Y-105378207D01*
X105328083Y-105394271D01*
X105308870Y-105408521D01*
X105288353Y-105420818D01*
X105266729Y-105431046D01*
X105244207Y-105439104D01*
X105221003Y-105444916D01*
X105197342Y-105448426D01*
X105173450Y-105449600D01*
X104685950Y-105449600D01*
X104662058Y-105448426D01*
X104638397Y-105444916D01*
X104615193Y-105439104D01*
X104592671Y-105431046D01*
X104571047Y-105420818D01*
X104550530Y-105408521D01*
X104531317Y-105394271D01*
X104513593Y-105378207D01*
X104497529Y-105360483D01*
X104483279Y-105341270D01*
X104470982Y-105320753D01*
X104460754Y-105299129D01*
X104452696Y-105276607D01*
X104446884Y-105253403D01*
X104443374Y-105229742D01*
X104442200Y-105205850D01*
X104442200Y-104293350D01*
X104443374Y-104269458D01*
X104446884Y-104245797D01*
X104452696Y-104222593D01*
X104460754Y-104200071D01*
X104470982Y-104178447D01*
X104483279Y-104157930D01*
X104497529Y-104138717D01*
X104513593Y-104120993D01*
X104531317Y-104104929D01*
X104550530Y-104090679D01*
X104571047Y-104078382D01*
X104592671Y-104068154D01*
X104615193Y-104060096D01*
X104638397Y-104054284D01*
X104662058Y-104050774D01*
X104685950Y-104049600D01*
X105173450Y-104049600D01*
X105197342Y-104050774D01*
X105197342Y-104050774D01*
G37*
D13*
X104929700Y-104749600D03*
D10*
G36*
X107072342Y-104050774D02*
X107096003Y-104054284D01*
X107119207Y-104060096D01*
X107141729Y-104068154D01*
X107163353Y-104078382D01*
X107183870Y-104090679D01*
X107203083Y-104104929D01*
X107220807Y-104120993D01*
X107236871Y-104138717D01*
X107251121Y-104157930D01*
X107263418Y-104178447D01*
X107273646Y-104200071D01*
X107281704Y-104222593D01*
X107287516Y-104245797D01*
X107291026Y-104269458D01*
X107292200Y-104293350D01*
X107292200Y-105205850D01*
X107291026Y-105229742D01*
X107287516Y-105253403D01*
X107281704Y-105276607D01*
X107273646Y-105299129D01*
X107263418Y-105320753D01*
X107251121Y-105341270D01*
X107236871Y-105360483D01*
X107220807Y-105378207D01*
X107203083Y-105394271D01*
X107183870Y-105408521D01*
X107163353Y-105420818D01*
X107141729Y-105431046D01*
X107119207Y-105439104D01*
X107096003Y-105444916D01*
X107072342Y-105448426D01*
X107048450Y-105449600D01*
X106560950Y-105449600D01*
X106537058Y-105448426D01*
X106513397Y-105444916D01*
X106490193Y-105439104D01*
X106467671Y-105431046D01*
X106446047Y-105420818D01*
X106425530Y-105408521D01*
X106406317Y-105394271D01*
X106388593Y-105378207D01*
X106372529Y-105360483D01*
X106358279Y-105341270D01*
X106345982Y-105320753D01*
X106335754Y-105299129D01*
X106327696Y-105276607D01*
X106321884Y-105253403D01*
X106318374Y-105229742D01*
X106317200Y-105205850D01*
X106317200Y-104293350D01*
X106318374Y-104269458D01*
X106321884Y-104245797D01*
X106327696Y-104222593D01*
X106335754Y-104200071D01*
X106345982Y-104178447D01*
X106358279Y-104157930D01*
X106372529Y-104138717D01*
X106388593Y-104120993D01*
X106406317Y-104104929D01*
X106425530Y-104090679D01*
X106446047Y-104078382D01*
X106467671Y-104068154D01*
X106490193Y-104060096D01*
X106513397Y-104054284D01*
X106537058Y-104050774D01*
X106560950Y-104049600D01*
X107048450Y-104049600D01*
X107072342Y-104050774D01*
X107072342Y-104050774D01*
G37*
D13*
X106804700Y-104749600D03*
G04 #@! TD*
D10*
G04 #@! TO.C,C8*
G36*
X97471142Y-86473974D02*
X97494803Y-86477484D01*
X97518007Y-86483296D01*
X97540529Y-86491354D01*
X97562153Y-86501582D01*
X97582670Y-86513879D01*
X97601883Y-86528129D01*
X97619607Y-86544193D01*
X97635671Y-86561917D01*
X97649921Y-86581130D01*
X97662218Y-86601647D01*
X97672446Y-86623271D01*
X97680504Y-86645793D01*
X97686316Y-86668997D01*
X97689826Y-86692658D01*
X97691000Y-86716550D01*
X97691000Y-87629050D01*
X97689826Y-87652942D01*
X97686316Y-87676603D01*
X97680504Y-87699807D01*
X97672446Y-87722329D01*
X97662218Y-87743953D01*
X97649921Y-87764470D01*
X97635671Y-87783683D01*
X97619607Y-87801407D01*
X97601883Y-87817471D01*
X97582670Y-87831721D01*
X97562153Y-87844018D01*
X97540529Y-87854246D01*
X97518007Y-87862304D01*
X97494803Y-87868116D01*
X97471142Y-87871626D01*
X97447250Y-87872800D01*
X96959750Y-87872800D01*
X96935858Y-87871626D01*
X96912197Y-87868116D01*
X96888993Y-87862304D01*
X96866471Y-87854246D01*
X96844847Y-87844018D01*
X96824330Y-87831721D01*
X96805117Y-87817471D01*
X96787393Y-87801407D01*
X96771329Y-87783683D01*
X96757079Y-87764470D01*
X96744782Y-87743953D01*
X96734554Y-87722329D01*
X96726496Y-87699807D01*
X96720684Y-87676603D01*
X96717174Y-87652942D01*
X96716000Y-87629050D01*
X96716000Y-86716550D01*
X96717174Y-86692658D01*
X96720684Y-86668997D01*
X96726496Y-86645793D01*
X96734554Y-86623271D01*
X96744782Y-86601647D01*
X96757079Y-86581130D01*
X96771329Y-86561917D01*
X96787393Y-86544193D01*
X96805117Y-86528129D01*
X96824330Y-86513879D01*
X96844847Y-86501582D01*
X96866471Y-86491354D01*
X96888993Y-86483296D01*
X96912197Y-86477484D01*
X96935858Y-86473974D01*
X96959750Y-86472800D01*
X97447250Y-86472800D01*
X97471142Y-86473974D01*
X97471142Y-86473974D01*
G37*
D13*
X97203500Y-87172800D03*
D10*
G36*
X95596142Y-86473974D02*
X95619803Y-86477484D01*
X95643007Y-86483296D01*
X95665529Y-86491354D01*
X95687153Y-86501582D01*
X95707670Y-86513879D01*
X95726883Y-86528129D01*
X95744607Y-86544193D01*
X95760671Y-86561917D01*
X95774921Y-86581130D01*
X95787218Y-86601647D01*
X95797446Y-86623271D01*
X95805504Y-86645793D01*
X95811316Y-86668997D01*
X95814826Y-86692658D01*
X95816000Y-86716550D01*
X95816000Y-87629050D01*
X95814826Y-87652942D01*
X95811316Y-87676603D01*
X95805504Y-87699807D01*
X95797446Y-87722329D01*
X95787218Y-87743953D01*
X95774921Y-87764470D01*
X95760671Y-87783683D01*
X95744607Y-87801407D01*
X95726883Y-87817471D01*
X95707670Y-87831721D01*
X95687153Y-87844018D01*
X95665529Y-87854246D01*
X95643007Y-87862304D01*
X95619803Y-87868116D01*
X95596142Y-87871626D01*
X95572250Y-87872800D01*
X95084750Y-87872800D01*
X95060858Y-87871626D01*
X95037197Y-87868116D01*
X95013993Y-87862304D01*
X94991471Y-87854246D01*
X94969847Y-87844018D01*
X94949330Y-87831721D01*
X94930117Y-87817471D01*
X94912393Y-87801407D01*
X94896329Y-87783683D01*
X94882079Y-87764470D01*
X94869782Y-87743953D01*
X94859554Y-87722329D01*
X94851496Y-87699807D01*
X94845684Y-87676603D01*
X94842174Y-87652942D01*
X94841000Y-87629050D01*
X94841000Y-86716550D01*
X94842174Y-86692658D01*
X94845684Y-86668997D01*
X94851496Y-86645793D01*
X94859554Y-86623271D01*
X94869782Y-86601647D01*
X94882079Y-86581130D01*
X94896329Y-86561917D01*
X94912393Y-86544193D01*
X94930117Y-86528129D01*
X94949330Y-86513879D01*
X94969847Y-86501582D01*
X94991471Y-86491354D01*
X95013993Y-86483296D01*
X95037197Y-86477484D01*
X95060858Y-86473974D01*
X95084750Y-86472800D01*
X95572250Y-86472800D01*
X95596142Y-86473974D01*
X95596142Y-86473974D01*
G37*
D13*
X95328500Y-87172800D03*
G04 #@! TD*
D10*
G04 #@! TO.C,C9*
G36*
X95596142Y-88455174D02*
X95619803Y-88458684D01*
X95643007Y-88464496D01*
X95665529Y-88472554D01*
X95687153Y-88482782D01*
X95707670Y-88495079D01*
X95726883Y-88509329D01*
X95744607Y-88525393D01*
X95760671Y-88543117D01*
X95774921Y-88562330D01*
X95787218Y-88582847D01*
X95797446Y-88604471D01*
X95805504Y-88626993D01*
X95811316Y-88650197D01*
X95814826Y-88673858D01*
X95816000Y-88697750D01*
X95816000Y-89610250D01*
X95814826Y-89634142D01*
X95811316Y-89657803D01*
X95805504Y-89681007D01*
X95797446Y-89703529D01*
X95787218Y-89725153D01*
X95774921Y-89745670D01*
X95760671Y-89764883D01*
X95744607Y-89782607D01*
X95726883Y-89798671D01*
X95707670Y-89812921D01*
X95687153Y-89825218D01*
X95665529Y-89835446D01*
X95643007Y-89843504D01*
X95619803Y-89849316D01*
X95596142Y-89852826D01*
X95572250Y-89854000D01*
X95084750Y-89854000D01*
X95060858Y-89852826D01*
X95037197Y-89849316D01*
X95013993Y-89843504D01*
X94991471Y-89835446D01*
X94969847Y-89825218D01*
X94949330Y-89812921D01*
X94930117Y-89798671D01*
X94912393Y-89782607D01*
X94896329Y-89764883D01*
X94882079Y-89745670D01*
X94869782Y-89725153D01*
X94859554Y-89703529D01*
X94851496Y-89681007D01*
X94845684Y-89657803D01*
X94842174Y-89634142D01*
X94841000Y-89610250D01*
X94841000Y-88697750D01*
X94842174Y-88673858D01*
X94845684Y-88650197D01*
X94851496Y-88626993D01*
X94859554Y-88604471D01*
X94869782Y-88582847D01*
X94882079Y-88562330D01*
X94896329Y-88543117D01*
X94912393Y-88525393D01*
X94930117Y-88509329D01*
X94949330Y-88495079D01*
X94969847Y-88482782D01*
X94991471Y-88472554D01*
X95013993Y-88464496D01*
X95037197Y-88458684D01*
X95060858Y-88455174D01*
X95084750Y-88454000D01*
X95572250Y-88454000D01*
X95596142Y-88455174D01*
X95596142Y-88455174D01*
G37*
D13*
X95328500Y-89154000D03*
D10*
G36*
X97471142Y-88455174D02*
X97494803Y-88458684D01*
X97518007Y-88464496D01*
X97540529Y-88472554D01*
X97562153Y-88482782D01*
X97582670Y-88495079D01*
X97601883Y-88509329D01*
X97619607Y-88525393D01*
X97635671Y-88543117D01*
X97649921Y-88562330D01*
X97662218Y-88582847D01*
X97672446Y-88604471D01*
X97680504Y-88626993D01*
X97686316Y-88650197D01*
X97689826Y-88673858D01*
X97691000Y-88697750D01*
X97691000Y-89610250D01*
X97689826Y-89634142D01*
X97686316Y-89657803D01*
X97680504Y-89681007D01*
X97672446Y-89703529D01*
X97662218Y-89725153D01*
X97649921Y-89745670D01*
X97635671Y-89764883D01*
X97619607Y-89782607D01*
X97601883Y-89798671D01*
X97582670Y-89812921D01*
X97562153Y-89825218D01*
X97540529Y-89835446D01*
X97518007Y-89843504D01*
X97494803Y-89849316D01*
X97471142Y-89852826D01*
X97447250Y-89854000D01*
X96959750Y-89854000D01*
X96935858Y-89852826D01*
X96912197Y-89849316D01*
X96888993Y-89843504D01*
X96866471Y-89835446D01*
X96844847Y-89825218D01*
X96824330Y-89812921D01*
X96805117Y-89798671D01*
X96787393Y-89782607D01*
X96771329Y-89764883D01*
X96757079Y-89745670D01*
X96744782Y-89725153D01*
X96734554Y-89703529D01*
X96726496Y-89681007D01*
X96720684Y-89657803D01*
X96717174Y-89634142D01*
X96716000Y-89610250D01*
X96716000Y-88697750D01*
X96717174Y-88673858D01*
X96720684Y-88650197D01*
X96726496Y-88626993D01*
X96734554Y-88604471D01*
X96744782Y-88582847D01*
X96757079Y-88562330D01*
X96771329Y-88543117D01*
X96787393Y-88525393D01*
X96805117Y-88509329D01*
X96824330Y-88495079D01*
X96844847Y-88482782D01*
X96866471Y-88472554D01*
X96888993Y-88464496D01*
X96912197Y-88458684D01*
X96935858Y-88455174D01*
X96959750Y-88454000D01*
X97447250Y-88454000D01*
X97471142Y-88455174D01*
X97471142Y-88455174D01*
G37*
D13*
X97203500Y-89154000D03*
G04 #@! TD*
D10*
G04 #@! TO.C,C19*
G36*
X69688142Y-99123174D02*
X69711803Y-99126684D01*
X69735007Y-99132496D01*
X69757529Y-99140554D01*
X69779153Y-99150782D01*
X69799670Y-99163079D01*
X69818883Y-99177329D01*
X69836607Y-99193393D01*
X69852671Y-99211117D01*
X69866921Y-99230330D01*
X69879218Y-99250847D01*
X69889446Y-99272471D01*
X69897504Y-99294993D01*
X69903316Y-99318197D01*
X69906826Y-99341858D01*
X69908000Y-99365750D01*
X69908000Y-100278250D01*
X69906826Y-100302142D01*
X69903316Y-100325803D01*
X69897504Y-100349007D01*
X69889446Y-100371529D01*
X69879218Y-100393153D01*
X69866921Y-100413670D01*
X69852671Y-100432883D01*
X69836607Y-100450607D01*
X69818883Y-100466671D01*
X69799670Y-100480921D01*
X69779153Y-100493218D01*
X69757529Y-100503446D01*
X69735007Y-100511504D01*
X69711803Y-100517316D01*
X69688142Y-100520826D01*
X69664250Y-100522000D01*
X69176750Y-100522000D01*
X69152858Y-100520826D01*
X69129197Y-100517316D01*
X69105993Y-100511504D01*
X69083471Y-100503446D01*
X69061847Y-100493218D01*
X69041330Y-100480921D01*
X69022117Y-100466671D01*
X69004393Y-100450607D01*
X68988329Y-100432883D01*
X68974079Y-100413670D01*
X68961782Y-100393153D01*
X68951554Y-100371529D01*
X68943496Y-100349007D01*
X68937684Y-100325803D01*
X68934174Y-100302142D01*
X68933000Y-100278250D01*
X68933000Y-99365750D01*
X68934174Y-99341858D01*
X68937684Y-99318197D01*
X68943496Y-99294993D01*
X68951554Y-99272471D01*
X68961782Y-99250847D01*
X68974079Y-99230330D01*
X68988329Y-99211117D01*
X69004393Y-99193393D01*
X69022117Y-99177329D01*
X69041330Y-99163079D01*
X69061847Y-99150782D01*
X69083471Y-99140554D01*
X69105993Y-99132496D01*
X69129197Y-99126684D01*
X69152858Y-99123174D01*
X69176750Y-99122000D01*
X69664250Y-99122000D01*
X69688142Y-99123174D01*
X69688142Y-99123174D01*
G37*
D13*
X69420500Y-99822000D03*
D10*
G36*
X71563142Y-99123174D02*
X71586803Y-99126684D01*
X71610007Y-99132496D01*
X71632529Y-99140554D01*
X71654153Y-99150782D01*
X71674670Y-99163079D01*
X71693883Y-99177329D01*
X71711607Y-99193393D01*
X71727671Y-99211117D01*
X71741921Y-99230330D01*
X71754218Y-99250847D01*
X71764446Y-99272471D01*
X71772504Y-99294993D01*
X71778316Y-99318197D01*
X71781826Y-99341858D01*
X71783000Y-99365750D01*
X71783000Y-100278250D01*
X71781826Y-100302142D01*
X71778316Y-100325803D01*
X71772504Y-100349007D01*
X71764446Y-100371529D01*
X71754218Y-100393153D01*
X71741921Y-100413670D01*
X71727671Y-100432883D01*
X71711607Y-100450607D01*
X71693883Y-100466671D01*
X71674670Y-100480921D01*
X71654153Y-100493218D01*
X71632529Y-100503446D01*
X71610007Y-100511504D01*
X71586803Y-100517316D01*
X71563142Y-100520826D01*
X71539250Y-100522000D01*
X71051750Y-100522000D01*
X71027858Y-100520826D01*
X71004197Y-100517316D01*
X70980993Y-100511504D01*
X70958471Y-100503446D01*
X70936847Y-100493218D01*
X70916330Y-100480921D01*
X70897117Y-100466671D01*
X70879393Y-100450607D01*
X70863329Y-100432883D01*
X70849079Y-100413670D01*
X70836782Y-100393153D01*
X70826554Y-100371529D01*
X70818496Y-100349007D01*
X70812684Y-100325803D01*
X70809174Y-100302142D01*
X70808000Y-100278250D01*
X70808000Y-99365750D01*
X70809174Y-99341858D01*
X70812684Y-99318197D01*
X70818496Y-99294993D01*
X70826554Y-99272471D01*
X70836782Y-99250847D01*
X70849079Y-99230330D01*
X70863329Y-99211117D01*
X70879393Y-99193393D01*
X70897117Y-99177329D01*
X70916330Y-99163079D01*
X70936847Y-99150782D01*
X70958471Y-99140554D01*
X70980993Y-99132496D01*
X71004197Y-99126684D01*
X71027858Y-99123174D01*
X71051750Y-99122000D01*
X71539250Y-99122000D01*
X71563142Y-99123174D01*
X71563142Y-99123174D01*
G37*
D13*
X71295500Y-99822000D03*
G04 #@! TD*
D21*
G04 #@! TO.C,Q6*
X87233000Y-83759000D03*
X87233000Y-85659000D03*
X85233000Y-84709000D03*
G04 #@! TD*
D10*
G04 #@! TO.C,R12*
G36*
X95222142Y-82523174D02*
X95245803Y-82526684D01*
X95269007Y-82532496D01*
X95291529Y-82540554D01*
X95313153Y-82550782D01*
X95333670Y-82563079D01*
X95352883Y-82577329D01*
X95370607Y-82593393D01*
X95386671Y-82611117D01*
X95400921Y-82630330D01*
X95413218Y-82650847D01*
X95423446Y-82672471D01*
X95431504Y-82694993D01*
X95437316Y-82718197D01*
X95440826Y-82741858D01*
X95442000Y-82765750D01*
X95442000Y-83253250D01*
X95440826Y-83277142D01*
X95437316Y-83300803D01*
X95431504Y-83324007D01*
X95423446Y-83346529D01*
X95413218Y-83368153D01*
X95400921Y-83388670D01*
X95386671Y-83407883D01*
X95370607Y-83425607D01*
X95352883Y-83441671D01*
X95333670Y-83455921D01*
X95313153Y-83468218D01*
X95291529Y-83478446D01*
X95269007Y-83486504D01*
X95245803Y-83492316D01*
X95222142Y-83495826D01*
X95198250Y-83497000D01*
X94285750Y-83497000D01*
X94261858Y-83495826D01*
X94238197Y-83492316D01*
X94214993Y-83486504D01*
X94192471Y-83478446D01*
X94170847Y-83468218D01*
X94150330Y-83455921D01*
X94131117Y-83441671D01*
X94113393Y-83425607D01*
X94097329Y-83407883D01*
X94083079Y-83388670D01*
X94070782Y-83368153D01*
X94060554Y-83346529D01*
X94052496Y-83324007D01*
X94046684Y-83300803D01*
X94043174Y-83277142D01*
X94042000Y-83253250D01*
X94042000Y-82765750D01*
X94043174Y-82741858D01*
X94046684Y-82718197D01*
X94052496Y-82694993D01*
X94060554Y-82672471D01*
X94070782Y-82650847D01*
X94083079Y-82630330D01*
X94097329Y-82611117D01*
X94113393Y-82593393D01*
X94131117Y-82577329D01*
X94150330Y-82563079D01*
X94170847Y-82550782D01*
X94192471Y-82540554D01*
X94214993Y-82532496D01*
X94238197Y-82526684D01*
X94261858Y-82523174D01*
X94285750Y-82522000D01*
X95198250Y-82522000D01*
X95222142Y-82523174D01*
X95222142Y-82523174D01*
G37*
D13*
X94742000Y-83009500D03*
D10*
G36*
X95222142Y-84398174D02*
X95245803Y-84401684D01*
X95269007Y-84407496D01*
X95291529Y-84415554D01*
X95313153Y-84425782D01*
X95333670Y-84438079D01*
X95352883Y-84452329D01*
X95370607Y-84468393D01*
X95386671Y-84486117D01*
X95400921Y-84505330D01*
X95413218Y-84525847D01*
X95423446Y-84547471D01*
X95431504Y-84569993D01*
X95437316Y-84593197D01*
X95440826Y-84616858D01*
X95442000Y-84640750D01*
X95442000Y-85128250D01*
X95440826Y-85152142D01*
X95437316Y-85175803D01*
X95431504Y-85199007D01*
X95423446Y-85221529D01*
X95413218Y-85243153D01*
X95400921Y-85263670D01*
X95386671Y-85282883D01*
X95370607Y-85300607D01*
X95352883Y-85316671D01*
X95333670Y-85330921D01*
X95313153Y-85343218D01*
X95291529Y-85353446D01*
X95269007Y-85361504D01*
X95245803Y-85367316D01*
X95222142Y-85370826D01*
X95198250Y-85372000D01*
X94285750Y-85372000D01*
X94261858Y-85370826D01*
X94238197Y-85367316D01*
X94214993Y-85361504D01*
X94192471Y-85353446D01*
X94170847Y-85343218D01*
X94150330Y-85330921D01*
X94131117Y-85316671D01*
X94113393Y-85300607D01*
X94097329Y-85282883D01*
X94083079Y-85263670D01*
X94070782Y-85243153D01*
X94060554Y-85221529D01*
X94052496Y-85199007D01*
X94046684Y-85175803D01*
X94043174Y-85152142D01*
X94042000Y-85128250D01*
X94042000Y-84640750D01*
X94043174Y-84616858D01*
X94046684Y-84593197D01*
X94052496Y-84569993D01*
X94060554Y-84547471D01*
X94070782Y-84525847D01*
X94083079Y-84505330D01*
X94097329Y-84486117D01*
X94113393Y-84468393D01*
X94131117Y-84452329D01*
X94150330Y-84438079D01*
X94170847Y-84425782D01*
X94192471Y-84415554D01*
X94214993Y-84407496D01*
X94238197Y-84401684D01*
X94261858Y-84398174D01*
X94285750Y-84397000D01*
X95198250Y-84397000D01*
X95222142Y-84398174D01*
X95222142Y-84398174D01*
G37*
D13*
X94742000Y-84884500D03*
G04 #@! TD*
D10*
G04 #@! TO.C,R14*
G36*
X89634142Y-85795174D02*
X89657803Y-85798684D01*
X89681007Y-85804496D01*
X89703529Y-85812554D01*
X89725153Y-85822782D01*
X89745670Y-85835079D01*
X89764883Y-85849329D01*
X89782607Y-85865393D01*
X89798671Y-85883117D01*
X89812921Y-85902330D01*
X89825218Y-85922847D01*
X89835446Y-85944471D01*
X89843504Y-85966993D01*
X89849316Y-85990197D01*
X89852826Y-86013858D01*
X89854000Y-86037750D01*
X89854000Y-86525250D01*
X89852826Y-86549142D01*
X89849316Y-86572803D01*
X89843504Y-86596007D01*
X89835446Y-86618529D01*
X89825218Y-86640153D01*
X89812921Y-86660670D01*
X89798671Y-86679883D01*
X89782607Y-86697607D01*
X89764883Y-86713671D01*
X89745670Y-86727921D01*
X89725153Y-86740218D01*
X89703529Y-86750446D01*
X89681007Y-86758504D01*
X89657803Y-86764316D01*
X89634142Y-86767826D01*
X89610250Y-86769000D01*
X88697750Y-86769000D01*
X88673858Y-86767826D01*
X88650197Y-86764316D01*
X88626993Y-86758504D01*
X88604471Y-86750446D01*
X88582847Y-86740218D01*
X88562330Y-86727921D01*
X88543117Y-86713671D01*
X88525393Y-86697607D01*
X88509329Y-86679883D01*
X88495079Y-86660670D01*
X88482782Y-86640153D01*
X88472554Y-86618529D01*
X88464496Y-86596007D01*
X88458684Y-86572803D01*
X88455174Y-86549142D01*
X88454000Y-86525250D01*
X88454000Y-86037750D01*
X88455174Y-86013858D01*
X88458684Y-85990197D01*
X88464496Y-85966993D01*
X88472554Y-85944471D01*
X88482782Y-85922847D01*
X88495079Y-85902330D01*
X88509329Y-85883117D01*
X88525393Y-85865393D01*
X88543117Y-85849329D01*
X88562330Y-85835079D01*
X88582847Y-85822782D01*
X88604471Y-85812554D01*
X88626993Y-85804496D01*
X88650197Y-85798684D01*
X88673858Y-85795174D01*
X88697750Y-85794000D01*
X89610250Y-85794000D01*
X89634142Y-85795174D01*
X89634142Y-85795174D01*
G37*
D13*
X89154000Y-86281500D03*
D10*
G36*
X89634142Y-83920174D02*
X89657803Y-83923684D01*
X89681007Y-83929496D01*
X89703529Y-83937554D01*
X89725153Y-83947782D01*
X89745670Y-83960079D01*
X89764883Y-83974329D01*
X89782607Y-83990393D01*
X89798671Y-84008117D01*
X89812921Y-84027330D01*
X89825218Y-84047847D01*
X89835446Y-84069471D01*
X89843504Y-84091993D01*
X89849316Y-84115197D01*
X89852826Y-84138858D01*
X89854000Y-84162750D01*
X89854000Y-84650250D01*
X89852826Y-84674142D01*
X89849316Y-84697803D01*
X89843504Y-84721007D01*
X89835446Y-84743529D01*
X89825218Y-84765153D01*
X89812921Y-84785670D01*
X89798671Y-84804883D01*
X89782607Y-84822607D01*
X89764883Y-84838671D01*
X89745670Y-84852921D01*
X89725153Y-84865218D01*
X89703529Y-84875446D01*
X89681007Y-84883504D01*
X89657803Y-84889316D01*
X89634142Y-84892826D01*
X89610250Y-84894000D01*
X88697750Y-84894000D01*
X88673858Y-84892826D01*
X88650197Y-84889316D01*
X88626993Y-84883504D01*
X88604471Y-84875446D01*
X88582847Y-84865218D01*
X88562330Y-84852921D01*
X88543117Y-84838671D01*
X88525393Y-84822607D01*
X88509329Y-84804883D01*
X88495079Y-84785670D01*
X88482782Y-84765153D01*
X88472554Y-84743529D01*
X88464496Y-84721007D01*
X88458684Y-84697803D01*
X88455174Y-84674142D01*
X88454000Y-84650250D01*
X88454000Y-84162750D01*
X88455174Y-84138858D01*
X88458684Y-84115197D01*
X88464496Y-84091993D01*
X88472554Y-84069471D01*
X88482782Y-84047847D01*
X88495079Y-84027330D01*
X88509329Y-84008117D01*
X88525393Y-83990393D01*
X88543117Y-83974329D01*
X88562330Y-83960079D01*
X88582847Y-83947782D01*
X88604471Y-83937554D01*
X88626993Y-83929496D01*
X88650197Y-83923684D01*
X88673858Y-83920174D01*
X88697750Y-83919000D01*
X89610250Y-83919000D01*
X89634142Y-83920174D01*
X89634142Y-83920174D01*
G37*
D13*
X89154000Y-84406500D03*
G04 #@! TD*
D10*
G04 #@! TO.C,R15*
G36*
X69688142Y-97218174D02*
X69711803Y-97221684D01*
X69735007Y-97227496D01*
X69757529Y-97235554D01*
X69779153Y-97245782D01*
X69799670Y-97258079D01*
X69818883Y-97272329D01*
X69836607Y-97288393D01*
X69852671Y-97306117D01*
X69866921Y-97325330D01*
X69879218Y-97345847D01*
X69889446Y-97367471D01*
X69897504Y-97389993D01*
X69903316Y-97413197D01*
X69906826Y-97436858D01*
X69908000Y-97460750D01*
X69908000Y-98373250D01*
X69906826Y-98397142D01*
X69903316Y-98420803D01*
X69897504Y-98444007D01*
X69889446Y-98466529D01*
X69879218Y-98488153D01*
X69866921Y-98508670D01*
X69852671Y-98527883D01*
X69836607Y-98545607D01*
X69818883Y-98561671D01*
X69799670Y-98575921D01*
X69779153Y-98588218D01*
X69757529Y-98598446D01*
X69735007Y-98606504D01*
X69711803Y-98612316D01*
X69688142Y-98615826D01*
X69664250Y-98617000D01*
X69176750Y-98617000D01*
X69152858Y-98615826D01*
X69129197Y-98612316D01*
X69105993Y-98606504D01*
X69083471Y-98598446D01*
X69061847Y-98588218D01*
X69041330Y-98575921D01*
X69022117Y-98561671D01*
X69004393Y-98545607D01*
X68988329Y-98527883D01*
X68974079Y-98508670D01*
X68961782Y-98488153D01*
X68951554Y-98466529D01*
X68943496Y-98444007D01*
X68937684Y-98420803D01*
X68934174Y-98397142D01*
X68933000Y-98373250D01*
X68933000Y-97460750D01*
X68934174Y-97436858D01*
X68937684Y-97413197D01*
X68943496Y-97389993D01*
X68951554Y-97367471D01*
X68961782Y-97345847D01*
X68974079Y-97325330D01*
X68988329Y-97306117D01*
X69004393Y-97288393D01*
X69022117Y-97272329D01*
X69041330Y-97258079D01*
X69061847Y-97245782D01*
X69083471Y-97235554D01*
X69105993Y-97227496D01*
X69129197Y-97221684D01*
X69152858Y-97218174D01*
X69176750Y-97217000D01*
X69664250Y-97217000D01*
X69688142Y-97218174D01*
X69688142Y-97218174D01*
G37*
D13*
X69420500Y-97917000D03*
D10*
G36*
X71563142Y-97218174D02*
X71586803Y-97221684D01*
X71610007Y-97227496D01*
X71632529Y-97235554D01*
X71654153Y-97245782D01*
X71674670Y-97258079D01*
X71693883Y-97272329D01*
X71711607Y-97288393D01*
X71727671Y-97306117D01*
X71741921Y-97325330D01*
X71754218Y-97345847D01*
X71764446Y-97367471D01*
X71772504Y-97389993D01*
X71778316Y-97413197D01*
X71781826Y-97436858D01*
X71783000Y-97460750D01*
X71783000Y-98373250D01*
X71781826Y-98397142D01*
X71778316Y-98420803D01*
X71772504Y-98444007D01*
X71764446Y-98466529D01*
X71754218Y-98488153D01*
X71741921Y-98508670D01*
X71727671Y-98527883D01*
X71711607Y-98545607D01*
X71693883Y-98561671D01*
X71674670Y-98575921D01*
X71654153Y-98588218D01*
X71632529Y-98598446D01*
X71610007Y-98606504D01*
X71586803Y-98612316D01*
X71563142Y-98615826D01*
X71539250Y-98617000D01*
X71051750Y-98617000D01*
X71027858Y-98615826D01*
X71004197Y-98612316D01*
X70980993Y-98606504D01*
X70958471Y-98598446D01*
X70936847Y-98588218D01*
X70916330Y-98575921D01*
X70897117Y-98561671D01*
X70879393Y-98545607D01*
X70863329Y-98527883D01*
X70849079Y-98508670D01*
X70836782Y-98488153D01*
X70826554Y-98466529D01*
X70818496Y-98444007D01*
X70812684Y-98420803D01*
X70809174Y-98397142D01*
X70808000Y-98373250D01*
X70808000Y-97460750D01*
X70809174Y-97436858D01*
X70812684Y-97413197D01*
X70818496Y-97389993D01*
X70826554Y-97367471D01*
X70836782Y-97345847D01*
X70849079Y-97325330D01*
X70863329Y-97306117D01*
X70879393Y-97288393D01*
X70897117Y-97272329D01*
X70916330Y-97258079D01*
X70936847Y-97245782D01*
X70958471Y-97235554D01*
X70980993Y-97227496D01*
X71004197Y-97221684D01*
X71027858Y-97218174D01*
X71051750Y-97217000D01*
X71539250Y-97217000D01*
X71563142Y-97218174D01*
X71563142Y-97218174D01*
G37*
D13*
X71295500Y-97917000D03*
G04 #@! TD*
D10*
G04 #@! TO.C,C3*
G36*
X72939342Y-91655574D02*
X72963003Y-91659084D01*
X72986207Y-91664896D01*
X73008729Y-91672954D01*
X73030353Y-91683182D01*
X73050870Y-91695479D01*
X73070083Y-91709729D01*
X73087807Y-91725793D01*
X73103871Y-91743517D01*
X73118121Y-91762730D01*
X73130418Y-91783247D01*
X73140646Y-91804871D01*
X73148704Y-91827393D01*
X73154516Y-91850597D01*
X73158026Y-91874258D01*
X73159200Y-91898150D01*
X73159200Y-92810650D01*
X73158026Y-92834542D01*
X73154516Y-92858203D01*
X73148704Y-92881407D01*
X73140646Y-92903929D01*
X73130418Y-92925553D01*
X73118121Y-92946070D01*
X73103871Y-92965283D01*
X73087807Y-92983007D01*
X73070083Y-92999071D01*
X73050870Y-93013321D01*
X73030353Y-93025618D01*
X73008729Y-93035846D01*
X72986207Y-93043904D01*
X72963003Y-93049716D01*
X72939342Y-93053226D01*
X72915450Y-93054400D01*
X72427950Y-93054400D01*
X72404058Y-93053226D01*
X72380397Y-93049716D01*
X72357193Y-93043904D01*
X72334671Y-93035846D01*
X72313047Y-93025618D01*
X72292530Y-93013321D01*
X72273317Y-92999071D01*
X72255593Y-92983007D01*
X72239529Y-92965283D01*
X72225279Y-92946070D01*
X72212982Y-92925553D01*
X72202754Y-92903929D01*
X72194696Y-92881407D01*
X72188884Y-92858203D01*
X72185374Y-92834542D01*
X72184200Y-92810650D01*
X72184200Y-91898150D01*
X72185374Y-91874258D01*
X72188884Y-91850597D01*
X72194696Y-91827393D01*
X72202754Y-91804871D01*
X72212982Y-91783247D01*
X72225279Y-91762730D01*
X72239529Y-91743517D01*
X72255593Y-91725793D01*
X72273317Y-91709729D01*
X72292530Y-91695479D01*
X72313047Y-91683182D01*
X72334671Y-91672954D01*
X72357193Y-91664896D01*
X72380397Y-91659084D01*
X72404058Y-91655574D01*
X72427950Y-91654400D01*
X72915450Y-91654400D01*
X72939342Y-91655574D01*
X72939342Y-91655574D01*
G37*
D13*
X72671700Y-92354400D03*
D10*
G36*
X74814342Y-91655574D02*
X74838003Y-91659084D01*
X74861207Y-91664896D01*
X74883729Y-91672954D01*
X74905353Y-91683182D01*
X74925870Y-91695479D01*
X74945083Y-91709729D01*
X74962807Y-91725793D01*
X74978871Y-91743517D01*
X74993121Y-91762730D01*
X75005418Y-91783247D01*
X75015646Y-91804871D01*
X75023704Y-91827393D01*
X75029516Y-91850597D01*
X75033026Y-91874258D01*
X75034200Y-91898150D01*
X75034200Y-92810650D01*
X75033026Y-92834542D01*
X75029516Y-92858203D01*
X75023704Y-92881407D01*
X75015646Y-92903929D01*
X75005418Y-92925553D01*
X74993121Y-92946070D01*
X74978871Y-92965283D01*
X74962807Y-92983007D01*
X74945083Y-92999071D01*
X74925870Y-93013321D01*
X74905353Y-93025618D01*
X74883729Y-93035846D01*
X74861207Y-93043904D01*
X74838003Y-93049716D01*
X74814342Y-93053226D01*
X74790450Y-93054400D01*
X74302950Y-93054400D01*
X74279058Y-93053226D01*
X74255397Y-93049716D01*
X74232193Y-93043904D01*
X74209671Y-93035846D01*
X74188047Y-93025618D01*
X74167530Y-93013321D01*
X74148317Y-92999071D01*
X74130593Y-92983007D01*
X74114529Y-92965283D01*
X74100279Y-92946070D01*
X74087982Y-92925553D01*
X74077754Y-92903929D01*
X74069696Y-92881407D01*
X74063884Y-92858203D01*
X74060374Y-92834542D01*
X74059200Y-92810650D01*
X74059200Y-91898150D01*
X74060374Y-91874258D01*
X74063884Y-91850597D01*
X74069696Y-91827393D01*
X74077754Y-91804871D01*
X74087982Y-91783247D01*
X74100279Y-91762730D01*
X74114529Y-91743517D01*
X74130593Y-91725793D01*
X74148317Y-91709729D01*
X74167530Y-91695479D01*
X74188047Y-91683182D01*
X74209671Y-91672954D01*
X74232193Y-91664896D01*
X74255397Y-91659084D01*
X74279058Y-91655574D01*
X74302950Y-91654400D01*
X74790450Y-91654400D01*
X74814342Y-91655574D01*
X74814342Y-91655574D01*
G37*
D13*
X74546700Y-92354400D03*
G04 #@! TD*
D10*
G04 #@! TO.C,C53*
G36*
X103313142Y-104838174D02*
X103336803Y-104841684D01*
X103360007Y-104847496D01*
X103382529Y-104855554D01*
X103404153Y-104865782D01*
X103424670Y-104878079D01*
X103443883Y-104892329D01*
X103461607Y-104908393D01*
X103477671Y-104926117D01*
X103491921Y-104945330D01*
X103504218Y-104965847D01*
X103514446Y-104987471D01*
X103522504Y-105009993D01*
X103528316Y-105033197D01*
X103531826Y-105056858D01*
X103533000Y-105080750D01*
X103533000Y-105993250D01*
X103531826Y-106017142D01*
X103528316Y-106040803D01*
X103522504Y-106064007D01*
X103514446Y-106086529D01*
X103504218Y-106108153D01*
X103491921Y-106128670D01*
X103477671Y-106147883D01*
X103461607Y-106165607D01*
X103443883Y-106181671D01*
X103424670Y-106195921D01*
X103404153Y-106208218D01*
X103382529Y-106218446D01*
X103360007Y-106226504D01*
X103336803Y-106232316D01*
X103313142Y-106235826D01*
X103289250Y-106237000D01*
X102801750Y-106237000D01*
X102777858Y-106235826D01*
X102754197Y-106232316D01*
X102730993Y-106226504D01*
X102708471Y-106218446D01*
X102686847Y-106208218D01*
X102666330Y-106195921D01*
X102647117Y-106181671D01*
X102629393Y-106165607D01*
X102613329Y-106147883D01*
X102599079Y-106128670D01*
X102586782Y-106108153D01*
X102576554Y-106086529D01*
X102568496Y-106064007D01*
X102562684Y-106040803D01*
X102559174Y-106017142D01*
X102558000Y-105993250D01*
X102558000Y-105080750D01*
X102559174Y-105056858D01*
X102562684Y-105033197D01*
X102568496Y-105009993D01*
X102576554Y-104987471D01*
X102586782Y-104965847D01*
X102599079Y-104945330D01*
X102613329Y-104926117D01*
X102629393Y-104908393D01*
X102647117Y-104892329D01*
X102666330Y-104878079D01*
X102686847Y-104865782D01*
X102708471Y-104855554D01*
X102730993Y-104847496D01*
X102754197Y-104841684D01*
X102777858Y-104838174D01*
X102801750Y-104837000D01*
X103289250Y-104837000D01*
X103313142Y-104838174D01*
X103313142Y-104838174D01*
G37*
D13*
X103045500Y-105537000D03*
D10*
G36*
X101438142Y-104838174D02*
X101461803Y-104841684D01*
X101485007Y-104847496D01*
X101507529Y-104855554D01*
X101529153Y-104865782D01*
X101549670Y-104878079D01*
X101568883Y-104892329D01*
X101586607Y-104908393D01*
X101602671Y-104926117D01*
X101616921Y-104945330D01*
X101629218Y-104965847D01*
X101639446Y-104987471D01*
X101647504Y-105009993D01*
X101653316Y-105033197D01*
X101656826Y-105056858D01*
X101658000Y-105080750D01*
X101658000Y-105993250D01*
X101656826Y-106017142D01*
X101653316Y-106040803D01*
X101647504Y-106064007D01*
X101639446Y-106086529D01*
X101629218Y-106108153D01*
X101616921Y-106128670D01*
X101602671Y-106147883D01*
X101586607Y-106165607D01*
X101568883Y-106181671D01*
X101549670Y-106195921D01*
X101529153Y-106208218D01*
X101507529Y-106218446D01*
X101485007Y-106226504D01*
X101461803Y-106232316D01*
X101438142Y-106235826D01*
X101414250Y-106237000D01*
X100926750Y-106237000D01*
X100902858Y-106235826D01*
X100879197Y-106232316D01*
X100855993Y-106226504D01*
X100833471Y-106218446D01*
X100811847Y-106208218D01*
X100791330Y-106195921D01*
X100772117Y-106181671D01*
X100754393Y-106165607D01*
X100738329Y-106147883D01*
X100724079Y-106128670D01*
X100711782Y-106108153D01*
X100701554Y-106086529D01*
X100693496Y-106064007D01*
X100687684Y-106040803D01*
X100684174Y-106017142D01*
X100683000Y-105993250D01*
X100683000Y-105080750D01*
X100684174Y-105056858D01*
X100687684Y-105033197D01*
X100693496Y-105009993D01*
X100701554Y-104987471D01*
X100711782Y-104965847D01*
X100724079Y-104945330D01*
X100738329Y-104926117D01*
X100754393Y-104908393D01*
X100772117Y-104892329D01*
X100791330Y-104878079D01*
X100811847Y-104865782D01*
X100833471Y-104855554D01*
X100855993Y-104847496D01*
X100879197Y-104841684D01*
X100902858Y-104838174D01*
X100926750Y-104837000D01*
X101414250Y-104837000D01*
X101438142Y-104838174D01*
X101438142Y-104838174D01*
G37*
D13*
X101170500Y-105537000D03*
G04 #@! TD*
D22*
G04 #@! TO.C,U3*
X78963100Y-90842400D03*
D10*
G36*
X78625600Y-90892400D02*
X78875600Y-90642400D01*
X79300600Y-90642400D01*
X79300600Y-91042400D01*
X78625600Y-91042400D01*
X78625600Y-90892400D01*
X78625600Y-90892400D01*
G37*
D23*
X78963100Y-91342400D03*
X78963100Y-91842400D03*
D22*
X78963100Y-92342400D03*
D10*
G36*
X78625600Y-92292400D02*
X78625600Y-92142400D01*
X79300600Y-92142400D01*
X79300600Y-92542400D01*
X78875600Y-92542400D01*
X78625600Y-92292400D01*
X78625600Y-92292400D01*
G37*
D22*
X78325600Y-92479900D03*
D10*
G36*
X78125600Y-92142400D02*
X78275600Y-92142400D01*
X78525600Y-92392400D01*
X78525600Y-92817400D01*
X78125600Y-92817400D01*
X78125600Y-92142400D01*
X78125600Y-92142400D01*
G37*
D24*
X77825600Y-92479900D03*
D22*
X77325600Y-92479900D03*
D10*
G36*
X77125600Y-92392400D02*
X77375600Y-92142400D01*
X77525600Y-92142400D01*
X77525600Y-92817400D01*
X77125600Y-92817400D01*
X77125600Y-92392400D01*
X77125600Y-92392400D01*
G37*
D22*
X76688100Y-92342400D03*
D10*
G36*
X76350600Y-92142400D02*
X77025600Y-92142400D01*
X77025600Y-92292400D01*
X76775600Y-92542400D01*
X76350600Y-92542400D01*
X76350600Y-92142400D01*
X76350600Y-92142400D01*
G37*
D23*
X76688100Y-91842400D03*
X76688100Y-91342400D03*
D22*
X76688100Y-90842400D03*
D10*
G36*
X76350600Y-90642400D02*
X76775600Y-90642400D01*
X77025600Y-90892400D01*
X77025600Y-91042400D01*
X76350600Y-91042400D01*
X76350600Y-90642400D01*
X76350600Y-90642400D01*
G37*
D22*
X77325600Y-90704900D03*
D10*
G36*
X77125600Y-90792400D02*
X77125600Y-90367400D01*
X77525600Y-90367400D01*
X77525600Y-91042400D01*
X77375600Y-91042400D01*
X77125600Y-90792400D01*
X77125600Y-90792400D01*
G37*
D24*
X77825600Y-90704900D03*
D22*
X78325600Y-90704900D03*
D10*
G36*
X78125600Y-90367400D02*
X78525600Y-90367400D01*
X78525600Y-90792400D01*
X78275600Y-91042400D01*
X78125600Y-91042400D01*
X78125600Y-90367400D01*
X78125600Y-90367400D01*
G37*
G04 #@! TD*
G04 #@! TO.C,DPWR1*
G36*
X97242691Y-107095053D02*
X97263926Y-107098203D01*
X97284750Y-107103419D01*
X97304962Y-107110651D01*
X97324368Y-107119830D01*
X97342781Y-107130866D01*
X97360024Y-107143654D01*
X97375930Y-107158070D01*
X97390346Y-107173976D01*
X97403134Y-107191219D01*
X97414170Y-107209632D01*
X97423349Y-107229038D01*
X97430581Y-107249250D01*
X97435797Y-107270074D01*
X97438947Y-107291309D01*
X97440000Y-107312750D01*
X97440000Y-107825250D01*
X97438947Y-107846691D01*
X97435797Y-107867926D01*
X97430581Y-107888750D01*
X97423349Y-107908962D01*
X97414170Y-107928368D01*
X97403134Y-107946781D01*
X97390346Y-107964024D01*
X97375930Y-107979930D01*
X97360024Y-107994346D01*
X97342781Y-108007134D01*
X97324368Y-108018170D01*
X97304962Y-108027349D01*
X97284750Y-108034581D01*
X97263926Y-108039797D01*
X97242691Y-108042947D01*
X97221250Y-108044000D01*
X96783750Y-108044000D01*
X96762309Y-108042947D01*
X96741074Y-108039797D01*
X96720250Y-108034581D01*
X96700038Y-108027349D01*
X96680632Y-108018170D01*
X96662219Y-108007134D01*
X96644976Y-107994346D01*
X96629070Y-107979930D01*
X96614654Y-107964024D01*
X96601866Y-107946781D01*
X96590830Y-107928368D01*
X96581651Y-107908962D01*
X96574419Y-107888750D01*
X96569203Y-107867926D01*
X96566053Y-107846691D01*
X96565000Y-107825250D01*
X96565000Y-107312750D01*
X96566053Y-107291309D01*
X96569203Y-107270074D01*
X96574419Y-107249250D01*
X96581651Y-107229038D01*
X96590830Y-107209632D01*
X96601866Y-107191219D01*
X96614654Y-107173976D01*
X96629070Y-107158070D01*
X96644976Y-107143654D01*
X96662219Y-107130866D01*
X96680632Y-107119830D01*
X96700038Y-107110651D01*
X96720250Y-107103419D01*
X96741074Y-107098203D01*
X96762309Y-107095053D01*
X96783750Y-107094000D01*
X97221250Y-107094000D01*
X97242691Y-107095053D01*
X97242691Y-107095053D01*
G37*
D25*
X97002500Y-107569000D03*
D10*
G36*
X98817691Y-107095053D02*
X98838926Y-107098203D01*
X98859750Y-107103419D01*
X98879962Y-107110651D01*
X98899368Y-107119830D01*
X98917781Y-107130866D01*
X98935024Y-107143654D01*
X98950930Y-107158070D01*
X98965346Y-107173976D01*
X98978134Y-107191219D01*
X98989170Y-107209632D01*
X98998349Y-107229038D01*
X99005581Y-107249250D01*
X99010797Y-107270074D01*
X99013947Y-107291309D01*
X99015000Y-107312750D01*
X99015000Y-107825250D01*
X99013947Y-107846691D01*
X99010797Y-107867926D01*
X99005581Y-107888750D01*
X98998349Y-107908962D01*
X98989170Y-107928368D01*
X98978134Y-107946781D01*
X98965346Y-107964024D01*
X98950930Y-107979930D01*
X98935024Y-107994346D01*
X98917781Y-108007134D01*
X98899368Y-108018170D01*
X98879962Y-108027349D01*
X98859750Y-108034581D01*
X98838926Y-108039797D01*
X98817691Y-108042947D01*
X98796250Y-108044000D01*
X98358750Y-108044000D01*
X98337309Y-108042947D01*
X98316074Y-108039797D01*
X98295250Y-108034581D01*
X98275038Y-108027349D01*
X98255632Y-108018170D01*
X98237219Y-108007134D01*
X98219976Y-107994346D01*
X98204070Y-107979930D01*
X98189654Y-107964024D01*
X98176866Y-107946781D01*
X98165830Y-107928368D01*
X98156651Y-107908962D01*
X98149419Y-107888750D01*
X98144203Y-107867926D01*
X98141053Y-107846691D01*
X98140000Y-107825250D01*
X98140000Y-107312750D01*
X98141053Y-107291309D01*
X98144203Y-107270074D01*
X98149419Y-107249250D01*
X98156651Y-107229038D01*
X98165830Y-107209632D01*
X98176866Y-107191219D01*
X98189654Y-107173976D01*
X98204070Y-107158070D01*
X98219976Y-107143654D01*
X98237219Y-107130866D01*
X98255632Y-107119830D01*
X98275038Y-107110651D01*
X98295250Y-107103419D01*
X98316074Y-107098203D01*
X98337309Y-107095053D01*
X98358750Y-107094000D01*
X98796250Y-107094000D01*
X98817691Y-107095053D01*
X98817691Y-107095053D01*
G37*
D25*
X98577500Y-107569000D03*
G04 #@! TD*
D26*
G04 #@! TO.C,D4*
X103835000Y-97700000D03*
X100635000Y-97700000D03*
X103835000Y-92800000D03*
X100635000Y-92800000D03*
G04 #@! TD*
G04 #@! TO.C,D3*
X77101500Y-110971500D03*
X73901500Y-110971500D03*
X77101500Y-106071500D03*
X73901500Y-106071500D03*
G04 #@! TD*
D21*
G04 #@! TO.C,Q30*
X71231000Y-103190000D03*
X71231000Y-105090000D03*
X69231000Y-104140000D03*
G04 #@! TD*
D27*
G04 #@! TO.C,QPWR1*
X98740000Y-105775000D03*
X96840000Y-105775000D03*
X97790000Y-103775000D03*
G04 #@! TD*
M02*
