G04 #@! TF.GenerationSoftware,KiCad,Pcbnew,5.0.2+dfsg1-1*
G04 #@! TF.CreationDate,2021-06-22T16:41:51+02:00*
G04 #@! TF.ProjectId,MainBoard,4d61696e-426f-4617-9264-2e6b69636164,rev?*
G04 #@! TF.SameCoordinates,Original*
G04 #@! TF.FileFunction,Legend,Top*
G04 #@! TF.FilePolarity,Positive*
%FSLAX46Y46*%
G04 Gerber Fmt 4.6, Leading zero omitted, Abs format (unit mm)*
G04 Created by KiCad (PCBNEW 5.0.2+dfsg1-1) date Tue 22 Jun 2021 16:41:51 CEST*
%MOMM*%
%LPD*%
G01*
G04 APERTURE LIST*
%ADD10C,0.300000*%
%ADD11C,0.170000*%
%ADD12C,0.200000*%
%ADD13C,0.180000*%
%ADD14C,0.250000*%
%ADD15C,0.150000*%
%ADD16C,0.120000*%
%ADD17C,0.100000*%
%ADD18C,0.010000*%
G04 APERTURE END LIST*
D10*
X115407428Y-83990571D02*
X115407428Y-82490571D01*
X115407428Y-83204857D02*
X116264571Y-83204857D01*
X116264571Y-83990571D02*
X116264571Y-82490571D01*
X116978857Y-83990571D02*
X116978857Y-82490571D01*
X117550285Y-82490571D01*
X117693142Y-82562000D01*
X117764571Y-82633428D01*
X117836000Y-82776285D01*
X117836000Y-82990571D01*
X117764571Y-83133428D01*
X117693142Y-83204857D01*
X117550285Y-83276285D01*
X116978857Y-83276285D01*
X106159657Y-83663600D02*
X106873942Y-83663600D01*
X106016800Y-84092171D02*
X106516800Y-82592171D01*
X107016800Y-84092171D01*
X107516800Y-84092171D02*
X107516800Y-82592171D01*
X108016800Y-83663600D01*
X108516800Y-82592171D01*
X108516800Y-84092171D01*
X109231085Y-84092171D02*
X109231085Y-82592171D01*
X109731085Y-83663600D01*
X110231085Y-82592171D01*
X110231085Y-84092171D01*
X111231085Y-82592171D02*
X111516800Y-82592171D01*
X111659657Y-82663600D01*
X111802514Y-82806457D01*
X111873942Y-83092171D01*
X111873942Y-83592171D01*
X111802514Y-83877885D01*
X111659657Y-84020742D01*
X111516800Y-84092171D01*
X111231085Y-84092171D01*
X111088228Y-84020742D01*
X110945371Y-83877885D01*
X110873942Y-83592171D01*
X110873942Y-83092171D01*
X110945371Y-82806457D01*
X111088228Y-82663600D01*
X111231085Y-82592171D01*
D11*
X64954904Y-104819333D02*
X64154904Y-104819333D01*
X64954904Y-104362190D01*
X64154904Y-104362190D01*
X64916809Y-103676476D02*
X64954904Y-103752666D01*
X64954904Y-103905047D01*
X64916809Y-103981238D01*
X64840619Y-104019333D01*
X64535857Y-104019333D01*
X64459666Y-103981238D01*
X64421571Y-103905047D01*
X64421571Y-103752666D01*
X64459666Y-103676476D01*
X64535857Y-103638380D01*
X64612047Y-103638380D01*
X64688238Y-104019333D01*
X64954904Y-103181238D02*
X64916809Y-103257428D01*
X64878714Y-103295523D01*
X64802523Y-103333619D01*
X64573952Y-103333619D01*
X64497761Y-103295523D01*
X64459666Y-103257428D01*
X64421571Y-103181238D01*
X64421571Y-103066952D01*
X64459666Y-102990761D01*
X64497761Y-102952666D01*
X64573952Y-102914571D01*
X64802523Y-102914571D01*
X64878714Y-102952666D01*
X64916809Y-102990761D01*
X64954904Y-103066952D01*
X64954904Y-103181238D01*
X66324904Y-104247904D02*
X65791571Y-104247904D01*
X65524904Y-104247904D02*
X65563000Y-104286000D01*
X65601095Y-104247904D01*
X65563000Y-104209809D01*
X65524904Y-104247904D01*
X65601095Y-104247904D01*
X65791571Y-103866952D02*
X66324904Y-103866952D01*
X65867761Y-103866952D02*
X65829666Y-103828857D01*
X65791571Y-103752666D01*
X65791571Y-103638380D01*
X65829666Y-103562190D01*
X65905857Y-103524095D01*
X66324904Y-103524095D01*
X66586380Y-112985504D02*
X66586380Y-112185504D01*
X67043523Y-112985504D01*
X67043523Y-112185504D01*
X67729238Y-112947409D02*
X67653047Y-112985504D01*
X67500666Y-112985504D01*
X67424476Y-112947409D01*
X67386380Y-112871219D01*
X67386380Y-112566457D01*
X67424476Y-112490266D01*
X67500666Y-112452171D01*
X67653047Y-112452171D01*
X67729238Y-112490266D01*
X67767333Y-112566457D01*
X67767333Y-112642647D01*
X67386380Y-112718838D01*
X68224476Y-112985504D02*
X68148285Y-112947409D01*
X68110190Y-112909314D01*
X68072095Y-112833123D01*
X68072095Y-112604552D01*
X68110190Y-112528361D01*
X68148285Y-112490266D01*
X68224476Y-112452171D01*
X68338761Y-112452171D01*
X68414952Y-112490266D01*
X68453047Y-112528361D01*
X68491142Y-112604552D01*
X68491142Y-112833123D01*
X68453047Y-112909314D01*
X68414952Y-112947409D01*
X68338761Y-112985504D01*
X68224476Y-112985504D01*
X69595904Y-112185504D02*
X69748285Y-112185504D01*
X69824476Y-112223600D01*
X69900666Y-112299790D01*
X69938761Y-112452171D01*
X69938761Y-112718838D01*
X69900666Y-112871219D01*
X69824476Y-112947409D01*
X69748285Y-112985504D01*
X69595904Y-112985504D01*
X69519714Y-112947409D01*
X69443523Y-112871219D01*
X69405428Y-112718838D01*
X69405428Y-112452171D01*
X69443523Y-112299790D01*
X69519714Y-112223600D01*
X69595904Y-112185504D01*
X70624476Y-112452171D02*
X70624476Y-112985504D01*
X70281619Y-112452171D02*
X70281619Y-112871219D01*
X70319714Y-112947409D01*
X70395904Y-112985504D01*
X70510190Y-112985504D01*
X70586380Y-112947409D01*
X70624476Y-112909314D01*
X70891142Y-112452171D02*
X71195904Y-112452171D01*
X71005428Y-112185504D02*
X71005428Y-112871219D01*
X71043523Y-112947409D01*
X71119714Y-112985504D01*
X71195904Y-112985504D01*
D12*
X67208495Y-110142400D02*
X67113257Y-110094780D01*
X66970400Y-110094780D01*
X66827542Y-110142400D01*
X66732304Y-110237638D01*
X66684685Y-110332876D01*
X66637066Y-110523352D01*
X66637066Y-110666209D01*
X66684685Y-110856685D01*
X66732304Y-110951923D01*
X66827542Y-111047161D01*
X66970400Y-111094780D01*
X67065638Y-111094780D01*
X67208495Y-111047161D01*
X67256114Y-110999542D01*
X67256114Y-110666209D01*
X67065638Y-110666209D01*
X67684685Y-111094780D02*
X67684685Y-110094780D01*
X68256114Y-111094780D01*
X68256114Y-110094780D01*
X68732304Y-111094780D02*
X68732304Y-110094780D01*
X68970400Y-110094780D01*
X69113257Y-110142400D01*
X69208495Y-110237638D01*
X69256114Y-110332876D01*
X69303733Y-110523352D01*
X69303733Y-110666209D01*
X69256114Y-110856685D01*
X69208495Y-110951923D01*
X69113257Y-111047161D01*
X68970400Y-111094780D01*
X68732304Y-111094780D01*
X68041828Y-105208247D02*
X68041828Y-104446342D01*
X68422780Y-103970152D02*
X67422780Y-103970152D01*
X68422780Y-102922533D02*
X67946590Y-103255866D01*
X68422780Y-103493961D02*
X67422780Y-103493961D01*
X67422780Y-103113009D01*
X67470400Y-103017771D01*
X67518019Y-102970152D01*
X67613257Y-102922533D01*
X67756114Y-102922533D01*
X67851352Y-102970152D01*
X67898971Y-103017771D01*
X67946590Y-103113009D01*
X67946590Y-103493961D01*
X69721504Y-108538971D02*
X69864361Y-108586590D01*
X69911980Y-108634209D01*
X69959600Y-108729447D01*
X69959600Y-108872304D01*
X69911980Y-108967542D01*
X69864361Y-109015161D01*
X69769123Y-109062780D01*
X69388171Y-109062780D01*
X69388171Y-108062780D01*
X69721504Y-108062780D01*
X69816742Y-108110400D01*
X69864361Y-108158019D01*
X69911980Y-108253257D01*
X69911980Y-108348495D01*
X69864361Y-108443733D01*
X69816742Y-108491352D01*
X69721504Y-108538971D01*
X69388171Y-108538971D01*
X70340552Y-108777066D02*
X70816742Y-108777066D01*
X70245314Y-109062780D02*
X70578647Y-108062780D01*
X70911980Y-109062780D01*
X71102457Y-108062780D02*
X71673885Y-108062780D01*
X71388171Y-109062780D02*
X71388171Y-108062780D01*
D13*
X75873600Y-80972942D02*
X75397409Y-80972942D01*
X75397409Y-80072942D01*
X76111695Y-80072942D02*
X76778361Y-80072942D01*
X76111695Y-80972942D01*
X76778361Y-80972942D01*
X77730742Y-80972942D02*
X77397409Y-80544371D01*
X77159314Y-80972942D02*
X77159314Y-80072942D01*
X77540266Y-80072942D01*
X77635504Y-80115800D01*
X77683123Y-80158657D01*
X77730742Y-80244371D01*
X77730742Y-80372942D01*
X77683123Y-80458657D01*
X77635504Y-80501514D01*
X77540266Y-80544371D01*
X77159314Y-80544371D01*
X78016457Y-80072942D02*
X78587885Y-80072942D01*
X78302171Y-80972942D02*
X78302171Y-80072942D01*
X79349790Y-80972942D02*
X79349790Y-80501514D01*
X79302171Y-80415800D01*
X79206933Y-80372942D01*
X79016457Y-80372942D01*
X78921219Y-80415800D01*
X79349790Y-80930085D02*
X79254552Y-80972942D01*
X79016457Y-80972942D01*
X78921219Y-80930085D01*
X78873600Y-80844371D01*
X78873600Y-80758657D01*
X78921219Y-80672942D01*
X79016457Y-80630085D01*
X79254552Y-80630085D01*
X79349790Y-80587228D01*
X80254552Y-80372942D02*
X80254552Y-81101514D01*
X80206933Y-81187228D01*
X80159314Y-81230085D01*
X80064076Y-81272942D01*
X79921219Y-81272942D01*
X79825980Y-81230085D01*
X80254552Y-80930085D02*
X80159314Y-80972942D01*
X79968838Y-80972942D01*
X79873600Y-80930085D01*
X79825980Y-80887228D01*
X79778361Y-80801514D01*
X79778361Y-80544371D01*
X79825980Y-80458657D01*
X79873600Y-80415800D01*
X79968838Y-80372942D01*
X80159314Y-80372942D01*
X80254552Y-80415800D01*
X81492647Y-80972942D02*
X81492647Y-80072942D01*
X81492647Y-80501514D02*
X82064076Y-80501514D01*
X82064076Y-80972942D02*
X82064076Y-80072942D01*
X82445028Y-80072942D02*
X82683123Y-80972942D01*
X82873600Y-80330085D01*
X83064076Y-80972942D01*
X83302171Y-80072942D01*
X84349790Y-80072942D02*
X84968838Y-80072942D01*
X84635504Y-80415800D01*
X84778361Y-80415800D01*
X84873600Y-80458657D01*
X84921219Y-80501514D01*
X84968838Y-80587228D01*
X84968838Y-80801514D01*
X84921219Y-80887228D01*
X84873600Y-80930085D01*
X84778361Y-80972942D01*
X84492647Y-80972942D01*
X84397409Y-80930085D01*
X84349790Y-80887228D01*
X85397409Y-80887228D02*
X85445028Y-80930085D01*
X85397409Y-80972942D01*
X85349790Y-80930085D01*
X85397409Y-80887228D01*
X85397409Y-80972942D01*
X85778361Y-80072942D02*
X86397409Y-80072942D01*
X86064076Y-80415800D01*
X86206933Y-80415800D01*
X86302171Y-80458657D01*
X86349790Y-80501514D01*
X86397409Y-80587228D01*
X86397409Y-80801514D01*
X86349790Y-80887228D01*
X86302171Y-80930085D01*
X86206933Y-80972942D01*
X85921219Y-80972942D01*
X85825980Y-80930085D01*
X85778361Y-80887228D01*
X76778361Y-81688657D02*
X76825980Y-81645800D01*
X76921219Y-81602942D01*
X77159314Y-81602942D01*
X77254552Y-81645800D01*
X77302171Y-81688657D01*
X77349790Y-81774371D01*
X77349790Y-81860085D01*
X77302171Y-81988657D01*
X76730742Y-82502942D01*
X77349790Y-82502942D01*
X78302171Y-82502942D02*
X77730742Y-82502942D01*
X78016457Y-82502942D02*
X78016457Y-81602942D01*
X77921219Y-81731514D01*
X77825980Y-81817228D01*
X77730742Y-81860085D01*
X78730742Y-82417228D02*
X78778361Y-82460085D01*
X78730742Y-82502942D01*
X78683123Y-82460085D01*
X78730742Y-82417228D01*
X78730742Y-82502942D01*
X79397409Y-81602942D02*
X79492647Y-81602942D01*
X79587885Y-81645800D01*
X79635504Y-81688657D01*
X79683123Y-81774371D01*
X79730742Y-81945800D01*
X79730742Y-82160085D01*
X79683123Y-82331514D01*
X79635504Y-82417228D01*
X79587885Y-82460085D01*
X79492647Y-82502942D01*
X79397409Y-82502942D01*
X79302171Y-82460085D01*
X79254552Y-82417228D01*
X79206933Y-82331514D01*
X79159314Y-82160085D01*
X79159314Y-81945800D01*
X79206933Y-81774371D01*
X79254552Y-81688657D01*
X79302171Y-81645800D01*
X79397409Y-81602942D01*
X80587885Y-81602942D02*
X80397409Y-81602942D01*
X80302171Y-81645800D01*
X80254552Y-81688657D01*
X80159314Y-81817228D01*
X80111695Y-81988657D01*
X80111695Y-82331514D01*
X80159314Y-82417228D01*
X80206933Y-82460085D01*
X80302171Y-82502942D01*
X80492647Y-82502942D01*
X80587885Y-82460085D01*
X80635504Y-82417228D01*
X80683123Y-82331514D01*
X80683123Y-82117228D01*
X80635504Y-82031514D01*
X80587885Y-81988657D01*
X80492647Y-81945800D01*
X80302171Y-81945800D01*
X80206933Y-81988657D01*
X80159314Y-82031514D01*
X80111695Y-82117228D01*
X81111695Y-82417228D02*
X81159314Y-82460085D01*
X81111695Y-82502942D01*
X81064076Y-82460085D01*
X81111695Y-82417228D01*
X81111695Y-82502942D01*
X81540266Y-81688657D02*
X81587885Y-81645800D01*
X81683123Y-81602942D01*
X81921219Y-81602942D01*
X82016457Y-81645800D01*
X82064076Y-81688657D01*
X82111695Y-81774371D01*
X82111695Y-81860085D01*
X82064076Y-81988657D01*
X81492647Y-82502942D01*
X82111695Y-82502942D01*
X82730742Y-81602942D02*
X82825980Y-81602942D01*
X82921219Y-81645800D01*
X82968838Y-81688657D01*
X83016457Y-81774371D01*
X83064076Y-81945800D01*
X83064076Y-82160085D01*
X83016457Y-82331514D01*
X82968838Y-82417228D01*
X82921219Y-82460085D01*
X82825980Y-82502942D01*
X82730742Y-82502942D01*
X82635504Y-82460085D01*
X82587885Y-82417228D01*
X82540266Y-82331514D01*
X82492647Y-82160085D01*
X82492647Y-81945800D01*
X82540266Y-81774371D01*
X82587885Y-81688657D01*
X82635504Y-81645800D01*
X82730742Y-81602942D01*
X83445028Y-81688657D02*
X83492647Y-81645800D01*
X83587885Y-81602942D01*
X83825980Y-81602942D01*
X83921219Y-81645800D01*
X83968838Y-81688657D01*
X84016457Y-81774371D01*
X84016457Y-81860085D01*
X83968838Y-81988657D01*
X83397409Y-82502942D01*
X84016457Y-82502942D01*
X84968838Y-82502942D02*
X84397409Y-82502942D01*
X84683123Y-82502942D02*
X84683123Y-81602942D01*
X84587885Y-81731514D01*
X84492647Y-81817228D01*
X84397409Y-81860085D01*
D12*
X118154571Y-112820409D02*
X118268857Y-112858504D01*
X118459333Y-112858504D01*
X118535523Y-112820409D01*
X118573619Y-112782314D01*
X118611714Y-112706123D01*
X118611714Y-112629933D01*
X118573619Y-112553742D01*
X118535523Y-112515647D01*
X118459333Y-112477552D01*
X118306952Y-112439457D01*
X118230761Y-112401361D01*
X118192666Y-112363266D01*
X118154571Y-112287076D01*
X118154571Y-112210885D01*
X118192666Y-112134695D01*
X118230761Y-112096600D01*
X118306952Y-112058504D01*
X118497428Y-112058504D01*
X118611714Y-112096600D01*
X118954571Y-112858504D02*
X118954571Y-112058504D01*
X119145047Y-112058504D01*
X119259333Y-112096600D01*
X119335523Y-112172790D01*
X119373619Y-112248980D01*
X119411714Y-112401361D01*
X119411714Y-112515647D01*
X119373619Y-112668028D01*
X119335523Y-112744219D01*
X119259333Y-112820409D01*
X119145047Y-112858504D01*
X118954571Y-112858504D01*
X119716476Y-112629933D02*
X120097428Y-112629933D01*
X119640285Y-112858504D02*
X119906952Y-112058504D01*
X120173619Y-112858504D01*
X118173619Y-110280409D02*
X118287904Y-110318504D01*
X118478380Y-110318504D01*
X118554571Y-110280409D01*
X118592666Y-110242314D01*
X118630761Y-110166123D01*
X118630761Y-110089933D01*
X118592666Y-110013742D01*
X118554571Y-109975647D01*
X118478380Y-109937552D01*
X118326000Y-109899457D01*
X118249809Y-109861361D01*
X118211714Y-109823266D01*
X118173619Y-109747076D01*
X118173619Y-109670885D01*
X118211714Y-109594695D01*
X118249809Y-109556600D01*
X118326000Y-109518504D01*
X118516476Y-109518504D01*
X118630761Y-109556600D01*
X119430761Y-110242314D02*
X119392666Y-110280409D01*
X119278380Y-110318504D01*
X119202190Y-110318504D01*
X119087904Y-110280409D01*
X119011714Y-110204219D01*
X118973619Y-110128028D01*
X118935523Y-109975647D01*
X118935523Y-109861361D01*
X118973619Y-109708980D01*
X119011714Y-109632790D01*
X119087904Y-109556600D01*
X119202190Y-109518504D01*
X119278380Y-109518504D01*
X119392666Y-109556600D01*
X119430761Y-109594695D01*
X120154571Y-110318504D02*
X119773619Y-110318504D01*
X119773619Y-109518504D01*
X118072047Y-106978504D02*
X118567285Y-106978504D01*
X118300619Y-107283266D01*
X118414904Y-107283266D01*
X118491095Y-107321361D01*
X118529190Y-107359457D01*
X118567285Y-107435647D01*
X118567285Y-107626123D01*
X118529190Y-107702314D01*
X118491095Y-107740409D01*
X118414904Y-107778504D01*
X118186333Y-107778504D01*
X118110142Y-107740409D01*
X118072047Y-107702314D01*
X118910142Y-107702314D02*
X118948238Y-107740409D01*
X118910142Y-107778504D01*
X118872047Y-107740409D01*
X118910142Y-107702314D01*
X118910142Y-107778504D01*
X119214904Y-106978504D02*
X119710142Y-106978504D01*
X119443476Y-107283266D01*
X119557761Y-107283266D01*
X119633952Y-107321361D01*
X119672047Y-107359457D01*
X119710142Y-107435647D01*
X119710142Y-107626123D01*
X119672047Y-107702314D01*
X119633952Y-107740409D01*
X119557761Y-107778504D01*
X119329190Y-107778504D01*
X119253000Y-107740409D01*
X119214904Y-107702314D01*
X119938714Y-106978504D02*
X120205380Y-107778504D01*
X120472047Y-106978504D01*
X118389476Y-104476600D02*
X118313285Y-104438504D01*
X118199000Y-104438504D01*
X118084714Y-104476600D01*
X118008523Y-104552790D01*
X117970428Y-104628980D01*
X117932333Y-104781361D01*
X117932333Y-104895647D01*
X117970428Y-105048028D01*
X118008523Y-105124219D01*
X118084714Y-105200409D01*
X118199000Y-105238504D01*
X118275190Y-105238504D01*
X118389476Y-105200409D01*
X118427571Y-105162314D01*
X118427571Y-104895647D01*
X118275190Y-104895647D01*
X118770428Y-105238504D02*
X118770428Y-104438504D01*
X119227571Y-105238504D01*
X119227571Y-104438504D01*
X119608523Y-105238504D02*
X119608523Y-104438504D01*
X119799000Y-104438504D01*
X119913285Y-104476600D01*
X119989476Y-104552790D01*
X120027571Y-104628980D01*
X120065666Y-104781361D01*
X120065666Y-104895647D01*
X120027571Y-105048028D01*
X119989476Y-105124219D01*
X119913285Y-105200409D01*
X119799000Y-105238504D01*
X119608523Y-105238504D01*
D10*
X114792057Y-107495828D02*
X113592057Y-107495828D01*
X113706342Y-106981542D02*
X113649200Y-106924400D01*
X113592057Y-106810114D01*
X113592057Y-106524400D01*
X113649200Y-106410114D01*
X113706342Y-106352971D01*
X113820628Y-106295828D01*
X113934914Y-106295828D01*
X114106342Y-106352971D01*
X114792057Y-107038685D01*
X114792057Y-106295828D01*
X114677771Y-105095828D02*
X114734914Y-105152971D01*
X114792057Y-105324400D01*
X114792057Y-105438685D01*
X114734914Y-105610114D01*
X114620628Y-105724400D01*
X114506342Y-105781542D01*
X114277771Y-105838685D01*
X114106342Y-105838685D01*
X113877771Y-105781542D01*
X113763485Y-105724400D01*
X113649200Y-105610114D01*
X113592057Y-105438685D01*
X113592057Y-105324400D01*
X113649200Y-105152971D01*
X113706342Y-105095828D01*
D14*
X94194380Y-85488304D02*
X95003904Y-85488304D01*
X95099142Y-85440685D01*
X95146761Y-85393066D01*
X95194380Y-85297828D01*
X95194380Y-85107352D01*
X95146761Y-85012114D01*
X95099142Y-84964495D01*
X95003904Y-84916876D01*
X94194380Y-84916876D01*
X95146761Y-84488304D02*
X95194380Y-84345447D01*
X95194380Y-84107352D01*
X95146761Y-84012114D01*
X95099142Y-83964495D01*
X95003904Y-83916876D01*
X94908666Y-83916876D01*
X94813428Y-83964495D01*
X94765809Y-84012114D01*
X94718190Y-84107352D01*
X94670571Y-84297828D01*
X94622952Y-84393066D01*
X94575333Y-84440685D01*
X94480095Y-84488304D01*
X94384857Y-84488304D01*
X94289619Y-84440685D01*
X94242000Y-84393066D01*
X94194380Y-84297828D01*
X94194380Y-84059733D01*
X94242000Y-83916876D01*
X94670571Y-83154971D02*
X94718190Y-83012114D01*
X94765809Y-82964495D01*
X94861047Y-82916876D01*
X95003904Y-82916876D01*
X95099142Y-82964495D01*
X95146761Y-83012114D01*
X95194380Y-83107352D01*
X95194380Y-83488304D01*
X94194380Y-83488304D01*
X94194380Y-83154971D01*
X94242000Y-83059733D01*
X94289619Y-83012114D01*
X94384857Y-82964495D01*
X94480095Y-82964495D01*
X94575333Y-83012114D01*
X94622952Y-83059733D01*
X94670571Y-83154971D01*
X94670571Y-83488304D01*
D15*
G04 #@! TO.C,D402*
X114636800Y-79273600D02*
X118636800Y-79273600D01*
X118636800Y-79273600D02*
X118636800Y-80619600D01*
X114636800Y-80619600D02*
X114636800Y-79273600D01*
D16*
G04 #@! TO.C,J101*
X111498000Y-103669600D02*
X110998000Y-103169600D01*
X110498000Y-103669600D02*
X111498000Y-103669600D01*
X110998000Y-103169600D02*
X110498000Y-103669600D01*
X125078000Y-102984600D02*
X125078000Y-87464600D01*
X107118000Y-87464600D02*
X125078000Y-87464600D01*
X107118000Y-87464600D02*
X107118000Y-102984600D01*
X107118000Y-102984600D02*
X125078000Y-102984600D01*
G04 #@! TO.C,D30*
X66859600Y-109689200D02*
X68979600Y-109689200D01*
X66859600Y-107629200D02*
X66859600Y-109689200D01*
X68979600Y-107629200D02*
X68979600Y-109689200D01*
X66859600Y-107629200D02*
X68979600Y-107629200D01*
X66859600Y-106629200D02*
X66859600Y-105569200D01*
X66859600Y-105569200D02*
X67919600Y-105569200D01*
G04 #@! TO.C,D1*
X64167200Y-113689200D02*
X66287200Y-113689200D01*
X64167200Y-107629200D02*
X64167200Y-113689200D01*
X66287200Y-107629200D02*
X66287200Y-113689200D01*
X64167200Y-107629200D02*
X66287200Y-107629200D01*
X64167200Y-106629200D02*
X64167200Y-105569200D01*
X64167200Y-105569200D02*
X65227200Y-105569200D01*
G04 #@! TO.C,C201*
X84659800Y-101556452D02*
X84659800Y-101033948D01*
X86129800Y-101556452D02*
X86129800Y-101033948D01*
D15*
G04 #@! TO.C,D401*
X107118400Y-79222800D02*
X111118400Y-79222800D01*
X111118400Y-79222800D02*
X111118400Y-80568800D01*
X107118400Y-80568800D02*
X107118400Y-79222800D01*
D16*
G04 #@! TO.C,J5*
X86746900Y-92088400D02*
X84626900Y-92088400D01*
X86746900Y-94148400D02*
X86746900Y-92088400D01*
X84626900Y-94148400D02*
X84626900Y-92088400D01*
X86746900Y-94148400D02*
X84626900Y-94148400D01*
X86746900Y-95148400D02*
X86746900Y-96208400D01*
X86746900Y-96208400D02*
X85686900Y-96208400D01*
G04 #@! TO.C,R30*
X77020922Y-102668000D02*
X77538078Y-102668000D01*
X77020922Y-104088000D02*
X77538078Y-104088000D01*
G04 #@! TO.C,R56*
X105659422Y-104039600D02*
X106176578Y-104039600D01*
X105659422Y-105459600D02*
X106176578Y-105459600D01*
D17*
G04 #@! TO.C,U4*
X98861000Y-105521000D02*
X99186000Y-105521000D01*
X99186000Y-105521000D02*
X99186000Y-105221000D01*
X96211000Y-103521000D02*
X95886000Y-103521000D01*
X95886000Y-103521000D02*
X95886000Y-103821000D01*
X96186000Y-105521000D02*
X95886000Y-105521000D01*
X95886000Y-105521000D02*
X95886000Y-105196000D01*
X99186000Y-103846000D02*
X98961000Y-103521000D01*
X98961000Y-103521000D02*
X98861000Y-103521000D01*
X98861000Y-103521000D02*
X98861000Y-102996000D01*
X99186000Y-103846000D02*
X99186000Y-104221000D01*
D15*
G04 #@! TO.C,J3*
X104734000Y-83631800D02*
X104734000Y-82231800D01*
X104734000Y-79831800D02*
X104734000Y-79681800D01*
X104734000Y-79681800D02*
X104434000Y-79681800D01*
X104434000Y-79681800D02*
X104434000Y-79231800D01*
X96734000Y-79231800D02*
X96734000Y-79681800D01*
X96734000Y-79681800D02*
X96434000Y-79681800D01*
X96434000Y-79681800D02*
X96434000Y-79831800D01*
X96434000Y-82231800D02*
X96434000Y-83631800D01*
X101659000Y-85806800D02*
X102384000Y-85806800D01*
X102384000Y-85806800D02*
X102384000Y-85381800D01*
X102384000Y-85381800D02*
X103384000Y-85381800D01*
X98784000Y-85381800D02*
X97784000Y-85381800D01*
D16*
G04 #@! TO.C,DUSB1*
X93782000Y-80026000D02*
X93782000Y-82711000D01*
X93782000Y-82711000D02*
X95702000Y-82711000D01*
X95702000Y-82711000D02*
X95702000Y-80026000D01*
D15*
G04 #@! TO.C,U13*
X88984000Y-85535000D02*
X88984000Y-84425000D01*
X93134000Y-84425000D02*
X93134000Y-85535000D01*
X93134000Y-93375000D02*
X93134000Y-92265000D01*
X88984000Y-93375000D02*
X88984000Y-92265000D01*
X88984000Y-84425000D02*
X93134000Y-84425000D01*
X88984000Y-93375000D02*
X93134000Y-93375000D01*
X88984000Y-85535000D02*
X87859000Y-85535000D01*
D16*
G04 #@! TO.C,Q5*
X87940000Y-82679000D02*
X87940000Y-84139000D01*
X84780000Y-82679000D02*
X84780000Y-84839000D01*
X84780000Y-82679000D02*
X85710000Y-82679000D01*
X87940000Y-82679000D02*
X87010000Y-82679000D01*
G04 #@! TO.C,R13*
X86308000Y-86609422D02*
X86308000Y-87126578D01*
X84888000Y-86609422D02*
X84888000Y-87126578D01*
D17*
G04 #@! TO.C,U50*
X80494200Y-109687000D02*
X80494200Y-110162000D01*
X80494200Y-110162000D02*
X80794200Y-110487000D01*
X80794200Y-110487000D02*
X80794200Y-110682000D01*
X87044200Y-110012000D02*
X87044200Y-110487000D01*
X87044200Y-110487000D02*
X86594200Y-110487000D01*
X80994200Y-106937000D02*
X80494200Y-106937000D01*
X80494200Y-106937000D02*
X80494200Y-107337000D01*
X86669200Y-106937000D02*
X87044200Y-106937000D01*
X87044200Y-106937000D02*
X87044200Y-107237000D01*
D16*
G04 #@! TO.C,C54*
X97676900Y-100283778D02*
X97676900Y-99766622D01*
X99096900Y-100283778D02*
X99096900Y-99766622D01*
D18*
G04 #@! TO.C,H6*
G36*
X93699907Y-99712510D02*
X93705083Y-99753391D01*
X93676363Y-99826618D01*
X93594329Y-99889322D01*
X93480965Y-99932417D01*
X93297203Y-99962840D01*
X93134245Y-99944505D01*
X93025259Y-99902525D01*
X92933906Y-99842602D01*
X92897565Y-99788769D01*
X92911619Y-99751138D01*
X92971451Y-99739823D01*
X93072442Y-99764936D01*
X93085644Y-99770264D01*
X93219633Y-99809494D01*
X93345587Y-99805112D01*
X93484472Y-99755763D01*
X93510967Y-99742758D01*
X93611547Y-99697537D01*
X93671731Y-99687301D01*
X93699907Y-99712510D01*
X93699907Y-99712510D01*
G37*
X93699907Y-99712510D02*
X93705083Y-99753391D01*
X93676363Y-99826618D01*
X93594329Y-99889322D01*
X93480965Y-99932417D01*
X93297203Y-99962840D01*
X93134245Y-99944505D01*
X93025259Y-99902525D01*
X92933906Y-99842602D01*
X92897565Y-99788769D01*
X92911619Y-99751138D01*
X92971451Y-99739823D01*
X93072442Y-99764936D01*
X93085644Y-99770264D01*
X93219633Y-99809494D01*
X93345587Y-99805112D01*
X93484472Y-99755763D01*
X93510967Y-99742758D01*
X93611547Y-99697537D01*
X93671731Y-99687301D01*
X93699907Y-99712510D01*
G36*
X90223456Y-97208532D02*
X90316375Y-97278508D01*
X90401885Y-97376925D01*
X90471999Y-97494122D01*
X90518729Y-97620438D01*
X90534087Y-97746211D01*
X90531848Y-97778575D01*
X90508292Y-97837109D01*
X90466135Y-97869219D01*
X90424223Y-97865976D01*
X90405321Y-97838526D01*
X90392460Y-97784571D01*
X90376608Y-97701565D01*
X90373355Y-97682537D01*
X90333058Y-97545807D01*
X90256923Y-97439918D01*
X90133129Y-97348564D01*
X90129902Y-97346666D01*
X90042179Y-97289784D01*
X90005484Y-97248367D01*
X90015725Y-97214779D01*
X90047343Y-97192550D01*
X90131116Y-97176659D01*
X90223456Y-97208532D01*
X90223456Y-97208532D01*
G37*
X90223456Y-97208532D02*
X90316375Y-97278508D01*
X90401885Y-97376925D01*
X90471999Y-97494122D01*
X90518729Y-97620438D01*
X90534087Y-97746211D01*
X90531848Y-97778575D01*
X90508292Y-97837109D01*
X90466135Y-97869219D01*
X90424223Y-97865976D01*
X90405321Y-97838526D01*
X90392460Y-97784571D01*
X90376608Y-97701565D01*
X90373355Y-97682537D01*
X90333058Y-97545807D01*
X90256923Y-97439918D01*
X90133129Y-97348564D01*
X90129902Y-97346666D01*
X90042179Y-97289784D01*
X90005484Y-97248367D01*
X90015725Y-97214779D01*
X90047343Y-97192550D01*
X90131116Y-97176659D01*
X90223456Y-97208532D01*
G36*
X91536400Y-94761943D02*
X91716095Y-94766549D01*
X91855735Y-94775322D01*
X91897200Y-94780049D01*
X91979953Y-94796324D01*
X92101518Y-94826355D01*
X92249601Y-94866465D01*
X92411905Y-94912979D01*
X92576137Y-94962222D01*
X92730000Y-95010519D01*
X92861199Y-95054195D01*
X92957439Y-95089573D01*
X93002847Y-95110546D01*
X93071132Y-95144268D01*
X93161383Y-95178904D01*
X93176425Y-95183825D01*
X93289545Y-95228919D01*
X93435062Y-95300387D01*
X93601164Y-95391015D01*
X93776037Y-95493587D01*
X93947870Y-95600888D01*
X94104851Y-95705703D01*
X94235166Y-95800816D01*
X94327005Y-95879012D01*
X94344714Y-95897450D01*
X94399248Y-95944263D01*
X94441064Y-95961200D01*
X94479505Y-95985453D01*
X94523199Y-96045134D01*
X94530330Y-96058318D01*
X94566102Y-96117110D01*
X94630074Y-96211805D01*
X94714161Y-96330817D01*
X94810279Y-96462558D01*
X94843607Y-96507315D01*
X95039803Y-96784560D01*
X95221070Y-97070114D01*
X95378412Y-97348792D01*
X95502832Y-97605408D01*
X95524775Y-97657108D01*
X95599155Y-97848868D01*
X95667190Y-98045090D01*
X95723960Y-98230030D01*
X95764549Y-98387947D01*
X95781266Y-98478092D01*
X95797450Y-98564431D01*
X95816878Y-98622948D01*
X95825937Y-98635181D01*
X95865783Y-98636470D01*
X95946507Y-98624954D01*
X96051204Y-98603097D01*
X96059132Y-98601210D01*
X96199939Y-98572810D01*
X96292501Y-98568977D01*
X96343764Y-98591347D01*
X96360673Y-98641554D01*
X96359143Y-98671844D01*
X96327582Y-98738790D01*
X96253236Y-98821756D01*
X96147175Y-98910844D01*
X96020468Y-98996160D01*
X95954965Y-99033184D01*
X95859083Y-99083937D01*
X95844612Y-99636745D01*
X95838967Y-99821579D01*
X95832218Y-99993860D01*
X95824958Y-100141412D01*
X95817774Y-100252058D01*
X95812009Y-100309083D01*
X95732696Y-100739095D01*
X95633011Y-101115579D01*
X95512011Y-101441525D01*
X95368757Y-101719922D01*
X95366953Y-101722898D01*
X95308227Y-101823537D01*
X95259478Y-101914119D01*
X95233940Y-101968758D01*
X95201393Y-102033191D01*
X95142449Y-102132448D01*
X95065987Y-102253111D01*
X94980888Y-102381761D01*
X94896033Y-102504980D01*
X94820300Y-102609349D01*
X94762571Y-102681452D01*
X94761464Y-102682693D01*
X94710126Y-102734062D01*
X94622004Y-102815989D01*
X94506059Y-102920569D01*
X94371251Y-103039899D01*
X94226543Y-103166076D01*
X94080895Y-103291197D01*
X93943269Y-103407359D01*
X93884377Y-103456222D01*
X93786327Y-103528072D01*
X93647784Y-103617705D01*
X93482315Y-103717428D01*
X93303488Y-103819544D01*
X93124870Y-103916358D01*
X92960030Y-104000177D01*
X92822535Y-104063304D01*
X92792132Y-104075696D01*
X92569509Y-104148510D01*
X92346086Y-104187942D01*
X92280343Y-104194115D01*
X92138634Y-104207203D01*
X91999571Y-104223059D01*
X91888676Y-104238709D01*
X91869590Y-104242012D01*
X91563048Y-104280222D01*
X91221491Y-104292148D01*
X90862075Y-104279164D01*
X90501956Y-104242643D01*
X90158288Y-104183958D01*
X89848226Y-104104484D01*
X89752101Y-104072469D01*
X89715107Y-104060356D01*
X90142955Y-104060356D01*
X90149083Y-104061379D01*
X90198460Y-104067137D01*
X90289242Y-104080232D01*
X90403896Y-104098104D01*
X90432965Y-104102811D01*
X90534762Y-104115042D01*
X90673527Y-104125646D01*
X90837652Y-104134374D01*
X91015530Y-104140980D01*
X91195553Y-104145215D01*
X91366115Y-104146831D01*
X91515608Y-104145581D01*
X91632423Y-104141217D01*
X91704955Y-104133491D01*
X91717025Y-104130227D01*
X91709625Y-104116140D01*
X91650922Y-104091309D01*
X91547904Y-104058190D01*
X91407557Y-104019239D01*
X91383293Y-104012935D01*
X91213831Y-103965415D01*
X91051607Y-103913766D01*
X91925576Y-103913766D01*
X91947440Y-103928287D01*
X92001789Y-103940968D01*
X92094288Y-103954663D01*
X92197355Y-103962831D01*
X92297674Y-103965566D01*
X92381924Y-103962964D01*
X92436789Y-103955119D01*
X92448951Y-103942125D01*
X92443327Y-103937828D01*
X92378811Y-103916409D01*
X92278029Y-103899105D01*
X92162414Y-103887740D01*
X92053400Y-103884140D01*
X91972418Y-103890131D01*
X91951850Y-103895977D01*
X91925576Y-103913766D01*
X91051607Y-103913766D01*
X91041056Y-103910407D01*
X90886024Y-103854973D01*
X90776612Y-103809412D01*
X90552494Y-103704442D01*
X90418024Y-103835381D01*
X90330164Y-103914269D01*
X90243675Y-103981277D01*
X90193906Y-104012635D01*
X90146511Y-104043283D01*
X90142955Y-104060356D01*
X89715107Y-104060356D01*
X89638502Y-104035274D01*
X89570533Y-104022173D01*
X89539765Y-104031784D01*
X89537026Y-104037173D01*
X89522233Y-104085552D01*
X89497768Y-104169086D01*
X89480610Y-104228794D01*
X89436185Y-104365947D01*
X89394324Y-104460018D01*
X89358274Y-104504168D01*
X89348678Y-104506645D01*
X89307608Y-104492359D01*
X89276200Y-104475936D01*
X89225085Y-104414207D01*
X89188207Y-104300733D01*
X89167207Y-104142189D01*
X89162837Y-104014494D01*
X89162508Y-103865083D01*
X89559831Y-103865083D01*
X89652751Y-103900162D01*
X89734713Y-103927023D01*
X89792673Y-103928603D01*
X89817301Y-103911622D01*
X89999671Y-103911622D01*
X90021964Y-103923214D01*
X90078994Y-103907213D01*
X90155986Y-103869496D01*
X90235930Y-103817604D01*
X90316679Y-103746225D01*
X90384288Y-103669669D01*
X90446661Y-103585305D01*
X90341937Y-103520582D01*
X90250056Y-103478677D01*
X90183643Y-103478321D01*
X90151030Y-103518739D01*
X90149083Y-103538570D01*
X90136233Y-103591484D01*
X90103231Y-103674934D01*
X90074377Y-103736198D01*
X90033104Y-103822843D01*
X90005973Y-103888377D01*
X89999671Y-103911622D01*
X89817301Y-103911622D01*
X89838222Y-103897198D01*
X89882953Y-103825105D01*
X89934936Y-103712621D01*
X89979461Y-103608234D01*
X90011131Y-103527432D01*
X90024876Y-103483412D01*
X90024583Y-103479182D01*
X90012792Y-103472299D01*
X90657964Y-103472299D01*
X90676877Y-103528266D01*
X90748078Y-103576060D01*
X90831075Y-103607904D01*
X90821570Y-103589758D01*
X90785636Y-103541119D01*
X90778781Y-103532347D01*
X90735539Y-103463844D01*
X90716432Y-103406854D01*
X90716390Y-103405347D01*
X90712687Y-103380118D01*
X90864485Y-103380118D01*
X90875621Y-103428337D01*
X90897263Y-103455990D01*
X90946998Y-103495593D01*
X91013740Y-103515150D01*
X91117716Y-103520272D01*
X91128894Y-103520221D01*
X91299553Y-103519007D01*
X91196094Y-103430574D01*
X91115857Y-103378401D01*
X91031261Y-103348232D01*
X90953622Y-103339103D01*
X90894258Y-103350053D01*
X90864485Y-103380118D01*
X90712687Y-103380118D01*
X90711698Y-103373385D01*
X90691202Y-103395421D01*
X90686965Y-103401906D01*
X90657964Y-103472299D01*
X90012792Y-103472299D01*
X89994953Y-103461886D01*
X89929399Y-103425313D01*
X89872877Y-103394234D01*
X89731142Y-103316697D01*
X89645486Y-103590890D01*
X89559831Y-103865083D01*
X89162508Y-103865083D01*
X89162376Y-103805318D01*
X88886259Y-103659123D01*
X88634503Y-103514597D01*
X88374480Y-103345166D01*
X88118752Y-103160385D01*
X87879884Y-102969808D01*
X87670440Y-102782988D01*
X87502984Y-102609481D01*
X87497308Y-102602920D01*
X87414059Y-102502884D01*
X87328561Y-102394659D01*
X87249197Y-102289564D01*
X87212879Y-102238796D01*
X87700497Y-102238796D01*
X87717961Y-102480419D01*
X87736768Y-102679520D01*
X87946458Y-102852025D01*
X88294938Y-103123407D01*
X88631485Y-103355192D01*
X88864142Y-103495494D01*
X88992297Y-103566897D01*
X89077512Y-103611486D01*
X89128551Y-103632420D01*
X89154176Y-103632857D01*
X89163153Y-103615957D01*
X89164094Y-103603612D01*
X89173477Y-103492882D01*
X89194502Y-103341775D01*
X89224157Y-103167854D01*
X89259432Y-102988682D01*
X89297316Y-102821823D01*
X89299923Y-102811315D01*
X89316134Y-102732754D01*
X89323292Y-102652610D01*
X89321198Y-102555858D01*
X89309655Y-102427472D01*
X89293041Y-102288374D01*
X89268909Y-102035939D01*
X89258521Y-101783326D01*
X89260851Y-101610072D01*
X89392278Y-101610072D01*
X89393537Y-101768406D01*
X89400498Y-101947665D01*
X89412124Y-102128681D01*
X89427379Y-102292289D01*
X89445227Y-102419322D01*
X89448921Y-102438200D01*
X89470208Y-102504813D01*
X89510225Y-102531188D01*
X89571072Y-102535318D01*
X89713633Y-102559482D01*
X89859834Y-102625164D01*
X89933368Y-102676165D01*
X90001536Y-102731217D01*
X89907720Y-102918959D01*
X89859592Y-103017750D01*
X89836498Y-103077804D01*
X89836061Y-103113488D01*
X89855902Y-103139173D01*
X89869434Y-103150220D01*
X89944664Y-103206822D01*
X89988868Y-103226772D01*
X90008994Y-103204083D01*
X90011991Y-103132762D01*
X90006435Y-103032118D01*
X90000594Y-102918020D01*
X90004406Y-102843919D01*
X90022800Y-102790234D01*
X90060704Y-102737384D01*
X90088814Y-102704811D01*
X90150226Y-102640829D01*
X90198266Y-102601286D01*
X90212881Y-102595083D01*
X90250306Y-102617324D01*
X90256753Y-102670294D01*
X90231808Y-102733363D01*
X90216062Y-102753485D01*
X90157573Y-102835585D01*
X90132137Y-102927324D01*
X90136668Y-103046265D01*
X90150352Y-103127296D01*
X90172095Y-103226102D01*
X90198212Y-103285729D01*
X90243767Y-103325801D01*
X90323827Y-103365940D01*
X90338815Y-103372758D01*
X90425716Y-103412621D01*
X90488540Y-103442225D01*
X90509071Y-103452607D01*
X90533736Y-103438508D01*
X90561816Y-103378444D01*
X90589925Y-103285827D01*
X90614679Y-103174068D01*
X90632692Y-103056578D01*
X90640577Y-102946769D01*
X90640675Y-102931259D01*
X90642015Y-102818003D01*
X90649245Y-102752260D01*
X90665252Y-102721856D01*
X90692057Y-102714612D01*
X90738329Y-102741595D01*
X90772085Y-102812271D01*
X90789691Y-102911234D01*
X90787510Y-103023075D01*
X90777949Y-103078644D01*
X90754677Y-103187163D01*
X90748585Y-103247198D01*
X90761279Y-103267967D01*
X90794362Y-103258686D01*
X90808070Y-103251651D01*
X90920763Y-103218761D01*
X91046532Y-103224470D01*
X91171489Y-103262344D01*
X91281745Y-103325950D01*
X91363411Y-103408853D01*
X91402598Y-103504621D01*
X91404142Y-103527766D01*
X91379782Y-103603598D01*
X91305907Y-103649821D01*
X91181318Y-103666934D01*
X91080241Y-103663319D01*
X91000362Y-103659909D01*
X90958977Y-103664313D01*
X90960711Y-103672412D01*
X91007994Y-103690705D01*
X91097343Y-103719470D01*
X91214108Y-103754556D01*
X91343644Y-103791812D01*
X91471301Y-103827090D01*
X91582432Y-103856239D01*
X91662389Y-103875109D01*
X91693503Y-103880024D01*
X91743653Y-103863311D01*
X91813342Y-103822157D01*
X91826456Y-103812789D01*
X91890253Y-103774432D01*
X91961802Y-103755299D01*
X92062761Y-103750782D01*
X92112612Y-103751916D01*
X92234636Y-103761845D01*
X92360459Y-103781774D01*
X92476128Y-103808219D01*
X92567684Y-103837699D01*
X92621174Y-103866730D01*
X92629318Y-103880859D01*
X92633823Y-103900846D01*
X92653698Y-103905753D01*
X92698487Y-103892802D01*
X92777732Y-103859215D01*
X92900975Y-103802214D01*
X92903413Y-103801070D01*
X93135338Y-103692234D01*
X93074492Y-103606783D01*
X93026911Y-103511353D01*
X93028599Y-103492836D01*
X93159491Y-103492836D01*
X93186567Y-103526326D01*
X93251369Y-103573940D01*
X93308256Y-103573574D01*
X93331726Y-103551038D01*
X93368269Y-103518932D01*
X93436552Y-103475825D01*
X93460490Y-103462712D01*
X93570612Y-103404548D01*
X93430077Y-103403227D01*
X93326926Y-103409879D01*
X93236412Y-103428140D01*
X93213224Y-103436679D01*
X93161691Y-103465014D01*
X93159491Y-103492836D01*
X93028599Y-103492836D01*
X93034311Y-103430187D01*
X93098536Y-103357268D01*
X93163620Y-103315794D01*
X93236431Y-103278893D01*
X93298649Y-103260198D01*
X93371422Y-103257060D01*
X93475894Y-103266828D01*
X93515341Y-103271723D01*
X93736171Y-103299721D01*
X93916629Y-103149108D01*
X94097088Y-102998494D01*
X93714321Y-102979186D01*
X93297605Y-102950750D01*
X92903681Y-102909214D01*
X92539309Y-102855798D01*
X92211253Y-102791717D01*
X91926278Y-102718190D01*
X91691144Y-102636433D01*
X91609877Y-102600414D01*
X91503417Y-102552880D01*
X91434007Y-102532620D01*
X91387349Y-102536328D01*
X91369987Y-102544921D01*
X91321352Y-102562774D01*
X91286476Y-102541044D01*
X91261389Y-102473282D01*
X91244936Y-102370609D01*
X91511378Y-102370609D01*
X91535572Y-102410249D01*
X91561759Y-102428988D01*
X91680135Y-102490476D01*
X91846251Y-102554132D01*
X92048346Y-102616497D01*
X92274660Y-102674111D01*
X92513434Y-102723515D01*
X92631909Y-102743756D01*
X92819652Y-102770444D01*
X93027871Y-102795004D01*
X93242914Y-102816307D01*
X93451132Y-102833222D01*
X93638872Y-102844619D01*
X93792483Y-102849368D01*
X93884377Y-102847445D01*
X94007788Y-102840445D01*
X94125761Y-102835680D01*
X94193259Y-102834354D01*
X94258449Y-102828647D01*
X94315624Y-102805593D01*
X94380297Y-102755877D01*
X94467979Y-102670185D01*
X94469854Y-102668265D01*
X94570788Y-102559207D01*
X94674247Y-102438430D01*
X94750705Y-102341435D01*
X94822510Y-102235417D01*
X94911115Y-102091540D01*
X95007470Y-101925829D01*
X95102528Y-101754312D01*
X95187238Y-101593015D01*
X95252553Y-101457963D01*
X95263436Y-101433330D01*
X95319873Y-101302519D01*
X95252066Y-101345810D01*
X95040363Y-101475906D01*
X94851675Y-101579374D01*
X94663260Y-101668037D01*
X94511906Y-101730568D01*
X94374046Y-101783740D01*
X94267972Y-101819278D01*
X94173861Y-101841008D01*
X94071890Y-101852762D01*
X93942235Y-101858366D01*
X93839553Y-101860426D01*
X93602709Y-101860418D01*
X93403846Y-101849586D01*
X93221713Y-101825074D01*
X93035060Y-101784026D01*
X92823553Y-101723866D01*
X92644020Y-101661457D01*
X92434564Y-101576838D01*
X92215392Y-101479143D01*
X92006711Y-101377504D01*
X91828727Y-101281054D01*
X91782443Y-101253326D01*
X91674274Y-101186474D01*
X91713404Y-101300602D01*
X91753586Y-101495591D01*
X91754049Y-101714926D01*
X91716184Y-101939573D01*
X91653187Y-102124436D01*
X91618094Y-102194412D01*
X91589691Y-102233519D01*
X91583694Y-102236494D01*
X91557679Y-102260504D01*
X91529203Y-102310993D01*
X91511378Y-102370609D01*
X91244936Y-102370609D01*
X91242120Y-102353040D01*
X91239880Y-102333612D01*
X91230389Y-102230699D01*
X91232334Y-102173919D01*
X91247611Y-102150404D01*
X91267377Y-102146847D01*
X91313640Y-102171501D01*
X91351811Y-102225936D01*
X91387846Y-102305024D01*
X91420278Y-102173641D01*
X91437174Y-102066132D01*
X91425922Y-101964876D01*
X91407956Y-101900866D01*
X91386158Y-101815154D01*
X91380317Y-101753755D01*
X91385105Y-101737570D01*
X91426636Y-101730766D01*
X91477352Y-101767249D01*
X91523815Y-101834993D01*
X91541489Y-101877538D01*
X91564091Y-101940285D01*
X91577637Y-101950657D01*
X91591021Y-101913287D01*
X91593376Y-101904555D01*
X91609271Y-101821525D01*
X91603004Y-101749181D01*
X91569463Y-101669292D01*
X91503542Y-101563630D01*
X91493789Y-101549200D01*
X91434594Y-101457867D01*
X91391844Y-101383965D01*
X91374317Y-101342733D01*
X91374259Y-101341663D01*
X91394326Y-101311395D01*
X91442830Y-101314253D01*
X91502230Y-101345183D01*
X91550114Y-101392318D01*
X91593539Y-101442028D01*
X91611647Y-101443176D01*
X91605561Y-101400803D01*
X91576400Y-101319945D01*
X91525287Y-101205642D01*
X91494690Y-101143176D01*
X91433484Y-101001915D01*
X91367472Y-100816846D01*
X91344579Y-100743204D01*
X91550105Y-100743204D01*
X91552824Y-100769887D01*
X91554083Y-100772259D01*
X91622516Y-100865305D01*
X91730445Y-100962498D01*
X91882630Y-101067205D01*
X92083829Y-101182790D01*
X92270730Y-101279128D01*
X92424394Y-101354356D01*
X92547826Y-101410781D01*
X92661769Y-101456600D01*
X92786968Y-101500007D01*
X92944168Y-101549197D01*
X92987906Y-101562455D01*
X93309788Y-101631905D01*
X93654344Y-101655597D01*
X94005211Y-101633032D01*
X94200263Y-101599598D01*
X94345300Y-101561290D01*
X94502133Y-101508644D01*
X94605913Y-101466523D01*
X94733081Y-101404431D01*
X94883700Y-101324124D01*
X95042621Y-101234394D01*
X95194692Y-101144034D01*
X95324762Y-101061837D01*
X95417681Y-100996594D01*
X95423318Y-100992162D01*
X95490350Y-100938753D01*
X95539629Y-100899445D01*
X95544809Y-100895306D01*
X95569368Y-100848409D01*
X95595389Y-100751948D01*
X95621675Y-100616065D01*
X95647027Y-100450899D01*
X95670248Y-100266593D01*
X95690139Y-100073288D01*
X95705503Y-99881126D01*
X95715141Y-99700246D01*
X95717856Y-99540791D01*
X95715277Y-99452273D01*
X95699298Y-99163228D01*
X95576249Y-99223853D01*
X95483347Y-99285037D01*
X95404407Y-99362270D01*
X95389109Y-99383235D01*
X95349844Y-99447199D01*
X95342912Y-99478199D01*
X95367222Y-99492816D01*
X95381638Y-99496799D01*
X95428422Y-99522772D01*
X95438259Y-99542942D01*
X95415799Y-99572983D01*
X95355165Y-99629285D01*
X95266472Y-99702900D01*
X95191730Y-99760987D01*
X95088121Y-99841014D01*
X95003843Y-99909048D01*
X94949490Y-99956366D01*
X94934888Y-99972562D01*
X94898537Y-100006178D01*
X94821423Y-100051150D01*
X94719631Y-100100396D01*
X94609249Y-100146835D01*
X94506362Y-100183384D01*
X94427057Y-100202962D01*
X94408064Y-100204494D01*
X94330662Y-100214645D01*
X94302731Y-100243063D01*
X94302730Y-100243342D01*
X94283168Y-100307760D01*
X94226602Y-100327064D01*
X94136214Y-100300376D01*
X94121648Y-100293229D01*
X94070931Y-100270468D01*
X94016416Y-100255413D01*
X93946292Y-100247166D01*
X93848745Y-100244829D01*
X93711963Y-100247504D01*
X93580655Y-100252102D01*
X93389940Y-100257617D01*
X93246430Y-100257106D01*
X93137809Y-100249945D01*
X93051763Y-100235510D01*
X93005345Y-100222943D01*
X92917374Y-100197758D01*
X92861240Y-100194305D01*
X92811740Y-100216467D01*
X92751345Y-100262065D01*
X92628690Y-100346015D01*
X92472557Y-100433866D01*
X92296795Y-100519701D01*
X92115251Y-100597602D01*
X91941773Y-100661653D01*
X91790210Y-100705937D01*
X91674410Y-100724537D01*
X91668584Y-100724713D01*
X91585026Y-100729667D01*
X91550105Y-100743204D01*
X91344579Y-100743204D01*
X91301059Y-100603212D01*
X91238649Y-100376254D01*
X91184647Y-100151215D01*
X91143459Y-99943339D01*
X91137443Y-99907026D01*
X91104405Y-99774672D01*
X91055290Y-99669716D01*
X90996745Y-99601907D01*
X90935415Y-99580995D01*
X90918002Y-99585116D01*
X90893498Y-99624738D01*
X90883837Y-99712605D01*
X90888204Y-99839285D01*
X90905781Y-99995347D01*
X90935754Y-100171358D01*
X90977306Y-100357888D01*
X90988708Y-100402401D01*
X91041301Y-100636850D01*
X91063813Y-100832892D01*
X91056770Y-101003451D01*
X91020699Y-101161453D01*
X91019730Y-101164436D01*
X90998522Y-101260985D01*
X90993750Y-101351598D01*
X90993758Y-101351701D01*
X90987480Y-101424729D01*
X90952142Y-101446708D01*
X90886858Y-101417722D01*
X90823615Y-101367811D01*
X90759434Y-101305484D01*
X90737692Y-101263808D01*
X90750887Y-101230427D01*
X90798448Y-101201225D01*
X90823933Y-101202377D01*
X90865538Y-101192665D01*
X90896121Y-101134324D01*
X90915120Y-101037564D01*
X90921971Y-100912599D01*
X90916112Y-100769640D01*
X90896978Y-100618899D01*
X90864238Y-100471415D01*
X90833998Y-100340143D01*
X90805244Y-100176388D01*
X90782492Y-100007354D01*
X90775304Y-99935553D01*
X90762595Y-99795584D01*
X90750298Y-99701333D01*
X90733700Y-99638975D01*
X90708084Y-99594683D01*
X90668738Y-99554632D01*
X90635697Y-99526136D01*
X90621936Y-99517200D01*
X91135200Y-99517200D01*
X91146134Y-99541797D01*
X91155122Y-99537122D01*
X91158698Y-99501659D01*
X91155122Y-99497279D01*
X91137357Y-99501381D01*
X91135200Y-99517200D01*
X90621936Y-99517200D01*
X90532875Y-99459371D01*
X90403969Y-99404511D01*
X90268125Y-99366910D01*
X90144492Y-99351919D01*
X90055001Y-99363794D01*
X89986774Y-99415641D01*
X89930743Y-99516619D01*
X89885485Y-99670199D01*
X89852568Y-99857844D01*
X89829570Y-100063957D01*
X89820644Y-100243643D01*
X89825347Y-100389871D01*
X89843239Y-100495615D01*
X89873879Y-100553845D01*
X89896804Y-100563083D01*
X89947422Y-100583062D01*
X89955152Y-100631660D01*
X89926507Y-100680908D01*
X89895385Y-100722548D01*
X89913102Y-100742903D01*
X89948634Y-100753088D01*
X90024333Y-100801346D01*
X90079013Y-100896804D01*
X90109119Y-101029502D01*
X90111091Y-101189484D01*
X90109821Y-101204312D01*
X90082910Y-101374627D01*
X90034890Y-101499608D01*
X89959593Y-101591790D01*
X89896440Y-101638008D01*
X89776498Y-101686383D01*
X89670834Y-101678940D01*
X89585046Y-101618993D01*
X89524732Y-101509855D01*
X89512970Y-101458593D01*
X89760612Y-101458593D01*
X89764708Y-101526143D01*
X89785897Y-101544471D01*
X89837535Y-101519474D01*
X89862356Y-101503492D01*
X89913083Y-101448836D01*
X89951713Y-101353641D01*
X89970133Y-101278635D01*
X89990805Y-101160601D01*
X89990052Y-101095243D01*
X89966410Y-101078906D01*
X89918418Y-101107933D01*
X89906083Y-101118580D01*
X89828624Y-101219333D01*
X89776163Y-101349158D01*
X89760612Y-101458593D01*
X89512970Y-101458593D01*
X89500338Y-101403544D01*
X89481688Y-101319025D01*
X89458493Y-101290815D01*
X89434152Y-101315987D01*
X89412065Y-101391616D01*
X89397756Y-101491829D01*
X89392278Y-101610072D01*
X89260851Y-101610072D01*
X89260866Y-101608965D01*
X89277483Y-101403489D01*
X89306289Y-101262828D01*
X89613559Y-101262828D01*
X89619054Y-101301586D01*
X89629254Y-101302048D01*
X89636388Y-101262054D01*
X89631613Y-101244774D01*
X89618345Y-101233455D01*
X89613559Y-101262828D01*
X89306289Y-101262828D01*
X89311098Y-101239350D01*
X89318795Y-101220494D01*
X89461789Y-101220494D01*
X89472722Y-101245091D01*
X89481710Y-101240416D01*
X89485286Y-101204953D01*
X89481710Y-101200573D01*
X89463945Y-101204675D01*
X89461789Y-101220494D01*
X89318795Y-101220494D01*
X89344188Y-101158293D01*
X89641083Y-101158293D01*
X89660051Y-101154312D01*
X89709881Y-101115591D01*
X89779962Y-101050419D01*
X89783024Y-101047391D01*
X89850290Y-100975465D01*
X89891418Y-100920882D01*
X89897726Y-100895209D01*
X89897374Y-100895042D01*
X89864387Y-100908884D01*
X89808631Y-100954838D01*
X89744451Y-101018170D01*
X89686189Y-101084148D01*
X89648190Y-101138037D01*
X89641083Y-101158293D01*
X89344188Y-101158293D01*
X89368387Y-101099019D01*
X89456025Y-100964964D01*
X89547678Y-100855780D01*
X89685906Y-100702036D01*
X89689568Y-100326265D01*
X89692682Y-100169849D01*
X89698432Y-100023866D01*
X89705988Y-99904915D01*
X89714278Y-99830965D01*
X89749376Y-99648120D01*
X89782915Y-99512214D01*
X89818475Y-99410641D01*
X89853284Y-99341338D01*
X89912775Y-99240181D01*
X89785669Y-99260506D01*
X89680270Y-99283694D01*
X89571059Y-99322428D01*
X89447898Y-99381737D01*
X89300650Y-99466647D01*
X89119176Y-99582184D01*
X89065665Y-99617509D01*
X88710626Y-99876629D01*
X88412211Y-100146963D01*
X88168450Y-100432694D01*
X87977373Y-100738008D01*
X87837009Y-101067091D01*
X87745388Y-101424126D01*
X87700541Y-101813300D01*
X87700497Y-102238796D01*
X87212879Y-102238796D01*
X87184350Y-102198917D01*
X87142402Y-102134037D01*
X87130965Y-102108292D01*
X87116217Y-102077287D01*
X87076683Y-102007910D01*
X87019429Y-101912358D01*
X86985919Y-101857861D01*
X86861828Y-101652384D01*
X86763767Y-101474564D01*
X86685638Y-101309038D01*
X86621345Y-101140448D01*
X86564793Y-100953431D01*
X86509884Y-100732627D01*
X86472051Y-100563083D01*
X86421122Y-100313874D01*
X86384874Y-100096456D01*
X86361035Y-99889593D01*
X86347331Y-99672045D01*
X86341491Y-99422575D01*
X86340930Y-99337906D01*
X86344137Y-99130582D01*
X86544708Y-99130582D01*
X86550846Y-99449683D01*
X86577110Y-99796646D01*
X86623520Y-100164360D01*
X86641628Y-100279200D01*
X86689802Y-100550347D01*
X86740505Y-100783051D01*
X86798815Y-100989949D01*
X86869811Y-101183678D01*
X86958571Y-101376875D01*
X87070176Y-101582178D01*
X87209703Y-101812223D01*
X87338193Y-102012377D01*
X87474612Y-102221553D01*
X87493384Y-101848024D01*
X87503958Y-101681921D01*
X87518317Y-101516368D01*
X87534461Y-101372029D01*
X87548316Y-101280259D01*
X87636991Y-100961840D01*
X87783012Y-100645290D01*
X87983997Y-100334542D01*
X88237563Y-100033528D01*
X88403452Y-99868986D01*
X88507651Y-99778020D01*
X88637576Y-99673928D01*
X88782481Y-99564327D01*
X88931619Y-99456834D01*
X89074242Y-99359068D01*
X89199604Y-99278647D01*
X89296959Y-99223189D01*
X89342458Y-99203373D01*
X89383709Y-99175067D01*
X89374491Y-99144722D01*
X89321138Y-99128880D01*
X89313876Y-99128730D01*
X89225588Y-99109476D01*
X89109595Y-99058111D01*
X88981004Y-98984228D01*
X88854917Y-98897418D01*
X88746441Y-98807277D01*
X88670680Y-98723395D01*
X88666858Y-98717805D01*
X88627336Y-98651996D01*
X88572083Y-98551922D01*
X88511730Y-98436952D01*
X88499407Y-98412736D01*
X88438527Y-98283522D01*
X88412798Y-98199697D01*
X88424719Y-98156594D01*
X88476789Y-98149547D01*
X88571506Y-98173888D01*
X88618574Y-98190171D01*
X88724334Y-98236729D01*
X88787317Y-98281902D01*
X88804283Y-98319922D01*
X88771993Y-98345024D01*
X88709450Y-98351927D01*
X88610142Y-98352065D01*
X88706441Y-98442324D01*
X88833893Y-98525125D01*
X88939409Y-98558115D01*
X89038147Y-98579550D01*
X89088377Y-98601776D01*
X89100939Y-98632627D01*
X89091454Y-98668004D01*
X89066833Y-98698763D01*
X89014959Y-98706532D01*
X88945821Y-98699161D01*
X88819318Y-98680466D01*
X88907337Y-98758778D01*
X88957214Y-98799184D01*
X89004472Y-98820737D01*
X89067597Y-98827011D01*
X89165071Y-98821580D01*
X89211232Y-98817529D01*
X89339810Y-98809887D01*
X89417074Y-98815654D01*
X89449013Y-98833411D01*
X89446643Y-98875888D01*
X89401889Y-98916808D01*
X89331270Y-98944495D01*
X89284254Y-98949893D01*
X89235282Y-98954450D01*
X89240195Y-98970616D01*
X89252612Y-98979318D01*
X89306357Y-98995604D01*
X89396232Y-99006319D01*
X89463771Y-99008743D01*
X89575211Y-99011614D01*
X89684829Y-99020940D01*
X89801294Y-99038737D01*
X89933274Y-99067024D01*
X90089439Y-99107818D01*
X90278457Y-99163137D01*
X90508996Y-99234998D01*
X90701906Y-99296932D01*
X90851313Y-99343632D01*
X90956631Y-99371646D01*
X91029782Y-99383133D01*
X91082687Y-99380251D01*
X91112789Y-99371339D01*
X91171702Y-99335159D01*
X91194965Y-99295810D01*
X91168221Y-99260454D01*
X91094787Y-99211493D01*
X90984861Y-99153641D01*
X90848643Y-99091612D01*
X90696330Y-99030119D01*
X90538120Y-98973876D01*
X90419291Y-98937281D01*
X90232859Y-98879309D01*
X90088424Y-98820468D01*
X89968783Y-98751701D01*
X89856733Y-98663953D01*
X89798568Y-98610501D01*
X89721764Y-98543580D01*
X89655586Y-98496816D01*
X89624006Y-98482872D01*
X89562693Y-98459128D01*
X89551446Y-98419853D01*
X89585959Y-98374325D01*
X89661928Y-98331825D01*
X89700227Y-98318562D01*
X89785676Y-98298193D01*
X89835914Y-98302691D01*
X89858689Y-98318901D01*
X89876913Y-98355857D01*
X89843692Y-98393772D01*
X89842361Y-98394760D01*
X89815249Y-98421085D01*
X89818422Y-98449702D01*
X89857801Y-98494355D01*
X89903425Y-98536507D01*
X90049736Y-98646346D01*
X90225839Y-98734699D01*
X90444697Y-98807708D01*
X90514347Y-98825973D01*
X90654468Y-98868466D01*
X90815762Y-98928559D01*
X90967309Y-98994558D01*
X90992510Y-99006830D01*
X91240131Y-99130076D01*
X91374431Y-99084068D01*
X91493840Y-99023461D01*
X91620144Y-98928447D01*
X91732125Y-98817325D01*
X91807425Y-98710625D01*
X91830562Y-98656364D01*
X91828398Y-98611281D01*
X91796285Y-98553307D01*
X91764929Y-98508979D01*
X91639402Y-98367697D01*
X91461237Y-98218831D01*
X91239789Y-98067647D01*
X91096470Y-97980196D01*
X90993184Y-97925738D01*
X90922122Y-97901444D01*
X90875482Y-97904481D01*
X90849476Y-97926067D01*
X90806284Y-97956816D01*
X90767432Y-97931860D01*
X90737486Y-97855257D01*
X90730502Y-97820329D01*
X90668422Y-97556027D01*
X90576612Y-97338741D01*
X90451366Y-97161683D01*
X90294599Y-97022078D01*
X90158633Y-96934185D01*
X89986740Y-96837341D01*
X89799442Y-96742220D01*
X89617262Y-96659495D01*
X89529561Y-96624234D01*
X89373215Y-96564997D01*
X89310313Y-96666775D01*
X89252605Y-96735195D01*
X89168620Y-96807365D01*
X89076880Y-96870028D01*
X88995905Y-96909932D01*
X88960069Y-96917436D01*
X88937178Y-96906797D01*
X88901397Y-96870346D01*
X88847220Y-96801278D01*
X88769143Y-96692789D01*
X88711598Y-96610363D01*
X88675730Y-96604836D01*
X88607204Y-96621995D01*
X88577127Y-96633641D01*
X88460730Y-96682980D01*
X88646844Y-96768187D01*
X88754355Y-96822314D01*
X88823384Y-96873710D01*
X88872206Y-96938361D01*
X88898480Y-96988259D01*
X88936190Y-97075444D01*
X88944714Y-97129533D01*
X88926828Y-97167915D01*
X88873969Y-97198313D01*
X88825730Y-97180124D01*
X88804379Y-97121858D01*
X88804377Y-97121116D01*
X88777255Y-97045306D01*
X88704233Y-96967251D01*
X88597824Y-96897343D01*
X88474431Y-96847112D01*
X88299372Y-96765887D01*
X88135643Y-96632495D01*
X87992318Y-96454491D01*
X87980105Y-96435552D01*
X87897464Y-96304847D01*
X87874128Y-96391732D01*
X87866128Y-96502769D01*
X87887373Y-96644392D01*
X87933671Y-96797649D01*
X87993024Y-96929358D01*
X88061340Y-97034821D01*
X88152694Y-97146848D01*
X88254810Y-97253235D01*
X88355410Y-97341779D01*
X88442216Y-97400277D01*
X88482471Y-97415856D01*
X88564468Y-97446577D01*
X88610439Y-97491372D01*
X88610489Y-97538924D01*
X88600869Y-97551249D01*
X88538104Y-97573852D01*
X88446260Y-97551787D01*
X88331880Y-97488372D01*
X88201505Y-97386927D01*
X88112630Y-97303515D01*
X87905369Y-97096253D01*
X87689991Y-97255970D01*
X87555992Y-97364452D01*
X87407269Y-97500099D01*
X87251949Y-97653905D01*
X87098164Y-97816863D01*
X86954043Y-97979967D01*
X86827716Y-98134210D01*
X86727313Y-98270587D01*
X86660964Y-98380092D01*
X86646844Y-98411553D01*
X86592726Y-98604407D01*
X86558674Y-98846453D01*
X86544708Y-99130582D01*
X86344137Y-99130582D01*
X86345435Y-99046749D01*
X86360807Y-98792567D01*
X86386368Y-98580697D01*
X86421441Y-98416474D01*
X86465351Y-98305233D01*
X86473612Y-98292024D01*
X86517028Y-98216540D01*
X86541539Y-98157553D01*
X86583496Y-98036067D01*
X86647989Y-97877661D01*
X86718698Y-97718597D01*
X86861473Y-97718597D01*
X86867297Y-97730029D01*
X86896763Y-97711490D01*
X86954722Y-97659308D01*
X87046023Y-97569812D01*
X87122037Y-97493435D01*
X87247870Y-97371073D01*
X87378364Y-97252112D01*
X87498692Y-97149608D01*
X87594030Y-97076619D01*
X87599759Y-97072698D01*
X87691320Y-97008929D01*
X87762143Y-96956190D01*
X87798555Y-96924721D01*
X87800076Y-96922682D01*
X87800974Y-96881862D01*
X87786211Y-96805296D01*
X87772046Y-96753435D01*
X87745647Y-96644061D01*
X87730240Y-96538340D01*
X87728612Y-96504643D01*
X87726737Y-96436382D01*
X87713692Y-96419494D01*
X87678350Y-96445590D01*
X87665555Y-96457098D01*
X87582861Y-96545414D01*
X87480537Y-96675595D01*
X87365980Y-96836204D01*
X87246585Y-97015801D01*
X87129747Y-97202946D01*
X87022861Y-97386200D01*
X86933322Y-97554123D01*
X86874442Y-97680866D01*
X86861473Y-97718597D01*
X86718698Y-97718597D01*
X86728111Y-97697423D01*
X86816955Y-97510442D01*
X86907612Y-97331808D01*
X86980895Y-97197873D01*
X87170530Y-96887307D01*
X87364536Y-96615335D01*
X87578311Y-96361812D01*
X87769201Y-96163907D01*
X87960349Y-96163907D01*
X88058140Y-96309083D01*
X88123335Y-96402024D01*
X88185316Y-96484173D01*
X88215479Y-96520491D01*
X88275027Y-96586723D01*
X88357275Y-96528158D01*
X88437725Y-96478211D01*
X88509833Y-96443583D01*
X88539254Y-96429836D01*
X88548463Y-96410921D01*
X88532447Y-96378321D01*
X88486191Y-96323516D01*
X88404678Y-96237987D01*
X88364587Y-96196857D01*
X88149031Y-95976142D01*
X88054690Y-96070024D01*
X87960349Y-96163907D01*
X87769201Y-96163907D01*
X87779601Y-96153125D01*
X88054707Y-95881874D01*
X87917782Y-95746650D01*
X88550377Y-95746650D01*
X88699789Y-95850471D01*
X88787689Y-95916708D01*
X88900922Y-96009240D01*
X89021532Y-96113162D01*
X89085610Y-96170784D01*
X89229587Y-96292845D01*
X89368292Y-96392656D01*
X89485515Y-96458587D01*
X89489022Y-96460135D01*
X89612768Y-96514108D01*
X89743257Y-96570997D01*
X89805436Y-96598094D01*
X89918498Y-96651381D01*
X90046546Y-96717488D01*
X90119200Y-96757759D01*
X90224011Y-96816721D01*
X90285340Y-96845790D01*
X90310805Y-96846070D01*
X90308023Y-96818666D01*
X90293057Y-96782965D01*
X90255856Y-96727883D01*
X90221915Y-96708259D01*
X90187498Y-96682964D01*
X90154659Y-96621638D01*
X90153071Y-96617209D01*
X90115321Y-96533058D01*
X90068766Y-96460654D01*
X90023816Y-96412956D01*
X89990881Y-96402923D01*
X89985349Y-96408434D01*
X89945835Y-96438097D01*
X89903178Y-96410559D01*
X89873343Y-96357142D01*
X89777779Y-96197544D01*
X89644088Y-96056931D01*
X89532234Y-95978419D01*
X89395253Y-95901859D01*
X89473344Y-96004242D01*
X89529833Y-96093364D01*
X89549897Y-96160441D01*
X89531756Y-96196511D01*
X89512312Y-96200259D01*
X89472362Y-96180726D01*
X89405171Y-96129507D01*
X89325256Y-96057672D01*
X89324934Y-96057362D01*
X89139655Y-95908990D01*
X88942948Y-95814114D01*
X88728874Y-95767262D01*
X88550377Y-95746650D01*
X87917782Y-95746650D01*
X87891659Y-95720852D01*
X87795182Y-95618688D01*
X87743948Y-95544079D01*
X87735071Y-95489151D01*
X87765666Y-95446024D01*
X87785810Y-95431856D01*
X87842513Y-95412794D01*
X87918381Y-95419778D01*
X88022237Y-95455270D01*
X88162905Y-95521733D01*
X88226243Y-95554770D01*
X88425764Y-95660716D01*
X88493067Y-95620558D01*
X88751733Y-95620558D01*
X88889638Y-95652554D01*
X88978879Y-95669241D01*
X89029764Y-95665314D01*
X89059795Y-95640443D01*
X89082648Y-95622683D01*
X89120500Y-95623665D01*
X89184515Y-95646524D01*
X89285854Y-95694396D01*
X89329211Y-95716127D01*
X89453355Y-95781204D01*
X89571684Y-95847270D01*
X89662980Y-95902378D01*
X89679763Y-95913500D01*
X89753252Y-95960079D01*
X89807384Y-95987757D01*
X89820009Y-95991083D01*
X89855384Y-96013052D01*
X89892984Y-96056920D01*
X89934269Y-96108023D01*
X90004691Y-96187649D01*
X90091580Y-96281613D01*
X90126531Y-96318390D01*
X90248435Y-96458832D01*
X90348694Y-96608020D01*
X90443687Y-96790447D01*
X90447198Y-96797906D01*
X90512686Y-96932304D01*
X90579240Y-97060309D01*
X90636922Y-97163162D01*
X90661884Y-97203138D01*
X90714937Y-97300256D01*
X90766670Y-97423996D01*
X90795880Y-97513473D01*
X90828324Y-97618816D01*
X90859968Y-97682405D01*
X90902215Y-97720989D01*
X90954458Y-97746423D01*
X91107071Y-97821565D01*
X91285957Y-97928976D01*
X91475254Y-98058540D01*
X91634132Y-98179850D01*
X91794038Y-98317590D01*
X91902074Y-98432042D01*
X91960312Y-98525655D01*
X91972562Y-98580519D01*
X91983803Y-98588404D01*
X92012035Y-98550116D01*
X92037767Y-98501200D01*
X92062494Y-98444358D01*
X92079889Y-98386089D01*
X92091118Y-98314887D01*
X92097353Y-98219246D01*
X92099760Y-98087660D01*
X92099510Y-97908622D01*
X92099425Y-97894286D01*
X92096191Y-97718123D01*
X92089227Y-97550095D01*
X92079426Y-97405174D01*
X92067681Y-97298330D01*
X92062020Y-97266757D01*
X92017256Y-97067615D01*
X91981930Y-96916279D01*
X91953198Y-96802064D01*
X91928214Y-96714286D01*
X91904134Y-96642262D01*
X91878112Y-96575308D01*
X91877487Y-96573789D01*
X91747953Y-96312720D01*
X91579626Y-96054852D01*
X91385383Y-95817162D01*
X91178103Y-95616628D01*
X91110323Y-95562472D01*
X90948543Y-95450579D01*
X90748561Y-95328481D01*
X90528284Y-95206561D01*
X90305617Y-95095200D01*
X90299344Y-95092251D01*
X90158091Y-95025981D01*
X90651260Y-95025981D01*
X90671740Y-95048460D01*
X90731006Y-95085942D01*
X90835249Y-95144431D01*
X90866259Y-95161498D01*
X91134969Y-95322144D01*
X91358504Y-95487573D01*
X91550249Y-95670829D01*
X91723588Y-95884954D01*
X91891907Y-96142989D01*
X91916981Y-96185318D01*
X92063899Y-96486771D01*
X92178339Y-96831047D01*
X92258186Y-97209493D01*
X92301324Y-97613453D01*
X92307922Y-97785068D01*
X92315553Y-98189523D01*
X92485803Y-98052620D01*
X92629594Y-97954307D01*
X92786120Y-97874523D01*
X92844391Y-97852242D01*
X92989678Y-97808253D01*
X93116282Y-97779250D01*
X93212434Y-97767304D01*
X93266364Y-97774485D01*
X93270092Y-97777347D01*
X93308957Y-97787165D01*
X93384060Y-97789471D01*
X93415388Y-97788137D01*
X93515635Y-97790942D01*
X93609109Y-97808184D01*
X93678146Y-97835066D01*
X93705083Y-97866791D01*
X93682602Y-97897876D01*
X93625851Y-97949072D01*
X93550867Y-98008225D01*
X93473685Y-98063181D01*
X93410341Y-98101786D01*
X93380592Y-98112730D01*
X93352356Y-98089898D01*
X93349309Y-98038180D01*
X93371143Y-97982743D01*
X93382353Y-97969294D01*
X93402917Y-97939725D01*
X93381393Y-97933436D01*
X93292336Y-97954453D01*
X93189137Y-98008621D01*
X93095227Y-98082610D01*
X93068112Y-98111643D01*
X92994234Y-98178117D01*
X92937400Y-98193955D01*
X92905951Y-98167647D01*
X92908228Y-98107684D01*
X92952571Y-98022559D01*
X92964733Y-98006400D01*
X93005635Y-97952019D01*
X93009769Y-97934245D01*
X92978316Y-97943518D01*
X92972203Y-97945996D01*
X92901479Y-97972561D01*
X92868377Y-97983420D01*
X92834309Y-98015084D01*
X92784926Y-98086751D01*
X92729866Y-98184118D01*
X92719655Y-98204148D01*
X92652177Y-98326508D01*
X92598655Y-98394230D01*
X92556168Y-98410005D01*
X92525543Y-98382986D01*
X92524693Y-98339214D01*
X92544874Y-98266929D01*
X92552137Y-98248516D01*
X92577429Y-98181300D01*
X92585732Y-98144800D01*
X92584179Y-98142612D01*
X92550018Y-98165198D01*
X92496241Y-98222641D01*
X92435463Y-98299471D01*
X92380299Y-98380214D01*
X92355966Y-98422512D01*
X92299106Y-98508088D01*
X92204671Y-98623330D01*
X92080945Y-98759578D01*
X91936211Y-98908175D01*
X91778754Y-99060462D01*
X91616858Y-99207779D01*
X91546083Y-99269023D01*
X91431927Y-99367790D01*
X91356577Y-99438998D01*
X91312166Y-99492417D01*
X91290831Y-99537823D01*
X91284706Y-99584987D01*
X91284612Y-99593935D01*
X91292985Y-99662243D01*
X91313523Y-99695790D01*
X91317360Y-99696494D01*
X91367025Y-99678406D01*
X91451050Y-99629496D01*
X91558385Y-99557800D01*
X91677982Y-99471353D01*
X91798791Y-99378191D01*
X91909762Y-99286347D01*
X91999846Y-99203859D01*
X92012950Y-99190665D01*
X92197354Y-99022478D01*
X92380099Y-98901961D01*
X92576290Y-98819417D01*
X92605333Y-98810445D01*
X92700903Y-98776521D01*
X92776339Y-98739964D01*
X92801520Y-98721738D01*
X92851692Y-98694583D01*
X92887793Y-98719804D01*
X92904911Y-98790720D01*
X92903335Y-98860265D01*
X92881671Y-98952740D01*
X92843235Y-99001095D01*
X92795648Y-98999501D01*
X92762644Y-98967865D01*
X92703286Y-98934009D01*
X92611397Y-98942865D01*
X92492933Y-98991428D01*
X92353852Y-99076689D01*
X92200112Y-99195641D01*
X92061553Y-99321776D01*
X91946321Y-99428174D01*
X91824875Y-99530983D01*
X91716301Y-99614387D01*
X91673083Y-99643696D01*
X91578760Y-99707188D01*
X91499811Y-99767211D01*
X91459689Y-99804185D01*
X91407243Y-99906582D01*
X91388416Y-100043409D01*
X91402098Y-100200457D01*
X91447181Y-100363515D01*
X91514337Y-100504764D01*
X91555553Y-100562822D01*
X91601873Y-100584720D01*
X91678831Y-100581618D01*
X91687692Y-100580548D01*
X91797650Y-100562193D01*
X91904241Y-100537361D01*
X91912142Y-100535097D01*
X91997015Y-100503259D01*
X92116458Y-100449748D01*
X92253462Y-100383078D01*
X92391014Y-100311761D01*
X92512105Y-100244311D01*
X92590727Y-100195469D01*
X92654315Y-100142709D01*
X92673475Y-100093193D01*
X92668721Y-100059066D01*
X92661859Y-100012024D01*
X92684143Y-99996584D01*
X92750122Y-100003026D01*
X92752135Y-100003334D01*
X92844250Y-100024419D01*
X92952953Y-100058521D01*
X92987906Y-100071508D01*
X93112821Y-100104929D01*
X93267981Y-100123703D01*
X93335481Y-100126140D01*
X93444601Y-100124377D01*
X93532078Y-100113049D01*
X93618794Y-100086649D01*
X93628755Y-100082269D01*
X93997872Y-100082269D01*
X94010775Y-100099157D01*
X94036749Y-100110418D01*
X94091580Y-100122486D01*
X94114658Y-100095889D01*
X94118416Y-100078396D01*
X94140378Y-100036022D01*
X94193122Y-100038017D01*
X94315077Y-100067868D01*
X94404789Y-100074443D01*
X94484922Y-100058069D01*
X94525107Y-100042794D01*
X94595007Y-100009068D01*
X94616974Y-99981506D01*
X94601867Y-99950872D01*
X94572390Y-99889919D01*
X94595475Y-99849147D01*
X94665825Y-99833757D01*
X94717552Y-99837270D01*
X94792362Y-99841567D01*
X94856462Y-99825991D01*
X94931434Y-99782990D01*
X94988423Y-99742493D01*
X95066721Y-99684127D01*
X95121303Y-99641738D01*
X95139436Y-99625536D01*
X95113585Y-99621473D01*
X95057259Y-99620611D01*
X94995265Y-99610439D01*
X94975338Y-99570537D01*
X94975083Y-99562024D01*
X94999671Y-99508236D01*
X95039197Y-99493119D01*
X95111042Y-99463816D01*
X95150736Y-99431576D01*
X95167070Y-99408041D01*
X95153614Y-99401106D01*
X95102266Y-99411704D01*
X95004925Y-99440768D01*
X94967092Y-99452735D01*
X94738289Y-99547925D01*
X94556730Y-99667171D01*
X94437585Y-99757433D01*
X94298470Y-99857951D01*
X94171220Y-99945801D01*
X94071736Y-100013375D01*
X94016072Y-100056270D01*
X93997872Y-100082269D01*
X93628755Y-100082269D01*
X93725636Y-100039669D01*
X93798658Y-100003998D01*
X93946869Y-99923115D01*
X94109094Y-99823262D01*
X94253708Y-99724064D01*
X94272847Y-99709755D01*
X94399021Y-99613983D01*
X94484362Y-99546708D01*
X94535036Y-99499504D01*
X94557207Y-99463949D01*
X94557041Y-99431619D01*
X94540702Y-99394089D01*
X94525306Y-99364808D01*
X94495504Y-99277998D01*
X94476772Y-99167072D01*
X94470807Y-99054561D01*
X94479306Y-98962997D01*
X94492336Y-98927024D01*
X94534910Y-98902741D01*
X94610800Y-98890158D01*
X94629464Y-98889671D01*
X94734470Y-98884448D01*
X94832753Y-98871798D01*
X94836877Y-98870994D01*
X94897949Y-98852662D01*
X94924326Y-98817283D01*
X94930243Y-98744390D01*
X94930259Y-98736721D01*
X94930259Y-98624352D01*
X95122931Y-98624352D01*
X95122950Y-98667459D01*
X95129493Y-98769386D01*
X95154629Y-98821214D01*
X95210335Y-98832243D01*
X95308586Y-98811772D01*
X95308744Y-98811729D01*
X95362902Y-98772566D01*
X95396955Y-98706478D01*
X95548334Y-98706478D01*
X95560647Y-98738206D01*
X95614531Y-98729764D01*
X95649802Y-98715747D01*
X95679573Y-98689127D01*
X95679942Y-98635946D01*
X95670510Y-98595041D01*
X95651111Y-98530560D01*
X95633595Y-98513287D01*
X95610026Y-98546052D01*
X95573284Y-98629735D01*
X95548334Y-98706478D01*
X95396955Y-98706478D01*
X95409351Y-98682423D01*
X95420803Y-98649640D01*
X95447871Y-98563848D01*
X95465004Y-98503705D01*
X95468142Y-98488115D01*
X95441927Y-98477104D01*
X95377282Y-98472390D01*
X95295206Y-98473937D01*
X95216695Y-98481708D01*
X95182715Y-98488603D01*
X95146776Y-98506754D01*
X95128610Y-98546730D01*
X95122931Y-98624352D01*
X94930259Y-98624352D01*
X94930259Y-98621124D01*
X94795106Y-98724289D01*
X94699665Y-98786559D01*
X94603722Y-98832733D01*
X94557651Y-98846646D01*
X94449860Y-98852556D01*
X94359154Y-98832141D01*
X94300946Y-98790768D01*
X94287789Y-98752710D01*
X94295195Y-98718967D01*
X94327190Y-98703908D01*
X94398434Y-98702858D01*
X94437200Y-98705052D01*
X94515393Y-98707282D01*
X94576216Y-98697084D01*
X94637387Y-98667045D01*
X94716626Y-98609752D01*
X94774196Y-98564042D01*
X94913676Y-98463710D01*
X95049036Y-98395891D01*
X95201562Y-98352295D01*
X95387582Y-98325147D01*
X95561022Y-98306965D01*
X95435883Y-98226078D01*
X95262842Y-98144674D01*
X95060650Y-98098920D01*
X94851188Y-98093358D01*
X94814217Y-98096998D01*
X94671050Y-98122407D01*
X94527955Y-98161893D01*
X94400393Y-98209795D01*
X94303827Y-98260454D01*
X94258321Y-98300500D01*
X94208658Y-98338245D01*
X94156628Y-98337013D01*
X94125335Y-98299763D01*
X94123436Y-98283229D01*
X94150380Y-98226195D01*
X94222534Y-98162216D01*
X94326883Y-98097818D01*
X94450410Y-98039527D01*
X94580098Y-97993868D01*
X94702930Y-97967366D01*
X94761574Y-97963318D01*
X94859111Y-97963318D01*
X94834792Y-97731730D01*
X94784934Y-97414920D01*
X94700387Y-97069318D01*
X94598305Y-96748466D01*
X94568899Y-96670224D01*
X94796755Y-96670224D01*
X94811899Y-96722224D01*
X94827350Y-96768024D01*
X94882050Y-96946619D01*
X94935189Y-97152887D01*
X94982107Y-97365731D01*
X95018147Y-97564053D01*
X95038417Y-97723928D01*
X95057917Y-97957751D01*
X95180853Y-97977316D01*
X95291102Y-98004846D01*
X95397763Y-98046227D01*
X95408377Y-98051571D01*
X95493087Y-98093601D01*
X95535745Y-98106203D01*
X95545940Y-98090031D01*
X95538394Y-98060436D01*
X95450379Y-97826584D01*
X95338286Y-97572800D01*
X95210361Y-97314949D01*
X95074845Y-97068893D01*
X94939983Y-96850499D01*
X94828022Y-96693318D01*
X94802107Y-96663092D01*
X94796755Y-96670224D01*
X94568899Y-96670224D01*
X94515416Y-96527926D01*
X94437427Y-96354925D01*
X94357919Y-96218321D01*
X94270475Y-96106969D01*
X94176722Y-96016582D01*
X94085241Y-95943419D01*
X93975135Y-95863336D01*
X93858796Y-95784374D01*
X93748618Y-95714573D01*
X93656994Y-95661974D01*
X93596315Y-95634618D01*
X93584743Y-95632494D01*
X93546927Y-95619071D01*
X93470144Y-95583071D01*
X93367694Y-95530902D01*
X93308858Y-95499601D01*
X93137970Y-95415487D01*
X92930769Y-95326083D01*
X92703712Y-95237404D01*
X92473255Y-95155460D01*
X92255855Y-95086265D01*
X92067970Y-95035832D01*
X91999705Y-95021289D01*
X91884711Y-95005695D01*
X91729529Y-94993322D01*
X91547874Y-94984373D01*
X91353460Y-94979051D01*
X91159999Y-94977560D01*
X90981207Y-94980105D01*
X90830797Y-94986888D01*
X90722482Y-94998114D01*
X90701906Y-95002005D01*
X90663378Y-95012497D01*
X90651260Y-95025981D01*
X90158091Y-95025981D01*
X90105958Y-95001523D01*
X89839745Y-95096750D01*
X89649163Y-95169574D01*
X89445828Y-95255162D01*
X89245839Y-95346107D01*
X89065297Y-95435002D01*
X88920299Y-95514441D01*
X88885220Y-95535903D01*
X88751733Y-95620558D01*
X88493067Y-95620558D01*
X88607600Y-95552220D01*
X88705522Y-95492230D01*
X88787198Y-95439400D01*
X88834798Y-95405280D01*
X88885803Y-95373616D01*
X88981026Y-95324604D01*
X89109260Y-95263250D01*
X89259295Y-95194560D01*
X89419923Y-95123538D01*
X89579937Y-95055190D01*
X89728126Y-94994522D01*
X89853283Y-94946539D01*
X89895083Y-94931782D01*
X90045971Y-94886483D01*
X90220807Y-94842959D01*
X90384178Y-94809942D01*
X90398967Y-94807483D01*
X90525786Y-94792460D01*
X90696322Y-94780069D01*
X90896613Y-94770566D01*
X91112698Y-94764207D01*
X91330614Y-94761247D01*
X91536400Y-94761943D01*
X91536400Y-94761943D01*
G37*
X91536400Y-94761943D02*
X91716095Y-94766549D01*
X91855735Y-94775322D01*
X91897200Y-94780049D01*
X91979953Y-94796324D01*
X92101518Y-94826355D01*
X92249601Y-94866465D01*
X92411905Y-94912979D01*
X92576137Y-94962222D01*
X92730000Y-95010519D01*
X92861199Y-95054195D01*
X92957439Y-95089573D01*
X93002847Y-95110546D01*
X93071132Y-95144268D01*
X93161383Y-95178904D01*
X93176425Y-95183825D01*
X93289545Y-95228919D01*
X93435062Y-95300387D01*
X93601164Y-95391015D01*
X93776037Y-95493587D01*
X93947870Y-95600888D01*
X94104851Y-95705703D01*
X94235166Y-95800816D01*
X94327005Y-95879012D01*
X94344714Y-95897450D01*
X94399248Y-95944263D01*
X94441064Y-95961200D01*
X94479505Y-95985453D01*
X94523199Y-96045134D01*
X94530330Y-96058318D01*
X94566102Y-96117110D01*
X94630074Y-96211805D01*
X94714161Y-96330817D01*
X94810279Y-96462558D01*
X94843607Y-96507315D01*
X95039803Y-96784560D01*
X95221070Y-97070114D01*
X95378412Y-97348792D01*
X95502832Y-97605408D01*
X95524775Y-97657108D01*
X95599155Y-97848868D01*
X95667190Y-98045090D01*
X95723960Y-98230030D01*
X95764549Y-98387947D01*
X95781266Y-98478092D01*
X95797450Y-98564431D01*
X95816878Y-98622948D01*
X95825937Y-98635181D01*
X95865783Y-98636470D01*
X95946507Y-98624954D01*
X96051204Y-98603097D01*
X96059132Y-98601210D01*
X96199939Y-98572810D01*
X96292501Y-98568977D01*
X96343764Y-98591347D01*
X96360673Y-98641554D01*
X96359143Y-98671844D01*
X96327582Y-98738790D01*
X96253236Y-98821756D01*
X96147175Y-98910844D01*
X96020468Y-98996160D01*
X95954965Y-99033184D01*
X95859083Y-99083937D01*
X95844612Y-99636745D01*
X95838967Y-99821579D01*
X95832218Y-99993860D01*
X95824958Y-100141412D01*
X95817774Y-100252058D01*
X95812009Y-100309083D01*
X95732696Y-100739095D01*
X95633011Y-101115579D01*
X95512011Y-101441525D01*
X95368757Y-101719922D01*
X95366953Y-101722898D01*
X95308227Y-101823537D01*
X95259478Y-101914119D01*
X95233940Y-101968758D01*
X95201393Y-102033191D01*
X95142449Y-102132448D01*
X95065987Y-102253111D01*
X94980888Y-102381761D01*
X94896033Y-102504980D01*
X94820300Y-102609349D01*
X94762571Y-102681452D01*
X94761464Y-102682693D01*
X94710126Y-102734062D01*
X94622004Y-102815989D01*
X94506059Y-102920569D01*
X94371251Y-103039899D01*
X94226543Y-103166076D01*
X94080895Y-103291197D01*
X93943269Y-103407359D01*
X93884377Y-103456222D01*
X93786327Y-103528072D01*
X93647784Y-103617705D01*
X93482315Y-103717428D01*
X93303488Y-103819544D01*
X93124870Y-103916358D01*
X92960030Y-104000177D01*
X92822535Y-104063304D01*
X92792132Y-104075696D01*
X92569509Y-104148510D01*
X92346086Y-104187942D01*
X92280343Y-104194115D01*
X92138634Y-104207203D01*
X91999571Y-104223059D01*
X91888676Y-104238709D01*
X91869590Y-104242012D01*
X91563048Y-104280222D01*
X91221491Y-104292148D01*
X90862075Y-104279164D01*
X90501956Y-104242643D01*
X90158288Y-104183958D01*
X89848226Y-104104484D01*
X89752101Y-104072469D01*
X89715107Y-104060356D01*
X90142955Y-104060356D01*
X90149083Y-104061379D01*
X90198460Y-104067137D01*
X90289242Y-104080232D01*
X90403896Y-104098104D01*
X90432965Y-104102811D01*
X90534762Y-104115042D01*
X90673527Y-104125646D01*
X90837652Y-104134374D01*
X91015530Y-104140980D01*
X91195553Y-104145215D01*
X91366115Y-104146831D01*
X91515608Y-104145581D01*
X91632423Y-104141217D01*
X91704955Y-104133491D01*
X91717025Y-104130227D01*
X91709625Y-104116140D01*
X91650922Y-104091309D01*
X91547904Y-104058190D01*
X91407557Y-104019239D01*
X91383293Y-104012935D01*
X91213831Y-103965415D01*
X91051607Y-103913766D01*
X91925576Y-103913766D01*
X91947440Y-103928287D01*
X92001789Y-103940968D01*
X92094288Y-103954663D01*
X92197355Y-103962831D01*
X92297674Y-103965566D01*
X92381924Y-103962964D01*
X92436789Y-103955119D01*
X92448951Y-103942125D01*
X92443327Y-103937828D01*
X92378811Y-103916409D01*
X92278029Y-103899105D01*
X92162414Y-103887740D01*
X92053400Y-103884140D01*
X91972418Y-103890131D01*
X91951850Y-103895977D01*
X91925576Y-103913766D01*
X91051607Y-103913766D01*
X91041056Y-103910407D01*
X90886024Y-103854973D01*
X90776612Y-103809412D01*
X90552494Y-103704442D01*
X90418024Y-103835381D01*
X90330164Y-103914269D01*
X90243675Y-103981277D01*
X90193906Y-104012635D01*
X90146511Y-104043283D01*
X90142955Y-104060356D01*
X89715107Y-104060356D01*
X89638502Y-104035274D01*
X89570533Y-104022173D01*
X89539765Y-104031784D01*
X89537026Y-104037173D01*
X89522233Y-104085552D01*
X89497768Y-104169086D01*
X89480610Y-104228794D01*
X89436185Y-104365947D01*
X89394324Y-104460018D01*
X89358274Y-104504168D01*
X89348678Y-104506645D01*
X89307608Y-104492359D01*
X89276200Y-104475936D01*
X89225085Y-104414207D01*
X89188207Y-104300733D01*
X89167207Y-104142189D01*
X89162837Y-104014494D01*
X89162508Y-103865083D01*
X89559831Y-103865083D01*
X89652751Y-103900162D01*
X89734713Y-103927023D01*
X89792673Y-103928603D01*
X89817301Y-103911622D01*
X89999671Y-103911622D01*
X90021964Y-103923214D01*
X90078994Y-103907213D01*
X90155986Y-103869496D01*
X90235930Y-103817604D01*
X90316679Y-103746225D01*
X90384288Y-103669669D01*
X90446661Y-103585305D01*
X90341937Y-103520582D01*
X90250056Y-103478677D01*
X90183643Y-103478321D01*
X90151030Y-103518739D01*
X90149083Y-103538570D01*
X90136233Y-103591484D01*
X90103231Y-103674934D01*
X90074377Y-103736198D01*
X90033104Y-103822843D01*
X90005973Y-103888377D01*
X89999671Y-103911622D01*
X89817301Y-103911622D01*
X89838222Y-103897198D01*
X89882953Y-103825105D01*
X89934936Y-103712621D01*
X89979461Y-103608234D01*
X90011131Y-103527432D01*
X90024876Y-103483412D01*
X90024583Y-103479182D01*
X90012792Y-103472299D01*
X90657964Y-103472299D01*
X90676877Y-103528266D01*
X90748078Y-103576060D01*
X90831075Y-103607904D01*
X90821570Y-103589758D01*
X90785636Y-103541119D01*
X90778781Y-103532347D01*
X90735539Y-103463844D01*
X90716432Y-103406854D01*
X90716390Y-103405347D01*
X90712687Y-103380118D01*
X90864485Y-103380118D01*
X90875621Y-103428337D01*
X90897263Y-103455990D01*
X90946998Y-103495593D01*
X91013740Y-103515150D01*
X91117716Y-103520272D01*
X91128894Y-103520221D01*
X91299553Y-103519007D01*
X91196094Y-103430574D01*
X91115857Y-103378401D01*
X91031261Y-103348232D01*
X90953622Y-103339103D01*
X90894258Y-103350053D01*
X90864485Y-103380118D01*
X90712687Y-103380118D01*
X90711698Y-103373385D01*
X90691202Y-103395421D01*
X90686965Y-103401906D01*
X90657964Y-103472299D01*
X90012792Y-103472299D01*
X89994953Y-103461886D01*
X89929399Y-103425313D01*
X89872877Y-103394234D01*
X89731142Y-103316697D01*
X89645486Y-103590890D01*
X89559831Y-103865083D01*
X89162508Y-103865083D01*
X89162376Y-103805318D01*
X88886259Y-103659123D01*
X88634503Y-103514597D01*
X88374480Y-103345166D01*
X88118752Y-103160385D01*
X87879884Y-102969808D01*
X87670440Y-102782988D01*
X87502984Y-102609481D01*
X87497308Y-102602920D01*
X87414059Y-102502884D01*
X87328561Y-102394659D01*
X87249197Y-102289564D01*
X87212879Y-102238796D01*
X87700497Y-102238796D01*
X87717961Y-102480419D01*
X87736768Y-102679520D01*
X87946458Y-102852025D01*
X88294938Y-103123407D01*
X88631485Y-103355192D01*
X88864142Y-103495494D01*
X88992297Y-103566897D01*
X89077512Y-103611486D01*
X89128551Y-103632420D01*
X89154176Y-103632857D01*
X89163153Y-103615957D01*
X89164094Y-103603612D01*
X89173477Y-103492882D01*
X89194502Y-103341775D01*
X89224157Y-103167854D01*
X89259432Y-102988682D01*
X89297316Y-102821823D01*
X89299923Y-102811315D01*
X89316134Y-102732754D01*
X89323292Y-102652610D01*
X89321198Y-102555858D01*
X89309655Y-102427472D01*
X89293041Y-102288374D01*
X89268909Y-102035939D01*
X89258521Y-101783326D01*
X89260851Y-101610072D01*
X89392278Y-101610072D01*
X89393537Y-101768406D01*
X89400498Y-101947665D01*
X89412124Y-102128681D01*
X89427379Y-102292289D01*
X89445227Y-102419322D01*
X89448921Y-102438200D01*
X89470208Y-102504813D01*
X89510225Y-102531188D01*
X89571072Y-102535318D01*
X89713633Y-102559482D01*
X89859834Y-102625164D01*
X89933368Y-102676165D01*
X90001536Y-102731217D01*
X89907720Y-102918959D01*
X89859592Y-103017750D01*
X89836498Y-103077804D01*
X89836061Y-103113488D01*
X89855902Y-103139173D01*
X89869434Y-103150220D01*
X89944664Y-103206822D01*
X89988868Y-103226772D01*
X90008994Y-103204083D01*
X90011991Y-103132762D01*
X90006435Y-103032118D01*
X90000594Y-102918020D01*
X90004406Y-102843919D01*
X90022800Y-102790234D01*
X90060704Y-102737384D01*
X90088814Y-102704811D01*
X90150226Y-102640829D01*
X90198266Y-102601286D01*
X90212881Y-102595083D01*
X90250306Y-102617324D01*
X90256753Y-102670294D01*
X90231808Y-102733363D01*
X90216062Y-102753485D01*
X90157573Y-102835585D01*
X90132137Y-102927324D01*
X90136668Y-103046265D01*
X90150352Y-103127296D01*
X90172095Y-103226102D01*
X90198212Y-103285729D01*
X90243767Y-103325801D01*
X90323827Y-103365940D01*
X90338815Y-103372758D01*
X90425716Y-103412621D01*
X90488540Y-103442225D01*
X90509071Y-103452607D01*
X90533736Y-103438508D01*
X90561816Y-103378444D01*
X90589925Y-103285827D01*
X90614679Y-103174068D01*
X90632692Y-103056578D01*
X90640577Y-102946769D01*
X90640675Y-102931259D01*
X90642015Y-102818003D01*
X90649245Y-102752260D01*
X90665252Y-102721856D01*
X90692057Y-102714612D01*
X90738329Y-102741595D01*
X90772085Y-102812271D01*
X90789691Y-102911234D01*
X90787510Y-103023075D01*
X90777949Y-103078644D01*
X90754677Y-103187163D01*
X90748585Y-103247198D01*
X90761279Y-103267967D01*
X90794362Y-103258686D01*
X90808070Y-103251651D01*
X90920763Y-103218761D01*
X91046532Y-103224470D01*
X91171489Y-103262344D01*
X91281745Y-103325950D01*
X91363411Y-103408853D01*
X91402598Y-103504621D01*
X91404142Y-103527766D01*
X91379782Y-103603598D01*
X91305907Y-103649821D01*
X91181318Y-103666934D01*
X91080241Y-103663319D01*
X91000362Y-103659909D01*
X90958977Y-103664313D01*
X90960711Y-103672412D01*
X91007994Y-103690705D01*
X91097343Y-103719470D01*
X91214108Y-103754556D01*
X91343644Y-103791812D01*
X91471301Y-103827090D01*
X91582432Y-103856239D01*
X91662389Y-103875109D01*
X91693503Y-103880024D01*
X91743653Y-103863311D01*
X91813342Y-103822157D01*
X91826456Y-103812789D01*
X91890253Y-103774432D01*
X91961802Y-103755299D01*
X92062761Y-103750782D01*
X92112612Y-103751916D01*
X92234636Y-103761845D01*
X92360459Y-103781774D01*
X92476128Y-103808219D01*
X92567684Y-103837699D01*
X92621174Y-103866730D01*
X92629318Y-103880859D01*
X92633823Y-103900846D01*
X92653698Y-103905753D01*
X92698487Y-103892802D01*
X92777732Y-103859215D01*
X92900975Y-103802214D01*
X92903413Y-103801070D01*
X93135338Y-103692234D01*
X93074492Y-103606783D01*
X93026911Y-103511353D01*
X93028599Y-103492836D01*
X93159491Y-103492836D01*
X93186567Y-103526326D01*
X93251369Y-103573940D01*
X93308256Y-103573574D01*
X93331726Y-103551038D01*
X93368269Y-103518932D01*
X93436552Y-103475825D01*
X93460490Y-103462712D01*
X93570612Y-103404548D01*
X93430077Y-103403227D01*
X93326926Y-103409879D01*
X93236412Y-103428140D01*
X93213224Y-103436679D01*
X93161691Y-103465014D01*
X93159491Y-103492836D01*
X93028599Y-103492836D01*
X93034311Y-103430187D01*
X93098536Y-103357268D01*
X93163620Y-103315794D01*
X93236431Y-103278893D01*
X93298649Y-103260198D01*
X93371422Y-103257060D01*
X93475894Y-103266828D01*
X93515341Y-103271723D01*
X93736171Y-103299721D01*
X93916629Y-103149108D01*
X94097088Y-102998494D01*
X93714321Y-102979186D01*
X93297605Y-102950750D01*
X92903681Y-102909214D01*
X92539309Y-102855798D01*
X92211253Y-102791717D01*
X91926278Y-102718190D01*
X91691144Y-102636433D01*
X91609877Y-102600414D01*
X91503417Y-102552880D01*
X91434007Y-102532620D01*
X91387349Y-102536328D01*
X91369987Y-102544921D01*
X91321352Y-102562774D01*
X91286476Y-102541044D01*
X91261389Y-102473282D01*
X91244936Y-102370609D01*
X91511378Y-102370609D01*
X91535572Y-102410249D01*
X91561759Y-102428988D01*
X91680135Y-102490476D01*
X91846251Y-102554132D01*
X92048346Y-102616497D01*
X92274660Y-102674111D01*
X92513434Y-102723515D01*
X92631909Y-102743756D01*
X92819652Y-102770444D01*
X93027871Y-102795004D01*
X93242914Y-102816307D01*
X93451132Y-102833222D01*
X93638872Y-102844619D01*
X93792483Y-102849368D01*
X93884377Y-102847445D01*
X94007788Y-102840445D01*
X94125761Y-102835680D01*
X94193259Y-102834354D01*
X94258449Y-102828647D01*
X94315624Y-102805593D01*
X94380297Y-102755877D01*
X94467979Y-102670185D01*
X94469854Y-102668265D01*
X94570788Y-102559207D01*
X94674247Y-102438430D01*
X94750705Y-102341435D01*
X94822510Y-102235417D01*
X94911115Y-102091540D01*
X95007470Y-101925829D01*
X95102528Y-101754312D01*
X95187238Y-101593015D01*
X95252553Y-101457963D01*
X95263436Y-101433330D01*
X95319873Y-101302519D01*
X95252066Y-101345810D01*
X95040363Y-101475906D01*
X94851675Y-101579374D01*
X94663260Y-101668037D01*
X94511906Y-101730568D01*
X94374046Y-101783740D01*
X94267972Y-101819278D01*
X94173861Y-101841008D01*
X94071890Y-101852762D01*
X93942235Y-101858366D01*
X93839553Y-101860426D01*
X93602709Y-101860418D01*
X93403846Y-101849586D01*
X93221713Y-101825074D01*
X93035060Y-101784026D01*
X92823553Y-101723866D01*
X92644020Y-101661457D01*
X92434564Y-101576838D01*
X92215392Y-101479143D01*
X92006711Y-101377504D01*
X91828727Y-101281054D01*
X91782443Y-101253326D01*
X91674274Y-101186474D01*
X91713404Y-101300602D01*
X91753586Y-101495591D01*
X91754049Y-101714926D01*
X91716184Y-101939573D01*
X91653187Y-102124436D01*
X91618094Y-102194412D01*
X91589691Y-102233519D01*
X91583694Y-102236494D01*
X91557679Y-102260504D01*
X91529203Y-102310993D01*
X91511378Y-102370609D01*
X91244936Y-102370609D01*
X91242120Y-102353040D01*
X91239880Y-102333612D01*
X91230389Y-102230699D01*
X91232334Y-102173919D01*
X91247611Y-102150404D01*
X91267377Y-102146847D01*
X91313640Y-102171501D01*
X91351811Y-102225936D01*
X91387846Y-102305024D01*
X91420278Y-102173641D01*
X91437174Y-102066132D01*
X91425922Y-101964876D01*
X91407956Y-101900866D01*
X91386158Y-101815154D01*
X91380317Y-101753755D01*
X91385105Y-101737570D01*
X91426636Y-101730766D01*
X91477352Y-101767249D01*
X91523815Y-101834993D01*
X91541489Y-101877538D01*
X91564091Y-101940285D01*
X91577637Y-101950657D01*
X91591021Y-101913287D01*
X91593376Y-101904555D01*
X91609271Y-101821525D01*
X91603004Y-101749181D01*
X91569463Y-101669292D01*
X91503542Y-101563630D01*
X91493789Y-101549200D01*
X91434594Y-101457867D01*
X91391844Y-101383965D01*
X91374317Y-101342733D01*
X91374259Y-101341663D01*
X91394326Y-101311395D01*
X91442830Y-101314253D01*
X91502230Y-101345183D01*
X91550114Y-101392318D01*
X91593539Y-101442028D01*
X91611647Y-101443176D01*
X91605561Y-101400803D01*
X91576400Y-101319945D01*
X91525287Y-101205642D01*
X91494690Y-101143176D01*
X91433484Y-101001915D01*
X91367472Y-100816846D01*
X91344579Y-100743204D01*
X91550105Y-100743204D01*
X91552824Y-100769887D01*
X91554083Y-100772259D01*
X91622516Y-100865305D01*
X91730445Y-100962498D01*
X91882630Y-101067205D01*
X92083829Y-101182790D01*
X92270730Y-101279128D01*
X92424394Y-101354356D01*
X92547826Y-101410781D01*
X92661769Y-101456600D01*
X92786968Y-101500007D01*
X92944168Y-101549197D01*
X92987906Y-101562455D01*
X93309788Y-101631905D01*
X93654344Y-101655597D01*
X94005211Y-101633032D01*
X94200263Y-101599598D01*
X94345300Y-101561290D01*
X94502133Y-101508644D01*
X94605913Y-101466523D01*
X94733081Y-101404431D01*
X94883700Y-101324124D01*
X95042621Y-101234394D01*
X95194692Y-101144034D01*
X95324762Y-101061837D01*
X95417681Y-100996594D01*
X95423318Y-100992162D01*
X95490350Y-100938753D01*
X95539629Y-100899445D01*
X95544809Y-100895306D01*
X95569368Y-100848409D01*
X95595389Y-100751948D01*
X95621675Y-100616065D01*
X95647027Y-100450899D01*
X95670248Y-100266593D01*
X95690139Y-100073288D01*
X95705503Y-99881126D01*
X95715141Y-99700246D01*
X95717856Y-99540791D01*
X95715277Y-99452273D01*
X95699298Y-99163228D01*
X95576249Y-99223853D01*
X95483347Y-99285037D01*
X95404407Y-99362270D01*
X95389109Y-99383235D01*
X95349844Y-99447199D01*
X95342912Y-99478199D01*
X95367222Y-99492816D01*
X95381638Y-99496799D01*
X95428422Y-99522772D01*
X95438259Y-99542942D01*
X95415799Y-99572983D01*
X95355165Y-99629285D01*
X95266472Y-99702900D01*
X95191730Y-99760987D01*
X95088121Y-99841014D01*
X95003843Y-99909048D01*
X94949490Y-99956366D01*
X94934888Y-99972562D01*
X94898537Y-100006178D01*
X94821423Y-100051150D01*
X94719631Y-100100396D01*
X94609249Y-100146835D01*
X94506362Y-100183384D01*
X94427057Y-100202962D01*
X94408064Y-100204494D01*
X94330662Y-100214645D01*
X94302731Y-100243063D01*
X94302730Y-100243342D01*
X94283168Y-100307760D01*
X94226602Y-100327064D01*
X94136214Y-100300376D01*
X94121648Y-100293229D01*
X94070931Y-100270468D01*
X94016416Y-100255413D01*
X93946292Y-100247166D01*
X93848745Y-100244829D01*
X93711963Y-100247504D01*
X93580655Y-100252102D01*
X93389940Y-100257617D01*
X93246430Y-100257106D01*
X93137809Y-100249945D01*
X93051763Y-100235510D01*
X93005345Y-100222943D01*
X92917374Y-100197758D01*
X92861240Y-100194305D01*
X92811740Y-100216467D01*
X92751345Y-100262065D01*
X92628690Y-100346015D01*
X92472557Y-100433866D01*
X92296795Y-100519701D01*
X92115251Y-100597602D01*
X91941773Y-100661653D01*
X91790210Y-100705937D01*
X91674410Y-100724537D01*
X91668584Y-100724713D01*
X91585026Y-100729667D01*
X91550105Y-100743204D01*
X91344579Y-100743204D01*
X91301059Y-100603212D01*
X91238649Y-100376254D01*
X91184647Y-100151215D01*
X91143459Y-99943339D01*
X91137443Y-99907026D01*
X91104405Y-99774672D01*
X91055290Y-99669716D01*
X90996745Y-99601907D01*
X90935415Y-99580995D01*
X90918002Y-99585116D01*
X90893498Y-99624738D01*
X90883837Y-99712605D01*
X90888204Y-99839285D01*
X90905781Y-99995347D01*
X90935754Y-100171358D01*
X90977306Y-100357888D01*
X90988708Y-100402401D01*
X91041301Y-100636850D01*
X91063813Y-100832892D01*
X91056770Y-101003451D01*
X91020699Y-101161453D01*
X91019730Y-101164436D01*
X90998522Y-101260985D01*
X90993750Y-101351598D01*
X90993758Y-101351701D01*
X90987480Y-101424729D01*
X90952142Y-101446708D01*
X90886858Y-101417722D01*
X90823615Y-101367811D01*
X90759434Y-101305484D01*
X90737692Y-101263808D01*
X90750887Y-101230427D01*
X90798448Y-101201225D01*
X90823933Y-101202377D01*
X90865538Y-101192665D01*
X90896121Y-101134324D01*
X90915120Y-101037564D01*
X90921971Y-100912599D01*
X90916112Y-100769640D01*
X90896978Y-100618899D01*
X90864238Y-100471415D01*
X90833998Y-100340143D01*
X90805244Y-100176388D01*
X90782492Y-100007354D01*
X90775304Y-99935553D01*
X90762595Y-99795584D01*
X90750298Y-99701333D01*
X90733700Y-99638975D01*
X90708084Y-99594683D01*
X90668738Y-99554632D01*
X90635697Y-99526136D01*
X90621936Y-99517200D01*
X91135200Y-99517200D01*
X91146134Y-99541797D01*
X91155122Y-99537122D01*
X91158698Y-99501659D01*
X91155122Y-99497279D01*
X91137357Y-99501381D01*
X91135200Y-99517200D01*
X90621936Y-99517200D01*
X90532875Y-99459371D01*
X90403969Y-99404511D01*
X90268125Y-99366910D01*
X90144492Y-99351919D01*
X90055001Y-99363794D01*
X89986774Y-99415641D01*
X89930743Y-99516619D01*
X89885485Y-99670199D01*
X89852568Y-99857844D01*
X89829570Y-100063957D01*
X89820644Y-100243643D01*
X89825347Y-100389871D01*
X89843239Y-100495615D01*
X89873879Y-100553845D01*
X89896804Y-100563083D01*
X89947422Y-100583062D01*
X89955152Y-100631660D01*
X89926507Y-100680908D01*
X89895385Y-100722548D01*
X89913102Y-100742903D01*
X89948634Y-100753088D01*
X90024333Y-100801346D01*
X90079013Y-100896804D01*
X90109119Y-101029502D01*
X90111091Y-101189484D01*
X90109821Y-101204312D01*
X90082910Y-101374627D01*
X90034890Y-101499608D01*
X89959593Y-101591790D01*
X89896440Y-101638008D01*
X89776498Y-101686383D01*
X89670834Y-101678940D01*
X89585046Y-101618993D01*
X89524732Y-101509855D01*
X89512970Y-101458593D01*
X89760612Y-101458593D01*
X89764708Y-101526143D01*
X89785897Y-101544471D01*
X89837535Y-101519474D01*
X89862356Y-101503492D01*
X89913083Y-101448836D01*
X89951713Y-101353641D01*
X89970133Y-101278635D01*
X89990805Y-101160601D01*
X89990052Y-101095243D01*
X89966410Y-101078906D01*
X89918418Y-101107933D01*
X89906083Y-101118580D01*
X89828624Y-101219333D01*
X89776163Y-101349158D01*
X89760612Y-101458593D01*
X89512970Y-101458593D01*
X89500338Y-101403544D01*
X89481688Y-101319025D01*
X89458493Y-101290815D01*
X89434152Y-101315987D01*
X89412065Y-101391616D01*
X89397756Y-101491829D01*
X89392278Y-101610072D01*
X89260851Y-101610072D01*
X89260866Y-101608965D01*
X89277483Y-101403489D01*
X89306289Y-101262828D01*
X89613559Y-101262828D01*
X89619054Y-101301586D01*
X89629254Y-101302048D01*
X89636388Y-101262054D01*
X89631613Y-101244774D01*
X89618345Y-101233455D01*
X89613559Y-101262828D01*
X89306289Y-101262828D01*
X89311098Y-101239350D01*
X89318795Y-101220494D01*
X89461789Y-101220494D01*
X89472722Y-101245091D01*
X89481710Y-101240416D01*
X89485286Y-101204953D01*
X89481710Y-101200573D01*
X89463945Y-101204675D01*
X89461789Y-101220494D01*
X89318795Y-101220494D01*
X89344188Y-101158293D01*
X89641083Y-101158293D01*
X89660051Y-101154312D01*
X89709881Y-101115591D01*
X89779962Y-101050419D01*
X89783024Y-101047391D01*
X89850290Y-100975465D01*
X89891418Y-100920882D01*
X89897726Y-100895209D01*
X89897374Y-100895042D01*
X89864387Y-100908884D01*
X89808631Y-100954838D01*
X89744451Y-101018170D01*
X89686189Y-101084148D01*
X89648190Y-101138037D01*
X89641083Y-101158293D01*
X89344188Y-101158293D01*
X89368387Y-101099019D01*
X89456025Y-100964964D01*
X89547678Y-100855780D01*
X89685906Y-100702036D01*
X89689568Y-100326265D01*
X89692682Y-100169849D01*
X89698432Y-100023866D01*
X89705988Y-99904915D01*
X89714278Y-99830965D01*
X89749376Y-99648120D01*
X89782915Y-99512214D01*
X89818475Y-99410641D01*
X89853284Y-99341338D01*
X89912775Y-99240181D01*
X89785669Y-99260506D01*
X89680270Y-99283694D01*
X89571059Y-99322428D01*
X89447898Y-99381737D01*
X89300650Y-99466647D01*
X89119176Y-99582184D01*
X89065665Y-99617509D01*
X88710626Y-99876629D01*
X88412211Y-100146963D01*
X88168450Y-100432694D01*
X87977373Y-100738008D01*
X87837009Y-101067091D01*
X87745388Y-101424126D01*
X87700541Y-101813300D01*
X87700497Y-102238796D01*
X87212879Y-102238796D01*
X87184350Y-102198917D01*
X87142402Y-102134037D01*
X87130965Y-102108292D01*
X87116217Y-102077287D01*
X87076683Y-102007910D01*
X87019429Y-101912358D01*
X86985919Y-101857861D01*
X86861828Y-101652384D01*
X86763767Y-101474564D01*
X86685638Y-101309038D01*
X86621345Y-101140448D01*
X86564793Y-100953431D01*
X86509884Y-100732627D01*
X86472051Y-100563083D01*
X86421122Y-100313874D01*
X86384874Y-100096456D01*
X86361035Y-99889593D01*
X86347331Y-99672045D01*
X86341491Y-99422575D01*
X86340930Y-99337906D01*
X86344137Y-99130582D01*
X86544708Y-99130582D01*
X86550846Y-99449683D01*
X86577110Y-99796646D01*
X86623520Y-100164360D01*
X86641628Y-100279200D01*
X86689802Y-100550347D01*
X86740505Y-100783051D01*
X86798815Y-100989949D01*
X86869811Y-101183678D01*
X86958571Y-101376875D01*
X87070176Y-101582178D01*
X87209703Y-101812223D01*
X87338193Y-102012377D01*
X87474612Y-102221553D01*
X87493384Y-101848024D01*
X87503958Y-101681921D01*
X87518317Y-101516368D01*
X87534461Y-101372029D01*
X87548316Y-101280259D01*
X87636991Y-100961840D01*
X87783012Y-100645290D01*
X87983997Y-100334542D01*
X88237563Y-100033528D01*
X88403452Y-99868986D01*
X88507651Y-99778020D01*
X88637576Y-99673928D01*
X88782481Y-99564327D01*
X88931619Y-99456834D01*
X89074242Y-99359068D01*
X89199604Y-99278647D01*
X89296959Y-99223189D01*
X89342458Y-99203373D01*
X89383709Y-99175067D01*
X89374491Y-99144722D01*
X89321138Y-99128880D01*
X89313876Y-99128730D01*
X89225588Y-99109476D01*
X89109595Y-99058111D01*
X88981004Y-98984228D01*
X88854917Y-98897418D01*
X88746441Y-98807277D01*
X88670680Y-98723395D01*
X88666858Y-98717805D01*
X88627336Y-98651996D01*
X88572083Y-98551922D01*
X88511730Y-98436952D01*
X88499407Y-98412736D01*
X88438527Y-98283522D01*
X88412798Y-98199697D01*
X88424719Y-98156594D01*
X88476789Y-98149547D01*
X88571506Y-98173888D01*
X88618574Y-98190171D01*
X88724334Y-98236729D01*
X88787317Y-98281902D01*
X88804283Y-98319922D01*
X88771993Y-98345024D01*
X88709450Y-98351927D01*
X88610142Y-98352065D01*
X88706441Y-98442324D01*
X88833893Y-98525125D01*
X88939409Y-98558115D01*
X89038147Y-98579550D01*
X89088377Y-98601776D01*
X89100939Y-98632627D01*
X89091454Y-98668004D01*
X89066833Y-98698763D01*
X89014959Y-98706532D01*
X88945821Y-98699161D01*
X88819318Y-98680466D01*
X88907337Y-98758778D01*
X88957214Y-98799184D01*
X89004472Y-98820737D01*
X89067597Y-98827011D01*
X89165071Y-98821580D01*
X89211232Y-98817529D01*
X89339810Y-98809887D01*
X89417074Y-98815654D01*
X89449013Y-98833411D01*
X89446643Y-98875888D01*
X89401889Y-98916808D01*
X89331270Y-98944495D01*
X89284254Y-98949893D01*
X89235282Y-98954450D01*
X89240195Y-98970616D01*
X89252612Y-98979318D01*
X89306357Y-98995604D01*
X89396232Y-99006319D01*
X89463771Y-99008743D01*
X89575211Y-99011614D01*
X89684829Y-99020940D01*
X89801294Y-99038737D01*
X89933274Y-99067024D01*
X90089439Y-99107818D01*
X90278457Y-99163137D01*
X90508996Y-99234998D01*
X90701906Y-99296932D01*
X90851313Y-99343632D01*
X90956631Y-99371646D01*
X91029782Y-99383133D01*
X91082687Y-99380251D01*
X91112789Y-99371339D01*
X91171702Y-99335159D01*
X91194965Y-99295810D01*
X91168221Y-99260454D01*
X91094787Y-99211493D01*
X90984861Y-99153641D01*
X90848643Y-99091612D01*
X90696330Y-99030119D01*
X90538120Y-98973876D01*
X90419291Y-98937281D01*
X90232859Y-98879309D01*
X90088424Y-98820468D01*
X89968783Y-98751701D01*
X89856733Y-98663953D01*
X89798568Y-98610501D01*
X89721764Y-98543580D01*
X89655586Y-98496816D01*
X89624006Y-98482872D01*
X89562693Y-98459128D01*
X89551446Y-98419853D01*
X89585959Y-98374325D01*
X89661928Y-98331825D01*
X89700227Y-98318562D01*
X89785676Y-98298193D01*
X89835914Y-98302691D01*
X89858689Y-98318901D01*
X89876913Y-98355857D01*
X89843692Y-98393772D01*
X89842361Y-98394760D01*
X89815249Y-98421085D01*
X89818422Y-98449702D01*
X89857801Y-98494355D01*
X89903425Y-98536507D01*
X90049736Y-98646346D01*
X90225839Y-98734699D01*
X90444697Y-98807708D01*
X90514347Y-98825973D01*
X90654468Y-98868466D01*
X90815762Y-98928559D01*
X90967309Y-98994558D01*
X90992510Y-99006830D01*
X91240131Y-99130076D01*
X91374431Y-99084068D01*
X91493840Y-99023461D01*
X91620144Y-98928447D01*
X91732125Y-98817325D01*
X91807425Y-98710625D01*
X91830562Y-98656364D01*
X91828398Y-98611281D01*
X91796285Y-98553307D01*
X91764929Y-98508979D01*
X91639402Y-98367697D01*
X91461237Y-98218831D01*
X91239789Y-98067647D01*
X91096470Y-97980196D01*
X90993184Y-97925738D01*
X90922122Y-97901444D01*
X90875482Y-97904481D01*
X90849476Y-97926067D01*
X90806284Y-97956816D01*
X90767432Y-97931860D01*
X90737486Y-97855257D01*
X90730502Y-97820329D01*
X90668422Y-97556027D01*
X90576612Y-97338741D01*
X90451366Y-97161683D01*
X90294599Y-97022078D01*
X90158633Y-96934185D01*
X89986740Y-96837341D01*
X89799442Y-96742220D01*
X89617262Y-96659495D01*
X89529561Y-96624234D01*
X89373215Y-96564997D01*
X89310313Y-96666775D01*
X89252605Y-96735195D01*
X89168620Y-96807365D01*
X89076880Y-96870028D01*
X88995905Y-96909932D01*
X88960069Y-96917436D01*
X88937178Y-96906797D01*
X88901397Y-96870346D01*
X88847220Y-96801278D01*
X88769143Y-96692789D01*
X88711598Y-96610363D01*
X88675730Y-96604836D01*
X88607204Y-96621995D01*
X88577127Y-96633641D01*
X88460730Y-96682980D01*
X88646844Y-96768187D01*
X88754355Y-96822314D01*
X88823384Y-96873710D01*
X88872206Y-96938361D01*
X88898480Y-96988259D01*
X88936190Y-97075444D01*
X88944714Y-97129533D01*
X88926828Y-97167915D01*
X88873969Y-97198313D01*
X88825730Y-97180124D01*
X88804379Y-97121858D01*
X88804377Y-97121116D01*
X88777255Y-97045306D01*
X88704233Y-96967251D01*
X88597824Y-96897343D01*
X88474431Y-96847112D01*
X88299372Y-96765887D01*
X88135643Y-96632495D01*
X87992318Y-96454491D01*
X87980105Y-96435552D01*
X87897464Y-96304847D01*
X87874128Y-96391732D01*
X87866128Y-96502769D01*
X87887373Y-96644392D01*
X87933671Y-96797649D01*
X87993024Y-96929358D01*
X88061340Y-97034821D01*
X88152694Y-97146848D01*
X88254810Y-97253235D01*
X88355410Y-97341779D01*
X88442216Y-97400277D01*
X88482471Y-97415856D01*
X88564468Y-97446577D01*
X88610439Y-97491372D01*
X88610489Y-97538924D01*
X88600869Y-97551249D01*
X88538104Y-97573852D01*
X88446260Y-97551787D01*
X88331880Y-97488372D01*
X88201505Y-97386927D01*
X88112630Y-97303515D01*
X87905369Y-97096253D01*
X87689991Y-97255970D01*
X87555992Y-97364452D01*
X87407269Y-97500099D01*
X87251949Y-97653905D01*
X87098164Y-97816863D01*
X86954043Y-97979967D01*
X86827716Y-98134210D01*
X86727313Y-98270587D01*
X86660964Y-98380092D01*
X86646844Y-98411553D01*
X86592726Y-98604407D01*
X86558674Y-98846453D01*
X86544708Y-99130582D01*
X86344137Y-99130582D01*
X86345435Y-99046749D01*
X86360807Y-98792567D01*
X86386368Y-98580697D01*
X86421441Y-98416474D01*
X86465351Y-98305233D01*
X86473612Y-98292024D01*
X86517028Y-98216540D01*
X86541539Y-98157553D01*
X86583496Y-98036067D01*
X86647989Y-97877661D01*
X86718698Y-97718597D01*
X86861473Y-97718597D01*
X86867297Y-97730029D01*
X86896763Y-97711490D01*
X86954722Y-97659308D01*
X87046023Y-97569812D01*
X87122037Y-97493435D01*
X87247870Y-97371073D01*
X87378364Y-97252112D01*
X87498692Y-97149608D01*
X87594030Y-97076619D01*
X87599759Y-97072698D01*
X87691320Y-97008929D01*
X87762143Y-96956190D01*
X87798555Y-96924721D01*
X87800076Y-96922682D01*
X87800974Y-96881862D01*
X87786211Y-96805296D01*
X87772046Y-96753435D01*
X87745647Y-96644061D01*
X87730240Y-96538340D01*
X87728612Y-96504643D01*
X87726737Y-96436382D01*
X87713692Y-96419494D01*
X87678350Y-96445590D01*
X87665555Y-96457098D01*
X87582861Y-96545414D01*
X87480537Y-96675595D01*
X87365980Y-96836204D01*
X87246585Y-97015801D01*
X87129747Y-97202946D01*
X87022861Y-97386200D01*
X86933322Y-97554123D01*
X86874442Y-97680866D01*
X86861473Y-97718597D01*
X86718698Y-97718597D01*
X86728111Y-97697423D01*
X86816955Y-97510442D01*
X86907612Y-97331808D01*
X86980895Y-97197873D01*
X87170530Y-96887307D01*
X87364536Y-96615335D01*
X87578311Y-96361812D01*
X87769201Y-96163907D01*
X87960349Y-96163907D01*
X88058140Y-96309083D01*
X88123335Y-96402024D01*
X88185316Y-96484173D01*
X88215479Y-96520491D01*
X88275027Y-96586723D01*
X88357275Y-96528158D01*
X88437725Y-96478211D01*
X88509833Y-96443583D01*
X88539254Y-96429836D01*
X88548463Y-96410921D01*
X88532447Y-96378321D01*
X88486191Y-96323516D01*
X88404678Y-96237987D01*
X88364587Y-96196857D01*
X88149031Y-95976142D01*
X88054690Y-96070024D01*
X87960349Y-96163907D01*
X87769201Y-96163907D01*
X87779601Y-96153125D01*
X88054707Y-95881874D01*
X87917782Y-95746650D01*
X88550377Y-95746650D01*
X88699789Y-95850471D01*
X88787689Y-95916708D01*
X88900922Y-96009240D01*
X89021532Y-96113162D01*
X89085610Y-96170784D01*
X89229587Y-96292845D01*
X89368292Y-96392656D01*
X89485515Y-96458587D01*
X89489022Y-96460135D01*
X89612768Y-96514108D01*
X89743257Y-96570997D01*
X89805436Y-96598094D01*
X89918498Y-96651381D01*
X90046546Y-96717488D01*
X90119200Y-96757759D01*
X90224011Y-96816721D01*
X90285340Y-96845790D01*
X90310805Y-96846070D01*
X90308023Y-96818666D01*
X90293057Y-96782965D01*
X90255856Y-96727883D01*
X90221915Y-96708259D01*
X90187498Y-96682964D01*
X90154659Y-96621638D01*
X90153071Y-96617209D01*
X90115321Y-96533058D01*
X90068766Y-96460654D01*
X90023816Y-96412956D01*
X89990881Y-96402923D01*
X89985349Y-96408434D01*
X89945835Y-96438097D01*
X89903178Y-96410559D01*
X89873343Y-96357142D01*
X89777779Y-96197544D01*
X89644088Y-96056931D01*
X89532234Y-95978419D01*
X89395253Y-95901859D01*
X89473344Y-96004242D01*
X89529833Y-96093364D01*
X89549897Y-96160441D01*
X89531756Y-96196511D01*
X89512312Y-96200259D01*
X89472362Y-96180726D01*
X89405171Y-96129507D01*
X89325256Y-96057672D01*
X89324934Y-96057362D01*
X89139655Y-95908990D01*
X88942948Y-95814114D01*
X88728874Y-95767262D01*
X88550377Y-95746650D01*
X87917782Y-95746650D01*
X87891659Y-95720852D01*
X87795182Y-95618688D01*
X87743948Y-95544079D01*
X87735071Y-95489151D01*
X87765666Y-95446024D01*
X87785810Y-95431856D01*
X87842513Y-95412794D01*
X87918381Y-95419778D01*
X88022237Y-95455270D01*
X88162905Y-95521733D01*
X88226243Y-95554770D01*
X88425764Y-95660716D01*
X88493067Y-95620558D01*
X88751733Y-95620558D01*
X88889638Y-95652554D01*
X88978879Y-95669241D01*
X89029764Y-95665314D01*
X89059795Y-95640443D01*
X89082648Y-95622683D01*
X89120500Y-95623665D01*
X89184515Y-95646524D01*
X89285854Y-95694396D01*
X89329211Y-95716127D01*
X89453355Y-95781204D01*
X89571684Y-95847270D01*
X89662980Y-95902378D01*
X89679763Y-95913500D01*
X89753252Y-95960079D01*
X89807384Y-95987757D01*
X89820009Y-95991083D01*
X89855384Y-96013052D01*
X89892984Y-96056920D01*
X89934269Y-96108023D01*
X90004691Y-96187649D01*
X90091580Y-96281613D01*
X90126531Y-96318390D01*
X90248435Y-96458832D01*
X90348694Y-96608020D01*
X90443687Y-96790447D01*
X90447198Y-96797906D01*
X90512686Y-96932304D01*
X90579240Y-97060309D01*
X90636922Y-97163162D01*
X90661884Y-97203138D01*
X90714937Y-97300256D01*
X90766670Y-97423996D01*
X90795880Y-97513473D01*
X90828324Y-97618816D01*
X90859968Y-97682405D01*
X90902215Y-97720989D01*
X90954458Y-97746423D01*
X91107071Y-97821565D01*
X91285957Y-97928976D01*
X91475254Y-98058540D01*
X91634132Y-98179850D01*
X91794038Y-98317590D01*
X91902074Y-98432042D01*
X91960312Y-98525655D01*
X91972562Y-98580519D01*
X91983803Y-98588404D01*
X92012035Y-98550116D01*
X92037767Y-98501200D01*
X92062494Y-98444358D01*
X92079889Y-98386089D01*
X92091118Y-98314887D01*
X92097353Y-98219246D01*
X92099760Y-98087660D01*
X92099510Y-97908622D01*
X92099425Y-97894286D01*
X92096191Y-97718123D01*
X92089227Y-97550095D01*
X92079426Y-97405174D01*
X92067681Y-97298330D01*
X92062020Y-97266757D01*
X92017256Y-97067615D01*
X91981930Y-96916279D01*
X91953198Y-96802064D01*
X91928214Y-96714286D01*
X91904134Y-96642262D01*
X91878112Y-96575308D01*
X91877487Y-96573789D01*
X91747953Y-96312720D01*
X91579626Y-96054852D01*
X91385383Y-95817162D01*
X91178103Y-95616628D01*
X91110323Y-95562472D01*
X90948543Y-95450579D01*
X90748561Y-95328481D01*
X90528284Y-95206561D01*
X90305617Y-95095200D01*
X90299344Y-95092251D01*
X90158091Y-95025981D01*
X90651260Y-95025981D01*
X90671740Y-95048460D01*
X90731006Y-95085942D01*
X90835249Y-95144431D01*
X90866259Y-95161498D01*
X91134969Y-95322144D01*
X91358504Y-95487573D01*
X91550249Y-95670829D01*
X91723588Y-95884954D01*
X91891907Y-96142989D01*
X91916981Y-96185318D01*
X92063899Y-96486771D01*
X92178339Y-96831047D01*
X92258186Y-97209493D01*
X92301324Y-97613453D01*
X92307922Y-97785068D01*
X92315553Y-98189523D01*
X92485803Y-98052620D01*
X92629594Y-97954307D01*
X92786120Y-97874523D01*
X92844391Y-97852242D01*
X92989678Y-97808253D01*
X93116282Y-97779250D01*
X93212434Y-97767304D01*
X93266364Y-97774485D01*
X93270092Y-97777347D01*
X93308957Y-97787165D01*
X93384060Y-97789471D01*
X93415388Y-97788137D01*
X93515635Y-97790942D01*
X93609109Y-97808184D01*
X93678146Y-97835066D01*
X93705083Y-97866791D01*
X93682602Y-97897876D01*
X93625851Y-97949072D01*
X93550867Y-98008225D01*
X93473685Y-98063181D01*
X93410341Y-98101786D01*
X93380592Y-98112730D01*
X93352356Y-98089898D01*
X93349309Y-98038180D01*
X93371143Y-97982743D01*
X93382353Y-97969294D01*
X93402917Y-97939725D01*
X93381393Y-97933436D01*
X93292336Y-97954453D01*
X93189137Y-98008621D01*
X93095227Y-98082610D01*
X93068112Y-98111643D01*
X92994234Y-98178117D01*
X92937400Y-98193955D01*
X92905951Y-98167647D01*
X92908228Y-98107684D01*
X92952571Y-98022559D01*
X92964733Y-98006400D01*
X93005635Y-97952019D01*
X93009769Y-97934245D01*
X92978316Y-97943518D01*
X92972203Y-97945996D01*
X92901479Y-97972561D01*
X92868377Y-97983420D01*
X92834309Y-98015084D01*
X92784926Y-98086751D01*
X92729866Y-98184118D01*
X92719655Y-98204148D01*
X92652177Y-98326508D01*
X92598655Y-98394230D01*
X92556168Y-98410005D01*
X92525543Y-98382986D01*
X92524693Y-98339214D01*
X92544874Y-98266929D01*
X92552137Y-98248516D01*
X92577429Y-98181300D01*
X92585732Y-98144800D01*
X92584179Y-98142612D01*
X92550018Y-98165198D01*
X92496241Y-98222641D01*
X92435463Y-98299471D01*
X92380299Y-98380214D01*
X92355966Y-98422512D01*
X92299106Y-98508088D01*
X92204671Y-98623330D01*
X92080945Y-98759578D01*
X91936211Y-98908175D01*
X91778754Y-99060462D01*
X91616858Y-99207779D01*
X91546083Y-99269023D01*
X91431927Y-99367790D01*
X91356577Y-99438998D01*
X91312166Y-99492417D01*
X91290831Y-99537823D01*
X91284706Y-99584987D01*
X91284612Y-99593935D01*
X91292985Y-99662243D01*
X91313523Y-99695790D01*
X91317360Y-99696494D01*
X91367025Y-99678406D01*
X91451050Y-99629496D01*
X91558385Y-99557800D01*
X91677982Y-99471353D01*
X91798791Y-99378191D01*
X91909762Y-99286347D01*
X91999846Y-99203859D01*
X92012950Y-99190665D01*
X92197354Y-99022478D01*
X92380099Y-98901961D01*
X92576290Y-98819417D01*
X92605333Y-98810445D01*
X92700903Y-98776521D01*
X92776339Y-98739964D01*
X92801520Y-98721738D01*
X92851692Y-98694583D01*
X92887793Y-98719804D01*
X92904911Y-98790720D01*
X92903335Y-98860265D01*
X92881671Y-98952740D01*
X92843235Y-99001095D01*
X92795648Y-98999501D01*
X92762644Y-98967865D01*
X92703286Y-98934009D01*
X92611397Y-98942865D01*
X92492933Y-98991428D01*
X92353852Y-99076689D01*
X92200112Y-99195641D01*
X92061553Y-99321776D01*
X91946321Y-99428174D01*
X91824875Y-99530983D01*
X91716301Y-99614387D01*
X91673083Y-99643696D01*
X91578760Y-99707188D01*
X91499811Y-99767211D01*
X91459689Y-99804185D01*
X91407243Y-99906582D01*
X91388416Y-100043409D01*
X91402098Y-100200457D01*
X91447181Y-100363515D01*
X91514337Y-100504764D01*
X91555553Y-100562822D01*
X91601873Y-100584720D01*
X91678831Y-100581618D01*
X91687692Y-100580548D01*
X91797650Y-100562193D01*
X91904241Y-100537361D01*
X91912142Y-100535097D01*
X91997015Y-100503259D01*
X92116458Y-100449748D01*
X92253462Y-100383078D01*
X92391014Y-100311761D01*
X92512105Y-100244311D01*
X92590727Y-100195469D01*
X92654315Y-100142709D01*
X92673475Y-100093193D01*
X92668721Y-100059066D01*
X92661859Y-100012024D01*
X92684143Y-99996584D01*
X92750122Y-100003026D01*
X92752135Y-100003334D01*
X92844250Y-100024419D01*
X92952953Y-100058521D01*
X92987906Y-100071508D01*
X93112821Y-100104929D01*
X93267981Y-100123703D01*
X93335481Y-100126140D01*
X93444601Y-100124377D01*
X93532078Y-100113049D01*
X93618794Y-100086649D01*
X93628755Y-100082269D01*
X93997872Y-100082269D01*
X94010775Y-100099157D01*
X94036749Y-100110418D01*
X94091580Y-100122486D01*
X94114658Y-100095889D01*
X94118416Y-100078396D01*
X94140378Y-100036022D01*
X94193122Y-100038017D01*
X94315077Y-100067868D01*
X94404789Y-100074443D01*
X94484922Y-100058069D01*
X94525107Y-100042794D01*
X94595007Y-100009068D01*
X94616974Y-99981506D01*
X94601867Y-99950872D01*
X94572390Y-99889919D01*
X94595475Y-99849147D01*
X94665825Y-99833757D01*
X94717552Y-99837270D01*
X94792362Y-99841567D01*
X94856462Y-99825991D01*
X94931434Y-99782990D01*
X94988423Y-99742493D01*
X95066721Y-99684127D01*
X95121303Y-99641738D01*
X95139436Y-99625536D01*
X95113585Y-99621473D01*
X95057259Y-99620611D01*
X94995265Y-99610439D01*
X94975338Y-99570537D01*
X94975083Y-99562024D01*
X94999671Y-99508236D01*
X95039197Y-99493119D01*
X95111042Y-99463816D01*
X95150736Y-99431576D01*
X95167070Y-99408041D01*
X95153614Y-99401106D01*
X95102266Y-99411704D01*
X95004925Y-99440768D01*
X94967092Y-99452735D01*
X94738289Y-99547925D01*
X94556730Y-99667171D01*
X94437585Y-99757433D01*
X94298470Y-99857951D01*
X94171220Y-99945801D01*
X94071736Y-100013375D01*
X94016072Y-100056270D01*
X93997872Y-100082269D01*
X93628755Y-100082269D01*
X93725636Y-100039669D01*
X93798658Y-100003998D01*
X93946869Y-99923115D01*
X94109094Y-99823262D01*
X94253708Y-99724064D01*
X94272847Y-99709755D01*
X94399021Y-99613983D01*
X94484362Y-99546708D01*
X94535036Y-99499504D01*
X94557207Y-99463949D01*
X94557041Y-99431619D01*
X94540702Y-99394089D01*
X94525306Y-99364808D01*
X94495504Y-99277998D01*
X94476772Y-99167072D01*
X94470807Y-99054561D01*
X94479306Y-98962997D01*
X94492336Y-98927024D01*
X94534910Y-98902741D01*
X94610800Y-98890158D01*
X94629464Y-98889671D01*
X94734470Y-98884448D01*
X94832753Y-98871798D01*
X94836877Y-98870994D01*
X94897949Y-98852662D01*
X94924326Y-98817283D01*
X94930243Y-98744390D01*
X94930259Y-98736721D01*
X94930259Y-98624352D01*
X95122931Y-98624352D01*
X95122950Y-98667459D01*
X95129493Y-98769386D01*
X95154629Y-98821214D01*
X95210335Y-98832243D01*
X95308586Y-98811772D01*
X95308744Y-98811729D01*
X95362902Y-98772566D01*
X95396955Y-98706478D01*
X95548334Y-98706478D01*
X95560647Y-98738206D01*
X95614531Y-98729764D01*
X95649802Y-98715747D01*
X95679573Y-98689127D01*
X95679942Y-98635946D01*
X95670510Y-98595041D01*
X95651111Y-98530560D01*
X95633595Y-98513287D01*
X95610026Y-98546052D01*
X95573284Y-98629735D01*
X95548334Y-98706478D01*
X95396955Y-98706478D01*
X95409351Y-98682423D01*
X95420803Y-98649640D01*
X95447871Y-98563848D01*
X95465004Y-98503705D01*
X95468142Y-98488115D01*
X95441927Y-98477104D01*
X95377282Y-98472390D01*
X95295206Y-98473937D01*
X95216695Y-98481708D01*
X95182715Y-98488603D01*
X95146776Y-98506754D01*
X95128610Y-98546730D01*
X95122931Y-98624352D01*
X94930259Y-98624352D01*
X94930259Y-98621124D01*
X94795106Y-98724289D01*
X94699665Y-98786559D01*
X94603722Y-98832733D01*
X94557651Y-98846646D01*
X94449860Y-98852556D01*
X94359154Y-98832141D01*
X94300946Y-98790768D01*
X94287789Y-98752710D01*
X94295195Y-98718967D01*
X94327190Y-98703908D01*
X94398434Y-98702858D01*
X94437200Y-98705052D01*
X94515393Y-98707282D01*
X94576216Y-98697084D01*
X94637387Y-98667045D01*
X94716626Y-98609752D01*
X94774196Y-98564042D01*
X94913676Y-98463710D01*
X95049036Y-98395891D01*
X95201562Y-98352295D01*
X95387582Y-98325147D01*
X95561022Y-98306965D01*
X95435883Y-98226078D01*
X95262842Y-98144674D01*
X95060650Y-98098920D01*
X94851188Y-98093358D01*
X94814217Y-98096998D01*
X94671050Y-98122407D01*
X94527955Y-98161893D01*
X94400393Y-98209795D01*
X94303827Y-98260454D01*
X94258321Y-98300500D01*
X94208658Y-98338245D01*
X94156628Y-98337013D01*
X94125335Y-98299763D01*
X94123436Y-98283229D01*
X94150380Y-98226195D01*
X94222534Y-98162216D01*
X94326883Y-98097818D01*
X94450410Y-98039527D01*
X94580098Y-97993868D01*
X94702930Y-97967366D01*
X94761574Y-97963318D01*
X94859111Y-97963318D01*
X94834792Y-97731730D01*
X94784934Y-97414920D01*
X94700387Y-97069318D01*
X94598305Y-96748466D01*
X94568899Y-96670224D01*
X94796755Y-96670224D01*
X94811899Y-96722224D01*
X94827350Y-96768024D01*
X94882050Y-96946619D01*
X94935189Y-97152887D01*
X94982107Y-97365731D01*
X95018147Y-97564053D01*
X95038417Y-97723928D01*
X95057917Y-97957751D01*
X95180853Y-97977316D01*
X95291102Y-98004846D01*
X95397763Y-98046227D01*
X95408377Y-98051571D01*
X95493087Y-98093601D01*
X95535745Y-98106203D01*
X95545940Y-98090031D01*
X95538394Y-98060436D01*
X95450379Y-97826584D01*
X95338286Y-97572800D01*
X95210361Y-97314949D01*
X95074845Y-97068893D01*
X94939983Y-96850499D01*
X94828022Y-96693318D01*
X94802107Y-96663092D01*
X94796755Y-96670224D01*
X94568899Y-96670224D01*
X94515416Y-96527926D01*
X94437427Y-96354925D01*
X94357919Y-96218321D01*
X94270475Y-96106969D01*
X94176722Y-96016582D01*
X94085241Y-95943419D01*
X93975135Y-95863336D01*
X93858796Y-95784374D01*
X93748618Y-95714573D01*
X93656994Y-95661974D01*
X93596315Y-95634618D01*
X93584743Y-95632494D01*
X93546927Y-95619071D01*
X93470144Y-95583071D01*
X93367694Y-95530902D01*
X93308858Y-95499601D01*
X93137970Y-95415487D01*
X92930769Y-95326083D01*
X92703712Y-95237404D01*
X92473255Y-95155460D01*
X92255855Y-95086265D01*
X92067970Y-95035832D01*
X91999705Y-95021289D01*
X91884711Y-95005695D01*
X91729529Y-94993322D01*
X91547874Y-94984373D01*
X91353460Y-94979051D01*
X91159999Y-94977560D01*
X90981207Y-94980105D01*
X90830797Y-94986888D01*
X90722482Y-94998114D01*
X90701906Y-95002005D01*
X90663378Y-95012497D01*
X90651260Y-95025981D01*
X90158091Y-95025981D01*
X90105958Y-95001523D01*
X89839745Y-95096750D01*
X89649163Y-95169574D01*
X89445828Y-95255162D01*
X89245839Y-95346107D01*
X89065297Y-95435002D01*
X88920299Y-95514441D01*
X88885220Y-95535903D01*
X88751733Y-95620558D01*
X88493067Y-95620558D01*
X88607600Y-95552220D01*
X88705522Y-95492230D01*
X88787198Y-95439400D01*
X88834798Y-95405280D01*
X88885803Y-95373616D01*
X88981026Y-95324604D01*
X89109260Y-95263250D01*
X89259295Y-95194560D01*
X89419923Y-95123538D01*
X89579937Y-95055190D01*
X89728126Y-94994522D01*
X89853283Y-94946539D01*
X89895083Y-94931782D01*
X90045971Y-94886483D01*
X90220807Y-94842959D01*
X90384178Y-94809942D01*
X90398967Y-94807483D01*
X90525786Y-94792460D01*
X90696322Y-94780069D01*
X90896613Y-94770566D01*
X91112698Y-94764207D01*
X91330614Y-94761247D01*
X91536400Y-94761943D01*
D16*
G04 #@! TO.C,J1*
X115256000Y-105918000D02*
X117916000Y-105918000D01*
X115256000Y-105918000D02*
X115256000Y-113598000D01*
X115256000Y-113598000D02*
X117916000Y-113598000D01*
X117916000Y-105918000D02*
X117916000Y-113598000D01*
X117916000Y-103318000D02*
X117916000Y-104648000D01*
X116586000Y-103318000D02*
X117916000Y-103318000D01*
G04 #@! TO.C,SWPWR1*
X100371600Y-100524000D02*
X100371600Y-103184000D01*
X102971600Y-100524000D02*
X100371600Y-100524000D01*
X102971600Y-103184000D02*
X100371600Y-103184000D01*
X102971600Y-100524000D02*
X102971600Y-103184000D01*
X104241600Y-100524000D02*
X105571600Y-100524000D01*
X105571600Y-100524000D02*
X105571600Y-101854000D01*
G04 #@! TO.C,TRGR1*
X99755000Y-110931000D02*
X99755000Y-108271000D01*
X97155000Y-110931000D02*
X99755000Y-110931000D01*
X97155000Y-108271000D02*
X99755000Y-108271000D01*
X97155000Y-110931000D02*
X97155000Y-108271000D01*
X95885000Y-110931000D02*
X94555000Y-110931000D01*
X94555000Y-110931000D02*
X94555000Y-109601000D01*
G04 #@! TO.C,VBR1*
X115071200Y-110887200D02*
X115071200Y-112217200D01*
X113741200Y-110887200D02*
X115071200Y-110887200D01*
X112471200Y-110887200D02*
X112471200Y-113547200D01*
X112471200Y-113547200D02*
X109871200Y-113547200D01*
X112471200Y-110887200D02*
X109871200Y-110887200D01*
X109871200Y-110887200D02*
X109871200Y-113547200D01*
G04 #@! TO.C,D5*
X105885000Y-98000000D02*
X98585000Y-98000000D01*
X105885000Y-92500000D02*
X98585000Y-92500000D01*
X98585000Y-92500000D02*
X98585000Y-93650000D01*
G04 #@! TO.C,D2*
X79151500Y-111271500D02*
X71851500Y-111271500D01*
X79151500Y-105771500D02*
X71851500Y-105771500D01*
X71851500Y-105771500D02*
X71851500Y-106921500D01*
G04 #@! TO.C,U1*
X82760000Y-101830000D02*
X83540000Y-101830000D01*
X83540000Y-101830000D02*
X83540000Y-100830000D01*
X82760000Y-83590000D02*
X83540000Y-83590000D01*
X83540000Y-83590000D02*
X83540000Y-84590000D01*
X57795000Y-101830000D02*
X57795000Y-83590000D01*
X57795000Y-83590000D02*
X64215000Y-83590000D01*
X57795000Y-101830000D02*
X64215000Y-101830000D01*
X64215000Y-101830000D02*
X64215000Y-102210000D01*
G04 #@! TO.C,C201*
D15*
X85396342Y-99010647D02*
X85443961Y-99058266D01*
X85491580Y-99201123D01*
X85491580Y-99296361D01*
X85443961Y-99439219D01*
X85348723Y-99534457D01*
X85253485Y-99582076D01*
X85063009Y-99629695D01*
X84920152Y-99629695D01*
X84729676Y-99582076D01*
X84634438Y-99534457D01*
X84539200Y-99439219D01*
X84491580Y-99296361D01*
X84491580Y-99201123D01*
X84539200Y-99058266D01*
X84586819Y-99010647D01*
X84586819Y-98629695D02*
X84539200Y-98582076D01*
X84491580Y-98486838D01*
X84491580Y-98248742D01*
X84539200Y-98153504D01*
X84586819Y-98105885D01*
X84682057Y-98058266D01*
X84777295Y-98058266D01*
X84920152Y-98105885D01*
X85491580Y-98677314D01*
X85491580Y-98058266D01*
X84491580Y-97439219D02*
X84491580Y-97343980D01*
X84539200Y-97248742D01*
X84586819Y-97201123D01*
X84682057Y-97153504D01*
X84872533Y-97105885D01*
X85110628Y-97105885D01*
X85301104Y-97153504D01*
X85396342Y-97201123D01*
X85443961Y-97248742D01*
X85491580Y-97343980D01*
X85491580Y-97439219D01*
X85443961Y-97534457D01*
X85396342Y-97582076D01*
X85301104Y-97629695D01*
X85110628Y-97677314D01*
X84872533Y-97677314D01*
X84682057Y-97629695D01*
X84586819Y-97582076D01*
X84539200Y-97534457D01*
X84491580Y-97439219D01*
X85491580Y-96153504D02*
X85491580Y-96724933D01*
X85491580Y-96439219D02*
X84491580Y-96439219D01*
X84634438Y-96534457D01*
X84729676Y-96629695D01*
X84777295Y-96724933D01*
G04 #@! TO.C,R30*
X73550542Y-103830380D02*
X73217209Y-103354190D01*
X72979114Y-103830380D02*
X72979114Y-102830380D01*
X73360066Y-102830380D01*
X73455304Y-102878000D01*
X73502923Y-102925619D01*
X73550542Y-103020857D01*
X73550542Y-103163714D01*
X73502923Y-103258952D01*
X73455304Y-103306571D01*
X73360066Y-103354190D01*
X72979114Y-103354190D01*
X73883876Y-102830380D02*
X74502923Y-102830380D01*
X74169590Y-103211333D01*
X74312447Y-103211333D01*
X74407685Y-103258952D01*
X74455304Y-103306571D01*
X74502923Y-103401809D01*
X74502923Y-103639904D01*
X74455304Y-103735142D01*
X74407685Y-103782761D01*
X74312447Y-103830380D01*
X74026733Y-103830380D01*
X73931495Y-103782761D01*
X73883876Y-103735142D01*
X75121971Y-102830380D02*
X75217209Y-102830380D01*
X75312447Y-102878000D01*
X75360066Y-102925619D01*
X75407685Y-103020857D01*
X75455304Y-103211333D01*
X75455304Y-103449428D01*
X75407685Y-103639904D01*
X75360066Y-103735142D01*
X75312447Y-103782761D01*
X75217209Y-103830380D01*
X75121971Y-103830380D01*
X75026733Y-103782761D01*
X74979114Y-103735142D01*
X74931495Y-103639904D01*
X74883876Y-103449428D01*
X74883876Y-103211333D01*
X74931495Y-103020857D01*
X74979114Y-102925619D01*
X75026733Y-102878000D01*
X75121971Y-102830380D01*
G04 #@! TO.C,R56*
X108373942Y-105201980D02*
X108040609Y-104725790D01*
X107802514Y-105201980D02*
X107802514Y-104201980D01*
X108183466Y-104201980D01*
X108278704Y-104249600D01*
X108326323Y-104297219D01*
X108373942Y-104392457D01*
X108373942Y-104535314D01*
X108326323Y-104630552D01*
X108278704Y-104678171D01*
X108183466Y-104725790D01*
X107802514Y-104725790D01*
X109278704Y-104201980D02*
X108802514Y-104201980D01*
X108754895Y-104678171D01*
X108802514Y-104630552D01*
X108897752Y-104582933D01*
X109135847Y-104582933D01*
X109231085Y-104630552D01*
X109278704Y-104678171D01*
X109326323Y-104773409D01*
X109326323Y-105011504D01*
X109278704Y-105106742D01*
X109231085Y-105154361D01*
X109135847Y-105201980D01*
X108897752Y-105201980D01*
X108802514Y-105154361D01*
X108754895Y-105106742D01*
X110183466Y-104201980D02*
X109992990Y-104201980D01*
X109897752Y-104249600D01*
X109850133Y-104297219D01*
X109754895Y-104440076D01*
X109707276Y-104630552D01*
X109707276Y-105011504D01*
X109754895Y-105106742D01*
X109802514Y-105154361D01*
X109897752Y-105201980D01*
X110088228Y-105201980D01*
X110183466Y-105154361D01*
X110231085Y-105106742D01*
X110278704Y-105011504D01*
X110278704Y-104773409D01*
X110231085Y-104678171D01*
X110183466Y-104630552D01*
X110088228Y-104582933D01*
X109897752Y-104582933D01*
X109802514Y-104630552D01*
X109754895Y-104678171D01*
X109707276Y-104773409D01*
G04 #@! TO.C,U4*
X96774095Y-106843580D02*
X96774095Y-107653104D01*
X96821714Y-107748342D01*
X96869333Y-107795961D01*
X96964571Y-107843580D01*
X97155047Y-107843580D01*
X97250285Y-107795961D01*
X97297904Y-107748342D01*
X97345523Y-107653104D01*
X97345523Y-106843580D01*
X98250285Y-107176914D02*
X98250285Y-107843580D01*
X98012190Y-106795961D02*
X97774095Y-107510247D01*
X98393142Y-107510247D01*
G04 #@! TO.C,J3*
X100250666Y-85934180D02*
X100250666Y-86648466D01*
X100203047Y-86791323D01*
X100107809Y-86886561D01*
X99964952Y-86934180D01*
X99869714Y-86934180D01*
X100631619Y-85934180D02*
X101250666Y-85934180D01*
X100917333Y-86315133D01*
X101060190Y-86315133D01*
X101155428Y-86362752D01*
X101203047Y-86410371D01*
X101250666Y-86505609D01*
X101250666Y-86743704D01*
X101203047Y-86838942D01*
X101155428Y-86886561D01*
X101060190Y-86934180D01*
X100774476Y-86934180D01*
X100679238Y-86886561D01*
X100631619Y-86838942D01*
G04 #@! TO.C,U13*
X93580104Y-92416380D02*
X93580104Y-93225904D01*
X93627723Y-93321142D01*
X93675342Y-93368761D01*
X93770580Y-93416380D01*
X93961057Y-93416380D01*
X94056295Y-93368761D01*
X94103914Y-93321142D01*
X94151533Y-93225904D01*
X94151533Y-92416380D01*
X95151533Y-93416380D02*
X94580104Y-93416380D01*
X94865819Y-93416380D02*
X94865819Y-92416380D01*
X94770580Y-92559238D01*
X94675342Y-92654476D01*
X94580104Y-92702095D01*
X95484866Y-92416380D02*
X96103914Y-92416380D01*
X95770580Y-92797333D01*
X95913438Y-92797333D01*
X96008676Y-92844952D01*
X96056295Y-92892571D01*
X96103914Y-92987809D01*
X96103914Y-93225904D01*
X96056295Y-93321142D01*
X96008676Y-93368761D01*
X95913438Y-93416380D01*
X95627723Y-93416380D01*
X95532485Y-93368761D01*
X95484866Y-93321142D01*
G04 #@! TO.C,Q5*
X87966561Y-82361019D02*
X87871323Y-82313400D01*
X87776085Y-82218161D01*
X87633228Y-82075304D01*
X87537990Y-82027685D01*
X87442752Y-82027685D01*
X87490371Y-82265780D02*
X87395133Y-82218161D01*
X87299895Y-82122923D01*
X87252276Y-81932447D01*
X87252276Y-81599114D01*
X87299895Y-81408638D01*
X87395133Y-81313400D01*
X87490371Y-81265780D01*
X87680847Y-81265780D01*
X87776085Y-81313400D01*
X87871323Y-81408638D01*
X87918942Y-81599114D01*
X87918942Y-81932447D01*
X87871323Y-82122923D01*
X87776085Y-82218161D01*
X87680847Y-82265780D01*
X87490371Y-82265780D01*
X88823704Y-81265780D02*
X88347514Y-81265780D01*
X88299895Y-81741971D01*
X88347514Y-81694352D01*
X88442752Y-81646733D01*
X88680847Y-81646733D01*
X88776085Y-81694352D01*
X88823704Y-81741971D01*
X88871323Y-81837209D01*
X88871323Y-82075304D01*
X88823704Y-82170542D01*
X88776085Y-82218161D01*
X88680847Y-82265780D01*
X88442752Y-82265780D01*
X88347514Y-82218161D01*
X88299895Y-82170542D01*
G04 #@! TO.C,R13*
X84955142Y-89758780D02*
X84621809Y-89282590D01*
X84383714Y-89758780D02*
X84383714Y-88758780D01*
X84764666Y-88758780D01*
X84859904Y-88806400D01*
X84907523Y-88854019D01*
X84955142Y-88949257D01*
X84955142Y-89092114D01*
X84907523Y-89187352D01*
X84859904Y-89234971D01*
X84764666Y-89282590D01*
X84383714Y-89282590D01*
X85907523Y-89758780D02*
X85336095Y-89758780D01*
X85621809Y-89758780D02*
X85621809Y-88758780D01*
X85526571Y-88901638D01*
X85431333Y-88996876D01*
X85336095Y-89044495D01*
X86240857Y-88758780D02*
X86859904Y-88758780D01*
X86526571Y-89139733D01*
X86669428Y-89139733D01*
X86764666Y-89187352D01*
X86812285Y-89234971D01*
X86859904Y-89330209D01*
X86859904Y-89568304D01*
X86812285Y-89663542D01*
X86764666Y-89711161D01*
X86669428Y-89758780D01*
X86383714Y-89758780D01*
X86288476Y-89711161D01*
X86240857Y-89663542D01*
G04 #@! TO.C,U50*
X88457019Y-107448504D02*
X87647495Y-107448504D01*
X87552257Y-107496123D01*
X87504638Y-107543742D01*
X87457019Y-107638980D01*
X87457019Y-107829457D01*
X87504638Y-107924695D01*
X87552257Y-107972314D01*
X87647495Y-108019933D01*
X88457019Y-108019933D01*
X88457019Y-108972314D02*
X88457019Y-108496123D01*
X87980828Y-108448504D01*
X88028447Y-108496123D01*
X88076066Y-108591361D01*
X88076066Y-108829457D01*
X88028447Y-108924695D01*
X87980828Y-108972314D01*
X87885590Y-109019933D01*
X87647495Y-109019933D01*
X87552257Y-108972314D01*
X87504638Y-108924695D01*
X87457019Y-108829457D01*
X87457019Y-108591361D01*
X87504638Y-108496123D01*
X87552257Y-108448504D01*
X88457019Y-109638980D02*
X88457019Y-109734219D01*
X88409400Y-109829457D01*
X88361780Y-109877076D01*
X88266542Y-109924695D01*
X88076066Y-109972314D01*
X87837971Y-109972314D01*
X87647495Y-109924695D01*
X87552257Y-109877076D01*
X87504638Y-109829457D01*
X87457019Y-109734219D01*
X87457019Y-109638980D01*
X87504638Y-109543742D01*
X87552257Y-109496123D01*
X87647495Y-109448504D01*
X87837971Y-109400885D01*
X88076066Y-109400885D01*
X88266542Y-109448504D01*
X88361780Y-109496123D01*
X88409400Y-109543742D01*
X88457019Y-109638980D01*
G04 #@! TO.C,C54*
X97296242Y-100655357D02*
X97343861Y-100702976D01*
X97391480Y-100845833D01*
X97391480Y-100941071D01*
X97343861Y-101083928D01*
X97248623Y-101179166D01*
X97153385Y-101226785D01*
X96962909Y-101274404D01*
X96820052Y-101274404D01*
X96629576Y-101226785D01*
X96534338Y-101179166D01*
X96439100Y-101083928D01*
X96391480Y-100941071D01*
X96391480Y-100845833D01*
X96439100Y-100702976D01*
X96486719Y-100655357D01*
X96391480Y-99750595D02*
X96391480Y-100226785D01*
X96867671Y-100274404D01*
X96820052Y-100226785D01*
X96772433Y-100131547D01*
X96772433Y-99893452D01*
X96820052Y-99798214D01*
X96867671Y-99750595D01*
X96962909Y-99702976D01*
X97201004Y-99702976D01*
X97296242Y-99750595D01*
X97343861Y-99798214D01*
X97391480Y-99893452D01*
X97391480Y-100131547D01*
X97343861Y-100226785D01*
X97296242Y-100274404D01*
X96724814Y-98845833D02*
X97391480Y-98845833D01*
X96343861Y-99083928D02*
X97058147Y-99322023D01*
X97058147Y-98702976D01*
G04 #@! TO.C,SWPWR1*
X99762038Y-100201361D02*
X99904895Y-100248980D01*
X100142990Y-100248980D01*
X100238228Y-100201361D01*
X100285847Y-100153742D01*
X100333466Y-100058504D01*
X100333466Y-99963266D01*
X100285847Y-99868028D01*
X100238228Y-99820409D01*
X100142990Y-99772790D01*
X99952514Y-99725171D01*
X99857276Y-99677552D01*
X99809657Y-99629933D01*
X99762038Y-99534695D01*
X99762038Y-99439457D01*
X99809657Y-99344219D01*
X99857276Y-99296600D01*
X99952514Y-99248980D01*
X100190609Y-99248980D01*
X100333466Y-99296600D01*
X100666800Y-99248980D02*
X100904895Y-100248980D01*
X101095371Y-99534695D01*
X101285847Y-100248980D01*
X101523942Y-99248980D01*
X101904895Y-100248980D02*
X101904895Y-99248980D01*
X102285847Y-99248980D01*
X102381085Y-99296600D01*
X102428704Y-99344219D01*
X102476323Y-99439457D01*
X102476323Y-99582314D01*
X102428704Y-99677552D01*
X102381085Y-99725171D01*
X102285847Y-99772790D01*
X101904895Y-99772790D01*
X102809657Y-99248980D02*
X103047752Y-100248980D01*
X103238228Y-99534695D01*
X103428704Y-100248980D01*
X103666800Y-99248980D01*
X104619180Y-100248980D02*
X104285847Y-99772790D01*
X104047752Y-100248980D02*
X104047752Y-99248980D01*
X104428704Y-99248980D01*
X104523942Y-99296600D01*
X104571561Y-99344219D01*
X104619180Y-99439457D01*
X104619180Y-99582314D01*
X104571561Y-99677552D01*
X104523942Y-99725171D01*
X104428704Y-99772790D01*
X104047752Y-99772790D01*
X105571561Y-100248980D02*
X105000133Y-100248980D01*
X105285847Y-100248980D02*
X105285847Y-99248980D01*
X105190609Y-99391838D01*
X105095371Y-99487076D01*
X105000133Y-99534695D01*
G04 #@! TO.C,VBR1*
X110763276Y-109586780D02*
X111096609Y-110586780D01*
X111429942Y-109586780D01*
X112096609Y-110062971D02*
X112239466Y-110110590D01*
X112287085Y-110158209D01*
X112334704Y-110253447D01*
X112334704Y-110396304D01*
X112287085Y-110491542D01*
X112239466Y-110539161D01*
X112144228Y-110586780D01*
X111763276Y-110586780D01*
X111763276Y-109586780D01*
X112096609Y-109586780D01*
X112191847Y-109634400D01*
X112239466Y-109682019D01*
X112287085Y-109777257D01*
X112287085Y-109872495D01*
X112239466Y-109967733D01*
X112191847Y-110015352D01*
X112096609Y-110062971D01*
X111763276Y-110062971D01*
X113334704Y-110586780D02*
X113001371Y-110110590D01*
X112763276Y-110586780D02*
X112763276Y-109586780D01*
X113144228Y-109586780D01*
X113239466Y-109634400D01*
X113287085Y-109682019D01*
X113334704Y-109777257D01*
X113334704Y-109920114D01*
X113287085Y-110015352D01*
X113239466Y-110062971D01*
X113144228Y-110110590D01*
X112763276Y-110110590D01*
X114287085Y-110586780D02*
X113715657Y-110586780D01*
X114001371Y-110586780D02*
X114001371Y-109586780D01*
X113906133Y-109729638D01*
X113810895Y-109824876D01*
X113715657Y-109872495D01*
G04 #@! TO.C,D5*
X98575904Y-92273380D02*
X98575904Y-91273380D01*
X98814000Y-91273380D01*
X98956857Y-91321000D01*
X99052095Y-91416238D01*
X99099714Y-91511476D01*
X99147333Y-91701952D01*
X99147333Y-91844809D01*
X99099714Y-92035285D01*
X99052095Y-92130523D01*
X98956857Y-92225761D01*
X98814000Y-92273380D01*
X98575904Y-92273380D01*
X100052095Y-91273380D02*
X99575904Y-91273380D01*
X99528285Y-91749571D01*
X99575904Y-91701952D01*
X99671142Y-91654333D01*
X99909238Y-91654333D01*
X100004476Y-91701952D01*
X100052095Y-91749571D01*
X100099714Y-91844809D01*
X100099714Y-92082904D01*
X100052095Y-92178142D01*
X100004476Y-92225761D01*
X99909238Y-92273380D01*
X99671142Y-92273380D01*
X99575904Y-92225761D01*
X99528285Y-92178142D01*
G04 #@! TO.C,D2*
X71905904Y-105481380D02*
X71905904Y-104481380D01*
X72144000Y-104481380D01*
X72286857Y-104529000D01*
X72382095Y-104624238D01*
X72429714Y-104719476D01*
X72477333Y-104909952D01*
X72477333Y-105052809D01*
X72429714Y-105243285D01*
X72382095Y-105338523D01*
X72286857Y-105433761D01*
X72144000Y-105481380D01*
X71905904Y-105481380D01*
X72858285Y-104576619D02*
X72905904Y-104529000D01*
X73001142Y-104481380D01*
X73239238Y-104481380D01*
X73334476Y-104529000D01*
X73382095Y-104576619D01*
X73429714Y-104671857D01*
X73429714Y-104767095D01*
X73382095Y-104909952D01*
X72810666Y-105481380D01*
X73429714Y-105481380D01*
X79937214Y-110573880D02*
X79365785Y-110573880D01*
X79651500Y-110573880D02*
X79651500Y-109573880D01*
X79556261Y-109716738D01*
X79461023Y-109811976D01*
X79365785Y-109859595D01*
G04 #@! TO.C,U1*
X81328095Y-102772380D02*
X81328095Y-103581904D01*
X81375714Y-103677142D01*
X81423333Y-103724761D01*
X81518571Y-103772380D01*
X81709047Y-103772380D01*
X81804285Y-103724761D01*
X81851904Y-103677142D01*
X81899523Y-103581904D01*
X81899523Y-102772380D01*
X82899523Y-103772380D02*
X82328095Y-103772380D01*
X82613809Y-103772380D02*
X82613809Y-102772380D01*
X82518571Y-102915238D01*
X82423333Y-103010476D01*
X82328095Y-103058095D01*
G04 #@! TD*
M02*
