<svg height="512pt" viewBox="0 -121 512 512" width="512pt" xmlns="http://www.w3.org/2000/svg"><path d="m497 60h-45v-15c0-24.8125-20.1875-45-45-45h-362c-24.8125 0-45 20.1875-45 45v180c0 24.8125 20.1875 45 45 45h362c24.8125 0 45-20.1875 45-45v-15h45c8.285156 0 15-6.714844 15-15v-120c0-8.285156-6.714844-15-15-15zm-75 165c0 8.269531-6.730469 15-15 15h-362c-8.269531 0-15-6.730469-15-15v-180c0-8.269531 6.730469-15 15-15h362c8.269531 0 15 6.730469 15 15zm60-45h-30v-90h30zm0 0"/><path d="m148.414062 68.292969c-2.539062-5.082031-7.730468-8.292969-13.414062-8.292969h-60c-8.285156 0-15 6.714844-15 15v120c0 8.285156 6.714844 15 15 15h120c5.199219 0 10.027344-2.691406 12.761719-7.113281 2.730469-4.421875 2.980469-9.945313.652343-14.59375zm-58.414062 111.707031v-90h35.730469l45 90zm0 0"/></svg>